<?xml version="1.0" standalone="no"?>
<!DOCTYPE svg PUBLIC "-//W3C//DTD SVG 1.1//EN" "http://www.w3.org/Graphics/SVG/1.1/DTD/svg11.dtd" >
<svg xmlns="http://www.w3.org/2000/svg" xmlns:xlink="http://www.w3.org/1999/xlink" version="1.1">
<metadata>
Created by FontForge 20201107 at Wed May 29 08:27:33 2024
 By 
Copyright (c) 2019 by Ira Dvilyuk. All rights reserved.
</metadata>
<defs>
<font id="Buongiorno_Rastellino-Script" horiz-adv-x="0" >
  <font-face 
    font-family="Buongiorno_Rastellino Script"
    font-weight="400"
    font-stretch="normal"
    units-per-em="2048"
    panose-1="0 0 5 0 0 0 0 0 0 0"
    ascent="1638"
    descent="-410"
    x-height="655"
    cap-height="1460"
    bbox="-1024 -410 2644 1759"
    underline-thickness="102"
    underline-position="-204"
    unicode-range="U+0020-E254"
  />
<missing-glyph horiz-adv-x="1024" 
d="M840 1638v-2048h-650v2048h650zM682 1501h-338v-67h133v-76h-135v-68h340v68h-135v76h135v67zM547 1237h-205v-213h340v70h-135v143zM477 1167v-73h-67v73h67zM682 969h-340v-68h135v-76h-135v-67h205v143h135v68zM682 846h-68v-135h-272v-70h340v205zM682 596h-205v-115
h70v47h67v-96h-204v164h-68v-231h340v231zM682 242h-340v-232h340v232zM614 174v-96h-204v96h204zM682 -37h-340v-67h143l-143 -97v-67h340v67h-209l143 97h66v67z" />
    <glyph glyph-name="a_l.liga" unicode="al" horiz-adv-x="499" 
d="M213 465q-13 -7 -20 18q-5 17 8 33l30 37l35 45q57 71 49 68q-6 -6 -6 -7q-1 -1 -22 -11.5t-23 -12.5l-45 -21q-14 -7 -71 -30.5t-70 -24.5q-9 -2 -25.5 -1t-19.5 5l-2 2q0 1 -1 2t-1 2q-7 10 -4 23q0 11 6 20l6 15q0 1 -7.5 -3t-18 -11t-17.5 -13q-12 -9 -36.5 -21
t-31.5 -12q-18 0 -18 13q0 7 14 18q44 35 94 61q28 14 34 16t9 -3q0 -4 11 -4q9 0 11.5 -3.5t-1.5 -10.5t-6.5 -10.5l-7.5 -10.5q-26 -32 -17 -53q1 -4 8 -4t14 2l7 2q21 4 117 43l79 39q44 22 50 26q53 40 65 53q27 27 35 37q5 4 36.5 34t43.5 40q65 58 162 129q10 8 33 22
t28 17q38 29 70 37q19 5 26 0.5t4 -17.5q-3 -12 -40.5 -47.5t-65.5 -56.5q-10 -8 -25.5 -20.5t-25.5 -20.5l-49 -37l-78 -53q-32 -23 -37 -23q-3 0 -19 -12q-20 -15 -36 -25q-10 -3 -15 -8l-24 -16q-16 -8 -25 -21q-12 -12 -12 -14q-3 0 -17 -18l-22 -29q-11 -11 -23 -27
l-32 -41l-25 -26q-16 -20 -16 -23q-19 -19 -19 -33q-4 -22 -8 -24zM453 768q1 0 18 11t21 12l8 6q25 12 55 34q54 34 111 80l43 35l39 33l28 27q20 22 17 22q-3 6 -7 6t-4 -4h-4q-2 0 -28.5 -16t-34.5 -23l-17 -14l-30 -21l-64 -51l-10 -8q-3 0 -58.5 -48t-68.5 -63
q-1 -2 -4 -4l-11 -15zM-70 586l13 4q44 22 55 33q7 7 29 18q12 4 12 8q0 7 -25 -8q-43 -19 -71 -47z" />
    <glyph glyph-name="a_t.liga" unicode="at" horiz-adv-x="675" 
d="M143 178q-6 -6 -16 10q-3 7 -2 11.5t8 17.5q23 52 51 84l19 29q0 4 8 8l4 6q0 5 6 8q7 7 10 13q4 9 11 12q1 3 20 26q48 61 119 138l39 47l20 24q7 7 23 27l20 23q16 12 56 57q8 10 22 24q5 5 9.5 8.5t6.5 5t3 3.5q32 40 84 92l4 6l4 4l14 12q3 3 4 3l10 10l2 2q0 2 -2 2
h-4l-10 -8q0 -3 -16 -13h-2l-19 -12l-51 -37q-1 0 -20.5 -12t-43 -26t-34.5 -19q-33 -16 -99 -55q0 1 -19.5 -9.5l-39 -21t-20.5 -10.5l-5 -2l-2 -2l-28 -15h-2l-2 -2h-2l-129 -61q-17 -8 -36 -15t-30 -9l-10 -3h-6q-12 -3 -25 0q-9 0 -16 10t-4 23q0 11 6 20l6 15
q0 1 -7.5 -3t-18 -11t-17.5 -13q-12 -9 -36.5 -21t-31.5 -12q-18 0 -18 13q0 7 14 18q44 35 94 61q28 14 34 16t9 -3q0 -4 11 -4q9 0 11.5 -3.5t-1.5 -10.5t-6.5 -10.5l-7.5 -10.5q-26 -32 -17 -53q1 -4 8 -4t14 2l7 2q31 7 188 75l37 19l6 4q70 39 76 41l6 4l148 86l34 20
q0 -1 3.5 1t11 6.5l12.5 7.5q14 10 78 49l67 45q2 2 10 8t11 8q15 15 29 25h-43q-2 1 -16.5 0.5t-39 -1.5t-47 -3t-39.5 -3l-18 -1q-15 0 -39 -4l-98 -6q-31 0 -101 -9q-6 -2 -51 -6q-7 -1 -18 -2.5t-19.5 -2.5t-11.5 -1q-8 -2 -15.5 -2t-12.5 1t-5 3q0 12 36 18t151 15
l47 4l5 1q5 0 13 0.5t16 0.5l70 4l6 1q6 0 14.5 0.5t16.5 0.5q35 4 149 8q41 0 68 2q8 8 19.5 18.5t17.5 16t6 6.5q0 4 4 4t82 88q4 6 16 8t15 -3q3 -11 -17 -37q-3 -3 -12 -10t-22.5 -20.5t-32.5 -37.5q-4 -6 -31 -33l64 2q102 0 131 -2h82q59 0 69 -2h51l93 -4l8 -1
q9 0 22.5 -0.5t26.5 -0.5t25.5 -0.5t19.5 -0.5l8 -1q17 0 37 -2q8 0 16.5 -0.5t14.5 -0.5l6 -1q10 -2 18 -2q17 0 33 -4l43 -4q53 -6 53 -17q3 -12 -12 -16q-3 0 -9.5 -1t-8.5 -1q-11 -3 -13 6q-4 8 -16 10q-21 0 -29 2q-20 5 -41 5l-34 4q-4 2 -37 2q-30 0 -62 4
q-9 0 -27 1t-24 1q-23 0 -27 2q-6 0 -8 -2t-4 0q-1 0 -6 1t-8 1q-25 0 -43 2h-64q-6 1 -20 1.5t-33.5 1t-32.5 1.5h-106l-90 2l-82 -2l-27 -25l-2 -2l-5 -6q-6 -7 -11 -12q-19 -15 -19 -16q-6 0 -78 -72q-54 -54 -114 -123l-29 -29q-14 -10 -14 -16q-2 -2 -4 -2
q-1 1 -3.5 -1t-4.5 -5t-3 -6q-6 -7 -12 -11q-21 -19 -86 -94q-7 -7 -15 -15.5t-13 -13.5l-5 -6l-6 -4q0 -6 -24 -33q-28 -28 -31 -34q-5 -11 -29 -31q-29 -33 -63 -76q-108 -140 -99 -164q0 -6 -2 -6zM-70 586l13 4q44 22 55 33q7 7 29 18q12 4 12 8q0 7 -25 -8
q-43 -19 -71 -47z" />
    <glyph glyph-name="b_b.liga" unicode="bb" horiz-adv-x="454" 
d="M-47 498v10q-3 28 49 70q46 36 68 36q8 2 16 13q2 5 2 10t-1 8.5t-3 3.5q-9 3 -38.5 -13.5t-55.5 -37.5q-30 -24 -39 -45q-5 -8 -12 -8h-5q-6 0 -6 6q0 10 4 14q15 28 58 74l45 51l22 27q7 4 13 12q-26 -9 -31 -14q-8 -5 -30 -13t-29 -8q-14 0 -7 11q3 3 17 10l33 12
l28 12l47 19l74 73l25 23l16 16l33 29l24 23l52 39l30 22l17 12l22 13q50 37 129 65l17 4q19 10 36 13l23 6q36 8 41 0q13 -13 0 -35q-6 -11 -20 -27t-21 -20l-27 -21q-23 -19 -41 -30l-28 -21l-17 -8q-8 -4 -8 -6q0 -4 -8 -8l-12 -7q-72 -43 -80 -43q-4 0 -4 -4q0 -2 -4 -2
q-7 0 -58 -30q-4 -2 -9 -4t-7.5 -3.5t-3.5 -1.5q-9 0 -33 -14l-33 -16l-43 -21l-47 -24l-2 -2l-6 -3l-16 -6l-7 -4l-8 -6q-23 -23 -37 -41l-43 -49q-6 -6 -4 -6l19 12q44 19 61 17q11 -3 14 -11q7 -13 -4.5 -36.5t-36.5 -45.5q-70 -58 -100 -69zM139 776q0 -4 19 6
q5 2 11 5.5t9 5.5t4 2q3 0 19 8q13 10 18 10q3 0 19 8l43 19l38 20q10 5 25 10q6 2 31 17l35 20l45 25l61 41q42 27 64 49l18 16q1 0 2.5 2.5t4.5 6.5t5 6l8 12q3 3 3 8q0 1 -2.5 3.5t-4.5 2.5q-5 2 -23.5 -0.5t-21.5 -5.5l-30 -10q-48 -14 -119 -53q-86 -52 -133 -95
q-14 -14 -17 -14q-2 0 -106 -98l-23 -23q-2 0 -2 -4zM184 528q-10 -3 -16 1.5t-4 15.5q0 9 16 22q13 10 35 23l23 12q8 5 28 14t23 9q3 -1 19 14t18 20q-1 6 -12 5.5t-27.5 -6t-28.5 -13.5l-16 -8q-7 0 -47.5 -39t-42.5 -47q0 -5 -7 -8q-5 -2 -10 6q-3 6 -2 9t10 15l23 27
q5 3 24 27l33 39l19 24q-2 2 -19 -2q-15 -6 -31 -5t-18 7q-2 5 1.5 7t10.5 1q19 -3 50 9q20 8 28 8q19 10 49 37l58 49q49 33 53 33q1 -1 4 2q0 4 23 20q12 4 12 8q2 2 4 2q6 0 6 2l19 15l34 24q41 29 84 43q6 2 29 2q13 0 16 -10q4 -4 4 -14q0 -6 -9.5 -19.5t-18.5 -21.5
l-33 -25l-37 -26l-18 -13l-15 -8l-30 -18l-35 -21l-21 -10l-22 -10l-14 -6l-21 -9l-45 -16q-30 -10 -35 -10q-10 0 -31 -21q-8 -7 -16 -16t-12.5 -15.5t-3.5 -7.5q6 3 12 7q13 9 29 12q12 4 31.5 3.5t25.5 -5.5q11 -11 -4 -33q-8 -10 -4 -10q3 0 5 -2.5t2.5 -5t-1.5 -3.5h-2
q-2 -1 -4.5 -1t-5.5 1q-11 0 -52 -34q-53 -45 -90 -56zM319 735q3 -3 21 4q102 40 117 49l26 13l17 8l65 45l29 20q24 18 37.5 34t9.5 22q-1 3 -7 4.5t-7 -0.5q-1 0 -5 -1t-6 -1q-9 0 -31.5 -9t-31.5 -16l-76 -49l-24 -16q-79 -57 -103 -78zM-29 520q3 -1 43.5 31.5
t48.5 42.5q2 4 0 4q-9 0 -49 -27q-29 -25 -42 -46q-3 -5 -1 -5zM182 547q3 -4 22.5 5.5t35.5 22.5l22 21q0 1 -6 -1t-16 -7q-9 -5 -23.5 -14.5t-25 -17.5t-9.5 -9z" />
    <glyph glyph-name="b_t.liga" unicode="bt" horiz-adv-x="579" 
d="M47 178q-6 -6 -16 10q-3 7 -2 11.5t8 17.5q23 52 51 84l18 29q0 4 9 8l4 6q0 5 6 8q7 7 10 13q5 9 10 12q1 2 4.5 6t8.5 10t8 10q48 61 119 138l39 47l20 24q7 7 23 27l20 23q13 10 55 57q4 5 23 24q8 8 8 13q0 2 2 0q6 0 8 4q32 40 84 92q0 2 4 6l4 4l11 10q2 0 2 2h2
q3 3 4 3q3 5 8 8v2h2l2 2q0 2 -2 2h-4v-2h-2v-2l-4 -2v-2h-4q0 -2 -2 -2h-4v-2l-2 -2q0 -3 -2 -3t-2 -2l-5 -2h-2l-2 -2l-6 -4q-6 0 -6 -4l-4 -2l-8 -4l-4 -4q-5 0 -11 -6q-4 0 -10 -6q-8 -7 -10 -7l-6 -4l-2 -2q-1 0 -20 -12t-42 -26t-34 -19q-37 -18 -93 -51l-15 -9
t-18.5 -10.5t-13.5 -7.5q-12 -6 -30 -18q-8 -4 -11 -4l-2 -2q-2 0 -2 -2q-2 0 -4.5 -1t-3.5 -1q-3 -3 -6 -3v-2h-2q-4 -4 -6 -4h-2q0 -2 -2 -2q-1 0 -2.5 -1t-2.5 -1q-11 -6 -73 -37q-28 -13 -66 -49q-14 -14 -41 -31q-12 -6 -16 -10q-20 -15 -43 -18q-7 -1 -13 3.5t-4 10.5
q0 13 33.5 39t69.5 41q31 10 39 18v2h4q6 3 10 7q6 3 6 8q4 2 4 10v2q0 3 -14 3.5t-18 -1.5q0 -4 -11 -4q-9 -2 -43 -29l-10 -6q-8 -4 -14 -10q-32 -28 -39 -45q-5 -8 -12 -8h-5q-6 0 -6 6q0 10 4 14q15 28 58 74q15 15 45 51l22 25h-2l2 2q7 4 13 12q-26 -9 -31 -14
q-8 -5 -30 -13t-29 -8q-14 0 -7 11q3 3 17 10l33 12q12 4 28 12q2 0 8.5 3t17.5 8t21 8l6 6q3 3 9 6q12 15 28 31l31 30q4 4 10 9.5t10 9t5 4.5l16 16l33 29q10 7 26 23l45 36l-59 -6q-6 -2 -51 -6q-7 -1 -18 -2.5t-19.5 -2.5t-11.5 -1q-8 -2 -15.5 -2t-12.5 1t-5 3
q0 12 38 19t148 14l33 2l25 18q1 0 3.5 2t8 5t10.5 6q50 37 129 65q3 0 9 2t8 2q19 10 36 13l23 6q36 8 41 0q13 -13 0 -35q-6 -11 -20 -27t-21 -20q-2 0 -27 -21l-2 -2q54 4 82 4q41 0 68 2q8 8 19.5 18.5t17.5 16t6 6.5q0 4 4 4t82 88q4 6 16 8t15 -3q3 -11 -17 -37
q-3 -3 -12 -10t-22.5 -20.5t-32.5 -37.5q-4 -6 -31 -33l63 2q102 0 131 -2h82q60 0 70 -2h51l92 -4l9 -1q8 0 22 -0.5t27 -0.5t25.5 -0.5t19.5 -0.5l8 -1q17 0 37 -2q8 0 16.5 -0.5t14.5 -0.5l6 -1q10 -2 18 -2q17 0 33 -4l43 -4q16 -1 28.5 -4t18.5 -6.5t6 -6.5
q3 -12 -12 -16q-3 0 -10 -1t-9 -1q-10 -2 -12 6q-4 8 -16 10q-21 0 -29 2q-20 5 -41 5l-35 4q-4 2 -37 2q-29 0 -61 4q-9 0 -27 1t-24 1q-23 0 -27 2q-6 0 -8 -2t-4 0q-1 0 -6 1t-8 1q-25 0 -43 2h-64q-6 1 -20 1.5t-33.5 1t-32.5 1.5h-106l-91 2l-82 -2l-26 -25l-2 -2
l-6 -6q-6 -7 -11 -12q-18 -14 -18 -16q-6 0 -78 -72q-62 -62 -115 -123l-28 -29q-15 -11 -15 -16q-2 -2 -4 -2q-1 1 -4.5 -3t-5.5 -9q-6 -7 -12 -11q-21 -19 -86 -94q-7 -7 -15 -15.5t-13 -13.5l-5 -6l-6 -4q0 -4 -25 -33q-26 -26 -30 -34q-5 -11 -29 -31q-40 -45 -64 -76
q-107 -139 -98 -164q0 -6 -2 -6zM373 981h20l70 4l6 1q6 0 14.5 0.5t16.5 0.5q2 0 16 1t25 1q24 18 39 33q5 5 12 10l6 6q1 0 2.5 2.5t4.5 6.5t5 6q8 12 11 12v8q0 1 -2.5 3.5t-4.5 2.5q-5 2 -23.5 -0.5t-21.5 -5.5q-14 -6 -28 -10q-49 -14 -121 -53zM10 633l6 4
q11 14 25 20l6 5q29 14 55 10q27 -7 21 -25v-10q4 0 16 6l29 14q11 7 16 9q9 6 15 6q8 2 14 6q70 39 76 41l6 4q4 0 8 4q0 2 2 4q2 0 4 2q1 0 2 1t2 1h4v2q3 0 5 2q2 0 6 4q1 0 3.5 1t4.5 1q14 7 22 15l31 18q16 6 53 31l35 20q0 -1 3.5 1t11 6.5l12.5 7.5q14 10 78 49
l67 45q2 2 10 8t11 8q18 18 28 25h-43q0 -1 -112 -6l-15 -10q-17 -14 -28 -21l-17 -8q-8 -4 -8 -6q0 -4 -8 -8q-5 0 -12 -7q-72 -43 -80 -43q-4 0 -4 -4q0 -2 -4 -2q-7 0 -58 -30q-4 -2 -9 -4t-7.5 -3.5t-3.5 -1.5q-9 0 -33 -14q-32 -16 -33 -16l-43 -21q-20 -12 -47 -24
q0 -2 -2 -2q-1 0 -3 -1.5t-3 -1.5q-2 -1 -8 -3.5t-8 -2.5q-4 -4 -7 -4l-8 -6q-23 -23 -37 -41l-43 -49q-6 -6 -4 -6zM139 776q0 -4 19 6q5 2 11 5.5t9 5.5t4 2q3 0 19 8q13 10 18 10q3 0 19 8q2 1 18.5 9t24.5 10q34 17 38 20q10 5 25 10q6 2 31 17t35 20l45 25l59 39h-18
q-15 0 -39 -4l-99 -6h-14q-31 -20 -57 -46q-14 -14 -17 -14q-2 0 -106 -98q-19 -23 -23 -23q-2 0 -2 -4zM-29 532q3 -3 16.5 5.5t18.5 15.5l6 4q2 0 8 6t4.5 7t-8.5 -5l-4 -4h-2q-2 0 -2 -2q-2 0 -6 -4q-3 0 -12 -6q-19 -15 -19 -17z" />
    <glyph glyph-name="c_l.liga" unicode="cl" horiz-adv-x="411" 
d="M125 465q-14 -7 -21 18q-5 17 9 33l30 37l35 45q57 71 49 68q-6 -6 -6 -7q-1 -1 -22 -11.5t-23 -12.5l-45 -21q-14 -7 -71 -30.5t-70 -24.5q-2 0 -8 -1t-9 -1q-18 -3 -28 4q-5 3 -5.5 13.5t3.5 19.5q12 25 60.5 60t76.5 38q6 1 13 -3t7 -9q1 -6 -13.5 -24.5t-20.5 -20.5
q-7 0 -7 2l-2 6q-2 2 9 16l10 11h-8q-20 -3 -66 -42.5t-45 -52.5q0 -14 90 21q9 4 19 8q26 11 53 23.5t28 13.5l39 21q44 22 50 26q53 40 65 53q27 27 35 37q5 4 36.5 34t43.5 40q31 27 88 70.5t71 54.5q3 2 64 43q38 29 70 37q19 5 26 0.5t4 -17.5q-3 -12 -40.5 -47.5
t-65.5 -56.5q-10 -8 -25.5 -20.5t-25.5 -20.5q-5 -4 -11.5 -9t-10.5 -8t-5 -4q-14 -7 -23 -16l-20 -14q-51 -34 -57 -39q-32 -23 -37 -23q-3 0 -19 -12q-15 -11 -37 -25q-9 -3 -14 -8l-24 -16q-16 -8 -25 -21q-12 -12 -12 -14q-3 0 -17 -18l-22 -29q-11 -11 -23 -27l-32 -41
l-25 -26q-16 -20 -16 -23q-19 -19 -19 -33q-4 -22 -8 -24zM365 768q1 0 17.5 11t20.5 12l9 6q25 12 55 34q54 34 111 80l43 35l38 33l29 27q20 22 17 22q-3 6 -7 6q-3 0 -8 -4q-2 0 -28.5 -16t-34.5 -23l-47 -35l-64 -51l-10 -8q-3 0 -58.5 -48t-68.5 -63q-1 -2 -4 -4
l-11 -15z" />
    <glyph glyph-name="c_t.liga" unicode="ct" horiz-adv-x="585" 
d="M18 195q-4 6 -3.5 17.5t5.5 16.5l3 9q0 2 8 14l164 197l34 43q1 1 9 10.5t14 15.5q26 34 125 148q12 12 16 20q1 2 5 7t5 7l29 33q0 1 1 2t1 2q20 24 37 41q44 45 37 41q-4 -4 -10 -4q-2 -2 -2 -4q-2 -2 -4 -2t-41 -23q-14 -9 -31 -16q-21 -13 -21 -14q-1 0 -3.5 -2
t-4.5 -2l-24 -15l-27 -14q-10 -3 -51 -29q-186 -93 -213 -100q-55 -24 -82 -31q-35 -10 -49 -2q-5 3 -5.5 13.5t3.5 19.5q12 25 60.5 60t76.5 38q6 1 13 -3t7 -9q1 -6 -13.5 -24.5t-20.5 -20.5q-7 0 -7 2l-2 6q-2 2 9 16l10 11h-8q-20 -3 -66 -42.5t-45 -52.5q0 -14 90 21
q9 4 19 8q17 7 39 17.5t30 13.5v2q15 4 66 30t63 35l96 50l31 18q34 18 78 47q5 3 16.5 9.5t14.5 7.5q8 4 8 6t2 2t14 8q8 8 13 8q2 0 6 4l2 4q3 -3 6 0l22 17q6 4 45 37q24 24 39 34q11 11 9 13q0 2 4 2q4 -4 8 4l2 6l-27 -2q-9 0 -25.5 -1t-19.5 -1q-9 -2 -61 -6
q-44 0 -68 -4q-34 0 -88 -13q-18 -4 -20 -2q-3 2 -3 11t3 10q18 11 151 18q9 1 34 2t32 2q21 0 71 4l43 2l35 33l47 49q23 34 54 49q28 15 39.5 3t-7.5 -37q-16 -22 -28 -31q-4 -3 -14 -12t-13 -11q-6 -6 -14 -10l-43 -31q5 0 26 -1t39 -1h27q186 -6 235 -12q30 0 62 -4
q61 -3 142.5 -18t103.5 -27q12 -7 12 -16q0 -10 -5 -12.5t-11 5.5t-44.5 20.5t-56.5 12.5l-16 2q-4 2 -29 6q-5 0 -10.5 0.5t-9 1t-4.5 0.5q-1 1 -23.5 3.5t-53.5 5.5t-52 4l-43 4q-1 0 -16.5 0.5t-38.5 1t-44 0.5l-80 4h-41q-4 0 -6 -2q-16 2 -73 2q-23 -3 -52 -29
q-10 -10 -12 -10q-1 0 -12.5 -8t-26 -19.5t-20.5 -17.5q-20 -19 -67 -67t-83 -86.5t-37 -38.5q-4 -6 -22 -29q-4 -4 -13.5 -15.5t-13.5 -15.5q-1 -1 -35 -41q-8 -8 -26 -30l-19 -23q-4 -5 -43 -51q-59 -69 -141.5 -175.5t-89.5 -125.5q-7 -24 -17 -4zM737 1001l15 11
q14 10 14 14q0 2 2 0q4 0 14 10q3 2 7 5.5t6.5 5.5t3.5 2q3 0 6 6l2 2q1 -2 14 10.5t26 26.5t13 16q0 9 -22 2q-1 -1 -6 -5.5t-11 -10.5t-10 -11q-17 -22 -31 -32l-10 -17q2 -2 -2 -2q-3 3 -6 -4q-3 -8 -6 -8q-6 0 -13 -10z" />
    <glyph glyph-name="d_d.liga" unicode="dd" horiz-adv-x="514" 
d="M47 487q-5 -3 -11 1.5t-7 11.5q0 6 57 77.5t78 92.5l18 18q-3 0 -35 -18l-69 -43l-19 -11l-20 -10q-20 -12 -21 -12l-8 -4q-38 -24 -69 -33q-17 -6 -21.5 2t6.5 23q12 18 41.5 44.5t50.5 37.5q58 32 78 6l6 -6l15 8l33 20q34 20 49 27q52 25 80 53l79 82l21 20
q29 27 63 64q55 59 84 78l35 26q5 5 37 29q33 17 35 2q2 -7 -19 -37q-23 -32 -73 -82q-14 -16 -47.5 -43.5t-53.5 -40.5l-30 -24q-17 -17 -23 -17q-4 0 -4 -4q0 -3 -6 -6q-3 0 -27 -16l-31 -23l-28 -22l-37 -35q-67 -55 -152 -168zM373 831l35 27l32 27q26 19 58 47
q70 67 82 84q23 27 16 26q-6 0 -49 -32l-27 -23l-16 -16q-29 -26 -47 -49l-27 -27q-58 -52 -59 -63q0 -2 2 -1zM252 489q-6 6 -6 15q0 14 88 125q23 29 19 29q-5 -1 -50 -35l-55 -41q-13 -10 -19.5 -10t-13.5 10q-20 33 39 77q27 22 56.5 32.5t43.5 4.5q10 -3 25 6
q13 8 16 15q3 6 8 4q5 0 48 49q72 81 118 125q74 69 111 88q12 4 24.5 1t14.5 -11q0 -7 -64 -68q-90 -86 -96 -86q-4 0 -4 -2q0 -4 -14 -14l-21 -17l-28 -22q-43 -32 -60 -51q-28 -32 -84 -106t-67 -93q-12 -21 -17.5 -25.5t-11.5 0.5zM498 793q-9 -9 -5 -8.5t13 10.5
q10 10 12 10q4 0 14 10l25 21q23 17 56.5 48t57 55t21.5 26l-4 2l-8 -4q-16 -4 -45 -33l-21 -19l-43 -41q-46 -46 -73 -77zM233 600q3 -1 31 17.5t47 33.5q29 27 27 29q-3 5 -24 -3t-33 -18l-11 -6q-2 0 -18 -16q-26 -30 -19 -37zM-39 588q3 0 31 16q28 14 33 14q3 2 20 13
q8 4 14 9t8.5 9t0.5 6q-3 1 -11.5 1t-13.5 -1l-20 -10q-15 -6 -19 -10l-16 -14q-35 -31 -27 -33z" />
    <glyph glyph-name="e_l.liga" unicode="el" horiz-adv-x="415" 
d="M129 465q-13 -7 -20 18q-5 17 8 33l30 37l35 45q46 55 49 68q-6 -6 -6 -7q-1 -1 -22 -11.5t-23 -12.5l-45 -21q-6 -4 -64 -29t-61 -24q-10 0 -16 -2q-11 -4 -28.5 -3.5t-20.5 5.5q-12 12 -4 43q3 12 14 32.5t14 20.5q4 0 19 15q8 11 32 30l23 17q5 0 25 10l26 12
q6 3 16.5 1.5t14.5 -7.5q5 -5 5 -16t-5 -17q-6 -6 -21 -17t-18 -11q-4 0 -8 -4q-8 -6 -32.5 -16.5t-33.5 -10.5q-30 -3 -37 -20q-8 -12 -8 -27q-2 -10 -1 -13t7 -3q12 -3 43 4q20 4 87.5 35.5t86.5 42.5q3 1 13.5 6.5t23.5 12l15 7.5q1 1 27 21t38 32l33 37q5 4 36.5 34
t43.5 40q82 70 162 129q10 8 33 22t28 17q38 29 70 37q19 5 26 0.5t4 -17.5q-3 -12 -40.5 -47.5t-65.5 -56.5l-21 -17.5t-30 -23.5l-27 -21q-5 -3 -22 -16l-21 -14q-51 -34 -57 -39q-32 -23 -37 -23l-19 -12q-20 -15 -36 -25q-11 -3 -15 -8l-22 -16q-18 -7 -27 -21
q-3 -4 -7 -9t-5 -5l-17 -18l-22 -29l-23 -27l-32 -41l-23 -26l-18 -23q-14 -14 -19 -33q-2 -21 -8 -24zM371 768q1 0 18 11t21 12l8 6q25 12 55 34q54 34 111 80l43 35l39 33l28 27q20 22 17 22q-3 6 -6 6q-5 0 -5 -4h-4q-2 0 -28.5 -16t-34.5 -23l-17 -14l-30 -21l-64 -51
l-10 -8q-3 0 -58.5 -48t-68.5 -63q-1 -2 -4 -4l-11 -15zM10 664q7 0 15 4q19 6 47 22t28 21q-4 2 -10 2q-14 0 -37 -15q-43 -26 -43 -34z" />
    <glyph glyph-name="e_t.liga" unicode="et" horiz-adv-x="575" 
d="M8 195q-4 6 -3.5 17.5t5.5 16.5l2 9q0 2 8 14l164 197l35 43q1 1 9 10.5t14 15.5q26 34 125 148q12 12 16 20q1 2 5 7t5 7l29 33q0 1 1 2t1 2q20 24 37 41q44 45 37 41q-4 -4 -11 -4q-2 -2 -2 -4q-2 -2 -4 -2t-41 -23q-15 -10 -30 -16q-21 -13 -21 -14q-1 0 -3.5 -2
t-4.5 -2l-25 -15l-26 -14q-3 -1 -51 -31q-91 -46 -93 -47q-16 -8 -24 -10l-17 -8l-92 -41q-46 -22 -73 -27q-18 -2 -25 -2t-10 2.5t-4 9.5q-5 10 8 31q15 25 46 49.5t62 34.5q51 18 56 2q1 -4 -9.5 -13.5t-35.5 -27.5q-46 -33 -78 -41q-19 -5 -23 -14q-7 -7 -2 -10
q19 -6 193 69h2l98 51l92 52l31 18q35 18 78 47q6 3 16.5 9.5t13.5 7.5q9 4 9 6t2 2q1 0 20 11t21 13l22 17q6 4 45 37q24 24 39 34q11 10 8 13q0 2 4 2q5 -5 9 4l2 6l-27 -2q-9 0 -25.5 -1t-19.5 -1q-9 -2 -61 -6q-44 0 -68 -4q-34 0 -88 -13q-19 -4 -21 -2q-3 2 -3 11
t3 10q18 11 152 18q9 1 34 2t32 2q21 0 71 4l43 2l35 33l47 49q24 35 53 49q28 15 40 3t-7 -37q-15 -20 -29 -31q-4 -3 -13.5 -12t-12.5 -11q-6 -6 -14 -10l-43 -31q5 0 26 -1t39 -1h27q186 -6 235 -12q30 0 62 -4q61 -3 142 -18t103 -27q13 -8 13 -16q0 -10 -5.5 -12.5
t-11.5 5.5t-44 20.5t-56 12.5l-16 2q-4 2 -29 6q-5 0 -11 0.5t-9.5 1t-4.5 0.5q-1 1 -23.5 3.5t-53.5 5.5t-52 4l-43 4q-1 0 -16 0.5t-38 1t-44 0.5l-80 4h-41q-4 0 -6 -2q-16 2 -74 2q-21 -3 -51 -29q-10 -10 -12 -10q-1 0 -13 -8t-26.5 -19.5t-20.5 -17.5
q-20 -19 -66.5 -67t-82.5 -86.5t-37 -38.5q-4 -6 -22 -29q-4 -4 -13.5 -15.5t-13.5 -15.5q-1 -1 -35 -41q-8 -8 -26 -30l-19 -23q-4 -5 -43 -51q-59 -69 -141.5 -175.5t-89.5 -125.5q-7 -24 -17 -4zM727 1001l14 11q15 11 15 14q0 2 2 0q4 0 14 10q3 2 7 5.5t6 5.5t3 2
q4 0 7 6l2 2q1 -2 14 10.5t26 26.5t13 16q0 10 -23 2q-21 -21 -26 -27q-17 -22 -31 -32l-10 -17q2 -2 -2 -2q-3 3 -6 -4q-3 -8 -7 -8q-5 0 -12 -10zM-4 627q-2 -2 1 -1q9 1 32 13q41 23 51 33q0 3 -11 -1t-22 -9q-10 -3 -29.5 -16.5t-21.5 -18.5z" />
    <glyph glyph-name="f_f.liga" unicode="ff" horiz-adv-x="403" 
d="M-479 -143q-7 0 -9.5 3.5t-0.5 9.5t8 13q7 8 17.5 22t14.5 19l9 10l12 19q12 16 14 16l10 14q11 14 23.5 29.5t18.5 20.5q48 54 102.5 116t81 92t37.5 42q80 85 82 94q0 6 12 14q3 2 36 36t76.5 81.5t69.5 77.5l2 4l2 2q0 1 1 3t1 3q-80 -32 -151 -70q-14 -7 -66 -36
t-63 -35v-4q3 -51 -74 -154q-18 -26 -63.5 -78.5t-63.5 -70.5q-11 -11 -33 -34t-42.5 -44t-43.5 -41q-82 -70 -129 -103q-39 -26 -45 -32q-15 -9 -18 -7q-11 11 18 43q106 125 182 212t145 164t99 112q1 2 8.5 10t10.5 12l215 242q5 6 23.5 25.5t21.5 23.5q31 31 57 35
q17 0 14 -31q-1 -3 -2 -8.5t-2 -9.5t-2 -6q-6 -9 -40 -32t-62 -36q-22 -9 -29 -14q0 -4 -4 -4l-115 -135l2 2l37 18l33 18q12 8 47 24.5t39 16.5l64 27q12 6 36 14l15 6l2 3q9 4 30.5 27t32.5 38q49 59 58 62q12 6 18 8q29 10 39 -11q3 -7 2.5 -10t-8.5 -14q-4 -6 -10 -12
q-2 -4 -9 -11l-2 -2q-4 -2 -20 -18q-17 -17 -37 -27q-8 -6 -20 -12q-11 -5 -11 -6q-7 0 -16 -6q-8 -4 -47 -43q0 -5 -4 -9q-4 -5 -59.5 -62t-59.5 -62l-23 -25q-15 -13 4 -4q5 2 20 9l26 13q23 10 79 31h2q9 3 20.5 7.5t19.5 7.5t12 4q21 6 49.5 10t36.5 2q16 -5 20 -17
q0 -17 -14 -20q-8 0 -6 10q4 9 -10 10q-6 1 -17 0q-18 -2 -47.5 -7.5t-30.5 -8.5q-3 -3 -24 -10h-2q-4 -2 -12.5 -5t-12.5 -5q-7 -7 -14 -7l-2 -2q-5 0 -9 -4h-2l-12 -6h-2l-4 -2l-2 -2q-2 0 -4 -2q-3 -1 -8.5 -3.5t-14.5 -6.5t-14 -6q-8 -4 -43 -25l-16 -12l8 -25
q2 -26 -4 -47q-5 -16 -21 -37q-10 -13 -10 -20q0 -3 -32 -40t-67.5 -77t-37.5 -43q-1 -1 -17 -15.5t-22 -21.5q-25 -25 -31 -29l-43 -36q-22 -19 -82 -62q-46 -29 -67 -47q-26 -18 -35 -18zM41 666q0 -1 10 4t24 13t23 15q30 21 33 39q2 8 -7 6q-6 -1 -15 -6
q-10 -8 -39 -37.5t-29 -33.5zM219 645l10 6q22 7 64 45q34 30 31 39q0 6 -7 6h-2q-2 0 -5 -1t-5 -1q-5 0 -20 -18q-3 -3 -7.5 -7t-7 -6t-2.5 -3q-4 -2 -41 -48zM-598 -55q3 -3 43 26t70 56q12 10 24 22q12 10 78 76q7 7 9.5 8.5t4.5 3.5q46 46 95 107q100 128 116 174
q4 8 4 18q-4 12 -18 -4l-115 -125q-10 -13 -44 -49.5t-50 -54.5l-182 -215zM-449 -106q7 0 19 12l49 26q35 22 76 58l47 41q8 7 31 27.5t34 31.5q13 16 58.5 66.5t50.5 60.5l23 31q41 62 32 98q-2 9 -5 12t-7.5 0t-11.5 -12q-29 -34 -113 -121q-65 -65 -170 -186l-10 -12
q-8 -8 -12.5 -13.5t-6.5 -7.5l-4 -4l-2 -4q-37 -49 -43 -57q-25 -36 -32 -43q-3 0 -3 -4z" />
    <glyph glyph-name="f_t.liga" unicode="ft" horiz-adv-x="514" 
d="M-651 -111q-7 7 -3.5 15t19.5 28q136 158 261.5 300.5t164.5 187.5l21 22l215 242l45 49q11 13 29 23t28 12q17 0 14 -31q-1 -3 -2 -8.5t-2 -9.5t-2 -6q-6 -9 -40 -32t-62 -36q-22 -9 -29 -14l-125 -146q71 27 236 125q3 1 80 52t153 100t80 49q2 0 2 4q6 6 14 10
q12 6 62 43q21 16 49.5 44.5t28.5 31.5l2 2l2 1l2 2l2.5 2.5l3 3t2.5 3.5q12 18 -10 15l-45 -2q-44 0 -74 -6q-35 -7 -51 -7q-17 0 -23 -2q-24 -8 -26 -2q-2 5 1 12t9 7l84 8q50 8 133 8q27 0 32.5 3.5t39.5 37.5l30 31q37 37 43 45q11 15 36.5 26.5t31.5 2.5q5 -7 -14 -35
q-9 -12 -32.5 -37.5t-29.5 -30.5q-6 -4 -12.5 -13t-5.5 -11q4 -4 119 2q135 7 241 0h39q21 0 29 -2q6 -2 23.5 -2t52.5 1t61 1q51 0 51 -13q0 -7 -6 -12t-11.5 -5t-8.5 5q-2 6 -33 8l-51 2l-29 2h-49q-38 0 -84 4h-45l-39 2q-10 1 -32 0t-57.5 -3t-64.5 -3l-75 -2
q-21 0 -50 -7.5t-32 -12.5l-11 -8q-9 -6 -22 -19q-17 -17 -41 -35q-28 -21 -41 -34l-27 -27l-381 -453q-14 -15 -39 -49t-24 -35t-28.5 -35t-31.5 -34q-6 0 -6 10q0 11 27 47l41 55l362 441q11 14 2 8l-22 -14l-41 -27l-43 -29q-49 -31 -101 -65t-72 -47t-50 -31.5
t-57 -33.5t-70 -38l-92 -47q-10 -2 -20 -7t-17 -7v-6q3 -48 -74 -154q-19 -28 -127 -149q-11 -11 -33 -34t-43 -44t-43 -41q-82 -70 -129 -103l-45 -32q-15 -9 -18 -7zM676 1008q0 -6 17 9q4 3 7 7l9 4l4 4q33 33 35 33t17 20t15 23q0 4 -14 -10l-61 -62q-4 -4 -10 -11
t-9 -10t-6 -3zM41 666l48 26q5 3 9 6q30 21 33 39q0 13 -22 0q-10 -8 -39 -37.5t-29 -33.5zM-598 -55q3 -3 41 25t72 57l24 22q12 10 78 76q7 7 9.5 8.5t4.5 3.5q46 46 93 107q95 118 118 174l4 18q-4 12 -20 -4l-113 -125q-8 -11 -23 -27.5t-37 -38.5t-36 -38l-180 -215z
" />
    <glyph glyph-name="g_g.liga" unicode="gg" horiz-adv-x="475" 
d="M-664 -150q-11 3 -18 14t-6 21q3 35 33 70q-3 -1 -9.5 -2.5t-11 -2.5t-8.5 -1q-15 -1 -20 3.5t-3 18.5l2 15q11 14 13 26q2 2 12 17h2q4 4 4 8q2 9 49.5 60t77.5 73q37 32 76 55l31 19q25 18 37 22t12 8q2 2 4 2q5 0 25 13q142 69 145 67q1 0 3 1t5.5 2.5t5.5 2.5
q6 6 25 11q27 8 59 51q13 17 54.5 66t70.5 84.5t25 33.5l-49 -20q-5 -3 -20.5 -2t-18.5 4q-5 4 -4.5 13t6.5 13l8 9q2 1 5.5 2t4.5 2l19 14q33 22 57 29q20 6 32.5 1.5t12.5 -16.5q0 -3 1 -7t1 -5q0 -5 -10 -18l-23 -35l-26 -35q-5 -7 -40 -46.5t-63.5 -73t-25.5 -31.5l22 8
l27 6l47 16q45 15 110 35q61 61 86 88q44 47 39 47q-8 0 -8 -4q0 -2 -8 -6q-2 0 -20 -6q-40 -23 -44 -6q-2 5 3 14q5 11 28 31t47 33q17 9 45 12.5t37 -2.5q2 -1 0.5 -5t-6 -10.5t-12.5 -15.5q-1 -1 -24 -31t-40 -47q-28 -30 -48.5 -51.5t-28.5 -30.5l90 23l45 10q50 9 63 6
q6 -2 8.5 -7t-0.5 -9q-6 -6 -8 -6l-18 -9q-14 -7 -23 -4q-14 3 -4 13q3 5 -2 5q-4 0 -20 -3q-22 -3 -43 -8l-105 -27l-37 -39l-22 -20l-17 -19q-3 -5 -2.5 -5.5t6.5 -0.5l19 6l37 10q17 3 49 13q16 5 51 15.5t69 20t40 11.5l112 24q40 9 136.5 19t146.5 10h22q3 3 28 -2
t42 -12q20 -7 26 -13.5t3 -15.5q-14 -27 -25 -27q-4 0 -5 3.5t-1 19.5q0 7 -2 9.5t-12 6.5l-17 8l-12 2q-25 5 -61 5l-56 -2q-57 0 -154.5 -15.5t-144.5 -30.5l-26 -6q-27 -4 -111 -30q-20 -5 -32.5 -9t-22 -7t-15.5 -5l-39 -14q-8 -1 -57 -21q-39 -14 -53 -28l-25 -25
l-22 -25q-2 -3 -25 -27t-30 -30l-41 -41l-95 -88l-41 -35l-8 -6l-26 -20q-27 -24 -84 -63t-80 -50l-21 -12q-22 -11 -28 -13l-41 -18l-19 -6q-11 -6 -33 -10l-24 -7h-17zM170 596q6 0 66 33q30 18 26 22q-3 2 -18 -0.5t-15 -5.5q-6 -6 -10 -8q-18 -8 -44 -34q-7 -7 -5 -7z
M-33 604q15 0 52.5 18t37.5 25q0 3 -6 3.5t-14.5 -1.5t-16.5 -6q-33 -13 -53 -33q-6 -6 0 -6zM-254 242q18 6 39 18q73 36 106 47l76 31q18 9 23 14l28 31q12 11 24.5 23.5t26 26.5t19.5 20l-39 -11q-5 -1 -10 -2.5t-8 -2.5t-4 -1q-4 -4 -15 -4q-1 -1 -7 -3t-7 -3
q-8 -4 -10 -2q-4 0 -6 -2q-5 -5 -17 -8q-29 -9 -59 -23t-35 -20q-29 -29 -37 -39q-35 -40 -88 -90zM-688 -35l29 8q6 2 36 17q16 15 105 88l22 14l9 8q10 10 60.5 43.5t64.5 40.5l16 11q153 139 153 153q3 2 5 2q2 2 2 4q0 5 -23 -4l-27 -10q-18 -9 -18 -10l-8 -2
q-6 0 -8 -2q0 -4 -43 -23q-44 -21 -60 -33l-18 -10q-3 0 -47 -28t-64 -42q-60 -47 -90 -75q-52 -52 -88 -115q-14 -32 -8 -35zM-621 -129l35 10q6 2 94 47q28 14 78 49l39 27q19 14 84 66l33 28l14 15q5 6 29 26.5t27 20.5q6 6 12 14q26 31 51 53l14 19l19 16l29 33
q15 21 11 21q-2 0 -16 -5l-43 -18q-21 -5 -47 -21l-22 -10q-3 0 -25.5 -10.5t-27.5 -13.5l-29 -15l-23 -12q-7 -5 -17 -14t-13 -11l-97 -77l-86 -66l-47 -33l-20 -12l-29 -16q-5 -2 -15.5 -7.5t-15.5 -7.5q-4 -5 -12.5 -14.5t-11.5 -13.5q-28 -44 -19 -60q10 -20 47 -8z
M-557 29l4 2q2 0 6 4q0 4 4 4q3 0 39 25t47 34l17 13q12 8 24 20l21 19q-11 -7 -30.5 -20t-23.5 -15q-52 -39 -75 -62q-16 -12 -19 -12q-2 0 -10 -8z" />
    <glyph glyph-name="h_h.liga" unicode="hh" horiz-adv-x="540" 
d="M223 551q-12 6 -2 24q13 25 39 43q9 9 6 17q0 2 2 0q2 -3 29 24q7 7 5 11q0 1 -3 -2q0 -5 -16 -9q-8 -3 -62 -26q0 -2 -2 -2q-16 -8 -20 -8h-2l-7 -5q0 -1 -10 -6q-2 0 -14 -6q-61 -30 -84 -37h-4q-9 -3 -17 2q-13 11 -4 35h4v2h2q0 4 3 13q17 28 22 28q2 0 2 4
q-6 0 -10 -2l-23 -8q-10 -2 -24 -12q-12 -6 -13 -6q-4 0 -8 -7q-1 0 -2 -1t-2 -1l-14 -12l-4 -6q-2 0 -6 -4l-4 -4q-3 0 -7 -4q-1 0 -3 -2t-3 -2l-10 -11q-1 0 -3 -1t-3 -1q-8 -4 -10 -4q-13 7 -13 13q0 9 15 24q3 4 10 11.5t8 9.5l19 20l4 4q0 4 4 4q17 23 71 76
q7 7 16.5 17t13.5 14.5t3 5.5q-16 -2 -16 -4v-2q-2 0 -4.5 -1t-3.5 -1t-3.5 -1t-3.5 -1h-2q-2 -1 -13.5 -6t-14.5 -7l-23 -6q-3 -1 -7 -3l-7 -3.5t-6 -3.5q-16 -4 -21 -4q-13 0 -6 10q5 5 16 8q4 1 17 6t18 7t11.5 4.5t11 4t6.5 1.5l20 8l13 8q2 1 6 2.5t6.5 2.5t3.5 1
q4 0 4 2l19 9v-2l16 8q14 7 31 24q19 19 35 31l34 31q17 17 27 22q13 13 16 15q15 15 39 30q27 19 27 23q11 11 55 39l33 22q18 11 20 11l23 12q80 46 143 61l17 6q13 6 41 11q12 4 22 4q35 7 45 0q11 -18 -4 -39q-25 -35 -45 -47l-31 -21q-23 -19 -45 -30q-4 -2 -10.5 -6.5
t-11.5 -8t-8 -4.5q-3 -3 -17 -10q-10 0 -10 -6q0 -1 -10 -6q-12 -6 -13 -7q-82 -43 -86 -43l-4 -2q0 -4 -6 -4q-1 0 -63 -26q-18 -11 -23 -11q-3 0 -35 -12q-7 -3 -15 -7t-13 -6t-6 -3q-1 0 -48 -21q-68 -30 -79 -32l-9 -9q-13 -9 -22 -20l-12 -12q-89 -84 -101 -105v-6
q2 0 10 4q30 15 72 27q32 9 39 2q3 -5 -10 -15q-29 -32 -33 -41q0 -2 -4 -6v-2l-6 -20q1 0 3 1t3 1l8 2q17 6 119 51l37 16q18 7 22 11q5 2 13.5 6t11.5 6q2 0 18 8q12 8 19 8q5 0 12 7q1 1 5 4.5t10 8.5t10 9q34 27 39 37q2 0 2 2q6 0 16 10q68 68 84 80q10 7 10 10
q0 2 2 0q4 2 8 6q1 0 8 5t11 6q8 8 24 16l12 8t11 8q9 4 27 19q4 2 10 6.5t10.5 7.5t7.5 4q15 10 33 19q80 47 119 55l18 4q9 6 29 6h2q16 0 16 -16v-2q0 -30 -22 -43q-4 -4 -6 -4l-19 -19q-16 -13 -48.5 -35.5t-39.5 -25.5l-18 -12q-18 -9 -19 -9q-2 0 -6 -4q0 -4 -16 -12
q-17 -8 -17 -10q-3 -3 -86 -51v2l-6 -4q-10 -5 -12 -5q0 -1 -18 -10q-16 -8 -21 -8q-1 0 -3 -1t-3 -1q0 -1 -3 -2.5t-8.5 -4.5t-9.5 -5q-47 -20 -77 -35l-27 -14q-7 -7 -12 -7t-21 -16q-8 -10 -16 -18q-9 -7 -19 -17l-18 -16q-3 0 -6.5 -7.5t-3.5 -9.5q6 0 10 4q36 16 76 29
q34 10 39 2q2 -5 -9 -16q-43 -41 -35 -50q1 -2 5 -1q5 0 26 7t27 11q2 1 5 2t7 2t6 2q3 2 14.5 7t16.5 8q20 8 23 8q1 1 3.5 2l7.5 3t9 3q10 6 19 6q7 -7 -17 -18q-22 -10 -69 -33q-3 -3 -17 -10q-8 0 -12 -4q-18 -11 -47 -15q-20 -1 -28.5 7.5t-2.5 23.5q5 9 13.5 20
t11.5 11q2 2 0 4q-5 0 -11 -2q-14 -7 -22 -9q-2 -1 -12 -5.5t-13 -6.5q-2 -1 -5.5 -3t-5 -3t-1.5 -2q-2 0 -10 -4q-8 -8 -13 -8l-12 -8q-4 -6 -6 -5q-6 -4 -14 -12q-15 -13 -21 -10zM190 829q0 -5 21 7q20 10 25 10q7 0 20 10q4 1 9 3.5t7.5 3.5t3.5 1q5 0 21 8l45 19
q22 5 43 16q23 11 29 13q4 0 32 14l37 20l25 11q16 8 24 14q27 11 68 39q41 21 72 47q16 16 20 16q9 9 13 15q7 14 12 14v8q0 6 -6 6q-4 2 -24 0.5t-23 -4.5l-33 -8q-62 -17 -129 -51q-96 -47 -148 -92l-16 -15q-3 0 -47 -35.5t-74 -62.5q-5 -5 -10.5 -10t-9 -8t-4.5 -4
q-3 0 -3 -5zM416 741q0 -4 4 0t8 4q3 3 45 21l41 18l27 13q5 5 18 8q10 6 20.5 11.5t18.5 10.5l18 9q9 6 19 10q10 7 39 22q8 4 10 6l29 19q3 2 14.5 10t17.5 12q7 4 25 17l27 18q33 26 43 39q16 21 8 29v2h-2l-10 -2l-15 -4q-21 -3 -41 -10q-10 -5 -12 -5q-1 -1 -6 -2.5
t-11 -4t-10 -5.5q-5 -2 -10.5 -5.5t-8 -5t-3.5 -1.5q-6 -2 -12 -6q-3 -2 -8.5 -4.5t-6.5 -3.5q-3 0 -40 -24.5t-58 -41.5q-22 -13 -23 -14q-3 0 -14 -11l-22 -18q-12 -6 -70 -64q-1 -1 -4 -3.5t-5 -4.5t-3 -4q-4 0 -4 -4q0 -1 -1.5 -2t-1.5 -2q-2 0 -10 -8l-10 -10
q-3 0 -6.5 -3.5t-3.5 -5.5z" />
    <glyph glyph-name="h_l.liga" unicode="hl" horiz-adv-x="524" 
d="M238 465q-14 -7 -21 18q-5 17 8 33l31 37l35 45q57 71 49 68q-6 -6 -6 -7q-1 -1 -22 -9.5t-23 -10.5l-45 -21q-13 -7 -74.5 -31.5t-77.5 -27.5q-2 0 -4 -2h-2q-2 -2 -4 -2l-4 -2q-7 -2 -17 4q-13 10 -2 35h2l5 12q16 31 22 31q2 0 2 2q0 1 -10 -2l-23 -8q-15 -4 -22 -11
q-3 -2 -8.5 -4.5t-6.5 -3.5l-12 -6l-24 -24l-4 -3l-7 -4l-6 -6l-10 -8l-6 -4q-4 -4 -10 -2q-13 7 -13 12q0 8 15 23l18 20l19 23l8 8l71 76l35 35q-1 1 -8.5 -1t-7.5 -4q-2 -1 -5.5 -2t-4.5 -2l-37 -12q-18 -4 -23 -8l-20 -10q-16 -4 -21 -4q-12 0 -6 12q4 4 16 8l64 23
l20 8q3 2 13 6q12 6 16 6l4 2l19 8l18 6q6 4 29 27l69 61l43 37l66 52q8 8 55 38l35 23l18 12l23 13q70 41 143 61l17 4q15 8 41 12l22 4q39 8 45 -2q11 -15 -4 -36q-6 -10 -21.5 -26.5t-23.5 -21.5l-31 -22q-7 -5 -23 -16.5t-20 -14.5l-30 -18q-12 -8 -19 -8q-6 -3 -10 -7
q0 -5 -10 -8l-13 -4q-17 -10 -50 -26.5t-36 -16.5q-4 0 -4 -4q0 -2 -4 -2q-3 0 -65 -29q-16 -8 -23 -8t-35 -14l-34 -15q-1 -1 -7.5 -3.5t-17.5 -7t-23 -9.5l-77 -35l-11 -6l-34 -35q-97 -97 -101 -104v-4q2 -2 10 2q12 7 72 28q34 10 39 2q2 -4 -8 -16q-29 -29 -35 -41
l-2 -6q-3 -6 -4.5 -11t-2 -7.5t0.5 -2.5h4l8 2q137 53 238 103q16 8 18 10q56 42 66 53q48 48 114 107q10 9 142 115q21 16 82 57q39 29 69 37q19 5 26.5 0.5t4.5 -17.5q-3 -12 -40.5 -47.5t-66.5 -56.5q-10 -8 -25.5 -20.5t-25.5 -20.5q-5 -4 -11.5 -9t-10 -8t-4.5 -4
q-14 -7 -23 -16l-20 -14q-56 -37 -58 -39q-32 -23 -37 -23q-2 0 -18 -12q-15 -11 -37 -25q-9 -3 -14 -8l-25 -16q-15 -7 -24 -21q-13 -13 -13 -14q-3 0 -16 -18l-23 -29q-7 -7 -22 -27l-33 -41l-24 -26q-17 -21 -17 -23q-18 -18 -18 -33q-4 -22 -8 -24zM190 813q0 -3 21 6
q24 12 25 12q2 0 20 9q4 1 9 3.5t7.5 3.5t3.5 1q3 0 23 8l45 18l41 19l29 10q13 4 32 17l39 18l23 12l24 13l70 38q49 29 70 50l20 16q4 0 13 14l12 15q2 4 2 6q-3 5 -8 8q-4 1 -23 -0.5t-24 -3.5l-33 -10q-55 -15 -129 -49q-88 -47 -148 -95l-16 -12q-3 0 -46.5 -36
t-74.5 -64l-24 -21q-3 0 -3 -6zM475 768q1 0 18 11t21 12l8 6q28 14 56 34q50 31 110 80l43 35l39 33l29 27q20 22 16 22l-6 6q-4 -4 -8 -4q-2 0 -29 -16t-35 -23l-47 -35l-63 -51l-11 -8q-6 -1 -60 -49t-67 -62q-1 -2 -4 -4l-11 -15z" />
    <glyph glyph-name="h_t.liga" unicode="ht" horiz-adv-x="675" 
d="M143 178q-6 -6 -16 10q-3 7 -2 11.5t8 17.5q23 52 51 84l19 29q0 2 18 24t21 23q1 3 20 26q48 61 119 138l39 47l20 24q7 7 23 27l20 23q16 12 56 57q8 10 22 24l19 17q32 40 84 92q0 1 15.5 16.5t20.5 18.5l2 2q0 2 -2 2l-10 -8l-24 -15l-7 -4q-6 0 -6 -4l-26 -16
q-5 0 -11 -6q-8 -7 -10 -7l-6 -4l-2 -2q-1 0 -20 -12t-42 -26t-34 -19q-31 -15 -92 -51q-42 -24 -48 -27q-12 -6 -30 -18q-8 -4 -10 -4l-3 -2l-98 -50q-20 -8 -22 -8l-2 -2l-4 -2q-3 -6 -13 -6q-12 -6 -14 -8q-65 -33 -84 -35l-4 -2q-7 -2 -17 4q-13 10 -2 35h2l5 12
q16 31 22 31q2 0 2 2q0 1 -10 -2l-23 -8q-15 -4 -22 -11q-3 -2 -8.5 -4.5t-6.5 -3.5l-12 -6l-24 -24l-4 -3l-7 -4l-6 -6l-10 -8l-6 -4q-4 -4 -10 -2q-13 7 -13 12q0 8 15 23l18 20l19 23l8 8l71 76l35 35q-1 1 -8.5 -1t-7.5 -4q-2 -1 -5.5 -2t-4.5 -2l-37 -12q-18 -4 -23 -8
l-20 -10q-16 -4 -21 -4q-12 0 -6 12q4 4 16 8l64 23l20 8q3 2 13 6q12 6 16 6l4 2l19 8l18 6q6 4 29 27l69 61l43 37l50 39q-3 0 -9.5 -1t-9.5 -1q-7 -1 -18 -2.5t-19.5 -2.5t-11.5 -1q-8 -2 -15.5 -2t-12.5 1t-5 3q0 10 25.5 15.5t103.5 13.5l43 28l35 23l18 12l23 13
q70 41 143 61l17 4q15 8 41 12l22 4q39 8 45 -2q11 -15 -4 -36q-6 -10 -21.5 -26.5t-23.5 -21.5l-31 -22q-7 -5 -23 -16.5t-20 -14.5q7 1 131 6q41 0 68 2q8 8 19.5 18.5t17.5 16t6 6.5q0 4 4 4t82 88q4 6 16 8t15 -3q3 -11 -17 -37q-3 -3 -12 -10t-22.5 -20.5t-32.5 -37.5
q-4 -6 -31 -33l64 2q102 0 131 -2h82q59 0 69 -2h51l93 -4l8 -1q9 0 22.5 -0.5t26.5 -0.5t25.5 -0.5t19.5 -0.5l8 -1q17 0 37 -2q8 0 16.5 -0.5t14.5 -0.5l6 -1q10 -2 18 -2q17 0 33 -4l43 -4q53 -6 53 -17q3 -12 -12 -16q-3 0 -9.5 -1t-8.5 -1q-11 -3 -13 6q-4 8 -16 10
q-21 0 -29 2q-20 5 -41 5l-34 4q-4 2 -37 2q-30 0 -62 4q-9 0 -27 1t-24 1q-23 0 -27 2q-6 0 -8 -2t-4 0q-1 0 -6 1t-8 1q-25 0 -43 2h-64q-6 1 -20 1.5t-33.5 1t-32.5 1.5h-106l-90 2l-82 -2l-27 -25l-2 -2l-5 -6q-6 -7 -11 -12q-19 -15 -19 -16q-6 0 -78 -72
q-54 -54 -114 -123l-29 -29q-4 -3 -21 -21t-20 -20q-21 -19 -86 -94q-7 -7 -15 -15.5t-13 -13.5l-5 -6l-6 -4q0 -6 -24 -33q-28 -28 -31 -34q-5 -11 -29 -31q-29 -33 -63 -76q-108 -140 -99 -164q0 -6 -2 -6zM381 973q4 0 13.5 1t13.5 1l47 4l5 1q5 0 13 0.5t16 0.5l70 4
q8 0 16 2l27 14q49 29 70 50l20 16q4 0 13 14l12 15q2 4 2 6q-3 5 -8 8q-4 1 -23 -0.5t-24 -3.5l-33 -10q-55 -15 -129 -49q-62 -32 -121 -74zM80 573h4l8 2q12 5 61.5 28t57.5 26l98 49q70 39 76 41l6 4l41 22q16 8 23 15l30 18q19 8 54 31l34 20q0 -1 3.5 1t11 6.5
l12.5 7.5q14 10 78 49l67 45q2 2 10 8t11 8q15 15 29 25h-43q0 -1 -76.5 -4.5t-83.5 -3.5h-8q-12 -8 -19 -8q-6 -3 -10 -7q0 -5 -10 -8l-13 -4q-17 -10 -50 -26.5t-36 -16.5q-4 0 -4 -4q0 -2 -4 -2q-3 0 -65 -29q-16 -8 -23 -8t-35 -14l-34 -15q-1 -1 -7.5 -3.5t-17.5 -7
t-23 -9.5l-77 -35l-11 -6l-34 -35q-97 -97 -101 -104v-4q2 -2 10 2q12 7 72 28q34 10 39 2q2 -4 -8 -16q-29 -29 -35 -41l-2 -6q-3 -6 -4.5 -11t-2 -7.5t0.5 -2.5zM190 813q0 -3 21 6q24 12 25 12q2 0 20 9q4 1 9 3.5t7.5 3.5t3.5 1q3 0 23 8l45 18l41 19l29 10q13 4 32 17
l39 18l23 12l24 13l7 4l-84 -6q-31 0 -101 -9l-16 -12q-3 0 -46.5 -36t-74.5 -64l-24 -21q-3 0 -3 -6z" />
    <glyph glyph-name="i_l.liga" unicode="il" horiz-adv-x="415" 
d="M129 465q-13 -7 -20 18q-5 17 8 33l30 37l35 45q57 71 49 68q-6 -6 -6 -7q-1 -1 -22 -11.5t-23 -12.5l-45 -21q-14 -7 -71 -30.5t-70 -24.5q-2 0 -8 -1t-11 -1h-6q-30 -3 -30 16v7q0 27 53 71q27 19 35 15q15 -6 -21 -35l-35 -29q-8 -11 -8 -24q4 -2 10 -1.5t11 1.5l4 2
q40 8 172 65l30 17q44 22 50 26q53 40 65 53q27 27 35 37q5 4 36.5 34t43.5 40q31 27 78.5 63t62.5 48q21 16 82 57q38 29 70 37q19 5 26 0.5t4 -17.5q-3 -12 -40.5 -47.5t-65.5 -56.5q-10 -8 -25.5 -20.5t-25.5 -20.5q-5 -4 -11.5 -9t-10.5 -8t-5 -4q-12 -6 -22 -16
l-21 -14q-51 -34 -57 -39q-32 -23 -37 -23q-3 0 -19 -12q-20 -15 -36 -25q-11 -3 -15 -8l-24 -16q-16 -8 -25 -21q-12 -12 -12 -14q-3 0 -17 -18l-22 -29q-11 -11 -23 -27l-32 -41l-25 -26q-16 -20 -16 -23q-19 -19 -19 -33q-4 -22 -8 -24zM367 768q1 0 18 11t21 12l8 6
q25 12 55 34q54 34 111 80l43 35l39 33l28 27q20 22 17 22l-7 6q-4 -4 -8 -4q-2 0 -28.5 -16t-34.5 -23l-47 -35l-64 -51l-10 -8q-3 0 -58.5 -48t-68.5 -63q-1 -2 -4 -4l-11 -15zM86 705q-8 -4 -15 6q-2 4 1 6q4 4 4 12q1 9 6.5 12t11.5 -2q6 -6 6 -10q2 -6 -3 -14.5
t-11 -9.5z" />
    <glyph glyph-name="i_t.liga" unicode="it" horiz-adv-x="575" 
d="M8 195q-4 6 -3.5 17.5t5.5 16.5l2 9q0 2 8 14l164 197l35 43q1 1 9 10.5t14 15.5q26 34 125 148q12 12 16 20q1 2 5 7t5 7l29 33q0 1 1 2t1 2q20 24 37 41q44 45 37 41q-4 -4 -11 -4q-2 -2 -2 -4q-2 -2 -4 -2t-41 -23q-15 -10 -30 -16q-21 -13 -21 -14q-1 0 -3.5 -2
t-4.5 -2l-25 -15l-26 -14q-3 -1 -51 -31q-74 -37 -101 -55q-17 -9 -31 -12l-84 -39q-17 -8 -36 -15t-29 -9l-10 -3h-6l-13 -2q-30 -3 -30 16v7q0 27 53 71q27 19 35 15q15 -6 -21 -35l-22 -19q-7 -7 -7 -8l-6 -2q-8 -11 -8 -24q4 -2 10 -1.5t11 1.5l4 2q38 9 166 63
q11 5 104 57l92 52l31 18q35 18 78 47q6 3 16.5 9.5t13.5 7.5q9 4 9 6t2 2q1 0 20 11t21 13l22 17q6 4 45 37q24 24 39 34q11 10 8 13q0 2 4 2q5 -5 9 4l2 6l-27 -2q-9 0 -25.5 -1t-19.5 -1q-9 -2 -61 -6q-44 0 -68 -4q-34 0 -88 -13q-19 -4 -21 -2q-3 2 -3 11t3 10
q18 11 152 18q9 1 34 2t32 2q21 0 71 4l43 2l35 33l47 49q24 35 53 49q28 15 40 3t-7 -37q-15 -20 -29 -31q-4 -3 -13.5 -12t-12.5 -11q-6 -6 -14 -10l-43 -31q5 0 26 -1t39 -1h27q186 -6 235 -12q30 0 62 -4q61 -3 142 -18t103 -27q13 -8 13 -16q0 -10 -5.5 -12.5
t-11.5 5.5t-44 20.5t-56 12.5l-16 2q-4 2 -29 6q-5 0 -11 0.5t-9.5 1t-4.5 0.5q-1 1 -23.5 3.5t-53.5 5.5t-52 4l-43 4q-1 0 -16 0.5t-38 1t-44 0.5l-80 4h-41q-4 0 -6 -2q-16 2 -74 2q-21 -3 -51 -29q-10 -10 -12 -10q-1 0 -13 -8t-26.5 -19.5t-20.5 -17.5
q-20 -19 -66.5 -67t-82.5 -86.5t-37 -38.5q-4 -6 -22 -29q-4 -4 -13.5 -15.5t-13.5 -15.5q-1 -1 -35 -41q-8 -8 -26 -30l-19 -23q-4 -5 -43 -51q-59 -69 -141.5 -175.5t-89.5 -125.5q-7 -24 -17 -4zM727 1001l14 11q15 11 15 14q0 2 2 0q4 0 14 10q3 2 7 5.5t6 5.5t3 2
q4 0 7 6l2 2q1 -2 14 10.5t26 26.5t13 16q0 10 -23 2q-21 -21 -26 -27q-17 -22 -31 -32l-10 -17q2 -2 -2 -2q-3 3 -6 -4q-3 -8 -7 -8q-5 0 -12 -10zM86 705q-8 -4 -15 6q-2 4 1 6q4 4 4 12q1 9 6.5 12t11.5 -2q6 -6 6 -10q2 -6 -3 -14.5t-11 -9.5z" />
    <glyph glyph-name="j_j.liga" unicode="jj" horiz-adv-x="290" 
d="M70 705q-8 -10 -12 4q-2 11 3 22q4 10 12.5 11.5t12.5 -7.5q2 -7 -16 -30zM184 696q-6 0 -6 11l6 22q5 10 15 8q10 0 10 -10t-4 -10l-10 -10q-4 -11 -11 -11zM-795 -39q-22 4 -27 20.5t9 38.5q6 11 46 54t44 43q10 8 18 16q21 21 27 23q1 0 15.5 11t25.5 21l31 23l24 18
l37 21l25 14q40 24 166 86l24 10l15 7q41 12 49 20q13 7 79 74.5t93 99.5q17 23 69 68q23 20 33 20q7 0 8.5 -7.5t-4.5 -12.5l-10 -6l-29 -29q-19 -17 -65.5 -64t-84.5 -87t-36 -40l33 7q61 16 90 16q2 -2 2 -6q0 -6 -6 -6q-7 0 -27 -4l-43 -11q-72 -14 -92 -34
q-199 -199 -215 -213l-43 -37q-20 -20 -113 -84q-18 -13 -49.5 -31t-36.5 -18l-16 -7q-36 -18 -66 -14zM-610 -100q-95 -19 -95 26v3.5t0.5 3.5t1 3l1.5 3t2 3.5t3.5 4.5t3.5 4.5t5 6t6 7.5q30 33 53 49l17 13q0 4 8 8l16 12q14 12 33 25l20 16l29 21l53 34q29 22 47 29
l31 18l27 13l24 12l15 6l49 21q24 10 37.5 21.5t58.5 58.5l53 55q15 15 15 18q0 4 2 4q1 0 43 47q19 24 33 35q34 34 67 78q3 6 33 41q27 23 27 31q4 4 6 4t8 6q3 6 10 6t10 -6q3 -4 -4.5 -14.5t-46.5 -53.5l-26 -32l-70 -76l-90 -100l-72 -78q-6 -6 0 -6q4 0 52 13t51 15
q1 0 6 1t8 1l20 4q90 23 162 23q25 0 26 -3q0 -1 -1 -3q0 -3 -25 -6q-41 0 -86 -9l-29 -6q-26 -2 -47 -8q-24 -6 -32 -6q-25 -5 -27 -6q-21 -10 -43 -17q-50 -15 -67.5 -26t-59.5 -53q-85 -86 -100 -99q-58 -54 -86 -82q-60 -60 -94.5 -84t-71.5 -30zM-797 -23q19 -4 49 9
l23 8q10 3 35 16.5t37 22.5l22 12l19 14l77 64l68 59q20 18 86 84l19 19l16 14l10 10v2l8 6l6 7l5 2l4 8l4 4l4 2l6 6q9 12 8 12q-4 0 -22.5 -6t-20.5 -8q-4 -4 -8 -4q-6 0 -73 -35t-68 -39q-2 -2 -4 -2q-5 0 -49.5 -26t-51.5 -33q-12 -8 -14 -8q-4 0 -49 -39
q-39 -30 -54 -45l-18 -17l-35 -35q-75 -75 -39 -84zM-672 -92q36 0 56 8q8 4 18 4q41 6 109 74l32 31q3 0 21 18q45 51 67 70q15 11 15 14q0 2 53 55l53 51l-6 -2q0 -2 -31 -14q-51 -17 -94 -45q-12 -8 -14 -8q-8 0 -21 -10l-35 -23l-28 -20l-27 -17l-14 -10q0 -2 -8 -6
q-21 -14 -74 -60l-18 -12q0 -1 -2 -2l-4 -2t-3 -2l-8 -8q-4 -4 -15.5 -14.5t-19.5 -19t-14 -17.5l-8 -15l6 -8q6 -6 14 -10z" />
    <glyph glyph-name="k_k.liga" unicode="kk" horiz-adv-x="647" 
d="M23 551q-19 8 -13 33q4 16 6 20v4l7 13q4 8 4 16q-1 -2 -13 -8t-14 -8l-20 -19q-18 -14 -29 -27q-13 -16 -23 -16q-8 -2 -10 8q-3 20 23 37q23 14 61 62q4 4 12 16q15 12 27 27l8 8q4 2 6 6q4 8 8 8l5 2q0 2 8 10l20 21q6 6 2 6l6 2q-16 -3 -30 -12q-6 -4 -29 -11.5
t-31 -7.5q-12 0 -6 13q1 1 3.5 2t6.5 2.5t7 3.5l63 22l45 19l6 2l13 6q15 6 22 16q13 13 21 19l53 41q83 69 160 119q16 8 16 12l2 2q0 -3 4 -1q1 1 2 3l10 6q9 6 15 8l26 19q83 45 107 55l26 12l5 2l20 9q22 11 51 8q17 -3 17 -25q-4 -21 -43 -55q-10 -8 -25 -20.5
t-23.5 -19.5t-9.5 -7l-12 -8q-9 -9 -37 -25l-29 -20q-7 -7 -14 -9q-9 -3 -12 -6q-7 -5 -50.5 -28.5t-68.5 -34.5l-53 -23q-35 -18 -53 -22l-64 -25l-41 -16q-9 -3 -24.5 -14t-16.5 -15l-31 -29q-72 -67 -69 -73l18 8q75 30 99 20l8 -12q3 -11 -4 -20q-11 -11 -15 -13l-10 -6
q0 -1 -18 -10q-27 -12 -52 -4h-8l-2 -8q-4 -8 -4 -11l-4 -4l-2 -6v-2l-2 -4q-2 -4 -2 -12q-4 -8 -2 -13q1 -2 14 0t32 7t34 12q18 7 55.5 26.5t48.5 26.5l12 8l21 13q11 7 40.5 22t39.5 23l24 20q37 32 37 37l4 2q5 0 15 10q62 62 122 107l50 32l26 19l29 18l31 19
q84 48 120 55l19 4q6 6 27 6h2q16 0 16 -16q1 -12 -5.5 -25.5t-15.5 -19.5l-6 -4l-20 -19q-13 -12 -46.5 -35t-41.5 -26l-19 -12q-14 -9 -16 -9q-6 0 -6 -4q-7 -7 -17 -12q-16 -8 -18 -10q-2 -3 -84 -51l-18 -7l-19 -10q-4 -1 -9 -3.5t-7.5 -3.5t-3.5 -1t-3 -1t-3 -1
q-1 -1 -4 -2.5t-8 -4.5t-9 -5q-54 -23 -78 -35l-28 -14q-3 -7 -11 -7l-4 -2l-20 -20l-8 -10l10 4q19 9 36.5 10.5t27.5 -4.5t8 -17q-2 -10 -44 -34l-6 -4l-6 -3h-6l-4 -2l-10 -2l-8 2h-13q-2 0 -6 -4q-6 -7 -11 -21t-3 -16q2 -3 31.5 -1.5t54.5 6.5q78 17 110 28l15 6l24 7
q49 17 92 26q44 12 48 6q0 -3 1 -4t-1.5 -2.5t-4.5 -2t-6.5 -2.5t-7.5 -3q-4 -1 -20.5 -5.5t-46.5 -13t-60 -18.5q-56 -17 -112 -33q-27 -7 -72.5 -12t-54.5 -2q-16 7 -13 33q5 19 6 20q1 4 0 4q-1 1 -10 -6l-55 -47q-18 -18 -21 -2q-1 9 6 17t41 38l31 27l2 4l17 16l4 7
q-7 -3 -20.5 -11.5t-18.5 -11.5q-53 -34 -101 -59q-27 -12 -71 -24t-53 -9zM207 829l22 9l27 10l8 4l21 6l18 6q2 2 37.5 18t44.5 19l16 8l35 19q28 15 64 37l30 18q18 9 25 16q37 25 41 25l8 8l43 35q18 13 28 27.5t5 19.5q-6 10 -29 2l-24 -10q-87 -31 -240 -131
q-20 -12 -22 -14q-2 0 -21 -15l-31 -22q-12 -9 -20 -17q-3 -6 -19 -14q-10 -10 -10 -12v-2q-5 0 -31 -23l-20 -16q-10 -5 -9 -10q1 -1 3 -1zM401 741h2l9 4l88 39l24 13l19 8l41 22l37 19l49 28l26 19l35 22l25 17q6 6 26 18q33 26 43 39q16 22 9 29l-3 2h-2l-8 -2l-14 -4
q-20 -3 -41 -10l-14 -5q-1 -1 -5 -2.5t-10.5 -4.5t-11.5 -5l-47 -26q-3 0 -40 -24.5t-60 -41.5l-23 -14q-1 0 -3 -2t-5.5 -4.5t-5.5 -4.5q-11 -11 -23 -18q-6 -4 -69 -64l-11 -12q-4 0 -4 -4l-2 -4q-2 0 -10 -8l-10 -10q-3 0 -7 -3.5t-4 -5.5zM61 649q9 -4 28 -2t24 8
q3 7 12 11q5 2 7 4.5t1 4.5t-6 3q-10 0 -27 -6t-26 -13q-12 -6 -15 -6q-6 0 -1 -3q1 0 3 -1zM334 633q5 0 23.5 11t21.5 15q4 5 -5 5q-12 0 -28 -9l-10 -4q-4 0 -10 -6q-6 -5 -4 -8.5t12 -3.5z" />
    <glyph glyph-name="k_t.liga" unicode="kt" horiz-adv-x="645" 
d="M113 178q-7 -7 -17 10q-3 7 -2 11.5t8 17.5q22 50 52 84h-2q15 18 20 29q0 2 6 8l6 6q0 5 6 8q9 9 11 13q5 9 10 12q1 3 20 26q27 38 119 138l39 47l21 24q2 3 5.5 7t8.5 10t8 10q6 8 21 23q13 10 55 57q14 18 41 41q32 40 84 92q0 2 4 6l4 4q12 10 12 12h2l2 3l11 8v2h2
l2 2l-2 2h-4q0 -2 -2 -2l-15 -8l-20 -17q-15 -10 -19 -10l-24 -16l-17 -11q-2 0 -2 -2l-96 -57q-31 -15 -92 -51l-31 -19v-2q-15 -6 -39 -18l-61 -35q-53 -34 -101 -59q-27 -12 -71 -24t-53 -9q-19 8 -13 33q3 12 13 37q4 8 4 16q-1 -2 -13 -8t-14 -8l-20 -19
q-18 -14 -29 -27q-13 -16 -23 -16q-8 -2 -10 8q-3 20 23 37q23 14 61 62q4 4 12 16q15 12 27 27l22 22l5 2q0 2 8 10l20 21q6 6 2 6l6 2q-16 -3 -30 -12q-6 -4 -29 -11.5t-31 -7.5q-12 0 -6 13q1 1 3.5 2t6.5 2.5t7 3.5l63 22l45 19l6 2l13 6q15 6 22 16q13 13 21 19l53 41
q73 59 84 67q-4 -2 -8 -2q-5 -1 -52 -6q-7 -1 -18 -2.5t-19.5 -2.5t-11.5 -1q-8 -2 -15.5 -2t-12.5 1t-5 3q0 12 35.5 18.5t134.5 12.5q9 7 26 18t22 15q16 8 16 12l2 2q0 -3 4 -1q1 1 2 3l10 6q9 6 15 8l26 19q83 45 107 55l26 12l5 2l20 9q22 11 51 8q17 -3 17 -25
q-4 -21 -43 -55q-10 -8 -25 -20.5t-23.5 -19.5t-9.5 -7l-12 -8q-10 -10 -25 -19q58 5 144 8q40 0 67 2q43 37 43 41l2 4q6 0 84 88q4 6 16 8t13 -3q6 -11 -14 -37q-3 -3 -12 -10t-23 -20.5t-33 -37.5q-4 -6 -31 -33l64 2q102 0 131 -2h80q62 0 72 -2h51l92 -4l9 -1
q8 0 21.5 -0.5t26.5 -0.5q12 0 24.5 -0.5t20.5 -0.5l8 -1q17 0 35 -2q9 0 18 -0.5t15 -0.5l6 -1q9 -2 19 -2q16 0 32 -4l43 -4q16 -1 28.5 -4t19 -6.5t6.5 -6.5q0 -13 -13 -16q-3 0 -9.5 -1t-8.5 -1q-10 -2 -12 6q-4 7 -17 10q-20 0 -28 2q-20 5 -43 5l-33 4q-4 2 -37 2
q-30 0 -62 4q-8 0 -27 1t-24 1q-22 0 -26 2q-7 0 -9 -2q-4 -2 -4 0l-5 1q-5 1 -9 1q-25 0 -43 2h-63q-6 1 -20 1.5t-33.5 1t-32.5 1.5h-107l-90 2l-82 -2l-27 -25q-2 0 -2 -2q-10 -10 -16 -18l-21 -16q-1 0 -15 -13.5t-33 -32t-29 -26.5q-42 -44 -74.5 -80t-40.5 -43
q-6 -8 -27 -29l-28 -30q-1 0 -3 -2t-5 -4.5t-5 -4.5q-18 -17 -88 -94l-30 -35l-7 -4q0 -1 -24 -33q-28 -28 -31 -34q-2 -4 -29 -31q-13 -13 -63 -76q-107 -138 -100 -164q1 -2 1 -4t-1 -2zM389 977l35 2l6 1q5 0 13 0.5t16 0.5l69 4h7q15 9 20 14q37 25 41 25l8 8l43 35
q18 13 28 27.5t5 19.5q-6 10 -29 2l-24 -10q-76 -27 -238 -129zM33 569q1 -2 14 0t32 7t34 12q18 7 55.5 26.5t48.5 26.5l12 8l50 29q73 40 75 41l45 26q9 3 25 15l31 18q16 6 53 31l35 20q0 -1 3 1t9.5 6.5t13.5 7.5l78 49l68 45q4 3 10.5 8.5t9.5 7.5q15 15 29 25h-43
q0 -1 -76.5 -4.5t-83.5 -3.5q-10 0 -18 -2l-13 -8q-7 -7 -14 -9q-9 -3 -12 -6q-7 -5 -50.5 -28.5t-68.5 -34.5l-53 -23q-35 -18 -53 -22l-64 -25l-41 -16q-9 -3 -24.5 -14t-16.5 -15l-31 -29q-72 -67 -69 -73l18 8q75 30 99 20l8 -12q3 -11 -4 -20q-11 -11 -15 -13l-10 -6
q0 -1 -18 -10q-27 -12 -52 -4h-8l-2 -8l-3 -5q-3 -6 -5.5 -10.5t-5.5 -12.5t-3.5 -13t1.5 -11zM207 829l22 9l27 10l8 4l21 6l18 6q2 2 37.5 18t44.5 19l16 8l35 19q28 15 64 37l-144 -9l-12 -10l-31 -22q-12 -9 -20 -17q-3 -6 -19 -14l-41 -37l-20 -16q-10 -5 -9 -10
q1 -1 3 -1zM61 649q9 -4 28 -2t24 8q3 7 12 11q5 2 7 4.5t1 4.5t-6 3q-10 0 -27 -6t-26 -13q-12 -6 -15 -6q-6 0 -1 -3q1 0 3 -1z" />
    <glyph glyph-name="l_l.liga" unicode="ll" horiz-adv-x="317" 
d="M-90 422q-8 3 -10 29q-3 17 1.5 39.5t12.5 33.5q4 12 4 15q8 16 12 22q23 32 23 37l2 2q4 0 4 6q0 4 4 4q2 0 2 4l6 7q3 0 6 6q0 6 3 6l16 20q15 19 16 19q2 0 2 4q0 1 11 12l8 10q0 5 8 13h-4q-3 0 -8.5 5.5t-5.5 8.5q0 6 4 2q3 -2 14.5 1.5t11.5 6.5q2 2 4 0q2 0 6 2
l41 41q5 4 36.5 34t43.5 40q65 58 162 129q10 8 33 21.5t29 17.5q39 29 69 37q17 6 25.5 0.5t5.5 -17.5t-40.5 -47.5t-66.5 -56.5l-51 -41l-26 -21l-23 -16l-20 -14q-2 -1 -14.5 -9t-26 -17l-19.5 -13q-28 -23 -35 -23l-18 -12q-17 -13 -39 -25l-37 -24q-8 -4 -12 -8
q0 -2 -4 -6q-3 0 -47 -57t-64 -87q-42 -61 -47 -108q-6 -33 -8 -33zM133 768l39 23l8 6q16 8 53 39q22 17 41 26q2 1 17.5 12.5t31.5 23t23 17.5l12 9q4 0 31 24l39 31l29 27l6 6l4 6l2 2l6 4v2l4 4l2 4q0 3 -1.5 4.5t-2.5 -0.5q-6 0 -8 -2l-4 -2l-10 -6l-15 -8l-32 -21
l-13 -8l-16 -14l-31 -21l-74 -59q-3 0 -58.5 -48t-68.5 -63q-5 -6 -12 -13l-4 -6zM-63 252q-14 2 -15.5 30.5t10.5 57.5q11 36 39 76q17 28 53 72.5t62 70.5l16 19q9 9 2 12q-5 -2 -10 3t-4 9q0 4 14 4q30 4 43 17l31 32q19 23 105 105q32 29 153 119q2 2 33.5 20t36.5 19
q34 14 45 6q12 -7 12 -23q-3 -16 -26 -39l-19 -20l-115 -97q-10 -13 -61 -45q-37 -24 -89.5 -51.5t-59.5 -27.5q-5 0 -22.5 -14.5t-33.5 -33.5l-24 -26q-29 -29 -29 -33l-12 -16l-13 -15q0 -2 -4 -6q-2 -1 -26 -33l-6 -8q-19 -19 -43 -65q-46 -81 -33 -103q6 -16 -10 -16z
M201 641q10 0 82 41l22 12q1 0 15 9t34.5 22.5t34.5 24.5q59 43 111 94.5t45 58.5q-7 10 -35 -4q-52 -23 -121 -82q-51 -45 -57 -45q-1 0 -3 -1.5t-5 -4t-5 -4.5l-30 -33q-20 -18 -41.5 -39t-35 -35t-11.5 -14z" />
    <glyph glyph-name="l_t.liga" unicode="lt" horiz-adv-x="610" 
d="M1614 942q3 -12 -12 -16q-3 0 -10 -1t-9 -1q-10 -2 -12 6q-4 7 -17 10q-20 0 -28 2q-16 4 -41 4l-35 4q-4 2 -37 2q-29 0 -61 4q-8 0 -27 1t-25 1q-20 0 -26 3q-5 0 -8 -3q-2 -2 -4 0l-6 2q-6 1 -9 1q-25 0 -43 2h-63q-6 1 -20 1.5t-33.5 1t-32.5 1.5h-107l-90 2l-82 -2
l-26 -25l-2 -2l-6 -6q-6 -7 -11 -12q-18 -14 -18 -17q-7 0 -78 -71q-62 -62 -115 -123l-28 -29q-15 -11 -15 -16q-2 -2 -4 -2q-1 1 -4.5 -3.5t-5.5 -9.5q-6 -6 -12 -10q-21 -19 -86 -94q-7 -7 -15 -15.5t-13 -13.5l-5 -6l-6 -4q0 -4 -25 -33q-27 -27 -31 -35q-5 -10 -28 -30
q-40 -45 -64 -76q-107 -139 -98 -164q0 -6 -2 -6q-7 -7 -17 10q-4 10 7 29q23 52 51 84l18 28q0 5 8 9l5 6q0 5 6 8q8 8 10 12q5 9 10 12q1 2 21 27q48 62 118 137l39 47l21 25q2 2 22 27l21 22q11 8 55 58q4 5 23 24q8 8 8 12q0 2 2 0q6 0 8 4q36 45 84 93l4 6l14 14
q1 0 4.5 2t4.5 2q2 4 8 10h2l2 2q0 3 -2 3l-6 -3v-2q-1 0 -1.5 -0.5t-2 -1.5t-4.5 -2q0 -1 -1.5 -2t-5.5 -2l-2 -2q0 -2 -2 -2l-16 -10q-1 0 -6 -3t-10 -6.5t-7 -4.5q-1 -1 -30 -19l-6 -4l-3 -2q-1 0 -45 -27t-92.5 -56t-60.5 -34q-8 -7 -31 -18q-15 -7 -50.5 -28.5
t-41.5 -24.5q-31 -17 -45 -29q-17 -5 -31 -19q-6 -4 -14 -4t-8 -10q-2 -2 -2 0q-5 0 -48 -24q-11 -6 -23.5 -13t-18.5 -10.5t-7 -3.5q-1 -1 -2.5 -2t-2.5 -2t-1 -2q-2 -2 -6 -2q-5 0 -22 -10q-57 -40 -76 -21q-10 12 -3 38.5t27 51.5q22 38 21 39q2 2 4 0q10 10 14 18l60 64
q53 62 71 76l4 4q0 2 17 16q5 5 11 12l5 7q0 2 4 2q3 0 13 7.5t10 10.5q4 4 6 4q6 5 14 13l28 26q29 25 40 33l6 6q4 4 8 6q0 2 2 2q0 2 2 2l4 4q11 3 15 11q0 2 2 2l18 14q-3 0 -9 -1t-9 -1q-6 -2 -51 -6q-7 -1 -18.5 -2.5t-19.5 -2.5t-12 -1q-8 -2 -15.5 -2t-12 1t-4.5 3
q0 12 34.5 18t145.5 15l2 2q41 31 115 77q55 37 73 43q25 15 49 15t27 -17q-4 -14 -24 -51q-22 -29 -35 -37l-21 -18l-2 -2h10q34 4 150 8q41 0 68 2q8 8 19.5 18.5t17.5 16t6 6.5q0 4 4 4t82 88q4 6 15.5 7.5t14.5 -3.5q3 -12 -16 -37q-3 -3 -12 -9.5t-23 -20t-33 -37.5
q-6 -9 -30 -33l63 2q102 0 131 -2h82q60 0 70 -2h51l92 -4l8 -1q9 0 22.5 -0.5t26.5 -0.5t26 -0.5t21 -0.5l7 -1q17 0 37 -2q8 0 16.5 -0.5t13.5 -0.5l6 -1q11 -2 19 -2q17 0 33 -4l43 -5q53 -6 53 -16zM477 1034q-75 -48 -108 -71l20 2l5 1q6 0 14 0.5t16 0.5q5 1 29 2
t32 2q77 57 94 92q10 18 -10 17q-7 -1 -16 -3q-9 0 -76 -43zM700 940q15 15 29 25h-43q0 -1 -77 -5t-83 -4q-1 0 -12 -1t-18 -1q-3 -3 -11.5 -8.5t-13.5 -9.5l-31 -21l-86 -53q-34 -16 -137 -59q-14 -5 -28.5 -9.5t-22.5 -7.5q-14 -4 -16 -12l-13 -10q-5 -2 -22.5 -19.5
t-30.5 -35.5l-27 -29q-11 -8 -48.5 -50.5t-37.5 -45.5t-20 -31q-24 -40 -25 -45q-4 -15 0 -19q3 -1 24 8.5t34 16.5q9 9 22 12q44 19 70 37l20 12q4 0 15 7q12 6 29.5 16.5t29.5 17.5t16 9q7 3 15 10q3 5 6 2q2 -2 8 4q15 10 18 10q12 6 21 15q2 1 14.5 8.5t18.5 9.5
q5 3 23.5 14.5t29.5 16.5l16 9q20 11 29 17l123 74q0 -1 27 14q30 21 77 50l68 45q4 3 10.5 8.5t9.5 7.5zM203 827l-13 -12q0 -1 3 0q2 1 7 2.5t9 3t8 2.5q2 1 7 1.5t8.5 1.5t5.5 3q2 1 5 2t4.5 2t2.5 1q5 0 33 14l47 22q27 14 58 33.5t48 32.5l17 12q1 0 2 1t2 1l-68 -4
l-49 -4h-2l-19 -16h-4v-2q-2 0 -6 -4l-8 -7q-6 -6 -6 -8q-5 2 -8 -4l-21 -18l-28 -25q-13 -9 -13 -12l-5 -3q-4 -3 -8.5 -7.5z" />
    <glyph glyph-name="m_l.liga" unicode="ml" horiz-adv-x="868" 
d="M582 465q-14 -7 -21 18q-5 17 8 33l31 37l35 45q57 71 49 68q-6 -6 -6 -7q-1 -1 -22 -11.5t-23 -12.5l-45 -21q-14 -7 -67 -29t-72 -26q-102 -37 -183 -45q-42 -3 -61 2q-60 15 -43 80q4 16 0 16q0 1 -10 -2q-7 -4 -35.5 -11t-42.5 -9q-17 0 -25 6q-7 7 -4 10q2 2 0 2
q-9 -2 -43 -26q-30 -20 -41 -24t-18 1q-7 7 2 25q4 7 33 41t34 39q3 2 11 0t8 -5v-6q1 -4 -9 -17.5t-24 -25.5l-8 -8q1 -1 6 0l4 2l8 4l4 4l31 19l10 8q18 15 29 4q5 -5 0 -16q-3 -5 -4 -7.5t0 -3.5t4 -2q7 -1 56.5 13.5t54.5 19.5q5 3 15 5t15 -1q9 -9 -4 -18
q-28 -19 -31 -49q-3 -23 5 -33q11 -19 57 -19q96 6 248 64l26 10l64 27l55 29q40 20 49 26q56 42 66 53q27 27 35 37q5 4 36 33.5t43 40.5q30 27 78 62.5t64 48.5q21 16 82 57q39 29 69 37q19 5 26.5 0.5t4.5 -17.5q-3 -12 -40.5 -47.5t-65.5 -56.5q-27 -21 -52 -41
q-5 -4 -11.5 -9t-10 -8t-4.5 -4q-14 -7 -23 -16l-20 -14q-56 -37 -58 -39q-32 -23 -37 -23q-2 0 -18 -12q-15 -11 -37 -25q-9 -3 -14 -8l-25 -16q-15 -7 -24 -21q-13 -13 -13 -14q-3 0 -16 -18l-22 -29q-11 -11 -23 -27l-33 -41l-24 -26q-17 -21 -17 -23q-18 -18 -18 -33
q-4 -22 -8 -24zM821 768q1 0 18 11t21 12l8 6q28 14 56 34q50 31 110 80l43 35l39 33l29 27q20 22 16 22l-6 6q-4 -4 -8 -4q-2 0 -29 -16t-35 -23l-47 -35l-63 -51l-10 -8q-3 0 -58.5 -48t-68.5 -63q-6 -6 -12 -14q-4 -4 -3 -4z" />
    <glyph glyph-name="m_t.liga" unicode="mt" horiz-adv-x="1048" 
d="M481 195q-4 6 -3.5 17.5t5.5 16.5l2 9l9 14l163 197l35 43q1 1 9 10.5t14 15.5q26 34 125 148q12 12 16 20q1 2 5 7t5 7l29 33q0 1 1 2t1 2q20 24 37 41q44 45 37 41q-4 -4 -10 -4q-3 -2 -3 -4q-2 -2 -4 -2t-41 -23q-15 -10 -30 -16q-21 -13 -21 -14q-1 0 -3.5 -2
t-4.5 -2l-25 -15l-26 -14q-3 -1 -51 -31q-39 -20 -45 -24q-1 -2 -16 -9t-33 -15l-17 -7l-14 -4q-59 -28 -131 -55l-33 -15q-55 -20 -129 -37l-68 -12q-42 -3 -61 2q-60 15 -43 80q4 16 0 16q0 1 -10 -2q-7 -4 -35.5 -11t-42.5 -9q-17 0 -25 6q-7 7 -4 10q2 2 0 2
q-9 -2 -43 -26q-30 -20 -41 -24t-18 1q-7 7 2 25q4 7 33 41t34 39q3 2 11 0t8 -5v-6q1 -4 -9 -17.5t-24 -25.5l-8 -8q1 -1 6 0l4 2l8 4l4 4l8 6h3l2 3h2l4 2l2 2l10 6l10 8q18 15 29 4q5 -5 0 -16q-3 -5 -4 -7.5t0 -3.5t4 -2q7 -1 56.5 13.5t54.5 19.5q5 3 15 5t15 -1
q9 -9 -4 -18q-20 -14 -24 -49q-2 -18 6 -29q6 -10 17 -13t38 -3q65 4 96 12l49 12l31 8l12 4l54 23l26 8l76 31l21 10l43 19l6 2q10 4 31.5 16t29.5 16l92 52l31 18q34 18 78 47q5 3 16.5 9.5t14.5 7.5q8 4 8 6t2 2q1 0 20 11t21 13l22 17q6 4 45 37q24 24 39 34q10 10 8 13
q0 2 5 2q4 -4 8 4l2 6l-27 -2q-9 0 -25.5 -1t-19.5 -1q-9 -2 -61 -6q-44 0 -68 -4q-34 0 -88 -13q-18 -4 -20 -2q-3 2 -3 11t3 10q18 11 151 18q9 1 34 2t32 2q21 0 71 4l43 2l35 33l47 49q24 35 53 49q28 15 40 3t-7 -37q-16 -22 -28 -31q-4 -3 -14 -12t-13 -11
q-6 -6 -14 -10l-43 -31q5 0 26 -1t39 -1h27q186 -6 235 -12q30 0 62 -4q61 -3 142 -18t103 -27q13 -8 13 -16q0 -10 -5.5 -12.5t-11.5 5.5t-44 20.5t-56 12.5l-16 2q-3 2 -29 6q-5 0 -11 0.5t-9.5 1t-4.5 0.5q-1 1 -23.5 3.5t-53.5 5.5t-52 4l-43 4q-1 0 -16 0.5t-38 1
t-44 0.5l-80 4h-41q-4 0 -6 -2q-16 2 -74 2q-21 -3 -51 -29q-10 -10 -12 -10q-1 0 -13 -8t-26.5 -19.5t-20.5 -17.5q-20 -19 -66.5 -67t-82.5 -86.5t-37 -38.5q-4 -6 -22 -29q-4 -4 -13.5 -15.5t-13.5 -15.5q-1 -1 -35 -41q-8 -8 -27 -30l-18 -23q-4 -5 -43 -51
q-59 -69 -141.5 -175.5t-89.5 -125.5q-7 -24 -17 -4zM1200 1001l14 11q15 11 15 14q0 2 2 0q4 0 14 10q3 2 7 5.5t6.5 5.5t3.5 2q3 0 6 6l2 2q1 -2 14 10.5t26 26.5t13 16q0 10 -23 2q-21 -21 -26 -27q-18 -22 -31 -32l-10 -17q2 -2 -2 -2q-3 3 -6 -4q-3 -8 -6 -8
q-6 0 -13 -10z" />
    <glyph glyph-name="n_l.liga" unicode="nl" horiz-adv-x="622" 
d="M336 465q-14 -7 -21 18q-5 17 9 33l30 37l35 45q57 71 49 68q-6 -6 -6 -7q-1 -1 -22 -11.5t-23 -12.5l-45 -21l-57 -20l-13 -6q-69 -25 -108 -33l-43 -6q-37 -4 -53 10q-6 5 -8.5 19t1.5 22l5 6v2l4 8h-2q-70 -35 -103 -57q-14 -5 -14 -4q-6 0 -9.5 5t-0.5 9v6
q18 18 28 43l15 19q18 26 30 12q4 -6 4 -8.5t-4 -11.5l-14 -23l66 29q20 10 22 12q22 17 25 -1q2 -15 -11 -30q-19 -19 -16 -32q2 -20 36.5 -17t110.5 27q20 6 95 35q20 7 28 12l41 21q40 20 49 26q56 42 66 53q27 27 35 37q5 4 36.5 34t43.5 40q31 27 78.5 63t62.5 48
q21 16 82 57q38 29 70 37q19 5 26 0.5t4 -17.5q-3 -12 -40.5 -47.5t-65.5 -56.5q-10 -8 -25.5 -20.5t-25.5 -20.5q-5 -4 -11.5 -9t-10.5 -8t-5 -4q-14 -7 -23 -16l-20 -14q-51 -34 -57 -39q-32 -23 -37 -23q-3 0 -19 -12q-15 -11 -37 -25q-9 -3 -14 -8l-24 -16
q-17 -8 -25 -21q-12 -12 -12 -14q-4 0 -17 -18l-22 -29q-11 -11 -23 -27l-33 -41l-24 -26q-17 -21 -17 -23q-18 -18 -18 -33q-4 -22 -8 -24zM575 768q1 0 18 11t21 12l9 6q25 12 55 34q50 31 110 80l43 35l39 33l29 27q20 22 16 22l-6 6q-4 -4 -8 -4q-2 0 -28.5 -16
t-34.5 -23l-47 -35l-64 -51l-10 -8q-3 0 -58.5 -48t-68.5 -63q-6 -6 -12 -14q-4 -4 -3 -4z" />
    <glyph glyph-name="n_t.liga" unicode="nt" horiz-adv-x="802" 
d="M270 178q-6 -6 -16 10q-3 7 -2 11.5t8 17.5q23 52 51 84l19 29q0 4 8 8l4 6q0 5 6 8q7 7 10 13q4 9 11 12q1 3 20 26q48 61 119 138l39 47l20 24q7 7 23 27l20 23q6 4 50.5 49.5t46.5 48.5q32 40 106 114q3 3 4 3l10 10l2 2q0 2 -2 2h-4l-10 -8q0 -2 -37 -25l-51 -37
q-1 0 -20.5 -12t-43 -26t-34.5 -19q-37 -18 -99 -55q-2 -2 -40 -21.5t-39 -19.5l-78 -37q-3 -1 -22 -10.5t-40 -18.5t-37 -14q-21 -9 -46 -17t-57.5 -16.5t-60 -8t-40.5 12.5q-6 5 -8.5 19t1.5 22l5 6v2l4 8h-2q-21 -8 -57.5 -28t-45.5 -29q-14 -5 -14 -4q-6 0 -9.5 5
t-0.5 9v6q18 18 28 43l15 19q18 26 30 12q4 -6 4 -8.5t-4 -11.5l-4 -11l19 7l37 10q20 10 22 12q6 5 14 4t11 -8q2 -2 2 -6l2 -2q0 -1 -13 -23q-14 -18 -11 -28.5t11.5 -14t16.5 -2.5q38 4 112 27q20 6 95 35q159 67 338 180l34 20q0 -1 3.5 1t11 6.5l12.5 7.5q14 10 78 49
l67 45q3 2 10.5 8t10.5 8q15 15 29 25h-43q-2 1 -16.5 0.5t-39 -1.5t-47 -3t-40.5 -3l-17 -1q-15 0 -39 -4l-98 -6q-31 0 -101 -9q-6 -2 -51 -6q-7 -1 -18 -2.5t-19.5 -2.5t-11.5 -1q-8 -2 -15.5 -2t-12.5 1t-5 3q0 12 36 18t151 15l47 4l5 1q5 0 13 0.5t16 0.5l70 4l6 1
q6 0 14.5 0.5t16.5 0.5q35 4 149 8q41 0 68 2q8 8 19.5 18.5t17.5 16t6 6.5q0 4 4 4t82 88q4 6 16 8t15 -3q3 -11 -17 -37q-3 -3 -12 -10t-22.5 -20.5t-32.5 -37.5q-4 -6 -31 -33l64 2q102 0 131 -2h82q59 0 69 -2h51l93 -4l9 -1q8 0 21.5 -0.5t26.5 -0.5t25.5 -0.5
t20.5 -0.5l7 -1q17 0 37 -2q8 0 16.5 -0.5t14.5 -0.5l6 -1q10 -2 18 -2q17 0 33 -4l43 -4q53 -6 53 -17q3 -12 -12 -16q-3 0 -9.5 -1t-8.5 -1q-11 -3 -13 6q-4 8 -16 10q-21 0 -29 2q-20 5 -41 5l-35 4q-4 2 -36 2q-30 0 -62 4q-8 0 -27 1t-24 1q-23 0 -27 2q-6 0 -8 -2
t-4 0q-1 0 -6 1t-8 1q-25 0 -43 2h-64q-6 1 -20 1.5t-33.5 1t-32.5 1.5h-106l-90 2l-82 -2l-27 -25l-2 -2l-6 -6q-5 -7 -10 -12q-19 -15 -19 -16q-6 0 -78 -72q-54 -54 -114 -123l-29 -29q-4 -3 -21 -21t-20 -20q-21 -19 -86 -94q-7 -7 -15 -15.5t-13 -13.5l-5 -6l-6 -4
q0 -6 -24 -33q-28 -28 -31 -34q-5 -11 -29 -31q-29 -33 -63 -76q-108 -140 -99 -164q0 -6 -2 -6z" />
    <glyph glyph-name="o_e.liga" unicode="oe" horiz-adv-x="450" 
d="M-25 557q-12 -1 -15 -0.5t-7 6.5q-5 8 -2 17q2 8 8 21.5t10 16.5l15 17l16 18l6 6l6 3l2 2h2l7 2l4 -2h12l14 -2q11 0 15 -9q2 -2 2 -8v-18q12 -4 14 -6q19 -6 47 -9q56 -7 117 4q42 50 96 68q50 18 55 2q1 -4 -9.5 -13.5t-35.5 -27.5q-46 -33 -78 -41q-18 -5 -22 -14
q-7 -7 -2 -10q19 -6 192 69l5 2h6l2 -2q3 -1 3.5 -5t-1.5 -5l-27 -12l-92 -41q-45 -22 -74 -27q-18 -2 -25 -2t-10 2.5t-4 9.5q-5 10 6 29q-53 -9 -100 -4q-34 2 -72 14l-4 -4q-8 -11 -49 -39q-16 -8 -33 -8zM283 627q-1 -1 0 -1q6 0 32 13q43 24 52 33q0 3 -11.5 -1
t-21.5 -9q-10 -3 -29.5 -16.5t-21.5 -18.5zM41 637q4 -2 4 2q-1 0 -3 1t-3 1q-6 0 2 -4zM-16 582q8 0 24 8l23 18q8 6 4 8l-12 7l-9 6q0 2 -2 2l-16 -17l-14 -22l-5 -8q3 -2 7 -2z" />
    <glyph glyph-name="o_l.liga" unicode="ol" horiz-adv-x="528" 
d="M242 465q-14 -7 -21 18q-5 17 8 33l31 37l35 45q57 71 49 68q-1 -1 -2.5 -2t-3 -1.5t-3 -1.5t-1.5 -2q-98 -57 -199 -57q-42 0 -72 6l-6 -4q-8 -11 -49 -39q-16 -8 -33 -8q-12 -1 -15 -0.5t-7 6.5q-5 8 -2 17q2 8 8 21.5t10 16.5l15 17l16 18l6 6l6 3l2 2h2l7 2l4 -2h12
l14 -2q11 0 15 -9q2 -2 2 -8v-18q2 0 4.5 -1t3.5 -1q14 -4 53 -4q77 -3 172 41q40 20 49 26q56 42 66 53q27 27 35 37q5 4 36 33.5t43 40.5q30 27 78 62.5t64 48.5q21 16 82 57q39 29 69 37q19 5 26.5 0.5t4.5 -17.5q-3 -12 -40.5 -47.5t-65.5 -56.5q-27 -21 -52 -41
q-5 -4 -11.5 -9t-10 -8t-4.5 -4q-14 -7 -23 -16l-20 -14q-56 -37 -58 -39q-32 -23 -36 -23q-3 0 -19 -12q-15 -11 -37 -25q-9 -3 -14 -8l-25 -16q-15 -7 -24 -21q-13 -13 -13 -14q-3 0 -16 -18l-22 -29q-11 -11 -23 -27l-33 -41l-24 -26q-17 -21 -17 -23q-18 -18 -18 -33
q-4 -22 -8 -24zM481 768q1 0 18 11t21 12l8 6q28 14 56 34q50 31 110 80l43 35l39 33l29 27q20 22 16 22l-6 6q-4 -4 -8 -4q-2 0 -29 -16t-35 -23l-47 -35l-63 -51l-10 -8q-3 0 -58.5 -48t-68.5 -63q-6 -6 -12 -14q-4 -4 -3 -4zM41 637q4 -2 4 2q-1 0 -3 1t-3 1q-6 0 2 -4z
M-16 582q8 0 24 8l23 18q8 6 4 8l-12 7l-9 6q0 2 -2 2l-16 -17l-14 -22l-5 -8q3 -2 7 -2z" />
    <glyph glyph-name="o_o.liga" unicode="oo" horiz-adv-x="636" 
d="M252 543q0 23 10 37l10 12l7 6l4 6l4 8l4 2v9q0 4 2 6q-32 -11 -86 -19t-78 -8q-41 0 -68 6l-4 -4q-8 -11 -49 -39q-16 -8 -33 -8q-12 -1 -15 -0.5t-7 6.5q-5 8 -2 17q2 8 8 21.5t10 16.5l15 17l16 18l6 6l6 3l2 2h2l7 2l4 -2h12l14 -2q11 0 15 -9q2 -2 2 -8v-20
q32 -9 55 -9q100 0 180 33q2 2 6 2q15 15 25 15q12 1 26.5 -5.5t22.5 -15.5l8 -8v-10q45 -13 66 -13q91 0 176 35q1 2 5 1.5t5 -3.5q3 -6 -4 -10l-18 -8q-29 -12 -81 -20.5t-79 -8.5q-16 0 -76 6l-4 -4q-11 -11 -23 -20l-18 -15l-10 -6l-27 -14q-50 -27 -53 -4zM324 625
q5 -2 22.5 1.5t18.5 6.5q2 0 -5 5q-2 2 -4 3q-18 8 -30 -4q-8 -10 -2 -12zM41 637q4 -2 4 2q-1 0 -3 1t-3 1q-6 0 2 -4zM-16 582q8 0 24 8l4 2l4 4l4 2l11 10q8 6 4 8l-12 7l-9 6q0 2 -2 2l-2 -2v-2l-4 -4l-8 -7l-8 -12l-4 -2l-2 -4l-2 -6l-5 -8q3 -2 7 -2zM285 561
q0 -3 24.5 13t34.5 24q1 1 3.5 2.5t3.5 3t1 4.5l-24 -2q-10 -1 -15 0v0q4 -4 -14 -22q-14 -21 -14 -23z" />
    <glyph glyph-name="o_t.liga" unicode="ot" horiz-adv-x="602" 
d="M35 195q-3 6 -2.5 18t4.5 16q2 2 2 9q0 2 8 14l164 197l35 43q1 1 8.5 10.5t13.5 15.5q52 64 125 148q14 14 17 20q2 4 12 14q3 3 7 8l10 12.5l10 12.5l4 4q14 21 34 41q8 8 20 21l18 21l-1 -1q-4 -4 -8 -4t-4 -4l-2 -2q-2 0 -6.5 -3l-15 -10t-21.5 -14q-2 -2 -13 -8
t-18 -10l-14 -8l-19 -13q-152 -101 -245 -122q-74 -16 -95 -13l-6 -4q-8 -11 -49 -39q-16 -8 -33 -8q-12 -1 -15 -0.5t-7 6.5q-5 8 -2 17q2 8 8 21.5t10 16.5l15 17l16 18l6 6l6 3l2 2h2l7 2l4 -2h12l14 -2q11 0 15 -9q2 -2 2 -8v-18h2q26 -2 80 10q93 21 235 117l21 12
q30 16 77 47q6 3 17 11.5t14 9.5q8 4 8 6l2 2q3 0 15 8q8 8 12 8q2 0 6 4q0 4 4 4q0 -4 4 0l23 17q6 4 45 37q24 24 39 34q10 10 10 13q-2 2 2 2q4 -4 8 4l4 6l-28 -2q-9 0 -25.5 -1t-19.5 -1q-9 -2 -62 -6q-43 0 -67 -4q-34 0 -88 -13q-19 -4 -21 -2q-3 2 -3 11t3 10
q18 11 152 18q9 1 33.5 2t31.5 2q22 0 72 4l43 2l35 33l47 49q24 35 53 49q28 15 40 3t-7 -37q-15 -20 -29 -31q-4 -3 -14 -12t-13 -11q-6 -6 -14 -10l-43 -31q5 0 26.5 -1t39.5 -1h26q187 -6 236 -12q29 0 61 -4q62 -3 143 -18t103 -27q12 -7 12 -16q0 -10 -5 -12.5
t-11 5.5t-43.5 20.5t-54.5 12.5q-3 0 -10 1t-9 1q-4 2 -28 6q-5 0 -11 0.5t-9.5 1t-4.5 0.5q-1 1 -23.5 3.5t-53.5 5.5t-52 4l-43 4q-1 0 -16 0.5t-38 1t-44 0.5l-80 4h-41q-4 0 -6 -2q-16 2 -74 2q-21 -3 -51 -29q-10 -10 -13 -10q-1 0 -12.5 -8t-26 -19.5t-20.5 -17.5
q-16 -15 -47.5 -47.5t-60 -62.5t-52 -55.5t-24.5 -26.5h-2q-1 -1 -23 -29l-24 -31l-37 -41q-8 -8 -27 -30l-18 -23q-14 -19 -41 -51q-55 -63 -141 -172t-93 -129q-7 -23 -16 -4zM754 1001l14 11q14 10 14 14q0 2 2 0q5 0 15 10q3 2 7 5.5t6 5.5t3 2q3 0 6 6l2.5 2.5
t1.5 -0.5q0 -2 13 10.5t26 26.5t13 16q0 10 -23 2q-15 -15 -25 -27l-30 -32l-13 -17q2 -2 0 -2q-4 4 -8 -4q-3 -8 -6 -8q-7 0 -10 -10zM41 637q4 -2 4 2q-1 0 -3 1t-3 1q-6 0 2 -4zM-16 582q8 0 24 8l4 2l4 4l4 2l11 10q8 6 4 8l-12 7l-9 6q0 2 -2 2l-16 -17l-14 -22l-5 -8
q3 -2 7 -2z" />
    <glyph glyph-name="p_p.liga" unicode="pp" horiz-adv-x="729" 
d="M-365 -147q-6 6 -2.5 28t11.5 31q8 8 14 27q9 20 45 65q69 85 104 113l15 12l28 31l21 16l23 19l40 38q8 6 18.5 15t16 13.5t6.5 4.5q3 0 9 6q3 6 20 19q34 34 57 63l54 60l30 35q46 53 50 53l30 35q11 13 35 38l8 9l19 20l22 23l10 10q-2 -2 -8 -2q-9 0 -12 -6
q-65 -18 -76 -29q-4 -4 -8 -4q-7 0 -21 -7.5t-20 -15.5q-4 -6 -12 -14q-18 -9 -21 -12q-7 -14 -75 -51q-42 -23 -54 -23h-14l-2 12q0 19 10 30t43 30q42 22 43 22l8 2q0 3 37 19q38 17 41 20l15 17q15 15 12 16q-2 1 -10 0t-31 -10l-17 -6l-14 -7l-35 -20l-30 -16l-13 -9
q-1 0 -3.5 -2.5t-2.5 -3.5q0 -2 -2 -2q-1 1 -27 -14l-34 -27q-39 -26 -60 -47l-16 -12q-6 -4 -14 -12q0 -4 -7 -4q-4 0 -4 -5q0 -2 -4 -2q-2 0 -10 -8q-3 -4 -4 -4q0 4 -13 -9q-2 -2 -4 -5l-20 -17q-4 0 -14 -10l-45 -39l-17 -14q-4 -4 -43.5 -51t-46.5 -56l-33 -39l-53 -65
l-22 -29l-111 -131q-16 -19 -45.5 -45.5t-34.5 -28.5q-5 0 -8 9.5t-2 19.5l8 27l10 24q3 15 25.5 50t42.5 55q62 70 96 96l25 23q17 17 37 32l30 27q0 4 4 4q1 0 13 8q15 15 18 17q22 12 45 39q21 21 40.5 45.5t19.5 29.5q0 2 2 2q3 -3 12 11l266 303q34 37 45 45
q10 9 13 10t6 -4q11 -7 -7 -21q-16 -16 -22 -24l-23 -27q-14 -14 -14 -18q-3 -6 -6 -6q-1 0 -3 -2.5t-6 -7t-7 -7.5l-23 -28l-33 -35q-21 -23 -62.5 -71.5t-43.5 -51.5l-17 -21l-12 -14q0 -4 16 8q14 8 30 20t16 15q0 2 4 2q1 1 10 8t24 19t27 22l16 13l11 8q12 15 104 69
l27 17q4 4 10 4q8 0 8 4q1 3 29 12.5t43 12.5q29 7 33 -11v-8q0 -6 -4 -8q-2 -4 -2 -8q3 -1 45.5 16t60.5 27q5 2 10.5 5t8 4t4.5 1q18 21 28 31q15 15 25 6q7 -11 -29 -43l-33 -31l-28 -29l-82 -84l-41 -45q-85 -95 -74 -88l16 9q9 4 9 6t4 2q2 0 24 18q52 44 115 91t94 65
l27 14l8 4q6 0 10 4q13 7 56 24.5t55 18.5q26 6 31 -10l4 -4q2 -4 2 -14l-2 -4v-5q-7 -7 -13 -16l-6 -6q-5 -2 -47 -33q-26 -22 -31 -22l-14 -6l-24 -17q-9 -6 -46 -12q-33 -7 -43 -2l-4 4q12 18 27 33q6 0 8 2q8 0 29 12q69 42 129 57q1 0 10 9q6 9 0 12q-2 4 -20 4l-15 -6
l-30 -13q-24 -8 -25 -8q-2 0 -14 -6q-22 -15 -35 -18q-18 -6 -25 -13q-12 -8 -16 -8q-5 0 -8 -6q-5 -5 -31 -20q-27 -19 -29 -23q-4 -4 -8 -4t-24 -20q0 -7 -7 -7q-6 0 -16 -10q-18 -15 -33 -24q-10 -7 -10 -11t-2 -4q-6 0 -16 -10t-17 -10l-2 -2q0 -6 -29 -23l-14 -12
q-7 -7 -23 -20t-18 -13q-6 0 -6 -4l-16 -16q-26 -19 -93 -105q-70 -89 -120 -158q-46 -65 -97 -116q-24 -22 -52.5 -45t-31.5 -23q-4 0 -12 -16q-18 -21 -29 -10zM397 520q14 -4 45 17l17 8q25 9 47 30q4 6 0 4l-8 -4l-15 -6q-43 -18 -61 -32l-23 -15zM25 500
q18 4 51.5 24.5t44.5 32.5q8 4 4 8q-2 0 -2 -2t-8 -6q-6 0 -6 -4t-9 -4q-8 0 -8 -4q-4 -4 -10 -4q-2 0 -16 -9l-21 -14q-10 -7 -10 -10q-4 -4 -8 -6l-6 -5zM-334 -106q3 2 10.5 8t10.5 8q10 6 41 33t39 37q38 47 65 86q7 10 76 96q3 6 8 6q2 2 2 4q0 5 29 41q32 43 26 40
q-2 -2 -10 -11q-11 -11 -14 -11l-10 -10l-25 -20q-35 -31 -45 -43l-4 -4q-1 3 -10 -9l-21 -18q-57 -61 -59 -64q-9 -6 -15 -12q-6 0 -6 -4q1 -3 -26.5 -40t-32.5 -42q-2 0 -2 -4t-2 -6q-3 0 -21 -33q-18 -36 -16 -37q2 0 12 9zM-618 -66q0 -2 10 7.5t28 29.5t37 43l39 47
l23 29l16 21l57 69q33 39 33 43t2 4q1 0 11 9.5t10 11.5q0 1 -21 -15l-55 -47l-23 -20l-73 -74q-58 -61 -74 -102q-20 -46 -20 -56z" />
    <glyph glyph-name="p_t.liga" unicode="pt" horiz-adv-x="628" 
d="M-635 -109q-5 0 -8 9.5t-2 19.5l8 27l10 24q3 15 25.5 50t42.5 55q62 70 96 96l25 23q17 17 37 32l30 27q0 4 4 4q1 0 13 8q15 15 18 17q22 12 45 39q21 21 40.5 45.5t19.5 29.5q0 2 2 2q3 -3 12 11l266 303q34 37 45 45q10 9 13 10t6 -4q11 -7 -7 -21q-16 -16 -22 -24
l-23 -27q-14 -14 -14 -18q-3 -6 -6 -6q-1 0 -3 -2.5t-6 -7t-7 -7.5l-23 -28l-33 -35q-21 -23 -62.5 -71.5t-43.5 -51.5l-17 -21l-12 -14q0 -4 16 8q14 8 30 20t16 15q0 2 4 2q1 1 10 8t24 19t27 22l16 13l11 8q12 15 104 69l27 17q4 4 10 4q8 0 8 4q1 3 29 12.5t43 12.5
q29 7 33 -11v-8q0 -6 -4 -8q-2 -4 -2 -8q6 -4 24 8q29 18 107 66.5t126.5 78t51.5 29.5q4 0 4 4q6 6 12 10q26 15 64 43q14 11 33 29t32 32t12 15t0 1h1.5t1.5 1l1 1q2 1 3 2l2.5 2.5l3 3t2.5 3.5q12 18 -12 15l-46 -2q-43 0 -73 -6q-32 -7 -49 -7q-19 0 -23 -2
q-21 -11 -27 -2q-3 5 1 12t10 7l39 4l43 4q50 8 133 8h17t11.5 3.5t9 6t13 12.5t20.5 19l33 31q28 26 43 45q7 10 23 19.5t28.5 12t16.5 -2.5q3 -8 -15 -35q-9 -12 -33 -37.5t-30 -30.5t-13 -14t-6 -10q4 -4 121 2q11 0 33.5 0.5t48 0.5h54t50.5 -0.5t38 -0.5h16q5 1 10 1h8
t6 -1h3h14q19 0 27 -2q6 -2 23.5 -2t53 1t62.5 1q46 0 49 -13q3 -10 -8 -15t-17 3q-4 6 -32 8l-52 2l-30 2h-47q-38 0 -84 4h-84q-14 0 -154 -4l-76 -2q-22 0 -50.5 -7.5t-33.5 -12.5l-10 -8l-20 -19q-17 -17 -41 -35q-28 -21 -41 -34l-27 -27l-383 -453q-65 -82 -63 -84
t-27.5 -35.5t-32.5 -33.5q-1 0 -4 10q-3 12 25 47l43 55l47 60l313 381q8 9 7 9.5t-5 -1.5l-20 -14l-41 -27l-43 -29l-195 -114l-20 -15h-6q-10 -4 -13 -6q-4 -4 -8 -4q-7 0 -21 -7.5t-20 -15.5q-4 -6 -12 -14q-18 -9 -21 -12q-7 -14 -75 -51q-42 -23 -54 -23h-14l-2 12
q0 19 10 30t43 30q42 22 43 22l8 2q0 3 37 19q38 17 41 20l15 17q15 15 12 16q-2 1 -10 0t-31 -10l-17 -6l-14 -7l-35 -20l-30 -16l-13 -9q-1 0 -3.5 -2.5t-2.5 -3.5q0 -2 -2 -2q-1 1 -27 -14l-34 -27q-39 -26 -60 -47l-16 -12q-6 -4 -14 -12q0 -4 -7 -4q-4 0 -4 -5
q0 -2 -4 -2q-2 0 -10 -8q-3 -4 -4 -4q0 4 -13 -9q-2 -2 -4 -5l-20 -17q-4 0 -14 -10l-45 -39l-17 -14q-4 -4 -43.5 -51t-46.5 -56l-33 -39l-53 -65l-22 -29l-111 -131q-16 -19 -45.5 -45.5t-34.5 -28.5zM791 1008q1 -2 5.5 0t10.5 6.5t10 9.5l12 8q28 33 33 33q3 0 18 20
t15 23q0 1 -2.5 0.5t-6 -3.5t-5.5 -7t-21 -23l-16 -16l-13 -10l-12 -13q-3 -4 -8 -11t-8 -10t-6 -3zM25 500q18 4 51.5 24.5t44.5 32.5q8 4 4 8q-2 0 -2 -2t-8 -6q-6 0 -6 -4t-9 -4q-8 0 -8 -4q-4 -4 -10 -4q-2 0 -16 -9l-21 -14q-10 -7 -10 -10q-4 -4 -8 -6l-6 -5z
M-618 -66q0 -2 10 7.5t28 29.5t37 43l39 47l23 29l16 21l57 69q33 39 33 43t2 4q1 0 11 9.5t10 11.5q0 1 -21 -15l-55 -47l-23 -20l-73 -74q-58 -61 -74 -102q-20 -46 -20 -56z" />
    <glyph glyph-name="q_q.liga" unicode="qq" horiz-adv-x="460" 
d="M-512 12q5 22 29 41l20 17q0 1 27 28l43 45q17 22 57 62q45 45 45 57q4 18 -14 29q-9 4 -27 -6q-22 -11 -28 -15q-3 -2 -9.5 -5.5t-7.5 -4.5q-19 -15 -22 -2q-6 19 41 41q87 42 155 61q23 4 51 33q18 22 144 158q18 24 31 37q2 4 12 14q8 8 0 6q-6 -2 -23 -10
q-51 -24 -59 -25q-12 -2 -15 5t3 24q3 12 7 16.5t23 16.5q43 25 76 31q38 9 47 2q6 -4 7.5 -16t-1.5 -19q-3 -12 -37 -39l-15 -16q-14 -16 -35.5 -40t-45 -49.5t-46 -49.5t-34.5 -36q-21 -21 -12 -21q2 0 4 1q20 10 180 33q14 16 31 33l14 14q16 16 17 16l72 72q0 2 10 12
q10 7 10 10q5 2 8 9q-4 0 -4 -2q-8 0 -8 -2q-5 0 -8 -3q-3 0 -9.5 -1t-9.5 -1q-12 -4 -24 2q-4 4 -4 9q0 6 3.5 11t11.5 11.5t11 9.5q11 11 15 11q0 1 18 12q20 17 59 37q4 2 19 2q13 0 22 -14l9 -15l-5 -12l-14 -14q-1 -1 -3.5 -3t-4.5 -4q-1 -2 -4 -5t-4 -5q-6 -3 -11 -8
l-4 -4h-2q-29 -27 -80 -78l-30 -31q-1 -1 -10 -9t-13 -13l-33 -33l-8 -8q145 16 219 14q23 2 89.5 -1.5t72.5 -6.5q0 -4 19 -4q35 -4 75.5 -24t40.5 -31l3 -6q3 -6 6.5 -15t3.5 -18q-1 -22 -9.5 -38t-19.5 -18q-8 0 -12 7q-3 6 4 16q41 59 -6 86q-12 7 -42.5 17t-45.5 12
q-11 0 -13 2q-6 6 -114 10q-35 2 -82 2l-88 -4q-6 -2 -27 -2q-5 -1 -15.5 -2t-13.5 -2q-14 0 -22 -2l-35 -6l-2 -5q-2 -1 -10.5 -9.5t-16 -16.5t-6.5 -8q19 2 37 6q40 8 53 8q7 1 37 4t78.5 5t87.5 1q71 0 113 -14h4l20 -6q4 -4 8 -4q2 -1 6.5 -2t6.5 -2q10 -3 14 -11
q9 -9 2 -16q-10 -3 -14 4q-6 3 -13 10l-4 4q-1 0 -3 1t-3 1q-1 1 -8 3.5t-8 3.5q-2 0 -6.5 1t-7.5 1q-1 0 -5 1t-6 1q-26 13 -96 16q-20 0 -43.5 -1t-43 -3t-35.5 -4t-26 -3l-10 -1q-3 2 -69 -6q-7 0 -9 -2h-6q-1 0 -2 -1.5t-2 -1.5h-2q-2 0 -4 -2q-4 0 -6 -2q-1 0 -3 -1
t-3 -1l-29 -6q-12 -4 -20 -8q-18 -7 -66 -55q-1 -2 -6.5 -8t-7.5 -9q-12 -12 -21 -30q-18 -27 -20 -29l-10 -10q0 -2 -15 -17l-45 -45q-17 -14 -49 -48.5t-41 -47.5q-4 -7 -10.5 -7t-9.5 7q-3 8 22 39q25 33 27 33q6 6 10 12q10 12 35 37l18 20q0 5 21 23q13 13 12 14l4 4
q4 4 10 13q3 2 9.5 8t9.5 8q13 13 16.5 21.5t5.5 27.5q0 2 -1.5 3t-6 1t-12.5 -2t-21 -6q-24 -4 -32 -4q-11 0 -11 8q2 10 21 19q53 28 67 14q5 -5 17 0l14 6l14 4l17 4q4 0 15 10.5t22 26.5l14 14q-156 -26 -186 -42q-1 -1 -2 -1q-16 0 -52 -39q-26 -23 -26 -28h-4
q-11 -9 -21 -19l-26 -26q-9 -9 -9 -10t-2.5 -4t-3.5 -5q-12 -12 -18 -20q-4 -5 -18.5 -20.5t-20.5 -22.5q-64 -61 -111 -117q-13 -16 -16 -16q-6 -7 -12 -15q-17 -24 -27 -17q-4 3 -2 13zM199 596q7 4 18 6q8 3 24.5 12.5t29.5 19.5t12 13q0 6 -11 2q-6 -2 -28 -12.5
t-23 -13.5l-10 -7q-19 -12 -20 -20q0 -4 8 0zM-41 598q0 -2 8 0.5t17.5 7t13.5 8.5l4 2q0 -1 16 7l35 14q17 9 17 10q-3 3 -17 0q-2 -2 -22 -6q-26 -7 -47 -18q-25 -19 -25 -25zM-262 281q4 0 4 4q0 2 14 16l25 25q8 8 6 8q-20 -5 -42.5 -14t-23.5 -13q-2 -3 5.5 -14.5
t11.5 -11.5zM-55 301l10 6q10 7 14 15l2 4q-24 -6 -24 -19z" />
    <glyph glyph-name="r_r.liga" unicode="rr" horiz-adv-x="595" 
d="M174 547q0 8 2 12q12 26 98 98l15 17q22 22 35 14q5 -5 4 -9t-11 -15l-12 -15l12 6l39 15l37 14q13 3 17 -6q4 -6 6.5 -6.5t11.5 2.5l16 8q8 4 13 4q8 0 51 19q17 9 22 4q7 -7 -0.5 -17t-21.5 -12q-14 0 -39 -10q-35 -18 -49 -21q-20 -7 -23 -10q-1 0 -5.5 -1t-6.5 -1
q-10 0 -12 4q-3 7 0 10q1 2 -5 1q-28 -4 -60 -22q-5 -3 -7 -5l-27 -17q-32 -19 -77 -61q-16 -16 -23 0zM-55 551q-8 -9 -18 -6.5t-9 14.5q4 7 14 21l19 22q13 17 41 44t41 34q9 7 18 4q6 -2 6.5 -7t-4 -12t-14.5 -16q-22 -19 -18 -19q1 0 2 1l18 8q4 2 29.5 14.5t27.5 14.5
q18 9 21 -9q3 -8 8 -8q9 0 33.5 11t38.5 20q9 6 14 6l16 8q21 16 27 4q6 -8 -10 -24q-9 -6 -17 -6q-10 0 -18 -4l-23 -11l-32 -16q-41 -14 -58 -6q-9 7 -20 2l-23 -12q-52 -24 -63 -35l-23 -17q-21 -16 -24 -20z" />
    <glyph glyph-name="s_l.liga" unicode="sl" horiz-adv-x="405" 
d="M-78 461q-6 -3 -13 -1t-7 7q-4 6 -8 10q-7 7 -7 23q3 23 43 45l23 16q1 0 3 1t6 2.5t7 2.5q16 8 19 11l1 14q1 13 1 24q0 30 3.5 40.5t16.5 17.5q20 11 27 4q13 -16 -10 -23q-8 -2 -10 -6t-5 -24q-1 -21 2.5 -27.5t14.5 -1.5q3 1 29.5 11.5t59 24.5t62.5 30q40 20 49 26
q56 42 66 53q27 27 35 37q5 4 36.5 34t43.5 40q31 27 78.5 63t62.5 48q21 16 82 57q39 29 69 37q19 5 26.5 0.5t4.5 -17.5q-3 -12 -40.5 -47.5t-65.5 -56.5q-27 -21 -52 -41q-5 -4 -11.5 -9t-10 -8t-4.5 -4q-14 -7 -23 -16l-20 -14q-51 -34 -57 -39q-7 -5 -29.5 -18.5
t-26.5 -16.5l-51 -33l-25 -16q-15 -7 -24 -21q-12 -12 -12 -14q-3 0 -17 -18l-22 -29q-11 -11 -23 -27l-33 -41l-24 -26q-17 -21 -17 -23q-18 -18 -18 -33q-4 -22 -8 -24q-14 -7 -21 18q-5 17 8 33l31 37l35 45q57 71 49 68q-6 -6 -6 -7q-3 -3 -96 -45l-74 -30l-20 -9
q-10 -7 -13 -20q-5 -19 -10 -27q-6 -15 -34 -39t-46 -28zM360 768q1 0 18 11t21 12l9 6q25 12 55 34q50 31 110 80l43 35l39 33l29 27q20 22 16 22l-6 6q-4 -4 -8 -4q-2 0 -28.5 -16t-34.5 -23l-48 -35l-63 -51l-10 -8q-3 0 -58.5 -48t-68.5 -63q-6 -6 -12 -14q-4 -4 -3 -4z
M-78 483q8 0 29 21q27 27 29 41v10l-15 -8l-20 -12q-8 -4 -23.5 -15.5t-15.5 -19.5q0 -6 5 -11.5t11 -5.5z" />
    <glyph glyph-name="s_s.liga" unicode="ss" horiz-adv-x="393" 
d="M-78 479q-6 -3 -13 -1t-7 7q-4 7 -8 11q-7 7 -7 22q3 23 43 45l23 17q1 0 3 1t6 2.5t7 2.5q18 9 19 10l1 14q1 14 1 25q0 30 3.5 40t16.5 17q20 11 27 4q12 -16 -10 -22q-8 -2 -10 -6.5t-5 -24.5q-1 -21 2.5 -27.5t14.5 -1.5q22 13 75 31q9 0 13 4q5 2 25 7.5t32 5.5
q15 3 21 -3q8 -8 -2 -18q-6 -6 -11 -21t-2 -18q2 -2 25 6q72 19 106 25l47 10l33 8q5 0 7 -2.5t1 -5.5q-2 -4 -7 -6.5t-14 -4.5l-9 -1l-56 -13q-64 -15 -77 -20l-17 -4q-2 0 -22 -8q-13 -6 -16.5 -10t-6.5 -15q-7 -25 -24.5 -45.5t-36.5 -28.5l-15 -6q-6 -3 -11.5 3.5t-8 19
t-0.5 26.5q7 26 51 48l21 10l4 20q0 19 4 27q3 8 0 8q-5 0 -41 -12l-29 -10q-6 -1 -29 -13q-4 -1 -9 -3.5t-7.5 -3.5t-3.5 -1q-5 0 -14 -6q-10 -7 -13 -21q-4 -18 -10 -26q-6 -15 -34 -39.5t-46 -28.5zM-78 502q9 0 29 20q27 27 29 41v10l-15 -8l-20 -12q-6 -3 -6 -6
q-3 -2 -5 -2q-3 0 -15.5 -12t-12.5 -15q0 -6 5 -11t11 -5zM100 502q8 0 25 20t27 43q0 1 -1.5 1.5t-5 -0.5t-8.5 -3q-49 -21 -43 -49q4 -12 6 -12z" />
    <glyph glyph-name="s_t.liga" unicode="st" horiz-adv-x="532" 
d="M0 178q-6 -6 -16 10q-3 7 -2 11.5t8 17.5q23 52 51 84l18 29q0 4 9 8l4 6q0 5 6 8q7 7 10 13q5 9 10 12q1 2 4.5 6t8.5 10t8 10q48 61 119 138l38 47l21 24q2 2 22 27l21 23q13 10 55 57q4 5 23 24q5 5 9.5 8.5t6 5t2.5 3.5q8 10 82 84l19 20q2 2 4 2l-4 6q0 -2 -50 -32
l-32 -19q-1 0 -21 -12t-43.5 -26t-34.5 -19t-40 -22.5t-58 -32.5q-78 -41 -80 -41q-12 -8 -34.5 -19.5t-39.5 -19t-18 -8.5q-10 -11 -14 -7l-13 -6l-34 -14q-10 -7 -13 -21q-4 -18 -10 -26q-6 -15 -34 -39.5t-46 -28.5q-6 -3 -13 -1t-7 7q-4 7 -8 11q-7 7 -7 22q3 23 43 45
l23 17q1 0 3 1t6 2.5t7 2.5q18 9 19 10l1 14q1 14 1 25q0 30 3.5 40t16.5 17q20 11 27 4q12 -16 -10 -22q-8 -2 -10 -6.5t-5 -24.5q-1 -21 2.5 -27.5t14.5 -1.5l49 21l6 4l82 39q70 39 76 41l6 4l147 86l35 20q0 -1 3.5 1t11 6.5l12.5 7.5q14 10 78 49l67 45q3 2 10.5 8
t10.5 8q17 18 28 25h-43q-2 1 -16.5 0.5t-39 -1.5t-47 -3t-39.5 -3l-17 -1q-15 0 -39 -4l-99 -6q-30 0 -100 -9q-6 -2 -51 -6q-7 -1 -18 -2.5t-19.5 -2.5t-11.5 -1q-8 -2 -15.5 -2t-12.5 1t-5 3q0 12 35.5 18t150.5 15l47 4l5 1q6 0 14 0.5t16 0.5l70 4l6 1q6 0 14.5 0.5
t16.5 0.5q35 4 149 8q41 0 68 2q8 8 19.5 18.5t17.5 16t6 6.5q0 4 4 4t82 88q4 6 15.5 8t14.5 -3q3 -12 -16 -37q-3 -3 -12 -10t-23 -20.5t-33 -37.5q-6 -9 -30 -33l63 2q102 0 131 -2h82q60 0 70 -2h51l92 -4l8 -1q9 0 23 -0.5t27 -0.5t25.5 -0.5t20.5 -0.5l7 -1
q17 0 37 -2q8 0 16.5 -0.5t14.5 -0.5l6 -1q10 -2 18 -2q17 0 33 -4l43 -4q53 -6 53 -17q3 -12 -12 -16q-3 0 -10 -1t-9 -1q-10 -2 -12 6q-4 8 -16 10q-21 0 -29 2q-20 5 -41 5l-35 4q-4 2 -37 2q-29 0 -61 4q-8 0 -27 1t-24 1q-23 0 -27 2q-6 0 -8 -2t-4 0l-6 1q-6 1 -9 1
q-25 0 -43 2h-63q-6 1 -20 1.5t-33.5 1t-32.5 1.5h-107l-90 2l-82 -2l-26 -25l-2 -2l-6 -6q-6 -7 -11 -12q-18 -14 -18 -16q-6 0 -78 -72q-62 -62 -115 -123l-28 -29q-15 -11 -15 -16q-2 -2 -4 -2q-1 1 -4.5 -3t-5.5 -9q-6 -7 -12 -11q-21 -19 -86 -94q-7 -7 -15 -15.5
t-13 -13.5l-5 -6l-6 -4q0 -4 -25 -33q-26 -26 -30 -34q-5 -11 -29 -31q-40 -45 -64 -76q-107 -139 -98 -164q0 -6 -2 -6zM-78 502q9 0 29 20q27 27 29 41v10l-15 -8l-20 -12q-6 -3 -6 -6q-3 -2 -5 -2q-3 0 -15.5 -12t-12.5 -15q0 -6 5 -11t11 -5z" />
    <glyph glyph-name="t_t.liga" unicode="tt" horiz-adv-x="356" 
d="M-242 -37l-4 12q-1 14 0 25q5 44 17 76q4 8 8 24l10 25q1 3 16 33q60 118 115 194q24 33 25 37l53 76q9 9 20 27q25 36 52 63l14 18q11 15 12 15l25 28q12 14 31 38t26 32q31 31 31 37q0 4 4 4l1 1q2 1 3 2l2.5 2.5l3 3t2.5 3.5q10 12 23 25.5t16 17.5q27 23 27 31
q0 2 31 33q12 12 18 20q13 13 14 13q2 2 2 4q0 1 19 20q6 5 16 16l10 11l33 35q16 16 17 18l-127 -4l-4 -3l-8.5 -8.5t-10.5 -11t-12 -12.5q-33 -37 -37 -43l-82 -90q-28 -31 -70.5 -78t-67.5 -75t-28 -31l-16 -19l-11 -12q-3 -6 -26 -33q-42 -57 -66 -100q-2 -5 -12 -25
q-15 -21 -26.5 -69t-6.5 -66q3 -8 -2 -10q-17 -3 -14 59q3 54 33 105q39 69 47 80l14 20q2 0 2 2q0 1 3.5 5.5t10 13t11.5 14.5q21 28 26 33q3 4 19 21t22 24q17 17 17 18q0 5 14 19l115 127l78 86q4 4 6 8q17 16 22 28q-3 0 2 4q1 0 2 1l17 16l-135 -6q-17 0 -41 -4l-99 -6
q-30 0 -100 -9q-4 -1 -49 -6q-8 -1 -19.5 -2.5t-19 -2.5t-10.5 -1q-33 -7 -33 2q-2 12 36 19t148 14l47 4l6 1q5 0 13 0.5t16 0.5l72 4q17 2 35 2q35 4 149 8q10 10 10 9q2 0 8 6q3 6 15 14l33 31q20 20 36 32l25 23q24 20 27 4q1 -4 -1 -10t-5 -6q-4 0 -7 -6
q-19 -19 -39 -37q-18 -16 -45 -43l-18 -17q94 4 131 4q33 33 33 37t4 4q6 0 12 9q31 35 74 75q21 19 26.5 22.5t12.5 2.5q7 -2 9.5 -5.5t0 -7.5t-9.5 -8q-8 -8 -8 -10q1 0 0 -1t-2 -1q-11 -8 -19 -18l-39 -41l-28 -29q-6 -8 -27 -29q78 0 98 -2h82q60 0 72 -2h49l92 -4
q1 0 9.5 -0.5t22 -1t26.5 -0.5t25.5 -0.5t19.5 -0.5l8 -1q17 0 37 -2q8 0 16.5 -0.5t14.5 -0.5l5 -1q11 -2 19 -2q17 0 33 -4q11 0 43 -4q16 -1 29 -4t19.5 -6.5t6.5 -6.5q0 -12 -14 -16q-2 0 -9 -1t-10 -1q-10 -2 -12 6q-4 8 -16 10q-21 0 -29 2q-20 5 -41 5l-35 4
q-4 2 -37 2q-29 0 -61 4q-9 0 -27 1t-22 1q-25 0 -27 2q-8 0 -10 -2t-4 0q-1 0 -6 1t-7 1q-27 0 -45 2h-61q-9 1 -41.5 2t-46.5 2h-107l-75 2l-56 -53l-61 -62q-4 -8 -47 -51l-8 -8q-2 -4 -37 -43q-19 -22 -39.5 -43.5t-33 -34t-15.5 -16.5q-9 -14 -33 -41
q-126 -155 -162 -207q-3 -3 -8.5 -11t-7.5 -10t-6 -7.5t-5 -6.5q-6 -12 -18 -27q-3 -4 -14 -18.5t-17 -21.5q-23 -37 -57 -93q-72 -126 -88 -178q-7 -17 -14 -61q-3 -21 -9 -27z" />
    <glyph glyph-name="u_l.liga" unicode="ul" horiz-adv-x="520" 
d="M233 465q-13 -7 -20 18q-5 17 8 33l31 37l35 45q57 71 49 68q-6 -6 -6 -7q-1 -1 -22 -11.5t-23 -12.5l-45 -21q-13 -7 -71 -30.5t-71 -24.5q-1 0 -9.5 -2t-10.5 -2q-24 -5 -32.5 6t-4.5 27v8l-2 -2l-14 -12q-34 -27 -56 -27h-12l-6 10q-4 9 2 31q3 8 15 22.5t30 34
t20 21.5q11 8 15 4q10 -5 -6 -25q-6 -7 -23 -26.5t-27 -32t-8 -16.5q6 -11 41 13t58 52l4 6l12 13l4 6q11 10 18 8q3 -1 4.5 -3.5t0 -6t-3.5 -7t-5.5 -9t-7 -9.5t-8.5 -10t-8 -10q-25 -32 -17 -43q1 -4 6.5 -5t10.5 1l6 1q36 7 172 66l39 21q40 20 49 26q56 42 66 53
q22 22 34 37q5 4 36.5 34t43.5 40q30 27 78 62.5t64 48.5q21 16 82 57q39 29 69 37q19 5 26.5 0.5t4.5 -17.5q-3 -12 -40.5 -47.5t-66.5 -56.5q-10 -8 -25.5 -20.5t-25.5 -20.5q-5 -4 -11.5 -9t-10 -8t-4.5 -4q-14 -7 -23 -16l-20 -14q-56 -37 -58 -39q-32 -23 -37 -23
q-2 0 -18 -12q-15 -11 -37 -25q-9 -3 -14 -8l-25 -16q-15 -7 -24 -21q-13 -13 -13 -14q-3 0 -16 -18l-23 -29q-7 -7 -22 -27l-33 -41l-25 -26q-16 -20 -16 -23q-18 -18 -18 -33q-4 -22 -9 -24zM473 768q1 0 18 11t21 12l8 6q25 12 55 34q54 34 111 80l43 35l39 33l29 27
q20 22 16 22l-6 6q-4 -4 -8 -4q-2 0 -29 -16t-35 -23l-47 -35l-63 -51l-11 -8q-3 0 -58.5 -48t-68.5 -63q-1 -2 -4 -4l-11 -15z" />
    <glyph glyph-name="u_t.liga" unicode="ut" horiz-adv-x="690" 
d="M123 195q-4 6 -3.5 17.5t5.5 16.5l2 9q0 2 8 14l164 197l35 43q1 1 8.5 10.5t13.5 15.5q26 34 125 148q14 14 17 20q1 2 5 7t5 7l29 33q0 1 1 2t1 2q25 30 36 41q44 45 37 41q-4 -4 -10 -4q-2 -2 -2 -4q-2 -2 -4 -2t-41 -23q-13 -9 -31 -16q-20 -12 -20 -14q-1 0 -3.5 -2
t-4.5 -2l-25 -15l-27 -14q-3 -1 -51 -31q-39 -20 -45 -24l-22 -11l-166 -75l-76 -27h-6q-12 -3 -25 0q-10 0 -16 12q-7 7 -4 21v8l-2 -2l-15 -12q-18 -14 -30 -19l-11 -6l-6 -2h-12q-2 0 -2 2l-4 8q-4 9 2 31q4 13 20 39.5t27 38.5q10 8 14 4q13 -6 -2 -25q-14 -18 -28 -43
t-11 -28q5 -5 35.5 18.5t42.5 40.5l4 6q2 6 11 15l4 6q11 10 18 8q8 -3 8 -15.5t-8 -21.5l-10 -10q-3 0 -10 -11l-5 -2q-13 -25 -6 -38q1 -4 7.5 -5t13.5 1l6 1q35 7 180 70l35 17l2 2q12 4 39 18.5t33 17.5l92 52l31 18q30 16 77 47q5 3 16.5 9.5t14.5 7.5q8 4 8 6t2 2
q1 0 20 11t21 13l23 17q6 4 45 37q24 24 39 34q10 10 8 13q0 2 4 2q4 -4 8 4l2 6l-26 -2q-9 0 -25.5 -1t-19.5 -1q-9 -2 -62 -6q-43 0 -67 -4q-34 0 -88 -13q-19 -4 -21 -2q-3 2 -3 11t3 10q18 11 152 18q9 1 33.5 2t31.5 2q22 0 72 4l43 2l35 33l47 49q24 35 53 49
q28 15 40 3t-7 -37q-15 -20 -29 -31q-4 -3 -13.5 -12t-12.5 -11q-5 -5 -15 -10l-43 -31q5 0 26.5 -1t39.5 -1h26q187 -6 236 -12q29 0 61 -4q61 -3 142.5 -18t103.5 -27q12 -7 12 -16q0 -10 -5 -12.5t-11 5.5t-44 20.5t-56 12.5l-17 2q-4 2 -28 6q-5 0 -11 0.5t-9.5 1
t-4.5 0.5q-1 1 -23.5 3.5t-53.5 5.5t-52 4l-43 4q-1 0 -16 0.5t-38 1t-44 0.5l-80 4h-41q-4 0 -6 -2q-16 2 -74 2q-21 -3 -51 -29q-10 -10 -13 -10q-1 0 -12.5 -8t-26 -19.5t-20.5 -17.5q-20 -19 -66.5 -67t-82.5 -86.5t-37 -38.5q-1 -1 -23 -29q-4 -4 -13 -15.5t-13 -15.5
q-1 -1 -35 -41q-8 -8 -27 -30l-18 -23q-4 -5 -43 -51q-60 -71 -142.5 -176.5t-89.5 -124.5q-7 -23 -16 -4zM842 1001l14 11q14 10 14 14q0 2 2 0q5 0 15 10q3 2 7 5.5t6 5.5t3 2q3 0 6 6l2 2q1 -2 14.5 10.5t26.5 26.5t13 16q0 10 -23 2l-27 -27q-19 -24 -30 -32l-11 -17
q2 -2 -2 -2q-3 3 -6 -4q-3 -8 -6 -8q-5 0 -12 -10z" />
    <glyph glyph-name="v_t.liga" unicode="vt" horiz-adv-x="536" 
d="M4 178q-6 -6 -16 10q-3 7 -2 11.5t8 17.5q23 52 51 84l18 29q0 4 9 8l4 6q0 5 6 8q7 7 10 13q5 9 10 12q1 2 4.5 6t8.5 10t8 10q48 61 119 138l39 47l20 24q7 7 23 27l20 23q13 10 55 57q4 5 23 24q5 5 9.5 8.5t6 5t2.5 3.5q8 10 82 84l19 20q1 1 2 2.5t2 2.5t2 1l-6 2
q0 -3 -49 -32l-33 -19q-1 0 -21 -12t-43.5 -26t-34.5 -19q0 -1 -114 -55t-144 -68q-4 -4 -8 -6h-2q-2 -2 -6 -2q-4 -4 -6 -10q-4 -9 -12.5 -21.5t-17.5 -24t-9 -12.5q-9 -13 -24 -26t-21 -13q-14 -2 -21 9.5t-6 31.5q3 28 29 82q1 1 4 12.5t4 12.5q6 16 12 16l9 2l2 -6
q7 -12 -15 -51q-11 -22 -18 -49.5t-4 -34.5q3 -8 31 20q22 22 34 52q13 23 13 30l2 2q1 1 20 7q68 17 307 147q8 5 20 12t25 13.5t17 9.5q14 10 78 49l67 45q2 2 10 8t11 8q17 18 28 25h-43q-2 1 -16.5 0.5t-39 -1.5t-47 -3t-39.5 -3l-17 -1q-15 0 -39 -4l-99 -6
q-30 0 -100 -9q-6 -2 -51 -6q-7 -1 -18 -2.5t-19.5 -2.5t-11.5 -1q-8 -2 -15.5 -2t-12.5 1t-5 3q0 12 35.5 18t150.5 15l47 4l5 1q6 0 14 0.5t16 0.5l70 4l6 1q6 0 14.5 0.5t16.5 0.5q35 4 149 8q41 0 68 2q8 8 19.5 18.5t17.5 16t6 6.5q0 4 4 4t82 88q4 6 16 8t15 -3
q3 -11 -17 -37q-3 -3 -12 -10t-22.5 -20.5t-32.5 -37.5q-4 -6 -31 -33l63 2q102 0 131 -2h82q60 0 70 -2h51l92 -4l8 -1q9 0 23 -0.5t27 -0.5t25.5 -0.5t20.5 -0.5l7 -1q17 0 37 -2q8 0 16.5 -0.5t14.5 -0.5l6 -1q10 -2 18 -2q17 0 33 -4l43 -4q53 -6 53 -17q3 -12 -12 -16
q-3 0 -10 -1t-9 -1q-10 -2 -12 6q-4 8 -16 10q-21 0 -29 2q-20 5 -41 5l-35 4q-4 2 -37 2q-29 0 -61 4q-8 0 -27 1t-24 1q-23 0 -27 2q-6 0 -8 -2t-4 0l-5 1q-5 1 -9 1q-26 0 -44 2h-63q-6 1 -20 1.5t-33.5 1t-32.5 1.5h-107l-90 2l-82 -2l-26 -25l-2 -2l-6 -6
q-6 -7 -11 -12q-18 -14 -18 -16q-6 0 -78 -72q-62 -62 -115 -123l-28 -29q-15 -11 -15 -16q-2 -2 -4 -2q-1 1 -4.5 -3t-5.5 -9q-6 -7 -12 -11q-21 -19 -86 -94q-7 -7 -15 -15.5t-13 -13.5l-5 -6l-6 -4q0 -4 -25 -33q-26 -26 -30 -34q-5 -11 -29 -31q-40 -45 -64 -76
q-107 -139 -98 -164q0 -6 -2 -6z" />
    <glyph glyph-name="w_t.liga" unicode="wt" horiz-adv-x="573" 
d="M6 195q-4 6 -3.5 17.5t5.5 16.5l2 9q0 2 8 14l164 197l35 43q1 1 9 10.5t14 15.5q26 34 125 148q12 12 16 20q1 2 5 7t5 7l29 33q0 1 1 2t1 2q20 24 37 41q44 45 37 41q-4 -4 -11 -4q-2 -2 -2 -4q-2 -2 -4 -2t-41 -23q-15 -10 -30 -16l-115 -68q-7 -4 -26.5 -15.5
t-30.5 -18t-27.5 -13.5t-30.5 -10q-24 -8 -26 -8q-6 -3 -9 -19q0 -16 -10 -36q-30 -66 -39 -84l-6 -11l-4 -2l-6 -2q-4 -4 -8 0l-7 6q-8 8 -8 15l-4 8q-10 25 -10 45q1 3 -0.5 10.5t-3.5 7.5t-8 -8.5t-6 -11.5q-12 -12 -15 -16q-13 -13 -22 -13q-10 -2 -21 6q-6 8 -6 23
q11 49 27 86q8 21 16 21q13 1 14 -8t-10 -29q-6 -9 -12.5 -28t-9.5 -34.5t0 -15.5q6 0 30 37q20 23 37 20q13 -3 10 -24q0 -20 5 -43t10 -23q3 0 21.5 38.5t23.5 53.5q6 15 6 31q0 5 4.5 10.5t11.5 5.5q16 0 60 19q10 5 28.5 15t24.5 13l92 52l31 18q34 18 78 47
q6 3 16.5 9.5t13.5 7.5q9 4 9 6t2 2q1 0 20 11t21 13l22 17q6 4 45 37q24 24 39 34q11 10 8 13q0 2 4 2q5 -5 9 4l2 6l-27 -2q-9 0 -25.5 -1t-19.5 -1q-9 -2 -61 -6q-44 0 -68 -4q-34 0 -88 -13q-19 -4 -21 -2q-3 2 -3 11t3 10q18 11 152 18q9 1 33.5 2t31.5 2q22 0 72 4
l43 2l35 33l47 49q24 35 53 49q28 15 40 3t-7 -37q-15 -20 -29 -31q-4 -3 -13.5 -12t-12.5 -11q-5 -5 -15 -10l-43 -31q5 0 26.5 -1t39.5 -1h27q186 -6 235 -12q30 0 62 -4q61 -3 142 -18t103 -27q13 -8 13 -16q0 -10 -5.5 -12.5t-11.5 5.5t-44 20.5t-56 12.5l-16 2
q-4 2 -29 6q-5 0 -11 0.5t-9.5 1t-4.5 0.5q-1 1 -23.5 3.5t-53.5 5.5t-52 4l-43 4q-1 0 -16 0.5t-38 1t-44 0.5l-80 4h-41q-4 0 -6 -2q-16 2 -74 2q-21 -3 -51 -29q-10 -10 -12 -10q-1 0 -13 -8t-26.5 -19.5t-20.5 -17.5q-20 -19 -66.5 -67t-82.5 -86.5t-37 -38.5
q-1 -1 -23 -29q-4 -4 -13 -15.5t-13 -15.5q-1 -1 -35 -41q-8 -8 -26 -30l-19 -23q-4 -5 -43 -51q-59 -69 -141.5 -175.5t-89.5 -125.5q-7 -24 -17 -4zM725 1001l14 11q15 11 15 14q0 2 2 0q4 0 14 10q3 2 7 5.5t6 5.5t3 2q4 0 7 6l2 2q1 -2 14 10.5t26 26.5t13 16
q0 10 -23 2q-21 -21 -26 -27q-17 -22 -31 -32l-10 -17q2 -2 -2 -2q-3 3 -6 -4q-3 -8 -7 -8q-5 0 -12 -10z" />
    <glyph glyph-name="y_y.liga" unicode="yy" horiz-adv-x="528" 
d="M-711 -272q-12 9 -6 30q4 8 4 17q-1 12 29.5 60.5t52.5 68.5q2 2 5.5 5t5.5 4.5t2 2.5t6 4l2 2q0 4 4 4q1 0 18 13q21 21 121 88q28 21 94 57q6 2 21 12q17 11 35 19l28 14q12 6 15 6q7 4 71 33q15 5 33 14l20 11q0 2 5 2q7 0 22 6q18 5 25 8l30 10l33 12q14 4 41 29
q16 16 19 16q36 35 36 37q3 0 60 62q-11 0 -15 -2l-32 -2q-26 0 -41 -6l-80 -15q-27 -5 -107 -31l-28 -10q-12 0 -113 -96q-123 -120 -205 -182l-26 -21q-4 -2 -9 -6t-8 -6t-4 -2l-2 -4q-5 0 -20 -12q-62 -47 -131 -89q-16 -9 -50 -28t-43 -23q-35 -17 -63 -33l-55 -30
q-7 -6 -28.5 -13.5t-29.5 -7.5q-6 0 -10.5 8t-3.5 15q6 20 57 71q53 53 103 99l35 31q61 54 63 55l29 22l45 35q16 13 16 17q2 0 4 1t3.5 2l3 2l1.5 1l23 16l16 10l2.5 2.5t1.5 -0.5q5 3 9 7t22 14t21 10q4 0 10 6l67 39q20 11 68 33.5t57 23.5q9 4 9 5q0 2 4 2q6 0 18 6
l29 10q3 2 7.5 3.5t7 2.5t3.5 2q4 4 10 4q5 0 17 6q7 3 44 38t46 48l22 25l164 166q-5 -2 -43 -21l-22 -10q-17 -5 -27 0q-8 4 -8 8l-2 11q-1 6 3.5 17t10.5 17l25 27l8 6q0 2 4 6h8q9 0 11 -4q6 -6 0 -12l-5 -4l-4 -2l-6 -4l-6 -6q-32 -38 -20 -38q6 0 24 7q15 5 29 12
q4 4 8 4l33 17q7 3 10 10l16 16q9 3 15 0l2 -2q6 -6 6 -8q0 -6 -4 -10q-15 -15 -23 -19l-2 -2q-9 -14 -28.5 -36t-49 -52.5t-50 -51l-55.5 -55.5l-42 -42q-26 -28 -21 -28q1 0 3 1l73 19l60 12q16 0 20 4q0 2 10 2q9 0 13 2q1 1 3.5 1.5t6.5 1t6 1.5l47 6q16 2 53 2
q6 8 23 25q11 14 18 18l4 6q-2 2 -2 3.5t2 1.5q1 -1 12.5 9.5t25 24.5t20.5 23q1 1 6.5 8.5t9.5 9.5l55 58q-14 -5 -30 -11q-58 -22 -66 5q0 14 58 63q29 26 32 8q2 -6 -5.5 -14t-39.5 -33l-14 -12q1 -2 8.5 -1t18.5 3.5t18 5.5q7 1 20.5 11t18.5 16l18 12q24 15 31 -2
q1 -3 -1 -5l-10 -10t-16 -22q-9 -14 -28 -36t-46 -51.5t-34 -37.5l-16 -16q-2 -3 -5.5 -7t-6 -7t-3.5 -5l-41 -41q17 0 23 -2q12 -2 15 -12t-7 -18q-6 -5 -31 -9t-28 0q-2 1 -1.5 5.5t3.5 7.5l-62 -62q-39 -35 -39 -39q15 2 33 8q55 16 177 40t200 36q28 4 45 4q8 2 24 2h11
q4 4 32 4q40 5 56 5q24 4 37 4h32q29 0 45 -2h37q4 0 17 -6t16 -9q2 -5 -2 -13t-8 -9q-6 0 -6 -4q-3 -7 -13 -3.5t-8 11.5q0 6 -4 6q-18 6 -63 6q-21 0 -25 2q-14 0 -24 -2q-34 0 -50 -2q-23 0 -63 -4t-57 -4l-130 -16q-50 -12 -100 -21q-132 -28 -201 -53q-18 -9 -36 -15
q-24 -9 -25 -12q-17 -17 -61 -53q-13 -11 -29.5 -24.5t-24.5 -20.5t-10 -8q-1 -1 -5 -4.5t-10.5 -9.5t-11.5 -11q-5 -4 -11.5 -10t-10 -9t-4.5 -3q-1 -1 -5 -4.5t-10.5 -9.5t-11.5 -11l-22 -20q-2 0 -19 -15t-18 -18q-2 -2 -2 0q0 1 -2 -0.5t-6 -5.5l-13 -11q-4 0 -4 -4
t-8 -8q-3 -2 -9.5 -7.5t-17 -14t-18.5 -15.5l-18 -16t-14.5 -12t-6.5 -5q-4 0 -12 -8q-87 -72 -217 -127l-45 -18q-6 -6 -27 -10q-20 -5 -27 0zM-963 -223q0 -10 93 39l61 32q88 45 109 62l38 27q55 36 68 47l19 12q18 12 22 18q18 12 21 15q6 2 12 8l37 29l14 12
q71 58 117 102q102 102 102 107q-1 2 -4 1.5t-18 -7.5q-12 -9 -21 -9l-12 -6q-3 -4 -29 -12q-25 -7 -80.5 -35t-64.5 -37q-14 -7 -17 -8q-9 -3 -16 -10q-8 -4 -10 -4q-13 -7 -25 -15l-37 -24l-7.5 -5t-6.5 -4.5t-2 -2.5q0 -3 -4 -3t-14 -10l-13 -10l-4 -2l-20 -16
q-13 -13 -21 -13q-6 -3 -6 -10q0 -4 -6 -4q-4 0 -8 -4l-15 -12q-70 -55 -161 -144t-91 -104zM-700 -252q0 -9 34 4q33 12 45 19q15 5 33 14q26 13 47 25q6 3 13 7t11 6t5 3l20 12q60 41 62 41q5 0 8 6q15 15 25 21q44 30 112 94l33 29q8 4 16 12l46 41q14 10 14 14l6 4
l27 27q30 30 57 51q12 4 8 8l4 4q4 0 13 9l6 10l-13 -4q-6 0 -18 -6q-6 -6 -12 -6q-7 -1 -33 -11.5t-31 -13.5q-2 0 -8 -2.5t-8 -3.5q-25 -7 -37 -19q-6 0 -10 -4q-8 0 -8 -4t-11 -4q-20 -5 -47 -22q-20 -12 -22 -11q-5 0 -11 -6q-3 -6 -10 -6q-2 0 -18 -8q-3 -3 -21 -12
l-12 -9q-7 -7 -16 -10q-18 -9 -39 -24l-35 -21q-31 -18 -88 -63q-4 -3 -9.5 -8t-9.5 -8.5t-6 -4.5q-23 -20 -53 -54t-29 -40q0 -4 -2 -4q-6 -3 -18 -33.5t-10 -38.5z" />
    <glyph glyph-name="z_z.liga" unicode="zz" horiz-adv-x="575" 
d="M-672 -293q-40 -12 -52.5 -10.5t-12.5 18.5q5 24 51 70l18 16q28 33 37 39l10 10q2 4 58 52q46 41 65 55l27 20q81 60 127 84q14 7 22 15q5 5 15 10l133 70q6 3 33 15.5t49 22.5t26 11l25 10q57 25 76 31q28 9 41 18t41 39l49 57l-19 -2l-45 -8l-39 -6q-27 -4 -38 -8
l-68 -17l-31 -8q-12 -4 -24 -4q-13 0 -17 -4l-65 -24q-24 -10 -45 -35l-31 -29l-74 -65q-11 -14 -49 -44l-33 -26l-69 -57l-37 -29l-31 -23l-29 -20l-18 -14q-19 -15 -22 -15q-3 -2 -3 -4q-17 -17 -53 -41l-33 -22q-23 -19 -26 -19q-2 0 -6 -4q0 -4 -23 -16l-45 -31
q-41 -27 -61 -29q-18 -5 -25 0q-8 5 -8 17q2 19 35 63q20 24 62 67.5t46 43.5l2 2q0 4 4 4q3 0 15 12l22 19l39 32l49 39l41 29q62 44 76 49l45 27q78 43 103 53l45 20l61 29q41 16 41 23l2 2q2 -2 8 4q13 17 35 37q16 16 16 20q2 2 4 2q6 0 9 6l135 154l31 41l22 33l6 10
l4 8l-16 -2q-12 -3 -17 -1t-6 11q0 8 4 11.5t27 15.5l51 31l-16 -4q-31 -7 -58 -19l-26 -12q-9 -1 -9 1t-1 3q-4 4 1.5 8.5t24 12.5t40.5 16t63 22q46 15 51 15q11 3 16 -4q8 -14 -18 -27q-22 -9 -25 -12q-1 -1 -5.5 -3.5t-9.5 -5l-9 -4.5l-19 -8l-8 -8q-9 -7 -4 -14
q4 -4 -2 -21q-12 -28 -49 -74q-69 -88 -105 -124l-28 -33q-36 -39 -45 -45q-13 -13 -3 -15q2 -1 5 0l20 4q14 2 47 9t33 8q4 4 14 4q3 0 27 6q57 14 72 16q26 4 55 11q12 3 55 12l21 25q5 0 22 24l129 152l-18 -4q-39 -8 -41 6q-2 6 6.5 13.5t26.5 16.5q45 24 62 40q3 3 2 3
q-1 1 -3 0q-90 -25 -98 -20q-7 2 -4 8q4 6 104 33q19 5 56 10q27 5 34 -2q6 -6 6 -8q0 -3 -42 -27t-60 -30l-25 -11q-10 -4 -11 -6q-2 -4 22 4q11 4 13.5 4t8.5 -4l6 -4l-4 -12l-114 -135l-39 -41l-27 -31q24 6 37 6l25 4q56 9 71 4q9 -5 12 -10q5 -9 -2 -18q-14 -18 -24 -2
q-2 5 -27 8q-31 0 -41 -2l-69 -10l-52 -62l-10 -14l115 28l27 7l151 30l96 17q11 0 13 2q0 3 145 20t178 19q54 0 60 -13q5 -15 -3 -22.5t-26 -3.5l-14 4q0 9 -72 6l-37 -2q-40 0 -203.5 -21.5t-171.5 -27.5l-26 -6q-150 -31 -238 -62q-21 -9 -30.5 -15.5t-28.5 -27.5
l-86 -84q-32 -36 -70 -63l-10 -10q-2 -4 -37 -31l-47 -39l-29 -23l-37 -26q-22 -17 -137 -94l-80 -52q-22 -16 -28 -16q-9 -6 -17 -10q-55 -35 -166 -68zM-870 -229l16 4q4 0 8 4l10 6q4 0 19 10l12 10q3 -3 74 52l29 20q11 5 43 33q42 33 45 33q2 0 10 8l6 8h1l3 3l6 3
q2 2 9.5 7.5t9.5 7.5q18 12 28 20l19 14l43 31l49 43q11 8 23.5 18.5t18.5 15.5t7 5q3 0 6 6q6 6 15 12l90 80l20 23q6 6 5.5 6t-9.5 -4l-53 -25q-8 0 -17 -6l-12 -6q-9 -6 -55 -29l-45 -24q-78 -43 -92 -54l-29 -18l-25 -16l-18 -15q-64 -46 -70 -55q0 -4 -6 -4
q-2 0 -14 -12q-11 -11 -23 -19l-20 -16l-39 -39l-59 -62l-19 -22l-14 -18q-32 -43 -11 -40q2 0 5 1zM-670 -276q84 22 140 53q32 16 94 59l121 78l45 33q24 16 30 22q8 8 17 11q8 4 8 6t2 2q1 0 2.5 1t3.5 2.5t4 2.5q6 8 20 19.5t17 11.5q2 0 10 8l15 14l51 43l16 16
q21 17 47 48q3 6 15 12l20 20l17 19l18 18q12 12 6 15h-4l-18 -9q-57 -22 -82 -34l-23 -13l-35 -14l-24 -12l-15 -9l-67 -34q-29 -13 -35 -19q-4 -4 -6 -4l-57 -33l-41 -24q-16 -8 -21 -13l-39 -26l-35 -25q-55 -43 -59 -43q-1 0 -3.5 -2.5t-4.5 -3.5l-8 -10
q-13 -13 -37 -33l-19 -14l-67 -66l-21 -22q-15 -19 -20 -19q-4 -4 -4 -6q-5 -8 -11 -16q-15 -19 -5 -19q8 0 42 9z" />
    <glyph glyph-name=".notdef" horiz-adv-x="1024" 
d="M840 1638v-2048h-650v2048h650zM682 1501h-338v-67h133v-76h-135v-68h340v68h-135v76h135v67zM547 1237h-205v-213h340v70h-135v143zM477 1167v-73h-67v73h67zM682 969h-340v-68h135v-76h-135v-67h205v143h135v68zM682 846h-68v-135h-272v-70h340v205zM682 596h-205v-115
h70v47h67v-96h-204v164h-68v-231h340v231zM682 242h-340v-232h340v232zM614 174v-96h-204v96h204zM682 -37h-340v-67h143l-143 -97v-67h340v67h-209l143 97h66v67z" />
    <glyph glyph-name=".null" 
 />
    <glyph glyph-name="nonmarkingreturn" horiz-adv-x="682" 
 />
    <glyph glyph-name="space" unicode=" " horiz-adv-x="819" 
 />
    <glyph glyph-name="exclam" unicode="!" horiz-adv-x="432" 
d="M135 590q-4 7 0 39q3 18 61 86.5t93 103.5q11 11 16 21l6 6q3 0 15 12q58 52 59 53l41 33q24 24 33 12q5 -6 4 -9.5t-10 -12.5q-10 -10 -28.5 -25.5t-21.5 -15.5q-6 0 -200 -201q-39 -39 -51 -86q-3 -9 -8.5 -14t-8.5 -2zM76 487q-9 -5 -14 13q-3 13 1 24q4 8 9 8
q6 0 13 -3.5t7 -6.5q0 -5 -6.5 -19.5t-9.5 -15.5z" />
    <glyph glyph-name="quotedbl" unicode="&#x22;" horiz-adv-x="329" 
d="M414 1120q-4 0 -4 15q4 3 4 6l18 39q5 39 4 49l6 12q16 16 21 -8q4 -20 -4 -49q-9 -26 -23 -54q-15 -23 -22 -10zM487 1120q-4 0 -4 15q2 2 4 7v-1q0 -1 1.5 1t6 11.5t11.5 26.5q5 39 4 49l6 12q16 16 21 -8q3 -20 -5 -49q-11 -33 -22 -54q-6 -9 -13 -12.5t-10 2.5z" />
    <glyph glyph-name="numbersign" unicode="#" horiz-adv-x="718" 
d="M109 471q0 4 17.5 33t23.5 35q4 4 4 6q0 6 59 61l33 29q-1 2 -13.5 1t-29 -5t-21.5 -8q-17 -10 -20 0q-2 6 2 12t10 6l16 6q8 9 13 4q1 0 78 17q14 5 24 12l23 16l8 6h-17q-6 0 -14.5 -1t-9.5 -1q-8 -4 -25 -4q-5 0 -12 -1l-8 -1q0 -2 -27 -6l-104 -16l-15 -4l-30 -11
q-9 -3 -12 -1t-1 10q3 7 13 10q57 14 100 22l102 15l37 6l19 2q23 -3 45 10l26 21l41 28q18 11 40.5 25.5t23.5 15.5q3 6 8 6q8 0 43 25l21 10q24 12 24 -4q0 -7 -6 -10q-8 0 -49 -29l-66 -39q-1 -1 -57 -41l-14 -10h28q43 -3 52 6l26 17q108 65 113 69q14 9 24 2
q5 -5 -4 -14q-12 -12 -24 -21l-19 -10l-20 -12q-8 -4 -16.5 -9t-15.5 -9.5t-13 -8.5t-9 -6.5t-2 -3.5l41 -4q44 -4 48 -6q18 -5 20.5 -6.5t1.5 -7.5q-3 -16 -29 -5q-33 11 -90 11q-28 0 -43 -9q-8 -5 -13.5 -10t-4.5 -6h24q27 2 64 -1t41 -7q9 -8 3 -16.5t-20 -10.5
q-8 0 -14 6q-6 7 -22.5 8.5t-65.5 -1.5l-53 -5l-27 -22q-114 -93 -141 -139q-4 -6 -13 -7.5t-12 3.5q-5 8 -2 14t26 31q7 8 11 12l35 33l20 20q15 15 27 25l27 24l5 5l-5 -1l-23 -2q-42 -2 -69 -20q-58 -47 -89 -78.5t-67 -79.5q-14 -20 -14 -10v4zM354 678q39 2 47.5 3.5
t20.5 8.5q18 14 20 17q3 3 -0.5 3t-31.5 -1q-31 -2 -48 -15q-20 -12 -20 -14t12 -2z" />
    <glyph glyph-name="dollar" unicode="$" horiz-adv-x="544" 
d="M31 416q-16 -7 -16 9q1 20 22 44q12 14 53 55q-22 -4 -31 -8q-4 0 -12 -4q-8 -8 -12 -14q-32 -37 -35 -60q-3 -8 -8 -8q-8 -3 -8 6q-4 22 8 45q1 1 18 23q-12 0 -16 -4h-17q-11 0 -16 -8q-16 -16 -22 -3q-2 4 -0.5 15t4.5 12l34 4q33 0 37 4q8 4 11 4q0 -3 6 0h4
q8 2 18 7q2 1 4.5 1.5t4 1t1.5 1.5l11 4l10 2q1 0 3 1t5.5 2.5t5.5 2.5q12 6 17 6q3 0 51 23.5t67 35.5q34 17 68 48q17 15 12 20q-10 16 -67 16q-34 0 -41 7q-19 16 48 49q6 3 13 6l27 8q7 1 20 5.5t15 4.5q8 2 16 2q1 0 0.5 1t-2.5 3q-11 9 1.5 30t43.5 46
q20 15 28.5 18.5t14.5 -1.5q6 -3 0 -11q-3 -7 -2 -7t16 11q26 16 35 11q6 -3 2 -11.5t-12 -11.5q-12 -4 -18 -10l-23 -19q-8 -4 -16 -12q-4 -4 -6 -4q-3 0 -9 -6.5t-6 -9.5q11 -2 23 -2q24 0 26 -6q3 -7 -1.5 -11.5t-12.5 -1.5q-8 4 -18 4q-14 0 -75.5 -17.5t-68.5 -23.5
q-2 -2 -14 -6q-7 -1 -15 -6t-8 -8q0 -2 25 -2q38 0 64 -12t26 -31q0 -6 -15 -22t-34 -29q-4 -2 -9 -5.5t-8 -5.5t-4 -2q-4 -8 -71 -41q-41 -18 -45 -22l-4 -2q-2 0 -2 -2q-19 -5 -21 -6q0 -3 -4 -11l-4 -8q0 3 -29 -24q-44 -41 -53 -72q0 -4 -8 -8zM410 846q4 0 4 4l-2 2
q-2 -2 -4 -2q0 -4 2 -4zM397 836l4 2q0 2 -4 2l-2 -2q0 -4 2 -2zM350 786l10 2q8 2 10.5 3.5t2.5 7.5q0 12 8 20q8 12 6 12q-29 -29 -31 -34z" />
    <glyph glyph-name="percent" unicode="%" horiz-adv-x="608" 
d="M10 483q-3 0 -7 7t-1 10l2 8q0 13 39 37q5 4 24.5 18t26.5 19t16.5 11.5t20.5 13.5t14 9l23 15q4 4 6 4l16 12q2 1 10.5 7.5t10.5 7.5q16 8 43 32l49 35q11 7 8 10q0 2 2 0q3 0 21 11q3 2 7.5 4.5t7 4t3.5 1.5q4 0 4 2t9 6q8 4 4 8q0 2 2 0q3 -1 16.5 7.5t13.5 11.5
q-3 2 -20.5 0.5t-38.5 -6.5t-23 -9q-4 -4 -10 -4q-8 -4 -8 -8q-4 -4 -10 -4q-2 -1 -11 -3.5t-14 -4.5q-30 -6 -37 -6q-18 0 -26 8q-7 7 -4 18q5 24 30 39q15 11 15 12q0 4 4 4q6 0 6 7q6 6 12 6q13 0 17 2q28 4 51 -19q6 -7 11 -8.5t20 0.5q26 0 53 6q35 4 37 6q34 2 96 41
l35 21q19 6 22 -4q5 -14 -6 -25q-27 -20 -33 -20t-18 -6q-32 -16 -35 -17q-9 -3 -27 -12q-2 -2 -14 -6q-46 -20 -94 -53q-20 -16 -35 -25q-42 -28 -51 -37l-125 -86q-81 -54 -90 -61q-15 -15 -27 -19q-1 -1 -9.5 -8.5t-14.5 -13.5q-17 -17 -19 -17zM293 811l10 3q-1 0 -4 1
q-4 2 -10.5 2.5t-11.5 -0.5t-5 -2q0 -7 21 -4zM240 776q17 3 14 6q-1 0 -5.5 1t-6.5 1q-13 3 -15 -4q0 -4 2 -5t11 1zM260 512q-43 -6 -57 3t-2 34q10 17 45 24q12 0 26 9q16 6 29 8q25 7 43 0h6q1 1 3.5 -3t5 -10t3.5 -10q2 -15 -30.5 -33t-71.5 -22zM236 530q25 -3 62 12
q7 3 7 5t2 2q4 -4 29 12q2 1 -4 6l-10 6q-9 0 -13 -2q-6 0 -8 -1.5t0 -4.5q0 -4 -4 -12l-6 -10l-15 8q-12 6 -28 4q-17 -4 -25 -12q-7 -7 -2 -11z" />
    <glyph glyph-name="ampersand" unicode="&#x26;" horiz-adv-x="651" 
d="M-123 365q-3 11 21 65q23 43 88 100q33 29 51 41l14 13q3 5 60 47l43 28l39 25l22 12q4 4 59 35q14 11 31 19l19 10l20 12q20 15 43 25q39 17 39 28q0 9 6 27q7 20 27 43q24 24 37 29q35 18 79 28q26 5 35 -2q6 -4 4.5 -18t-8.5 -23q-20 -24 -65 -47l-39 -22
q-39 -22 -58 -33q-3 -3 -6 -27q0 -26 8 -51q8 -18 17 -55q6 -18 8.5 -22t5.5 -3q5 4 31 10q4 0 33 11q89 24 100 26q33 5 37 6q11 4 33 0q46 -3 59 -26q5 -9 0 -21q-8 -16 -18 -16q-3 0 -9 13.5t-6 19.5q-4 4 -10 6q-10 7 -31 4h-34q-8 0 -33 -4.5t-31 -7.5q-8 -4 -18 -4
l-43 -13q-48 -15 -48 -20q0 -2 -4 -2l-6 -2q0 -6 37 -43q23 -23 19 -27q-9 -9 -27 8q-6 9 -21 19q-10 10 -18 22q-5 13 -10 13l-45 -19q-3 -3 -29 -16q-48 -27 -53 -31q-14 -7 -41 -25q-12 -3 -31 -18q-20 -12 -22 -14q-6 -6 -23 -13l-25 -16q-8 -3 -22 -12q-13 -10 -39 -21
q-5 -2 -11.5 -6t-10.5 -6t-5 -2q-4 -4 -16 -8q-13 -3 -18 -8q-10 -5 -11 -5q-5 0 -20 -6q-20 -8 -27 -8q-2 0 -6.5 -1t-5.5 -1q-28 -16 -49 -16q-10 0 -10 -2q-9 -8 -34 -8.5t-28 6.5zM451 838l26 14l41 22q14 9 14 11q0 4 5 4q6 0 26 14.5t25 22.5q1 3 -0.5 3.5t-9.5 0.5
q-15 0 -48.5 -12.5t-48.5 -24.5q-9 -6 -17.5 -21t-10.5 -26zM-94 381l12 2q37 6 102 27.5t82 33.5q10 5 15 5q10 0 86 43q5 4 30.5 20t30.5 20q10 7 15 7q4 0 8 4q6 6 18 12q3 1 9 5t15.5 9.5t14.5 8.5q23 16 68 36q43 19 43 21q1 0 -1 9t-6 21.5t-8 20.5q-1 5 -3.5 13
t-2.5 10q0 7 -6 16q-6 24 -6 35l-4 22q-7 3 -41 -16q-14 -10 -33 -18l-49 -29l-43 -27q-28 -14 -84 -47l-37 -24q-19 -15 -20 -15l-21 -16q-3 -3 -22 -19t-29 -24q-7 -6 -17 -14t-16 -13t-8 -6q-45 -45 -62 -68t-26 -53z" />
    <glyph glyph-name="quotesingle" unicode="'" horiz-adv-x="262" 
d="M414 1149q-4 2 -4 14l4 8l11 22q3 6 7 15q8 30 6 49q1 1 2 4.5t2 5.5t2 3q16 16 21 -7q5 -20 -6 -51q-8 -23 -23 -53q-14 -21 -22 -10z" />
    <glyph glyph-name="parenleft" unicode="(" horiz-adv-x="798" 
d="M76 279q-4 -2 -6.5 -2.5t-4 2.5t-2.5 9t-2 17q-1 19 5 53.5t14 49.5q16 33 43 71l39 49q13 19 33.5 44.5t35 43t15.5 17.5t3 2l6.5 6.5t8.5 7.5l35 33l35 35q18 19 56.5 52t58.5 48l34 23q57 39 130.5 80t95.5 45l20 4q11 0 8 -8q-3 -10 -16 -15q-72 -29 -129 -67
l-64 -41q-29 -18 -65 -45q-59 -47 -90 -78l-74 -74l-35 -33q-16 -14 -88 -108q-59 -79 -70 -107q-9 -19 -17.5 -55.5t-6.5 -44.5q2 -9 -6 -14z" />
    <glyph glyph-name="parenright" unicode=")" horiz-adv-x="731" 
d="M66 270q-8 0 -5 6q0 3 34.5 27t56.5 35l32 20l25 19l31 22l67 54l129 112q10 17 56 68l38 47l21 29q15 18 45 63q20 45 39 98l12 41q5 9 8 9t9 -4.5t6 -8.5q3 -10 -11 -49l-18 -47q-19 -54 -72 -127q-32 -39 -65 -76q-51 -61 -96 -102q-30 -22 -37 -33q-8 -8 -11 -8
q-2 0 -20 -14q-113 -89 -129 -99q-43 -28 -89.5 -54t-55.5 -28z" />
    <glyph glyph-name="asterisk" unicode="*" horiz-adv-x="856" 
d="M614 1112q9 14 13 14l12 7q10 8 7 9q-1 0 -3 1q-9 3 -7 11t13 13q10 3 10 9t5 6q6 4 8 4t10 -6q16 -16 37 -2q18 13 26 8q11 -11 0 -19q-6 -3 9 -6l26 -6q15 -3 15 -8q0 -6 -17 -6h-59l6 -6q11 -11 -1 -14q-11 -4 -22 5q-15 13 -43 -4q-35 -20 -45 -10z" />
    <glyph glyph-name="plus" unicode="+" horiz-adv-x="356" 
d="M131 590q-6 8 19 47q12 16 8 16q-2 2 -21 2q-35 0 -35 9q0 12 41 12q27 -2 37 8q1 2 4.5 6t8.5 9.5t8 9.5l24 26q5 6 11.5 7t9.5 -5t-1 -13t-22 -28q-22 -22 -18 -26q3 -6 39 -6q7 1 9.5 -2t0.5 -9q0 -6 -14 -8h-2h-27q-14 3 -21 0q-6 -3 -30 -31q-24 -29 -29 -24z" />
    <glyph glyph-name="comma" unicode="," horiz-adv-x="270" 
d="M8 494q-7 -5 -7 -6q-1 1 -1 18q0 13 14.5 31.5t26.5 23.5q9 5 18 1t7 -11q0 -1 -6 -5t-14.5 -10t-12.5 -10q-21 -22 -25 -32z" />
    <glyph glyph-name="hyphen" unicode="-" horiz-adv-x="450" 
d="M313 631q-14 -5 -16 4q-3 8 -14.5 9t-85.5 1q-51 0 -62.5 1.5t-11.5 8.5t10 9q6 2 94 2q76 0 90 -7q10 -5 9 -12.5t-13 -15.5z" />
    <glyph glyph-name="period" unicode="." horiz-adv-x="241" 
d="M4 537q-6 9 -3.5 17t11.5 11q6 3 17 0q17 -3 -2 -26q-14 -17 -23 -2z" />
    <glyph glyph-name="slash" unicode="/" horiz-adv-x="436" 
d="M-203 -25q-6 -3 -14 13q-6 14 -2 20q1 1 10 19q2 2 12.5 15.5t16.5 20.5q18 22 222 360.5t210 352.5q4 4 142 241t143 251q2 6 4.5 12.5t4 10t3.5 8t3 6.5t2 4.5t2 4l2 3t2 2l2 1l3 1.5q6 1 7 -1l3 -3q7 -4 -6 -33q-11 -24 -218 -374t-212 -355q-290 -487 -323 -528
q-11 -19 -11 -29v-6.5t0.5 -5.5t0 -4t-1 -3.5t-2.5 -2.5t-5 -1z" />
    <glyph glyph-name="zero" unicode="0" horiz-adv-x="264" 
d="M8 549q-4 3 -7 14t-1 17q9 32 27 57l20 31q31 45 76.5 86.5t60.5 38.5q8 -1 8 -8.5t-8 -10.5q-22 -7 -57 -40t-61 -70q-39 -56 -41 -77q1 -2 2 -3q7 1 37 26.5t51 46.5l18 17q5 0 19 18l36 41q35 44 35 45q0 2 -8 2q-7 0 -10 6q-3 12 20 27q33 23 39 -2q2 -5 -8.5 -24
t-17.5 -25q-7 -7 -7 -10l-4 -4q-3 0 -6 -7q-1 -2 -41 -47l-22 -22l-15 -15q0 -3 -35 -36t-38 -33l-13 -10q-11 -9 -28.5 -19.5t-20.5 -9.5z" />
    <glyph glyph-name="one" unicode="1" horiz-adv-x="264" 
d="M4 545q-4 0 -4 10q-1 8 42.5 56t72.5 73q19 15 38 33.5t19 21.5q-1 1 -4 0.5t-7 -2.5t-5 -4l-6 -4l-50 -18q-44 -19 -49 -17q-16 9 25 27l6 2l33 12q5 5 57 23l66 26q20 11 22 4q7 -12 -8 -20q-9 -5 -27 -18l-30 -23q-5 -5 -35 -29l-25 -22q-7 -6 -58.5 -60.5
t-51.5 -56.5q0 -3 -8.5 -8.5t-12.5 -5.5z" />
    <glyph glyph-name="two" unicode="2" horiz-adv-x="292" 
d="M6 557q-5 6 -5.5 13.5t5.5 9.5l19 12q27 18 32 22l31 19l27 18l32 21l74 47l25 14q11 8 16.5 15t1.5 10q-2 2 -20 0t-29 -6l-6 -2q-6 -2 -19.5 -14t-17.5 -21q-3 -7 -6.5 -10.5t-6.5 -3.5t-5 4q-2 3 5 20.5t13 24.5q11 15 53 26q65 18 68 -16q0 -13 -10 -23
q-14 -12 -99 -63q-60 -36 -82 -51l-20 -13q-3 0 -19 -12q-17 -13 -26 -18q-12 -6 4 -5q7 1 18 3q4 2 13 3.5t21.5 3.5t19.5 3l65 6q57 7 70 0q4 -4 4 -10q0 -4 -2 -5t-12 1h-29q-13 -1 -52.5 -6t-43.5 -5l-25 -6q-7 0 -31 -6q-41 -10 -51 0z" />
    <glyph glyph-name="three" unicode="3" horiz-adv-x="247" 
d="M14 549l-8 6q-12 13 -2 26.5t29 8.5q10 -3 33 10q6 2 40 23q12 10 31 31.5t19 25.5q-3 12 -66 6l-41 -6l-2 10q0 9 19 21q6 4 61 30l41 21h-45q-41 -2 -43 2q0 8 2 12q4 8 141 12q21 0 25 -14q0 -6 -6 -11t-13 -5q-13 -2 -61.5 -20.5t-52.5 -24.5q-2 -2 2 -2h24
q37 -3 37 -23q3 -18 -24 -53q-11 -12 -35.5 -30.5t-30.5 -18.5q-1 0 -7.5 -3.5t-13.5 -7t-10 -4.5q-6 -2 -26 -12z" />
    <glyph glyph-name="four" unicode="4" horiz-adv-x="313" 
d="M8 549q-8 8 4 31q19 19 37 26l27 19q17 12 17 14q0 1 -5 2q-27 4 -65 -4q-21 -6 -23 4q0 15 35 33q26 12 84.5 46t66.5 42q4 4 11 -2l8 -4l-6 -8q-10 -10 -109 -64l-31 -16l-16 -9h23q24 2 45 0q12 -2 22 4t33 27l29 25q1 1 6 4.5t13.5 9.5t16.5 12q42 30 70 41l12 2v-6
q-3 -11 -20 -18l-31 -21l-16 -12q-16 -7 -60 -45q-22 -19 -22 -22.5t22 -6.5q12 0 20.5 -5t6.5 -11q-1 -4 -7.5 -5.5t-10.5 1.5q-3 2 -29 6q-22 2 -41 -6q-4 -3 -16.5 -10.5t-16.5 -10.5q-35 -25 -49 -32q-7 -4 -14 -17q-12 -23 -21 -14z" />
    <glyph glyph-name="five" unicode="5" horiz-adv-x="360" 
d="M0 547q-20 -11 -20 4q0 7 10 13t63 28q20 9 48.5 27.5t39.5 29.5l6 6l-8 2q-10 5 -26 2q-18 -1 -24.5 1t-4.5 10q2 12 92 102q3 3 13.5 6t28 7t32 7t37 7t32.5 6q6 2 14.5 -10.5t4.5 -16.5q-15 -15 -25 -2q-8 8 -10 6l-106 -24q-16 -7 -38 -34l-22 -28l-14 -12l16 -4
q27 -9 33 -18q0 -7 -12.5 -24t-20.5 -20q-27 -19 -56 -34t-44.5 -21t-18.5 -6q-15 -5 -20 -10z" />
    <glyph glyph-name="six" unicode="6" horiz-adv-x="311" 
d="M39 557q-39 -3 -39 14q-1 9 18.5 32t44.5 42q7 3 107 78q21 16 53.5 35t46.5 24q33 11 39 -2q7 -7 -12 -13q-3 0 -6 -1q-19 -3 -51 -19.5t-54 -33.5l-59 -43q-11 -7 -23 -15.5t-19.5 -14.5t-6.5 -7l37 10q34 8 46.5 7.5t18.5 -9.5q21 -29 -37 -49q-13 -3 -18 -8l-8 -4
q-5 0 -27 -11q-30 -10 -51 -12zM98 596q2 -2 14 2t19 8l6 2q6 2 12 5.5t10 7t3 4.5q-4 11 -37 0l-31 -9q-12 -3 -14 -6q-1 -2 1 -2.5t7 0.5q21 2 21 -4q0 -2 -5 -4zM37 573q6 1 19 5.5t16 5.5l16 8h-16q-23 -3 -23 12l2 6l-16 -12q-23 -25 -13 -26q4 -1 15 1z" />
    <glyph glyph-name="seven" unicode="7" horiz-adv-x="331" 
d="M10 553q-26 6 25 45q32 24 43 35q16 16 31 22q7 4 11.5 7.5t6 6t0.5 3.5q-2 2 -16 -2.5t-15 -7.5q-3 -3 -8.5 -3t-5.5 3q-3 17 11.5 24t53.5 10l25 2l43 33q46 36 53 43l11 12h-11l-24 -6q-16 -8 -27 -8l-35 -10q-37 -10 -37 0q0 11 35 18q23 4 27 8q8 5 16 5q5 1 25 7
t31 9l38 12l7 -6q17 -14 -11 -33l-20 -16q-7 -7 -19 -16l-22 -19q-9 -11 -25 -18q-7 -3 -9 -6t1.5 -4.5t11.5 -0.5q19 4 19 0h14q37 0 41 -2q8 -5 -6 -10q-4 -1 -10 -2l-13 -2q-22 -2 -49 -6q-39 -3 -54.5 -8t-37.5 -23q-12 -12 -18 -12l-27 -23l-37 -32q-14 -10 -14 -15
q-1 -4 -12.5 -10t-16.5 -4z" />
    <glyph glyph-name="eight" unicode="8" horiz-adv-x="382" 
d="M25 561q-12 -3 -25 6l2 13q8 17 18 24l17 17q4 4 24.5 19t22.5 15q1 0 3.5 2t6.5 5t6 4q14 10 29 14q19 4 25 10l18 10l10 7l-10 4q-27 7 -27 18q0 6 4 8.5t23 10.5l33 14q32 13 51 16q25 8 31 2q11 -11 2 -20q-2 -3 1.5 -2.5t16.5 4.5q22 8 25 10q4 4 4 2q6 0 14 4
q12 5 23 -2l10 -6l-4 -12q-12 -37 -35 -17l-8 7l-37 -15l-41 -14q-10 0 0 -14q11 -11 6 -23q-3 -6 -19.5 -20t-23.5 -17l-22 -10q-11 -8 -19 -8q-6 0 -6 -2q1 -1 -4 -4.5t-14 -7t-17 -5.5l-16 -8q-17 -12 -98 -39zM195 723q18 -4 28 2q13 8 27 12q28 11 28 16q0 1 -2 1
q-6 0 -6 2t-6.5 2t-15 -1.5t-15.5 -4.5l-34 -13l-25 -10q0 -2 21 -6zM25 584q1 -5 48.5 15t96.5 44t53 31l8 6q4 1 8.5 6.5t2.5 7.5q-4 3 -18.5 1.5t-24.5 -5.5q-12 -6 -23 -6l-8 -4q-4 -4 -27 -14q-22 -11 -26 -15q-2 -2 -9 -2q-12 -6 -16 -10q-8 -8 -12 -8q-2 0 -6 -4
l-25 -25z" />
    <glyph glyph-name="nine" unicode="9" horiz-adv-x="358" 
d="M20 559q-9 -12 -15.5 -10t-4.5 16q0 11 18 21l23 14l18 8l17 8q10 7 20 11l21 12q8 2 16 6l19 10q13 6 59 33.5t49 30.5l4 3q-1 0 -10 -1q-78 -15 -94 -2q-4 2 -2 14q3 10 6 10h4q0 5 38.5 18t69.5 19q61 13 70 -8q0 -2 6 -8q5 -1 5.5 -7.5t-3 -12.5t-8.5 -5q-9 0 -20 -8
q-12 -12 -21 -12l-55 -31q-39 -24 -107 -57l-47 -25q-26 -16 -33 -16q-1 0 -3 -1.5t-6 -4t-7 -4.5l-14 -11q-3 0 -13 -10zM217 733q45 6 70 15q30 11 30 14l-8 1q-8 1 -14 1q-54 -5 -105 -29l-7 -3q3 -1 34 1z" />
    <glyph glyph-name="colon" unicode=":" horiz-adv-x="290" 
d="M84 680q-9 9 2 16q2 2 6 13q4 6 14 6q15 -3 19.5 -11t-4.5 -14q-8 -5 -21 -9t-16 -1zM4 537q-6 9 -3.5 17t11.5 11q6 3 17 0q17 -3 -2 -26q-14 -17 -23 -2z" />
    <glyph glyph-name="semicolon" unicode=";" horiz-adv-x="151" 
d="M90 680q-9 9 2 16q2 2 6 13q4 6 15 6q15 -3 19 -11t-5 -14q-8 -5 -21 -9t-16 -1zM-8 500q-2 -1 -2 1q-1 1 1 9q5 14 7 27q4 18 6.5 21.5t11.5 6.5q6 3 17 0q10 -2 -13 -26q-3 -4 -9 -13.5t-11 -17t-8 -8.5z" />
    <glyph glyph-name="less" unicode="&#x3c;" horiz-adv-x="409" 
d="M297 567q-5 -3 -12 11l-9 10q-4 -4 -4 0t-12 8q-2 2 -6 4t-6.5 3.5t-3.5 2.5q-4 4 -13 4q-4 0 -16 6q-10 5 -16 5q-10 0 -19 6l-16 4q-6 0 -10 4q-9 5 -23 8q-26 3 -29 16q-3 7 7 12.5t45 16.5q29 9 65 23q39 16 45 4q4 -7 -4 -12q-11 -6 -84 -31q-7 -2 -15 -4.5
t-12.5 -4t-5.5 -1.5l11 -5q85 -30 104 -41l10 -4q3 0 21 -13.5t18 -16.5q0 -4 -3.5 -9.5t-6.5 -5.5z" />
    <glyph glyph-name="equal" unicode="=" horiz-adv-x="385" 
d="M279 653q-1 0 -4 1.5t-8 3.5t-9 4q-12 6 -22 6h-27q-17 0 -41 -4q-21 0 -23 2q-6 6 5 12q9 6 63 6t59 -6q4 -4 7 0q0 -4 2 -6q3 -3 2.5 -10.5t-4.5 -8.5zM281 606q-7 -3 -43 15q-4 4 -11 4q-2 -2 -24 2q-16 4 -41 1t-41 -10q-12 -7 -17 -2q-4 4 0 13q2 8 17 14q6 0 24 6
q12 4 13 4q3 2 46 -6.5t44 -11.5q0 -2 4 -2q5 0 14 -6t15 -6q3 0 3 -6.5t-3 -8.5z" />
    <glyph glyph-name="greater" unicode="&#x3e;" horiz-adv-x="382" 
d="M117 584q-9 -1 -12.5 6.5t-1 17t11.5 13.5q18 6 32 12l99 33q0 2 -31 14q-27 9 -53 22q-18 11 -23 11q-3 0 -6 10q-9 21 29 0q40 -20 55 -25q61 -21 64 -32q3 -6 -4 -10.5t-27 -10.5q-41 -11 -107 -37q-16 -5 -16 -14q-3 -8 -10 -10z" />
    <glyph glyph-name="question" unicode="?" horiz-adv-x="509" 
d="M150 588q-7 10 -2.5 17t34.5 34q17 15 27 25q30 26 55 44t61 39.5t62 38.5q11 6 33.5 23t34.5 25q19 23 6 30q-18 10 -43 10q-18 0 -43 -10l-25 -12q-5 0 -10 -10q-2 -1 -12 -11l-2 -6q-2 -2 -2 -6q0 -9 -9 -6l-8 2q-5 3 -2 13.5t10 19.5q10 15 39 29l41 16q25 9 54 1.5
t38 -24.5q9 -19 -16 -47q-3 -3 -45 -30.5t-43 -28.5q-68 -33 -137 -92q-17 -13 -44.5 -37t-27.5 -27q-4 -4 -4 -6q-3 -1 -14 -12q-1 0 -3 -1t-3 -1zM70 475q-4 5 -7 13.5t-2 13.5q4 7 17 2q8 0 8 -12q0 -14 -6 -17q-5 -5 -10 0z" />
    <glyph glyph-name="at" unicode="@" horiz-adv-x="446" 
d="M-37 399q-7 0 -14 15q-7 10 -8.5 16.5t0.5 26.5q4 60 22 94q21 47 31 57l8 13q0 1 20.5 20.5t26.5 24.5l49 32q6 4 13 11l6 4q10 3 51 26q3 3 35 19l30 14q3 4 35 17.5t54 19.5q43 10 98 14q73 4 90 -6q21 -9 18 -55q-3 -24 -14 -37q-21 -35 -63 -66q-6 -5 -27 -26
q-3 -11 -23 -21t-28 -18q-25 -17 -70.5 -31t-56.5 -8q-7 4 -10 23.5t2 31.5q2 7 0 7t-7 -3l-24 -12q-21 -16 -35 -18q-10 0 -10 10q-2 23 35 63q40 37 65 37q12 0 17 -8q4 -6 4.5 -21t-2.5 -22q-30 -61 -11 -61q18 0 73 27t60 38q0 4 17 17l16 12l4 4q6 0 29 25.5t29 37.5
t6 23q0 9 -6 17.5t-13 9.5q-2 1 -5 2t-7 2t-6 2q-10 3 -48 3t-57 -3q-16 -4 -26 -4q-3 0 -14 -3t-17 -4q-18 -6 -94.5 -44t-79.5 -42q-3 -6 -14 -10q-8 -2 -13 -8q-7 0 -10 -6q-4 0 -14 -10q-3 -2 -8.5 -6t-9 -6.5t-5.5 -4.5q-17 -14 -38 -40.5t-21 -35.5q0 -4 -14 -32
q-2 -5 -11 -35q-14 -56 -2 -78q4 -8 19 -8q77 11 129 24q1 0 14 5q1 0 47 8q42 9 47 10q35 3 41 0q7 -5 -10 -10q-10 -3 -33 -8l-39 -9q-2 -2 -12 -2t-14 -4l-13 -6q-33 -5 -38 -10q-5 0 -13 -4q-35 -4 -41 -8q-8 -5 -42.5 -8.5t-49.5 -0.5zM190 616l3 2q2 1 4 3q2 0 4 2
q2 0 4 2q2 0 6 4q2 0 6 4q4 0 8 4q2 0 6 4q23 13 17 23q-6 9 -25 -7l-4 -2l-8 -6l-6 -6v-2l-8 -8q0 -2 -2 -2v-2q-2 -2 -2 -4q-3 0 -3 -2l-2 -5q0 -2 2 -2z" />
    <glyph glyph-name="A" unicode="A" horiz-adv-x="1808" 
d="M219 16l-14 9l4 22q6 41 33 47q9 4 18 -2q7 -7 -2 -33q-3 -8 3 -9q4 -1 26 -1q26 -2 59 6l49 15q44 11 92 28l25 8l23 11l32 14q4 1 58 27q45 25 45 22l30 17q28 17 31 14q3 0 12 12l21 19l20 12q7 10 19 10q7 2 20 15q10 10 17 10q6 0 14 8l37 29q4 4 11 10.5t10 9.5
t3 4l15 8q11 3 47 31q48 37 123 88q54 40 57 43l8 6q1 0 15 9l45 30q20 15 44 32t45 32t23 16q10 10 15 10t18 13l37 26q27 18 45 33l35 27q-4 0 -12 -1.5t-20.5 -3.5t-24.5 -4l-76 -10q-105 -16 -148 -35q-39 -15 -45 5v10q3 3 52.5 15t66.5 13l41 9q18 6 68 10
q103 14 108 16h12q11 -5 29 8l35 27q26 23 26 14q0 -5 -32 -30q-13 -10 -8 -13q1 -1 4 0q4 4 55 4l129 11q6 3 235 237q37 37 37 41l2 2q4 0 31 27q63 63 137 129q74 70 68 68q-3 0 -19 -13l-100 -69q-13 -6 -16 -13q-2 -1 -5 -3.5t-8 -6.5t-8 -6l-18 -12q-3 -4 -17 -12.5
t-20 -10.5q-6 -3 -6 -6l-6 -6q-5 -2 -23.5 -15t-25.5 -20q-12 -6 -15 -6q-6 -3 -6 -6q-4 -4 -10 -6q-2 -2 -10 -8t-11 -9q-12 -12 -18 -12q-4 0 -8 -8q-8 -8 -9 -8q-2 0 -53 -39l-30 -23q-1 -1 -12.5 -11t-16.5 -16q-17 -14 -23 -14t-22 -12q-17 -17 -35 -29
q-20 -13 -20 -20q0 -4 -5 -4q-3 0 -39 -29q-8 -8 -12 -8t-12 -4q-12 -9 -12 0q0 2 20 18l27 21q6 6 8 6t14 8q39 35 45 35q4 0 4 2q15 10 29 22l55 41l15 13l24 18l35 27l19 12l14 8q33 33 84 66l20 18q1 1 15 8l16 10l53 46l41 28q31 23 31 27q4 4 6 2q2 0 2 2q0 4 4 4
q3 0 11 4l14 12l20 13l74 53q27 19 47 39l21 14q2 2 12 17q3 9 10 16q10 10 23 2q10 -15 0 -35q-3 -8 -28 -33t-38 -34q-9 -6 -100 -86l-82 -72l-31 -29q-65 -56 -223 -225l-102 -102l-27 -31h29l108 2q98 4 111 6q16 2 94 8q42 2 51 -4q19 -11 0 -25q-12 -10 -33 -12
q-14 -2 -22 6q-8 6 -49 4q-110 -4 -193 -6q-68 0 -96 -4l-25 -2l-26 -28l-35 -35l-29 -35l-47 -53l-84 -99l-69 -80l-58 -69q-8 -8 -21.5 -31.5t-13.5 -28.5q0 -4 -4 -13t-6 -9l-10 4q-10 3 -10 12t9.5 29t18.5 29l17 22q13 18 16 19l25 28q3 5 34 43q4 3 72 80l21 25
l86 100l45 47l32 37q1 2 -5 3q-11 1 -62 -3l-72 -4q-54 -4 -69 -14q-9 -9 -25 -17l-117 -86q-4 -2 -10 -2q-3 2 -13 -5t-10 -11q0 -3 -12 -13.5t-26 -19.5l-117 -82l-252 -184l-25 -17l-39 -28l-112 -80q-28 -20 -64 -37q-15 -8 -43 -27q-18 -12 -128.5 -57.5t-131.5 -48.5
q-11 0 -31 -8q-44 -15 -84.5 -18.5t-58.5 5.5z" />
    <glyph glyph-name="B" unicode="B" horiz-adv-x="1411" 
d="M408 123q-126 0 -158 16q-13 7 -24 18.5t-11 16.5q0 6 -4 2l-4 13q-2 16 -2 34q0 39 26 76q38 57 127 139l58 49q19 19 67 56l74 55q15 11 63.5 41.5t49.5 30.5l8 6q15 10 84.5 45t89.5 43l59 22l39 17l8 4l23 6q6 2 18 8q5 5 7 2q0 -1 11 2t30 9t24 8l8 4l21 6
q13 3 24.5 13t61.5 61q88 88 92 98q6 2 10 10q11 7 29 29l31 33q30 32 53 55q73 73 67 76q-3 4 -0.5 9.5t12 12t25.5 13.5q21 9 51 43q3 8 9 8q6 4 12 10l65 59l-10 2q-8 4 -41 0l-39 -2l-491 -8l-82 -4q-15 -4 -23 0q-10 0 -16 -2q-18 -5 -84 -10q-23 0 -31 -4
q-2 0 -8.5 -1t-17 -2.5t-19.5 -2.5q-43 -4 -59 -9l-70 -12q-75 -15 -125 -39q-20 -10 -26 -10q-3 0 -31.5 -16.5t-36.5 -22.5q-11 -11 -14 -22t-5 -13.5t-7 0.5q-6 2 -6 17.5t6 21.5q8 11 42.5 31.5t65.5 32.5q14 7 52.5 18.5t51.5 13.5l21 4q91 19 262 37q72 8 180 13l64 2
l368 6l72 4q28 0 68 4l41 4q10 3 14 -12q0 -18 -27 -27q-10 -3 -24 -14l-12 -12q-1 0 -4 -2.5t-8 -7t-9 -7.5l-27 -24q-11 -8 -8 -11q29 7 39 13l51 14l7 2l2 2h12l37 8q64 12 86 6q10 -3 12.5 -10t-3 -14.5t-17.5 -11.5q-16 -4 -65.5 -29.5t-61.5 -34.5q-6 -6 -9 -6
t-38.5 -16.5t-41.5 -20.5q-8 -4 -10 -4h-2q0 -4 -6 -4q-2 0 -10 -4q-3 -3 -2.5 -3.5t8.5 -2.5q21 -7 29 -11q16 -8 22 -22q12 -24 4.5 -54.5t-39.5 -84.5q-31 -49 -28 -54q0 -4 -2 -4q-4 0 -4 -2q-4 -4 2 -4q4 4 34 4q23 2 54.5 3.5t48 2.5t20.5 2q16 4 75 6.5t73 0.5
q8 -3 12.5 -10t1.5 -11q-8 -12 -20 -20q-5 -3 -11 0.5t-6 9.5t-14 6q-14 1 -65.5 0.5t-73.5 -2.5q-1 0 -80 -6q-12 0 -47 -6q-14 -3 -20 -6.5t-17 -16.5q-7 -11 -25 -34t-22 -27l-6 -6q-1 -2 -58 -68q-120 -129 -229 -215l-37 -29l-12 -10l-7 -6l-18 -12l-39 -29
q-26 -19 -26 -21q-2 -4 -7 -4q-1 0 -26 -18l-29 -21l-16 -12l-27 -18q-13 -7 -29.5 -17t-27.5 -17.5t-11 -8.5q-1 -3 -27 -20t-28 -17l-16 -12q-19 -14 -27 -17l-16 -10q-7 -7 -21 -14l-22 -13l-25 -14l-33 -18q-15 -8 -55.5 -25t-60.5 -23l-31 -8q-40 -14 -104 -14z
M1452 1159q6 0 51 15q4 2 26.5 13t50 24t44.5 22q11 4 22 9.5t16.5 8t6.5 2.5q5 0 57 33l39 19l33 18h-16l-21 -4l-24 -2l-64 -17l-26 -8q-59 -17 -80 -28l-19 -9q-4 0 -16 -12l-16 -18q-36 -34 -51.5 -50t-12.5 -16zM1186 879l18 2q31 4 39 8l10 2l144 27l47 8l67 10
q5 2 15.5 16t17.5 29l17 33q12 24 12 26q0 3 4 7q4 0 4 4t8 20q13 26 13 35l2 12q0 16 -15 31q-9 6 -39 6t-45 -6l-12 -4q-12 -1 -48.5 -16.5t-39.5 -20.5q0 -4 -6 -4q-10 0 -60 -57q-12 -15 -71.5 -77.5t-73.5 -74.5q-10 -10 -10 -12q-5 -7 2 -4zM444 139l31 6q54 9 125 39
l16 9q2 0 12.5 4.5t10.5 5.5l33 16q32 16 35 19q20 20 30 20q2 0 2 2q0 4 6 4l11 6l26 17l23 16l47 31l27 18l22 15q1 0 4.5 2t10 6.5t12.5 7.5l88 63l45 31l41 33l22 18q26 16 88 70l13 12q5 0 94 91.5t100 109.5l8 8l54 66l8 12l10 14q2 2 2 7q-3 1 -88 -13l-45 -6
l-72 -14q-49 -8 -63 -15q-4 -4 -35 -10l-37 -10q-11 -3 -25 -16t-57 -62q-32 -34 -71 -86q-27 -33 -45 -53l-134 -146l-16 -16q-14 -14 -41 -45q-9 -9 -18 -4t-9 20q0 6 31 37q29 29 29 35q3 -1 16.5 13t46.5 51l50 51q27 27 45 51l14 14q0 1 12 17l12 16l19 23l43 47
q13 14 19 22t5 8q0 1 -3.5 1t-6.5 -1l-22 -6l-45 -14q-12 -3 -48 -15.5t-40 -15.5q-2 -2 -9 -2t-59 -26l-10 -5q-3 0 -58 -24q-86 -47 -88 -49q-2 -1 -4 -2.5t-3.5 -2.5t-2.5 -1q-6 0 -26 -17l-27 -16q-3 0 -57 -38t-64 -46l-14 -12q-3 -2 -74 -58q-64 -51 -64 -57
q0 -4 -4 -4q-3 0 -46.5 -45.5t-53.5 -59.5q-40 -53 -37 -92q0 -33 19 -55q11 -15 49 -23q19 -3 80 -4t75 2z" />
    <glyph glyph-name="C" unicode="C" horiz-adv-x="1189" 
d="M225 90q-18 18 -20 53q-2 20 4.5 60t13.5 59l6 19q3 9 31 67q6 13 30 59.5t27 51.5l17 24q2 4 6 9.5t6 9t2 4.5l2 6q3 2 15 19t20 34l25 37q57 81 57 88q0 1 12 17l10 14q0 3 11 14q8 12 8 15q0 2 12 14l12 16q0 14 115 156q16 17 27 30t16 18.5t12 12.5l17 17l31 33
l34 34l154 142l10 8l23 20l33 27q20 16 24 16q6 3 6 6q0 4 19 15l20 12l19 14l18 13q1 3 36 23t38 20q2 0 6 4q8 8 45 19t61 12h17q2 1 19.5 0.5t23.5 -2.5q7 -1 12.5 -16t5.5 -28q0 -11 -13.5 -48t-23.5 -56q-4 -9 -20 -31q-17 -17 -17 -30l-4 -7q-6 -6 -13 -3.5t-9 10.5
q0 8 5 21.5t11 17.5q18 14 35 47q35 71 25 90q-3 3 -15.5 8.5t-19.5 5.5q-9 1 -29.5 0.5t-25.5 -2.5l-9 -2q-3 0 -45 -14q-43 -15 -108 -64q-23 -16 -25 -14q-2 0 -6 -4l-55 -45q-62 -50 -62 -54l-2 -2q-8 0 -125 -114q-64 -62 -118 -121l-39 -45l-37 -47l-17 -21
q-4 -4 -120 -172l-58 -88q-32 -48 -43 -70l-8 -12q-29 -33 -94 -160l-15 -30q-13 -28 -26 -62q-23 -67 -23 -118q2 -24 11 -37.5t24 -12.5q31 5 51 17l11 4q6 0 135 72q88 55 102 65l72 47l31 23q25 18 26 18q3 0 51 37l13 8q10 7 20 17q21 15 27 12q4 -4 4 2q2 2 4 2
q12 0 -14 -17q-5 -3 -11 -6q-35 -24 -43 -34q-1 -1 -9 -7t-13 -8q-21 -13 -23 -16l-8 -6q-3 0 -17.5 -9.5t-17.5 -13.5l-18 -12q-12 -8 -12 -12q-3 -2 -5 -2q-3 0 -13.5 -8t-12.5 -11q-4 -4 -8 -6q-4 0 -31 -18l-37 -25q-64 -41 -65 -41q-5 0 -5 -2q-8 -6 -16 -10
q-16 -12 -22 -15q-3 -3 -21 -12l-16 -8q0 -3 -31 -19q-50 -24 -74.5 -27t-38.5 11zM842 444q-23 -8 30 31q8 6 17 12l33 23l28 22q15 8 15 13q2 2 6 2q7 0 16 12l29 23q17 10 51 41q13 12 15.5 16t2.5 16q4 20 5 21q9 9 20 -2q5 -9 2 -27.5t-10 -25.5q-6 -9 -12 -9
q-5 3 -15 -4q-2 -1 -4 -2.5t-3.5 -2.5t-2.5 -1q-2 0 -6 -4q-4 -8 -19 -12q-13 -8 -16 -15q0 -5 -10 -10t-17 -12l-10 -6q-5 0 -35 -27l-10 -8q-6 0 -31 -21l-6 -4q-2 0 -14 -8l-14 -8q-5 0 -5 -4q0 -2 -12 -10t-18 -9z" />
    <glyph glyph-name="D" unicode="D" horiz-adv-x="1546" 
d="M481 6q-25 0 -39 6q-18 7 -28 17l-15 12q-3 1 -15.5 22.5t-12.5 24.5l-4 16q-7 11 -11 41q-3 24 -1.5 32.5t10.5 27.5l8 18l18 33l12 20l19 37q55 88 115 154l24 29q12 18 77 71t110 82q32 19 36 35l11 12q6 6 6 9q0 5 6 8l72 84q6 6 6 12q-2 0 -1 1q2 0 3 -1q6 4 12 10
q57 68 62 70l30 33l2 2q-4 0 -4 2t4 2q3 0 10.5 8.5t6.5 11.5q0 2 4 2q3 -3 8 6l39 45l2 7l10 10q8 8 8 12l2 2q5 0 9 8l8 11l4 6q0 4 4 4q4 4 4 6t4 6q9 9 10 12q10 16 23 25q10 10 24 28t13 19q0 4 4 4q3 -1 17.5 16t17.5 25q3 6 26 29q26 19 41 41l25 26q6 9 6 13
q2 2 4 2t6 4q4 8 6 10l19 21q18 20 49 51q12 8 12 14q3 6 4 6q0 -3 5 1q1 1 2 3q3 4 28 29l15 12q8 11 2 11q-4 4 -23 0l-145 -5l-68 -4l-25 -2l-71 -8l-39 -6l-21 -2l-127 -21q-21 -6 -34 -6q-11 0 -13 -2l-20 -4q-6 0 -15 -1l-8 -1q-7 -7 -61 -12l-62 -12
q-62 -11 -172 -38t-127 -36q-8 -4 -16 -4l-10 -4l-25 -11q-75 -31 -82 -36l-20 -15q-42 -21 -62 -45q-4 -4 -8 -16q-3 -16 -14 -13q-5 3 -1 17.5t11 23.5q13 16 47 39l21 13l49 24q12 7 59 24t76 25l41 13q106 29 149 34l191 37l166 29q80 14 82 14l22 2l60 9q79 10 127 12
l157 6q4 1 9 1.5t8 1t4 1.5l12 2l12 4q8 3 17 -2q11 -7 -4 -16l-21 -23q-17 -21 -26 -28l-13 -13l-8 -8q-7 -3 -14 -14q-21 -28 -47 -51q-11 -11 -11 -15q2 0 1 -1t-3 -1t-12.5 -13.5t-9.5 -14.5l18 8l29 16q9 3 14 8h2q0 -3 3 0q0 1 1 2q5 7 68 33l43 19q8 4 57.5 20
t57.5 18l12 5l37 8q86 17 146.5 12t82.5 -33q17 -21 -4 -94q-6 -23 -22.5 -67t-24.5 -58q-3 -5 -6 -11t-4 -7q0 -4 -2 -4q-3 0 -21 -25q-5 -8 -12 -19t-8 -12l-13 -14l-10 -14q-3 -5 -14.5 -21t-21 -29t-9.5 -14l-6 -6l-14 -20l-27 -35l-16 -23l-15 -16l-16 -19l-6 -6
q-4 0 -4 -2q0 -7 -43 -55l-29 -31l-16 -16q-7 -4 -45 -49l-19 -17l-31 -30l-233 -222l-18 -16l-43 -43l-27 -25l-47 -41q-111 -99 -189 -153l-59 -43l-18 -12l-33 -21q-117 -74 -199 -96l-12 -4q-2 -2 -10 -2q-2 0 -11 -3l-12 -4q-29 -11 -78 -14zM459 23q13 -3 48 1.5
t60 12.5l27 8l43 16q22 11 29 11q4 0 4 2l12 8q28 11 84.5 44.5t79.5 53.5l24 19q35 21 109 82q72 61 74 63l6 6q0 -3 20 17q23 19 23 20q4 6 10 10l27 25l26 22l54 54q8 8 8 10q2 4 8 8q1 1 18 17t31 30l31 27l18 16l21 21q20 20 20 22t2 2l31 27q25 29 31 29q2 0 2 2
t12 14l59 59l39 41l21 25l2 2q5 2 12 11.5t6 12.5q-3 3 2 3q4 -2 6 2l23 26q18 22 18 27q3 2 5 2t6 4q0 2 12 18q10 10 10 15q2 4 6 6q7 3 4 6v2q1 -1 13 12t14 17l23 30q41 52 32 48q-2 0 4 6q21 21 54 71l16 23l23 39l8 20l6 15q4 5 16.5 42t14.5 46l2 18q4 12 2 25
t-10 18q-5 5 -21 10q-13 6 -54 8t-71 -1q-83 -14 -100 -21l-29 -8q-38 -12 -158 -64l-22 -12q-6 0 -2 -4q0 -2 -2 0q-6 0 -10 -4q-12 -6 -13 -6q-9 0 -14 -8l-23 -15q-3 -1 -12 -6.5t-12 -7.5q-18 -14 -37 -23q-18 -11 -27 -20l-12 -12l-37 -41q-6 -6 -25.5 -29.5
t-19.5 -24.5l-8 -8l-10 -12l-68 -82l-24 -29l-13 -16q-12 -12 -12 -16q0 -2 -2 -2q-1 0 -2 -1.5t-2.5 -3.5t-3.5 -4l-21 -22l-33 -39l-12 -12q-13 -13 -22 -25l-17 -18l-18 -21l-43 -47l-4 -6q-4 -8 -31 -35q-5 -3 -2.5 -4.5t8.5 2.5l10 6q7 1 22 10t17 11t4 2l7 2
q6 6 18 12l27 16l24 13l37 22l41 25l123 76l51 28l29 17l24 12q4 0 4 2q1 1 23 12l78 35q17 7 20 12q4 4 4 0q1 -1 5 0t14 4q12 9 20 9l21 6q20 8 24 8q50 13 54 14q3 0 8.5 1t13.5 2.5t14 2.5q42 3 45 -14q1 -6 -4 -19t-10 -16q-6 -3 -11 -0.5t-5 8.5q0 9 -4 13q-9 6 -25 2
l-29 -2q-44 -7 -59 -15q-4 -4 -14 -4q-12 -2 -51 -18q-28 -12 -35 -12q-11 -4 -19 -9q-8 -4 -10 -4q-1 0 -2.5 -1t-3.5 -2.5t-4 -2.5t-4 -2.5t-3.5 -2.5t-2.5 -1q-5 0 -21 -8q-17 -10 -20 -10q-11 -5 -21 -11q-17 -10 -20 -10q-2 0 -4 -1t-3 -1q0 -3 -8 -6l-10 -6l-102 -60
q-20 -12 -21 -12q0 -4 -4 -4q-1 1 -12 -4q-32 -27 -45 -31q-43 -22 -62 -35l-39 -24l-32 -19l-13 -8q-79 -40 -114 -84l-27 -35l-10 -16l-10 -12q-34 -38 -52 -66l-32 -41q-79 -97 -93 -125q-1 -2 -7 -11.5t-9 -14.5q-10 -15 -18 -15q-6 0 -7 2.5t0 12.5q1 21 26.5 58
t96.5 124l23 29l14 20l31 39l16 20q4 4 4 7v2q0 2 -2 0l-2 -2q-9 -7 -18 -15l-14 -8q-3 0 -8 -4.5t-5 -7.5q-2 -2 -4 -2q-5 0 -49.5 -38t-44.5 -42t-8 -8l-43 -43q0 -4 -11 -15q-18 -18 -58.5 -75.5t-51.5 -79.5l-10 -19l-11 -22l-14 -27q-31 -49 -10 -104q14 -35 14 -39
q0 -2 4 -6q8 -4 11 -13q4 -9 21.5 -20t31.5 -14z" />
    <glyph glyph-name="E" unicode="E" horiz-adv-x="1390" 
d="M352 -2q-32 14 -49 27l-12 8q-2 0 -10.5 11t-12.5 19q-12 28 -13 70t9 76q6 19 21 53.5t22 46.5l33 53q48 80 57 87l29 40l29 33q19 25 76.5 89t70.5 75l29 29q40 40 69 67l25 23l25 24l41 35l47 39l39 31l28 20l94 66l27 16l123 72q52 27 53 27l60 26l38 17l21 8l6 2
q-2 4 -8 10q-15 18 -2 51q4 10 30 39t31 29t13 8q1 3 3 5t4 2l1 1q1 0 4 2.5t9 6t11 6.5l29 20q3 2 10.5 5t10.5 5q5 1 12 6.5t10 6.5q3 2 12 5t13 5l6 2h-17q-114 -6 -178 -6q-127 -5 -160 -8l-112 -7l-60 -4q0 -2 -10 -2q-22 4 -143 -6l-49 -6q-67 -6 -74 -8l-68 -10
q-49 -7 -82 -15l-43 -6l-28 -6l-47 -12q-47 -14 -49 -15q-18 -6 -23 -6l-16 -6l-23 -10q-29 -11 -71.5 -36t-45.5 -34q-2 -2 -2 -20q0 -17 -6 -17q-8 -1 -12 7t-3 20.5t7 23.5q8 13 14 18.5t25 16.5q71 38 129 58q34 15 131 34l43 9l70 12l73 10q26 3 70 6l29 4l198 15
q39 5 320 16q61 0 172 6l94 6h14q2 -2 2 -6q0 -14 -12 -16q-4 -4 -9 -6q-7 -3 -22 -11l-26 -6l-31 -8l-33 -18q-14 -7 -41 -25l-24 -16q-31 -22 -53.5 -54.5t-14.5 -44.5q6 -9 15 -11t34 -1q10 1 16 1t11 -0.5t7 -1t3 -2.5t1 -4t-1 -5q-3 -8 -8 -8q-4 4 -25 -4
q-7 -2 -19.5 -5t-14.5 -4q-33 -4 -54 -14q-4 -4 -10 -4q-8 0 -72 -31l-34 -18l-25 -12l-115 -66q-45 -29 -82 -57l-28 -21l-13 -8l-28 -23l-31 -24q-10 -10 -12 -10q-1 0 -51.5 -44t-61.5 -55l-12 -10l-66 -65l-20 -19q-18 -17 -76.5 -82t-87.5 -100q-41 -49 -53 -70
l-17 -26l-8 -15q2 0 -4 -6l-14 -20l-23 -35q-14 -21 -14 -27q0 -4 -4 -8q-4 -3 -17.5 -29.5t-19.5 -44.5l-10 -30q-5 -13 -5 -47t5 -46l6 -16q6 -22 37 -45.5t57 -24.5q21 0 60 13t71 32l12 5l56 26l28 14q11 3 11 9q3 -1 46.5 21.5t63.5 35.5l23 16q21 13 68.5 47t54.5 41
l20 15l21 16q16 16 88 70l102 76l10 6l6 4l52 35q56 32 77 53q3 6 9 6q2 0 49 33q17 14 24 14q4 0 7.5 -5.5t3.5 -10.5q-3 -7 0 -10q1 -4 -4.5 -11.5t-8.5 -5.5q-4 0 -10 6q-5 6 -7.5 5.5t-14.5 -11.5q-20 -12 -21 -12q-2 0 -12 -10l-10 -9q-5 0 -9 -4q-20 -16 -43 -28
l-43 -29l-28 -16q-49 -32 -86 -64q-3 -1 -5.5 -2.5t-4.5 -2.5t-3 -1q-5 0 -8 -6l-22 -19q-37 -26 -43 -32q-8 -4 -9 -4t-10 -9l-20 -16l-21 -14q-6 -6 -18 -14t-13 -7l-10 -8q-22 -19 -53.5 -41.5t-36.5 -22.5q-4 0 -4 -4t-4 -4q-5 0 -8 -6t-6 -6q-5 0 -27 -18
q-19 -14 -55.5 -35t-42.5 -21q-3 0 -11 -4l-30 -16l-37 -19q-36 -18 -39 -18q-6 0 -6 -4q-5 -5 -23 -12l-26 -13q-20 -10 -54 -14t-49 2z" />
    <glyph glyph-name="F" unicode="F" horiz-adv-x="1263" 
d="M328 -92q-4 0 -5.5 6t1.5 10l8 19l14 24l123 139l47 56l76 86q51 58 57 67l4 7q2 0 6 4q5 5 5 8q0 2 4 4q6 0 18 20l119 138q12 13 28 33t27 35t10 16q0 2 4 2q3 0 15 12l41 55l24 29q21 21 21 24q6 9 14 17l15 18q0 3 -31.5 0t-46.5 -6q-11 -2 -20 2t-9 10q0 7 10 7
q25 0 90 12l29 4l16 18q15 19 15 23q-2 2 0 2q3 -3 14 12l33 35q19 23 16 23l6 6q19 19 31 35q23 23 27 26q10 13 10 19q-2 2 2 2q3 -2 14.5 11.5t12.5 20.5q5 5 6 5l3 3q4 3 7.5 7t7.5 8l21 25q6 6 6 10q0 6 4 2q6 4 12 12l25 29q15 15 12 18q0 2 2 0q4 0 14 10l11 11l4 6
l33 35q22 20 34 37q4 7 7 6q0 -2 4 2t4 8t4 4q2 0 37 39q32 41 37 41q3 0 36 38.5t33 41.5q0 2 4 2t4 6q0 4 2 2q3 0 17 14q10 14 6 13l-16 -4l2 2q-39 -9 -58 -15q-3 3 -55 1t-86 -7l-113 -10q-64 -3 -69 -6l-15 -2q-82 -8 -94 -11h-26q-17 0 -25 -4q-2 -1 -9.5 -2
t-23 -2.5t-26.5 -3.5l-80 -8l-43 -6q-67 -6 -90 -15l-50 -8l-10 -2q-13 0 -67 -12l-60 -12q-21 -4 -24 -7q-1 -1 -25 -6l-25 -6l-10 -2l-28 -8l-45 -14q-39 -12 -56 -23l-10 -2q-3 0 -39 -18t-39 -21l-24 -18q-25 -18 -45 -43q-7 -9 -11.5 -31.5t-1.5 -36.5l2 -24
q3 -24 15 -48q11 -21 2 -21q-4 0 -9 5q-16 16 -20 53l-4 19q-6 3 -2.5 40t10.5 44q4 4 8 16t11 12l16 13q7 7 21 17.5t16 10.5l20 13q11 9 33 19.5t27 10.5l14 6q38 15 41 15q4 0 12 4l23 6l41 12q5 1 15 4.5t18 5.5l12 3q10 0 28 6q2 1 11.5 3t28 6t32.5 7l72 14l18 5l47 6
q39 7 92 14l349 39q23 5 26 6q1 0 13 1t20 1l49 2l105 13l137 10q14 0 29 6q11 6 28 12v2q14 2 45 21q14 10 25.5 9t13.5 -13q0 -16 -20 -25q-4 -4 -8 -6v-2h-3q-4 -2 -10 -8q-21 -18 -96 -109q-18 -22 -25 -27q-18 -18 -28 -30l-31 -33q-42 -48 -90 -96l-19 -19l-88 -96
q-188 -211 -188 -217l-8 -10l-15 -15q-3 -6 -2 -7t7 1l14 2q4 0 4 4t4 0q5 0 27.5 7.5t31.5 11.5q21 14 33 24q48 41 68 33q6 -3 6 -12q1 -7 -3 -16t-9 -9q-4 0 -4 -2q0 -3 -23 -14l-29 -14q-5 -5 -6 -5q-3 0 -26 -24t-31 -35l-23 -29q-46 -54 -67 -104q-7 -15 -17 -18
q-6 0 -4 4l2 18q4 28 35 80q11 19 33 47q18 22 20 29q8 8 11 8q2 0 2 2l-25 -4l-43 -10q-15 -4 -20.5 -9.5t-38.5 -44.5l-43 -51l-37 -45l-37 -47l-49 -55q-17 -21 -72 -85.5t-63 -72.5l-21 -25l-131 -147q-18 -22 -64.5 -75.5t-74.5 -86.5l-74 -82q-14 -18 -18 -18z" />
    <glyph glyph-name="G" unicode="G" horiz-adv-x="1902" 
d="M299 -80q-69 -6 -90 35q-8 13 -1.5 39.5t23.5 44.5q7 3 7 8q0 1 24.5 24.5t54.5 51t41 35.5l29 22q62 50 156 103l18 12q60 45 92 57q33 12 35 17l29 14q5 2 11 5t11 6t6 3l7 4l55 25q71 36 113 47q13 3 24 8q21 7 25 8q17 4 35 15q30 12 61 18l18 6l23 9q15 3 20 8
q0 2 4 2q0 -1 11 1t30 7q51 13 56 16q4 4 39 11q27 6 45 12t24 6q25 4 35 8l12 6q2 0 39 31q1 2 7 6.5t8 5.5q7 4 12 13q4 7 18 18l25 23q2 2 5.5 4.5t5.5 4t3 1.5l17 12q15 15 18 15l6 6q5 9 10 12q20 13 89 78l30 26l6 7q-3 -3 -4 -3l-6 -4q-1 3 -6.5 2t-19.5 -6l-29 -8
l-23 -4l-268 -82q-51 -18 -103.5 -23t-72.5 5q-35 16 -45 45q-20 44 39 127q9 13 19.5 26t13.5 17q4 2 4 8q0 2 2 2q4 -4 20 18l8 9q0 -2 4 2q4 8 3 8q0 2 2 2q3 -3 14 8l57 51q7 7 22.5 18t18.5 11q6 4 10 8q2 2 11 8l12 8l39 25l31 21q12 4 16 8q2 4 6 4t12 8l50 29l16 10
q8 4 10 6l29 16q31 18 33 21l8 4l14 8q9 6 27 15q14 7 14 10q0 2 2 0q2 0 4 2q3 2 25 12.5t46 22t26 12.5l22 10q51 23 57 25l27 10q16 8 20 8q14 0 27 13l6 2h4l8 2l-1 2q12 2 32 10q21 3 43 14h-2l-10 -2h-4l-6 -2q-2 2 -21 2q-97 -7 -311 -10l-143 -2l-58 -4
q-56 -2 -114 -6l-54 -6q-15 0 -106 -11l-49 -4q-59 -5 -62 -8q-2 -2 -69 -10l-25 -4l-84 -17l-51 -12l-64 -16q-16 -3 -28 -11q-9 -6 -17 -6q-6 0 -14 -4l-47 -20l-10 -4q-7 -1 -25.5 -12t-24.5 -17t-10 -6q-2 0 -17.5 -16t-15.5 -19q0 -5 7 -12q9 -11 -2 -11
q-15 0 -20.5 11t1.5 26q4 10 22.5 26.5t32.5 24.5q97 54 220 80q27 3 32 8l9 3l90 16q13 2 32.5 5.5t32 5.5t21.5 3l24 2l47 6l127 13l74 8q39 3 123 8q15 1 29.5 2.5t22.5 2.5l9 1q0 4 9 0q2 -2 10 -2l84 4l317 9q16 1 35.5 2.5l32.5 2.5t16 1l35 4q29 0 41 4h16h11
q6 0 10 -8q3 -8 -2 -15q-23 -18 -53 -22q-7 -3 -23 -6q-14 0 -27 -9q-18 -6 -24 -6q-41 -8 -74 -18q-119 -43 -127 -51q-2 -4 -8 -4q-1 0 -19 -9q-16 -8 -18 -8l-4 -2q0 -4 -4 -4t-94 -47q-49 -26 -54 -31q-9 -6 -14 -6q-2 0 -18 -8l-19 -12l-61 -37q-80 -48 -88 -56
l-21 -12q-18 -11 -18 -14q-4 -4 -6 -4q-10 0 -39 -29l-31 -27q-31 -25 -72 -67.5t-51 -61.5l-8 -10l-14 -26q-15 -31 -15 -48q0 -39 33 -55q9 -6 17.5 -7t37.5 1q30 0 44 2.5t65 17.5l53 15q94 27 100 31q4 2 15 2q6 0 10 4q10 4 18 6l46 12q16 5 104 31q25 3 29 8q5 5 8 2
q6 0 14 8q8 4 10 6q20 17 116.5 106.5t183.5 172.5t85 84q10 5 21 20q20 4 35 13q19 11 28 2q10 -14 -26 -35l-383 -350l-35 -29q0 -6 -4 -6l-8 -4q-35 -28 -60 -53l-71 -60l-29 -24l-41 -33q-24 -18 -104 -90q-1 -3 4 -4h18q2 0 5 2t5 2h11l32 8l10 2.5t10.5 2.5t6.5 1
l10 4q0 -3 6 0q14 7 129 29l47 8q160 30 183 14q14 -6 18.5 -11t5.5 -17q3 -18 -12 -23q-4 -1 -6 3.5t-2 10.5q0 9 -6 15q-4 6 -12.5 6.5t-51.5 -2.5q-72 -4 -82 -8l-45 -8q-18 -3 -66.5 -14t-54.5 -13q-3 -3 -20 -6l-41 -11l-94 -18q-49 -9 -56 -14l-4 -4l-51 -45l-55 -45
q-42 -35 -57 -50l-25 -22l-29 -23l-12 -10l-92 -74l-19 -12l-22 -18q-2 -1 -10 -7l-18 -13.5t-19 -12.5l-37 -29l-14 -8l-15 -10l-20 -17l-80 -49l-23 -14q-10 -3 -10 -8l-2 -2q-3 0 -20 -13q-2 -2 -105 -59l-12 -8q-2 -2 -47 -23.5t-56 -25.5q-11 -5 -22 -9.5t-14.5 -6
t-4.5 -1.5l-12 -4q-82 -36 -178 -43zM252 -66q31 -12 102.5 3t155.5 51q48 19 49 20l14 8q74 37 78 41l29 17q26 13 31 18l63 41q70 45 94 64l25 16q28 13 63 43l27 20l92 70q4 4 6 4t6 4q11 11 17 15q19 13 24 22q-1 0 0.5 1t5 4t5.5 5l18 15l25 20q18 14 18 17q6 4 12 10
q15 10 21 16q12 12 22 17q20 15 25 20q6 12 14 12l4 2q0 3 11 15t14 14l10 10q6 7 4 9l-4 -3l-16 -2l-27 -6q-8 -6 -35 -10q-30 -5 -45 -10q-10 -4 -34 -10q-30 -3 -58 -17q-8 -4 -12 -4q-7 0 -39.5 -9t-42.5 -15q-75 -28 -111 -39q-32 -10 -67 -27q-26 -13 -41 -18l-29 -13
l-41 -22q-28 -12 -35 -19q-13 -9 -26 -12q-6 -2 -23 -10q-6 -3 -21 -12.5t-24 -12.5l-16 -10l-10 -5t-11 -7q-2 -2 -7 -5t-7 -4l-14 -10q-8 -4 -9 -4l-6 -6l-8 -4l-20 -12q-18 -11 -97 -66l-10 -8l-16 -14l-21 -15q-5 -4 -26 -23t-27 -24l-12 -12q-8 -5 -31.5 -32t-26.5 -36
q-16 -25 -12 -43q1 -9 11 -19t22 -14z" />
    <glyph glyph-name="H" unicode="H" horiz-adv-x="1359" 
d="M557 -176q-10 7 -6 47q4 36 41 80q16 20 18 26q2 2 7 9t8 10l39 49l45 55l16 23l10 12l45 58l43 55l54 65l14 19l8 10l14 16l21 19l41 51l22 31l29 33q0 7 31 38l33 39l16 21l22 26l9 11l45 51l153 170l-233 -10l-37 -7l-147 -167l-52 -58l-53 -61l-35 -41l-82 -98
l-57 -74l-16 -23q-15 -20 -21 -26q-18 -18 -49 -66l-61 -82q-45 -64 -48 -80q-3 -5 2 -10q5 -3 0 -8q-6 -6 -12.5 -5t-10 9.5t-1.5 19.5q2 22 54 101q5 7 7 10q39 60 39 61q4 9 8 9l11 12l6 12l10 13l18 22q6 10 12.5 18t23.5 30t40 52l41 54q21 27 62 75t53 60q10 7 10 16
q1 1 2 3l2 1q3 0 39 39l17 19q9 9 37 44.5t30 37.5l27 32l39 45l-156 -14q-68 -8 -143 -18t-120.5 -16t-53.5 -7q-4 0 -46 -6.5t-61 -7.5q-1 0 -22 -4.5t-35 -8.5q-32 -8 -49 -8q-8 -4 -16.5 -4.5t-13.5 1t-5 3.5q-1 6 6 9.5t31.5 7.5t55.5 9q60 8 101 15l52 8l149 21
q72 7 160 20q-19 -2 2 1q11 1 51 5q92 10 131 15l2 4l72 78q12 14 31 33l10 12q0 6 4 6q8 6 14 14l43 47l49 54l19 18l86 88l45 45q9 9 4 13q0 2 2 2q5 -5 16 10l56 57l30 35l27 27l10 14q8 12 11 12q5 0 12 15l16 20l6 8q6 12 6 13q-24 -5 -53 -15q-3 3 -54 1t-85 -7
l-43 -2l-70 -6q-59 -3 -69 -8l-17 -2q-17 -1 -39 -3t-36.5 -4t-16.5 -2q-4 -2 -26 -2q-19 0 -27 -4q-1 0 -9 -1t-21.5 -2.5t-26.5 -2.5l-80 -10l-43 -4l-92 -15l-60 -10q-3 -1 -9 -2t-21.5 -4.5t-34.5 -7.5l-60 -10q-26 -8 -26 -9q-13 -4 -25 -6l-25 -6l-10 -2l-28 -8
l-43 -14q-29 -8 -56 -21q-8 -4 -10 -4q-5 0 -41 -18t-37 -21l-24 -18q-31 -19 -48 -43q-6 -9 -10 -31t-2 -37l4 -22q3 -27 15 -50q9 -19 2 -21q-4 0 -11 7q-16 16 -20 51q0 17 -4 21q-5 3 -1.5 39t9.5 43l8 16l10 14q4 0 17 13q7 7 21.5 16.5t17.5 9.5l20 15q45 28 58 28
l16 6q35 17 41 17q8 0 10 2l23 8l43 12q23 7 45 11q23 5 26 6q2 1 11.5 3t28 6t32.5 7l72 16l20 3l47 8l92 12l68 10l279 31q20 0 28 4q4 2 33 2q21 0 49 4l105 10l135 11q12 0 28 8q30 11 39 12q4 0 8 1t5 1q2 2 14 2q24 4 31 -6q3 -3 -2.5 -9t-14.5 -9q-5 -1 -17 -7.5
t-21 -12.5t-9 -7q0 -2 -14 -16q-12 -12 -12 -17q0 -4 -4 -4q-6 0 -9 -10q-4 -11 -14 -18l-8 -9l-35 -39l-100 -102q-27 -27 -27 -31q-2 -4 -4 -4q-10 -8 -63.5 -63t-53.5 -58l-22 -24l-23 -25q0 -4 -12 -12l-49 -53q-24 -30 -45 -51l-13 -13q-9 -14 -26.5 -32t-18.5 -19
l275 14q29 30 26 29q9 9 9 10q0 4 4 4q12 11 24 25l29 31q14 14 28 32t13 19q0 2 2 2q1 -1 9.5 5t17.5 15t12 15l14 14q3 2 41 49q2 3 7.5 9t6.5 8q15 9 82 88l29 32l18 19l43 47q26 30 48 59q22 33 28 33q6 1 12.5 -2t6.5 -8q-4 -23 -88 -113q-50 -53 -111 -125
q-15 -18 -28 -31.5t-19 -19.5l-33 -37q-29 -33 -45 -47l-20 -20q0 -2 -15 -17l-35 -37l-22 -26l-53 -60h16q61 4 74 0l57 4l180 -2h4q3 1 9 1.5t12.5 1t15.5 0.5t17 -1l196 -10q13 -2 23 -2l86 -6q53 0 53 -18q3 -10 -10 -17l-17 -4q-16 -3 -16 8q-5 9 -18 9q-21 2 -79 9.5
t-118.5 11.5t-142.5 5q-10 -2 -27 -2h-8q-8 0 -20 -0.5t-27.5 -1t-31 -0.5h-29.5t-24 0.5t-14 1.5l-71 -4q-12 6 -111 -4h-2q-4 -2 -12 -11.5t-14 -19t-5 -10.5l-1 -1q-2 0 -3 -1q-7 -5 -53 -55q-29 -29 -29 -35q1 -2 -5.5 -8t-19 -17t-20.5 -20q-19 -21 -104 -123l-47 -55
q-23 -31 -23 -33q-1 -1 -2.5 -4t-4.5 -6.5t-7 -6.5l-23 -26l-20 -25l-47 -59l-10 -12v2l-13 -15l-22 -28q-10 -10 -61 -72.5t-93 -118.5l-35 -41q-40 -50 -77 -104l-21 -25q-9 -11 -19.5 -37t-11.5 -43q-1 -13 -3.5 -16t-8.5 0z" />
    <glyph glyph-name="I" unicode="I" horiz-adv-x="1144" 
d="M1210 1221q-22 5 -28 41q-2 16 8 32q14 20 41 37t88 43q61 28 106 41l35 10q34 11 72 17l33 4q14 2 67 6l56 4q14 2 102 2l76 2h16l105 -4q6 -2 12.5 -8.5t5.5 -9.5q-1 -6 -11.5 -6.5t-17.5 4.5q-4 4 -12 4l-53 4q-29 2 -103 2l-172 -6l-28 -4q-128 -9 -230 -54l-41 -18
l-34 -14l-31 -15q-74 -41 -74 -67q0 -27 6 -27q3 0 9 -7.5t6 -10.5q0 -5 -9 -2zM539 121q-4 -1 -4 4q-1 12 16 43q23 41 29 47q7 7 24 29l39 51l33 41l20 22q20 22 45 52.5t25 33.5q0 6 4 2q6 5 10 13q16 21 35 43l51 61q26 35 64 76q39 42 39 47q0 3 6 6q5 0 35 37
q102 115 108 115q0 -2 1 -1t1 3q0 3 29 37t59 65l138 148l12 14l31 31l24 26q12 18 80 86q58 62 59 62q7 4 13 10q10 14 53 51l39 35q19 14 24 15.5t9 -7.5q3 -7 -5 -22t-14 -13q-12 0 -67 -55q-47 -43 -97 -96t-194 -211l-125 -133l-60 -68l-28 -28q-31 -33 -105.5 -115.5
t-74.5 -85.5q0 -1 -2 -3.5t-4.5 -6.5t-4.5 -7l-75 -90l-35 -41l-51 -63l-93 -109l-69 -84q-25 -35 -35 -55q-8 -12 -12 -12zM207 -39q-2 2 -2 16q0 24 34.5 50t86.5 41l32 10l74 16l25 4l41 6l82 11q27 3 85 2.5t76 -4.5q16 -2 19 -11t-1.5 -12t-15.5 2q-9 6 -30 6l-19 4
q-1 0 -5 0.5t-10 1t-11 0.5q-77 0 -101 -4l-49 -8q-36 -3 -98 -14q-192 -43 -201 -105q-2 -15 -9 -14q-2 0 -3 2z" />
    <glyph glyph-name="J" unicode="J" horiz-adv-x="1392" 
d="M233 -70q-14 -2 -22 9q-6 8 -4 26q3 18 18 43q19 33 21 41q9 18 12 21l4 8q0 3 25 37.5t35 42.5q25 29 86 78l118 75q88 52 168 86q46 22 49 25l7 4q0 -1 4.5 0t14.5 4.5t24 9.5q39 17 96 33q27 7 43 23q73 73 98 104l35 37q28 28 68.5 76t40.5 53q0 4 2 2q0 -1 2 0.5
t4 3.5l8 12l61 78l19 21q8 8 8 12t12 16l19 25l10 12l4 6l37 52q57 75 59 75q4 0 4 4t19 25q39 43 39 53l2 4q2 -1 4.5 1.5t13.5 17.5q7 10 12 16l19 27l29 35l16 20l20 23l41 49q31 31 31 35t-12 0l-19 -2q-42 -7 -92 -23q-28 -5 -30 -4q-10 0 -10 8q0 10 14 12q18 6 24 9
q25 7 31 8l22 6q30 9 76 12l33 4l33 2q16 4 26 4q6 3 60 3q45 -2 59.5 -5.5t18.5 -15.5t-2 -18q-7 -9 -27 4q-14 8 -78 8q-70 0 -90 -8q-10 -3 -10 -11t-10 -18l-25 -31l-45 -51q-17 -17 -44 -50t-32 -42q-9 -15 -35 -47q-1 -1 -22 -27q-7 -12 -17 -22q-6 -4 -37.5 -44
t-50.5 -67q-42 -64 -141 -180l-39 -51q-5 -5 -15 -17.5t-21.5 -25.5t-22.5 -25q-13 -13 -13 -16q0 -4 -4 -4l-14 -15q-14 -20 -43 -49l-68 -74q-25 -26 -18 -26q8 -4 8 2q4 4 64.5 15.5t117.5 19.5l35 6q19 3 26 -4t-1 -21q-5 -10 -15 -8q-8 0 -8 4q-5 4 -34 2.5t-68 -8
t-51 -12.5q-2 0 -6.5 -1t-6.5 -1q-9 3 -79 -21q-16 -3 -31 -18l-82 -86l-66 -66q-21 -24 -77 -80.5t-60 -56.5q-2 0 -22 -19.5t-21 -23.5l-14 -12l-27 -21q-67 -61 -108 -84l-33 -20q-36 -18 -53 -21l-33 -12q-70 -25 -101 -25zM254 -51q18 3 41 10t24 10l3 2q0 -3 31 8.5
t59 24.5q37 17 94 66q32 26 127.5 116.5t118.5 116.5q2 2 12.5 13t21 21.5t19.5 18.5q70 70 88 97q4 4 0 4q-8 0 -59 -17q-13 -7 -60 -20q-18 -6 -22 -10q0 -4 -4 -4q-7 0 -21 -7q-16 -8 -18 -8q-7 0 -15 -4l-24 -12l-27 -17q-5 -3 -25 -10l-12 -6q0 -3 -10 -6
q-3 -1 -10.5 -5t-10.5 -5q-9 -9 -12 -9q-4 -2 -8 -6q-22 -16 -49 -28q-12 -4 -23 -15l-45 -30q-34 -22 -37 -29l-4 -4q-4 0 -34.5 -28.5t-45.5 -45.5q-29 -37 -38 -55l-9 -13q-2 0 -2 -4q-3 -3 -24 -47q-23 -45 -21 -53q0 -9 5.5 -11t25.5 1z" />
    <glyph glyph-name="K" unicode="K" horiz-adv-x="1331" 
d="M1245 -395q0 -9 -49 10q-68 24 -96 49q-43 40 -68 113l-12 39q-6 15 -6 26q0 1 -6 19q-14 35 -23.5 137t-5.5 160l2 43l2 35l2 18l2 20l4 21q5 14 2 24q0 13 4 25q9 27 11 53l4 21l8 37l10 47l8 33q1 3 8.5 31.5t14 52t8.5 26.5l14 47l45 164l7 21q4 4 4 16l-9 -8
q-6 -9 -24 -27l-43 -53l-64 -78l-114 -147l-54 -64l-32 -43l-60 -76l-18 -24l-72 -99l-20 -28q-1 -1 -9 -12t-18 -25.5t-18 -28.5l-58 -84q-43 -62 -47 -82q0 -8 4 -8q5 -2 0 -10q-6 -6 -12.5 -5t-11 9.5t-2.5 19.5q3 31 57 113q36 55 39 62q4 8 6 10q6 6 10 12l6 12l11 13
l16 22q18 30 72 103l41 55l18 24l45 58q27 35 45 55l140 176l20 23l57 71l43 54l25 28q25 29 31 33l4 4l2 8h2q3 7 4 7q3 0 14 14q31 43 43 49l19 21l28 34l99 111l82 86l37 43l30 35l25 30l10 15q4 6 10 12q6 0 13 14l16 21q4 4 4 10q4 2 8 10q-38 -9 -53 -14
q-3 2 -56.5 -2t-84.5 -10l-41 -4l-70 -8q-68 -7 -70 -9l-16 -4q-81 -8 -92 -12q-1 0 -11 -1t-16 -1q-16 0 -24 -4q-5 -2 -60 -10l-80 -11l-43 -8q-60 -6 -90 -16l-47 -11l-12 -2q-2 -1 -8.5 -2t-22.5 -4.5t-35 -7.5l-57 -14q-23 -4 -27 -8q-2 -1 -24 -9l-25 -6l-39 -12
l-43 -14q-24 -7 -55 -25q-1 0 -4.5 -1t-5.5 -1t-19.5 -9.5t-36.5 -20.5t-20 -11l-22 -20q-27 -19 -46 -43q-7 -10 -10 -32.5t0 -37.5l4 -23q3 -23 15 -47q12 -21 4 -21q-4 0 -10 5q-15 15 -23 51q0 17 -4 21q-6 3 -3 38t9 43l3 6q3 7 5 11q3 9 8 14q8 4 17 13q30 30 37 30
l20 13q12 9 32.5 20.5t24.5 11.5l15 6q35 17 41 17q2 0 5.5 1t4.5 1l23 8l43 14q5 1 21 6.5t22 6.5q18 3 28 8q6 3 72 18l70 19l20 2l47 10l92 16l344 52q25 4 29 6q1 0 12.5 1t18.5 1l49 6l104 14l138 15q10 0 26 8q28 12 39 14l12 2q2 2 15 2q24 5 30 -4q3 -3 -2 -9
t-14 -9t-28 -15.5t-19 -15.5q-6 -8 -12 -14l-131 -158l-187 -209l-22 -25q-5 -6 -11 -12.5t-9 -9.5t-3 -4q-4 -6 -10 -12q-15 -15 -27 -29q2 0 6 1t5 1h14l8 4h8l90 29l105 37l65 24l13 6h6l10 6q7 2 21 11l18 8l39 18l12 6l27 15q4 2 13 7.5t22.5 14t21.5 13.5l64 41
q101 67 131 92l28 20q65 49 72 55l59 48q64 48 86 73l33 33q12 14 35.5 34.5t28.5 20.5q4 0 4 -8q3 -7 -12 -22l-21 -17l-12 -12l-29 -31l-33 -32l-26 -21l-49 -41l-58 -43q-3 -7 -18 -14l-17 -13q-12 -16 -176 -122q-103 -69 -162 -101l-28 -14t-33 -16t-16 -7
q-12 -6 -62 -26l-26 -11l-89 -30l-90 -33l-41 -14q-19 -7 -26 -13l-10 -6q-1 -2 -4.5 -5.5t-4.5 -6.5l-41 -74q-12 -18 -12 -24l-6 -19q-33 -94 -37 -112l-14 -54l-33 -114l-18 -72l-5 -14l-6 -31l-8 -37q-18 -93 -26 -162q-7 -71 -2.5 -177t16.5 -140q0 -3 2 -12t2 -13
q6 -43 24.5 -96.5t38.5 -81.5q25 -46 84 -65q15 -5 33.5 -12.5t30.5 -13.5t12 -7z" />
    <glyph glyph-name="L" unicode="L" horiz-adv-x="1239" 
d="M1581 -332q-42 0 -90 8q-7 1 -33.5 6t-49.5 10t-24 5l-18 6q-61 13 -102 29l-27 8q-20 5 -115 41l-147 53l-27 10l-28 11l-62 24q-8 4 -16 6q-9 0 -35 13q-32 13 -59 20q-16 6 -17 6l-96 43l-135 64q-24 10 -58 28q-45 27 -102 52q-22 11 -49 0h-31q-4 1 -13.5 1t-13.5 1
q-4 2 -8.5 5.5t-9.5 9.5t-6 7l-4 8q4 12 4 19v20q0 1 1 3t1 3q0 9 4 9q12 6 68 -19q4 -2 4 0l22 -14q3 -3 25 -14l45 38q16 14 43 41l18 19l133 141l205 223q23 23 43 50l23 24q25 25 71 80l27 31q4 4 45 57q13 17 37 41.5t27 24.5l8 12l10 14l14 15l99 110q3 6 20 23l10 10
q0 4 9 8q8 8 10 8q0 5 6 8q2 1 5 5l3 4l2 4q4 0 4 4q0 3 19 22l33 37q4 4 9 10t8.5 10t4.5 5l29 26l53 58l121 121l10 8l-25 -8l-34 -13l-13 -6q0 -1 -18 -8l-25 -10q-2 -1 -5 -2l-4.5 -1.5t-2.5 -0.5q-7 0 -33 -13q-27 -11 -88 -30l-63 -23l-113 -31q-136 -36 -153 -36
l-17 -5q-2 -1 -9.5 -2t-10.5 -2l-35 -2q-71 -8 -86 13q-11 13 0 13q9 0 33 -5q28 -4 38.5 -4t38.5 4l68 12q58 9 127 29l45 12q6 -1 91.5 27t125.5 43l25 8q4 0 8 4t33 12q10 4 31 13.5t22 9.5l39 16l12 6q0 4 14 8l13 9l10 4q6 2 39.5 25.5t52.5 41.5q54 48 72 60
q6 3 14 0.5t8 -8.5q0 -7 -12 -19l-18 -18q-3 -5 -25.5 -22t-24.5 -17q-3 0 -59 -39q-39 -28 -68 -57l-18 -17l-53 -53q-35 -35 -35 -37l-4 -4q-2 0 -13.5 -11t-11.5 -14l-61 -61q0 -2 -4 -6q-2 0 -23 -21q-23 -25 -65 -67l-25 -29q-10 -12 -57 -59q-15 -15 -15 -19l-4 -4
l-10 -8q-38 -41 -47 -53q-5 -9 -12 -13l-17 -16q-5 -8 -26 -29t-23 -24l-14 -17l-74 -94l-22 -24l-13 -17l-26 -31l-80 -86l-17 -18l-196 -213l-86 -90l-19 -21q-4 0 -8 -8q-3 -8 -6 -8l-12 -12l-17 -19l-32 -30l-62 -56l14 -6q67 -30 115 -59q42 -21 58 -27q19 -6 45 -22
l71 -33q83 -40 121 -51l23 -9l264 -100l147 -51l49 -16l50 -15q154 -49 301 -55q61 -2 135 4q102 11 174 29l12 2l37 8l70 18l39 13l10 4q3 -1 31.5 13.5t39.5 21.5q15 11 39.5 36t24.5 29l4 4q3 0 15.5 20t15.5 29q0 7 6 13l3 5l-1 -5q-1 -15 -22.5 -50.5t-40.5 -56.5
q-42 -35 -78 -59q-33 -19 -84 -33l-25 -8q-8 -8 -53 -19l-45 -10l-88 -18q-14 -4 -51.5 -10t-40.5 -5h-17q-12 -4 -16 0q0 2 -2 2t-4 -2q-8 -4 -13 -4h-100zM256 131q4 -3 15 -3t12 3q0 2 6 2q4 -1 4 1q0 3 -10 7l-11 4q-26 13 -32 13q-7 4 -7 -2q0 -2 8 -10.5t15 -14.5z
" />
    <glyph glyph-name="M" unicode="M" horiz-adv-x="2084" 
d="M1370 -16q-2 -1 -3 3q-1 13 11 36l29 57l39 63l6 13q-2 0 4 6q10 10 68 96l32 47l41 57l29 37l27 33l20 27q5 3 24 26.5t19 26.5q0 4 2 4q3 0 15 16l16 19l27 35l63 71l23 29l26 25l23 26q34 43 55 60q10 9 30.5 30.5t22.5 24.5l62 61l14 17l-41 -21q-12 -6 -20 -14
q-3 -6 -9 -6q-3 0 -26.5 -14t-32.5 -21l-12 -8q-40 -27 -43 -29l-17 -8q-2 -1 -22 -16q-15 -11 -17 -11t-10 -8q-4 -8 -8 -8l-51 -29l-82 -51q-17 -10 -23 -10q-5 0 -8 -6q-7 -7 -34.5 -23t-49.5 -24q-29 -13 -55.5 -19t-42.5 -3t-16 15q0 6 15.5 34.5t29.5 47.5l14 21
q0 2 20.5 32.5t24.5 34.5l14 21q1 1 47 59l58 62q26 26 22 30q-2 2 -1 2t3 -2q4 0 23 23q41 46 94 94q12 11 22.5 21t16 16t4.5 6q-1 1 10 11.5t23 21t14 10.5q4 0 33 27t51 51q15 17 78 84q21 21 27 31q11 14 32 32l74 78q16 19 27 19q39 0 2 -43l-19 -19l-16 -18
q-14 -16 -39 -41l-63 -68l-43 -47l-15 -16l-20 -21q-16 -21 -88 -77l-23 -23l-61 -55q-45 -41 -45 -43q-5 -7 -9 -11q-17 -17 -49 -53l-22 -26l-49 -50q-60 -68 -68 -79l-22 -29l-19 -31q-4 -8 -15.5 -23.5t-13.5 -19.5l-16 -22l-12 -19l-10 -20q-3 -5 2 -5q3 0 12 1
q19 2 60 19.5t48 27.5q4 4 9 4q3 0 39 20l38 23l7 4q20 16 20 12l12 6l13 9q3 0 35 20t40 27l27 18q11 5 37 25l22 14q7 0 19 12q20 15 41 27l110 63l31 17q12 4 84 63t72 64q0 3 6 6q3 0 27 20q28 28 40 19q4 -2 5 -5t-1.5 -7.5t-9 -11.5t-18.5 -17l-49 -45
q-63 -58 -92 -76q-30 -23 -72 -68q-17 -20 -23 -20l-8 -8q-3 -7 -26 -31l-35 -33q-21 -26 -84 -86l-86 -90l-8 -10l-195 -231l-18 -21l-41 -55l-23 -29l-4 -6q0 -2 -11 -17t-14 -16q-1 -1 -15 -20t-32.5 -44.5t-27.5 -39.5l-27 -39l-35 -53l-22 -41q-17 -33 -25 -41z
M221 -47l-16 6l2 25q3 39 29 49q13 3 18 -2q9 -5 2 -33q-3 -8 3 -9q5 0 28 1q32 0 55 10l51 18q26 9 88 35l45 21l33 18q7 2 55 31l43 27q6 0 31 18q22 16 29 16h1.5t2 1.5t2.5 3t3 4t3 4.5q17 17 19 18l18 16q11 11 18 11q12 4 21 16q10 10 14 10q8 0 15 11l32 30
q25 21 25 27q0 1 14 8q9 3 45 35q44 39 115 96l53 47q8 8 10 8q7 3 13 9l41 32l108 88q11 11 15 11q5 0 16 14q3 2 15.5 13t19.5 16l43 37q14 13 38.5 35t37.5 34t14 12q2 0 168 156l67 64q6 0 13 10q4 6 20 22l31 29q17 17 20 14q4 0 7 7q3 6 44.5 45.5t69.5 62.5
q12 10 25 23q3 6 9 6.5t9 -4.5q4 -11 -65 -66l-41 -35q-55 -49 -60 -49t-8 -10t-12 -10t-6 -6q0 -8 -6 -11q-8 -5 -19.5 -15t-11.5 -13q0 -2 -4 -2q-6 3 -21 -19q-15 -23 -45 -49l-119 -111l-20 -20q-13 -15 -37.5 -35t-30.5 -22q-7 -2 -12 -13q-3 -9 -10 -16l-115 -96
q-4 -4 -10 -4q-3 1 -12 -6.5t-9 -10.5q0 -9 -36 -37q-36 -24 -111 -90l-197 -166q-11 -11 -41 -35l-24 -18l-37 -33l-59 -49l-48 -37q-23 -20 -59 -43l-43 -28q-15 -13 -122.5 -66.5t-127.5 -58.5q-9 0 -31 -11q-43 -19 -82.5 -25t-58.5 3z" />
    <glyph glyph-name="N" unicode="N" horiz-adv-x="1611" 
d="M1030 94q-9 -9 -16.5 -4.5t-9.5 16.5l-3 3q-5 8 3 24l12 27l10 26q11 22 33.5 72.5t23.5 58.5q0 5 4 5q5 0 5 4q-2 2 10 22q10 20 10 25v2q1 -1 3.5 3t6 9.5t7 11.5t6 11t2.5 6q0 4 2 4q10 15 20 33l47 73l58 99q0 7 30 55l4 10q0 5 9 17l8 16l16 33q-4 8 119 202
q50 79 57 97q12 12 17 24q-2 -8 2 0q2 3 2 4l6 11l12 22l2 8q5 5 10.5 10t8 7.5t2.5 3.5l20 26l2 3q-6 -3 -12 -9q-12 -6 -20 -14q0 5 -11 -6l-20 -19q-37 -27 -39 -32q-31 -31 -51 -47l-19 -19q-4 -6 -18 -20q-11 -5 -21 -21q-10 -10 -14 -10q-6 0 -6 -6q-4 -8 -21 -25
q-18 -18 -18 -22t-6 -4q-3 0 -5 -5l-1 -2q0 -3 -1.5 -4t-2.5 0q-4 0 -9 -8q-4 -8 -8 -8q-5 0 -16 -19q-12 -16 -17 -16q-4 0 -4 -4q0 -5 -20 -25l-23 -24l-12 -14l-14 -19q-1 -2 -3 -4t-4.5 -3.5t-3.5 -2.5q-6 -3 -6 -8q0 -6 -6 -6q-2 -1 -10 -9l-10 -12l-2.5 -2.5t0.5 -1.5
l-4 -6l-11 -6q-15 -11 -20 -27v-2q-15 -10 -23 -20q-14 -17 -16 -17q-3 0 -6 -6q-2 -4 -23 -25q-18 -18 -18 -22q-2 -3 -18 -20t-17 -17q-3 0 -14 -14q-7 -15 -13 -15q-6 -6 -12 -14l-20 -20q-8 -5 -21 -23q-7 -14 -12 -14q-3 0 -16.5 -14t-16.5 -21q-1 -2 -6 -4.5t-9 -3
t-5 1.5q0 3 15.5 21t27.5 28l63 67l49 56l66 69q16 16 16 21l2 4q14 9 21 25l10 10l4 2l25 28q3 5 13 15t11 10q4 0 4 2t21 27q18 21 20 26l4 4q4 0 23 23l47 51l6 4l14 15l78 82q31 35 31 36q0 4 2 2q4 -4 8 5q8 9 57 54.5t56 49.5q12 8 12 12q11 11 14 13q9 6 17 14
q7 7 51 43q11 9 13 5q1 -1 1 -3q5 -10 2 -23q0 -20 -24 -51q-46 -59 -119 -174q-100 -166 -139 -242l-45 -88l-15 -28q-17 -38 -71 -121q-71 -116 -92 -160l-23 -43q-4 -6 -4 -14l-4 -2q-14 -14 -14 -35l28 39q0 4 6 10q2 0 6 4t5 8l8 11l10 14l21 22q16 26 79 103l45 55
l21 25l49 57q48 54 49 55l156 177l20 24l64 70l49 55l27 27l30 34q11 7 11 13q3 6 6 6q8 6 14 14q8 10 47 49l19 21l32 35l19 18l90 92l213 207l22 17l29 20q7 7 21 14l16 4q9 3 14 -8q7 -9 11.5 -23.5t-0.5 -15.5q-13 -8 -19 6q-8 19 -27 3l-38 -29q-17 -14 -21 -14
q-1 0 -2.5 -1.5l-2.5 -2.5l-3.5 -3.5l-3.5 -3.5l-23 -22l-262 -271l-49 -51q-4 -6 -12 -12l-52 -55q-20 -25 -47 -52l-14 -14q-5 -7 -27 -27l-116 -131l-127 -149l-95 -105l-65 -77l-23 -25l-61 -76l-18 -22q-1 -3 -21 -29q-18 -18 -53 -65l-64 -86q-18 -23 -34.5 -48.5
t-18.5 -33.5q-4 -3 2 -9q4 -2 0 -8zM254 -219q-17 -9 -25 -7.5t-16 13.5q-16 28 -4 74q6 24 10 25q2 0 6 -1q8 -3 11 -16q2 -14 -3 -19q-9 -9 -4 -30q3 -10 7.5 -11.5t19.5 3.5q17 8 59 43q24 24 27 28q11 14 16 17q7 0 15 12l14 16q6 6 10 6q6 6 6 9q0 4 5 4l18 18
q3 3 7.5 8t7.5 8.5t5 4.5q13 9 109 118l139 152l109 125q20 20 24 22q3 1 6 1t3 -1q2 -1 -2 -7t-9.5 -11.5t-7.5 -5.5q-3 0 -20 -21q-36 -46 -43 -53l-21 -22l-12 -17l-27 -26l-47 -54q-28 -32 -29 -34q0 -2 -2.5 -4.5t-3.5 -2.5q-6 -4 -12 -10q-10 -12 -12 -10t-2 -2
q0 -10 -11 -17q-8 -8 -16 -20q-9 -13 -12 -10q-3 0 -8 -10q-2 -6 -13 -17q-3 -2 -63 -67q-37 -47 -51 -52q-6 -6 -6 -8q0 -3 -13 -12q-14 -14 -26 -29q-13 -20 -19 -20q-4 0 -8 -8q-9 -14 -18 -17q-3 -2 -13 -12q-4 -12 -55 -43z" />
    <glyph glyph-name="O" unicode="O" horiz-adv-x="1460" 
d="M254 -18q-35 14 -45.5 53t8.5 90q7 26 16 45l11 18l6 13l4 12q0 4 2 6q3 1 7.5 12.5t4.5 14.5q0 2 2 4q4 1 13.5 16t11.5 21q0 8 4 8q2 0 2 4t2 2q4 0 8 12q16 24 17 25q2 3 4.5 7t4 6t1.5 3q0 5 74 103l32 41q4 7 23 26q6 6 6 8t1.5 3t2.5 0q2 2 2 4q12 12 15 16l26 29
l23 22q10 7 10 12q10 11 20 19l35 33q15 12 25 22l29 23q46 39 106 78q44 28 59 30q13 0 15 -4q1 -1 -9 -9t-53 -38q-6 -4 -47 -33l2 -2l-18 -14q-8 -10 -19 -16q-15 -10 -59 -54l-43 -41l-27 -26l-69 -74q-3 -3 -19 -22t-24 -29l-29 -39q-50 -66 -63 -90l-21 -31
q-3 -3 -29 -50t-28 -52q0 -1 -1 -4t-2.5 -7t-2.5 -6q-16 -22 -31 -82q-11 -29 0 -63q5 -9 15.5 -19.5t17.5 -11.5q9 -1 42 8t56 19l2 2q9 3 12 6q2 2 2 0q0 -3 15 4l43 21q6 2 22 10l43 20q3 1 17 8l16 9h2q24 10 41 20q10 5 27.5 14.5t23.5 12.5q21 10 31 18l27 17
q89 52 118 77q9 9 37 29q44 29 113 84l121 98q63 55 63 58q0 2 8 6q4 2 39 37q37 37 41 39q7 7 4 10q0 2 2 2q3 -3 9 4l36 41l31 35q25 25 27 28l6 9q3 0 10 10l8 10q5 0 8 6l21 25l27 33l26 26l17 21l10 10q12 12 69 88l11 12q9 9 18 27q2 4 14.5 20t16.5 19l6 6
q0 4 4.5 14t7.5 13q29 39 25 43l10 18q12 16 8 16q0 1 4 9q7 14 9 22l8 27q6 17 11 40t3 25q-4 4 0 11q11 30 -8 106q-8 32 -23 47q-7 3 -4 6q3 2 -10 4q-32 6 -57 4q-21 -3 -69.5 -16t-65.5 -20l-50 -21l-20 -10l-21 -8q-68 -34 -77 -39l-21 -13q-106 -60 -217 -159
l-31 -27l-22 -20q0 -1 -26 -26t-32 -30q-7 -4 -22 -22l-18 -21l-7 -4q-9 -3 -16 -10l-14 -14q0 -2 -4 -6l-11 -15l-4 -4l-8 -6q-8 -8 -10 -12l-17 -19q-12 -12 -18 -22l-23 -29l-20 -27l-25 -34l-16 -25q-19 -27 -25 -25q-1 1 6 15.5t19.5 36t24.5 36.5l26 39q4 4 10 12.5
t10 13.5t7 7q1 2 3.5 5t3.5 4.5t1 2.5l16 21l17 18l12 15l21 18l20 23l33 32q6 5 43 39q17 19 53 45l16 17q9 11 44.5 40t39.5 29h2l9 7q6 8 39.5 31t62.5 40l35 21q105 59 149 76l37 16q5 5 8 2l9 4q12 6 75 25l33 8l27 6q12 4 33 4q41 4 61 -12q23 -23 29 -47
q12 -36 12 -95q-4 -67 -25 -131q-13 -39 -57 -114l-14 -21q-11 -19 -66 -92l-20 -31l-2 -4q-1 1 -6 -4.5t-27 -32.5q-31 -39 -57 -65l-17 -19l-22 -24l-17 -21l-20 -22l-29 -33l-39 -41l-33 -37q-6 -8 -16 -18q-4 -4 -4 -6q-8 -9 -16 -15q-24 -21 -70 -67q-3 -6 -10 -6
q-2 0 -4 -2q-7 -7 -11 -7q-8 -8 -8 -10q0 -6 -8 -10t-8 -6q0 -4 -8 -8q-2 -1 -10.5 -8.5t-12.5 -10.5l-29 -24l-28 -23q-3 -2 -66 -53l-24 -19q-22 -19 -80 -59l-31 -25q-3 -3 -25.5 -20t-29.5 -21l-45 -28l-74 -45q-1 0 -3 -1t-3 -1l-8 -6q-12 -6 -15 -9l-18 -10
q-1 0 -3 -1t-3 -1q-4 -4 -9 -4l-61 -33l-14 -8l-41 -21l-8 -4h-3l-16 -10l-14 -8q-2 2 -15 -4q-9 -6 -14 -6q-3 0 -12 -6q-10 -5 -12 -5q-6 0 -15 -6q-8 -6 -26 -10l-31 -12q-17 -7 -43.5 -10t-36.5 0z" />
    <glyph glyph-name="P" unicode="P" horiz-adv-x="1492" 
d="M211 -88q-6 2 -4 12q4 13 6 13q13 7 51 59l21 24l26 29q59 59 99 109q10 13 20 20l16 19l15 20l20 21l17 18l12 16q8 12 14 15q6 6 6 8q0 1 23 24q20 20 20 23q0 1 2.5 3t7 6t7.5 7l14 17q0 2 10 12q51 51 54 57q6 6 2 11l-6 2q-6 2 -10 12t-3 20q5 13 6 15q2 2 2 4
q0 3 17 20l22 23q6 7 44.5 35t41.5 28l37 21q19 9 23 16l8 8q0 1 8 13q4 6 10 12l273 303q4 3 20 20.5t19 22.5q0 1 -2 0.5t-4 -1.5l-2 -1q-5 0 -5 -2q-4 -4 -6 -4l-8 -4l-6 -4q-3 -2 -14.5 -11t-29.5 -23l-36 -28q-14 -10 -14 -12q-9 -8 -17 -14l-16 -17q0 -2 -4 -6
q-6 -3 -17.5 -18t-11.5 -21q-2 -7 -9 -5q-4 1 -3 5q3 38 31 60q6 6 8 6l6 6q2 3 7 7t7 7q16 16 113 84l18 15q1 1 4 2t5 2l6 6l6 2l10 6q2 1 5 4t5 4q1 1 2.5 1.5l3 1t3.5 1.5l4 4l14 9l8 8l6 4q2 0 4 2.5t4 3.5l9 6q3 10 8 12l29 29q1 1 36 43l21 27l16 18l15 17q0 2 12 14
l98 117l15 18q4 6 28 28t29 25q10 6 2 7q-4 1 -12 -1l-27 -4l-88 -12l-264 -45l-56 -10l-38 -6l-35 -9q-45 -6 -105 -20q-140 -28 -211 -51q-12 -6 -22 -6q-8 0 -15 -7q-10 -5 -22 -8q-43 -10 -70 -22l-26 -8q-1 -1 -7.5 -4t-9.5 -5l-37 -16q-70 -35 -94 -53l-16 -10
q-17 -10 -32.5 -29t-12.5 -25q3 -3 1 -7.5t-7 -4.5q-6 0 -9 8q-2 8 0 18.5t5 10.5q2 2 2 4q0 13 41 43l28 18l29 17q28 14 33 14t8 6l37 15q29 11 32 14q4 4 11 4l12 4l12 6l31 10q6 2 29.5 9.5t42.5 13t24 6.5l78 21l21 6l110 24l184 37l37 6l31 7l186 30l82 17
q38 7 65.5 11t43.5 7q41 4 41 8q12 8 20 -4q10 -17 -14 -31q-45 -25 -70 -57q-46 -49 -86 -100q-3 -6 -13.5 -17t-12.5 -14l-21 -23q-34 -42 -43 -47q-2 -2 -2 -4t-16.5 -23t-20.5 -24v-2q6 0 52 23l32 14q101 38 101 41h2q6 0 8 2q4 4 10 4q4 -2 12 2q1 1 3 2t5.5 2t4.5 2
l82 23l43 12l32 8q38 11 68 15q21 4 23 6q5 2 26 -2t27 -8q32 -23 -15 -113l-16 -31q-14 -30 -41 -67l-31 -37q-14 -20 -36 -39l-21 -19q-9 -9 -111 -84q-94 -72 -94 -73q0 -2 4 -2q5 2 14 -7t7 -14q0 -3 -6.5 -7t-10.5 -3q-6 0 -12 6q-6 4 -22 4q-16 -3 -56 -33l-43 -28
l-28 -19q-49 -36 -66 -43l-20 -12q-2 -2 -64 -39l-26 -12l-123 -60l-15 -6l-112 -47l-25 -8q-13 -7 -55 -21.5t-62 -19.5q-42 -11 -51 -8q-5 0 -10 -3.5t-20 -19t-44 -47.5l-61 -65l-10 -13l-27 -28q-33 -33 -65 -76q-15 -16 -65.5 -73t-55.5 -62l-13 -13l-28 -32
q-17 -14 -37 -39q-10 -14 -34 -37.5t-36 -32.5q-8 -8 -14 -8zM909 684q2 -3 7 -2t12 4l6 2q32 18 41 14l6 3q0 5 29 14q10 3 10 6q6 2 10 2q11 0 31 8q137 47 151 47q9 0 13 2q34 13 61 17l117 22q39 7 47 15q57 37 76 53l57 43l45 35q47 37 47 39q0 4 4 4q6 0 47 41
q7 8 20.5 22.5t20.5 22.5t7 10l12 18q10 13 10 19q-4 0 4 4q1 1 3 4.5t6 10t6 10.5l26 57l17 35l-5 8q-5 10 -20 12q-35 5 -119 -18l-28 -8q-89 -21 -95 -27l-12 -4q-40 -12 -80 -27l-31 -12q-11 -3 -22 -10q-6 -3 -6 -2t-44 -19.5t-63 -30.5q-44 -27 -57 -36t-27 -25
q-55 -55 -55 -63q-6 -6 -8 -7q-2 -2 -4.5 -5.5t-3.5 -4.5l-2 -2q-5 0 -5 -4q0 -3 -20 -23l-21 -20l-18 -23l-49 -55q-86 -101 -102 -112q-1 -2 -4 -5t-3 -4q-8 -12 -20 -24l-10 -13l-4 -6l-5 -2l-4 -4q0 -1 -1 -3t-1 -3zM743 481q1 -3 19.5 0t23.5 6q6 5 9 2q1 0 4 1.5
t9 3.5t11 4l53 18l39 14q7 7 13 7q2 0 10 4q6 6 12 6q7 0 23 8l57 27l39 16q5 0 14 6q13 9 37 19l37 18l35 21l33 16l36 24q43 27 93 62q45 33 46 36q0 1 -3 1q-7 4 -11 0t-22 -4l-33 -6l-12 -5l-25 -6h-8l-39 -8l-16 -4l-10 -2q-8 -3 -35 -10.5t-31 -7.5l-29 -9l-35 -12
q-88 -29 -126 -47l-21 -8q-3 0 -32 -14t-34 -17q-14 -14 -24 -29q-21 -26 -68 -77q-12 -13 -16 -23l-16 -18q-9 -13 -7 -13zM688 477q14 0 14 4q0 2 9 11l82 96q10 10 10 14q-6 3 -21 -12l-8 -4l-8 -6q-24 -16 -35 -27q-25 -20 -35 -33q-33 -35 -18 -41q3 -1 10 -2z" />
    <glyph glyph-name="Q" unicode="Q" horiz-adv-x="1425" 
d="M279 -66q-9 -2 -27 5q-17 4 -25.5 13.5t-17.5 31.5q-9 28 0.5 68.5t44.5 109.5q18 36 18 43l2 4q1 -1 6 5t11 17l18 37l29 47l29 52l67 100l19 25l53 73l14 21l12 18q4 4 35.5 42.5t36.5 45.5q9 14 17 19q4 4 16 22q6 9 16 19l33 32q12 17 68 64l26 24q76 71 96 67
q4 0 3 -5q0 -7 -76 -68q-48 -40 -90.5 -82t-42.5 -51q0 -2 -4 -2q-1 0 -12.5 -12.5t-25.5 -29t-20 -25.5l-24 -31l-2 -8l-11 -7l-51 -69q-6 -12 -12 -21q-4 -7 -9 -15.5t-12 -18t-10 -15.5l-6 -10q-7 -9 -17.5 -27.5t-15.5 -25.5l-2 -4l-37 -56q-2 -3 -4.5 -7.5t-4 -7
t-1.5 -3.5q0 -3 -12 -23q-37 -61 -37 -65t-4 -8q-1 0 -12 -19l-11 -20l-32 -68q-25 -56 -32.5 -80t-6.5 -43l4 -18q4 0 2 -2q-4 -15 22 -33q2 -2 6 -2h7q23 5 26 6l31 12l27 13l73 37l41 22q2 0 2 2q-13 16 -39 29q-17 11 -24 6l-12 -4q-5 0 -11 -6q-17 -14 -24 0
q-13 15 -12.5 33t14.5 18q6 0 22 -4.5t19 -7.5q1 -1 5 -0.5t10 2.5t9 4q4 4 17 4l28 6q13 7 105 16l31 5h22l4 4q36 24 96 71q22 17 82 74q15 14 97 84l63 55l19 17q7 10 34 32l113 99l39 30l18 21q21 21 31 29q21 18 21 20q0 4 4 4q12 11 22 25l35 39q12 12 12 16t4 4l4 4
q0 4 2 4q5 0 9 9l24 32l15 13l28 34l27 35l10 15l19 22l16 23q3 1 28 41t31 53l17 35l16 39l14 32q7 21 7 23l10 33l10 28l10 25l11 31l6 24q4 9 8 40.5t2 41.5q0 8 -4 8q-2 2 0 4q2 3 -3 15t-9 16q-7 10 -39 10q-15 0 -21 -2l-29 -6l-24 -6q-5 -3 -35 -17t-64 -30t-44 -21
l-19 -8l-22 -10l-23 -12l-31 -15q-21 -12 -28 -12t-47 -25q-17 -8 -23 -10q-36 -14 -92 -53l-21 -10l-18 -13l-37 -26q-98 -64 -184 -146l-17 -12q-33 -23 -55 -45l-29 -29q-21 -21 -54 -61.5t-50 -58.5q-54 -68 -59 -68q-9 0 4 16l18 27l14 20l13 15q9 14 45 56t53 59
l16 16q0 4 5 4q2 0 10 8l14 17l14 14q32 31 125 108l54 41q38 29 41 31l26 19q127 79 135 79q2 0 22 10t28 15l32 16l68 31l26 14l27 13l76 39q15 7 14 10q3 0 43 14q54 19 94 23h25q31 1 45 -10t23 -43q2 -8 2 -46q-3 -53 -37 -139q-13 -32 -17 -49l-8 -29l-18 -41
q-30 -78 -64 -127l-14 -22l-18 -23l-43 -57l-41 -51l-72 -86q-4 -8 -8 -8q-4 -4 -4 -7q0 -1 -13 -14l-22 -22l-15 -19l-51 -49q-30 -23 -30 -29l-9 -8l-180 -158l-158 -143q-5 -5 -11 -10t-10 -8t-5 -4l-2 -2q0 -3 -6 -9l-64 -55l-8 -8q0 -3 -1 -4t-3 0q-1 0 -51 -37
l-19 -16q182 0 330 -5q198 -9 207 -34q3 -7 -2.5 -11.5t-20.5 -7.5q-29 0 -26 12q3 9 -21 9q-8 0 -12 4l-31 4l-47 4q-35 2 -131 4.5t-105 1.5h-112q-2 -2 -35 -2q-17 0 -25 -2l-4 -2l-28 -19q-54 -39 -70 -47l-35 -20l-8 -6q0 -1 1 -4.5t1 -5.5h-18v2h-2q-9 -5 -17 -11
q-14 -8 -33 -16l-38 -21q-27 -13 -68 -28q-51 -17 -61 -15zM500 57q49 28 106 66q-54 -4 -65 -8q-3 0 -22.5 -4.5t-41.5 -8.5l-16 -4l-8 -4l10 -6q31 -23 37 -31zM387 98v2l-2 4q-6 0 -2 -4z" />
    <glyph glyph-name="R" unicode="R" horiz-adv-x="1296" 
d="M1196 -385q0 -3 -2 -4t-7.5 0.5t-14.5 5t-25 10.5q-66 26 -94 51q-42 42 -64 115l-12 41q-6 15 -6 25q0 4 -4 20q-12 36 -19 136.5t0 160.5l2 43l4 35l2 18l9 41q4 12 4 23q0 14 4 26q6 19 12 54l4 18l10 39l11 45l10 33l33 111q5 7 16 47q1 3 4 9t4 9l4 10q0 6 2 8t2 7
l5 10l6 31l2 6l6 8l2 6l2 12l6 19l6 20l4 17q0 2 1 4.5t1 3.5l-2 -2q-2 -2 -5 -5.5t-8 -9t-13 -12.5l-45 -51l-66 -76q-11 -11 -20 -26l-9 -9q-12 -16 -20 -24l-4 -6l-16 -23q-18 -21 -52 -55l-53 -62l-35 -41l-61 -73l-21 -27l-57 -72l-16 -24q-1 -1 -10 -11.5t-11 -15.5
q-18 -18 -49 -63l-61 -84q-47 -63 -50 -80q0 -4 4 -8q6 -3 0 -9t-12.5 -5t-11 9.5t-2.5 20.5q6 32 63 111q39 57 39 59q2 4 8 10q7 7 9 13l6 12l12 12l18 23q24 35 74 98l43 53q20 27 61 75.5t54 61.5q3 2 8 11q1 2 5 5t5 5l9 8l14 16l12 15l17 18l12 15q4 6 12 14l10 18
q2 2 6 5.5t7 6.5t6 7q6 11 20 22l21 27l106 121l25 26q12 14 31 33q2 0 2 2q1 4 1.5 9t1 8t1.5 4q2 2 14 2l8 8l43 47l21 21l28 32l19 19l84 88l57 57q1 1 2 3q1 3 2 3l6 4q5 2 9 11l10 8l39 41l55 61l12 15q2 3 11 12l12 12l16 23q6 6 4 8q6 6 8 10l-53 -12q-3 3 -53.5 0
t-85.5 -8l-43 -2l-70 -7q-66 -3 -69 -6l-17 -2q-90 -9 -92 -10q-1 0 -10.5 -1t-15.5 -1q-23 0 -27 -2l-57 -8l-82 -9l-41 -6q-68 -6 -92 -14l-50 -8l-10 -2q-3 0 -9.5 -1.5t-22 -5t-33.5 -6.5l-60 -12q-24 -4 -26 -6t-25 -6l-25 -6l-10 -4l-71 -21q-36 -9 -58 -22
q-2 -2 -8 -2q-5 0 -41 -18t-37 -21l-24 -19q-32 -22 -48 -43q-6 -9 -10.5 -31.5t-1.5 -35.5l4 -25q3 -28 13 -47q11 -22 2 -22q-4 1 -9 6q-17 21 -20 53q0 18 -4 18q-5 3 -1.5 40t9.5 44q3 3 8 17q8 12 10 12q10 5 17 12t21 18t16 11l22 12q12 9 32.5 20t25.5 11l14 6
q38 14 43 14l10 2l23 9l43 12q35 10 45 10q17 3 26 8q2 0 11.5 2.5t28 7t32.5 7.5l72 14l20 2l47 8q59 11 92 15l68 8l279 31q24 4 28 6q1 0 12.5 1t18.5 1q37 0 49 2l107 12l135 10q16 0 28 6q1 0 2.5 1.5t2.5 1.5q22 10 34 10l13 4q4 4 16 0q21 4 29 -4q3 -4 -2.5 -10
t-14.5 -9t-28 -14t-21 -14q0 -3 -6 -9l-6 -8q-1 -2 -5 -5t-5 -5l-6 -12l-7 -6l-4 -7l-12 -12q-8 -8 -8 -10q-17 -19 -35 -37l-100 -104q-27 -27 -27 -29t-4 -6q-12 -10 -64.5 -63.5t-52.5 -57.5l-22 -25q-23 -23 -23 -24l-12 -12q-8 -8 -10 -11q22 8 43 25l24 20l64 45
l217 146q14 10 46 29.5t34 19.5l18 8q26 16 89.5 40.5t88.5 27.5l19 4q2 2 24 6q19 0 23 4q3 2 30.5 0.5t28.5 -4.5q13 -17 -51 -78q-43 -43 -49 -43t-6 -2q-1 -6 -39 -26.5t-72 -34.5l-39 -19l-59 -26l-56 -21q-60 -23 -163 -61q-52 -19 -58 -25q-9 -5 -35 -12l-63 -25
q-31 -14 -39 -14q-5 0 -20 -12q-6 -5 -17 -19l-43 -72q-14 -21 -14 -24l-6 -19q-39 -109 -39 -110l-17 -53l-24 -70l-12 -45l-21 -70l-6 -14l-6 -31l-10 -37q-23 -90 -31 -159q-10 -71 -9.5 -177.5t11.5 -142.5q4 -8 4 -24q5 -42 22 -97t35 -84q27 -47 84 -67q74 -29 74 -35
zM1311 1028q8 0 67 23l199 75q25 7 31 13q2 2 26 10q27 7 97 40.5t106 55.5q69 45 96 78q10 18 6 20q-5 3 -24.5 4.5t-22.5 -1.5l-18 -3q-38 -6 -93 -24t-75 -31q-9 -6 -16 -6q-3 0 -19 -8q-8 -8 -18 -8q-1 0 -17 -11q-10 -10 -22 -14q-12 0 -12 -6q-5 -4 -11 -6l-69 -49
q-1 -1 -8 -6t-9 -9q-44 -35 -51 -35q-3 0 -37.5 -23t-48.5 -34q-12 -12 -18 -12q-2 0 -12 -8t-19 -16t-8 -9z" />
    <glyph glyph-name="S" unicode="S" horiz-adv-x="1990" 
d="M606 -131q-6 2 -16 2q-5 -3 -49 9t-80 24l-82 33l-25 12q-46 22 -69.5 39.5t-46.5 48.5l-17 20v2l-6 21q-36 91 55 188q6 7 11 12.5t9 9.5t9.5 9t8.5 7.5t11.5 8.5t11.5 8t15.5 10.5t18.5 12.5q49 34 77 45l62 25q10 5 34.5 13t26.5 9q31 7 37 13q1 0 4.5 1t9 2.5
t9.5 2.5l39 8q58 15 92 22q37 5 43 11q4 2 6 2q5 -1 15.5 -0.5t13.5 2.5l26 4q6 0 16 1l9 1q16 8 39 8l39 4q176 27 264 27q42 0 67.5 0.5t38 -2t16 -5t1.5 -8.5q0 -5 -19 -16q-6 -2 -11.5 1t-4.5 7q0 6 -53 6q-107 0 -134 -4q-28 -4 -36 -4q-32 0 -41 -6q-1 0 -6 -1t-7 -1
h-14q-30 -6 -53 -6q-11 0 -31 -4l-22 -4q-14 0 -50 -8l-16 -3q-4 0 -43 -8l-25 -4l-47 -10q-24 -3 -78.5 -17t-74.5 -22l-37 -12q-14 -5 -50.5 -19.5t-37.5 -15.5l-17 -8q-35 -14 -120 -76q-10 -6 -39 -36.5t-29 -35.5q0 -2 -4 -10q-31 -31 -31 -86q0 -16 7 -40.5t14 -31.5
l16 -22q15 -22 44 -43.5t48 -24.5l17 -8q16 -10 49 -22l53 -23q93 -38 170 -35h31q39 -3 149 12l35 9l39 8l37 8l26 4q3 0 15 4l27 9t20 6l14 6q3 -1 50 18.5t57 24.5l20 12q44 23 64 43l28 20q22 13 31 25l18 14q50 40 50 45t8 9q8 6 20.5 17t12.5 13q0 5 12 13
q18 13 18 16l8 8q7 7 11 15l2 4q2 -2 17 13.5t24 27.5l6 6q4 0 4 4t4 4q2 0 6 4l25 31l18 20l33 39l47 55q4 4 4 9q0 4 4 4q13 12 23 26q25 34 35 41q12 16 12 19l4 4l6 6q4 8 6 8q1 -1 2.5 0.5t1.5 3.5q0 6 4 6q5 0 3 2q0 1 7 11.5t17 24t16 20.5q9 9 9 14q4 8 6 8t2 6
q0 5 2 3q6 6 12 14q5 10 17 22l8 9q0 2 19.5 28.5t23.5 30.5l8 10l10 15l12 18q3 2 16 20t13 21l4 4q3 0 10 11.5t7 13.5q0 4 2 4q4 -4 4 2q0 3 1 4t3 0l4 4q0 6 10 16l51 70l21 31q0 2 8 14l14 18l7 11q1 0 2.5 2.5t5 7.5t6.5 8l16 25l13 20q23 33 36 58l21 28q16 24 16 29
l3 5q4 4 6 5q6 3 14 19l26 36q17 25 15 25q0 1 -3 -0.5t-9 -5.5q-13 -9 -29 -15q-17 -8 -17 -10q-4 -2 -8 -2q-2 0 -14 -6q-3 -2 -27 -14q-20 -8 -35 -17l-18 -10q-2 0 -32.5 -13.5t-35.5 -17.5l-8 -4l-6 2l-14 -8q-12 -8 -12 -4q-7 0 -13 -4q-4 -4 -24 -12q-5 -1 -14.5 -5
t-10.5 -4q-25 -15 -55 -24q-24 -8 -25 -8q0 -2 -4 -2q-1 1 -2.5 0.5t-5.5 -2.5l-10 -5l-15 -4q-9 -6 -14 -6q-6 1 -27.5 -7t-21.5 -11q0 -4 -6 -4q-3 2 -27 -7t-24 -12q0 -2 -62 -22l-22 -8l-21 -7q-1 -1 -33 -12l-18 -6q-6 -3 -32.5 -10.5t-29.5 -7.5q-2 0 -12 -5
q-6 -6 -12 -6l-33 -8q-23 -10 -31 -10h-6q-2 -4 -127 -41q-39 -10 -43 -14h-8q-4 0 -12 -4l-10 -5q-5 0 -56 -14l-86 -22l-65 -17q-32 -5 -117 -26q-2 -2 -25 -7l-32 -6q-6 -2 -17 -2q-7 0 -28 -6l-29 -4q-13 0 -19 -4l-32 -6l-35 -4q-16 -4 -45 -4l-37 -5h-12l-9 -2h-30
q-27 4 -35 0q-34 0 -70 4q-14 4 -22 15q-6 9 -6 18q0 10 8 10q12 -4 18 -8q14 -12 33 -12h27q47 -3 90 0q19 0 80 6.5t75 9.5l19 4l33 5q32 5 34 6l17 4q21 0 45 8l155 35q165 38 242 63l100 29l39 14l15 4h8q0 3 25 11q14 2 30 10l8 2q4 -4 43 12l52 17l104 36l29 9
q27 10 30 10q8 0 17 6t33 14q11 2 30 11l17 8l125 47q25 10 26 12l17 6l16 7q8 8 57 26l23 12l51 27q31 16 31 18q2 2 4 0q1 -1 16 7l17 10q2 0 20.5 9.5t26.5 14.5l12 7q4 0 4 4q0 3 10 6l7 4q0 4 2 2q4 0 8 4l12 14q5 4 14.5 14.5t16.5 19.5t6 9l22 14q2 1 3 1q3 2 6.5 -4
t3.5 -13q-4 -20 -27 -37q-32 -28 -67 -73l-25 -33l-12 -20l-17 -23q-14 -19 -80 -123l-18 -29l-68 -96q0 -4 -34 -49l-52 -70l-22 -32l-29 -41l-24 -35l-33 -41l-107 -146q-50 -73 -59 -77q-4 0 -4 -6l-4 -7q-2 2 -17 -16l-16 -20q-6 -6 -27 -30.5t-24 -29.5
q-2 -3 -23 -27.5t-30 -33.5l-21 -27q-19 -23 -27 -27q-8 -8 -12 -14t-22 -24l-58 -56l-12 -12l-90 -82l-14 -12l-33 -23l-37 -26q-21 -17 -62.5 -39.5t-64.5 -30.5l-39 -16q-16 -7 -63 -21q-35 -8 -39 -12q-5 -6 -9 -2q-6 0 -10 -2l-76 -17q-50 -10 -100 -14l-35 -2
q-12 -3 -63 -3t-68 3z" />
    <glyph glyph-name="T" unicode="T" horiz-adv-x="933" 
d="M231 20q-6 -6 -12.5 -5t-11 9.5t-2.5 20.5q6 32 63 111q39 57 39 59q2 4 8 10q7 7 9 13l6 12l12 12l18 23q25 35 74 98l43 53q20 27 61 75.5t54 61.5q3 2 8 11l10 10l6 8l15 16l12 15l19 18l12 15q4 6 12 14l10 18l19 19q4 8 18 22l23 27l106 121l25 26q25 29 31 33
q5 3 10 12q0 7 4 7q8 6 14 14l43 47l49 53l19 19l84 88l57 57q1 1 2 3q1 3 2 3l6 4q5 2 9 11l10 8l37 41l57 61l12 15q4 6 10 12l13 12l2 4l-12 -6q4 7 -7 7q-6 0 -43 -3q-131 -13 -137 -16q-4 -4 -8 -2q-2 0 -37 -6t-76 -12.5t-53 -8.5l-154 -24l-28 -5q-27 -4 -71.5 -18.5
t-61.5 -22.5q-15 -9 -15 -14q0 -14 -18 -10q-16 0 -10 22q5 9 20 17q16 8 21 8q2 0 10 4q9 6 22 8l41 13q38 12 369 61l41 6l119 15l61 6l25 2q9 -3 18 0q4 4 2 6q13 13 13 29h6q6 0 18 4q6 4 14 4q3 0 19 4q7 3 19.5 2.5t15.5 -4.5t-2.5 -10t-14.5 -9l-32 -16h18
q35 3 146 8.5t137 5.5h86q35 1 70.5 1t70.5 -0.5t47 -0.5q128 -4 283 -18l53 -6l45 -4q21 -2 65 -9t62 -10q53 -7 57 -20q3 -6 -4 -17q-8 -10 -16 -10t-8 10q-5 15 -15 15l-18 6q-20 4 -27 4q-14 0 -18 2q-46 9 -101 14l-24 2l-17 2l-153 15l-123 8l-51 2h-133q-6 3 -111 0
q-39 0 -167.5 -8t-162.5 -13q-3 0 -8.5 -1t-7.5 -1l-4 -6q-1 -2 -5 -5t-5 -5l-7 -12l-6 -6l-4 -7l-12 -12q-8 -8 -8 -10q-17 -19 -35 -37l-100 -104q-27 -27 -27 -29t-4 -6q-12 -10 -64.5 -63.5t-52.5 -57.5l-22 -25l-25 -24q-4 -6 -10 -12q-12 -8 -49 -54l-45 -49l-13 -14
q-2 -2 -5 -5.5t-8 -9t-13 -12.5l-45 -51l-66 -76q-11 -11 -20 -26l-9 -9q-12 -16 -20 -24l-4 -6l-17 -23q-24 -28 -51 -55l-53 -62l-35 -41l-61 -73l-21 -27l-57 -72l-16 -24q-1 -1 -10 -11.5t-11 -15.5q-18 -18 -49 -63l-62 -84q-45 -61 -49 -80q0 -4 4 -8q6 -3 0 -9z" />
    <glyph glyph-name="U" unicode="U" horiz-adv-x="1685" 
d="M848 -168q-4 -3 -13 4.5t-12 16.5q-5 7 -1 14.5t32 42.5l23 29l16 20l35 45l33 37q6 6 6 10q0 5 14 19q94 109 111 135l20 20q7 7 16 19q15 22 96.5 117t141.5 161q111 123 111 127q0 2 2 2q5 0 26 25l31 31q4 5 18 20.5t25.5 28.5t11.5 14q0 3 15 14q12 12 12 17
q-2 2 0 2q2 -3 33 28l55 62q69 69 61 65q-4 0 -8 -8l-4 -4q-3 1 -13.5 -5t-10.5 -9q0 -4 -7 -4q-6 0 -27.5 -20t-19.5 -23q0 -2 -2 0q-10 0 -33 -23l-8 -6q-2 0 -10 -8q-2 -4 -8.5 -8.5t-7.5 -5.5q-11 -4 -15 -11l-20 -16q-3 -3 -13 -11.5t-12 -11.5q-8 -8 -12 -8l-17 -13
q-17 -13 -22 -18q-17 -20 -24 -20q-15 -5 -23 -16q-12 -15 -51 -45l-10 -7q-41 -37 -68 -53q-15 -9 -72 -55q-15 -15 -24 -17q-13 -9 -13 -10q0 -2 -23 -20.5t-26 -18.5q-2 -2 -4 -2q0 -3 -28 -24.5t-37 -26.5l-13 -8q0 -5 -49 -39l-16 -14q-63 -45 -68 -47q-12 -8 -12 -11
q0 -4 -4 -4t-12 -8q-2 -2 -13 -9t-16 -11l-62 -41l-26 -17l-25 -16l-37 -21q-65 -35 -92 -18q-22 16 -22 20l-4 15q-6 29 12 73q11 31 41 84l6 11q0 7 29 43l8 12q0 1 20 29l29 39l35 43l2 2q0 1 26 34l41 50q27 36 144 165q37 43 35 45q0 2 2 0q1 0 4.5 3.5t9.5 10t12 11.5
q129 143 174 195l35 36l217 240q48 55 56 59q18 18 88 91l2 2q-62 -11 -103 -23q-3 3 -55 1t-86 -7l-113 -10q-64 -3 -69 -6l-15 -2q-82 -8 -94 -11h-24q-19 0 -27 -4q-2 -1 -9.5 -2t-23 -2.5t-26.5 -3.5l-80 -8l-43 -6q-67 -6 -90 -15l-50 -8l-10 -2q-13 0 -67 -12l-58 -12
q-23 -4 -26 -7q-2 -2 -25 -6l-25 -6l-38 -10l-45 -14q-33 -10 -56 -23l-10 -2q-3 0 -39 -18t-39 -21l-22 -18q-27 -17 -47 -43q-7 -9 -11.5 -31.5t-1.5 -36.5l2 -23q3 -24 15 -49q11 -21 2 -21q-4 0 -9 5q-16 16 -20 53l-4 19q-6 5 -2 40.5t10 43.5q4 4 8 16t11 12l16 13
q7 7 21 17.5t16 10.5l20 13q11 9 33 19.5t27 10.5l14 6q38 15 41 15q4 0 12 4l23 6l41 12q5 1 15 4.5t18 5.5l12 3q24 4 28 6q2 1 11.5 3t28 6t32.5 7l72 14l18 4l47 7q37 7 95 14l67 8l279 31q25 5 26 6q1 0 13 1t20 1l49 2l105 12l137 11q14 0 29 6q23 11 38 14l11 2
q3 2 9.5 1.5t12.5 -3.5q10 7 13 -2q0 -3 -3 -6l-6 -8q-6 -10 -41 -45q-21 -21 -104 -115q-27 -28 -64 -68.5t-41 -44.5q-6 -6 -14 -15l-8 -9q0 -3 -1.5 -4.5t-2.5 0.5q-4 -4 -6 -8q-9 -9 -11 -9q-4 0 -4 -4t-2 -4l-170 -186l-90 -101q-183 -197 -256 -288l-31 -39l-20 -27
l-23 -29q-6 -8 -17.5 -24t-25.5 -35.5t-20 -28.5l-16 -22q-7 -7 -7 -10q0 -4 -14 -25q-32 -61 -43 -102q-5 -19 0 -31q6 -25 29 -29q5 -1 20.5 4t28.5 11t12 8q-1 0 0 1t2 1h6q2 0 115 69l111 80l35 25l40 31l15 10l18 14q58 40 60 45q14 14 30 23l25 18l31 27l131 100
q12 8 12 10t4 2q1 0 3 2t5.5 4.5t5.5 4.5q58 49 62 49q2 0 20 15.5t21 19.5q1 2 4 4t4 2q11 6 21 16q32 26 36 29q12 9 21 18q12 12 18 15q38 25 49 39q1 1 39 28q21 13 35 27l10 10q5 0 13 8q5 5 20.5 17t16.5 12t7.5 5.5t15 12.5t11.5 9l11 10l8 6q1 0 11 6.5t13 9.5
q4 2 4 9q3 -2 16.5 7.5t24.5 22.5q13 13 17 15q9 6 49 38l29 29q67 62 67 66t4 4l6 2q0 1 4 5l11.5 11.5t13.5 14.5l74 69q35 31 35 35q0 2 2 2q3 -3 51 43q24 21 31 21q29 0 -19 -48l-30 -28l-13 -10l-16 -15q-15 -15 -14 -16q-3 -2 -5 -2q-4 0 -12 -8l-45 -43l-14 -13
l-21 -20l-26 -25l-29 -24q-11 -11 -14 -11q-2 -2 -4 -2q0 -3 -13.5 -15.5t-15.5 -12.5t-6 -4q-10 -15 -72 -68l-53 -49l-23 -21l-30 -30l-48 -45q-20 -20 -45 -50q-25 -25 -28 -26q-23 -23 -39 -41l-133 -143l-88 -97l-62 -69l-35 -39q-18 -19 -86 -99l-192 -227l-78 -94
q-4 -4 -4 -10q0 -2 -2 0q-6 0 -6 -2q0 -3 -25 -35q-82 -104 -82 -111q0 -4 -2 -4t-8 -6t-4 -21q3 -13 0 -16zM1774 963q4 0 12 8q8 7 8 9t-8 -5l-10 -8q-2 0 -2 -4z" />
    <glyph glyph-name="V" unicode="V" horiz-adv-x="1189" 
d="M217 -6q-6 2 -9.5 14t-2.5 27q0 9 8 34.5t14 36.5q4 7 0 11q0 2 2 2q0 -3 15 20l14 25q8 16 8 20t4 4q2 3 2 5q0 5 9 10q8 8 8 12q0 1 9.5 17.5t22 37t19.5 31.5l10 16l12 17l5 10q0 1 1 2.5t2.5 3.5t2.5 4q6 3 6 8q0 1 23 32t26 34l10 14l27 33q3 4 7.5 11t10.5 16.5
t9 13.5l34 41l29 37l25 29l20 26l37 41q49 58 49 62q0 2 4 2l8 8q8 13 58.5 75t101.5 117l35 39l12 15q97 97 182 192l11 12l18 17q66 70 66 71v3q2 -2 8 4l24 22q17 13 71.5 65.5t74.5 73.5q16 16 16 23l4 6q2 0 9 10q5 8 0 11q-25 20 -185 20q-69 0 -148 -3.5t-85 -6.5
q-2 -2 -23 -2q-26 0 -80 -8l-77 -9q-31 -1 -121.5 -17.5t-122.5 -25.5l-31 -10q-43 -10 -115 -37q-42 -15 -40 -4q0 3 6 8q7 10 120 45l17 5q5 1 41.5 11t42.5 11l47 10q63 11 129 19l76 8l82 10l71 6l31 2l51 4l84 5q28 2 91.5 0t80.5 -5l31 -4q19 0 27 -4q4 -4 10 -4
q9 0 21.5 -6t13.5 -12q6 -16 -58 -80l-51 -47q-34 -34 -70 -66q-73 -65 -157 -157q-19 -22 -73 -75.5t-81 -82.5l-147 -162q-15 -15 -55 -67.5t-46 -59.5l-51 -59l-39 -43l-28 -37q-37 -43 -74 -90q-5 -6 -12 -16.5t-12 -17.5t-7 -9l-20 -27l-31 -41l-29 -41l-22 -35
l-13 -20l-10 -17l-14 -24l-27 -41l-31 -51l-20 -37q-11 -21 -20 -45t-11 -38.5t2 -17.5q4 0 36 24t46 38l23 18l51 41l18 15l119 96l31 24l20 19l21 16q1 0 12 11q8 8 10 8q3 0 37 32q86 74 88 74l174 160l60 53q37 31 219 211l225 221q84 81 92 109q3 10 7 14q3 4 10 4
t10 -4q5 -11 -1.5 -29t-16.5 -22q-4 -2 -33 -27l-166 -159q-6 -6 -10 -6q-3 0 -10 -6.5t-7 -8.5q2 -2 -37 -39q-149 -149 -149 -153q0 -2 -2 -2t-33 -31t-35 -31q-8 -6 -14 -12l-16 -16q-7 0 -11 -11l-14 -14l-18 -12l-107 -97l-49 -43l-19 -16q-29 -29 -36 -29q-4 0 -4 -6
q0 -3 -13 -12l-67 -62l-27 -24l-39 -31l-27 -24q-24 -24 -59 -52l-22 -18l-31 -27l-41 -32q-27 -23 -31 -25q-8 -4 -20 -16l-41 -33l-56 -47q-3 -6 -8 -6q-6 -5 -12 -11q-23 -20 -37 -20z" />
    <glyph glyph-name="W" unicode="W" horiz-adv-x="1689" 
d="M637 -213q-21 0 -31 8q-20 15 -28 41l-5 25q-6 28 -0.5 71.5t17.5 73.5l6 21q0 6 6 18q4 4 4 8q-3 6 2 6q4 0 4 9l2 10q5 3 60 110q12 25 14 25q4 4 4 10l4 10q4 0 19 31q10 21 26 45l17 31q0 8 4 8l41 66l8 12l10 18q4 5 6.5 9.5t3.5 7t0 2.5q0 1 -1 0t-4 -3.5t-5 -4.5
l-6 -6q-19 -19 -20 -19l-13 -12l-20 -23q-8 -8 -8 -14q2 0 0 -1q-1 0 -2 1q-4 0 -33 -29l-103 -100q-36 -36 -77 -72l-25 -22l-16 -13l-13 -10l-73 -59q-42 -37 -54.5 -46.5t-21.5 -9.5q-31 0 -31 62q0 25 4 41q8 46 33 96q61 124 80 156l16 31l15 24l22 45l19 33l10 16
q6 12 24.5 41t22.5 33l8 12q3 5 27 33l8 10q5 10 35 45l55 70q3 3 7 8t6.5 8t4.5 4q5 5 5 9t4 4q6 6 10 12l37 49l16 19q8 12 8 14t4 6q4 0 21 21q42 56 184 200q75 75 99 107q4 8 10 14l22 27l19 20l24 27q33 41 88 88l27 22l23 21q16 12 24 20l33 33q24 17 24 25
q0 4 -26 4h-101l-81 -4q-39 -1 -236 -15l-47 -4l-35 -4l-59 -8l-37 -6l-45 -8q-10 -4 -25 -4q-6 0 -31.5 -6t-31.5 -9l-62 -14q-40 -8 -43 -8q-7 0 -16 -6q-8 -4 -19 -4q-9 0 -12 -3q-2 -2 -26 -10q-48 -11 -58 -14l-20 -6q-14 -3 -29 -11l-61 -28q-15 -6 -36 -21.5
t-26 -23.5q-3 -6 -9.5 -3t-6.5 9q0 15 33 37q9 9 67 35q73 27 109 36q14 2 112 29q168 46 332 62q172 16 189 16l67 6q40 4 100 4l64 2q0 1 64 0.5t69 -2.5q6 0 8.5 -8t-2.5 -12q-12 -21 -45 -47l-26 -23q-7 -7 -19 -16l-24 -21q-10 -10 -24.5 -21.5t-16.5 -11.5
q-2 -2 -2 -4q0 -6 -5 -6q-2 0 -18.5 -15.5t-39 -38.5t-36.5 -40l-33 -35l-22 -28q-63 -71 -119 -125q-114 -115 -137 -146q-24 -32 -43 -51l-98 -125l-35 -45l-19 -20l-61 -76l-8 -13l-25 -32l-14 -25l-15 -22l-16 -27l-8 -14q-5 -5 -19 -33l-26 -47l-19 -35l-8 -14
q-8 -12 -28.5 -49.5t-20.5 -38.5l-16 -35q-60 -117 -47 -185q3 -15 7.5 -20t10.5 0l10 6l54 45l53 39l26 23q33 22 56 45l61 55q30 29 132 130.5t114 117.5q17 17 14 22q0 2 2 0q1 -2 5 1t19.5 20.5t43.5 52.5l24 31l17 18q16 20 16 21t1 3t1 3q4 1 17.5 19t11.5 20q0 2 2 2
q1 -1 4.5 2.5t11.5 13.5q53 79 62 82q6 5 11 0.5t5 -14.5q0 -29 -29 -58q-16 -16 -24 -28t-27 -31q-20 -20 -20 -23q-7 -10 -15 -18l-24 -27q-4 -7 -17.5 -23t-29 -34t-17.5 -20l-14 -21l-53 -78l-17 -28l-18 -29l-25 -39q-43 -66 -43 -74q0 -2 -12 -22q-9 -13 -78 -146
l-20 -41q-3 -7 -17.5 -48.5t-15.5 -49.5q-11 -47 -4 -92t27 -55q11 -4 24 -2q3 2 11.5 6t11.5 6l22 16q16 8 27 23l24 20q11 8 20.5 16.5t14.5 14t4 6.5q0 2 2 0q3 0 101 96t135 136q38 41 59 69q2 0 6 4q2 2 2 4l74 74l27 29l18 20l19 19q6 3 12 12q3 10 8 10q2 0 35 35
q19 22 49 54t31 32l65 72l72 82l21 24l55 60l268 311l21 24l6 9q53 64 102 118l49 58l15 18q18 22 18 53q0 17 6 19l10 2q14 0 11 -35q-2 -16 -15 -31l-28 -32q-16 -23 -27 -31q-12 -8 -12 -12q0 -5 -8 -13q-9 -8 -7 -10q0 -2 -2 0q-4 0 -10 -6q-4 -8 -8 -8t-4 -4
q0 -6 -21 -27q-6 -6 -6 -10q0 -2 -2 -2q-2 2 -6 -2l-29 -37q-41 -46 -36 -49q-1 -2 -5 -2q-3 0 -10 -11l-24 -26l-123 -142q0 -4 -2 -4q-3 0 -31 -32q-25 -35 -31 -35q-6 -9 -12 -15q-6 -8 -16 -18q-5 0 -9 -12q-6 -12 -14 -15l-16 -16l-97 -109l-30 -32l-15 -17
q-2 0 -16 -18q-29 -33 -35 -33q-4 0 -4 -4q1 -2 -8 -16l-29 -33l-33 -35l-26 -29l-35 -34l-25 -29q-24 -28 -53 -57l-22 -23l-27 -29l-27 -26l-59 -66q-57 -64 -94 -98l-31 -31l-27 -29q-20 -24 -67 -65q-13 -9 -27 -27q-2 -2 -6.5 -5.5t-7.5 -6t-4 -2.5q-2 0 -12 -10
q-11 -11 -27 -23l-27 -20q-34 -29 -57 -31z" />
    <glyph glyph-name="X" unicode="X" horiz-adv-x="1566" 
d="M4 -330q-4 2 -4 11q0 6 3.5 7t21.5 1q21 0 53 14q118 46 252 143l41 29q15 10 102 72l41 28l14 13l2 4q3 0 58 39l16 14q21 14 70 53l41 33q74 55 157 129l183 162l82 78l16 14l84 82q51 53 53 63l10 37l9 31q4 9 8 27q4 27 10 39q4 4 14 47l11 22l4 15q0 2 15 39.5
t18 41.5q3 5 6 14.5t5 17t1 7.5q-2 2 2 2q8 15 14 31q5 12 17 37q6 6 6 10q0 9 26 62l23 49l12 24l2 9l13 32q25 49 32 70q0 4 21 47q14 28 14 33q0 8 4 10q6 6 17 35q12 31 10 35q-4 6 4 24l14 21q4 4 4 10l2 6q2 2 11 2t12 -8q6 -27 -55 -152l-29 -59l-39 -84l-20 -49
l-27 -59q-35 -68 -55 -121q-3 -10 -6 -10l-3 -3q2 -2 -2 -10l-18 -45l-16 -41q-2 -4 -2 -12q0 -6 -5 -6q-6 -13 -10 -25q-18 -51 -37 -108l-18 -68q-2 -6 2 -3q11 6 131 126l137 133l4 4l107 101l63 61l41 37l31 26l70 62l32 31l35 28q42 30 66 51l53 43l145 123
q35 29 43 21q10 -10 -6 -17q-11 -4 -67 -55l-62 -51l-14 -10l-76 -62l-72 -57q-32 -26 -122 -109l-78 -69l-137 -127q-94 -90 -242 -238q-94 -94 -100 -106l-9 -35l-18 -90l-6 -25l-6 -45q-12 -73 -15 -98q-9 -95 6 -158q15 -54 45 -98q10 -18 7 -19q-3 0 -12 8t-15 17
q-39 61 -45 109l-8 34q-8 41 12 183l6 45l19 92l8 37l2 12q4 11 -14 -6q-11 -10 -27 -27l-80 -73q-47 -47 -102 -95l-27 -26l-74 -66l-86 -74q-75 -66 -96 -77l-8 -7q-19 -16 -21 -16l-22 -18l-49 -37l-23 -19q-16 -12 -16 -14q0 -4 -4 -4t-27 -19l-16 -12l-29 -20
q-22 -17 -25 -19q-1 0 -4 -2t-4 -2q0 -3 -22 -18q-42 -25 -56 -39l-14 -10l-121 -84q-18 -15 -35 -23l-22 -14q-5 -5 -21 -13l-26 -16q-10 -7 -53.5 -29t-45.5 -20q-4 0 -8 -4l-14 -6l-21 -8q-10 -4 -31 -8.5t-26 -2.5z" />
    <glyph glyph-name="Y" unicode="Y" horiz-adv-x="1464" 
d="M256 -217q-31 -6 -41.5 0t-9.5 29q0 54 12 75q6 6 6 15q0 4 8 16q7 10 7 14t9.5 16t16.5 17l12 17l13 18l18 18l23 27q9 8 22 25q6 9 25 28l18 21q21 24 39.5 41t89.5 78q55 47 107 84l22 16l25 16q27 20 35 25q13 13 67 43q208 112 234 121l10 8l20 12q15 6 19 10l18 21
l58 76l20 26l35 41l20 27l58 72l20 26q13 17 13 19q0 7 45 63q4 7 -6 1q-3 -2 -7 -5l-24 -18q-15 -6 -29 -17q-12 -8 -16 -8q-4 -3 -43 -23l-23 -10l-51 -24q-14 -6 -44.5 -23t-33.5 -20q-8 -4 -10 -4q-3 0 -8 -5l-11 -6q-10 0 -16 -6q-4 -4 -8 -4q-2 0 -7 -2.5l-7 -3.5
q-6 -6 -19 -10q-12 -6 -18 -8q-11 -7 -15 -7t-4 -4q0 -3 -10 -6q-4 -1 -18 -8q0 -1 -17 -6q-13 -3 -20 0.5t-13 17.5t-2 47q6 29 13 47q6 15 23.5 41t39 55.5t27.5 39.5q46 64 129 151q27 27 91.5 86.5t76.5 69.5q74 71 149 131q22 16 22 18q0 1 -11 0l-29 -2l-29 -4l-22 -2
l-21 -4q-5 -1 -72 -6l-49 -6l-26 -4h-23q-17 0 -41 -4q-30 -5 -41 -5q-6 0 -15.5 -1t-10.5 -1q-19 -5 -78 -12q-18 -1 -103 -16q-16 0 -16 -4q-2 -2 -10 -2q-13 0 -19 -2q-5 -2 -39 -11q-27 -3 -36 -8l-27 -8q-62 -15 -66 -19t-12 -4q-25 -6 -137 -51l-70 -35q-2 0 -8 -6
q-2 -2 -18 -10q-18 -9 -36.5 -24t-25.5 -27q-15 -24 -22 -47t-2 -31q8 -8 0 -16q-6 0 -11 8q-8 9 -5.5 30.5t14.5 42.5q16 37 53 62l22 18q1 0 2 1t2 1q3 0 37 19q32 18 41 18l7 3l10 5q27 14 96 39.5t104 32.5l39 10q58 16 76 19l27 6q164 31 284 41q100 8 162 16l100 13
q95 12 105 18q13 8 31 0q6 -3 2 -11t-15 -16l-16 -8q-4 0 -20 -12l-31 -23q-79 -64 -115 -96q-155 -147 -194 -188q-117 -122 -140 -154l-20 -26l-17 -23q-45 -57 -41 -66v-2q-2 2 -6 -5.5t-8 -20.5t-6 -25q-5 -28 1 -34t28 6q8 5 22 10q9 3 27 12l18 10q4 0 99 49
q37 19 69 31q14 6 31 17l31 14l18 8l16 8l37 25l60 37q54 36 71 51q27 21 33 10q5 -14 -33 -47q-20 -15 -39 -41q-7 -14 -12 -14l-12 -17q-2 -4 -5.5 -9.5t-8 -11t-5.5 -7.5q-10 -10 -10 -15l-41 -57q0 -2 -4 -6l-125 -152q-58 -65 -51 -65l10 4l27 14q20 8 24 12l68 27
q16 5 30.5 10t21 7.5t13 4.5t11.5 3l37 6q17 8 39 4q7 -5 10 -16q2 -9 -4 -15t-15 4q-10 10 -10 4h-6q-18 0 -51 -10q-14 -3 -23 -8l-55 -16l-72 -29q-2 -2 -4 -2q-3 0 -20 -10l-43 -23q-32 -17 -41 -35l-27 -35l-26 -32l-17 -19q-14 -10 -14 -16l-17 -21l-18 -20
q0 -6 -29 -35l-20 -20q-8 -11 -47 -47l-39 -41l-51 -52q-82 -82 -90 -92l-41 -41q-3 -3 -27.5 -29t-32.5 -34l-24 -27q-24 -24 -67.5 -59t-49.5 -35q-4 0 -4 -2q-3 -4 -37 -26.5t-37 -22.5q-5 0 -8 -6q-10 -6 -35.5 -16t-42.5 -13zM221 -201q9 -12 72 11q34 15 84 51l39 26
q72 48 180 174q2 2 8.5 9t11.5 12t9 8q14 14 20 23q6 8 26 28t29 27q11 8 25.5 22t24 24.5t8.5 10.5q-1 3 2 6q1 0 12 11l14 14l15 16l24 27q13 17 13 18q0 4 10 9l10 8q0 2 8 10l8 6q0 4 15 15l12 16l10 14q11 11 11 15q-2 0 -1 1t3 1q6 4 12 12l20 22q17 17 17 23l4 4
q1 0 9.5 9t18 21.5t13.5 18.5l2 6q-3 0 -31 -14q-25 -14 -28 -14q-2 0 -27.5 -14t-26.5 -17q-2 -2 -4 -2q-7 0 -31 -14q-5 -2 -13 -6l-12 -6t-5 -1q-5 -4 -11 -6q-4 -4 -16 -10l-16 -10q-7 -7 -19 -11l-12 -6l-33 -20l-16 -12q-7 -4 -12 -7.5t-13 -10t-18 -13.5l-39 -29
l-35 -24l-74 -60q-79 -68 -100 -94q-6 -9 -22 -25l-13 -12q4 0 -8 -8l-10 -10q0 -2 -23 -25q-22 -26 -22 -31q-2 -4 -6 -8l-33 -37q-35 -37 -43 -61l-15 -33q-9 -18 -13 -45t1 -33z" />
    <glyph glyph-name="Z" unicode="Z" horiz-adv-x="1560" 
d="M352 -47q-19 0 -53 9.5t-47 17.5q-12 6 -26 23.5t-15 29.5l-6 12q0 17 2 33q10 91 63 153l15 17q12 13 37 38.5t28 26.5l4 2q0 2 22.5 23t35.5 31q16 12 43 39l2 4q7 0 78 47q89 58 133 82l16 8l18 10q19 9 19 10q2 2 8 2q4 0 4 2q3 3 53 27l316 145q147 58 225.5 82.5
t224.5 57.5q8 1 12 2.5t9.5 7t13.5 16.5l45 50l25 28l6 6q7 5 14.5 14.5t12 17.5t2.5 9q-1 3 -33.5 4.5t-52.5 -0.5l-43 -4l-33 -4l-14 -2q-5 0 -17 -6q-19 -11 -29 -4q-5 4 -1 15.5t14 17.5q31 22 65 61q21 23 31 37l29 35l12 14l8 10l4 4l121 129q11 12 23 27t19.5 25.5
t6.5 11.5q-10 0 -22 -4l-31 -4l-248 -21l-28 -4l-111 -14q-8 -2 -19.5 -3.5t-19 -2.5t-10.5 -2q-15 0 -17 -2q-4 -2 -6 -2q-2 2 -14 -2l-29 -7q-24 -4 -24 -6q-2 -2 -13 -2q-5 3 -14 -2q-2 -2 -10 -2l-6 -1q-6 -1 -9 -1l-28 -8l-23 -6l-16 -4q-12 0 -23 -7q-12 -4 -26 -4
q-14 -2 -39.5 -8.5t-28.5 -9.5q-22 -8 -49 -16l-100 -35l-115 -45l-14 -6l-19 -9l-22 -12q-35 -15 -72.5 -45.5t-46.5 -50.5q-15 -34 -4 -60q4 -14 13.5 -30.5t12.5 -18.5q4 -4 0 -8q-4 -3 -12.5 0t-9.5 10l-10 19q-16 19 -13 59q6 55 58 92q17 13 49.5 32t46.5 24l27 10
l16 8l16 6l31 15l47 16q101 40 211 70l19 4q2 2 8 2q8 0 26 6q42 15 217 49q83 16 158 22l62 9l34 4q57 3 70 6q4 2 18 2q19 0 70 5.5t55 8.5q2 2 11 2h10q4 4 14 4q13 0 27 7q35 11 39 -4q1 -6 -6 -15.5t-41 -44.5l-109 -117l-41 -43l-14 -16l-2 -4l-25 -27l-20 -24
l-19 -25q-34 -39 -41 -41q-7 -8 -2 -8h41q135 6 135 -23q1 -7 -12 -27t-29 -36q-47 -47 -51 -55q0 -6 -6 -9l-10 -10v-6q5 0 35 6l26 6q10 1 70 17l33 6q15 0 45 10q2 0 27 3t32 3q17 0 24 -9t-1 -19q-14 -17 -21 -2q-3 6 -5.5 7t-14.5 1q-44 -5 -62 -10l-10 -3q-8 0 -29 -6
l-26 -4l-60 -14q-1 0 -69 -14q-18 -4 -33 -19l-27 -33l-41 -47l-57 -61l-109 -123l-20 -25l-14 -14l-33 -35l-78 -78l-25 -20l-20 -21l-78 -65l-20 -19l-35 -28l-43 -33l-12 -10q0 -4 -9 -8l-22 -19q-36 -28 -111.5 -78t-115.5 -73l-35 -21q-10 -8 -113 -53
q-48 -20 -106 -32t-99 -9zM383 -35l18 2q2 2 9 2q6 -1 44.5 8t57.5 17q20 6 43.5 15.5t38.5 16t16 7.5q2 3 13 6q18 7 124 76t140 96l49 39l25 20q17 16 34 27q5 4 31.5 25.5t34.5 29.5q43 39 65 56q6 3 23 20l18 16q3 1 20 19.5t19 21.5l2 3l5.5 5.5t5.5 4.5q10 7 43 43
q8 10 22 24q8 4 19 19l22 26q12 12 12 17v2q5 -5 17 14l45 51l16 21l4 4q5 0 15 14l47 53q41 41 61 66q2 3 4 6.5t3 5t1 2.5l-18 -4l-37 -6l-141 -35l-148 -47l-43 -18q-29 -9 -86 -37q-6 -4 -24 -10q-9 -3 -41 -19q-31 -16 -31 -12q-5 0 -8 -6q-4 -4 -8 -4l-15 -4
q-8 -8 -18 -11q-18 -6 -88 -41l-74 -34q-50 -26 -51 -25q-3 0 -11 -5.5t-8 -8.5q-1 2 -10 -1.5t-25 -13t-36 -22.5q-8 -4 -19 -10t-17.5 -9.5t-8.5 -3.5q-14 -7 -17 -10q-10 -10 -37 -27l-34 -22q-14 -10 -58.5 -46t-50.5 -42l-43 -41l-43 -43q-44 -50 -68 -103
q-7 -23 -10 -45q-8 -37 -1 -60.5t32 -45.5q12 -12 43 -19q39 -10 86 -10z" />
    <glyph glyph-name="bracketleft" unicode="[" horiz-adv-x="774" 
d="M68 420l-5 10q-4 12 -2 16q2 8 10 19.5t15 15.5q48 32 78 62l39 35q20 16 53.5 44t42.5 35q17 15 59.5 62.5t47.5 56.5q4 6 6 6q8 0 65 86q14 17 35 23q16 5 59 14l66 13q10 2 31 5l20 3q17 2 21 1t4 -7q0 -15 -23 -15q-17 0 -35 -6l-49 -8q-51 -9 -88 -21
q-10 -5 -41 -51q-41 -57 -102.5 -122t-106.5 -99l-75 -63q-14 -14 -50.5 -43t-40.5 -29q-2 0 -6 -4q0 -5 33 0l68 10q23 3 30 2.5t13 -6.5q15 -17 -7 -39q-18 -15 -18 0q-1 12 -17 12t-98 -12z" />
    <glyph glyph-name="backslash" unicode="\" horiz-adv-x="14" 
d="M90 199q-4 2 -5.5 3.5t-1.5 4t0.5 4t3 5.5t3.5 7q4 9 2 29q-20 67 -78 354q-3 11 -59 364t-57 378q-2 32 6 32l6 3l6 -3q6 -8 6 -59q0 -15 35 -238t37 -229q0 -13 49.5 -275t58.5 -290q4 -11 8 -27.5t5 -17.5q0 -6 1 -14l1 -7q2 -1 0 -5l-2 -4l-4 -4l-5 -5
q-13 -13 -16 -6z" />
    <glyph glyph-name="bracketright" unicode="]" horiz-adv-x="724" 
d="M182 383q-7 -7 -13 -2q-2 2 -1 4q0 4 -4 12q-9 14 -38 11.5t-46 -19.5q-17 -14 -19 -2q-3 7 6 19t21 18q49 20 82 8l20 -6q2 0 25 23l35 34l45 43l53 54l45 47l41 45q28 28 66.5 69.5t40.5 44.5l2 2q3 -1 21 21q2 2 42 53q16 23 12 25q-4 3 -41.5 -2t-44.5 -8
q-6 -3 -13 -1t-5 7q0 12 39 22q25 5 59 8q18 2 28 2t16.5 -2.5t7 -6.5t-4 -14t-12 -21t-22.5 -31q-52 -64 -127 -144l-101 -106q-10 -10 -24.5 -25t-24.5 -25.5t-14 -13.5l-25 -22l-49 -49l-55 -54q-12 -12 -15 -12q-5 0 -8 -6z" />
    <glyph glyph-name="underscore" unicode="_" horiz-adv-x="362" 
d="M285 535q-9 -5 -12.5 -4t-6.5 8q-3 8 -15.5 9t-100.5 1q-59 0 -74 2.5t-15 11.5q0 5 13 8q17 6 110 2q99 0 107 -4q12 -7 10.5 -17t-16.5 -17z" />
    <glyph glyph-name="grave" unicode="`" horiz-adv-x="73" 
d="M59 1526q-5 -4 -8 -2.5t-10 11.5q-8 11 -14 19q-4 4 -9.5 11t-8 10t-6 8t-2.5 6.5t1 5.5q0 3 14 -2q10 -5 23 -18q15 -18 21 -32t-1 -17z" />
    <glyph glyph-name="a" unicode="a" horiz-adv-x="262" 
d="M45 559q-9 0 -16 10t-4 23q0 11 6 20l6 15q0 1 -7.5 -3t-18 -11t-17.5 -13q-12 -9 -36.5 -21t-31.5 -12q-18 0 -18 13q0 7 14 18q44 35 94 61q28 14 34 16t9 -3q0 -4 11 -4q9 0 11.5 -3.5t-1.5 -10.5t-6.5 -10.5l-7.5 -10.5q-26 -32 -17 -53q1 -4 8 -4t14 2l7 2
q39 9 178 69l4 2h6l2 -2q3 -1 3 -5t-3 -5l-116 -53q-17 -8 -36 -15t-30 -9l-10 -3h-6q-12 -3 -25 0zM-70 586l13 4q44 22 55 33q7 7 29 18q12 4 12 8q0 7 -25 -8q-43 -19 -71 -47z" />
    <glyph glyph-name="b" unicode="b" horiz-adv-x="233" 
d="M-47 498v10q-3 28 49 70q46 36 68 36q8 2 16 13q2 5 2 10t-1 8.5t-3 3.5q-9 3 -38.5 -13.5t-55.5 -37.5q-30 -24 -39 -45q-5 -8 -12 -8h-5q-6 0 -6 6q0 10 4 14q15 28 58 74l45 51l22 25q11 11 13 14q-26 -9 -31 -14q-8 -5 -30 -13t-29 -8q-14 0 -7 11q3 3 17 10l33 12
l28 12l47 19l74 73l41 39l57 52l52 39l30 22l17 12l22 13q50 37 129 65l17 4q19 10 36 13l23 6q36 8 41 0q13 -13 0 -35q-6 -11 -20 -27t-21 -20l-27 -21q-23 -19 -41 -30l-28 -21l-17 -8q-8 -4 -8 -6q0 -4 -8 -8l-12 -7q-11 -7 -102.5 -53t-96.5 -49l-33 -16l-43 -21
l-47 -24l-2 -2l-6 -3l-16 -6l-7 -4l-8 -6q-23 -23 -37 -41l-43 -49q-6 -6 -4 -6l19 12q44 19 61 17q11 -3 14 -11q7 -13 -4.5 -36.5t-36.5 -45.5q-70 -58 -100 -69zM139 776q0 -4 19 6q5 2 11 5.5t9 5.5t4 2q4 0 56 26l43 19l38 20q10 5 25 10q6 2 31 17l35 20l45 25l61 41
q42 27 64 49l18 16q1 0 2.5 2.5t4.5 6.5t5 6l8 12q3 3 3 8q0 1 -2.5 3.5t-4.5 2.5q-5 2 -23.5 -0.5t-21.5 -5.5l-30 -10q-48 -14 -119 -53q-86 -52 -133 -95q-14 -14 -17 -14q-2 0 -106 -98l-23 -23q-2 0 -2 -4zM-29 520q3 -1 43.5 31.5t48.5 42.5q2 4 0 4q-9 0 -49 -27
q-29 -25 -42 -46q-3 -5 -1 -5z" />
    <glyph glyph-name="c" unicode="c" horiz-adv-x="161" 
d="M-55 561q-5 3 -5.5 13.5t3.5 19.5q12 25 60.5 60t76.5 38q6 1 13 -3t7 -9q1 -6 -13.5 -24.5t-20.5 -20.5q-7 0 -7 2l-2 6q-2 2 9 16l10 11h-8q-20 -3 -66 -42.5t-45 -52.5q0 -14 90 21q9 4 19 8q90 41 96 43h6q4 0 4 -6l-4 -6h-2l-2 -2l-84 -37q-63 -28 -86 -33
q-35 -10 -49 -2z" />
    <glyph glyph-name="d" unicode="d" horiz-adv-x="325" 
d="M47 487q-5 -3 -11 1.5t-7 11.5q0 6 57 77.5t78 92.5l18 18q-3 0 -35 -18l-69 -43l-19 -11l-20 -10q-20 -12 -21 -12l-8 -4q-38 -24 -69 -33q-17 -6 -21.5 2t6.5 23q12 18 41.5 44.5t50.5 37.5q58 32 78 6l6 -6l15 8l33 20q34 20 49 27q52 25 80 53l79 82l21 20
q29 27 63 64q55 59 84 78l35 26q5 5 37 29q33 17 35 2q2 -7 -19 -37q-23 -32 -73 -82q-14 -16 -47.5 -43.5t-53.5 -40.5l-30 -24q-9 -9 -60 -43l-31 -23l-28 -22l-37 -35q-67 -55 -152 -168zM373 831l35 27l32 27q26 19 58 47q70 67 82 84q23 27 16 26q-6 0 -49 -32l-27 -23
l-16 -16q-29 -26 -47 -49l-27 -27q-58 -52 -59 -63q0 -2 2 -1zM-39 588q3 0 31 16q28 14 33 14q3 2 20 13q8 4 14 9t8.5 9t0.5 6q-3 1 -11.5 1t-13.5 -1l-20 -10q-15 -6 -19 -10l-16 -14q-35 -31 -27 -33z" />
    <glyph glyph-name="e" unicode="e" horiz-adv-x="163" 
d="M-20 559q-18 -2 -25 -2t-10 2.5t-4 9.5q-5 10 8 31q15 25 46 49.5t62 34.5q51 18 56 2q1 -4 -9.5 -13.5t-35.5 -27.5q-46 -33 -78 -41q-19 -5 -23 -14q-7 -7 -2 -10q19 -6 193 69l4 2h6l2 -2q3 -1 3.5 -5t-1.5 -5l-27 -12l-92 -41q-46 -22 -73 -27zM-4 627q-2 -2 1 -1
q9 1 32 13q41 23 51 33q0 3 -11 -1t-22 -9q-10 -3 -29.5 -16.5t-21.5 -18.5z" />
    <glyph glyph-name="f" unicode="f" horiz-adv-x="204" 
d="M-651 -111q-7 7 -3.5 15t19.5 28q136 158 261.5 300.5t164.5 187.5l21 22l215 242l45 49q11 13 29 23t28 12q17 0 14 -31q-1 -3 -2 -8.5t-2 -9.5t-2 -6q-6 -9 -40 -32t-62 -36q-22 -9 -29 -14l-125 -146q62 25 116.5 38.5t70.5 8.5q12 -1 14.5 -16t-6.5 -22
q-13 -10 -13 10q0 8 -4 12q-16 10 -108 -24l-53 -19l-19 -6q0 -4 -4 -4l-14 -4v-6q3 -48 -74 -154q-19 -28 -127 -149q-11 -11 -33 -34t-43 -44t-43 -41q-82 -70 -129 -103l-45 -32q-15 -9 -18 -7zM41 666l48 26q5 3 9 6q30 21 33 39q0 13 -22 0q-10 -8 -39 -37.5t-29 -33.5
zM-598 -55q3 -3 41 25t72 57l24 22q12 10 78 76q7 7 9.5 8.5t4.5 3.5q46 46 93 107q95 118 118 174l4 18q-4 12 -20 -4l-113 -125q-8 -11 -23 -27.5t-37 -38.5t-36 -38l-180 -215z" />
    <glyph glyph-name="g" unicode="g" horiz-adv-x="235" 
d="M-684 -51q-15 -1 -20 3.5t-3 18.5l2 15q11 14 13 26q2 2 12 17h2q4 4 4 8q2 9 49.5 60t77.5 73q37 32 76 55l31 19q25 18 37 22t12 8q2 2 4 2q5 0 25 13q142 69 145 67q1 0 3 1t5.5 2.5t5.5 2.5q6 6 25 11q27 8 59 51q13 17 54.5 66t70.5 84.5t25 33.5l-49 -20
q-5 -3 -20.5 -2t-18.5 4q-5 4 -4.5 13t6.5 13l8 9q2 1 5.5 2t4.5 2l19 14q33 22 57 29q20 6 32.5 1.5t12.5 -16.5q0 -3 1 -7t1 -5q0 -5 -10 -18l-23 -35l-26 -35q-5 -7 -40 -46.5t-63.5 -73t-25.5 -31.5l22 8l27 6l47 16q85 28 131 39l115 29l45 10q50 9 63 6q6 -2 8.5 -7
t-0.5 -9q-6 -6 -8 -6l-18 -9q-14 -7 -23 -4q-14 3 -4 13q3 5 -2 5q-4 0 -20 -3q-22 -3 -43 -8l-189 -50q-5 -1 -10 -2.5t-8 -2.5t-4 -1q-4 -4 -15 -4q-1 -1 -7 -3t-7 -3q-8 -4 -10 -2q-4 0 -6 -2q-5 -5 -17 -8q-29 -9 -59 -23t-35 -20q-29 -29 -37 -39q-25 -30 -71 -75
t-78 -71l-97 -77l-86 -66l-47 -33l-20 -12l-29 -16q-58 -30 -90 -33zM-33 604q15 0 52.5 18t37.5 25q0 3 -6 3.5t-14.5 -1.5t-16.5 -6q-33 -13 -53 -33q-6 -6 0 -6zM-688 -35l29 8q41 15 81 43q22 15 25 15q2 0 6 4q0 4 4 4q3 0 39 25t47 34l17 13q12 8 24 20l60 53
q163 149 163 164q3 2 5 2q2 2 2 4q0 5 -23 -4l-27 -10q-18 -9 -18 -10l-8 -2q-6 0 -8 -2q0 -4 -43 -23q-44 -21 -60 -33l-18 -10q-3 0 -47 -28t-64 -42q-60 -47 -90 -75q-52 -52 -88 -115q-14 -32 -8 -35z" />
    <glyph glyph-name="h" unicode="h" horiz-adv-x="260" 
d="M-59 551q-13 7 -13 12q0 8 15 23l18 20l19 23l8 8l71 76l35 35q-1 1 -8.5 -1t-7.5 -4q-2 -1 -5.5 -2t-4.5 -2l-37 -12q-18 -4 -23 -8l-20 -10q-16 -4 -21 -4q-12 0 -6 12q4 4 16 8l64 23l20 8q3 2 13 6q12 6 16 6l4 2l19 8l18 6q6 4 29 27l69 61l43 37l66 52q8 8 55 38
l35 23l18 12l23 13q70 41 143 61l17 4q15 8 41 12l22 4q39 8 45 -2q11 -15 -4 -36q-6 -10 -21.5 -26.5t-23.5 -21.5l-31 -22q-7 -5 -23 -16.5t-20 -14.5l-30 -18q-12 -8 -19 -8q-6 -3 -10 -7q0 -5 -10 -8l-13 -4q-28 -17 -159 -78q-16 -8 -23 -8t-35 -14l-34 -15
q-1 -1 -7.5 -3.5t-17.5 -7t-23 -9.5l-77 -35l-11 -6l-34 -35q-97 -97 -101 -104v-4q2 -2 10 2q12 7 72 28q34 10 39 2q2 -4 -8 -16q-29 -29 -35 -41l-2 -6q-3 -6 -4.5 -11t-2 -7.5t0.5 -2.5h4l8 2q20 8 119 52l51 22q10 0 12 -1.5t-8 -10.5q-20 -7 -21 -8q-3 -3 -24 -13
q-4 -2 -9 -5t-8 -5t-5 -2q-16 -7 -24 -11.5t-13 -6.5q-56 -28 -80 -31l-4 -2q-7 -2 -17 4q-13 10 -2 35l7 12q16 31 22 31q2 0 2 2q0 1 -10 -2l-23 -8q-15 -4 -22 -11q-3 -2 -8.5 -4.5t-6.5 -3.5l-12 -6l-24 -24l-4 -3l-7 -4l-6 -6l-10 -8l-6 -4q-4 -4 -10 -2zM190 813
q0 -3 21 6q24 12 25 12q2 0 20 9q4 1 9 3.5t7.5 3.5t3.5 1q3 0 23 8l45 18l41 19l29 10q13 4 32 17l39 18l23 12l24 13l70 38q49 29 70 50l20 16q4 0 13 14l12 15q2 4 2 6q-3 5 -8 8q-4 1 -23 -0.5t-24 -3.5l-33 -10q-55 -15 -129 -49q-88 -47 -148 -95l-16 -12
q-3 0 -46.5 -36t-74.5 -64l-24 -21q-3 0 -3 -6z" />
    <glyph glyph-name="i" unicode="i" horiz-adv-x="172" 
d="M86 705q-8 -4 -15 6q-2 4 1 6q4 4 4 12q1 9 6.5 12t11.5 -2q6 -6 6 -10q2 -6 -3 -14.5t-11 -9.5zM-31 557q-30 -3 -30 16v7q0 27 53 71q27 19 35 15q15 -6 -21 -35l-35 -29q-8 -11 -8 -24q4 -2 10 -1.5t11 1.5l4 2q40 8 180 69l4 2h4l4 -2q9 -5 -2 -12l-24 -10l-91 -41
q-62 -26 -94 -29z" />
    <glyph glyph-name="j" unicode="j" horiz-adv-x="147" 
d="M70 705q-8 -10 -12 4q-2 11 3 22q4 10 12.5 11.5t12.5 -7.5q2 -7 -16 -30zM-795 -39q-22 4 -27 20.5t9 38.5q6 11 46 54t44 43q10 8 18 16q21 21 27 23q1 0 15.5 11t25.5 21l31 23l24 18l37 21l25 14q40 24 166 86l24 10l15 7q41 12 49 20q13 7 79 74.5t93 99.5
q17 23 69 68q23 20 33 20q7 0 8.5 -7.5t-4.5 -12.5l-10 -6l-29 -29q-19 -17 -65.5 -64t-84.5 -87t-36 -40l33 7q61 16 90 16q2 -2 2 -6q0 -6 -6 -6q-7 0 -27 -4l-43 -11q-72 -14 -92 -34q-199 -199 -215 -213l-43 -37q-20 -20 -113 -84q-18 -13 -49.5 -31t-36.5 -18l-16 -7
q-36 -18 -66 -14zM-797 -23q19 -4 49 9l23 8q10 3 35 16.5t37 22.5l22 12l19 14l77 64l68 59q20 18 86 84l19 19l16 14l10 10v2l8 6l6 7l5 2l4 8l4 4l4 2l6 6q9 12 8 12q-4 0 -22.5 -6t-20.5 -8q-4 -4 -8 -4q-6 0 -73 -35t-68 -39q-2 -2 -4 -2q-5 0 -49.5 -26t-51.5 -33
q-12 -8 -14 -8q-4 0 -49 -39q-39 -30 -54 -45l-18 -17l-35 -35q-75 -75 -39 -84z" />
    <glyph glyph-name="k" unicode="k" horiz-adv-x="258" 
d="M23 551q-19 8 -13 33q3 12 13 37q4 8 4 16q-1 -2 -13 -8t-14 -8l-20 -19q-18 -14 -29 -27q-13 -16 -23 -16q-8 -2 -10 8q-3 20 23 37q23 14 61 62q4 4 12 16q5 4 62 61l20 21q6 6 2 6l6 2q-16 -3 -30 -12q-6 -4 -29 -11.5t-31 -7.5q-12 0 -6 13q1 1 3.5 2t6.5 2.5t7 3.5
l63 22l45 19l6 2l13 6q15 6 22 16q13 13 21 19l53 41q83 69 160 119q16 8 16 12l2 2q0 -3 4 -1q1 1 2 3l10 6q9 6 15 8l26 19q83 45 107 55l26 12l5 2l20 9q22 11 51 8q17 -3 17 -25q-4 -21 -43 -55q-10 -8 -25 -20.5t-23.5 -19.5t-9.5 -7l-12 -8q-9 -9 -37 -25l-29 -20
q-7 -7 -14 -9q-9 -3 -12 -6q-7 -5 -50.5 -28.5t-68.5 -34.5l-53 -23q-35 -18 -53 -22l-64 -25l-41 -16q-9 -3 -24.5 -14t-16.5 -15l-31 -29q-72 -67 -69 -73l18 8q75 30 99 20l8 -12q3 -11 -4 -20q-11 -11 -15 -13l-10 -6q0 -1 -18 -10q-27 -12 -52 -4h-8l-2 -8l-5 -7
q-6 -7 -9 -13t-5.5 -16t3.5 -16q1 -2 15 0t34.5 7t34.5 12q55 20 116 49q22 11 32 7q6 -2 -11 -12l-10 -5q-16 -7 -49 -21t-48 -22q-43 -21 -78 -29t-46 -4zM207 829l22 9l27 10l8 4l21 6l18 6q2 2 37.5 18t44.5 19l16 8l35 19q28 15 64 37l30 18q18 9 25 16q37 25 41 25
l8 8l43 35q18 13 28 27.5t5 19.5q-6 10 -29 2l-24 -10q-87 -31 -240 -131q-20 -12 -22 -14q-2 0 -21 -15l-31 -22q-12 -9 -20 -17q-3 -6 -19 -14l-41 -37l-20 -16q-10 -5 -9 -10q1 -1 3 -1zM61 649q9 -4 28 -2t24 8q3 7 12 11q5 2 7 4.5t1 4.5t-6 3q-10 0 -27 -6t-26 -13
q-12 -6 -15 -6q-6 0 -1 -3q1 0 3 -1z" />
    <glyph glyph-name="l" unicode="l" horiz-adv-x="180" 
d="M-90 422q-8 3 -10 29q-3 17 1.5 39.5t12.5 33.5q4 12 4 15q8 16 12 22q23 32 23 37l2 2q4 0 4 6q0 4 4 4q2 0 2 4l6 7q3 0 6 6q0 6 3 6l16 20q15 19 16 19q2 0 2 4q0 1 11 12l8 10q0 5 8 13h-4q-3 0 -8.5 5.5t-5.5 8.5q0 6 4 2q3 -2 14.5 1.5t11.5 6.5q2 2 4 0q2 0 6 2
l41 41q5 4 36.5 34t43.5 40q65 58 162 129q10 8 33 21.5t29 17.5q39 29 69 37q17 6 25.5 0.5t5.5 -17.5t-40.5 -47.5t-66.5 -56.5l-51 -41l-26 -21l-23 -16l-20 -14q-2 -1 -14.5 -9t-26 -17l-19.5 -13q-28 -23 -35 -23l-18 -12q-17 -13 -39 -25l-37 -24q-8 -4 -12 -8
q0 -2 -4 -6q-3 0 -47 -57t-64 -87q-42 -61 -47 -108q-6 -33 -8 -33zM133 768l39 23l8 6q16 8 53 39q22 17 41 26q2 1 17.5 12.5t31.5 23t23 17.5l12 9q4 0 31 24l39 31l29 27l6 6l4 6l2 2l6 4v2l4 4l2 4q0 3 -1.5 4.5t-2.5 -0.5q-6 0 -8 -2l-4 -2l-10 -6l-15 -8l-32 -21
l-13 -8l-16 -14l-31 -21l-74 -59q-3 0 -58.5 -48t-68.5 -63q-5 -6 -12 -13l-4 -6z" />
    <glyph glyph-name="m" unicode="m" horiz-adv-x="632" 
d="M266 514q-42 -3 -61 2q-60 15 -43 80q4 16 0 16q0 1 -10 -2q-7 -4 -35.5 -11t-42.5 -9q-17 0 -25 6q-7 7 -4 10q2 2 0 2q-9 -2 -43 -26q-30 -20 -41 -24t-18 1q-7 7 2 25q4 7 33 41t34 39q3 2 11 0t8 -5v-6q1 -4 -9 -17.5t-24 -25.5l-8 -8q1 -1 6 0l4 2l8 4l4 4l31 19
l10 8q18 15 29 4q5 -5 0 -16q-3 -5 -4 -7.5t0 -3.5t4 -2q7 -1 56.5 13.5t54.5 19.5q5 3 15 5t15 -1q9 -9 -4 -18q-28 -19 -31 -49q-3 -23 5 -33q11 -19 57 -19q45 3 94.5 15t72.5 20.5t81 30.5l26 8l68 29l8 2l21 10q2 1 6 2t6 2h6q5 -5 4 -8q-1 -1 -10 -6l-6 -4
q-59 -28 -131 -55q-121 -52 -230 -64z" />
    <glyph glyph-name="n" unicode="n" horiz-adv-x="385" 
d="M121 549q-37 -4 -53 10q-6 5 -8.5 19t1.5 22l5 6v2l4 8h-2q-70 -35 -103 -57q-14 -5 -14 -4q-6 0 -9.5 5t-0.5 9v6q18 18 28 43l15 19q18 26 30 12q4 -6 4 -8.5t-4 -11.5l-14 -23l66 29q20 10 22 12q22 17 25 -1q2 -15 -11 -30q-19 -19 -16 -32q2 -20 36.5 -17t110.5 27
q20 6 95 35q55 23 61 20q14 -6 -5 -13q-4 -2 -13 -5q-20 -8 -35 -15l-12 -6l-23 -10l-29 -12q-69 -25 -108 -33z" />
    <glyph glyph-name="o" unicode="o" horiz-adv-x="286" 
d="M-25 557q-12 -1 -15 -0.5t-7 6.5q-5 8 -2 17q2 8 8 21.5t10 16.5l15 17l16 18l6 6l6 3l2 2h2l7 2l4 -2h12l14 -2q11 0 15 -9q2 -2 2 -8v-18q8 -2 16 -6q21 -7 45 -7q74 0 154 33q1 2 5 1.5t5 -3.5q3 -6 -4 -10l-19 -8q-64 -27 -137 -27q-42 0 -72 6l-6 -2q-8 -11 -49 -39
q-16 -8 -33 -8zM41 637q4 -2 4 2q-1 0 -3 1t-3 1q-6 0 2 -4zM-16 582q8 0 24 8l23 18q8 6 4 8l-12 7l-9 6q0 2 -2 2l-16 -17l-14 -22l-5 -8q3 -2 7 -2z" />
    <glyph glyph-name="p" unicode="p" horiz-adv-x="385" 
d="M-635 -109q-5 0 -8 9.5t-2 19.5l8 27l10 24q3 15 25.5 50t42.5 55q62 70 96 96l25 23q17 17 37 32l30 27q0 4 4 4q1 0 13 8q15 15 18 17q22 12 45 39q21 21 40.5 45.5t19.5 29.5q0 2 2 2q3 -3 12 11l266 303q34 37 45 45q10 9 13 10t6 -4q11 -7 -7 -21q-16 -16 -22 -24
l-23 -27q-14 -14 -14 -18q-3 -6 -6 -6q-1 0 -3 -2.5t-6 -7t-7 -7.5l-23 -28l-33 -35q-21 -23 -62.5 -71.5t-43.5 -51.5l-17 -21l-12 -14q0 -4 16 8q14 8 30 20t16 15q0 2 4 2q1 1 10 8t24 19t27 22l16 13l11 8q12 15 104 69l27 17q4 4 10 4q8 0 8 4q1 3 29 12.5t43 12.5
q29 7 33 -11v-8q0 -6 -4 -8q-2 -4 -2 -8q-18 -19 -32 -30.5t-20.5 -16.5t-9.5 -9q-4 -6 -12 -14q-18 -9 -21 -12q-7 -14 -75 -51q-42 -23 -54 -23h-14l-2 12q0 19 10 30t43 30q42 22 43 22l8 2q0 3 37 19q38 17 41 20l15 17q15 15 12 16q-2 1 -10 0t-31 -10l-17 -6l-14 -7
l-35 -20l-30 -16l-13 -9q-1 0 -3.5 -2.5t-2.5 -3.5q0 -2 -2 -2q-1 1 -27 -14l-34 -27q-39 -26 -60 -47l-16 -12q-6 -4 -14 -12q0 -4 -7 -4q-4 0 -4 -5q0 -2 -4 -2q-2 0 -10 -8q-3 -4 -4 -4q0 4 -13 -9q-2 -2 -4 -5l-20 -17q-4 0 -14 -10l-45 -39l-17 -14q-4 -4 -43.5 -51
t-46.5 -56l-33 -39l-53 -65l-22 -29l-111 -131q-16 -19 -45.5 -45.5t-34.5 -28.5zM25 500q18 4 51.5 24.5t44.5 32.5q8 4 4 8q-2 0 -2 -2t-8 -6q-6 0 -6 -4t-9 -4q-8 0 -8 -4q-4 -4 -10 -4q-2 0 -16 -9l-21 -14q-10 -7 -10 -10q-4 -4 -8 -6l-6 -5zM-618 -66q0 -2 10 7.5
t28 29.5t37 43l39 47l23 29l16 21l57 69q33 39 33 43t2 4q1 0 11 9.5t10 11.5q0 1 -21 -15l-55 -47l-23 -20l-73 -74q-58 -61 -74 -102q-20 -46 -20 -56z" />
    <glyph glyph-name="q" unicode="q" horiz-adv-x="210" 
d="M-559 -29q-15 12 27 62l26 37q18 26 43 51l6 8q0 5 15 16q12 16 12 19q4 6 8 8q13 13 21 29l8 14q21 38 18 55q-1 5 -2 6.5t-4 2t-10 0.5q-18 0 -23 -5q-9 -1 -21.5 0.5t-15.5 4.5q-5 6 -2 16q0 12 11 20q15 12 33.5 11.5t31.5 -13.5l10 -10l60 12q3 0 5.5 0.5t5.5 1.5
t4.5 2t5.5 4t6.5 5t8.5 7t10.5 8.5t13.5 11.5t16 14q47 41 112 106q30 30 65 64t40 39q5 7 -1 7q-4 0 -16 -3q-23 -6 -38 -3t-15 13q0 3 5.5 10.5t8.5 7.5l29 21l18 10q21 15 64 31q4 2 18 2q14 -2 21 -17l8 -16l-6 -10l-10 -10q-4 -2 -13 -11l-20 -18q-11 -9 -59 -54.5
t-66 -62.5l-64 -59q-20 -19 -43 -40t-34 -31t-11 -11q10 0 37 6l58 10q65 12 123 12q67 -3 67 -24q0 -6 -4.5 -7.5t-9.5 3.5t-39 12h-10h-33l-57 -6l-25 -2l-57 -12q-84 -17 -93 -31l-14 -16l-31 -31q-40 -40 -106 -131l-47 -66q-15 -21 -41 -47l-19 -20q-11 -19 -20 -13z
M-39 600q5 2 19 4q13 3 41 18.5t28 20.5q0 7 -10 4q-46 -15 -53 -22l-11 -7q-16 -8 -21 -18q-1 -2 1 -2t6 2zM-412 295q22 2 22 5q-1 1 -5 3q-17 6 -27 2q-31 -16 10 -10zM-340 262l23 25q8 8 8 10l-2 2l-11 -4l-22 -6l-14 -4l-2 -21q-2 -19 0.5 -19t19.5 17z" />
    <glyph glyph-name="r" unicode="r" horiz-adv-x="319" 
d="M-55 551q-8 -9 -18 -6.5t-9 14.5q4 7 14 21l19 22q13 17 41 44t41 34q9 7 18 4q6 -2 6.5 -7t-4 -12t-14.5 -16q-22 -19 -18 -19q1 0 2 1l18 8q4 2 29.5 14.5t27.5 14.5q18 9 21 -9q3 -8 8 -8q9 0 33.5 11t38.5 20q9 6 14 6l16 8q21 16 27 4q6 -8 -10 -24q-9 -6 -17 -6
q-10 0 -18 -4l-23 -11l-32 -16q-41 -14 -58 -6q-9 7 -20 2l-23 -12q-52 -24 -63 -35l-23 -17q-21 -16 -24 -20z" />
    <glyph glyph-name="s" unicode="s" horiz-adv-x="198" 
d="M-78 461q-6 -3 -13 -1t-7 7q-4 6 -8 10q-7 7 -7 23q3 23 43 45l23 16q1 0 3 1t6 2.5t7 2.5q16 8 19 11l1 14q1 13 1 24q0 30 3.5 40.5t16.5 17.5q20 11 27 4q13 -16 -10 -23q-8 -2 -10 -6t-5 -24q-1 -21 2.5 -27.5t14.5 -1.5q16 10 73.5 26.5t79.5 20.5q16 5 21 0
q8 -8 -12 -13q-1 -1 -3 -1q-19 -5 -57 -17l-17 -4h1q-54 -16 -70 -24l-20 -9q-10 -7 -13 -20q-5 -19 -10 -27q-6 -15 -34 -39t-46 -28zM-78 483q8 0 29 21q27 27 29 41v10l-15 -8l-20 -12q-8 -4 -23.5 -15.5t-15.5 -19.5q0 -6 5 -11.5t11 -5.5z" />
    <glyph glyph-name="t" unicode="t" horiz-adv-x="174" 
d="M-356 125q-9 3 -13 16q-2 11 9 39l10 25q2 0 2 6q2 2 2 4q3 -3 6 6q2 4 2 10v5q5 -3 37 43l84 112l51 64q42 50 45 55q4 2 27 29q42 55 47 55q1 0 8 10l16 21l17 18q59 70 69 80q17 17 17 18q0 -2 33 37q22 33 137 156l24 27l7 8l6 4q1 2 4 5t4 5q-115 0 -133 -2l-68 -4
l-55 -2l-51 -4q-85 -3 -105 -10q-68 -14 -71 -7q-5 5 0.5 10.5t17.5 8.5q28 7 150 14l45 4l288 6l9 9l16 18l6 6q16 12 66 62q4 5 30 26l19 17q1 4 14 14t16 10q6 0 9 -6q5 -7 -2 -14l-9 -11l-20 -16q-38 -32 -51 -49q-12 -16 -25 -25q-21 -17 -37 -39h39l58 -2
q32 0 200.5 -6.5t198.5 -9.5q62 -5 74 -10q20 -11 -11 -25l-20 -8q-2 -2 -8 4q-5 5 0 10q2 3 2 4.5t-1.5 3t-5.5 1.5h-12q-3 1 -19.5 2.5t-23.5 3.5q-66 10 -444 16h-8h-35l-10 -6q-2 -3 -8 -9t-9 -10l-18 -18q-5 -7 -12 -14.5t-17.5 -18.5t-19.5 -20l-35 -37
q-12 -16 -23 -27q-14 -14 -32 -35q-53 -63 -70 -81l-25 -27l-18 -23l-55 -61l-68 -78l-33 -39q-124 -143 -207 -264q-27 -45 -32 -68q0 -7 1 -8.5t7 -1.5q6 -1 6.5 -2t-2.5 -6q-2 -4 -14 -4z" />
    <glyph glyph-name="u" unicode="u" horiz-adv-x="272" 
d="M-43 555l-6 10q-4 9 2 31q3 8 15 22.5t30 34t20 21.5q11 8 15 4q10 -5 -6 -25q-6 -7 -23 -26.5t-27 -32t-8 -16.5q6 -11 41 13t58 52l4 6l12 13l4 6q11 10 18 8q3 -1 4.5 -3.5t0 -6t-3.5 -7t-5.5 -9t-7 -9.5t-8.5 -10t-8 -10q-25 -32 -17 -43q1 -4 6.5 -5t10.5 1l6 1
q35 7 180 70l4 2h4l4 -2q3 -1 2.5 -5t-4.5 -5l-24 -12l-90 -41l-76 -27h-6q-24 -5 -32.5 6t-4.5 27v8l-2 -2l-14 -12q-34 -27 -56 -27h-12z" />
    <glyph glyph-name="v" unicode="v" horiz-adv-x="407" 
d="M-4 526q-14 -2 -21 9.5t-6 31.5q3 28 29 82q1 1 4 12.5t4 12.5q6 16 12 16l9 2l2 -6q7 -12 -15 -51q-11 -22 -18 -49.5t-4 -34.5q3 -8 31 20q22 22 34 52q13 23 13 30q-1 2 3 4t14 1.5t22 -5.5q59 -25 131 -28q103 0 139 12q6 1 11 2.5t7 2.5t4 1.5t3.5 -0.5t3.5 -4
q0 -8 -37 -18l-23 -5q-4 0 -29 -3t-32 -3h-39q-35 0 -70 6l-28 5l-35 8q-2 0 -7.5 2.5t-9.5 1.5q-14 0 -18 -10q-4 -9 -12.5 -21.5t-17.5 -24t-9 -12.5q-9 -13 -24 -26t-21 -13z" />
    <glyph glyph-name="w" unicode="w" horiz-adv-x="460" 
d="M70 483l-7 6q-9 9 -15.5 34.5t-6.5 33.5q1 3 -0.5 10.5t-3.5 7.5t-17 -20q-4 -4 -9.5 -10.5t-8.5 -9.5t-7.5 -6t-8.5 -3q-10 -2 -21 6q-6 8 -6 23q11 49 27 86q8 21 16 21q13 1 14 -8t-10 -29q-6 -9 -12.5 -28t-9.5 -34.5t0 -15.5q6 0 30 37q20 23 37 20q13 -3 10 -24
q0 -20 5 -43t10 -23q3 0 21.5 38.5t23.5 53.5q6 15 6 31v16q0 2 2 2q2 4 8 4q11 0 29 -6q62 -26 133 -28q67 0 102 6q15 3 41 10l21 6q7 -9 -2 -14l-21 -8l-34 -9q-37 -6 -62 -6h-39q-37 0 -67 6l-29 5l-35 8q-2 0 -7.5 2.5t-8.5 1.5h-8v-12q0 -5 -17 -39q-30 -66 -39 -84
l-6 -11l-4 -2l-6 -2q-4 -4 -8 0z" />
    <glyph glyph-name="x" unicode="x" horiz-adv-x="346" 
d="M-51 532q-5 0 -8 7q-8 14 16 22q13 4 35 29q18 22 22 33l6 10l-4 10q-20 -10 -22 -10q-2 -1 -5 -1t-5 1q-4 2 4 12q21 21 35 17q8 -2 11 -5.5t4 -10t3 -9.5l14 6q37 21 51 9q11 -9 -14 -29q-22 -19 -22 -2q0 11 -18 -1q-3 -2 -5 -4q-19 -19 -12 -49q0 -4 4 -12q1 -1 3 -2
t9.5 -3t16.5 -1q30 6 60 15t45.5 14.5t53.5 21.5t52 21q18 7 36 15t26.5 12t10.5 3q15 -7 -9 -20q-8 -5 -19 -8q-41 -18 -101 -41q-82 -33 -123 -45q-61 -17 -82 4q-2 2 -6 10l-4 10l-2 19l-14 -17q-31 -31 -43 -31z" />
    <glyph glyph-name="y" unicode="y" horiz-adv-x="280" 
d="M-969 -244q-6 0 -10.5 8t-3.5 15q6 20 57 71q53 53 103 99l35 31q61 54 63 55l29 22l45 35q16 13 16 17q2 0 4 1t3.5 2l3 2l1.5 1l23 16l16 10l2.5 2.5t1.5 -0.5q5 3 9 7t22 14t21 10q4 0 10 6l67 39q20 11 68 33.5t57 23.5q9 4 9 5q0 2 4 2q6 0 18 6l29 10q3 2 7.5 3.5
t7 2.5t3.5 2q4 4 10 4q5 0 17 6q7 3 44 38t46 48l22 25l164 166q-5 -2 -43 -21l-22 -10q-17 -5 -27 0q-8 4 -8 8l-2 11q-1 6 3.5 17t10.5 17l25 27l8 6q0 2 4 6h8q9 0 11 -4q6 -6 0 -12l-5 -4l-4 -2l-6 -4l-6 -6q-32 -38 -20 -38q6 0 24 7q15 5 29 12q4 4 8 4l33 17
q7 3 10 10l16 16q9 3 15 0l2 -2q6 -6 6 -8q0 -6 -4 -10q-15 -15 -23 -19l-2 -2q-9 -14 -28.5 -36t-49 -52.5t-50 -51l-55.5 -55.5l-42 -42q-26 -28 -21 -28q1 0 3 1l73 19l60 12q16 0 20 4q0 2 10 2q9 0 13 2q1 1 3.5 1.5t6.5 1t6 1.5l47 6q73 8 111 0q12 -2 15 -12t-7 -18
q-6 -5 -31 -9t-28 0q-3 2 -1 8.5t5 6.5l2 2q0 1 -9.5 2t-22.5 0.5t-20 -2.5l-32 -2q-26 0 -41 -6l-80 -15q-27 -5 -107 -31l-28 -10q-12 0 -113 -96q-123 -120 -205 -182l-26 -21q-4 -2 -9 -6t-8 -6t-4 -2l-2 -4q-5 0 -20 -12q-62 -47 -131 -89q-16 -9 -50 -28t-43 -23
q-35 -17 -63 -33l-55 -30q-7 -6 -28.5 -13.5t-29.5 -7.5zM-963 -223q0 -10 93 39l61 32q88 45 109 62l38 27q55 36 68 47l19 12q18 12 22 18q18 12 21 15q6 2 12 8l37 29l14 12q71 58 117 102q102 102 102 107q-1 2 -4 1.5t-18 -7.5q-12 -9 -21 -9l-12 -6q-3 -4 -29 -12
q-25 -7 -80.5 -35t-64.5 -37q-14 -7 -17 -8q-9 -3 -16 -10q-8 -4 -10 -4q-13 -7 -25 -15l-37 -24l-7.5 -5t-6.5 -4.5t-2 -2.5q0 -3 -4 -3t-14 -10l-13 -10l-4 -2l-20 -16q-13 -13 -21 -13q-6 -3 -6 -10q0 -4 -6 -4q-4 0 -8 -4l-15 -12q-70 -55 -161 -144t-91 -104z" />
    <glyph glyph-name="z" unicode="z" horiz-adv-x="303" 
d="M-893 -244q-8 5 -8 17q2 19 35 63q20 24 62 67.5t46 43.5l2 2q0 4 4 4q3 0 15 12l22 19l39 32l49 39l41 29q62 44 76 49l45 27q78 43 103 53l45 20l61 29q41 16 41 23l2 2q2 -2 8 4q13 17 35 37q16 16 16 20q2 2 4 2q6 0 9 6l135 154l31 41l22 33l6 10l4 8l-16 -2
q-12 -3 -17 -1t-6 11q0 8 4 11.5t27 15.5l51 31l-16 -4q-31 -7 -58 -19l-26 -12q-9 -1 -9 1t-1 3q-6 6 15 16q11 5 114 43q46 15 51 15q11 3 16 -4q8 -14 -18 -27q-22 -9 -25 -12q-1 -1 -5.5 -3.5t-9.5 -5l-9 -4.5l-19 -8l-8 -8q-9 -7 -4 -14q4 -4 -2 -21q-12 -28 -49 -74
q-69 -88 -105 -124l-28 -33q-36 -39 -45 -45q-13 -13 -3 -15q2 -1 5 0l20 4q14 2 47 9t33 8q4 4 14 4q3 0 27 6q47 12 72 16q26 4 55 11q67 16 125 22l25 4q56 9 71 4q9 -5 12 -10q5 -9 -2 -18q-14 -18 -24 -2q-2 5 -27 8q-31 0 -41 -2l-121 -19l-45 -8l-39 -6
q-27 -4 -38 -8l-68 -17l-31 -8q-12 -4 -24 -4q-13 0 -17 -4l-65 -24q-24 -10 -45 -35l-31 -29l-74 -65q-11 -14 -49 -44l-33 -26l-69 -57l-37 -29l-31 -23l-29 -20l-18 -14q-19 -15 -22 -15q-3 -2 -3 -4q-17 -17 -53 -41l-33 -22q-23 -19 -26 -19q-2 0 -6 -4q0 -4 -23 -16
l-45 -31q-41 -27 -61 -29q-18 -5 -25 0zM-870 -229l16 4q4 0 8 4l10 6q4 0 19 10l12 10q3 -3 74 52l29 20q11 5 43 33q42 33 45 33q2 0 10 8l6 8h1l3 3l6 3q2 2 9.5 7.5t9.5 7.5q18 12 28 20l19 14l43 31l49 43q11 8 23.5 18.5t18.5 15.5t7 5q3 0 6 6q6 6 15 12l90 80l20 23
q6 6 5.5 6t-9.5 -4l-53 -25q-8 0 -17 -6l-12 -6q-9 -6 -55 -29l-45 -24q-78 -43 -92 -54l-29 -18l-25 -16l-18 -15q-64 -46 -70 -55q0 -4 -6 -4q-2 0 -14 -12q-11 -11 -23 -19l-20 -16l-39 -39l-59 -62l-19 -22l-14 -18q-32 -43 -11 -40q2 0 5 1z" />
    <glyph glyph-name="braceleft" unicode="{" horiz-adv-x="681" 
d="M221 410q-7 6 -18.5 6.5t-52.5 -4.5q-46 -5 -63 -2.5t-24 14.5q-4 7 3 31q6 24 14 32l16 23q8 12 37 41l45 45l35 33q39 35 35 39l-15 4q-12 3 -12 10t7.5 15t15.5 10q40 12 86 45q29 18 32 18l23 23q20 20 37 57l16 43q0 4 19 31q16 24 43 41q55 30 80 41l47 18
q11 3 29.5 4t21.5 -2q4 -3 3.5 -12.5t-5.5 -14.5q-8 0 -14 2q-12 5 -52 -12l-28 -10q-22 -9 -23 -10q0 -4 -8 -4q-4 0 -31 -18.5t-35 -26.5q-8 -12 -14 -27l-14 -33l-11 -22q-2 -9 -11.5 -27.5t-18.5 -28.5q-9 -11 -31.5 -29t-26.5 -18l-28 -16q-22 -15 -35 -19
q-10 -5 -8 -8q10 -23 -60 -86l-47 -47q-22 -22 -24 -22q-3 0 -25 -29l-29 -33q-5 -5 -8 -18q-6 -12 0 -15q4 -4 78 0q80 4 85 -7q2 -5 -5 -17q-12 -19 -31 -8z" />
    <glyph glyph-name="bar" unicode="|" horiz-adv-x="286" 
d="M145 426q-7 -7 -13 12q-2 5 -3 11l-2 53v28q-6 80 -2 142q11 144 12 151q2 4 1.5 12.5t-3.5 12.5l-2 35q0 19 1 22t9 6q13 5 19 -12q2 -7 1.5 -40t-3.5 -44q-2 -6 -2 -20v-13q-1 -4 -6 -61.5t-5 -69.5q3 -9 3 -33v-61q4 -54 2 -94q-4 -35 -7 -37z" />
    <glyph glyph-name="braceright" unicode="}" horiz-adv-x="755" 
d="M156 381q-34 -2 -34 5q0 4 9 15q10 13 23 11q38 -1 46.5 -0.5t20.5 6.5q45 28 49 39q0 2 6 2l4 3q4 3 8.5 7t8.5 8q17 17 14 17q-2 0 4 6q5 5 23.5 31t19.5 30q0 4 4 4q9 13 17 29q18 32 41 55l24 29l-8 2q-8 3 -8 14q3 23 21.5 43.5t62.5 50.5q88 57 109 78q11 11 12 11
q8 8 14 18q23 29 17 49q-9 24 -46 21q-23 0 -29 3.5t-1 14.5q3 7 7 8.5t26 1.5q30 0 43 -8q25 -13 29 -37.5t-13 -50.5q-30 -46 -148 -123q-70 -50 -73 -63q0 -2 6 -2q10 1 25.5 -5t21.5 -14q11 -15 1 -25.5t-38 -13.5l-24 -2l-17 -18q-24 -30 -37 -56q-51 -86 -104 -131
q-43 -35 -71.5 -48t-65.5 -15z" />
    <glyph glyph-name="asciitilde" unicode="~" horiz-adv-x="466" 
d="M279 631q-20 -3 -24.5 -2.5t-12.5 6.5q-12 8 -15 8q-3 -2 -18 10t-19 19q-6 8 -9 8.5t-13 -2.5q-18 -5 -41 -25q-20 -16 -25 -7q-3 5 4 16q14 21 46 32q18 11 30 11q11 2 25 -9l12 -18q3 -7 19 -16q17 -9 36 -7q19 0 37 13q22 14 27 18q10 13 20 6q6 -4 4 -14
q-3 -14 -28 -28.5t-55 -18.5z" />
    <glyph glyph-name="exclamdown" unicode="&#xa1;" horiz-adv-x="434" 
d="M391 885q-6 19 21 37q25 16 28 0q0 -10 -12 -17q-14 -14 -16 -18q-3 -9 -10.5 -9.5t-10.5 7.5zM88 487q0 -14 -6 -14q-8 0 -16 19q-5 13 -3 24q3 14 27 45l21 35q0 4 4 4q4 4 6 8q8 14 78 88t112 111q26 23 33.5 28t13.5 3l7 -2l-1 -1q-4 -2 -4 -6q0 -7 -81 -79
q-25 -22 -76 -81.5t-70 -86.5q-45 -66 -45 -95z" />
    <glyph glyph-name="cent" unicode="&#xa2;" horiz-adv-x="428" 
d="M4 406q-5 2 -2 16q2 11 11 33t12 22q4 0 4 2q0 7 32 37l43 43l-8 6q-24 12 -24 41q0 16 12 33q12 16 14 16q4 3 8 7q12 12 50.5 26t56.5 14q10 0 10 5q0 14 28.5 49.5t47.5 44.5q12 6 15.5 6.5t7.5 -4.5q5 -5 0 -15q-4 -8 -15 -12q-35 -28 -59 -59l-10 -12l14 -3
q13 -1 21 -7.5t8 -14.5q-1 -7 -5 -10.5t-8 -3t-6 5.5q-7 15 -49 12q-27 -4 -35 -8q-4 -4 -10 -4q-2 2 -20 -9t-25 -18q-9 -7 -16 -19t-7 -18q0 -4 6 -16q4 -6 10.5 -7t33.5 -1q25 0 129 8q47 3 47 -4q0 -10 -23 -13q-3 -1 -10.5 -2t-9.5 -2q-1 0 -10 -1t-13 -1
q-16 -4 -31 -4l-43 -6q-24 -2 -28 -8q-6 -8 -15 -6q-8 3 -16 -6q-9 -9 -25 -21q-19 -17 -36 -39q-31 -33 -43 -55q-10 -21 -19 -18z" />
    <glyph glyph-name="sterling" unicode="&#xa3;" horiz-adv-x="548" 
d="M10 535q-7 -3 -12 2q-2 7 4.5 15.5t17.5 12.5q3 2 9.5 5.5t7.5 4.5q8 8 57 27q138 57 113 82q-3 5 -27 -2q-91 -23 -94 -10q0 4 29 12q1 0 16.5 5t26.5 7q33 11 37 11l6 2l-21 30q-12 16 2 47q4 15 16 27t40 31q42 26 77 33l27 6q17 2 35 2q53 3 65 -15q9 -9 3 -15.5
t-15 3.5q-15 13 -65 10q-49 -6 -80 -18q-55 -31 -52 -37q-3 3 -10.5 -6t-15.5 -23q-12 -23 4 -49q8 -8 8 -12q0 -9 37 -6q12 4 33 4q18 -4 71 -4q15 0 34 -8t20 -15q3 -4 3 -8t-1.5 -7t-3.5 -3q-7 0 -17 10q-3 2 -7.5 4.5t-7 4t-3.5 1.5q-8 -3 -15 2h-24q-17 -3 -27 2
q-5 1 -37.5 -2.5t-37.5 -5.5q-4 -4 0 -14q3 -24 -29 -43q-47 -29 -84 -45q-8 0 -10 -2l-15 -6q-5 0 -12 -7q-1 0 -2 -1t-2 -1l-8 -2q-2 0 -2 -4l57 6q70 7 86 5q80 -7 88 -7q17 0 27 -4q18 -2 24 -8q2 -7 -2 -12q-13 -13 -20 -2q-3 3 -21 7t-26 3q-23 0 -43 2
q-80 5 -232 -22z" />
    <glyph glyph-name="yen" unicode="&#xa5;" horiz-adv-x="415" 
d="M2 498q-10 10 6 26q12 12 47 54q33 42 31 43q-10 0 -24.5 -4t-16.5 -7q-2 -2 -10 -2q-6 3 -4 10q2 9 9.5 13.5t27.5 5.5q47 3 47 12q0 6 12 15l10 14l-24 -4q-52 -8 -56 4q-1 3 2 6q4 4 17 4q12 0 44.5 7t35.5 10q0 4 -2 6l-4 6q1 1 -9 41q-8 21 -8 71t6 56q20 16 21 -33
v-53q12 -80 16 -82q4 -4 82 63q8 10 31 29q20 16 37 33q14 14 19.5 15.5t8.5 -7.5q3 -5 -8 -21q-21 -24 -110 -96q-14 -11 -22 -18t-7 -8q0 -3 22 -7q37 -5 37 -22q-3 -19 -14 -4q-12 9 -49 12l-17 2l-18 -18l-18 -21q0 -4 18 -4q49 0 61 -8q6 -6 -7 -8q-13 -1 -46 0l-43 2
l-10 -13q-8 -6 -57 -63q-8 -10 -29 -31q-2 -3 -6.5 -7.5t-7 -8t-3.5 -6.5q-7 -15 -18 -4z" />
    <glyph glyph-name="dieresis" unicode="&#xa8;" horiz-adv-x="133" 
d="M102 1552q-6 -1 -11 4t-5 11q0 18 8 26q6 12 23 4q4 -2 4 -2.5t0.5 -4t-2.5 -10t-10 -17.5q0 -9 -7 -11zM27 1552q-14 3 -2 31l12 14q36 0 8 -32q2 -3 0 -7t-7.5 -6t-10.5 0z" />
    <glyph glyph-name="copyright" unicode="&#xa9;" horiz-adv-x="923" 
d="M283 463l-25 12q-20 9 -30.5 19.5t-18.5 27.5q-6 12 -4.5 37.5t8.5 38.5q0 1 3.5 9.5t4.5 13.5q15 63 92 116q9 5 25.5 15.5t34.5 19.5l12 8q32 25 150 49q8 2 43 2q66 -3 69 -43q2 -14 -2.5 -22.5t-13.5 -5.5t-2 12q6 11 -8.5 25.5t-34.5 17.5q-11 2 -42.5 -2t-49.5 -10
q-18 -7 -21 -4l-24 -8q-35 -14 -72 -37q-42 -22 -86 -66q-33 -36 -49 -92q-16 -48 -2 -74q12 -17 39 -28q21 -9 53 -9q124 0 233 74q13 10 19 10q1 0 4.5 2.5t14 10.5t22.5 16q32 29 49 53q15 22 18 28t4 23q0 25 -4 29q-13 10 0 29q10 16 23 0q4 -4 4.5 -31.5t-2.5 -40.5
q-4 -15 -26.5 -45.5t-37.5 -44.5l-18 -16l-8 -7q-1 0 -6 -3.5t-15.5 -10t-19.5 -12.5q-39 -27 -41 -27q-1 0 -30.5 -12.5t-35.5 -15.5q-5 -5 -8 -5l-12 -6q-59 -18 -123 -18zM395 582q-16 -1 -20.5 0.5t-12.5 9.5q-10 8 -8 20q3 12 17 37t24 35q32 32 92 51q9 3 27.5 3
t26.5 -3q17 -9 2 -45q-9 -24 -17 -28q-8 -3 -12.5 0t-4 10.5t6.5 17.5q7 12 2 17q-4 4 -17 6.5t-16 -0.5q-1 -1 -16 -6q-26 -8 -55 -37q-6 -6 -17.5 -29t-11.5 -29q0 -9 45 0q5 0 35 6q5 0 13 2l7 1l29 6q24 7 31 4q2 -5 -8 -15q-16 -16 -66 -22q-5 -1 -14 -2.5l-15 -2.5
t-10 -1q-24 -6 -37 -6z" />
    <glyph glyph-name="guillemotleft" unicode="&#xab;" horiz-adv-x="385" 
d="M188 514q-8 -9 -10.5 -8t-7.5 12q-6 14 -29 28t-43 15l-22 6q-8 2 -11 5t-2 7.5t6.5 10.5t16.5 16q50 45 100 76q13 7 16.5 8t6.5 -4q8 -8 -16 -22q-9 -4 -54 -35q-49 -39 -49 -41t16 -6q16 -3 52 -23q28 -17 34 -26t-4 -19zM254 530q0 3 -10 13q-15 10 -17 14l-14 8
q-3 2 -8 4.5t-6 3.5q-7 3 -21 7q-26 3 -26 18q0 8 18 16l70 41q7 7 18 11q15 6 21 2q6 -3 4 -9.5t-9 -7.5q-6 -2 -35.5 -18t-41.5 -25q-8 -6 -2 -10q4 -4 12 -4q13 0 69 -43q7 -7 -4 -21q-4 -4 -10 -4t-8 4z" />
    <glyph glyph-name="registered" unicode="&#xae;" horiz-adv-x="993" 
d="M1044 1208q-42 -7 -90 11q-20 8 -24 8q-8 0 -12 4l-17 6q-19 8 -22 43q0 45 12 72q6 11 31.5 32.5t42.5 30.5l41 15q38 10 43 0q3 -5 10 0q8 4 26 4q10 1 43 -7l35 -14q23 -5 31 -45q5 -24 0 -56.5t-14 -35.5q-4 -4 -4 -6q0 -6 -23.5 -22.5t-40.5 -20.5q-12 -4 -16 -8
q-1 0 -5 -1t-6 -1l-8 -3q0 -4 -12 -4q-6 3 -21 -2zM1094 1239q87 29 84 94q-3 48 -31 62q-6 2 -12 8q-5 2 -11 2q-2 0 -14 6q-13 10 -53 -2q-19 -8 -31 -8q-5 1 -4.5 6t6.5 8q8 0 8 4q0 2 -24 -6q-20 -3 -27 -10q-6 -3 -6 -2q0 2 -7 -2t-18 -13t-20 -18q-20 -20 -24.5 -31.5
t-6.5 -42.5q0 -23 4 -31t19 -14q16 -4 20 -8q27 -11 70.5 -11.5t77.5 9.5zM1106 1266q0 -3 -3 0q0 1 -1 2q-6 6 -33 8q-32 0 -55 20q-11 11 -19 -6q-6 -12 -14 -12q-6 0 -7 1t-1 9q0 21 33 60q25 28 41 36q12 6 18 2q3 -3 22 -8q9 -3 19 -10.5t10 -11.5q0 -8 -11.5 -19
t-23.5 -16q-29 -8 -45 -2q-5 1 -5 0q1 -3 16 -12q12 -9 30 -9q40 0 43 -12q2 -6 -1 -12t-9 -6q-4 0 -4 -2zM1038 1343q3 -9 25 -3.5t24 14.5q0 6 -4 6q-6 0 -2 -4q1 -2 0 -2t-2 2q-4 4 -16 4q-12 3 -19 -4q-9 -6 -6 -13z" />
    <glyph glyph-name="macron" unicode="&#xaf;" horiz-adv-x="131" 
d="M104 1559q-2 6 -22 6h-31q-46 -5 -51 0q-4 2 2 8q9 9 68 14q37 3 50 -0.5t11 -15.5q0 -12 -9.5 -16t-17.5 4z" />
    </font>
</defs>
</svg>
