<?xml version="1.0" standalone="no"?>
<!DOCTYPE svg PUBLIC "-//W3C//DTD SVG 1.1//EN" "http://www.w3.org/Graphics/SVG/1.1/DTD/svg11.dtd" >
<svg xmlns="http://www.w3.org/2000/svg" xmlns:xlink="http://www.w3.org/1999/xlink" version="1.1">
<metadata>
Created by FontForge 20201107 at Mon May 11 13:17:39 2015
 By 
</metadata>
<defs>
<font id="iCielHelena" horiz-adv-x="0" >
  <font-face 
    font-family="iCiel Helena"
    font-weight="400"
    font-stretch="normal"
    units-per-em="1000"
    panose-1="0 0 0 0 0 0 0 0 0 0"
    ascent="750"
    descent="-250"
    x-height="470.5"
    cap-height="665"
    bbox="-381 -465 988 1082"
    underline-thickness="50"
    underline-position="-100"
    unicode-range="U+001D-E020"
  />
<missing-glyph horiz-adv-x="300" 
 />
    <glyph glyph-name=".notdef" horiz-adv-x="300" 
 />
    <glyph glyph-name=".null" 
 />
    <glyph glyph-name=".null" 
 />
    <glyph glyph-name="nonmarkingreturn" horiz-adv-x="300" 
 />
    <glyph glyph-name="space" unicode=" " horiz-adv-x="300" 
 />
    <glyph glyph-name="exclam" unicode="!" horiz-adv-x="211" 
d="M67 647q11 -1 19 -1.5t16 -1.5q33 -3 51 -26t16 -56q-1 -17 0 -32.5t2 -32.5l2 -8t3 -6q11 -10 13.5 -21.5t4.5 -24.5q2 -17 6 -33t7 -32.5t4 -33t-3 -33.5q-1 -2 -0.5 -5t-0.5 -5q-8 -17 -10.5 -34t-3 -35l-1 -36t-4.5 -35q-3 -15 -7 -30t-9 -30q-2 -5 -7.5 -9.5
t-13 -7.5t-15.5 -4.5t-14 -0.5q-8 2 -15.5 4t-15.5 3q-26 3 -36.5 12.5t-14.5 35.5q-5 32 -8 65t-5 66q-1 46 -1 92t2 92q2 26 7.5 51t10.5 51q2 13 4.5 26t5.5 26q2 13 5 25.5t6 24.5zM0 -127q1 18 12.5 28t25.5 15q24 10 49 24q14 8 27 2.5t26 -12.5q11 -6 16 -14t2 -21
q-1 -5 0.5 -11t0.5 -11q-6 -32 -19 -43t-47 -9q-11 1 -22 1t-22 1q-12 1 -21.5 5t-10.5 21q0 5 -6 10.5t-11 13.5z" />
    <glyph glyph-name="quotedbl" unicode="&#x22;" horiz-adv-x="155" 
d="M149 537q-4 2 -6.5 2t-5.5 2q-3 -6 -6.5 -11.5t-4.5 -11.5q-3 -17 -15 -22t-25 -13q-1 44 6 83.5t15 79.5h14q17 -2 24 -8t9 -23q1 -7 1 -13.5v-13.5q-2 -13 -3 -25t-3 -26zM11 650q16 -2 26 -9t10 -19q0 -32 -4.5 -63t-18.5 -60q-18 0 -20 17q-2 18 -3 36.5t0 37.5
q0 14 3.5 29t6.5 31z" />
    <glyph glyph-name="numbersign" unicode="#" horiz-adv-x="752" 
d="M724 298h-188q-21 0 -33 -1t-17 -6.5t-5 -17t2 -32.5q2 -14 4.5 -28.5t4.5 -31.5q65 -5 130.5 -9t129.5 -23q-9 -7 -19 -10t-20.5 -4.5t-21.5 -2t-21 -3.5q-20 -6 -41 -10t-42 -7q-22 -3 -44 -4.5t-46 -3.5v-38.5t-1 -38.5t-2 -39t-4 -39q-2 -10 -5.5 -20.5t-20.5 -9.5
q-3 0 -7 -3.5t-5 -6.5q-1 -12 -6 -20.5t-13 -15t-17 -12t-17 -12.5q-23 66 -36 133.5t-18 139.5q-20 -2 -37 -4.5t-35 -4.5q-3 -17 -3 -27q0 -14 1 -28t-2 -28q-3 -12 -9 -23t-14 -22q-8 -10 -18 -19.5t-22 -21.5q-15 42 -29 82t-28 79q-20 -3 -33 -3t-26.5 5t-31 15.5
t-45.5 30.5q32 8 61 14t58 13v124q-16 -2 -29.5 -2.5t-27.5 -2.5q-16 -2 -26.5 -1.5t-18.5 4.5t-14.5 12.5t-15.5 23.5q16 8 33 10.5t34 3t34.5 1t34.5 5.5q8 23 7 47t0 47q1 14 -0.5 28.5t0.5 28.5q3 21 8 42t10 43q28 -1 42 -13t19 -35q2 -5 2.5 -10.5t3.5 -10.5
q23 -36 30.5 -77t12.5 -85q17 -2 34 -2.5t35 -1.5q7 66 13.5 130t13.5 130q13 0 22.5 0.5t18.5 -1.5q20 -5 35 -12t24 -18t10.5 -27.5t-5.5 -40.5q-2 -6 -1.5 -12t0.5 -13v-145q30 -11 61.5 -16t63.5 -9t64 -9.5t64 -17.5zM339 303q-20 -3 -36 -5t-33 -4q-2 -26 -4.5 -50.5
t-4.5 -50.5h78v110z" />
    <glyph glyph-name="dollar" unicode="$" horiz-adv-x="348" 
d="M46 118q5 -17 10.5 -33.5t8.5 -33.5q2 -13 10 -23.5t19.5 -17t24.5 -8t25 3.5q4 2 3 2q21 3 33.5 12t19 21.5t8 28t0.5 32.5q-2 29 -6 56.5t-9 55.5q-6 27 -24 46q-20 23 -41 44.5t-43 42.5q-32 32 -35 71t26 72q3 4 6 7t7 5q20 6 27.5 21.5t13.5 32.5q11 27 20 57
q5 14 10 27.5t10 27.5q16 2 17 -6.5t1 -16.5l-3 -96q-1 -4 -0.5 -7.5t0.5 -5.5q26 -10 50 -18t48 -17q2 -2 2.5 -7.5t2.5 -12.5q-14 -3 -27.5 -5.5t-26.5 -4.5q-8 8 -17 15t-21 18q-1 -25 -12 -28t-25 -1q-5 -7 -8 -12t-7 -10q-15 -17 -11.5 -39t22.5 -36q16 -11 30.5 -21.5
t30.5 -21.5q35 -23 63.5 -50.5t51.5 -62.5q7 -10 9 -19t4 -20q4 -30 4 -58.5t-8 -59.5q-7 -31 -19 -57t-30 -51q-13 -18 -29 -30t-39 -14q-15 -2 -22 -9.5t-12 -21.5q-5 -17 -12 -34t-15 -34q-2 -4 -6 -6.5t-9 -7.5q-8 26 -16 51l-16 50q-4 12 -11 19t-17 15
q-21 19 -40.5 39t-36.5 43q-14 19 -9.5 39t18.5 38q5 7 12 11.5t15 12.5z" />
    <glyph glyph-name="percent" unicode="%" horiz-adv-x="624" 
d="M14 -193q-4 11 -4 24t6 25q14 27 27 54t29 53q17 28 36.5 54t37.5 54q8 12 13.5 24.5t11.5 25.5q6 14 25.5 45.5t45.5 71.5t55 83.5t54.5 82t43 66.5t21.5 38q12 30 27.5 57t35.5 53q13 15 25 34q7 9 14.5 15t20.5 3q29 -8 33 -40q3 -23 -9 -47q-9 -18 -14.5 -37.5
t-14.5 -37.5q-8 -17 -29.5 -58t-49.5 -94t-59.5 -112t-60.5 -111t-51.5 -91t-32.5 -53q-20 -28 -39 -55.5t-34 -57.5q-14 -26 -35 -40.5t-45 -24.5q-9 -4 -19.5 -7.5t-21 -5t-21.5 0t-22 8.5zM559 132q18 -6 30.5 -20.5t20 -29.5t10.5 -27.5t3 -15.5q-3 -24 -18.5 -38.5
t-32.5 -24.5q-32 -18 -67.5 -19t-70.5 19q-24 14 -31.5 40t3.5 52q12 27 30 48t48 29q5 1 16 1t23 -2t22 -5t14 -7zM523 89q-44 -10 -60 -57q-6 -18 2 -31t26 -15q9 -2 19.5 2t19.5 10.5t15 16t7 18.5q0 4 -1.5 8t-3.5 8q-6 10 -11.5 19.5t-12.5 20.5zM147 414
q12 -21 16.5 -43.5t5.5 -43.5q-4 -14 -14.5 -21.5t-29.5 -15.5q-11 -1 -23.5 -1.5t-25.5 -1.5q-23 -1 -40 11.5t-28 26.5q-10 13 -8 31.5t12 35.5q2 4 5.5 7t6.5 6q5 6 22 13t37 11t38 1.5t26 -16.5zM59 339q7 -11 14.5 -16t21.5 0q2 13 1 24t-18 18q-25 4 -19 -26z" />
    <glyph glyph-name="ampersand" unicode="&#x26;" horiz-adv-x="762" 
d="M612 241q15 -5 25 -7q21 -4 44.5 8.5t31.5 32.5q7 17 5 39.5t-12.5 41.5t-30.5 30.5t-49 7.5q-15 -3 -25 -14.5t-16.5 -27t-9 -34t-2.5 -35.5q0 -24 -1 -48t-6 -47q-5 -20 -13 -39t-16 -39q-2 -5 -6 -10t-2 -8q10 -22 5.5 -40.5t-14.5 -41.5q-13 -35 -40 -62
q-8 -8 -15 -18t-23.5 -21.5t-47.5 -24.5t-87 -27q-44 -11 -82.5 -6t-73.5 29q-45 30 -76 74t-48 95q-8 23 -14.5 45t-10.5 45q-3 17 -1.5 35t3.5 35q7 42 23.5 78.5t41.5 69.5q18 24 41 45.5t46 47.5q0 11 -1 25.5t-1 30.5q0 31 12 59t40 42q2 1 11.5 5t22.5 7.5t26.5 6
t23.5 1.5q26 -4 50 -9.5t44 -25.5q14 -14 19.5 -34t-3.5 -39q-2 -4 -3 -7q-5 -17 -24 -14q-1 1 -5 1q-15 3 -18 20q-1 11 -8 21.5t-17.5 18t-22.5 10t-24 -2.5q-6 -3 -13 -8t-13.5 -14t-11.5 -22t-6 -32q0 -27 5 -44.5t13 -29t19.5 -18.5t24.5 -14q8 -5 13.5 -10.5
t-2.5 -17.5h-41q-32 1 -52.5 -15t-31.5 -44q-10 -24 -18.5 -48.5t-15.5 -49.5q-17 -67 -1 -130.5t70 -101.5q30 -16 57 -26.5t62 -8.5q4 0 7 1l6 2q42 15 69 38t45 55q2 2 1.5 5t-0.5 8q-5 -2 -9.5 -2t-8.5 -2q-35 -14 -71.5 -5.5t-67.5 23.5q-9 4 -21 11.5t-24 19.5
t-21.5 29t-13.5 40q2 20 7.5 40t22.5 37q12 13 28 19t32 7t31 -2t24 -9q14 -9 19.5 -24.5t-0.5 -27.5q-11 -23 -51 -13q17 8 21.5 18t-6.5 31q-9 6 -19 6t-19.5 -4.5t-17.5 -13t-12 -18.5q-21 -49 27 -81q23 -15 47 -18.5t45.5 3.5t39 24t27.5 43q14 35 20 71.5t10 73.5
q4 38 24 63.5t44 48.5q17 16 40.5 17t46.5 -6t42.5 -19.5t29.5 -24.5q15 -16 23.5 -39.5t7.5 -48.5t-10.5 -47t-30.5 -35q-29 -24 -54.5 -20.5t-53.5 35.5z" />
    <glyph glyph-name="quotesingle" unicode="'" horiz-adv-x="51" 
d="M33 505q-7 23 -12 43t-11 39q-16 51 -5 105q24 6 36.5 -7t8.5 -36t-4.5 -47t-2.5 -47q0 -7 1 -13.5t-1 -13.5q-1 -5 -4 -10.5t-6 -12.5z" />
    <glyph glyph-name="parenleft" unicode="(" horiz-adv-x="225" 
d="M107 637q11 -1 20 -1t17 -2q14 -3 25 -16.5t6 -24.5t-9 -37t-7.5 -60.5t-7 -74t-6.5 -77.5t-5 -70.5t-4 -52.5q-2 -21 0.5 -42.5t2.5 -42.5q-1 -42 5 -82.5t22 -78.5q13 -30 29 -58.5t30 -56.5q-25 -25 -47 -28t-47 17q-14 11 -26 25.5t-22 30.5q-14 22 -25.5 45
t-22.5 46q-23 51 -29.5 101t-3.5 113q3 34 6 61t7 51.5t9 50t12.5 55.5t18.5 67.5t27 87.5q5 14 11.5 27z" />
    <glyph glyph-name="parenright" unicode=")" horiz-adv-x="196" 
d="M2 614q-5 10 2 18.5t18 5.5q20 -6 36 -17.5t27 -34.5q8 -18 21 -32.5t23 -31.5q11 -22 22 -44.5t18 -46.5q18 -62 23 -125q4 -41 4 -81t-2 -82q-1 -35 -4.5 -68.5t-6.5 -68.5q0 -3 -6 -27t-21 -54t-39.5 -58.5t-61.5 -40.5q-8 -2 -14.5 3t-7.5 13q0 5 1 8q6 40 12 79.5
t13 80.5q3 22 5.5 53t4.5 54q2 47 4.5 93.5t4.5 93.5q2 65 -11.5 125.5t-36.5 120.5q-6 16 -13 31.5t-15 32.5z" />
    <glyph glyph-name="asterisk" unicode="*" horiz-adv-x="244" 
d="M23 491q15 8 30 16.5t32 17.5q-23 10 -44 19t-41 18q19 10 37 5t38 -3q-10 11 -19 20.5t-20 20.5q14 2 25.5 5t22.5 5q5 -8 9.5 -14.5t10.5 -14.5l3 12t3 9q18 2 31 -4.5t18 -26.5q10 6 19 12.5t18.5 12.5t20 9t24.5 1q-12 -17 -22.5 -32.5t-21.5 -31.5q13 -6 24.5 -12
t22.5 -11q0 -4 -1 -6l-24 -6t-25 -6q4 -8 7 -16t8 -18q-15 10 -28.5 18.5t-27.5 17.5q-5 -13 -10 -23.5t-10 -22.5q-8 5 -15 8.5t-14 6.5q-8 -2 -17 -5.5t-15 -1.5q-12 5 -26.5 5.5t-22.5 15.5z" />
    <glyph glyph-name="plus" unicode="+" horiz-adv-x="406" 
d="M140 260q-2 30 -3.5 58t-3.5 56q-2 45 43 42q23 -1 42 -8.5t41 -24.5q2 -29 5 -58t5 -58q1 -13 7.5 -18t17.5 -7q20 -5 41 -10.5t41 -10.5q4 -1 7 -2t7 -2q16 -5 15 -21q-1 -11 -8 -13.5t-15 -3.5q-8 0 -16 1t-16 1q-18 1 -36.5 0.5t-36.5 -0.5q-4 -17 -3.5 -33t1.5 -32
t-0.5 -32t-9.5 -32q-6 1 -12 1.5t-12 0.5q-37 3 -56 21.5t-24 56.5q-2 17 -6.5 34t-9.5 37q-14 -4 -23.5 -6t-17.5 -4q-17 7 -33.5 13t-32.5 14q-19 10 -38 30q17 6 34 8t34 1.5t35 -1t37 1.5z" />
    <glyph glyph-name="comma" unicode="," horiz-adv-x="185" 
d="M0 -245q11 10 19 17l16 14q17 16 28.5 33t12.5 42q0 18 4.5 36t8.5 38q9 7 15 0.5t14 -9.5q7 -2 15.5 -0.5t17.5 2.5q8 -19 17 -38.5t17 -39.5q-1 -5 -1.5 -10.5t-2.5 -11.5q-1 -2 -1 -5t-2 -5q-15 -12 -29 -25.5t-31 -21.5q-19 -10 -40 -15.5t-44 -3.5q-8 1 -15.5 1
t-18.5 2z" />
    <glyph glyph-name="hyphen" unicode="-" horiz-adv-x="329" 
d="M329 226q-19 -5 -38 -12.5t-39 -6.5q-17 1 -33 -1.5t-31.5 -5.5t-31.5 -5.5t-32 -3.5q-14 -2 -27 -1.5t-24 8.5q-16 11 -32 21.5t-30 23.5q-6 5 -7.5 15t-3.5 21q18 -9 37 -12t37.5 -3t37.5 0.5t37 -1.5q37 -5 74 -8t74 -8q8 -1 16 -4t16 -5v-12z" />
    <glyph glyph-name="period" unicode="." horiz-adv-x="88" 
d="M46 -102q11 -14 21 -25.5t21 -24.5q-3 -11 -6.5 -22t-7.5 -24q-9 1 -17 -2t-16 -5.5t-16.5 -3t-17.5 5.5q-8 17 -6.5 31t8 25.5t17 22.5t20.5 22z" />
    <glyph glyph-name="slash" unicode="/" horiz-adv-x="229" 
d="M197 640q22 -18 28 -38t1 -43q-4 -14 -6.5 -27.5t2.5 -28.5q1 -4 0.5 -8t-1.5 -9q-5 -38 -9.5 -75t-11.5 -75q-8 -44 -18 -86.5t-19 -86.5q-8 -40 -15.5 -79.5t-16.5 -78.5q-8 -32 -17.5 -64t-19.5 -64q-2 -7 -6 -13t-8 -11q-7 -9 -13 -18.5t-22 -4.5q-22 6 -32 14.5
t-12 28.5q-1 16 -1 32t2 31q8 42 15 82.5t17 81.5q12 51 25.5 99.5t25.5 99.5q8 30 13.5 60.5t11.5 61.5v3q15 56 35 109.5t52 106.5z" />
    <glyph glyph-name="zero" unicode="0" horiz-adv-x="359" 
d="M222 506q-2 -8 -4 -13t-5 -13q11 5 19.5 8.5t19.5 8.5q19 -22 38.5 -43t35.5 -44q20 -30 28.5 -63t-1.5 -70q-2 -7 -1 -10q8 -23 5 -46.5t-7 -46.5q-5 -31 -12 -61t-19 -58t-30 -52.5t-46 -44.5q-17 -13 -33.5 -22.5t-38.5 -7.5q-29 3 -54 14t-43 34q-14 17 -26 37
t-20 41q-29 78 -27.5 157t22.5 157q9 35 28.5 66t37.5 63q7 13 16.5 19.5t21 8.5t23 0.5t23.5 -2.5q12 -2 23.5 -7t25.5 -10zM253 375q-7 -11 -14.5 -19t-10.5 -18q-9 -34 -20.5 -67t-31.5 -63q-16 -24 -29.5 -49.5t-27.5 -51.5q-2 -5 -4.5 -9t-2.5 -9q-1 -34 8.5 -63.5
t32.5 -54.5q15 -17 29 -17.5t32 14.5q15 12 23.5 27t15.5 32q38 95 46 199q4 42 -4 79.5t-42 69.5zM208 476q-72 -103 -84 -213q10 14 16 29t17 27q23 27 33.5 58.5t19.5 63.5q2 6 1 14t-3 21z" />
    <glyph glyph-name="one" unicode="1" horiz-adv-x="222" 
d="M89 395q-18 -12 -29 -17.5t-20 -4.5t-17.5 9t-22.5 23q34 14 57.5 38.5t43.5 53.5q8 11 15 17t21 4q18 -2 35.5 -3t34.5 -3q4 -32 8 -60t6 -56q1 -17 0 -35t-4 -35q-10 -47 -21 -93t-21 -93q-8 -35 -14 -71t-14 -71q-2 -12 -6 -24t-7 -24q-9 2 -15.5 2.5t-13.5 1.5
q-17 2 -27 5t-16 9t-9 16t-6 27q-9 53 -3.5 104.5t13.5 102.5q5 40 14 78.5t17 77.5q1 5 1 10v11z" />
    <glyph glyph-name="two" unicode="2" horiz-adv-x="335" 
d="M238 519q-23 -8 -45.5 -15t-42.5 -18q-8 -5 -15 -15.5t-9 -20.5q-2 -13 -7.5 -22t-17.5 -11q-4 -1 -10 3t-12 10.5t-9.5 14t-3.5 12.5q2 12 4.5 24t15.5 19q42 22 85 35.5t91 5.5q22 1 36 -16t21.5 -39t10.5 -43.5t4 -29.5q1 -14 -7 -37t-21.5 -50.5t-30 -57t-33 -56
t-30 -47t-20.5 -30.5q-13 -20 -26 -38.5t-26 -37.5q-12 -19 -23.5 -38t-23.5 -39q25 -3 51 -7t52 -6q23 -3 44.5 -4t44.5 -4q6 -1 12.5 -4t8.5 -8q3 -10 -3.5 -15t-14.5 -7q-13 -4 -24 -1q-45 10 -89.5 12t-90.5 3q-40 1 -64 30t-19 70q2 12 5 24t8 23q20 40 40 79.5
t43 77.5q26 44 55.5 86t59.5 84q20 26 27 49t-1 55z" />
    <glyph glyph-name="three" unicode="3" horiz-adv-x="298" 
d="M74 106q-5 -5 -10.5 -9.5t-11.5 -9.5q-12 -10 -17 -24t-3.5 -28.5t9.5 -27t22 -19.5q10 -5 23 -7t26 0.5t25 9.5t20 21q15 28 30 55t17 59q1 19 1.5 37t-2.5 36q-3 16 -9.5 30.5t-18 24.5t-28 14.5t-38.5 0.5q-12 -2 -24 -2.5t-23 -2.5q-3 9 -4 14.5t-1 11t1.5 12
t4.5 18.5q20 8 39.5 17t39.5 14q28 8 40 26.5t15 42.5q2 20 0.5 39t-2.5 39q-11 3 -18.5 1.5t-14.5 -9.5q-13 -16 -27 -30.5t-28 -29.5l-14 -16t-15 -18h-21q-9 13 -8.5 25t8.5 26q19 32 47.5 53t60.5 38q23 11 46.5 4.5t40.5 -25.5q37 -42 30 -95q-2 -16 -2 -32t-4 -31
q-5 -22 -17.5 -39t-29.5 -33q4 -5 7 -9.5t8 -7.5q40 -30 48 -69.5t2 -84.5q0 -2 -6 -21t-15.5 -42.5t-21.5 -45.5t-25 -29q-7 -6 -26.5 -15.5t-42.5 -18t-46.5 -12.5t-38.5 1q-29 10 -44.5 27.5t-22 36.5t-5.5 37.5t6 32.5q8 24 26 32.5t38 12.5q1 -2 2 -3t2 -3z" />
    <glyph glyph-name="four" unicode="4" horiz-adv-x="306" 
d="M153 188q-25 5 -49.5 9.5t-49.5 8.5q-12 2 -19.5 8.5t-13.5 15.5q-15 23 -19 47.5t7 51.5q12 30 22 60.5t23 59.5q8 17 19.5 31.5t22.5 29.5q8 11 17 21.5t19 23.5q16 -14 29.5 -26.5t26.5 -23.5q-3 -15 -8.5 -21.5t-15.5 -24.5q-6 -13 -16.5 -34.5t-21.5 -45
t-21.5 -44.5t-17.5 -33q-12 -27 -10 -43.5t12 -25t24.5 -10.5t26.5 -2q23 1 30 25q15 46 31.5 91.5t32.5 90.5q3 10 5 19t5 20q13 7 25 4.5t23 -9.5q5 -3 9.5 -8t3.5 -9q-1 -9 -3.5 -36t-6 -58.5t-7 -62.5t-5.5 -47q-4 -29 -7.5 -57.5t-13.5 -56.5q-12 -33 -21.5 -66.5
t-19.5 -67.5q-1 -4 -5 -12q-7 -17 -13 -33.5t-14 -34.5h-15q-10 2 -16 12t-6 41v48v62t0.5 62.5t0.5 49.5z" />
    <glyph glyph-name="five" unicode="5" horiz-adv-x="344" 
d="M104 273h-24q-11 -1 -15.5 4.5t-6.5 14.5q-12 55 -2 106.5t36 100.5q13 22 32.5 31.5t45.5 3.5q17 -4 33 -4t33 7q16 7 30 -2.5t24 -30.5q-19 -6 -37.5 -12t-37.5 -11l-14 -4t-14 0q-16 4 -24.5 -2.5t-12.5 -20.5q-4 -11 -6 -23t-4 -23q1 -6 6 -6t7 -1q48 -5 84 -30.5
t65 -58.5q14 -17 21.5 -39.5t12.5 -44.5q8 -36 7.5 -72t-14.5 -71q-12 -29 -29.5 -52t-46.5 -37q-15 -8 -27.5 -15t-29 -14t-40 -13.5t-60.5 -13.5q-31 2 -47.5 20.5t-30.5 40.5t-16.5 47t2.5 49q2 15 9.5 29.5t13.5 28.5q28 -7 35 -15.5t4 -31.5q-1 -9 -1.5 -19t4.5 -15
q9 -11 19 -21.5t27 -15.5q3 -1 9.5 -0.5t14 1.5t15.5 3t14 5q24 9 39 28t21 35q4 9 5.5 27t0.5 39t-3 43.5t-6 41t-8.5 31.5t-9.5 15q-27 13 -54 5.5t-43 -30.5q-4 -6 -6 -8z" />
    <glyph glyph-name="six" unicode="6" horiz-adv-x="269" 
d="M103 171q3 2 12 6t19.5 7.5t21 5.5t17.5 0q23 -8 44 -17t38 -29q4 -4 7 -8t4 -9q8 -65 -12 -127q0 -2 -4 -6q-17 -20 -43.5 -34.5t-54.5 -16.5t-54 11.5t-44 48.5q-8 16 -16.5 31t-15.5 32q-16 39 -20 79.5t1 83.5q12 100 48 195q9 25 23 41.5t31 26.5t37 14t41 5
q20 1 35 -12.5t29 -30.5q-13 -8 -23.5 -16.5t-22.5 -13.5q-20 -8 -33.5 -21t-22.5 -28.5t-14.5 -32.5t-9.5 -35q-8 -33 -11.5 -66.5t-8.5 -66.5q0 -4 0.5 -7.5t1.5 -9.5zM93 84q0 -12 1 -19t2.5 -12t3 -10.5t3.5 -12.5q3 -16 12.5 -20.5t23.5 -3.5q31 2 52 23t26 55
q6 46 -32 60q-36 3 -54 -6t-26.5 -21t-9.5 -22.5t-2 -10.5z" />
    <glyph glyph-name="seven" unicode="7" horiz-adv-x="299" 
d="M131 189q-15 -2 -24.5 -2t-17.5 -1q-24 -2 -34 8.5t-9 39.5q23 -2 45 -2.5t43 -2.5q6 17 17 45t22.5 55.5t20.5 49t12 27.5q5 9 9 19t9 24q-13 -1 -21 -1t-16 -2q-15 -3 -39 -3t-48 1.5t-43 4.5t-22 6q-10 10 -17.5 22t-17.5 26q40 -2 76 -4.5t72 -4.5q21 -1 42.5 0
t42.5 3q9 0 19.5 -5t20.5 -13t16.5 -18t8.5 -19q2 -15 -2 -39.5t-11.5 -53.5t-17 -59.5t-19 -57.5t-17.5 -48.5t-12 -31.5q-7 -17 -16 -33t-16 -33q-4 -9 -12.5 -28t-18 -39t-18.5 -38.5t-13 -25.5q-2 -3 -8.5 -3t-14.5 -1q-9 3 -14 10t-3 30.5t13 69.5t33 128z" />
    <glyph glyph-name="eight" unicode="8" horiz-adv-x="261" 
d="M0 52q12 98 77 164q11 11 21 22t21 22q17 15 6 36q-13 22 -24.5 44t-24.5 44q-14 24 -22 48.5t2 53.5q4 11 14 21t22.5 17t26 9.5t24.5 -1.5q23 -10 41.5 -18.5t38.5 -26.5q8 -10 11 -25.5t4 -31.5t0.5 -29.5t0.5 -19.5q4 -39 -13 -75q-9 -20 2 -38q25 -39 30 -82t0 -87
q-9 -82 -70 -137q-14 -12 -30.5 -22t-33.5 -11q-23 -2 -45.5 8t-42.5 21q-15 8 -24 34.5t-12 59.5zM148 195q-6 -9 -19 -27t-28 -38t-27.5 -38.5t-16.5 -27.5q-16 -40 10 -86q14 2 22.5 2.5t21.5 2.5q20 2 30 13t14 30q8 40 5 79.5t-5 79.5q0 2 -2.5 4t-4.5 6zM153 386
q15 11 20.5 27.5t2.5 36.5q-4 18 -16.5 28.5t-33.5 5.5q-15 -18 -16.5 -29t9.5 -26l16 -20t18 -23z" />
    <glyph glyph-name="nine" unicode="9" horiz-adv-x="301" 
d="M198 452q20 -9 40.5 -18t42.5 -18q18 -8 18 -27q1 -22 1 -58v-71t-0.5 -63t-1.5 -34q-1 -11 -4.5 -38.5t-8.5 -59t-12 -61t-14 -43.5q-5 -10 -8 -19.5t-7 -19.5q-26 2 -37.5 16t-17.5 39q-18 70 -15.5 139.5t6.5 139.5q0 5 0.5 9t0.5 7q-26 0 -51 -1t-51 2q-18 2 -32 14
t-22 28q-16 30 -22.5 62.5t4.5 67.5q21 64 85 82q20 6 38 3t30 -25q8 -14 17.5 -26.5t20.5 -26.5zM167 446q-11 2 -19.5 3t-17.5 1l-14 -2t-12 -4q-7 -4 -14.5 -15t-13.5 -25t-9 -28t0 -23q8 -23 23 -29.5t33 8.5q13 11 22.5 24.5t19.5 26.5q24 29 2 63z" />
    <glyph glyph-name="colon" unicode=":" horiz-adv-x="172" 
d="M0 195q22 8 42.5 17.5t44.5 8.5q16 0 30.5 -7t26 -18.5t19 -26t8.5 -30.5t-6.5 -27.5t-15.5 -22.5t-18 -17.5t-21.5 -10t-23.5 -5.5l-24 -4q-14 -2 -22.5 11t-3.5 30q3 14 0.5 25t-10.5 22q-6 6 -7 12q-5 10 -9.5 21t-9.5 22zM73 416q17 -7 31 -12t27 -13
q17 -11 27 -26.5t10 -36.5q1 -14 -5 -20.5t-21 -11.5q-20 -8 -33.5 -3t-27.5 14q-6 4 -10 12.5t-5 16.5q-3 14 -3.5 28t0.5 28q0 6 3.5 11.5t6.5 12.5z" />
    <glyph glyph-name="semicolon" unicode=";" horiz-adv-x="109" 
d="M5 96q17 9 23.5 21t3.5 35q-1 9 -1.5 19t2 20.5t9.5 20t21 15.5q8 -7 17 -14t17 -16q21 -24 4 -51q-5 -8 -6 -19t-3 -22q-3 -38 -29 -42q-23 -3 -36 4.5t-22 28.5zM48 406q15 -1 24 -7.5t15 -16.5t10 -21t8 -21q5 -13 2 -22.5t-10.5 -18t-16.5 -17t-15 -18.5
q-10 8 -19.5 15t-20.5 -6q-14 11 -21 22t0 28q2 6 2 12t1 12t4.5 11.5t12.5 9.5q8 4 12.5 15.5t11.5 22.5z" />
    <glyph glyph-name="less" unicode="&#x3c;" horiz-adv-x="278" 
d="M266 484q2 -11 5 -21t5 -21q3 -17 0 -31.5t-23 -22.5q-8 -2 -11 -7q-14 -26 -31.5 -48t-37 -44t-40 -43.5t-39.5 -45.5q35 -36 70.5 -71.5l72.5 -72.5q-16 -8 -28 -9t-26 9q-97 64 -161 156q-9 13 -13.5 29t-7.5 32q-3 14 3 26.5t18 23.5q36 31 71.5 62.5t70.5 63.5
q15 14 27 21.5t24 11t24 3.5t27 -1z" />
    <glyph glyph-name="equal" unicode="=" horiz-adv-x="346" 
d="M3 222q44 1 87.5 2.5t86.5 -0.5t85.5 -9.5t83.5 -24.5v-7q-5 -2 -9 -4t-9 -3q-19 -3 -38 -5.5t-38 -7.5q-44 -12 -87 -15.5t-88 -1.5q-4 0 -7 1t-7 1q-42 0 -55 15.5t-5 58.5zM9 300q5 8 8.5 13.5t5.5 9.5q8 -2 16 -5.5t16 -2.5q44 4 86.5 0t86.5 -9q27 -3 54.5 -5
t56.5 -5q-8 -11 -19 -13t-22 -5q-7 -2 -14 -2t-14 -2q-23 -8 -46.5 -11.5t-47 -5t-47 -2.5t-46.5 -4q-30 -4 -48 8.5t-26 40.5z" />
    <glyph glyph-name="greater" unicode="&#x3e;" horiz-adv-x="267" 
d="M41 496q13 -8 24.5 -13t19.5 -13q43 -45 85 -90.5t85 -91.5q11 -12 11.5 -25t-7.5 -27q-21 -39 -43 -77t-58 -67q-5 -4 -7.5 -10.5t-7.5 -10.5q-8 -6 -15.5 -14t-15.5 -13.5t-18.5 -7t-24.5 3.5q-8 3 -16 1t-16.5 -4t-18 -1t-18.5 9q0 30 6.5 59.5t22.5 57.5q22 37 43 74
t43 74q10 17 10.5 32t-15.5 30q-11 12 -20 26t-21 25q-16 14 -23 30.5t-5 42.5z" />
    <glyph glyph-name="question" unicode="?" horiz-adv-x="305" 
d="M60 28q-5 21 -11 41t-10 41q-5 26 -7.5 52.5t-5.5 53.5q-8 60 10.5 112t55.5 100q17 21 32.5 43.5t26.5 48.5q20 48 15 109q-25 -9 -41.5 -25t-30.5 -33q-23 -29 -42 -32t-52 20q20 33 43.5 60.5t61.5 43.5q32 14 63.5 11.5t61.5 -14.5q14 -6 23.5 -21.5t19.5 -29.5
q21 -26 23.5 -56t1.5 -60v-16t2 -16q8 -20 3.5 -39t-11.5 -36q-10 -26 -25.5 -48t-31.5 -44l-28 -36t-20 -38q-5 -17 -12.5 -32.5t-11.5 -32.5q-5 -17 -10 -34.5t-10 -34.5q-9 -31 -27 -43.5t-56 -14.5zM29 -65q14 -15 27 -15t27 7q11 6 27 4q10 0 16 -8q6 -12 10.5 -24
t9.5 -24q4 -10 1 -15q-9 -14 -14 -30t-18 -27q-9 -8 -16.5 -9t-17.5 5q-13 9 -26 17t-26 17q-4 2 -6 8t-1 11q1 10 3.5 19.5t3.5 19.5t0.5 20.5t-0.5 23.5zM101 -93q0 2 -0.5 3.5t-0.5 3.5q-5 -1 -8.5 -1.5t-8.5 -0.5q0 -2 0.5 -3t0.5 -2h17z" />
    <glyph glyph-name="at" unicode="@" horiz-adv-x="862" 
d="M782 537q-2 -13 -2.5 -21t1.5 -13t8 -9t17 -9q15 -8 21 -18.5t10 -24.5q6 -23 12.5 -45.5t12.5 -46.5q-3 -4 -8 -8.5t-8 -10.5q-3 -5 -5 -12.5t0 -12.5q10 -26 2 -47.5t-16 -43.5q-2 -4 -6 -8t-3 -7q4 -13 1.5 -24t-7.5 -21t-12 -19t-13 -19q-4 -8 -5 -12
q-11 -33 -33.5 -53.5t-52.5 -33.5q-11 -5 -22 -11t-23 -9q-42 -12 -76 2t-60 45q-20 25 -35.5 54t-32.5 58q-4 6 -7 13.5t-7 16.5q-8 -5 -16 -8t-13 -8q-12 -14 -28.5 -17t-32.5 -7q-8 -2 -17 0.5t-16 7.5q-26 17 -42 42t-24 55q-5 19 -1.5 36t11.5 36q16 37 44.5 59
t59.5 42q17 11 34 9t33 -12q10 -6 19.5 -7.5t20.5 -1.5q16 1 32 0t31 -4q16 -3 21.5 -10t4.5 -24q-2 -38 -4.5 -76t-2.5 -76q0 -29 3 -57t8 -57q3 -15 16 -27t30 -17.5t35.5 -4.5t32.5 11q39 29 68 64.5t38 85.5q5 28 9.5 55.5t0.5 56.5q-6 42 -22 76.5t-52 58.5
q-8 23 -27 34t-36 25q-12 9 -24 17t-27 12q-8 2 -14 6.5t-14 8.5q-11 5 -21.5 10t-24.5 0q-2 -1 -5 -1.5t-5 1.5q-16 6 -32.5 7.5t-32.5 1t-32.5 -1t-32.5 1.5t-27 -6q-26 -19 -53.5 -36.5t-47.5 -40.5q-17 -20 -33.5 -43.5t-18.5 -54.5q-1 -5 -3.5 -9.5t-5.5 -9.5
q-8 -17 -16.5 -33t-4.5 -36q1 -5 -1.5 -10t-4.5 -10q-11 -23 -17.5 -45.5t4.5 -47.5q2 -3 1.5 -7t-1.5 -7q-12 -41 -7.5 -80.5t8.5 -79.5q2 -24 15.5 -44t33.5 -34q23 -17 45.5 -32t46.5 -29q20 -11 42.5 -16t45.5 4q7 2 10 1q10 -8 21 -10.5t22.5 -3.5t23 -2.5t22.5 -7.5
q-1 -2 -2 -6t-3 -4q-13 -3 -25 -7.5t-25 -8t-26 -5.5t-27 1q-16 3 -32.5 0.5t-33.5 -0.5q-33 2 -63 9q-70 17 -120.5 58t-79.5 108q-19 45 -32 90t-11 95q0 7 -1 14l-2 14q-13 124 54 232q2 2 4 4.5t2 4.5q-6 24 12 45q20 25 39.5 50.5t46.5 43.5q10 5 21 8.5t22 5.5
q20 3 39.5 5t39.5 7q42 10 83.5 14.5t84.5 -4.5q31 -7 63 -8t64 -4q38 -4 71 -17t61 -40q28 -29 72 -28zM448 373q-13 8 -22 7.5t-18 -8.5q-11 -9 -22.5 -16.5t-21.5 -18.5q-20 -21 -38.5 -42.5t-22.5 -53.5q-3 -23 16 -36q10 -8 20 -4.5t18 11.5q10 9 19 19t16 21
q14 23 25.5 46.5t23.5 46.5q3 6 4 13t3 15zM112 -57l-6 -6q5 -5 10.5 -11t10.5 -12q1 2 2 2.5t2 2.5q-5 6 -9.5 12t-9.5 12zM73 446q-8 -5 -11.5 -11.5t5.5 -15.5zM35 213q2 -1 7 -1q0 7 -0.5 13.5t-0.5 12.5h-6v-25z" />
    <glyph glyph-name="A" unicode="A" horiz-adv-x="667" 
d="M587 153q16 43 30.5 87t19.5 70q1 8 6 11.5t10.5 3t9.5 -5t3 -12.5v-1q-1 -9 -9 -37.5t-22 -64.5t-33 -74t-42 -66q-14 -23 -35 -25.5t-43.5 7t-43 27.5t-32.5 37q-25 38 -45.5 78.5t-35.5 84.5l-2 4t-3 5q-4 -2 -15 -6t-24.5 -8t-26.5 -7t-20 -3q-18 0 -27 -1t-13.5 -5
t-7 -13t-8.5 -25q-20 -45 -37 -76t-30.5 -51.5t-24 -32.5t-16.5 -20q-3 -4 -6.5 -7t-7.5 -6q-8 -7 -17 -4.5t-12 11.5q-3 8 -5.5 16.5t-4.5 16.5q-27 100 -9 201q14 76 28.5 151.5t30.5 150.5q8 36 18 71.5t20 70.5q1 4 5 12t9 15.5t9.5 13t7.5 5.5q7 1 14.5 0.5t14.5 -3.5
q35 -14 63 -35t43 -57q9 -20 16.5 -41.5t15.5 -42.5q11 -26 22 -52.5t22 -53.5q1 -2 7 -15.5t12.5 -28.5t12.5 -28t7 -14q4 -8 15 -32t26 -57t31.5 -68.5t31.5 -66.5t26.5 -51t17.5 -22q5 -2 13.5 8.5t17.5 24.5q11 16 22 36zM208 514q-2 -44 -3.5 -88t-3.5 -89
q0 -7 4.5 -12.5t12.5 -5.5q12 -2 24 -2.5t25 -2.5q11 -1 17 7.5t1 18.5q-11 22 -19 44.5l-16 45t-18 43.5t-24 41z" />
    <glyph glyph-name="B" unicode="B" horiz-adv-x="645" 
d="M0 733q1 11 10 16.5t19 1.5q25 -8 44 -16q20 -8 33.5 -22t19.5 -38q7 4 13 7l12 6q24 16 50 23t54 8q25 0 45.5 -14.5t31.5 -36.5q7 -15 11 -44.5t3 -65t-7 -71t-19 -62.5q32 -1 49.5 -17t31.5 -38q8 -14 18 -26t19 -23q38 6 75 11.5t75 10.5q16 2 31 0t26 -16
q-7 -15 -20 -16q-38 -5 -75 -11t-75 -11q-15 -2 -20 -9t1 -24q2 -7 1 -26.5t-6 -45.5t-13.5 -55.5t-21.5 -55.5q-7 -15 -25.5 -29t-43.5 -22.5t-55 -11t-60 4.5q-70 22 -45 89q5 15 12 25q23 34 47.5 65t59.5 55q13 9 20.5 15.5t9.5 13t-0.5 16t-8.5 25.5q-9 22 -20 46
q-4 7 -16 9t-28 -2t-34 -12.5t-33 -22.5q-2 -8 -2 -10q-5 -36 -8 -65t-6 -61q-2 -11 -3 -33.5t-1.5 -45.5t-1.5 -41.5t-1 -21.5q0 -5 -1.5 -19t-4.5 -15q-16 -2 -31.5 -4t-32.5 5q-16 8 -25 20t-15 28q-14 35 -19.5 71t-9.5 72q-4 27 -5.5 54t-3.5 54q-2 19 -1.5 37.5
t-0.5 37.5q-2 44 -4.5 86.5t-6.5 86.5q-2 26 -4.5 51.5t-4.5 51.5q-3 28 -3 57zM183 382q5 5 9 7t6 5q41 55 56 119q4 15 6 30l4 30q2 23 -0.5 44.5t-7.5 42.5q-8 32 -35 17q-15 -9 -29 -20t-27 -22q-11 -11 -9 -32q2 -13 1 -25.5t1 -26.5q4 -26 6.5 -53t6.5 -53
q2 -15 5.5 -30.5t6.5 -32.5zM344 224q-11 -8 -21 -13.5t-18 -13.5q-14 -12 -26.5 -24.5t-26.5 -24.5q-30 -28 -44 -64q-12 -34 24 -43q11 -3 25.5 -1.5t28 6.5t25 13t17.5 18q2 4 6 18.5t7.5 32.5t6 35t1.5 28q-1 8 -2 15.5t-3 17.5z" />
    <glyph glyph-name="C" unicode="C" horiz-adv-x="373" 
d="M271 583l-11 -11t-7.5 -5t-8 0t-12.5 3q-5 16 -9.5 30t-9.5 28q-2 4 -5.5 7t-6.5 2q-3 0 -7 -3t-5 -7q-2 -8 -5.5 -25t-7.5 -37.5t-8 -40t-7 -32.5q-5 -27 -10.5 -64t-9.5 -87t-6 -114t1 -144q1 -19 6.5 -30t12 -17t13 -8.5t9.5 -4.5q19 2 35 21.5t28 38.5
q13 21 24.5 42.5t21.5 44.5q20 50 36 86t27 56q5 9 14.5 7t9.5 -12q0 -11 -7 -22q-4 -6 -14.5 -31t-22 -54t-22.5 -56t-15 -37q-10 -23 -26 -44.5t-33 -38.5q-11 -11 -21 -18t-29 -14q-23 -8 -46.5 -4t-44.5 16q-34 18 -54 53q-10 18 -17 51t-11.5 67.5t-6.5 63t-2 36.5
q0 14 -1 29t1 29q2 30 5 60t8 60q6 35 14 68.5t16 67.5q4 15 9 29.5t13 26.5q7 11 17 19t21 16q9 8 22 12t25.5 5.5t22.5 1t13 -0.5q35 -3 50.5 -26t23.5 -52q4 -16 10 -37z" />
    <glyph glyph-name="D" unicode="D" horiz-adv-x="586" 
d="M437 331q18 4 44 5t49.5 -1.5t39.5 -8.5t15 -15q-1 -1 -13 -1.5t-14 -1.5q-18 -2 -35.5 -3t-35.5 -2q-29 -2 -39.5 -14t-14.5 -41q-8 -57 -24 -99t-33.5 -71.5t-33 -47t-22.5 -23.5q-16 -14 -31.5 -15.5t-34.5 5.5q-18 6 -27.5 18t-14.5 30q-13 50 14 94q1 3 15.5 18.5
t31 36t30 42.5t13.5 37q-2 57 -14.5 111.5t-26.5 108.5q-4 14 -7 29t-7 30q-2 6 -4 14t-5 15t-6.5 11.5t-9.5 2.5q-18 -12 -30.5 -34t-20 -45t-10.5 -43.5t-3 -27.5q0 -9 1 -38.5t2.5 -68.5t2.5 -82.5t2.5 -81t2.5 -63.5t1 -29q2 -19 4 -37.5t4 -38.5q1 -21 -20 -32
q-18 -10 -36.5 -15.5t-39.5 -3.5q-20 2 -31.5 11.5t-13.5 29.5q-4 26 -6.5 52.5t-4.5 52.5q-5 47 -8.5 92.5t-7.5 91.5q-2 27 -2.5 54t-2.5 54q-2 45 -4.5 88t-5.5 88q-2 33 -4.5 66.5t-4.5 68.5q11 -1 21 0t20 -2q17 -6 33.5 -14t33.5 -16q13 -6 18.5 -15t7 -18.5t2.5 -18
t7 -13.5q3 2 6.5 3t6.5 3q35 23 72.5 27t76.5 -7q7 -2 13.5 -2.5t12.5 -3.5q24 -8 42.5 -30.5t31.5 -53t21 -65t11.5 -65t3 -53t-3.5 -29.5zM318 174q-21 -18 -36 -36.5t-27 -38.5q-5 -8 -9 -18t-6 -20q-1 -9 1.5 -18t5.5 -17t9.5 -10t14.5 2q20 9 35 30t17 50q1 17 2 35.5
t-7 40.5z" />
    <glyph glyph-name="E" unicode="E" horiz-adv-x="538" 
d="M512 329q13 -2 20 -12.5t5 -23.5q-6 -39 -22.5 -80.5t-35.5 -77.5t-37 -62.5t-27 -35.5q-13 -15 -23 -25t-19 -16.5t-18.5 -11t-20.5 -8.5q-38 -15 -69.5 -20.5t-72.5 -2.5q-73 4 -127 51q-18 16 -29 35.5t-19 41.5q-5 12 -9.5 30t-6.5 38.5t-0.5 43t7.5 43.5l10.5 28
t9 23.5t9 24t11.5 27.5q9 20 21.5 38t25.5 36q9 13 19.5 24.5t22.5 25.5q-3 6 -6.5 14t-7.5 16q-7 14 -11.5 29t-5.5 31q-1 15 3.5 33t13 35t21 31t27.5 21q27 15 52.5 21t47 6.5t37 -2.5t21.5 -6q20 -11 39.5 -23.5t29.5 -36.5q9 -22 3.5 -41t-25.5 -32q-15 -9 -23.5 -11
t-22.5 4q-9 4 -13 13t-1 19q1 1 1 2t1 2q1 21 -12.5 32.5t-31.5 14t-35.5 -5t-23.5 -24.5q0 -13 -0.5 -26t0.5 -26q1 -14 5.5 -31.5t13.5 -33t22.5 -28t32.5 -17.5q11 -2 21.5 -7t20.5 -10q13 -6 13 -14.5t-12 -15.5q-9 -5 -18.5 -8.5t-21.5 0.5q-10 2 -20 2t-20 2
q-20 2 -31 -4.5t-17 -26.5q-3 -12 -10 -33.5t-14 -43.5t-13 -40t-7 -23q-8 -30 -12 -60t-6 -61q-2 -22 5.5 -40.5t21.5 -33.5q2 -4 9.5 -6t13.5 -2q59 -1 113 25q56 26 97 68.5t64 94.5q12 29 23 60t19 62q0 1 4 1z" />
    <glyph glyph-name="F" unicode="F" horiz-adv-x="503" 
d="M10 692q6 1 13 2.5t14 -0.5q19 -4 38.5 -7.5t37.5 -11.5q44 -17 88 -26.5t92 -4.5q32 3 64.5 5.5t64.5 -4.5q17 -3 33 -8l32 -10q5 -2 8.5 -5.5t7.5 -6.5q-8 -19 -23 -24t-31 -8q-18 -4 -36 -6.5t-36 -7.5q-33 -8 -65.5 -5.5t-65.5 7.5q-18 3 -35.5 6.5t-34.5 7.5
q-7 -8 -10 -29t-3 -46t1.5 -48.5t3.5 -35.5q0 -1 6 -5q41 7 82.5 5t84.5 -10q-1 -20 -17 -31q-25 -15 -51.5 -21t-55.5 -8q-9 -1 -18.5 -1t-19.5 -1q0 -5 -0.5 -8t0.5 -6q11 -39 10 -78.5t-4 -79.5q0 -5 -1 -22.5t-3.5 -41t-7 -50.5t-12 -49.5t-18 -37.5t-25.5 -16
q-5 0 -10 -0.5t-10 -0.5q-75 8 -85 93q-1 4 -2 19.5t-1.5 35t-1.5 39t-1 31.5l-6 141v44t0.5 64t1.5 73.5t1.5 73.5t1 63t1.5 42q0 1 3 9z" />
    <glyph glyph-name="G" unicode="G" horiz-adv-x="460" 
d="M430 606l-1 -1q-9 -3 -16 -2t-13 5t-11 9t-11 8q-17 11 -27 12t-25 -11q-12 -11 -24.5 -21t-23.5 -21q-3 -3 -11.5 -14t-18 -27t-19.5 -35.5t-16 -39.5q-5 -20 -14.5 -38t-15.5 -38q-10 -31 -17.5 -62t-16.5 -63q-7 -28 -4.5 -57.5t9.5 -55.5t17 -47t19 -31
q14 -17 31 -18t36 4q36 11 56 41q14 20 25 40.5t22 40.5q6 11 11 23t10 25q3 3 -1 3q-25 5 -49 9.5t-48 9.5q-37 7 -67 30q-9 6 -8 16.5t11 15.5l22 10l22 10t23 3q17 -3 34 -7t34 -9q22 -7 42.5 -15t43.5 -16l1 -1q17 -12 18.5 -28t-3.5 -39q-8 -37 -17 -73t-28 -71
q-12 -23 -28 -36.5t-36 -27.5q-17 -12 -35 -18.5t-36 -14.5q-33 -13 -62 -3.5t-56 26.5q-14 9 -27 18t-26 19q-39 29 -66.5 66t-35.5 86q-2 10 -2 26.5v33.5t0.5 31t0.5 17q2 11 3.5 23t3.5 23q2 9 5 22t6 21q13 39 31 76t44 69q19 24 35 47q22 31 51.5 50.5t64.5 32.5
q30 11 59.5 15.5t61.5 -9.5q3 -2 14 -7.5t22 -14.5t19.5 -20.5t7.5 -24.5z" />
    <glyph glyph-name="H" unicode="H" horiz-adv-x="600" 
d="M184 267q16 8 29.5 13.5t25.5 13.5q14 9 26.5 19.5t25.5 21.5q4 3 5.5 9t2.5 11q5 31 8.5 61.5t8.5 61.5q2 15 5.5 30.5t6.5 31.5l6 38t8 39q1 4 3 8.5t5 5.5q20 4 39.5 4t38.5 -11q21 -13 29 -34q11 -30 19 -61t8 -63q0 -9 -3.5 -29.5t-9.5 -47t-13 -55t-13 -53t-10 -42
t-4 -20.5q40 29 76.5 59.5t81.5 50.5q12 -17 10.5 -23.5t-17.5 -17.5q-22 -14 -44 -28.5t-42 -31.5q-18 -17 -33.5 -36t-32.5 -37q-6 -8 -12.5 -15t-11.5 -15q-11 -16 -18 -39t-15 -49q-13 0 -24 -1.5t-21 0.5q-28 8 -39.5 23t-13.5 46v15.5t1 15.5q2 15 5 37t6 43t4 37.5
t-1 21.5q-27 -4 -48 -17.5t-44 -24.5q-3 -2 -8.5 -26t-12 -55.5t-13 -64t-12.5 -51.5q-7 -21 -18 -35.5t-32 -20.5q-11 -3 -21 -6.5t-21 -7.5q-19 -7 -32 10q-11 15 -16.5 31.5t-7.5 34.5q-5 37 -3.5 73.5t5.5 73.5q1 15 2.5 30t3.5 30q3 32 6 63t5 63q3 39 3 78
q1 42 0.5 84t-0.5 84q0 4 0.5 15t3 21.5t6 18.5t9.5 7q34 -5 60 -21.5t46 -41.5q11 -13 16.5 -30.5t9.5 -34.5q6 -32 10 -63.5t-1 -64.5q-4 -24 -5.5 -48t-2.5 -48q0 -14 2 -29t4 -35z" />
    <glyph glyph-name="I" unicode="I" horiz-adv-x="285" 
d="M218 50q8 -7 17.5 -6.5t20.5 -1.5q20 -2 25.5 -11.5t-0.5 -32.5q-12 -1 -24 -2.5t-24 -1.5q-26 -1 -52.5 -0.5t-52.5 1.5q-6 0 -11.5 1.5t-10.5 3.5q-11 2 -22.5 3.5t-23.5 3.5q-14 2 -28.5 2.5t-31.5 1.5q0 13 6 19.5t15 9t19 3t18 1.5q-1 12 0.5 54t4 98.5t5.5 120
t6.5 119.5t7 97t6.5 53q2 5 2 9.5v6.5q-21 14 -41 26.5t-42 26.5q13 9 23.5 10t21.5 -2q38 -9 75 -18t75 -20q11 -3 20.5 -9.5t19.5 -12.5q3 -2 5.5 -7t0.5 -7q-4 -9 -13 -11q-10 -2 -19.5 -2h-19.5q1 -10 4 -45t5.5 -83.5t5.5 -103t5.5 -102.5t4.5 -83.5t2 -45.5
q0 -15 -1.5 -30t-3.5 -33z" />
    <glyph glyph-name="J" unicode="J" horiz-adv-x="456" 
d="M167 602q-20 7 -38 6.5t-37 -2.5q-10 -1 -25 0t-29 2.5t-24.5 3.5t-11.5 4q-2 5 -2 9.5v9.5q2 9 4 18.5t4 20.5q5 1 10.5 1.5t11.5 0.5q23 -2 47 -5t47 -5q18 -2 36 -1t36 -2q16 -2 30.5 -8.5t29.5 -12.5q2 -1 3.5 -5t2.5 -7q2 -11 2.5 -22t3.5 -22q4 -15 10.5 -49.5
t13.5 -74.5t12 -78t7 -61q36 1 71.5 5t73.5 0q-3 -13 -8 -18t-16 -7q-22 -5 -43.5 -10t-43.5 -10q-11 -3 -17 -5.5t-9 -6.5t-3.5 -11t-0.5 -18q0 -40 -10 -75t-23 -61.5t-24.5 -43t-13.5 -18.5q-17 -23 -41 -36t-50 -22q-5 -2 -19 -4t-33.5 2.5t-41 18.5t-41.5 45
q-8 14 -8 30t5 31q2 7 4 13t4 13q8 26 22.5 46t34.5 37q28 23 58 43q5 4 8 7.5t3 10.5q1 21 3 59t4 77.5t3.5 72t2.5 42.5q2 17 2.5 34.5t2.5 37.5zM152 218q-9 -3 -24 -17.5t-30 -34.5t-27.5 -43.5t-16.5 -45.5q-2 -9 -1 -19.5t6 -18.5q8 -16 22.5 -22.5t31.5 -9.5
q26 -4 32 25q5 23 9.5 46.5t2.5 46.5q-2 24 -3.5 46.5t-1.5 46.5z" />
    <glyph glyph-name="K" unicode="K" horiz-adv-x="721" 
d="M6 674q0 -1 3 1q15 12 21.5 17t11.5 5t12 -4.5t23 -11.5q30 -14 53.5 -36t46.5 -45q20 -20 27 -46.5t14 -52.5q1 -3 1 -22.5t1 -42.5t3.5 -43.5t7.5 -24.5l42 44t43 44q19 17 38.5 34t38.5 34q4 3 16 13t26.5 21.5t29 21t24.5 11.5q14 3 19 -9q4 -10 1.5 -21.5
t-10.5 -18.5q-7 -5 -25.5 -24t-39.5 -40t-39.5 -40t-25.5 -24q-6 -5 -24.5 -26.5t-39.5 -46.5t-39.5 -47t-23.5 -29q8 -14 14 -28t16 -25q26 -26 58 -44.5t67 -30.5q18 -6 36 -11t38 -5q40 2 69 23q13 10 36 31.5t46 44.5t40.5 44t19.5 31q2 5 2.5 8.5t2.5 8.5q3 7 10 9
t12 -3q20 -17 4 -47q-8 -14 -18.5 -27t-19.5 -27q-3 -4 -20 -21.5t-37 -37.5t-37 -36.5t-20 -18.5q-21 -14 -40.5 -23.5t-53.5 -10.5q-15 2 -29 5t-28 8q-23 7 -53 23t-58 32t-49 29t-24 15q0 -6 -8 -34.5t-18 -62.5t-19 -63t-12 -35q-10 -19 -25.5 -23.5t-32.5 -6.5
q-26 -4 -44 9.5t-35 28.5q-17 16 -23 36.5t-7 43.5q-6 110 7 214q3 28 1.5 56t-1.5 56q0 17 -0.5 35t-0.5 35q-1 29 -1.5 57.5t-0.5 57.5v89z" />
    <glyph glyph-name="L" unicode="L" horiz-adv-x="412" 
d="M402 338q14 -4 9 -18q-6 -17 -17 -46t-23 -58.5t-22.5 -55t-16.5 -36.5q-5 -10 -13.5 -26.5t-20 -35t-26 -37.5t-32.5 -34q-16 -14 -35.5 -23t-40.5 -12.5t-42 -0.5t-39 13q-26 14 -42.5 35.5t-24.5 49.5q-11 34 -13.5 69t-0.5 71q3 33 5.5 57t6.5 46t9.5 46t14.5 56
q9 36 18 71.5t20 70.5q7 22 14.5 43.5t18.5 41.5q16 29 43 48.5t62 20.5q9 1 17.5 -2t16.5 -6q14 -5 12 -20q0 -3 -2 -33.5t-9.5 -71t-22.5 -82.5t-43 -67q-4 -4 -5 -11.5t-1 -14.5q-1 -17 -3.5 -34.5l-4.5 -31.5t-4.5 -28.5t-4.5 -28.5q-1 -10 -3 -31t-4.5 -47.5t-5 -55.5
t-4.5 -54t-3 -43t-1 -22q1 -5 2 -11t6 -11q21 1 37.5 10t30.5 22q20 18 37.5 41.5t31 45.5t22 39t11.5 20q9 13 18.5 33t19 42t17 45t12.5 42q2 6 7 9t11 1zM174 507q-2 -9 -1 -19t1 -19q2 -1 3 -1t3 -1q3 7 7.5 13.5t5.5 13.5q8 38 15 75.5t14 75.5q1 5 -3 9t-6 9
q-6 -9 -12 -30t-11 -45.5t-9.5 -47t-6.5 -33.5z" />
    <glyph glyph-name="M" unicode="M" horiz-adv-x="855" 
d="M451 475q-18 -23 -33 -43.5t-31 -39.5q-11 -13 -23 -25t-25 -23q-11 -10 -21 -9.5t-24 10.5q-20 15 -39.5 30t-42.5 32q-2 -14 -3.5 -26.5t-3.5 -25.5q-1 -6 -6.5 -31t-13.5 -59.5t-17 -73t-17 -72t-13.5 -56.5t-5.5 -26q-8 -37 -26 -62q-7 -10 -18 -14t-23 -1
q-17 5 -27.5 11.5t-17 18t-10.5 28t-7 41.5q-9 78 9 158q8 37 11.5 75t7.5 76q5 45 10 89t10 89q1 8 4 22t7.5 31t9 34.5t8.5 31.5t15.5 22t25.5 7h6q4 0 8 -1.5t6 -4.5q8 -14 19 -22.5t21 -19.5t19 -22t17 -24q9 -14 16 -28t13 -29q13 -32 24.5 -63.5t23.5 -65.5
q4 2 7.5 3.5t7.5 3.5q25 18 44 41t34 50q11 20 21.5 38.5t21.5 38.5q5 11 9.5 23t9.5 24q5 14 10.5 19.5t22.5 5.5q23 -1 44.5 -4t44.5 -7q5 -1 11 -6t9 -10q14 -26 22.5 -52.5t9.5 -56.5q0 -51 -4 -102t-7 -102q-2 -27 -6.5 -53.5t-10.5 -52.5q-4 -15 -9 -29.5t-8 -29.5
q-6 -28 -11 -55.5t-4 -56.5q1 -19 8.5 -26t25.5 -2q44 11 72 46q-1 -2 14 17.5t36.5 50t44 66.5t37.5 69q7 16 16.5 30t18.5 28q10 2 15 -1.5t3 -14.5q-2 -10 -10.5 -29.5t-21 -43.5t-27.5 -50.5t-29.5 -49.5t-27 -41.5t-19.5 -26.5q-11 -12 -18 -23t-15 -17
q-11 -11 -22.5 -21t-25.5 -18q-24 -15 -49.5 -21t-54.5 9q-41 22 -62 56t-29 77q-10 53 -6 105t9 105q4 38 7.5 76t-2.5 81z" />
    <glyph glyph-name="N" unicode="N" horiz-adv-x="731" 
d="M675 313q6 3 20 6.5t25 2.5q6 0 9 -6t0 -11q-9 -14 -29 -25t-44 -19q-29 -9 -57 -13t-57 10q-1 -20 -1.5 -37.5t-1.5 -34.5q0 -11 -4 -35t-10 -52.5t-13 -57.5t-14 -50q-5 -14 -17.5 -20t-26.5 -1t-29 7.5t-26 12.5q-6 5 -14.5 20.5t-17.5 34.5t-18.5 38t-17.5 33
q-21 34 -42.5 67.5t-43.5 67.5q-8 11 -17 28.5t-15 31.5l-10 22t-12 26q-6 -14 -5.5 -24.5t0.5 -20.5q0 -5 0.5 -24.5t0.5 -40.5v-55q0 -1 -0.5 -19t-1.5 -43t-4.5 -52t-9.5 -46q-11 -35 -37 -46.5t-55 -6.5q-8 2 -14.5 4.5t-13.5 5.5q-25 10 -34 29t-10 44q-2 40 -4.5 79.5
t-2.5 79.5q0 39 1 78t3 77q4 60 8 119t8 119q1 10 1.5 20t1.5 21q1 12 10.5 19t21.5 3q24 -6 48 -15q5 -2 18 -18.5t30 -42t36.5 -56.5t36 -61t29 -56.5t16.5 -42.5q3 -14 10 -26.5t13 -26.5q14 -32 28.5 -64t31.5 -63q5 -8 9.5 -14.5t9.5 -13.5q6 2 8 4v39t0.5 71.5
t1.5 79.5t3 64q0 5 0.5 21.5t1 38.5t1 47t1 47t1.5 38.5t3 22.5q4 11 13 14q7 3 13.5 4.5t14.5 3.5q9 2 15 -1.5t11 -11.5q20 -36 27.5 -74.5t12.5 -79.5q4 -38 7.5 -76.5t17.5 -75.5q5 -14 11.5 -29t16.5 -27t25 -15t30 2q17 5 34 12t34 15z" />
    <glyph glyph-name="O" unicode="O" horiz-adv-x="622" 
d="M338 684q7 -27 -2.5 -51t-19.5 -49h18q21 2 37.5 -6t30.5 -21q4 -5 6 -9q3 -11 9 -28.5t11.5 -49.5t8.5 -81.5t0 -123.5q16 -7 31 -4.5t29 9.5q23 11 44.5 21.5t43.5 24.5q26 17 34 4q5 -8 2.5 -17t-12.5 -14q-14 -8 -33.5 -17.5t-40 -17.5t-39.5 -14t-31 -7
q-17 -2 -24.5 -8.5t-11.5 -21.5q-9 -39 -26 -74t-40 -67q-12 -17 -24 -33t-26 -31q-9 -10 -19.5 -14t-23.5 -6q-9 -1 -36 -3.5t-61.5 4t-71 27.5t-64.5 66q-15 28 -21.5 58.5t-11.5 61.5q-8 52 0.5 101t24.5 97q17 51 36.5 99.5t49.5 93.5q11 17 24 32.5t26 31.5
q9 11 20.5 16t24.5 10q27 10 54.5 13t56.5 3q4 0 8 -1.5t9 -3.5zM240 441q-17 -36 -33 -77t-26.5 -89t-13 -103.5t6.5 -119.5q1 -5 4 -11t8 -8q14 -8 29.5 -10.5t30.5 4.5q17 8 30.5 20.5t21.5 29.5q10 16 18.5 45.5t15.5 59t10.5 52.5t3.5 26q-1 5 -2 11t-5 10
q-29 36 -52.5 75.5t-46.5 84.5zM351 328q2 0 4 0.5t4 0.5q0 9 -0.5 18t-1.5 18q-1 16 -4 44.5t-7.5 57.5t-9.5 53t-11 30q-5 7 -13.5 13.5t-18.5 0.5q-8 -6 -12 -17t-2 -22q0 -3 1 -5.5t1 -5.5q4 -18 7.5 -35.5t4.5 -36.5q2 -35 18.5 -62.5t39.5 -51.5z" />
    <glyph glyph-name="P" unicode="P" horiz-adv-x="496" 
d="M1 705q10 15 28 12q16 -2 31.5 -2.5t29.5 -5.5q16 -6 23.5 -15t10.5 -21t4.5 -26.5t6.5 -31.5q5 3 11 5.5t11 6.5q29 20 62.5 25t63 2t51.5 -9.5t29 -9.5q2 -1 12 -9t22.5 -19t25.5 -22.5t20 -20.5q12 -13 26.5 -46.5t21.5 -76.5t2 -90t-32 -87q-15 -21 -30 -39
t-28.5 -31.5t-24 -21t-15.5 -8.5q-14 -3 -27.5 -8.5t-27.5 -8.5q-20 -5 -41 -9t-41 -8q-20 -3 -23 -23q0 -4 -0.5 -8t-0.5 -9q-1 -20 -0.5 -39t-1.5 -38q-2 -22 -13.5 -39t-28.5 -28q-1 1 -4.5 -1t-17.5 0q-11 2 -22 6.5t-22 9.5q-10 4 -17 16q-20 29 -23 65q-3 38 -8 74.5
t-8 74.5q-3 34 -4.5 67.5t-3.5 67.5l-2 34t-3 34q-2 19 -3.5 37.5t-3.5 38.5q0 2 -1.5 20t-3.5 44t-4 55t-3.5 54.5t-2.5 43t0 18.5zM205 179q5 -3 18 1t29 12.5t34 20t32.5 25.5t24 28t9.5 28q0 13 1.5 46t2.5 70t0.5 71t-4.5 49q-5 17 -14 33t-19 32q-2 3 -7.5 5.5
t-12.5 4.5t-13.5 3t-9.5 1q-13 1 -25 -1l-24 -4q-4 -1 -10 -32t-12 -70.5t-9 -75.5t-1 -47q7 -28 6.5 -55.5t1.5 -55.5q2 -23 2 -45.5v-43.5z" />
    <glyph glyph-name="Q" unicode="Q" horiz-adv-x="598" 
d="M575 38q5 -6 12 -15t10 -21t-2 -27t-23 -34q-18 -12 -42.5 -14t-52 6t-56.5 25.5t-56 43.5q-20 -8 -39.5 -16.5t-40.5 -15.5q-25 -9 -50 -7.5t-47 12.5q-121 67 -175 192q-7 16 -10 46.5t-1.5 70.5t8.5 85.5t19 90.5q6 20 16 37.5t18 35.5q13 26 31.5 46.5t37.5 40.5
q10 11 22 18.5t24 15.5q25 14 65 21.5t79.5 8.5t71.5 -4t42 -16q4 -4 7.5 -7t7.5 -6q43 -37 63 -87q7 -15 13 -39.5t11 -49t7.5 -43.5t1.5 -23q-12 -81 -26 -136.5t-27 -90.5t-21 -51.5t-8 -19.5q-9 -27 -5 -50.5t13 -41t20.5 -27.5t19.5 -11q15 -3 24.5 5t17.5 19
q5 8 9.5 16t10.5 17zM379 233q13 23 24 51.5t13.5 70.5t-7 101.5t-37.5 145.5q-1 4 -5 10q-14 17 -34 18.5t-37 -14.5q-16 -15 -31.5 -30.5t-28.5 -33.5q-38 -51 -60 -109t-26 -123q-2 -32 3 -62q5 -32 12.5 -63.5t21.5 -62.5q18 -45 47 -81q6 -8 19 -8q7 0 14 2l14 4
q20 8 29 26.5t2 39.5q-7 26 -20 53q-6 15 -16.5 26t-27.5 16q-15 3 -16 15q35 23 70.5 22t76.5 -14z" />
    <glyph glyph-name="R" unicode="R" horiz-adv-x="639" 
d="M591 305q-1 11 7.5 17t19.5 4l4 -8q2 -4 4 -7q9 -24 11.5 -63t0 -78.5t-10 -73t-17.5 -46.5q-25 -32 -58.5 -50.5t-72.5 -20.5q-81 -2 -143 57q-27 26 -47.5 57t-40.5 62q-6 11 -12.5 20.5t-14.5 17.5q-17 15 -32 10t-17 -27q-2 -20 0 -39.5t1 -39.5q-1 -46 -9.5 -77.5
t-19.5 -51t-22.5 -28.5t-19.5 -10q-23 0 -39 12t-19 26q-23 131 -32.5 238t-11 185t1 126t4.5 62l4 32t5 33q3 23 7 44.5t8 42.5q17 6 30.5 1.5t21.5 -13.5q22 -23 42.5 -48t33.5 -55q2 -5 3 -9.5t3 -11.5q4 3 7.5 5.5t6.5 5.5q22 17 46.5 26.5t51.5 15.5q30 6 56.5 1.5
t52.5 -25.5q20 -17 27.5 -42t14.5 -48q7 -27 6.5 -58.5t-15 -66.5t-46 -73t-87.5 -77q-22 -17 -3 -34q7 -6 26 -30t42 -52.5t48 -54.5t44 -36q21 -11 43.5 -16t42.5 3t35.5 32.5t23.5 72.5q3 30 5.5 56t2.5 43q-1 15 -2 30.5t-2 31.5zM283 593h-3q-11 -3 -23 -10.5t-23 -15
t-19.5 -14.5t-11.5 -10q-4 -4 -8.5 -12.5t-8.5 -18.5t-6.5 -19.5t-2.5 -14.5t-0.5 -31.5t-1 -58t-0.5 -60.5v-40q31 14 57.5 53.5t43 86.5t20 92.5t-12.5 72.5z" />
    <glyph glyph-name="S" unicode="S" horiz-adv-x="360" 
d="M143 -77q-39 -16 -74 10q-29 20 -47.5 47.5t-20.5 63.5q0 4 1 20t6 36t15 40t28 32q8 7 17 12l18 10q21 12 36 -3q14 -16 -3 -36q-21 -20 -35.5 -34.5t-21 -30t-5 -35.5t13.5 -50q2 -5 9 -11.5t15.5 -12.5t17 -10t14.5 -4q15 0 23.5 7.5t13.5 18t7 22t2 21.5
q0 8 -0.5 15.5t-1.5 15.5l-6 51q-4 25 -7 50l-6 50q-1 7 -2 13t-3 12q-2 12 -4.5 24.5t-5.5 23.5q-5 15 -17.5 43t-26.5 57t-27 53t-18 33q-13 24 -19 49t-10 51q-3 21 2 42.5t16 39.5t28 32t37 21q52 20 93.5 22t63.5 -9q29 -14 42.5 -36.5t5.5 -53.5q-6 -26 -11 -52
t-17 -50q-8 -16 -20.5 -21t-27.5 3q-11 6 -12 12t7 16q7 9 12.5 15.5t9 14.5t6 19.5t2.5 29.5q2 11 -3.5 19t-15.5 13q-9 5 -17 5t-19 -6q-14 -9 -28 -19.5t-23 -25t-10 -34.5t12 -47q17 -28 35.5 -54t41.5 -49q16 -17 29 -36t27 -36q31 -39 45.5 -84t24.5 -93
q3 -15 4.5 -29.5t-2.5 -30.5q-2 -9 -9 -30.5t-28.5 -48.5t-63.5 -57t-113 -56z" />
    <glyph glyph-name="T" unicode="T" horiz-adv-x="497" 
d="M196 581q-22 -2 -42.5 -2.5t-40.5 -1.5q-29 -1 -53.5 8t-39.5 37q-12 21 -18 45q-4 11 4.5 20t20.5 7q14 -3 27.5 -3.5t27.5 -1.5q25 -2 49.5 -3.5t49.5 -3.5l44 -2t45 -3q42 -2 84 -3.5t84 -3.5q9 -1 18 -1h18t14.5 -5t7 -11.5t-1 -14t-10.5 -11.5t-13 -5
q-7 -3 -18.5 -6t-22 -6t-18.5 -5t-8 -3q-14 -4 -18 -16t-6 -25q-1 -8 0 -47.5t2.5 -94.5t3 -117.5t3 -116.5t1.5 -92t-1 -44q-5 -20 14 -13q25 9 42 25.5t24 40.5q11 20 16.5 18t9.5 -23q1 -14 -2 -28.5t-7.5 -26.5t-9.5 -21t-8 -11q-16 -14 -27 -22t-30 -18
q-15 -8 -34.5 -12t-40.5 -2t-42.5 11t-40.5 28q-4 4 -12.5 21t-18.5 59.5t-20 117t-17 193.5v24t1 24q2 34 5 67.5t6 67.5q0 2 -0.5 4.5t-0.5 7.5z" />
    <glyph glyph-name="U" unicode="U" horiz-adv-x="443" 
d="M431 383q2 -11 4.5 -43t4 -69t2.5 -71.5t0 -50.5q-1 -22 -7.5 -43.5t-14.5 -43.5q-3 -8 -13 -24.5t-28 -33t-43.5 -29t-57.5 -12.5q-57 2 -105 22.5t-81 67.5q-19 27 -31.5 58t-23.5 62q-10 30 -14 61.5t-11 62.5q-6 32 -9 64.5t-1 64.5q0 6 -0.5 27t-0.5 44.5t-0.5 43.5
t-0.5 25q1 32 3 64.5t10 64.5q28 4 52.5 -3t47.5 -20q12 -6 18.5 -17.5t8.5 -25.5q5 -11 13 -24t16 -25.5t13.5 -24t6.5 -20.5q1 -10 4 -38.5t6 -61.5t4.5 -63t0.5 -42q-1 -5 -1 -20t0.5 -34.5t1.5 -41t1.5 -41t2 -33.5t2.5 -18t6 -17t13 -28t18 -27t22 -13q17 1 28 25.5
t17.5 56t9 60.5t2.5 38q1 11 2 33.5t2.5 50t3 58t2.5 57t2 46.5t1 27q1 17 2.5 32.5t3.5 32.5q3 25 27 29q12 2 19 -1.5t12 -17.5q6 -24 6 -49q0 -11 3 -33.5t6.5 -46t6.5 -44t5 -28.5z" />
    <glyph glyph-name="V" unicode="V" horiz-adv-x="446" 
d="M1 639q-3 13 5.5 22.5t20.5 7.5q26 -4 44.5 -18t30.5 -41q18 -42 36.5 -84t36.5 -84q16 -36 31 -72t29 -73q7 -19 10 -38t8 -39q3 -13 6.5 -25t6.5 -25q4 0 8 -1q5 14 11.5 28t11.5 28q10 29 19.5 58t17.5 58q10 35 18.5 70t16.5 70q9 46 16 91.5t15 91.5q0 6 6 12
q12 9 25.5 2.5t13.5 -21.5v-85.5t-8 -83.5q-15 -53 -31 -110.5t-29.5 -107t-23 -84t-10.5 -40.5q-4 -18 -9 -36l-10 -36q-4 -14 -6.5 -28.5t-7.5 -28.5q-3 -12 -7 -23t-10 -22q-11 -19 -35 -18q-14 1 -28 -1t-29 6q-28 14 -42.5 35t-19.5 55q-2 16 -9.5 51t-18 78.5
t-22.5 92t-23 93t-20.5 80t-13.5 53.5q-8 32 -15 64.5t-14 64.5q0 5 -2 13z" />
    <glyph glyph-name="W" unicode="W" horiz-adv-x="719" 
d="M0 630q2 4 5.5 9.5t7.5 10.5q3 0 16 -1.5t29.5 -4.5t33 -8t25.5 -11q17 -12 33.5 -24t30.5 -26q21 -21 33.5 -47.5t18.5 -55.5q4 -18 6 -36l4 -36q1 -17 9.5 -50.5t19 -69.5t19 -67t9.5 -44q1 -5 2 -9t3 -11q5 5 8.5 7.5t5.5 5.5q5 6 13.5 17t17.5 23l16.5 22t9.5 14
q6 10 15.5 18.5t21.5 14t24.5 7t23.5 -1.5q7 -2 12.5 -8.5t10.5 -12.5q6 -7 11 -14.5t13 -18.5q9 35 17 66.5t16 62.5q9 39 15 79t20 78q7 19 11.5 38.5t8.5 39.5q3 20 7.5 32t12.5 19.5t20.5 12t31.5 9.5q10 2 17 2q14 -1 19.5 -6.5t9.5 -19.5q2 -9 3 -36t1.5 -57.5
t0.5 -59.5v-43q0 -12 -2.5 -24t-6.5 -24q-1 -3 -9.5 -37t-21.5 -83.5t-29 -106t-31 -104.5t-28 -79.5t-20 -30.5q-9 2 -18.5 1t-19.5 0h-13t-26.5 6.5t-32.5 24t-30 52.5q-8 23 -13 47.5t-11 49.5q-3 11 -7 21.5t-8 23.5q-5 -4 -14.5 -19t-20 -33.5t-19.5 -35.5t-11 -24
q-2 -6 -5 -26.5t-8.5 -42.5t-14.5 -40t-23 -21q-33 -3 -60 7q-8 3 -16.5 4.5t-16.5 3.5q-10 3 -17.5 14.5t-13 26t-9 27.5t-5.5 18t-11 39.5t-20.5 83t-25 105t-25 106.5t-19.5 87t-9 47l-4 32t-6 31q-4 16 -8.5 31.5t-9.5 32.5z" />
    <glyph glyph-name="X" unicode="X" horiz-adv-x="816" 
d="M815 150q3 -16 -3 -35q-5 -15 -27 -36t-51.5 -42t-62.5 -39t-60 -27q-9 -3 -40.5 -6t-73 2.5t-85 23.5t-76.5 57q-18 29 -36 30t-43 -23q-18 -18 -36.5 -35t-35.5 -34q-13 -13 -27 -20t-29 -10t-31 -3.5t-32 0.5q-10 1 -19.5 7t-17.5 14q-4 5 -4 13v16q0 12 9.5 34
t25 49.5t34.5 57t37.5 55.5t35 46.5t26.5 29.5q12 11 15.5 22t-4.5 27q-5 10 -10 25q-2 7 -11.5 24t-23 38.5t-28.5 45t-29.5 44t-25.5 35t-15 18.5q-22 17 -35 39.5t-24 49.5q-3 8 2 14t13 6q23 0 46 -3q5 -1 10.5 -1.5t10.5 -2.5q48 -25 90 -57t77 -74q17 -22 34.5 -44.5
t35.5 -45.5q45 48 89.5 96.5t89.5 97.5q27 -14 37 -38t2 -53q-5 -18 -25.5 -56.5t-43 -85.5t-40.5 -96t-18 -88q21 -58 45 -91.5t48.5 -50.5t47 -22t39.5 -5q27 -1 55 10.5t54.5 29t49 38t39.5 37.5q6 7 14.5 4t10.5 -12z" />
    <glyph glyph-name="Y" unicode="Y" horiz-adv-x="436" 
d="M29 706q7 16 22 14q8 -1 15 -2t13 -3q14 -5 24.5 -13.5t18.5 -22.5q6 -12 10.5 -19t7.5 -13.5t4.5 -14.5t3.5 -20q4 -38 7.5 -75t8.5 -75q1 -11 2.5 -22t3.5 -22q2 -10 11 -13t17 4q11 10 17.5 21.5t12.5 23.5q5 14 10 27t8 27q4 18 9 45.5t10.5 54.5t11 48.5t10.5 26.5
q15 2 30 4.5t29 5.5q10 2 21 -4t16 -16q8 -18 16 -35.5t16 -36.5q4 -8 5.5 -16.5t3.5 -16.5l4 -18t4 -19q1 -4 2.5 -8t1.5 -8q-1 -34 -2 -67.5t-1 -66.5q0 -38 1 -75t2 -75q0 -14 -3 -43t-8.5 -65t-13 -75.5t-17.5 -74.5q-3 -11 -10.5 -18t-16.5 -10.5t-19.5 -2.5t-19.5 8
q-54 41 -56 109q-1 39 -0.5 78t-0.5 78q-1 35 -2.5 69t-3.5 68q0 5 -2 9t-4 9q-3 -2 -5.5 -4t-4.5 -4q-12 -23 -32 -30t-42 -10q-18 -3 -32 4q-58 23 -92 81q-25 43 -38.5 88t-11.5 94q2 28 6 55.5t18 52.5q2 3 4 9z" />
    <glyph glyph-name="Z" unicode="Z" horiz-adv-x="503" 
d="M466 211q5 7 12.5 7t12.5 -7q11 -18 11.5 -29.5t-13.5 -28.5q-4 -5 -17.5 -24t-34.5 -43.5t-49 -50t-59 -43.5q-9 -6 -18 -9q-14 -5 -26.5 -9.5t-26.5 -8.5q-32 -8 -63.5 -9t-63.5 8q-18 5 -35.5 10t-34.5 13q-34 14 -50 38.5t-7 74.5q8 42 26.5 78t36.5 74q9 17 18 34.5
t17 35.5q18 43 44.5 80t51.5 75q23 36 45 72.5t45 72.5q2 3 3 7t4 10q-32 3 -63 4t-60 8q-29 6 -56.5 18t-55.5 26q9 2 17.5 5t17.5 3q15 0 29.5 -1t29.5 -2q41 -3 80.5 -5.5t80.5 -6.5q22 -2 43.5 -6.5t43.5 -8.5q21 -4 31.5 -12t14 -19t1.5 -24.5t-6 -28.5t-11 -34
q-1 -2 -18.5 -35.5t-44 -84t-59 -112t-63 -119t-55.5 -104t-36 -68.5q-5 -11 0 -21t16 -12q67 -12 122 18q35 19 65 44.5t52 60.5q13 23 27 44.5t28 44.5z" />
    <glyph glyph-name="bracketleft" unicode="[" horiz-adv-x="231" 
d="M147 609q-6 -9 -11 -16t-10 -15q-6 1 -11.5 2t-10.5 2q-21 3 -28.5 -3.5t-4.5 -28.5q2 -11 4.5 -22.5t5.5 -22.5q1 -5 4.5 -29.5t8.5 -62t10.5 -83.5t11.5 -94.5t11.5 -95.5t10.5 -85t8 -64t4 -33q1 -8 1.5 -15.5t1.5 -15.5q1 -32 16.5 -41t43.5 7l6 4l6 4
q16 -37 -19 -48q-9 -3 -24.5 -4.5t-31.5 -3t-28.5 -1.5h-16.5q-48 3 -69 31.5t-27 70.5q-3 21 -4.5 60.5t-2.5 89.5t-1 106.5v113t1 108.5t1.5 92.5t1.5 65.5t1 27q3 29 34 24q3 0 13.5 -0.5t25.5 -2.5t33 -7t35 -14z" />
    <glyph glyph-name="bracketright" unicode="]" horiz-adv-x="293" 
d="M101 -120q3 6 5 11.5t4 10.5q2 1 3.5 2t3.5 1q21 3 32.5 6t16 9.5t4 18t-4.5 31.5q-13 71 -14 141t-3 142q-1 66 -2 131.5t-3 131.5v72q-35 3 -69.5 6.5t-73.5 7.5q14 14 27 18.5t26 3.5q32 -2 63.5 -5.5t63.5 -6.5q18 -2 25.5 -9t13.5 -24q3 -9 10.5 -40t15.5 -68.5
t14 -73.5t6 -54q0 -8 2 -43.5t5.5 -84t7 -103.5t6.5 -102.5t4.5 -80t1.5 -35.5q-2 -13 -8 -23.5t-20 -14.5q-43 -13 -84 -10.5t-79 34.5z" />
    <glyph glyph-name="underscore" unicode="_" horiz-adv-x="370" 
d="M0 -87q26 0 48 0.5t43 -1.5q52 -2 103 -4.5t102 -6.5q20 -2 38.5 -8t35.5 -20q-2 -10 -3 -19t-17 -11q-5 -1 -9 -4.5t-9 -5.5q-12 -4 -23 -9.5t-26 -3.5q-20 2 -41 -3t-42 -6q-30 0 -59.5 2t-59.5 4q-5 1 -10 1t-10 1t-10 1t-7 3q-14 19 -26.5 39.5t-17.5 50.5z" />
    <glyph glyph-name="grave" unicode="`" 
d="M141 578q-7 -1 -14 -3t-15 -1q-27 1 -51.5 11.5t-47.5 27.5q-17 14 -34.5 27.5t-34.5 27.5q37 49 88 28q8 -3 14.5 -10t12.5 -15q21 -20 41.5 -42t41.5 -44z" />
    <glyph glyph-name="a" unicode="a" horiz-adv-x="513" 
d="M343 467q-1 -8 -0.5 -13.5t-1.5 -10.5q-14 -46 -14 -92t-2 -93q0 -17 -1.5 -47t-0.5 -62t5 -61t13 -45q20 -25 44 -4q55 49 77 117q6 20 12.5 40.5t13.5 40.5q10 0 17 -3t7 -11q1 -8 -1.5 -18.5t-1.5 -19.5q-5 -13 -9 -27t-9 -28q-8 -19 -16 -36t-22 -37q-14 -16 -23 -25
t-25 -14q-32 -11 -57 -9.5t-54 20.5q-16 8 -35.5 33.5t-31.5 73.5q-8 -8 -22 -21t-30 -23q-22 -18 -48.5 -20.5t-50.5 7t-42.5 29.5t-25.5 48q-2 8 -5 27.5t-3 27.5q1 57 23.5 105t56.5 93q16 20 30.5 40t29.5 40q7 10 15.5 14.5t22.5 1.5q24 -5 48.5 -8.5t48.5 -8.5
q17 -4 33.5 -10t34.5 -11zM277 421q-37 -21 -61 -55q-4 -5 -14 -23.5t-23 -44t-27.5 -54.5t-26.5 -55t-20 -44.5t-9 -23.5t-0.5 -13.5t4.5 -13.5q2 -3 10.5 -3t13.5 3q12 8 24 18t20 22q28 42 50 85.5t32 94.5q5 26 12 52t15 55z" />
    <glyph glyph-name="b" unicode="b" horiz-adv-x="643" 
d="M214 267q36 23 69 29.5t67 -10.5q32 -15 51 -42t36 -57q9 4 17 7.5t16 6.5q24 11 47.5 21t47.5 20q20 8 38.5 4t39.5 -11q-5 -6 -8 -10.5t-6.5 -7.5t-9.5 -4t-17 0q-19 0 -40 -6t-41.5 -14.5t-39.5 -18.5t-34 -18q-1 -2 -1.5 2t-0.5 3q4 -14 1.5 -39t-8 -50t-10.5 -44.5
t-6 -20.5q-11 -23 -22 -44t-31 -38q-4 -3 -10 -4.5t-12 -3.5q-33 -2 -53.5 8.5t-25.5 21.5q-6 14 -7 28t5 28q4 8 8.5 16t9.5 15q17 21 33 42t33 41q15 20 7 45q-7 19 -13.5 36.5t-15.5 31t-21 22t-30 8.5q-16 -3 -27.5 -13t-19.5 -23.5t-12 -29t-4 -29.5q0 -4 -1.5 -21.5
t-3.5 -41.5t-4.5 -51.5t-5 -51t-4 -41t-1.5 -21.5q-1 -33 -21.5 -49t-52.5 -8q-7 2 -14 3.5t-17 3.5q-8 28 -16 57.5t-16 58.5q-10 38 -16 76t-11 76q-7 45 -10 90t-5 91q-4 54 -8 108.5t-6 108.5q-2 29 -1 57.5t1 57.5q1 29 1.5 58.5t1.5 59.5q1 50 6 103q1 8 2 17.5
t12 13.5q36 6 61.5 -8t35.5 -64q2 -7 8.5 -31t14.5 -57.5t17 -72t16.5 -74t12.5 -64.5t5 -43q2 -41 8 -81t10 -81q2 -17 1.5 -35.5t-0.5 -41.5zM370 99q-11 -11 -19 -18t-16 -23q-6 -11 -10 -17t-6.5 -11.5t-5 -12t-5.5 -16.5q-7 -23 -5.5 -41t24.5 -19q16 0 25.5 3.5
t17.5 16.5q19 32 18.5 64.5t-12.5 66.5q-1 2 -3 4z" />
    <glyph glyph-name="c" unicode="c" horiz-adv-x="497" 
d="M299 395q-9 -6 -29.5 -26t-48.5 -58q-35 -42 -57 -93t-32.5 -96.5t-11 -79t7.5 -39.5q5 -5 14.5 -6t16.5 1q30 9 58 26q11 6 21 14t21 16q29 21 57.5 41t56.5 43q29 25 57.5 51.5t57.5 53.5q1 -1 9 -5q-6 -29 -24.5 -47.5t-35.5 -38.5q-3 -3 -26 -22.5t-51.5 -43
t-55.5 -46t-40 -32.5q-19 -15 -41 -24t-45 -15q-38 -10 -76.5 2t-61.5 44q-17 24 -27.5 51.5t-12.5 57.5q0 19 5 43t17 44q15 24 29.5 48t30.5 47q22 34 49 62.5t64 48.5q28 15 58 26q13 5 26.5 3t24.5 -12q3 -3 6 -5.5t6 -4.5q17 -11 19.5 -16.5t-1.5 -25.5
q-1 -5 -0.5 -11.5t-0.5 -12.5q-4 -26 -22 -23q-20 5 -17 31q1 5 2 11.5t3 17.5z" />
    <glyph glyph-name="d" unicode="d" horiz-adv-x="687" 
d="M662 249q6 -7 11.5 -9.5t13.5 -10.5q-21 -29 -41.5 -59t-43.5 -58q-29 -33 -58 -65t-61 -62q-25 -24 -52.5 -44.5t-62.5 -28.5q-33 -8 -62.5 1t-56.5 29q-34 26 -47 65q-11 36 -17 72t0 74q1 3 3.5 11t2.5 13q-6 -1 -12 -3.5t-11 -3.5q-20 -3 -41.5 0t-54.5 12
q-39 11 -54 39.5t-17 63.5q-1 19 2.5 38t11.5 36q18 37 42.5 69t59.5 56q32 23 74 22q14 -1 27.5 -2.5t26.5 -9.5q9 -5 23.5 -5t19.5 9q26 48 45.5 97.5t39.5 100.5q7 17 15 33.5t16 32.5q2 5 6 8t9 6q5 4 10.5 7.5t10.5 6.5q17 -5 34.5 -9.5t35.5 -8.5q17 -5 22.5 -10
t5.5 -22q-1 -21 -3 -42t-7 -41q-9 -35 -20 -69t-22 -69q-2 -7 -10 -31t-20 -56.5t-26 -70t-27.5 -72.5t-25.5 -64t-19 -43q-22 -47 -32 -83t-12.5 -62t-0.5 -43t4 -25q11 -37 45 -22q17 8 32.5 17t29.5 21q23 19 45.5 39.5t43.5 42.5q14 15 27 32t26 33q18 23 34 44.5
t35 42.5q7 8 13 13.5t14 16.5zM87 226q48 0 74.5 19t43 46.5t28.5 58.5t32 57q-29 17 -57 15.5t-52.5 -15.5t-44 -37t-29.5 -48.5t-9.5 -51t14.5 -44.5z" />
    <glyph glyph-name="e" unicode="e" horiz-adv-x="412" 
d="M408 247q6 -17 2.5 -29.5t-11.5 -23.5q-30 -46 -69 -83t-81 -71q-20 -16 -43.5 -21t-47.5 -6q-52 -1 -85 26.5t-52 72.5q-20 48 -20.5 95.5t22.5 95.5q17 37 36 73.5t39 71.5q10 17 24.5 32t40.5 26q29 7 54.5 7t35.5 -2q12 -3 20.5 -9.5t11.5 -19.5q2 -8 9 -13.5
t12 -13.5q12 -23 9.5 -44t-11.5 -41q-2 -6 -12.5 -26t-30 -43t-48 -43t-67.5 -26q-3 0 -9 -2q-14 -23 -22.5 -47.5t-13.5 -50.5q-6 -44 13.5 -65t62.5 -15q14 2 28.5 6.5t25.5 12.5q37 26 72 53t64 62q8 11 14.5 23t14.5 23zM136 255q26 6 43 16t33 21q43 31 55 70.5t2 89.5
q-4 19 -23 17q-23 -36 -37 -62t-23 -44t-14.5 -29.5t-9.5 -18.5q-8 -20 -14.5 -30.5t-11.5 -29.5z" />
    <glyph glyph-name="f" unicode="f" horiz-adv-x="479" 
d="M84 654q39 -3 52 -43q6 -18 15 -32q11 -16 13.5 -34t4.5 -35q2 -26 3 -51.5t1 -51.5q1 -20 -1 -40.5t-3 -40.5q-2 -55 22 -101q14 -27 29 -53.5t35 -51.5q13 -17 29.5 -26t34.5 -11.5t36.5 3t34.5 19.5q56 46 62 118q2 12 7.5 18.5t18.5 11.5q0 -9 0.5 -16.5t0.5 -15.5
q-1 -13 -1.5 -25.5t-2.5 -24.5q-5 -28 -22 -54.5t-56 -43.5q-21 -5 -35.5 -10t-31.5 -7t-33.5 -0.5t-36.5 3.5q7 -18 14.5 -35t12.5 -34q5 -19 8 -38t7 -39l6 -30t5 -30q1 -6 0 -21.5t-5.5 -36t-15 -43.5t-28.5 -45q-24 -29 -53 -37t-62 -1q-59 11 -91.5 47.5t-46.5 92.5
q-9 43 -9 90q-2 35 -1.5 69.5t2.5 69.5q1 32 3 63.5t5 63.5q5 48 10 94.5t12 94.5q6 44 14 86.5t16 86.5q2 10 1.5 19.5t1.5 19.5q5 22 9 44t9 44zM181 133q-6 -15 -11.5 -26t-7.5 -22q-4 -19 -7.5 -53t-6 -68.5t-4 -61.5t-1.5 -33q1 -15 1.5 -35.5t3 -42t7 -41.5t13.5 -33
q9 -14 22 -17t24 10q8 11 15.5 23.5t11.5 26.5q9 35 10 70.5t-1 72.5q-3 53 -19 101t-35 96q-3 8 -6.5 15.5t-8.5 17.5z" />
    <glyph glyph-name="g" unicode="g" horiz-adv-x="673" 
d="M341 483q23 17 47.5 20t42.5 -9q4 -3 7.5 -7t4.5 -9q4 -26 6.5 -59t3.5 -67.5t0.5 -67.5t-1 -60.5t-2 -46t-1.5 -22.5q10 5 16.5 8.5t12.5 6.5q26 13 51 26t51 27q9 5 18 8.5t17 8.5q10 6 16.5 8.5t12 2t12 -4.5t17.5 -11q-8 -14 -22 -18t-26 -9q-35 -16 -67.5 -34.5
t-62.5 -41.5q-10 -7 -19 -15t-20 -13q-17 -10 -20 -28q-26 -97 -49 -167t-41 -116.5t-30 -72t-16 -32.5q-7 -12 -25 -20t-40.5 -8t-45.5 11t-39 37q-6 11 -5.5 26.5t3.5 29.5q24 96 90 173q8 8 14.5 17.5t14.5 17.5q10 9 10.5 20t3.5 22q8 33 9 66t0 66q-1 5 -1.5 9.5
t-2.5 11.5l-20 -20t-17 -19q-30 -38 -68 -46.5t-79 13.5q-11 5 -21.5 10.5t-20.5 13.5q-37 28 -50 65t-8 82q4 32 11.5 63t22.5 59q34 61 80 116q23 28 55.5 33.5t64.5 2.5q23 -2 44 -7.5t44 2.5q2 1 5.5 -1t6.5 -3q-2 -8 -2 -16.5t-4 -15.5q-7 -12 -22 -17q-12 -5 -24 -8.5
t-25 -7.5q-3 -11 -18.5 -44t-35 -74.5t-38.5 -83t-27 -68.5q-11 -33 -11 -65q0 -15 13.5 -21t27.5 1q16 8 25.5 21.5t18.5 27.5q27 43 47.5 89t40.5 93q16 34 26 69t13 72zM274 -61q-8 -5 -12.5 -7.5t-7.5 -6.5q-18 -22 -33.5 -45.5t-26.5 -50.5q-6 -16 -10 -31.5t-2 -32.5
q2 -18 18.5 -37.5t36.5 -24.5q25 55 29.5 114t7.5 122z" />
    <glyph glyph-name="h" unicode="h" horiz-adv-x="610" 
d="M443 -29q32 16 48.5 40.5t28.5 51.5q14 32 23.5 65t20.5 66l10 30l10 30q17 2 21.5 -0.5t4.5 -16.5q0 -23 -8.5 -55.5t-20 -64t-22 -57t-13.5 -34.5q-12 -27 -30 -47t-47 -32q-7 -3 -21.5 -7.5t-32.5 -5.5t-38 3.5t-38 19.5q-35 32 -30 79q4 30 10 59.5t12 59.5
q10 47 20 93.5t2 98.5q-23 -11 -42 -24t-33 -33q-12 -17 -23 -34.5t-20 -36.5q-6 -12 -17.5 -32t-23.5 -40.5t-22 -37.5t-12 -22q-10 -25 -23 -47t-33 -41q-11 -11 -25 -13.5t-27.5 0.5t-24.5 12t-15 23q-10 29 -11.5 59.5t0.5 60.5q3 51 6 101t8 101q6 68 11.5 134.5
t14.5 133.5q8 52 12.5 87t5.5 61q0 32 4 64.5t7 66.5q15 2 28.5 5t27.5 3q21 1 29.5 -8t13.5 -29q1 -5 4.5 -10t7.5 -22t8.5 -51t8.5 -97t6.5 -160t2.5 -239q-2 -10 -4.5 -20.5t-5.5 -25.5q7 6 11 9t6 6q22 37 54.5 62t62.5 52q29 26 69 29q17 2 30 -1q38 -9 35 -48
q-2 -35 -4.5 -70.5t-5.5 -70.5q-1 -14 -6 -49.5t-8.5 -74t-4 -70.5t6.5 -39z" />
    <glyph glyph-name="i" unicode="i" horiz-adv-x="330" 
d="M123 472q14 2 23 2.5t15 -2.5t10.5 -9.5t10.5 -17.5q7 -14 11 -28t2 -31q-2 -21 -9 -55t-16 -72.5t-19 -78t-17.5 -72.5t-10.5 -56t2 -27q8 -5 11.5 -4.5t7.5 2.5q14 10 33.5 33.5t39.5 51.5t38 54.5t29 42.5q7 10 15.5 18.5t16.5 17.5q9 -2 12 -6t-2 -11
q-32 -42 -58 -88.5t-63 -84.5q-9 -9 -17.5 -18.5t-17.5 -18.5q-10 -10 -29.5 -14.5t-40.5 -3.5t-40.5 6t-29.5 15q-23 22 -27 57q-5 54 2 104t23 101q9 29 15 59t14 59q3 10 8 23t13 25t19 20t26 7zM205 599q-2 -5 -2.5 -13t-5.5 -15q-14 -21 -37 -22.5t-40 16.5
q-20 20 -19 31.5t25 27.5q22 13 46 18q17 3 23.5 -4t7.5 -24q0 -2 0.5 -5.5t1.5 -9.5z" />
    <glyph glyph-name="j" unicode="j" horiz-adv-x="635" 
d="M225 433q-2 17 11.5 29t30.5 9q26 -4 47 -16t36 -37q9 -14 13 -32.5t7 -36.5q5 -27 8 -55t5 -55q1 -11 0.5 -20.5t-1.5 -19.5q0 -4 1 -8t2 -10q23 10 45 20t45 18q27 11 55 19.5t57 16.5q25 8 48 -16q-14 -5 -25.5 -9t-22.5 -6q-30 -5 -58.5 -13t-54.5 -24
q-16 -10 -32 -17.5t-30 -18.5q-22 -17 -30 -38t-9 -44q-23 -127 -56 -212t-66 -139t-61 -81.5t-40 -38.5q-10 -8 -21.5 -14t-23.5 -11q-6 -2 -14 -0.5t-14 4.5q-71 33 -76 114q-2 30 5.5 58.5t18.5 55.5q11 26 23 52.5t26 51.5q5 9 20.5 26.5t32.5 38t31 41.5t16 36
q14 81 28.5 160t20.5 160q1 6 1 11.5v11.5q1 10 1.5 19.5t-0.5 19.5zM156 -79q-2 1 -4 1.5t-4 1.5q-34 -51 -56 -95t-34.5 -79t-17.5 -59t-5 -35q1 -24 22 -24q8 0 16.5 3.5t15.5 8.5q4 2 5 8t3 11q10 38 20 74.5t19 74.5q6 27 10.5 54.5t9.5 54.5zM386 591q-11 -9 -21 -18
t-20 -17q-14 -11 -22.5 -12t-22.5 10q-9 7 -15 17.5t-8.5 22.5t-1.5 24t6 21q10 19 26 22t32 -10q-2 -8 0 -11.5t5.5 -4t8 -0.5t7.5 -1q19 -8 26 -43z" />
    <glyph glyph-name="k" unicode="k" horiz-adv-x="607" 
d="M79 673q15 -3 30 -4t26 -9q17 -14 28.5 -32t9.5 -42q-2 -31 -4.5 -62t-2.5 -62q0 -23 3.5 -46t6.5 -46q0 -5 1 -9t1 -9q2 -17 2.5 -34t2.5 -40q54 51 107.5 93.5t116.5 71.5q1 -29 -16 -48t-35 -38q-29 -28 -56 -57.5t-56 -58.5q-2 -2 -6.5 -16t-2.5 -35t15 -47t46 -51
q17 -16 37.5 -22.5t42 -5t41.5 9t35 19.5q34 26 63 56t51 67q6 11 15 17.5t26 4.5q-8 -14 -13.5 -27t-12.5 -24q-12 -22 -31.5 -44.5t-40.5 -42.5t-40 -35t-29 -22q-20 -13 -42.5 -15t-44.5 3q-21 5 -42 13t-40 19q-17 11 -31.5 27t-29.5 31q-2 2 -4 5t-7 11
q-10 -73 -19 -123t-17.5 -83t-15.5 -51t-13 -26t-11.5 -10t-10.5 -2q-9 -1 -14.5 -1.5t-10.5 -0.5t-11 2t-15 6q-26 12 -38 34t-16 48q-6 46 -6 94q-1 54 5.5 110t9.5 110q1 13 4 48.5t8 82t11 97.5t13 94t14 73t13 34z" />
    <glyph glyph-name="l" unicode="l" horiz-adv-x="400" 
d="M398 257q3 -20 0.5 -33t-7.5 -27q-5 -12 -15.5 -34.5t-30.5 -55.5t-52 -77.5t-79 -100.5q-15 -15 -34 -21t-39 -4q-21 1 -43.5 10.5t-42 25.5t-33.5 38t-18 49q-5 29 -3 57t8 56q7 33 13 66.5t12 66.5q9 57 25 111.5t42 106.5q1 1 9 16t21.5 36.5t31 48t37.5 52
t40.5 47.5t40.5 34q7 6 20.5 9t33.5 -2q12 -1 18 -20t6.5 -46.5t-5 -58t-16.5 -52.5q-22 -46 -38 -76t-27.5 -48.5t-17.5 -27t-7 -12.5q-21 -70 -37.5 -134.5t-27 -121.5t-15 -104.5t0.5 -83.5q7 -2 17 4.5t20.5 16.5t20.5 22t17 23q16 22 31 44.5t29 45.5q16 27 32.5 54.5
t32.5 54.5q4 6 6.5 12t5.5 11l3 6l4 8t4.5 6.5t5.5 1.5zM212 388q15 19 28 35.5t24 33.5q22 37 34.5 76.5t22.5 81.5q2 11 2.5 23t2.5 23t-4 16.5t-13 9.5q-7 5 -13.5 2.5t-11.5 -9.5l-9 -12q-16 -20 -26.5 -42.5t-17.5 -46.5q-3 -10 -11 -35.5t-13.5 -55.5t-5.5 -57.5
t11 -42.5z" />
    <glyph glyph-name="m" unicode="m" horiz-adv-x="753" 
d="M391 284q8 10 15 18t12 16l30 40t29 41q12 16 32 16q14 1 28 1.5t28 -0.5q31 0 38 -28q1 -6 2.5 -12t2.5 -12q2 -32 0 -60.5t0 -60.5q0 -10 -2.5 -36t-5.5 -58.5t-5.5 -65t-2.5 -56.5q6 -7 10.5 -4t8.5 6q26 17 43.5 41.5t32.5 51.5q16 28 24.5 57.5t16.5 61.5
q4 -1 9 -0.5t8 -1.5t6 -7.5t1 -8.5q-2 -8 -5 -18.5t-7 -21.5t-7 -21.5l-5 -17.5q-2 -5 -7.5 -20.5t-13.5 -35t-18.5 -40t-22.5 -34.5q-7 -11 -18.5 -19.5t-26 -14t-29 -7t-27.5 1.5q-42 11 -64.5 38t-29.5 68q-8 50 -6 98.5t7 98.5q1 5 1 11t2 15q-5 -5 -8 -7.5t-4 -5.5
q-11 -14 -21.5 -34t-19 -39.5t-14.5 -35t-7 -19.5q-9 -21 -17.5 -41.5t-16.5 -42.5q-5 -14 -6.5 -29t-5.5 -29q-1 -5 -2.5 -11t-4.5 -11q-11 -22 -33 -27.5t-45 5.5q-27 13 -38.5 34t-9.5 49q4 44 8 86.5t11 85.5q6 41 15.5 80.5t17.5 80.5q2 8 1.5 16t0.5 20
q-9 -8 -16 -13.5t-14 -11.5t-13 -13.5t-12 -20.5q0 -1 -7 -26.5t-18 -64t-25 -83t-28.5 -82t-28.5 -62.5t-25 -24q-23 3 -42.5 13.5t-32.5 29.5q-7 11 -9 24.5t-4 27.5q-1 9 0.5 36.5t4 60t5.5 63t6 45.5q8 39 15 78t25 76q24 4 46 -1t38 -24q14 -17 24.5 -37t0.5 -47
q17 13 27 29t21 30q13 16 19.5 26.5t20.5 24.5q8 8 24 15t34 9q6 1 12 1h12q29 1 42 -10t18 -39q5 -32 4.5 -63t-5.5 -62q-2 -11 -2 -23t-2 -27z" />
    <glyph glyph-name="n" unicode="n" horiz-adv-x="495" 
d="M287 422q-28 -16 -43 -36t-25 -43q-6 -15 -13 -43.5t-13 -57.5t-10 -53.5t-4 -31.5q0 -5 -1 -20.5t-2.5 -33t-3 -33t-2.5 -19.5q-2 -12 -6.5 -16.5t-15.5 -2.5q-18 2 -35.5 5t-34.5 8q-14 3 -19 16q-40 83 -46 177q-2 38 -7.5 75t-5.5 75q0 29 4.5 59t9.5 59q1 7 4 14
t5 15q26 2 43.5 -10t32.5 -31q14 -17 18 -38.5t9 -41.5q8 -27 14.5 -54.5t14.5 -58.5q6 10 10 16t7 12q15 30 37 54.5t45 48.5q16 16 34 20t38 2q6 0 13 -5t10 -10q7 -16 13.5 -31.5t7.5 -31.5q4 -36 4.5 -72.5t1.5 -72.5q0 -6 -0.5 -23.5t-1.5 -40.5t-1 -48v-45.5
t1.5 -34.5t4.5 -14q10 -1 20.5 9.5t19.5 25t16 29t10 22.5q7 16 9.5 26.5t7.5 32.5q3 9 6 21t5.5 23.5t5.5 19t6 7.5q2 0 3 -0.5t3 -0.5q3 0 3.5 -8t0 -19t-1 -23t-0.5 -21q-1 -8 -3.5 -16.5t-5.5 -16.5q-2 -8 -8 -27t-15.5 -40t-23.5 -40t-32 -27q-20 -11 -39.5 -7.5
t-37.5 14.5q-44 26 -53 78q-3 16 -4 32t-2 33q0 51 3.5 101t10.5 100q2 16 2.5 32.5t1.5 36.5z" />
    <glyph glyph-name="o" unicode="o" horiz-adv-x="470" 
d="M199 446q11 2 20 3t18 3q30 4 50 -13.5t32 -38.5q3 -6 9.5 -22t12.5 -37.5t9 -46.5t0 -49q-2 -8 -4 -15t-4 -16q10 0 18 -1t16 1q15 5 30.5 10t29.5 11q5 2 9.5 4t9.5 2q4 0 7.5 -3t7.5 -5q0 -3 -7 -9t-17 -12t-21 -11.5t-18 -6.5q-15 -3 -31 -4t-35 -3q-1 -2 -7.5 -16
t-15.5 -31.5t-18 -34t-13 -22.5q-50 -71 -135 -61q-27 3 -51.5 15.5t-43.5 31t-32.5 42.5t-18.5 50q-5 21 -6 42.5t3 42.5q9 54 22 105.5t40 99.5q13 22 31 43q13 14 21 15t25 -7q18 -10 34.5 -22t22.5 -34zM289 214q-22 23 -43.5 46t-43.5 46q-5 -12 -10 -24.5t-10 -25.5
q-8 -21 -16.5 -42t-17.5 -42q-22 -52 5 -101q9 -17 20 -20.5t28 4.5q15 7 24 19t15 26q13 29 25 57t24 57zM228 434q-3 -17 -6 -32t-5 -31q-2 -14 -0.5 -29t10.5 -28q7 -9 12.5 -17.5t13.5 -16.5q8 -10 17.5 -18.5t19.5 -16.5q3 7 6 17.5t3.5 28t-2 43.5t-10.5 64
q-5 19 -20.5 28.5t-38.5 7.5z" />
    <glyph glyph-name="p" unicode="p" horiz-adv-x="538" 
d="M16 -214q-10 54 -13 108t-1 109q2 46 2 92t-2 92q-3 70 0.5 139.5t7.5 139.5q1 15 0.5 30t-0.5 31q12 5 21 7t16.5 0.5t14.5 -8t17 -17.5q5 -7 11.5 -12.5t11.5 -11.5l7.5 -7.5t5.5 -8.5q13 -36 27 -75q4 3 7.5 6t6.5 7q22 33 53.5 50t69.5 25q5 2 11.5 1.5t12.5 -1.5
q29 -2 51.5 -17t37.5 -35q17 -22 27 -49.5t3 -56.5q-5 -18 -2.5 -34.5t0.5 -35.5q27 -1 53 -1t49 -13q4 -2 7.5 -5t8.5 -7q-10 -11 -19.5 -11t-19.5 4q-19 8 -43.5 8t-42.5 -2q-11 -26 -18.5 -42.5t-24.5 -31.5q-14 -12 -26 -21t-32 -26q-15 -11 -30 -14t-27.5 -2.5t-21.5 3
t-12 4.5q-8 6 -12.5 15t-5.5 19t1.5 20t8.5 18q14 17 30 31.5t37 22.5q27 9 27 35q0 35 0.5 69.5t-0.5 69.5q0 8 -2 16.5t-4 16.5q-5 14 -11 17t-21 -2q-20 -5 -34 -17.5t-25 -27.5q-21 -27 -32 -64q-2 -7 -2.5 -37t0 -73t1.5 -92t2 -93.5t1.5 -79t0.5 -46.5
q-1 -21 -0.5 -42t-0.5 -42q-1 -14 -2 -26.5t-6 -29.5q-4 -10 -25.5 -17.5t-47 -8t-49.5 7.5t-34 29zM305 212q-26 -11 -44.5 -26.5t-24.5 -29.5q-11 -23 8 -30q6 -3 14.5 -2t16.5 4.5t14.5 9t7.5 11.5q4 14 5 29.5t3 33.5z" />
    <glyph glyph-name="q" unicode="q" horiz-adv-x="637" 
d="M197 151q-48 -15 -81.5 -12t-56 17.5t-36 37.5t-19.5 49q-5 22 -2 41q13 55 39 100t79 71q5 1 10 6q12 10 24 12.5t24 1t23.5 -6.5t22.5 -9q6 -3 10 -12.5t9 -17.5q11 55 21.5 80t22.5 27q11 2 21.5 2t21.5 1q27 0 29 -30q1 -20 2.5 -40t2.5 -40q-5 -69 6 -117.5t29 -80
t39 -47t38 -18.5q14 -2 27.5 0t24.5 10q18 11 35.5 23t35.5 24q8 5 15.5 10t18.5 7q3 -3 3.5 -4.5t-2.5 -5.5q-5 -7 -12 -18.5t-19 -24.5t-30 -26.5t-46 -23.5q-26 -8 -48.5 -8t-48.5 7q3 -13 6 -25q7 -25 9.5 -50t2.5 -51q0 -18 -3 -36.5t-7 -36.5q-5 -26 -11 -51.5
t-14 -50.5q-11 -35 -27 -68t-45 -56q-16 -13 -36 -22t-40 -12q-24 -3 -43.5 3t-33 18.5t-21 30.5t-8.5 38q-2 46 4.5 91t8.5 91q1 11 5.5 39t9 60t8 61t2.5 42zM335 151h-8q-2 -20 -5 -40.5t-6 -41.5q-4 -27 -8 -53.5t-8 -53.5q-2 -22 -5 -43t-6 -43q-3 -26 -5.5 -51.5
t-7.5 -51.5q-2 -14 -6.5 -28t-9.5 -29q26 0 41.5 11t25.5 31q21 40 36 82.5t23 87.5q11 62 -4 116.5t-47 106.5zM226 386q-29 -22 -56 -43t-46 -51q-11 -19 -21.5 -38t-20.5 -39q-7 -14 -2.5 -24t16.5 -11q17 -2 34 1.5t28 17.5q12 17 22.5 35t17.5 38q9 24 14.5 49t11.5 51
q2 8 2 14z" />
    <glyph glyph-name="r" unicode="r" horiz-adv-x="423" 
d="M69 298q21 -7 38 -9t38 15q8 8 15.5 18t18.5 18q23 -8 47 -16l48 -16q0 -6 -8 -24.5t-19 -40.5t-22 -43.5t-17 -33.5l-20 -38l-20 -38q-2 -3 -9 -17t-16.5 -30.5t-19 -32.5t-15.5 -23q-8 -12 -5 -20t17 -8q12 1 24 4t22 9q70 45 125 102.5t100 127.5q2 5 4.5 9.5t4.5 9.5
t5.5 10t7.5 5q14 -15 8 -27.5t-12 -22.5q-9 -16 -20 -34t-30 -43.5t-50.5 -59.5t-81.5 -82q-37 -28 -71.5 -36.5t-71.5 -2.5q-26 5 -46.5 19.5t-27.5 46.5q-18 86 25 160q14 25 28 49l28 48q3 6 3 9q-17 10 -32.5 18.5t-30.5 18.5q-6 4 -11 10l-10 12q-9 12 -9 26t6 26
q8 14 17 20t24 8q4 1 13 -1t14 -5q6 -5 10.5 -10.5t10.5 -13.5q7 -13 -1.5 -35.5t-25.5 -35.5zM46 316q3 1 7 1q6 2 11.5 10.5t8 18.5t-0.5 20t-13 16q-10 3 -20 -4t-10 -21t5.5 -28t11.5 -13z" />
    <glyph glyph-name="s" unicode="s" horiz-adv-x="541" 
d="M225 194q-11 12 -19.5 21.5t-16.5 19.5q-31 37 -72 54q-6 2 -20 8t-30.5 17.5t-33 30t-27.5 47.5q-14 46 1.5 84.5t47.5 71.5q23 23 50.5 39.5t56.5 30.5q11 5 23.5 8.5t26.5 8.5q21 -12 34.5 -31.5t22.5 -42.5q2 -5 -8.5 -13t-27 -19.5t-36 -26.5t-37 -35.5t-29.5 -46.5
t-12 -58q15 -14 24 -20q23 -17 47.5 -34t47.5 -35q20 -15 39 -38q9 -12 20 -14.5t25 0.5q25 6 49.5 11.5t50.5 8.5q29 4 58.5 5.5t59.5 3.5q2 -14 -5 -20t-17 -7q-44 -5 -81 -14.5t-79 -20.5q-3 -1 -8 -3t-10 -5.5t-8.5 -7t-2.5 -7.5q0 -2 4.5 -14t8 -30.5t5 -41.5t-3.5 -45
q-2 -6 -10 -21.5t-26 -31.5t-47.5 -28.5t-73.5 -12.5q-9 1 -18.5 6t-17.5 12q-11 11 -22 22.5t-19 25.5q-11 18 -8 37.5t13 36.5q34 59 91 91l14 8t6 15zM235 115q-7 -3 -22.5 -11t-31 -21.5t-25.5 -32.5t-7 -44q4 -17 14.5 -28.5t26.5 -12.5q17 -1 29.5 8.5t16.5 26.5
q8 28 7 56.5t-8 58.5z" />
    <glyph glyph-name="t" unicode="t" horiz-adv-x="553" 
d="M171 429q-23 -2 -43.5 -3.5t-40.5 -2.5t-39.5 -0.5t-39.5 14.5q-2 8 -3.5 17t-2.5 18q-2 13 -1.5 26t0.5 27q49 5 97 0t99 -7q13 44 26.5 88.5t27.5 89.5l28.5 -9.5t26.5 -9.5q26 -10 40 -35t10 -52q-3 -17 -5 -35t-4 -38q52 -9 103 -18.5t103 -19.5q-12 -15 -32.5 -26.5
t-33.5 -18.5q-28 -14 -56.5 -11t-57.5 1q-7 -1 -13.5 -1t-13.5 -2q-16 -3 -18 -21q-2 -10 -8 -33t-14 -52t-17.5 -61.5t-18 -61.5t-14.5 -51.5t-7 -32.5q-3 -16 -7.5 -31t-6.5 -31q-2 -14 -3 -29t4 -30q31 -6 52 12q14 12 27.5 25t27.5 26q54 51 86 113q14 26 30 50.5
t33 50.5q5 -6 9.5 -10.5t7 -9t3 -10t-2.5 -13.5q-10 -26 -23.5 -48.5t-34.5 -53.5q-4 -3 -14 -16t-25 -31t-33.5 -39t-39.5 -39.5t-43 -32.5t-44 -18q-19 -2 -40.5 2.5t-41 15.5t-34.5 28t-21 40q-7 24 -8 49t1 50q4 35 11 69.5t15 69.5q8 37 17 73.5t17 73.5q2 5 2 9t1 6z
" />
    <glyph glyph-name="u" unicode="u" horiz-adv-x="533" 
d="M377 74q8 -2 16 7.5t13 14.5q20 23 37.5 45t36.5 46q11 14 19 29t17 30q3 -2 9 -4t7 -11t-7.5 -29t-34.5 -57q-16 -20 -29 -40.5t-29 -40.5q-11 -13 -26 -18t-32 -1q-41 11 -56 36.5t-5 62.5q2 4 2 8.5t2 10.5q-4 7 -10 4.5t-13 -9t-14 -15t-11 -14.5q-5 -7 -11.5 -16
t-11.5 -17q-13 -16 -35.5 -31t-49 -25.5t-54.5 -13t-51 6.5q-41 20 -50 68q-8 42 -3.5 82t18.5 79q15 42 32 83t33 83q3 6 10.5 15.5t17.5 17.5t19 12t15 1q14 -8 28.5 -13.5t28.5 -13.5q12 -5 17 -16q3 -9 5.5 -23.5t4.5 -29.5t3 -27t1 -15q-4 -32 -14 -63t-23 -61
q-11 -29 -23 -57t-29 -54q-5 -7 -7.5 -14.5t-7.5 -17.5q22 5 36.5 15.5t25.5 24.5q21 27 40 54.5t39 56.5q12 16 30 43t35 53t30 47t15 26q7 17 25 16q9 -1 18 -0.5t18 -1.5t12.5 -8.5t1.5 -13.5q-4 -14 -11 -40t-15.5 -55t-16 -55t-11.5 -38q-8 -25 -14.5 -50.5
t-13.5 -50.5q-2 -3 -2.5 -9t3.5 -9z" />
    <glyph glyph-name="v" unicode="v" horiz-adv-x="551" 
d="M347 240q-25 -52 -56.5 -94.5t-69.5 -80.5q-5 -5 -10 -10.5t-10 -10.5q-6 -5 -15.5 -8.5t-19 -5t-19.5 0t-17 6.5q-5 3 -19.5 22t-32.5 55t-37.5 91t-34.5 130q-4 32 -6 64t6 71q6 0 11 0.5t10 -1.5q30 -14 57.5 -32t42.5 -51q13 -27 24 -69t19.5 -83.5t14 -73t5.5 -36.5
q29 23 47.5 48.5t29.5 55.5q16 44 31 87.5t31 88.5q14 37 67 20v-155q1 -43 27 -57t63 8q6 5 12 9.5t12 9.5q5 4 9.5 8t9.5 6q4 2 10 2.5t8 -1.5q2 -5 3 -11t-1 -10q-3 -6 -8.5 -10.5t-11.5 -7.5q-18 -11 -43 -21q-15 -7 -31.5 -8t-33 2.5t-32 12t-27.5 21.5q-3 4 -6.5 8
t-8.5 10z" />
    <glyph glyph-name="w" unicode="w" horiz-adv-x="857" 
d="M192 -71q19 11 28.5 26.5t14.5 31.5q14 51 25.5 101.5t22.5 101.5q0 1 0.5 12.5t4.5 25t15 26t32 14.5q23 -8 24 -38q4 -38 13.5 -75.5t18.5 -75.5q5 -17 10.5 -34t20.5 -30q19 9 27 30q14 46 27 91.5t27 91.5q7 21 12.5 54.5t9.5 65.5t6.5 56.5t2.5 27.5q1 8 1.5 16.5
t4.5 14.5q14 17 32 25q13 5 20.5 -2t9.5 -16q5 -106 22 -173.5t37 -106t39.5 -54t28.5 -16.5q18 -3 30 5t20 22q11 18 20 34t17 36q5 10 14 16.5t14 3.5q12 -8 13 -26t-15 -40q-8 -11 -15.5 -23.5t-15.5 -24.5q-24 -31 -55.5 -38t-66.5 4q-19 7 -36 16.5t-34 19.5
q-5 2 -9.5 6t-8.5 6q-3 -4 -14 -23.5t-25 -43.5t-28.5 -47t-23.5 -35q-15 -20 -36 -26.5t-47 -0.5q-26 7 -51 15t-45 28q-2 -3 -1 -0.5t1 0.5q-2 -28 -16 -54.5t-37 -45.5q-7 -10 -42 -18t-88 3q-45 11 -79.5 42t-47.5 77q-8 31 -14.5 62t-5.5 63q1 36 2.5 72.5t5.5 71.5
q4 37 10 73.5t12 73.5q2 9 5 18t5 19q30 12 56 4.5t50 -21.5q10 -6 14 -19q6 -14 9 -43.5t4 -66t0.5 -75.5t-1.5 -72.5t-2 -57.5t-1 -29q0 -15 1 -38t3 -46.5t6.5 -42.5t11.5 -25z" />
    <glyph glyph-name="x" unicode="x" horiz-adv-x="728" 
d="M0 475q8 2 13 3l10 2q60 5 116.5 -6t110.5 -35q8 -3 22 -12.5t28 -20.5t25.5 -20.5t14.5 -13.5q6 -7 10 -15.5t9 -17.5q25 14 52 28t52 31t47.5 37.5t48.5 41.5q2 -6 5.5 -10.5t2.5 -8.5q-2 -17 -6.5 -32.5t-18.5 -30.5q-27 -28 -57.5 -51t-57.5 -50q-11 -11 -23 -19.5
t-23 -16.5q-3 -32 3.5 -59.5t15.5 -50t18.5 -40t13.5 -29.5q5 -17 15.5 -26.5t23.5 -17.5q4 -2 9.5 -1.5t10.5 2.5q12 6 24 12.5t22 15.5q39 37 76.5 75t67.5 83q10 14 24 23q3 2 8.5 1.5t9.5 -2.5q2 -2 3.5 -7t0.5 -8q-5 -12 -11 -23.5t-13 -22.5q-26 -36 -54.5 -68
t-65.5 -57q-2 -2 -20.5 -15t-47 -25t-64 -15.5t-71.5 14.5q-36 20 -65.5 46t-49.5 63q-5 8 -10.5 16.5t-12.5 18.5q-5 -4 -10 -7l-10 -6q-9 -6 -29.5 -19t-44 -26.5t-44.5 -25.5t-30 -17q-17 -9 -34 -3.5t-32 14.5q8 8 31 30t51 46.5t55 47.5t44 32q5 2 8.5 5t8.5 6
q-5 16 -8.5 32t-11.5 30q-14 26 -29 51t-31 51q-14 23 -36 34t-48 13q-8 1 -13 1.5t-9 3t-8.5 7.5t-11.5 14z" />
    <glyph glyph-name="y" unicode="y" horiz-adv-x="686" 
d="M340 91q-14 -5 -26.5 -8.5t-24.5 -8.5q-5 -1 -9 -2t-8 -3q-36 -14 -77.5 -13.5t-79.5 15t-67 43.5t-38 73q-20 91 3 180q11 45 27 87t30 85q5 13 14 19t18 14q21 18 44 11q13 -3 25.5 -4t24.5 -6q18 -7 23 -16.5t3 -28.5q-2 -11 -2.5 -22.5t-3.5 -22.5q-2 -6 -5.5 -31.5
t-8 -60t-9 -74.5t-8.5 -76l-7 -63t-3 -36q-1 -11 1.5 -20t10.5 -17q14 1 25.5 8t22.5 15q34 22 55 44.5t33 43t18.5 37t11.5 26.5q13 26 26 52.5t27 52.5q3 5 11 9.5t17.5 7.5t19 4t15.5 -1q9 -5 15 -16q3 -7 4 -14.5t2 -15.5q1 -9 2.5 -23.5t3.5 -28.5t3 -25t1 -14
q-2 -26 -4 -53t-4 -57q19 13 36.5 23t33.5 22q22 18 47 28t52 15q14 3 18 -1t6 -11q0 -2 -3.5 -5.5t-8.5 -7l-10 -7t-7 -3.5q-8 -1 -24 -9.5t-33.5 -19.5t-34 -21.5t-23.5 -16.5q-16 -12 -30 -25.5t-28 -27.5q-2 -2 -3 -6l-2 -8l-16 -66l-16 -66q-4 -15 -6 -30.5t-7 -29.5
q-5 -15 -5.5 -30t-5.5 -29q-8 -26 -10 -52.5t-12 -52.5q-9 -26 -15 -52.5t-17 -51.5q-10 -20 -24.5 -38.5t-29.5 -35.5q-5 -5 -13 -6t-16 -1q-14 0 -27.5 0.5t-26.5 4.5q-20 6 -40.5 13.5t-39.5 17.5q-33 17 -44 38t-3 62q2 11 9 29t15.5 36t15.5 32.5t9 18.5q28 49 60 94.5
t74 83.5q22 19 36.5 39.5t12.5 51.5q0 9 1.5 18t2.5 17zM326 -63q-27 -26 -49 -55t-41 -61q-1 -2 -8.5 -16t-17.5 -32.5t-19 -38.5t-13 -33q-5 -14 -5.5 -29.5t-1.5 -30.5q-3 -22 15 -30q11 -5 19.5 -2t15.5 11q5 7 10.5 13t8.5 14q17 44 33 87t30 88q9 28 13 57t10 58z" />
    <glyph glyph-name="z" unicode="z" horiz-adv-x="566" 
d="M566 233q-12 -5 -21 -8.5t-17 -4.5q-27 -1 -49.5 -12.5t-44.5 -25.5q-20 -14 -40 -29t-43 -32q5 -14 9.5 -28.5t8.5 -28.5q2 -11 5.5 -23t1.5 -24q-2 -29 -5.5 -57t-8.5 -56q-8 -51 -31.5 -95t-58.5 -82q-17 -18 -33 -37t-32 -39q-15 -18 -34.5 -26.5t-39.5 -8.5
q-17 0 -36 7.5t-33 18.5q-9 8 -24.5 25.5t-26.5 41.5t-12.5 54t16.5 65q20 26 38 53t40 51q39 42 80 82t82 81q10 11 24 19q38 28 15 67q-4 7 -20.5 11t-35 6.5t-33.5 3.5l-15 1q-18 5 -35.5 1.5t-35.5 -4.5q-11 -1 -21 1l-20 4q-8 2 -13 15t-1 22q10 23 19 45.5t24 43.5
q20 28 44.5 49.5t48.5 43.5q4 3 7.5 7t8.5 10q-14 2 -26.5 2.5t-23.5 1.5q-19 2 -35 7t-28 23q-9 14 -22 25.5t-27 24.5q11 9 21.5 9t21.5 -5q9 -5 29.5 -7t46 -2.5t53 0t51 1.5t40 1t20.5 -2q19 -10 36.5 -21t35.5 -22q8 -4 8 -12q0 -24 0.5 -48.5t-13.5 -47.5
q-7 -13 -15 -24.5t-16 -23.5q-1 -2 -13 -13t-27.5 -24.5t-30.5 -26.5t-21 -18q10 -9 18.5 -17t16.5 -17t15.5 -18.5t15.5 -20.5q14 9 27 17.5t26 17.5q29 19 60 29t64 18q19 4 40 -15zM295 68q-2 1 -3.5 2t-3.5 3q-11 -13 -23 -25t-23 -25l-66 -70t-65 -71
q-11 -12 -19.5 -33.5t-14 -42t-8.5 -36.5t-2 -18q2 0 6 2q0 1 15 10.5t34.5 21.5t37 24t21.5 18q19 24 29.5 37t21.5 27q31 40 41.5 83.5t21.5 92.5z" />
    <glyph glyph-name="braceleft" unicode="{" horiz-adv-x="288" 
d="M207 621q-4 -7 -6.5 -12t-5.5 -10q-1 -2 -3 -3t-4 -3q-2 1 -5.5 1.5t-5.5 2.5q-15 11 -28.5 7.5t-27.5 -12.5q-23 -17 -15 -47q6 -23 12.5 -46t12.5 -46q11 -40 21.5 -80t4.5 -83q-2 -17 -5 -32t-18 -26q21 -23 39 -45q13 -15 14.5 -34t2.5 -37q2 -31 1.5 -61.5
t1.5 -61.5q0 -18 1 -36.5t3 -36.5t18 -29t41 -11q11 0 19 -2t13 -15q-6 -8 -12.5 -15.5t-14.5 -16.5q-43 3 -81 17t-70 44q-11 10 -18 22t-7 27q-1 39 -1 78t-1 78q-1 20 -1 39t-1 39q0 11 -6.5 15.5t-15.5 8.5q-11 4 -21.5 8t-19.5 11q-18 14 -17 33t22 26q34 12 40.5 34
t1.5 51q-4 19 -7 38t-9 38q-13 39 -10.5 76.5t19.5 75.5q11 24 29 37t46 10q19 -2 37 -4t37 -12z" />
    <glyph glyph-name="braceright" unicode="}" horiz-adv-x="294" 
d="M294 250q-7 -13 -14.5 -24t-25.5 -15q-22 -5 -29.5 -22t-5.5 -46q2 -44 4 -86.5t3 -86.5q2 -59 -22 -109q-8 -18 -27.5 -27.5t-37.5 -2.5q-19 8 -35 19.5t-18 37.5q32 8 44 30.5t11 52.5q-1 20 -2 39t-3 39q-7 51 -6.5 100.5t23.5 96.5q-2 7 -3 8q-24 18 -36.5 40
t-17.5 46t-4.5 49.5t2.5 51.5q3 35 1.5 68.5t-13.5 67.5q-5 16 -14.5 25t-26.5 11q-12 2 -24 6t-17 21q28 -2 55 -2.5t53 -3.5q29 -3 46 -21.5t28 -42.5q4 -8 7 -16l6 -16q4 -12 8.5 -23.5t4.5 -23.5q1 -26 -0.5 -52t-2.5 -52q-1 -18 -1.5 -36.5t1.5 -37.5q1 -33 44 -44
q12 -2 24.5 -4t20.5 -15z" />
    <glyph glyph-name="exclamdown" unicode="&#xa1;" horiz-adv-x="159" 
d="M28 441q12 -2 22 -3t20 -4q17 -5 29.5 -13t17.5 -30l12 -58t5 -59q0 -6 1 -9q8 -23 11.5 -46t5 -46.5t2.5 -47t4 -46.5q1 -10 -1.5 -19.5t-4.5 -20.5q-4 -30 -6.5 -60.5t-7.5 -60.5q-2 -14 -9 -27t-15 -26q-2 -5 -8.5 -7t-14 -2t-15 2.5t-13.5 6.5q-29 21 -35 55
q-2 7 -2.5 13.5t-1.5 14.5q-4 42 -8.5 84t-5.5 84q-1 38 3.5 76.5t6.5 76.5q2 42 4 84.5t4 87.5zM0 596q11 4 20.5 8t20.5 6q10 2 16.5 2t11 -2.5t8.5 -8.5t9 -16q0 -1 0.5 -1.5t0.5 -1.5q5 -7 9 -13.5t8 -14.5q2 -2 1 -6t-3 -6q-7 -8 -14 -14.5t-14 -13.5q-20 3 -33 8.5
t-21.5 15t-13 23.5t-6.5 35z" />
    <glyph glyph-name="cent" unicode="&#xa2;" horiz-adv-x="357" 
d="M357 4q-19 -32 -39 -54.5t-58 -24.5q6 -17 11.5 -32.5t12.5 -33.5q-5 -14 -11.5 -31t-13.5 -35q-28 8 -42 25t-23 37q-8 19 -20.5 28t-34.5 11q-73 8 -104 77q-5 11 -9 22t-9 22q-17 32 -17 66.5t10.5 66t29 57.5t39.5 41q10 8 22 12.5t26 12.5q-7 26 -14.5 52.5
t-15.5 55.5q40 -10 65 -29t39 -55q6 -17 24.5 -29.5t33.5 -26.5q13 -11 25.5 -22.5t28.5 -25.5q-11 -8 -17.5 -14t-14.5 -10q-23 -12 -46 -23.5t-47 -21.5q-30 -13 -49.5 -35.5t-37.5 -47.5q-8 -11 -4 -19.5t15 -12.5q14 -5 29.5 -8t29.5 -3q33 1 66 3.5t65 4.5q12 1 25 0.5
t30 -0.5z" />
    <glyph glyph-name="degree" unicode="&#xb0;" horiz-adv-x="317" 
d="M152 758l3 -12q2 -8 2 -13q50 -1 82 -41q6 -7 14 -12.5t16 -11.5q21 -20 1 -41q-21 -21 -36 -43q-23 -35 -50 -41.5t-71 5.5q-30 9 -49 32t-24.5 51.5t2.5 57.5t32 50q18 16 37 18.5t41 0.5zM175 671q-11 12 -22 25t-22 27l-9 -3q-3 -20 -6 -39.5t-6 -40.5q22 -1 37.5 4
t27.5 27zM317 449q-20 -9 -38 -19.5t-35 -20.5t-35 -18.5t-38 -13.5q-89 -21 -152 39q-6 6 -9 16t-10 24q28 -9 49.5 -8.5t43.5 6.5q25 7 51 9t52.5 2t53 -1t52.5 -2q2 -1 5 -4t10 -9z" />
    <glyph glyph-name="acute" unicode="&#xb4;" 
d="M110 577q-5 10 -3.5 18.5t7.5 16.5q14 15 27.5 32.5t29.5 30.5q18 14 36.5 25.5t37.5 23.5q6 -3 12 -5.5t14 -6.5v-19t-1 -18q-2 -9 -5.5 -16.5t-14.5 -10.5q-4 0 -7 -3t-6 -7q-6 -5 -11 -10.5t-12 -11.5q-42 -35 -104 -39z" />
    <glyph glyph-name="periodcentered" unicode="&#xb7;" horiz-adv-x="147" 
d="M56 190q1 0 -4.5 1t-14 7t-18.5 19.5t-17 39.5q-4 14 0.5 26t15.5 20q20 14 41 22t44 15q19 5 30.5 -5t13.5 -30q0 -13 -0.5 -25.5t-1.5 -26.5q-2 -22 -18 -37l-2 -2q-5 -12 -10.5 -17.5t-13.5 -8t-18.5 -1.5t-26.5 3z" />
    <glyph glyph-name="ordmasculine" unicode="&#xba;" horiz-adv-x="317" 
d="M152 758l3 -12q2 -8 2 -13q50 -1 82 -41q6 -7 14 -12.5t16 -11.5q21 -20 1 -41q-21 -21 -36 -43q-23 -35 -50 -41.5t-71 5.5q-30 9 -49 32t-24.5 51.5t2.5 57.5t32 50q18 16 37 18.5t41 0.5zM175 671q-11 12 -22 25t-22 27l-9 -3q-3 -20 -6 -39.5t-6 -40.5q22 -1 37.5 4
t27.5 27zM317 449q-20 -9 -38 -19.5t-35 -20.5t-35 -18.5t-38 -13.5q-89 -21 -152 39q-6 6 -9 16t-10 24q28 -9 49.5 -8.5t43.5 6.5q25 7 51 9t52.5 2t53 -1t52.5 -2q2 -1 5 -4t10 -9z" />
    <glyph glyph-name="questiondown" unicode="&#xbf;" horiz-adv-x="290" 
d="M130 508q24 -8 45 -15.5t41 -15.5q4 -2 6.5 -7t3.5 -10q5 -19 11 -37.5t8 -38.5q3 -31 8 -61t6 -62q2 -29 -3 -56.5t-8 -56.5q-1 -8 -6 -15.5t-7 -15.5q-10 -27 -28.5 -47t-40.5 -37q-17 -14 -28 -32t-13 -42q-2 -19 -9 -37q-8 -20 0.5 -38t22.5 -32q1 -2 5 -4
q23 -14 37 -20.5t24.5 -5.5t20.5 9.5t26 23.5q9 8 18 18t20 22q-2 -9 -2.5 -14.5t-2.5 -10.5q-4 -14 -8 -26.5t-9 -26.5q-2 -7 -9 -14.5t-16 -13.5t-18.5 -10t-16.5 -2q-38 8 -74 20.5t-65 40.5q-45 40 -60.5 87.5t-0.5 107.5q10 38 27.5 71.5t46.5 60.5q11 11 16 26
q6 24 11.5 48.5t8.5 49.5q5 40 7.5 79.5t4.5 80.5q1 13 0.5 27t-0.5 32zM225 639q-5 -11 -8 -20t-5 -17q-7 -28 -36 -34q-30 -6 -45 20q-5 8 -9.5 15.5t-9.5 15.5q17 14 18 33t2 39q5 0 9 0.5t7 -1.5l40 -26t37 -25z" />
    <glyph glyph-name="Agrave" unicode="&#xc0;" horiz-adv-x="667" 
d="M587 153q16 43 30.5 87t19.5 70q1 8 6 11.5t10.5 3t9.5 -5t3 -12.5v-1q-1 -9 -9 -37.5t-22 -64.5t-33 -74t-42 -66q-14 -23 -35 -25.5t-43.5 7t-43 27.5t-32.5 37q-25 38 -45.5 78.5t-35.5 84.5l-2 4t-3 5q-4 -2 -15 -6t-24.5 -8t-26.5 -7t-20 -3q-18 0 -27 -1t-13.5 -5
t-7 -13t-8.5 -25q-20 -45 -37 -76t-30.5 -51.5t-24 -32.5t-16.5 -20q-3 -4 -6.5 -7t-7.5 -6q-8 -7 -17 -4.5t-12 11.5q-3 8 -5.5 16.5t-4.5 16.5q-27 100 -9 201q14 76 28.5 151.5t30.5 150.5q8 36 18 71.5t20 70.5q1 4 5 12t9 15.5t9.5 13t7.5 5.5q7 1 14.5 0.5t14.5 -3.5
q35 -14 63 -35t43 -57q9 -20 16.5 -41.5t15.5 -42.5q11 -26 22 -52.5t22 -53.5q1 -2 7 -15.5t12.5 -28.5t12.5 -28t7 -14q4 -8 15 -32t26 -57t31.5 -68.5t31.5 -66.5t26.5 -51t17.5 -22q5 -2 13.5 8.5t17.5 24.5q11 16 22 36zM208 514q-2 -44 -3.5 -88t-3.5 -89
q0 -7 4.5 -12.5t12.5 -5.5q12 -2 24 -2.5t25 -2.5q11 -1 17 7.5t1 18.5q-11 22 -19 44.5l-16 45t-18 43.5t-24 41zM225 787q-7 -1 -14 -3t-15 -1q-27 1 -51.5 11.5t-47.5 27.5q-17 14 -34.5 27.5t-34.5 27.5q37 49 88 28q8 -3 14.5 -10t12.5 -15q21 -20 41.5 -42t41.5 -44z
" />
    <glyph glyph-name="Aacute" unicode="&#xc1;" horiz-adv-x="667" 
d="M587 153q16 43 30.5 87t19.5 70q1 8 6 11.5t10.5 3t9.5 -5t3 -12.5v-1q-1 -9 -9 -37.5t-22 -64.5t-33 -74t-42 -66q-14 -23 -35 -25.5t-43.5 7t-43 27.5t-32.5 37q-25 38 -45.5 78.5t-35.5 84.5l-2 4t-3 5q-4 -2 -15 -6t-24.5 -8t-26.5 -7t-20 -3q-18 0 -27 -1t-13.5 -5
t-7 -13t-8.5 -25q-20 -45 -37 -76t-30.5 -51.5t-24 -32.5t-16.5 -20q-3 -4 -6.5 -7t-7.5 -6q-8 -7 -17 -4.5t-12 11.5q-3 8 -5.5 16.5t-4.5 16.5q-27 100 -9 201q14 76 28.5 151.5t30.5 150.5q8 36 18 71.5t20 70.5q1 4 5 12t9 15.5t9.5 13t7.5 5.5q7 1 14.5 0.5t14.5 -3.5
q35 -14 63 -35t43 -57q9 -20 16.5 -41.5t15.5 -42.5q11 -26 22 -52.5t22 -53.5q1 -2 7 -15.5t12.5 -28.5t12.5 -28t7 -14q4 -8 15 -32t26 -57t31.5 -68.5t31.5 -66.5t26.5 -51t17.5 -22q5 -2 13.5 8.5t17.5 24.5q11 16 22 36zM208 514q-2 -44 -3.5 -88t-3.5 -89
q0 -7 4.5 -12.5t12.5 -5.5q12 -2 24 -2.5t25 -2.5q11 -1 17 7.5t1 18.5q-11 22 -19 44.5l-16 45t-18 43.5t-24 41zM129 786q-5 10 -3.5 18.5t7.5 16.5q14 15 27.5 32.5t29.5 30.5q18 14 36.5 25.5t37.5 23.5q6 -3 12 -5.5t14 -6.5v-19t-1 -18q-2 -9 -5.5 -16.5t-14.5 -10.5
q-4 0 -7 -3t-6 -7q-6 -5 -11 -10.5t-12 -11.5q-42 -35 -104 -39z" />
    <glyph glyph-name="Acircumflex" unicode="&#xc2;" horiz-adv-x="667" 
d="M587 153q16 43 30.5 87t19.5 70q1 8 6 11.5t10.5 3t9.5 -5t3 -12.5v-1q-1 -9 -9 -37.5t-22 -64.5t-33 -74t-42 -66q-14 -23 -35 -25.5t-43.5 7t-43 27.5t-32.5 37q-25 38 -45.5 78.5t-35.5 84.5l-2 4t-3 5q-4 -2 -15 -6t-24.5 -8t-26.5 -7t-20 -3q-18 0 -27 -1t-13.5 -5
t-7 -13t-8.5 -25q-20 -45 -37 -76t-30.5 -51.5t-24 -32.5t-16.5 -20q-3 -4 -6.5 -7t-7.5 -6q-8 -7 -17 -4.5t-12 11.5q-3 8 -5.5 16.5t-4.5 16.5q-27 100 -9 201q14 76 28.5 151.5t30.5 150.5q8 36 18 71.5t20 70.5q1 4 5 12t9 15.5t9.5 13t7.5 5.5q7 1 14.5 0.5t14.5 -3.5
q35 -14 63 -35t43 -57q9 -20 16.5 -41.5t15.5 -42.5q11 -26 22 -52.5t22 -53.5q1 -2 7 -15.5t12.5 -28.5t12.5 -28t7 -14q4 -8 15 -32t26 -57t31.5 -68.5t31.5 -66.5t26.5 -51t17.5 -22q5 -2 13.5 8.5t17.5 24.5q11 16 22 36zM208 514q-2 -44 -3.5 -88t-3.5 -89
q0 -7 4.5 -12.5t12.5 -5.5q12 -2 24 -2.5t25 -2.5q11 -1 17 7.5t1 18.5q-11 22 -19 44.5l-16 45t-18 43.5t-24 41zM41 768q5 9 8 17.5t8 14.5l54 62t55 63q7 8 15 8t16 -6q23 -15 46 -31t40 -43q3 -3 7 -5t6 -6q4 -5 8.5 -10.5t8 -11.5t4.5 -14t-2 -18q-2 -6 -1 -11.5
t2.5 -12t0.5 -13.5t-5 -13q-18 0 -36 4.5t-35 16.5q-22 16 -44 31.5t-44 31.5q-12 5 -21 -7q-7 -8 -15.5 -14.5t-14.5 -15.5q-9 -12 -27 -15.5t-34 -1.5z" />
    <glyph glyph-name="Atilde" unicode="&#xc3;" horiz-adv-x="667" 
d="M587 153q16 43 30.5 87t19.5 70q1 8 6 11.5t10.5 3t9.5 -5t3 -12.5v-1q-1 -9 -9 -37.5t-22 -64.5t-33 -74t-42 -66q-14 -23 -35 -25.5t-43.5 7t-43 27.5t-32.5 37q-25 38 -45.5 78.5t-35.5 84.5l-2 4t-3 5q-4 -2 -15 -6t-24.5 -8t-26.5 -7t-20 -3q-18 0 -27 -1t-13.5 -5
t-7 -13t-8.5 -25q-20 -45 -37 -76t-30.5 -51.5t-24 -32.5t-16.5 -20q-3 -4 -6.5 -7t-7.5 -6q-8 -7 -17 -4.5t-12 11.5q-3 8 -5.5 16.5t-4.5 16.5q-27 100 -9 201q14 76 28.5 151.5t30.5 150.5q8 36 18 71.5t20 70.5q1 4 5 12t9 15.5t9.5 13t7.5 5.5q7 1 14.5 0.5t14.5 -3.5
q35 -14 63 -35t43 -57q9 -20 16.5 -41.5t15.5 -42.5q11 -26 22 -52.5t22 -53.5q1 -2 7 -15.5t12.5 -28.5t12.5 -28t7 -14q4 -8 15 -32t26 -57t31.5 -68.5t31.5 -66.5t26.5 -51t17.5 -22q5 -2 13.5 8.5t17.5 24.5q11 16 22 36zM208 514q-2 -44 -3.5 -88t-3.5 -89
q0 -7 4.5 -12.5t12.5 -5.5q12 -2 24 -2.5t25 -2.5q11 -1 17 7.5t1 18.5q-11 22 -19 44.5l-16 45t-18 43.5t-24 41zM238 836q6 5 16.5 18l21 26t23 25t33.5 23q11 -4 15.5 -11t2.5 -19q-3 -11 -5 -21.5t-6 -21.5q-1 -6 -3.5 -12.5t-4.5 -11.5q-16 -49 -72 -47q-23 1 -41 10.5
t-33 24.5q-10 9 -18.5 19t-17.5 19q-3 3 -6.5 5.5t-3.5 1.5q-7 -7 -19 -18.5t-26 -22.5q-17 -14 -40.5 -31.5t-30 21t25.5 69.5q23 20 48 25.5t53 2.5q26 -3 43 -24q6 -7 11 -15t11 -15q6 -6 13 -12t10 -8z" />
    <glyph glyph-name="Egrave" unicode="&#xc8;" horiz-adv-x="538" 
d="M512 329q13 -2 20 -12.5t5 -23.5q-6 -39 -22.5 -80.5t-35.5 -77.5t-37 -62.5t-27 -35.5q-13 -15 -23 -25t-19 -16.5t-18.5 -11t-20.5 -8.5q-38 -15 -69.5 -20.5t-72.5 -2.5q-73 4 -127 51q-18 16 -29 35.5t-19 41.5q-5 12 -9.5 30t-6.5 38.5t-0.5 43t7.5 43.5l10.5 28
t9 23.5t9 24t11.5 27.5q9 20 21.5 38t25.5 36q9 13 19.5 24.5t22.5 25.5q-3 6 -6.5 14t-7.5 16q-7 14 -11.5 29t-5.5 31q-1 15 3.5 33t13 35t21 31t27.5 21q27 15 52.5 21t47 6.5t37 -2.5t21.5 -6q20 -11 39.5 -23.5t29.5 -36.5q9 -22 3.5 -41t-25.5 -32q-15 -9 -23.5 -11
t-22.5 4q-9 4 -13 13t-1 19q1 1 1 2t1 2q1 21 -12.5 32.5t-31.5 14t-35.5 -5t-23.5 -24.5q0 -13 -0.5 -26t0.5 -26q1 -14 5.5 -31.5t13.5 -33t22.5 -28t32.5 -17.5q11 -2 21.5 -7t20.5 -10q13 -6 13 -14.5t-12 -15.5q-9 -5 -18.5 -8.5t-21.5 0.5q-10 2 -20 2t-20 2
q-20 2 -31 -4.5t-17 -26.5q-3 -12 -10 -33.5t-14 -43.5t-13 -40t-7 -23q-8 -30 -12 -60t-6 -61q-2 -22 5.5 -40.5t21.5 -33.5q2 -4 9.5 -6t13.5 -2q59 -1 113 25q56 26 97 68.5t64 94.5q12 29 23 60t19 62q0 1 4 1zM321 787q-7 -1 -14 -3t-15 -1q-27 1 -51.5 11.5
t-47.5 27.5q-17 14 -34.5 27.5t-34.5 27.5q37 49 88 28q8 -3 14.5 -10t12.5 -15q21 -20 41.5 -42t41.5 -44z" />
    <glyph glyph-name="Eacute" unicode="&#xc9;" horiz-adv-x="538" 
d="M512 329q13 -2 20 -12.5t5 -23.5q-6 -39 -22.5 -80.5t-35.5 -77.5t-37 -62.5t-27 -35.5q-13 -15 -23 -25t-19 -16.5t-18.5 -11t-20.5 -8.5q-38 -15 -69.5 -20.5t-72.5 -2.5q-73 4 -127 51q-18 16 -29 35.5t-19 41.5q-5 12 -9.5 30t-6.5 38.5t-0.5 43t7.5 43.5l10.5 28
t9 23.5t9 24t11.5 27.5q9 20 21.5 38t25.5 36q9 13 19.5 24.5t22.5 25.5q-3 6 -6.5 14t-7.5 16q-7 14 -11.5 29t-5.5 31q-1 15 3.5 33t13 35t21 31t27.5 21q27 15 52.5 21t47 6.5t37 -2.5t21.5 -6q20 -11 39.5 -23.5t29.5 -36.5q9 -22 3.5 -41t-25.5 -32q-15 -9 -23.5 -11
t-22.5 4q-9 4 -13 13t-1 19q1 1 1 2t1 2q1 21 -12.5 32.5t-31.5 14t-35.5 -5t-23.5 -24.5q0 -13 -0.5 -26t0.5 -26q1 -14 5.5 -31.5t13.5 -33t22.5 -28t32.5 -17.5q11 -2 21.5 -7t20.5 -10q13 -6 13 -14.5t-12 -15.5q-9 -5 -18.5 -8.5t-21.5 0.5q-10 2 -20 2t-20 2
q-20 2 -31 -4.5t-17 -26.5q-3 -12 -10 -33.5t-14 -43.5t-13 -40t-7 -23q-8 -30 -12 -60t-6 -61q-2 -22 5.5 -40.5t21.5 -33.5q2 -4 9.5 -6t13.5 -2q59 -1 113 25q56 26 97 68.5t64 94.5q12 29 23 60t19 62q0 1 4 1zM226 786q-5 10 -3.5 18.5t7.5 16.5q14 15 27.5 32.5
t29.5 30.5q18 14 36.5 25.5t37.5 23.5q6 -3 12 -5.5t14 -6.5v-19t-1 -18q-2 -9 -5.5 -16.5t-14.5 -10.5q-4 0 -7 -3t-6 -7q-6 -5 -11 -10.5t-12 -11.5q-42 -35 -104 -39z" />
    <glyph glyph-name="Ecircumflex" unicode="&#xca;" horiz-adv-x="538" 
d="M512 329q13 -2 20 -12.5t5 -23.5q-6 -39 -22.5 -80.5t-35.5 -77.5t-37 -62.5t-27 -35.5q-13 -15 -23 -25t-19 -16.5t-18.5 -11t-20.5 -8.5q-38 -15 -69.5 -20.5t-72.5 -2.5q-73 4 -127 51q-18 16 -29 35.5t-19 41.5q-5 12 -9.5 30t-6.5 38.5t-0.5 43t7.5 43.5l10.5 28
t9 23.5t9 24t11.5 27.5q9 20 21.5 38t25.5 36q9 13 19.5 24.5t22.5 25.5q-3 6 -6.5 14t-7.5 16q-7 14 -11.5 29t-5.5 31q-1 15 3.5 33t13 35t21 31t27.5 21q27 15 52.5 21t47 6.5t37 -2.5t21.5 -6q20 -11 39.5 -23.5t29.5 -36.5q9 -22 3.5 -41t-25.5 -32q-15 -9 -23.5 -11
t-22.5 4q-9 4 -13 13t-1 19q1 1 1 2t1 2q1 21 -12.5 32.5t-31.5 14t-35.5 -5t-23.5 -24.5q0 -13 -0.5 -26t0.5 -26q1 -14 5.5 -31.5t13.5 -33t22.5 -28t32.5 -17.5q11 -2 21.5 -7t20.5 -10q13 -6 13 -14.5t-12 -15.5q-9 -5 -18.5 -8.5t-21.5 0.5q-10 2 -20 2t-20 2
q-20 2 -31 -4.5t-17 -26.5q-3 -12 -10 -33.5t-14 -43.5t-13 -40t-7 -23q-8 -30 -12 -60t-6 -61q-2 -22 5.5 -40.5t21.5 -33.5q2 -4 9.5 -6t13.5 -2q59 -1 113 25q56 26 97 68.5t64 94.5q12 29 23 60t19 62q0 1 4 1zM130 768q5 9 8 17.5t8 14.5l54 62t55 63q7 8 15 8t16 -6
q23 -15 46 -31t40 -43q3 -3 7 -5t6 -6q4 -5 8.5 -10.5t8 -11.5t4.5 -14t-2 -18q-2 -6 -1 -11.5t2.5 -12t0.5 -13.5t-5 -13q-18 0 -36 4.5t-35 16.5q-22 16 -44 31.5t-44 31.5q-12 5 -21 -7q-7 -8 -15.5 -14.5t-14.5 -15.5q-9 -12 -27 -15.5t-34 -1.5z" />
    <glyph glyph-name="Igrave" unicode="&#xcc;" horiz-adv-x="285" 
d="M218 50q8 -7 17.5 -6.5t20.5 -1.5q20 -2 25.5 -11.5t-0.5 -32.5q-12 -1 -24 -2.5t-24 -1.5q-26 -1 -52.5 -0.5t-52.5 1.5q-6 0 -11.5 1.5t-10.5 3.5q-11 2 -22.5 3.5t-23.5 3.5q-14 2 -28.5 2.5t-31.5 1.5q0 13 6 19.5t15 9t19 3t18 1.5q-1 12 0.5 54t4 98.5t5.5 120
t6.5 119.5t7 97t6.5 53q2 5 2 9.5v6.5q-21 14 -41 26.5t-42 26.5q13 9 23.5 10t21.5 -2q38 -9 75 -18t75 -20q11 -3 20.5 -9.5t19.5 -12.5q3 -2 5.5 -7t0.5 -7q-4 -9 -13 -11q-10 -2 -19.5 -2h-19.5q1 -10 4 -45t5.5 -83.5t5.5 -103t5.5 -102.5t4.5 -83.5t2 -45.5
q0 -15 -1.5 -30t-3.5 -33zM207 725q-7 -1 -14 -3t-15 -1q-27 1 -51.5 11.5t-47.5 27.5q-17 14 -34.5 27.5t-34.5 27.5q37 49 88 28q8 -3 14.5 -10t12.5 -15q21 -20 41.5 -42t41.5 -44z" />
    <glyph glyph-name="Iacute" unicode="&#xcd;" horiz-adv-x="285" 
d="M218 50q8 -7 17.5 -6.5t20.5 -1.5q20 -2 25.5 -11.5t-0.5 -32.5q-12 -1 -24 -2.5t-24 -1.5q-26 -1 -52.5 -0.5t-52.5 1.5q-6 0 -11.5 1.5t-10.5 3.5q-11 2 -22.5 3.5t-23.5 3.5q-14 2 -28.5 2.5t-31.5 1.5q0 13 6 19.5t15 9t19 3t18 1.5q-1 12 0.5 54t4 98.5t5.5 120
t6.5 119.5t7 97t6.5 53q2 5 2 9.5v6.5q-21 14 -41 26.5t-42 26.5q13 9 23.5 10t21.5 -2q38 -9 75 -18t75 -20q11 -3 20.5 -9.5t19.5 -12.5q3 -2 5.5 -7t0.5 -7q-4 -9 -13 -11q-10 -2 -19.5 -2h-19.5q1 -10 4 -45t5.5 -83.5t5.5 -103t5.5 -102.5t4.5 -83.5t2 -45.5
q0 -15 -1.5 -30t-3.5 -33zM100 786q-5 10 -3.5 18.5t7.5 16.5q14 15 27.5 32.5t29.5 30.5q18 14 36.5 25.5t37.5 23.5q6 -3 12 -5.5t14 -6.5v-19t-1 -18q-2 -9 -5.5 -16.5t-14.5 -10.5q-4 0 -7 -3t-6 -7q-6 -5 -11 -10.5t-12 -11.5q-42 -35 -104 -39z" />
    <glyph glyph-name="Ograve" unicode="&#xd2;" horiz-adv-x="622" 
d="M338 684q7 -27 -2.5 -51t-19.5 -49h18q21 2 37.5 -6t30.5 -21q4 -5 6 -9q3 -11 9 -28.5t11.5 -49.5t8.5 -81.5t0 -123.5q16 -7 31 -4.5t29 9.5q23 11 44.5 21.5t43.5 24.5q26 17 34 4q5 -8 2.5 -17t-12.5 -14q-14 -8 -33.5 -17.5t-40 -17.5t-39.5 -14t-31 -7
q-17 -2 -24.5 -8.5t-11.5 -21.5q-9 -39 -26 -74t-40 -67q-12 -17 -24 -33t-26 -31q-9 -10 -19.5 -14t-23.5 -6q-9 -1 -36 -3.5t-61.5 4t-71 27.5t-64.5 66q-15 28 -21.5 58.5t-11.5 61.5q-8 52 0.5 101t24.5 97q17 51 36.5 99.5t49.5 93.5q11 17 24 32.5t26 31.5
q9 11 20.5 16t24.5 10q27 10 54.5 13t56.5 3q4 0 8 -1.5t9 -3.5zM240 441q-17 -36 -33 -77t-26.5 -89t-13 -103.5t6.5 -119.5q1 -5 4 -11t8 -8q14 -8 29.5 -10.5t30.5 4.5q17 8 30.5 20.5t21.5 29.5q10 16 18.5 45.5t15.5 59t10.5 52.5t3.5 26q-1 5 -2 11t-5 10
q-29 36 -52.5 75.5t-46.5 84.5zM351 328q2 0 4 0.5t4 0.5q0 9 -0.5 18t-1.5 18q-1 16 -4 44.5t-7.5 57.5t-9.5 53t-11 30q-5 7 -13.5 13.5t-18.5 0.5q-8 -6 -12 -17t-2 -22q0 -3 1 -5.5t1 -5.5q4 -18 7.5 -35.5t4.5 -36.5q2 -35 18.5 -62.5t39.5 -51.5zM363 787
q-7 -1 -14 -3t-15 -1q-27 1 -51.5 11.5t-47.5 27.5q-17 14 -34.5 27.5t-34.5 27.5q37 49 88 28q8 -3 14.5 -10t12.5 -15q21 -20 41.5 -42t41.5 -44z" />
    <glyph glyph-name="Oacute" unicode="&#xd3;" horiz-adv-x="622" 
d="M338 684q7 -27 -2.5 -51t-19.5 -49h18q21 2 37.5 -6t30.5 -21q4 -5 6 -9q3 -11 9 -28.5t11.5 -49.5t8.5 -81.5t0 -123.5q16 -7 31 -4.5t29 9.5q23 11 44.5 21.5t43.5 24.5q26 17 34 4q5 -8 2.5 -17t-12.5 -14q-14 -8 -33.5 -17.5t-40 -17.5t-39.5 -14t-31 -7
q-17 -2 -24.5 -8.5t-11.5 -21.5q-9 -39 -26 -74t-40 -67q-12 -17 -24 -33t-26 -31q-9 -10 -19.5 -14t-23.5 -6q-9 -1 -36 -3.5t-61.5 4t-71 27.5t-64.5 66q-15 28 -21.5 58.5t-11.5 61.5q-8 52 0.5 101t24.5 97q17 51 36.5 99.5t49.5 93.5q11 17 24 32.5t26 31.5
q9 11 20.5 16t24.5 10q27 10 54.5 13t56.5 3q4 0 8 -1.5t9 -3.5zM240 441q-17 -36 -33 -77t-26.5 -89t-13 -103.5t6.5 -119.5q1 -5 4 -11t8 -8q14 -8 29.5 -10.5t30.5 4.5q17 8 30.5 20.5t21.5 29.5q10 16 18.5 45.5t15.5 59t10.5 52.5t3.5 26q-1 5 -2 11t-5 10
q-29 36 -52.5 75.5t-46.5 84.5zM351 328q2 0 4 0.5t4 0.5q0 9 -0.5 18t-1.5 18q-1 16 -4 44.5t-7.5 57.5t-9.5 53t-11 30q-5 7 -13.5 13.5t-18.5 0.5q-8 -6 -12 -17t-2 -22q0 -3 1 -5.5t1 -5.5q4 -18 7.5 -35.5t4.5 -36.5q2 -35 18.5 -62.5t39.5 -51.5zM269 786
q-5 10 -3.5 18.5t7.5 16.5q14 15 27.5 32.5t29.5 30.5q18 14 36.5 25.5t37.5 23.5q6 -3 12 -5.5t14 -6.5v-19t-1 -18q-2 -9 -5.5 -16.5t-14.5 -10.5q-4 0 -7 -3t-6 -7q-6 -5 -11 -10.5t-12 -11.5q-42 -35 -104 -39z" />
    <glyph glyph-name="Ocircumflex" unicode="&#xd4;" horiz-adv-x="622" 
d="M338 684q7 -27 -2.5 -51t-19.5 -49h18q21 2 37.5 -6t30.5 -21q4 -5 6 -9q3 -11 9 -28.5t11.5 -49.5t8.5 -81.5t0 -123.5q16 -7 31 -4.5t29 9.5q23 11 44.5 21.5t43.5 24.5q26 17 34 4q5 -8 2.5 -17t-12.5 -14q-14 -8 -33.5 -17.5t-40 -17.5t-39.5 -14t-31 -7
q-17 -2 -24.5 -8.5t-11.5 -21.5q-9 -39 -26 -74t-40 -67q-12 -17 -24 -33t-26 -31q-9 -10 -19.5 -14t-23.5 -6q-9 -1 -36 -3.5t-61.5 4t-71 27.5t-64.5 66q-15 28 -21.5 58.5t-11.5 61.5q-8 52 0.5 101t24.5 97q17 51 36.5 99.5t49.5 93.5q11 17 24 32.5t26 31.5
q9 11 20.5 16t24.5 10q27 10 54.5 13t56.5 3q4 0 8 -1.5t9 -3.5zM240 441q-17 -36 -33 -77t-26.5 -89t-13 -103.5t6.5 -119.5q1 -5 4 -11t8 -8q14 -8 29.5 -10.5t30.5 4.5q17 8 30.5 20.5t21.5 29.5q10 16 18.5 45.5t15.5 59t10.5 52.5t3.5 26q-1 5 -2 11t-5 10
q-29 36 -52.5 75.5t-46.5 84.5zM351 328q2 0 4 0.5t4 0.5q0 9 -0.5 18t-1.5 18q-1 16 -4 44.5t-7.5 57.5t-9.5 53t-11 30q-5 7 -13.5 13.5t-18.5 0.5q-8 -6 -12 -17t-2 -22q0 -3 1 -5.5t1 -5.5q4 -18 7.5 -35.5t4.5 -36.5q2 -35 18.5 -62.5t39.5 -51.5zM167 730q5 9 8 17.5
t8 14.5l54 62t55 63q7 8 15 8t16 -6q23 -15 46 -31t40 -43q3 -3 7 -5t6 -6q4 -5 8.5 -10.5t8 -11.5t4.5 -14t-2 -18q-2 -6 -1 -11.5t2.5 -12t0.5 -13.5t-5 -13q-18 0 -36 4.5t-35 16.5q-22 16 -44 31.5t-44 31.5q-12 5 -21 -7q-7 -8 -15.5 -14.5t-14.5 -15.5
q-9 -12 -27 -15.5t-34 -1.5z" />
    <glyph glyph-name="Otilde" unicode="&#xd5;" horiz-adv-x="622" 
d="M338 684q7 -27 -2.5 -51t-19.5 -49h18q21 2 37.5 -6t30.5 -21q4 -5 6 -9q3 -11 9 -28.5t11.5 -49.5t8.5 -81.5t0 -123.5q16 -7 31 -4.5t29 9.5q23 11 44.5 21.5t43.5 24.5q26 17 34 4q5 -8 2.5 -17t-12.5 -14q-14 -8 -33.5 -17.5t-40 -17.5t-39.5 -14t-31 -7
q-17 -2 -24.5 -8.5t-11.5 -21.5q-9 -39 -26 -74t-40 -67q-12 -17 -24 -33t-26 -31q-9 -10 -19.5 -14t-23.5 -6q-9 -1 -36 -3.5t-61.5 4t-71 27.5t-64.5 66q-15 28 -21.5 58.5t-11.5 61.5q-8 52 0.5 101t24.5 97q17 51 36.5 99.5t49.5 93.5q11 17 24 32.5t26 31.5
q9 11 20.5 16t24.5 10q27 10 54.5 13t56.5 3q4 0 8 -1.5t9 -3.5zM240 441q-17 -36 -33 -77t-26.5 -89t-13 -103.5t6.5 -119.5q1 -5 4 -11t8 -8q14 -8 29.5 -10.5t30.5 4.5q17 8 30.5 20.5t21.5 29.5q10 16 18.5 45.5t15.5 59t10.5 52.5t3.5 26q-1 5 -2 11t-5 10
q-29 36 -52.5 75.5t-46.5 84.5zM351 328q2 0 4 0.5t4 0.5q0 9 -0.5 18t-1.5 18q-1 16 -4 44.5t-7.5 57.5t-9.5 53t-11 30q-5 7 -13.5 13.5t-18.5 0.5q-8 -6 -12 -17t-2 -22q0 -3 1 -5.5t1 -5.5q4 -18 7.5 -35.5t4.5 -36.5q2 -35 18.5 -62.5t39.5 -51.5zM366 777q6 5 16.5 18
l21 26t23 25t33.5 23q11 -4 15.5 -11t2.5 -19q-3 -11 -5 -21.5t-6 -21.5q-1 -6 -3.5 -12.5t-4.5 -11.5q-16 -49 -72 -47q-23 1 -41 10.5t-33 24.5q-10 9 -18.5 19t-17.5 19q-3 3 -6.5 5.5t-3.5 1.5q-7 -7 -19 -18.5t-26 -22.5q-17 -14 -40.5 -31.5t-30 21t25.5 69.5
q23 20 48 25.5t53 2.5q26 -3 43 -24q6 -7 11 -15t11 -15q6 -6 13 -12t10 -8z" />
    <glyph glyph-name="Ugrave" unicode="&#xd9;" horiz-adv-x="443" 
d="M431 383q2 -11 4.5 -43t4 -69t2.5 -71.5t0 -50.5q-1 -22 -7.5 -43.5t-14.5 -43.5q-3 -8 -13 -24.5t-28 -33t-43.5 -29t-57.5 -12.5q-57 2 -105 22.5t-81 67.5q-19 27 -31.5 58t-23.5 62q-10 30 -14 61.5t-11 62.5q-6 32 -9 64.5t-1 64.5q0 6 -0.5 27t-0.5 44.5t-0.5 43.5
t-0.5 25q1 32 3 64.5t10 64.5q28 4 52.5 -3t47.5 -20q12 -6 18.5 -17.5t8.5 -25.5q5 -11 13 -24t16 -25.5t13.5 -24t6.5 -20.5q1 -10 4 -38.5t6 -61.5t4.5 -63t0.5 -42q-1 -5 -1 -20t0.5 -34.5t1.5 -41t1.5 -41t2 -33.5t2.5 -18t6 -17t13 -28t18 -27t22 -13q17 1 28 25.5
t17.5 56t9 60.5t2.5 38q1 11 2 33.5t2.5 50t3 58t2.5 57t2 46.5t1 27q1 17 2.5 32.5t3.5 32.5q3 25 27 29q12 2 19 -1.5t12 -17.5q6 -24 6 -49q0 -11 3 -33.5t6.5 -46t6.5 -44t5 -28.5zM321 683q-7 -1 -14 -3t-15 -1q-27 1 -51.5 11.5t-47.5 27.5q-17 14 -34.5 27.5
t-34.5 27.5q37 49 88 28q8 -3 14.5 -10t12.5 -15q21 -20 41.5 -42t41.5 -44z" />
    <glyph glyph-name="Uacute" unicode="&#xda;" horiz-adv-x="443" 
d="M431 383q2 -11 4.5 -43t4 -69t2.5 -71.5t0 -50.5q-1 -22 -7.5 -43.5t-14.5 -43.5q-3 -8 -13 -24.5t-28 -33t-43.5 -29t-57.5 -12.5q-57 2 -105 22.5t-81 67.5q-19 27 -31.5 58t-23.5 62q-10 30 -14 61.5t-11 62.5q-6 32 -9 64.5t-1 64.5q0 6 -0.5 27t-0.5 44.5t-0.5 43.5
t-0.5 25q1 32 3 64.5t10 64.5q28 4 52.5 -3t47.5 -20q12 -6 18.5 -17.5t8.5 -25.5q5 -11 13 -24t16 -25.5t13.5 -24t6.5 -20.5q1 -10 4 -38.5t6 -61.5t4.5 -63t0.5 -42q-1 -5 -1 -20t0.5 -34.5t1.5 -41t1.5 -41t2 -33.5t2.5 -18t6 -17t13 -28t18 -27t22 -13q17 1 28 25.5
t17.5 56t9 60.5t2.5 38q1 11 2 33.5t2.5 50t3 58t2.5 57t2 46.5t1 27q1 17 2.5 32.5t3.5 32.5q3 25 27 29q12 2 19 -1.5t12 -17.5q6 -24 6 -49q0 -11 3 -33.5t6.5 -46t6.5 -44t5 -28.5zM219 681q-5 10 -3.5 18.5t7.5 16.5q14 15 27.5 32.5t29.5 30.5q18 14 36.5 25.5
t37.5 23.5q6 -3 12 -5.5t14 -6.5v-19t-1 -18q-2 -9 -5.5 -16.5t-14.5 -10.5q-4 0 -7 -3t-6 -7q-6 -5 -11 -10.5t-12 -11.5q-42 -35 -104 -39z" />
    <glyph glyph-name="Yacute" unicode="&#xdd;" horiz-adv-x="436" 
d="M29 706q7 16 22 14q8 -1 15 -2t13 -3q14 -5 24.5 -13.5t18.5 -22.5q6 -12 10.5 -19t7.5 -13.5t4.5 -14.5t3.5 -20q4 -38 7.5 -75t8.5 -75q1 -11 2.5 -22t3.5 -22q2 -10 11 -13t17 4q11 10 17.5 21.5t12.5 23.5q5 14 10 27t8 27q4 18 9 45.5t10.5 54.5t11 48.5t10.5 26.5
q15 2 30 4.5t29 5.5q10 2 21 -4t16 -16q8 -18 16 -35.5t16 -36.5q4 -8 5.5 -16.5t3.5 -16.5l4 -18t4 -19q1 -4 2.5 -8t1.5 -8q-1 -34 -2 -67.5t-1 -66.5q0 -38 1 -75t2 -75q0 -14 -3 -43t-8.5 -65t-13 -75.5t-17.5 -74.5q-3 -11 -10.5 -18t-16.5 -10.5t-19.5 -2.5t-19.5 8
q-54 41 -56 109q-1 39 -0.5 78t-0.5 78q-1 35 -2.5 69t-3.5 68q0 5 -2 9t-4 9q-3 -2 -5.5 -4t-4.5 -4q-12 -23 -32 -30t-42 -10q-18 -3 -32 4q-58 23 -92 81q-25 43 -38.5 88t-11.5 94q2 28 6 55.5t18 52.5q2 3 4 9zM170 738q-5 10 -3.5 18.5t7.5 16.5q14 15 27.5 32.5
t29.5 30.5q18 14 36.5 25.5t37.5 23.5q6 -3 12 -5.5t14 -6.5v-19t-1 -18q-2 -9 -5.5 -16.5t-14.5 -10.5q-4 0 -7 -3t-6 -7q-6 -5 -11 -10.5t-12 -11.5q-42 -35 -104 -39z" />
    <glyph glyph-name="agrave" unicode="&#xe0;" horiz-adv-x="513" 
d="M343 467q-1 -8 -0.5 -13.5t-1.5 -10.5q-14 -46 -14 -92t-2 -93q0 -17 -1.5 -47t-0.5 -62t5 -61t13 -45q20 -25 44 -4q55 49 77 117q6 20 12.5 40.5t13.5 40.5q10 0 17 -3t7 -11q1 -8 -1.5 -18.5t-1.5 -19.5q-5 -13 -9 -27t-9 -28q-8 -19 -16 -36t-22 -37q-14 -16 -23 -25
t-25 -14q-32 -11 -57 -9.5t-54 20.5q-16 8 -35.5 33.5t-31.5 73.5q-8 -8 -22 -21t-30 -23q-22 -18 -48.5 -20.5t-50.5 7t-42.5 29.5t-25.5 48q-2 8 -5 27.5t-3 27.5q1 57 23.5 105t56.5 93q16 20 30.5 40t29.5 40q7 10 15.5 14.5t22.5 1.5q24 -5 48.5 -8.5t48.5 -8.5
q17 -4 33.5 -10t34.5 -11zM277 421q-37 -21 -61 -55q-4 -5 -14 -23.5t-23 -44t-27.5 -54.5t-26.5 -55t-20 -44.5t-9 -23.5t-0.5 -13.5t4.5 -13.5q2 -3 10.5 -3t13.5 3q12 8 24 18t20 22q28 42 50 85.5t32 94.5q5 26 12 52t15 55zM353 512q-7 -1 -14 -3t-15 -1
q-27 1 -51.5 11.5t-47.5 27.5q-17 14 -34.5 27.5t-34.5 27.5q37 49 88 28q8 -3 14.5 -10t12.5 -15q21 -20 41.5 -42t41.5 -44z" />
    <glyph glyph-name="aacute" unicode="&#xe1;" horiz-adv-x="513" 
d="M343 467q-1 -8 -0.5 -13.5t-1.5 -10.5q-14 -46 -14 -92t-2 -93q0 -17 -1.5 -47t-0.5 -62t5 -61t13 -45q20 -25 44 -4q55 49 77 117q6 20 12.5 40.5t13.5 40.5q10 0 17 -3t7 -11q1 -8 -1.5 -18.5t-1.5 -19.5q-5 -13 -9 -27t-9 -28q-8 -19 -16 -36t-22 -37q-14 -16 -23 -25
t-25 -14q-32 -11 -57 -9.5t-54 20.5q-16 8 -35.5 33.5t-31.5 73.5q-8 -8 -22 -21t-30 -23q-22 -18 -48.5 -20.5t-50.5 7t-42.5 29.5t-25.5 48q-2 8 -5 27.5t-3 27.5q1 57 23.5 105t56.5 93q16 20 30.5 40t29.5 40q7 10 15.5 14.5t22.5 1.5q24 -5 48.5 -8.5t48.5 -8.5
q17 -4 33.5 -10t34.5 -11zM277 421q-37 -21 -61 -55q-4 -5 -14 -23.5t-23 -44t-27.5 -54.5t-26.5 -55t-20 -44.5t-9 -23.5t-0.5 -13.5t4.5 -13.5q2 -3 10.5 -3t13.5 3q12 8 24 18t20 22q28 42 50 85.5t32 94.5q5 26 12 52t15 55zM214 530q-5 10 -3.5 18.5t7.5 16.5
q14 15 27.5 32.5t29.5 30.5q18 14 36.5 25.5t37.5 23.5q6 -3 12 -5.5t14 -6.5v-19t-1 -18q-2 -9 -5.5 -16.5t-14.5 -10.5q-4 0 -7 -3t-6 -7q-6 -5 -11 -10.5t-12 -11.5q-42 -35 -104 -39z" />
    <glyph glyph-name="acircumflex" unicode="&#xe2;" horiz-adv-x="513" 
d="M343 467q-1 -8 -0.5 -13.5t-1.5 -10.5q-14 -46 -14 -92t-2 -93q0 -17 -1.5 -47t-0.5 -62t5 -61t13 -45q20 -25 44 -4q55 49 77 117q6 20 12.5 40.5t13.5 40.5q10 0 17 -3t7 -11q1 -8 -1.5 -18.5t-1.5 -19.5q-5 -13 -9 -27t-9 -28q-8 -19 -16 -36t-22 -37q-14 -16 -23 -25
t-25 -14q-32 -11 -57 -9.5t-54 20.5q-16 8 -35.5 33.5t-31.5 73.5q-8 -8 -22 -21t-30 -23q-22 -18 -48.5 -20.5t-50.5 7t-42.5 29.5t-25.5 48q-2 8 -5 27.5t-3 27.5q1 57 23.5 105t56.5 93q16 20 30.5 40t29.5 40q7 10 15.5 14.5t22.5 1.5q24 -5 48.5 -8.5t48.5 -8.5
q17 -4 33.5 -10t34.5 -11zM277 421q-37 -21 -61 -55q-4 -5 -14 -23.5t-23 -44t-27.5 -54.5t-26.5 -55t-20 -44.5t-9 -23.5t-0.5 -13.5t4.5 -13.5q2 -3 10.5 -3t13.5 3q12 8 24 18t20 22q28 42 50 85.5t32 94.5q5 26 12 52t15 55zM118 538q5 9 8 17.5t8 14.5l54 62t55 63
q7 8 15 8t16 -6q23 -15 46 -31t40 -43q3 -3 7 -5t6 -6q4 -5 8.5 -10.5t8 -11.5t4.5 -14t-2 -18q-2 -6 -1 -11.5t2.5 -12t0.5 -13.5t-5 -13q-18 0 -36 4.5t-35 16.5q-22 16 -44 31.5t-44 31.5q-12 5 -21 -7q-7 -8 -15.5 -14.5t-14.5 -15.5q-9 -12 -27 -15.5t-34 -1.5z" />
    <glyph glyph-name="atilde" unicode="&#xe3;" horiz-adv-x="513" 
d="M343 467q-1 -8 -0.5 -13.5t-1.5 -10.5q-14 -46 -14 -92t-2 -93q0 -17 -1.5 -47t-0.5 -62t5 -61t13 -45q20 -25 44 -4q55 49 77 117q6 20 12.5 40.5t13.5 40.5q10 0 17 -3t7 -11q1 -8 -1.5 -18.5t-1.5 -19.5q-5 -13 -9 -27t-9 -28q-8 -19 -16 -36t-22 -37q-14 -16 -23 -25
t-25 -14q-32 -11 -57 -9.5t-54 20.5q-16 8 -35.5 33.5t-31.5 73.5q-8 -8 -22 -21t-30 -23q-22 -18 -48.5 -20.5t-50.5 7t-42.5 29.5t-25.5 48q-2 8 -5 27.5t-3 27.5q1 57 23.5 105t56.5 93q16 20 30.5 40t29.5 40q7 10 15.5 14.5t22.5 1.5q24 -5 48.5 -8.5t48.5 -8.5
q17 -4 33.5 -10t34.5 -11zM277 421q-37 -21 -61 -55q-4 -5 -14 -23.5t-23 -44t-27.5 -54.5t-26.5 -55t-20 -44.5t-9 -23.5t-0.5 -13.5t4.5 -13.5q2 -3 10.5 -3t13.5 3q12 8 24 18t20 22q28 42 50 85.5t32 94.5q5 26 12 52t15 55zM327 560q6 5 16.5 18l21 26t23 25t33.5 23
q11 -4 15.5 -11t2.5 -19q-3 -11 -5 -21.5t-6 -21.5q-1 -6 -3.5 -12.5t-4.5 -11.5q-16 -49 -72 -47q-23 1 -41 10.5t-33 24.5q-10 9 -18.5 19t-17.5 19q-3 3 -6.5 5.5t-3.5 1.5q-7 -7 -19 -18.5t-26 -22.5q-17 -14 -40.5 -31.5t-30 21t25.5 69.5q23 20 48 25.5t53 2.5
q26 -3 43 -24q6 -7 11 -15t11 -15q6 -6 13 -12t10 -8z" />
    <glyph glyph-name="egrave" unicode="&#xe8;" horiz-adv-x="412" 
d="M408 247q6 -17 2.5 -29.5t-11.5 -23.5q-30 -46 -69 -83t-81 -71q-20 -16 -43.5 -21t-47.5 -6q-52 -1 -85 26.5t-52 72.5q-20 48 -20.5 95.5t22.5 95.5q17 37 36 73.5t39 71.5q10 17 24.5 32t40.5 26q29 7 54.5 7t35.5 -2q12 -3 20.5 -9.5t11.5 -19.5q2 -8 9 -13.5
t12 -13.5q12 -23 9.5 -44t-11.5 -41q-2 -6 -12.5 -26t-30 -43t-48 -43t-67.5 -26q-3 0 -9 -2q-14 -23 -22.5 -47.5t-13.5 -50.5q-6 -44 13.5 -65t62.5 -15q14 2 28.5 6.5t25.5 12.5q37 26 72 53t64 62q8 11 14.5 23t14.5 23zM136 255q26 6 43 16t33 21q43 31 55 70.5t2 89.5
q-4 19 -23 17q-23 -36 -37 -62t-23 -44t-14.5 -29.5t-9.5 -18.5q-8 -20 -14.5 -30.5t-11.5 -29.5zM316 549q-7 -1 -14 -3t-15 -1q-27 1 -51.5 11.5t-47.5 27.5q-17 14 -34.5 27.5t-34.5 27.5q37 49 88 28q8 -3 14.5 -10t12.5 -15q21 -20 41.5 -42t41.5 -44z" />
    <glyph glyph-name="eacute" unicode="&#xe9;" horiz-adv-x="412" 
d="M408 247q6 -17 2.5 -29.5t-11.5 -23.5q-30 -46 -69 -83t-81 -71q-20 -16 -43.5 -21t-47.5 -6q-52 -1 -85 26.5t-52 72.5q-20 48 -20.5 95.5t22.5 95.5q17 37 36 73.5t39 71.5q10 17 24.5 32t40.5 26q29 7 54.5 7t35.5 -2q12 -3 20.5 -9.5t11.5 -19.5q2 -8 9 -13.5
t12 -13.5q12 -23 9.5 -44t-11.5 -41q-2 -6 -12.5 -26t-30 -43t-48 -43t-67.5 -26q-3 0 -9 -2q-14 -23 -22.5 -47.5t-13.5 -50.5q-6 -44 13.5 -65t62.5 -15q14 2 28.5 6.5t25.5 12.5q37 26 72 53t64 62q8 11 14.5 23t14.5 23zM136 255q26 6 43 16t33 21q43 31 55 70.5t2 89.5
q-4 19 -23 17q-23 -36 -37 -62t-23 -44t-14.5 -29.5t-9.5 -18.5q-8 -20 -14.5 -30.5t-11.5 -29.5zM168 537q-5 10 -3.5 18.5t7.5 16.5q14 15 27.5 32.5t29.5 30.5q18 14 36.5 25.5t37.5 23.5q6 -3 12 -5.5t14 -6.5v-19t-1 -18q-2 -9 -5.5 -16.5t-14.5 -10.5q-4 0 -7 -3
t-6 -7q-6 -5 -11 -10.5t-12 -11.5q-42 -35 -104 -39z" />
    <glyph glyph-name="ecircumflex" unicode="&#xea;" horiz-adv-x="412" 
d="M408 247q6 -17 2.5 -29.5t-11.5 -23.5q-30 -46 -69 -83t-81 -71q-20 -16 -43.5 -21t-47.5 -6q-52 -1 -85 26.5t-52 72.5q-20 48 -20.5 95.5t22.5 95.5q17 37 36 73.5t39 71.5q10 17 24.5 32t40.5 26q29 7 54.5 7t35.5 -2q12 -3 20.5 -9.5t11.5 -19.5q2 -8 9 -13.5
t12 -13.5q12 -23 9.5 -44t-11.5 -41q-2 -6 -12.5 -26t-30 -43t-48 -43t-67.5 -26q-3 0 -9 -2q-14 -23 -22.5 -47.5t-13.5 -50.5q-6 -44 13.5 -65t62.5 -15q14 2 28.5 6.5t25.5 12.5q37 26 72 53t64 62q8 11 14.5 23t14.5 23zM136 255q26 6 43 16t33 21q43 31 55 70.5t2 89.5
q-4 19 -23 17q-23 -36 -37 -62t-23 -44t-14.5 -29.5t-9.5 -18.5q-8 -20 -14.5 -30.5t-11.5 -29.5zM68 559q5 9 8 17.5t8 14.5l54 62t55 63q7 8 15 8t16 -6q23 -15 46 -31t40 -43q3 -3 7 -5t6 -6q4 -5 8.5 -10.5t8 -11.5t4.5 -14t-2 -18q-2 -6 -1 -11.5t2.5 -12t0.5 -13.5
t-5 -13q-18 0 -36 4.5t-35 16.5q-22 16 -44 31.5t-44 31.5q-12 5 -21 -7q-7 -8 -15.5 -14.5t-14.5 -15.5q-9 -12 -27 -15.5t-34 -1.5z" />
    <glyph glyph-name="igrave" unicode="&#xec;" horiz-adv-x="330" 
d="M123 472q14 2 23 2.5t15 -2.5t10.5 -9.5t10.5 -17.5q7 -14 11 -28t2 -31q-2 -21 -9 -55t-16 -72.5t-19 -78t-17.5 -72.5t-10.5 -56t2 -27q8 -5 11.5 -4.5t7.5 2.5q14 10 33.5 33.5t39.5 51.5t38 54.5t29 42.5q7 10 15.5 18.5t16.5 17.5q9 -2 12 -6t-2 -11
q-32 -42 -58 -88.5t-63 -84.5q-9 -9 -17.5 -18.5t-17.5 -18.5q-10 -10 -29.5 -14.5t-40.5 -3.5t-40.5 6t-29.5 15q-23 22 -27 57q-5 54 2 104t23 101q9 29 15 59t14 59q3 10 8 23t13 25t19 20t26 7zM218 512q-7 -1 -14 -3t-15 -1q-27 1 -51.5 11.5t-47.5 27.5
q-17 14 -34.5 27.5t-34.5 27.5q37 49 88 28q8 -3 14.5 -10t12.5 -15q21 -20 41.5 -42t41.5 -44z" />
    <glyph glyph-name="iacute" unicode="&#xed;" horiz-adv-x="330" 
d="M123 472q14 2 23 2.5t15 -2.5t10.5 -9.5t10.5 -17.5q7 -14 11 -28t2 -31q-2 -21 -9 -55t-16 -72.5t-19 -78t-17.5 -72.5t-10.5 -56t2 -27q8 -5 11.5 -4.5t7.5 2.5q14 10 33.5 33.5t39.5 51.5t38 54.5t29 42.5q7 10 15.5 18.5t16.5 17.5q9 -2 12 -6t-2 -11
q-32 -42 -58 -88.5t-63 -84.5q-9 -9 -17.5 -18.5t-17.5 -18.5q-10 -10 -29.5 -14.5t-40.5 -3.5t-40.5 6t-29.5 15q-23 22 -27 57q-5 54 2 104t23 101q9 29 15 59t14 59q3 10 8 23t13 25t19 20t26 7zM80 508q-5 10 -3.5 18.5t7.5 16.5q14 15 27.5 32.5t29.5 30.5
q18 14 36.5 25.5t37.5 23.5q6 -3 12 -5.5t14 -6.5v-19t-1 -18q-2 -9 -5.5 -16.5t-14.5 -10.5q-4 0 -7 -3t-6 -7q-6 -5 -11 -10.5t-12 -11.5q-42 -35 -104 -39z" />
    <glyph glyph-name="ograve" unicode="&#xf2;" horiz-adv-x="470" 
d="M199 446q11 2 20 3t18 3q30 4 50 -13.5t32 -38.5q3 -6 9.5 -22t12.5 -37.5t9 -46.5t0 -49q-2 -8 -4 -15t-4 -16q10 0 18 -1t16 1q15 5 30.5 10t29.5 11q5 2 9.5 4t9.5 2q4 0 7.5 -3t7.5 -5q0 -3 -7 -9t-17 -12t-21 -11.5t-18 -6.5q-15 -3 -31 -4t-35 -3q-1 -2 -7.5 -16
t-15.5 -31.5t-18 -34t-13 -22.5q-50 -71 -135 -61q-27 3 -51.5 15.5t-43.5 31t-32.5 42.5t-18.5 50q-5 21 -6 42.5t3 42.5q9 54 22 105.5t40 99.5q13 22 31 43q13 14 21 15t25 -7q18 -10 34.5 -22t22.5 -34zM289 214q-22 23 -43.5 46t-43.5 46q-5 -12 -10 -24.5t-10 -25.5
q-8 -21 -16.5 -42t-17.5 -42q-22 -52 5 -101q9 -17 20 -20.5t28 4.5q15 7 24 19t15 26q13 29 25 57t24 57zM228 434q-3 -17 -6 -32t-5 -31q-2 -14 -0.5 -29t10.5 -28q7 -9 12.5 -17.5t13.5 -16.5q8 -10 17.5 -18.5t19.5 -16.5q3 7 6 17.5t3.5 28t-2 43.5t-10.5 64
q-5 19 -20.5 28.5t-38.5 7.5zM273 540q-7 -1 -14 -3t-15 -1q-27 1 -51.5 11.5t-47.5 27.5q-17 14 -34.5 27.5t-34.5 27.5q37 49 88 28q8 -3 14.5 -10t12.5 -15q21 -20 41.5 -42t41.5 -44z" />
    <glyph glyph-name="oacute" unicode="&#xf3;" horiz-adv-x="470" 
d="M199 446q11 2 20 3t18 3q30 4 50 -13.5t32 -38.5q3 -6 9.5 -22t12.5 -37.5t9 -46.5t0 -49q-2 -8 -4 -15t-4 -16q10 0 18 -1t16 1q15 5 30.5 10t29.5 11q5 2 9.5 4t9.5 2q4 0 7.5 -3t7.5 -5q0 -3 -7 -9t-17 -12t-21 -11.5t-18 -6.5q-15 -3 -31 -4t-35 -3q-1 -2 -7.5 -16
t-15.5 -31.5t-18 -34t-13 -22.5q-50 -71 -135 -61q-27 3 -51.5 15.5t-43.5 31t-32.5 42.5t-18.5 50q-5 21 -6 42.5t3 42.5q9 54 22 105.5t40 99.5q13 22 31 43q13 14 21 15t25 -7q18 -10 34.5 -22t22.5 -34zM289 214q-22 23 -43.5 46t-43.5 46q-5 -12 -10 -24.5t-10 -25.5
q-8 -21 -16.5 -42t-17.5 -42q-22 -52 5 -101q9 -17 20 -20.5t28 4.5q15 7 24 19t15 26q13 29 25 57t24 57zM228 434q-3 -17 -6 -32t-5 -31q-2 -14 -0.5 -29t10.5 -28q7 -9 12.5 -17.5t13.5 -16.5q8 -10 17.5 -18.5t19.5 -16.5q3 7 6 17.5t3.5 28t-2 43.5t-10.5 64
q-5 19 -20.5 28.5t-38.5 7.5zM125 545q-5 10 -3.5 18.5t7.5 16.5q14 15 27.5 32.5t29.5 30.5q18 14 36.5 25.5t37.5 23.5q6 -3 12 -5.5t14 -6.5v-19t-1 -18q-2 -9 -5.5 -16.5t-14.5 -10.5q-4 0 -7 -3t-6 -7q-6 -5 -11 -10.5t-12 -11.5q-42 -35 -104 -39z" />
    <glyph glyph-name="ocircumflex" unicode="&#xf4;" horiz-adv-x="470" 
d="M199 446q11 2 20 3t18 3q30 4 50 -13.5t32 -38.5q3 -6 9.5 -22t12.5 -37.5t9 -46.5t0 -49q-2 -8 -4 -15t-4 -16q10 0 18 -1t16 1q15 5 30.5 10t29.5 11q5 2 9.5 4t9.5 2q4 0 7.5 -3t7.5 -5q0 -3 -7 -9t-17 -12t-21 -11.5t-18 -6.5q-15 -3 -31 -4t-35 -3q-1 -2 -7.5 -16
t-15.5 -31.5t-18 -34t-13 -22.5q-50 -71 -135 -61q-27 3 -51.5 15.5t-43.5 31t-32.5 42.5t-18.5 50q-5 21 -6 42.5t3 42.5q9 54 22 105.5t40 99.5q13 22 31 43q13 14 21 15t25 -7q18 -10 34.5 -22t22.5 -34zM289 214q-22 23 -43.5 46t-43.5 46q-5 -12 -10 -24.5t-10 -25.5
q-8 -21 -16.5 -42t-17.5 -42q-22 -52 5 -101q9 -17 20 -20.5t28 4.5q15 7 24 19t15 26q13 29 25 57t24 57zM228 434q-3 -17 -6 -32t-5 -31q-2 -14 -0.5 -29t10.5 -28q7 -9 12.5 -17.5t13.5 -16.5q8 -10 17.5 -18.5t19.5 -16.5q3 7 6 17.5t3.5 28t-2 43.5t-10.5 64
q-5 19 -20.5 28.5t-38.5 7.5zM75 538q5 9 8 17.5t8 14.5l54 62t55 63q7 8 15 8t16 -6q23 -15 46 -31t40 -43q3 -3 7 -5t6 -6q4 -5 8.5 -10.5t8 -11.5t4.5 -14t-2 -18q-2 -6 -1 -11.5t2.5 -12t0.5 -13.5t-5 -13q-18 0 -36 4.5t-35 16.5q-22 16 -44 31.5t-44 31.5
q-12 5 -21 -7q-7 -8 -15.5 -14.5t-14.5 -15.5q-9 -12 -27 -15.5t-34 -1.5z" />
    <glyph glyph-name="otilde" unicode="&#xf5;" horiz-adv-x="470" 
d="M199 446q11 2 20 3t18 3q30 4 50 -13.5t32 -38.5q3 -6 9.5 -22t12.5 -37.5t9 -46.5t0 -49q-2 -8 -4 -15t-4 -16q10 0 18 -1t16 1q15 5 30.5 10t29.5 11q5 2 9.5 4t9.5 2q4 0 7.5 -3t7.5 -5q0 -3 -7 -9t-17 -12t-21 -11.5t-18 -6.5q-15 -3 -31 -4t-35 -3q-1 -2 -7.5 -16
t-15.5 -31.5t-18 -34t-13 -22.5q-50 -71 -135 -61q-27 3 -51.5 15.5t-43.5 31t-32.5 42.5t-18.5 50q-5 21 -6 42.5t3 42.5q9 54 22 105.5t40 99.5q13 22 31 43q13 14 21 15t25 -7q18 -10 34.5 -22t22.5 -34zM289 214q-22 23 -43.5 46t-43.5 46q-5 -12 -10 -24.5t-10 -25.5
q-8 -21 -16.5 -42t-17.5 -42q-22 -52 5 -101q9 -17 20 -20.5t28 4.5q15 7 24 19t15 26q13 29 25 57t24 57zM228 434q-3 -17 -6 -32t-5 -31q-2 -14 -0.5 -29t10.5 -28q7 -9 12.5 -17.5t13.5 -16.5q8 -10 17.5 -18.5t19.5 -16.5q3 7 6 17.5t3.5 28t-2 43.5t-10.5 64
q-5 19 -20.5 28.5t-38.5 7.5zM257 584q6 5 16.5 18l21 26t23 25t33.5 23q11 -4 15.5 -11t2.5 -19q-3 -11 -5 -21.5t-6 -21.5q-1 -6 -3.5 -12.5t-4.5 -11.5q-16 -49 -72 -47q-23 1 -41 10.5t-33 24.5q-10 9 -18.5 19t-17.5 19q-3 3 -6.5 5.5t-3.5 1.5q-7 -7 -19 -18.5
t-26 -22.5q-17 -14 -40.5 -31.5t-30 21t25.5 69.5q23 20 48 25.5t53 2.5q26 -3 43 -24q6 -7 11 -15t11 -15q6 -6 13 -12t10 -8z" />
    <glyph glyph-name="ugrave" unicode="&#xf9;" horiz-adv-x="533" 
d="M377 74q8 -2 16 7.5t13 14.5q20 23 37.5 45t36.5 46q11 14 19 29t17 30q3 -2 9 -4t7 -11t-7.5 -29t-34.5 -57q-16 -20 -29 -40.5t-29 -40.5q-11 -13 -26 -18t-32 -1q-41 11 -56 36.5t-5 62.5q2 4 2 8.5t2 10.5q-4 7 -10 4.5t-13 -9t-14 -15t-11 -14.5q-5 -7 -11.5 -16
t-11.5 -17q-13 -16 -35.5 -31t-49 -25.5t-54.5 -13t-51 6.5q-41 20 -50 68q-8 42 -3.5 82t18.5 79q15 42 32 83t33 83q3 6 10.5 15.5t17.5 17.5t19 12t15 1q14 -8 28.5 -13.5t28.5 -13.5q12 -5 17 -16q3 -9 5.5 -23.5t4.5 -29.5t3 -27t1 -15q-4 -32 -14 -63t-23 -61
q-11 -29 -23 -57t-29 -54q-5 -7 -7.5 -14.5t-7.5 -17.5q22 5 36.5 15.5t25.5 24.5q21 27 40 54.5t39 56.5q12 16 30 43t35 53t30 47t15 26q7 17 25 16q9 -1 18 -0.5t18 -1.5t12.5 -8.5t1.5 -13.5q-4 -14 -11 -40t-15.5 -55t-16 -55t-11.5 -38q-8 -25 -14.5 -50.5
t-13.5 -50.5q-2 -3 -2.5 -9t3.5 -9zM373 477q-7 -1 -14 -3t-15 -1q-27 1 -51.5 11.5t-47.5 27.5q-17 14 -34.5 27.5t-34.5 27.5q37 49 88 28q8 -3 14.5 -10t12.5 -15q21 -20 41.5 -42t41.5 -44z" />
    <glyph glyph-name="uacute" unicode="&#xfa;" horiz-adv-x="533" 
d="M377 74q8 -2 16 7.5t13 14.5q20 23 37.5 45t36.5 46q11 14 19 29t17 30q3 -2 9 -4t7 -11t-7.5 -29t-34.5 -57q-16 -20 -29 -40.5t-29 -40.5q-11 -13 -26 -18t-32 -1q-41 11 -56 36.5t-5 62.5q2 4 2 8.5t2 10.5q-4 7 -10 4.5t-13 -9t-14 -15t-11 -14.5q-5 -7 -11.5 -16
t-11.5 -17q-13 -16 -35.5 -31t-49 -25.5t-54.5 -13t-51 6.5q-41 20 -50 68q-8 42 -3.5 82t18.5 79q15 42 32 83t33 83q3 6 10.5 15.5t17.5 17.5t19 12t15 1q14 -8 28.5 -13.5t28.5 -13.5q12 -5 17 -16q3 -9 5.5 -23.5t4.5 -29.5t3 -27t1 -15q-4 -32 -14 -63t-23 -61
q-11 -29 -23 -57t-29 -54q-5 -7 -7.5 -14.5t-7.5 -17.5q22 5 36.5 15.5t25.5 24.5q21 27 40 54.5t39 56.5q12 16 30 43t35 53t30 47t15 26q7 17 25 16q9 -1 18 -0.5t18 -1.5t12.5 -8.5t1.5 -13.5q-4 -14 -11 -40t-15.5 -55t-16 -55t-11.5 -38q-8 -25 -14.5 -50.5
t-13.5 -50.5q-2 -3 -2.5 -9t3.5 -9zM275 465q-5 10 -3.5 18.5t7.5 16.5q14 15 27.5 32.5t29.5 30.5q18 14 36.5 25.5t37.5 23.5q6 -3 12 -5.5t14 -6.5v-19t-1 -18q-2 -9 -5.5 -16.5t-14.5 -10.5q-4 0 -7 -3t-6 -7q-6 -5 -11 -10.5t-12 -11.5q-42 -35 -104 -39z" />
    <glyph glyph-name="yacute" unicode="&#xfd;" horiz-adv-x="686" 
d="M340 91q-14 -5 -26.5 -8.5t-24.5 -8.5q-5 -1 -9 -2t-8 -3q-36 -14 -77.5 -13.5t-79.5 15t-67 43.5t-38 73q-20 91 3 180q11 45 27 87t30 85q5 13 14 19t18 14q21 18 44 11q13 -3 25.5 -4t24.5 -6q18 -7 23 -16.5t3 -28.5q-2 -11 -2.5 -22.5t-3.5 -22.5q-2 -6 -5.5 -31.5
t-8 -60t-9 -74.5t-8.5 -76l-7 -63t-3 -36q-1 -11 1.5 -20t10.5 -17q14 1 25.5 8t22.5 15q34 22 55 44.5t33 43t18.5 37t11.5 26.5q13 26 26 52.5t27 52.5q3 5 11 9.5t17.5 7.5t19 4t15.5 -1q9 -5 15 -16q3 -7 4 -14.5t2 -15.5q1 -9 2.5 -23.5t3.5 -28.5t3 -25t1 -14
q-2 -26 -4 -53t-4 -57q19 13 36.5 23t33.5 22q22 18 47 28t52 15q14 3 18 -1t6 -11q0 -2 -3.5 -5.5t-8.5 -7l-10 -7t-7 -3.5q-8 -1 -24 -9.5t-33.5 -19.5t-34 -21.5t-23.5 -16.5q-16 -12 -30 -25.5t-28 -27.5q-2 -2 -3 -6l-2 -8l-16 -66l-16 -66q-4 -15 -6 -30.5t-7 -29.5
q-5 -15 -5.5 -30t-5.5 -29q-8 -26 -10 -52.5t-12 -52.5q-9 -26 -15 -52.5t-17 -51.5q-10 -20 -24.5 -38.5t-29.5 -35.5q-5 -5 -13 -6t-16 -1q-14 0 -27.5 0.5t-26.5 4.5q-20 6 -40.5 13.5t-39.5 17.5q-33 17 -44 38t-3 62q2 11 9 29t15.5 36t15.5 32.5t9 18.5q28 49 60 94.5
t74 83.5q22 19 36.5 39.5t12.5 51.5q0 9 1.5 18t2.5 17zM326 -63q-27 -26 -49 -55t-41 -61q-1 -2 -8.5 -16t-17.5 -32.5t-19 -38.5t-13 -33q-5 -14 -5.5 -29.5t-1.5 -30.5q-3 -22 15 -30q11 -5 19.5 -2t15.5 11q5 7 10.5 13t8.5 14q17 44 33 87t30 88q9 28 13 57t10 58z
M300 577q-5 10 -3.5 18.5t7.5 16.5q14 15 27.5 32.5t29.5 30.5q18 14 36.5 25.5t37.5 23.5q6 -3 12 -5.5t14 -6.5v-19t-1 -18q-2 -9 -5.5 -16.5t-14.5 -10.5q-4 0 -7 -3t-6 -7q-6 -5 -11 -10.5t-12 -11.5q-42 -35 -104 -39z" />
    <glyph glyph-name="Abreve" unicode="&#x102;" horiz-adv-x="667" 
d="M587 153q16 43 30.5 87t19.5 70q1 8 6 11.5t10.5 3t9.5 -5t3 -12.5v-1q-1 -9 -9 -37.5t-22 -64.5t-33 -74t-42 -66q-14 -23 -35 -25.5t-43.5 7t-43 27.5t-32.5 37q-25 38 -45.5 78.5t-35.5 84.5l-2 4t-3 5q-4 -2 -15 -6t-24.5 -8t-26.5 -7t-20 -3q-18 0 -27 -1t-13.5 -5
t-7 -13t-8.5 -25q-20 -45 -37 -76t-30.5 -51.5t-24 -32.5t-16.5 -20q-3 -4 -6.5 -7t-7.5 -6q-8 -7 -17 -4.5t-12 11.5q-3 8 -5.5 16.5t-4.5 16.5q-27 100 -9 201q14 76 28.5 151.5t30.5 150.5q8 36 18 71.5t20 70.5q1 4 5 12t9 15.5t9.5 13t7.5 5.5q7 1 14.5 0.5t14.5 -3.5
q35 -14 63 -35t43 -57q9 -20 16.5 -41.5t15.5 -42.5q11 -26 22 -52.5t22 -53.5q1 -2 7 -15.5t12.5 -28.5t12.5 -28t7 -14q4 -8 15 -32t26 -57t31.5 -68.5t31.5 -66.5t26.5 -51t17.5 -22q5 -2 13.5 8.5t17.5 24.5q11 16 22 36zM208 514q-2 -44 -3.5 -88t-3.5 -89
q0 -7 4.5 -12.5t12.5 -5.5q12 -2 24 -2.5t25 -2.5q11 -1 17 7.5t1 18.5q-11 22 -19 44.5l-16 45t-18 43.5t-24 41zM308 939q2 -13 -1 -29q-3 -13 -16.5 -30.5t-31 -35t-37 -32.5t-35.5 -22q-5 -3 -23.5 -5.5t-43.5 2t-50.5 20t-45.5 47.5q-10 24 24 56t48 4.5t28.5 -42
t28 -18.5t23.5 -4q16 -1 32.5 8.5t32.5 24t29 32t23 31.5q4 6 9 3.5t6 -10.5z" />
    <glyph glyph-name="abreve" unicode="&#x103;" horiz-adv-x="513" 
d="M343 467q-1 -8 -0.5 -13.5t-1.5 -10.5q-14 -46 -14 -92t-2 -93q0 -17 -1.5 -47t-0.5 -62t5 -61t13 -45q20 -25 44 -4q55 49 77 117q6 20 12.5 40.5t13.5 40.5q10 0 17 -3t7 -11q1 -8 -1.5 -18.5t-1.5 -19.5q-5 -13 -9 -27t-9 -28q-8 -19 -16 -36t-22 -37q-14 -16 -23 -25
t-25 -14q-32 -11 -57 -9.5t-54 20.5q-16 8 -35.5 33.5t-31.5 73.5q-8 -8 -22 -21t-30 -23q-22 -18 -48.5 -20.5t-50.5 7t-42.5 29.5t-25.5 48q-2 8 -5 27.5t-3 27.5q1 57 23.5 105t56.5 93q16 20 30.5 40t29.5 40q7 10 15.5 14.5t22.5 1.5q24 -5 48.5 -8.5t48.5 -8.5
q17 -4 33.5 -10t34.5 -11zM277 421q-37 -21 -61 -55q-4 -5 -14 -23.5t-23 -44t-27.5 -54.5t-26.5 -55t-20 -44.5t-9 -23.5t-0.5 -13.5t4.5 -13.5q2 -3 10.5 -3t13.5 3q12 8 24 18t20 22q28 42 50 85.5t32 94.5q5 26 12 52t15 55zM375 730q2 -13 -1 -29q-3 -13 -16.5 -30.5
t-31 -35t-37 -32.5t-35.5 -22q-5 -3 -23.5 -5.5t-43.5 2t-50.5 20t-45.5 47.5q-10 24 24 56t48 4.5t28.5 -42t28 -18.5t23.5 -4q16 -1 32.5 8.5t32.5 24t29 32t23 31.5q4 6 9 3.5t6 -10.5z" />
    <glyph glyph-name="Dcroat" unicode="&#x110;" horiz-adv-x="586" 
d="M318 174q-21 -18 -36 -36.5t-27 -38.5q-5 -8 -9 -18t-6 -20q-1 -9 1.5 -18t5.5 -17t9.5 -10t14.5 2q20 9 35 30t17 50q1 17 2 35.5t-7 40.5zM21 356q-1 18 -2 37q-2 45 -4.5 88t-5.5 88q-2 33 -4.5 66.5t-4.5 68.5q11 -1 21 0t20 -2q17 -6 33.5 -14t33.5 -16
q13 -6 18.5 -15t7 -18.5t2.5 -18t7 -13.5q3 2 6.5 3t6.5 3q35 23 72.5 27t76.5 -7q7 -2 13.5 -2.5t12.5 -3.5q24 -8 42.5 -30.5t31.5 -53t21 -65t11.5 -65t3 -53t-3.5 -29.5q18 4 44 5t49.5 -1.5t39.5 -8.5t15 -15q-1 -1 -13 -1.5t-14 -1.5q-18 -2 -35.5 -3t-35.5 -2
q-29 -2 -39.5 -14t-14.5 -41q-8 -57 -24 -99t-33.5 -71.5t-33 -47t-22.5 -23.5q-16 -14 -31.5 -15.5t-34.5 5.5q-18 6 -27.5 18t-14.5 30q-13 50 14 94q1 3 15.5 18.5t31 36t30 42.5t13.5 37q-2 57 -14.5 111.5t-26.5 108.5q-4 14 -7 29t-7 30q-2 6 -4 14t-5 15t-6.5 11.5
t-9.5 2.5q-18 -12 -30.5 -34t-20 -45t-10.5 -43.5t-3 -27.5q0 -9 1 -38q1 -25 2 -55q19 -2 39 -5q42 -8 83 -25v-7q-5 -2 -9 -4t-9 -3q-19 -3 -38 -5.5t-38 -7.5q-13 -4 -26 -6q1 -17 1 -33q1 -44 2.5 -81.5t2.5 -63.5t1 -29q2 -19 4 -37.5t4 -38.5q1 -21 -20 -32
q-18 -10 -36.5 -15.5t-39.5 -3.5q-20 2 -31.5 11.5t-13.5 29.5q-4 26 -6.5 52.5t-4.5 52.5q-5 47 -8 93q-4 42 -7 84q-2 0 -4 1q-3 1 -7 1q-42 0 -55 15.5t-5 58.5q34 1 67 2z" />
    <glyph glyph-name="dcroat" unicode="&#x111;" horiz-adv-x="687" 
d="M87 226q48 0 74.5 19t43 46.5t28.5 58.5t32 57q-29 17 -57 15.5t-52.5 -15.5t-44 -37t-29.5 -48.5t-9.5 -51t14.5 -44.5zM508 588q-11 -34 -22 -69q-2 -7 -10 -31t-20 -56.5t-26 -70t-27.5 -72.5t-25.5 -64t-19 -43q-22 -47 -32 -83t-12.5 -62t-0.5 -43t4 -25
q11 -37 45 -22q17 8 32.5 17t29.5 21q23 19 45.5 39.5t43.5 42.5q14 15 27 32t26 33q18 23 34 44.5t35 42.5q7 8 13 13.5t14 16.5q6 -7 11.5 -9.5t13.5 -10.5q-21 -29 -41.5 -59t-43.5 -58q-29 -33 -58 -65t-61 -62q-25 -24 -52.5 -44.5t-62.5 -28.5q-33 -8 -62.5 1
t-56.5 29q-34 26 -47 65q-11 36 -17 72t0 74q1 3 3.5 11t2.5 13q-6 -1 -12 -3.5t-11 -3.5q-20 -3 -41.5 0t-54.5 12q-39 11 -54 39.5t-17 63.5q-1 19 2.5 38t11.5 36q18 37 42.5 69t59.5 56q32 23 74 22q14 -1 27.5 -2.5t26.5 -9.5q9 -5 23.5 -5t19.5 9q22 41 39 82
q-2 1 -5 1q-42 0 -55 15.5t-5 58.5q44 1 88 3h8q7 19 15 38q7 17 15 33.5t16 32.5q2 5 6 8t9 6q5 4 10.5 7.5t10.5 6.5q17 -5 34.5 -9.5t35.5 -8.5q17 -5 22.5 -10t5.5 -22q-1 -21 -3 -42t-7 -41q-1 -5 -3 -10q41 -8 80 -24v-7q-5 -2 -9 -4t-9 -3q-19 -3 -38 -5.5t-38 -7.5
q-2 -4 -3 -8z" />
    <glyph glyph-name="Itilde" unicode="&#x128;" horiz-adv-x="285" 
d="M218 50q8 -7 17.5 -6.5t20.5 -1.5q20 -2 25.5 -11.5t-0.5 -32.5q-12 -1 -24 -2.5t-24 -1.5q-26 -1 -52.5 -0.5t-52.5 1.5q-6 0 -11.5 1.5t-10.5 3.5q-11 2 -22.5 3.5t-23.5 3.5q-14 2 -28.5 2.5t-31.5 1.5q0 13 6 19.5t15 9t19 3t18 1.5q-1 12 0.5 54t4 98.5t5.5 120
t6.5 119.5t7 97t6.5 53q2 5 2 9.5v6.5q-21 14 -41 26.5t-42 26.5q13 9 23.5 10t21.5 -2q38 -9 75 -18t75 -20q11 -3 20.5 -9.5t19.5 -12.5q3 -2 5.5 -7t0.5 -7q-4 -9 -13 -11q-10 -2 -19.5 -2h-19.5q1 -10 4 -45t5.5 -83.5t5.5 -103t5.5 -102.5t4.5 -83.5t2 -45.5
q0 -15 -1.5 -30t-3.5 -33zM206 740q6 5 16.5 18l21 26t23 25t33.5 23q11 -4 15.5 -11t2.5 -19q-3 -11 -5 -21.5t-6 -21.5q-1 -6 -3.5 -12.5t-4.5 -11.5q-16 -49 -72 -47q-23 1 -41 10.5t-33 24.5q-10 9 -18.5 19t-17.5 19q-3 3 -6.5 5.5t-3.5 1.5q-7 -7 -19 -18.5t-26 -22.5
q-17 -14 -40.5 -31.5t-30 21t25.5 69.5q23 20 48 25.5t53 2.5q26 -3 43 -24q6 -7 11 -15t11 -15q6 -6 13 -12t10 -8z" />
    <glyph glyph-name="itilde" unicode="&#x129;" horiz-adv-x="330" 
d="M123 472q14 2 23 2.5t15 -2.5t10.5 -9.5t10.5 -17.5q7 -14 11 -28t2 -31q-2 -21 -9 -55t-16 -72.5t-19 -78t-17.5 -72.5t-10.5 -56t2 -27q8 -5 11.5 -4.5t7.5 2.5q14 10 33.5 33.5t39.5 51.5t38 54.5t29 42.5q7 10 15.5 18.5t16.5 17.5q9 -2 12 -6t-2 -11
q-32 -42 -58 -88.5t-63 -84.5q-9 -9 -17.5 -18.5t-17.5 -18.5q-10 -10 -29.5 -14.5t-40.5 -3.5t-40.5 6t-29.5 15q-23 22 -27 57q-5 54 2 104t23 101q9 29 15 59t14 59q3 10 8 23t13 25t19 20t26 7zM224 560q6 5 16.5 18l21 26t23 25t33.5 23q11 -4 15.5 -11t2.5 -19
q-3 -11 -5 -21.5t-6 -21.5q-1 -6 -3.5 -12.5t-4.5 -11.5q-16 -49 -72 -47q-23 1 -41 10.5t-33 24.5q-10 9 -18.5 19t-17.5 19q-3 3 -6.5 5.5t-3.5 1.5q-7 -7 -19 -18.5t-26 -22.5q-17 -14 -40.5 -31.5t-30 21t25.5 69.5q23 20 48 25.5t53 2.5q26 -3 43 -24q6 -7 11 -15
t11 -15q6 -6 13 -12t10 -8z" />
    <glyph glyph-name="Utilde" unicode="&#x168;" horiz-adv-x="443" 
d="M431 383q2 -11 4.5 -43t4 -69t2.5 -71.5t0 -50.5q-1 -22 -7.5 -43.5t-14.5 -43.5q-3 -8 -13 -24.5t-28 -33t-43.5 -29t-57.5 -12.5q-57 2 -105 22.5t-81 67.5q-19 27 -31.5 58t-23.5 62q-10 30 -14 61.5t-11 62.5q-6 32 -9 64.5t-1 64.5q0 6 -0.5 27t-0.5 44.5t-0.5 43.5
t-0.5 25q1 32 3 64.5t10 64.5q28 4 52.5 -3t47.5 -20q12 -6 18.5 -17.5t8.5 -25.5q5 -11 13 -24t16 -25.5t13.5 -24t6.5 -20.5q1 -10 4 -38.5t6 -61.5t4.5 -63t0.5 -42q-1 -5 -1 -20t0.5 -34.5t1.5 -41t1.5 -41t2 -33.5t2.5 -18t6 -17t13 -28t18 -27t22 -13q17 1 28 25.5
t17.5 56t9 60.5t2.5 38q1 11 2 33.5t2.5 50t3 58t2.5 57t2 46.5t1 27q1 17 2.5 32.5t3.5 32.5q3 25 27 29q12 2 19 -1.5t12 -17.5q6 -24 6 -49q0 -11 3 -33.5t6.5 -46t6.5 -44t5 -28.5zM301 768q6 5 16.5 18l21 26t23 25t33.5 23q11 -4 15.5 -11t2.5 -19q-3 -11 -5 -21.5
t-6 -21.5q-1 -6 -3.5 -12.5t-4.5 -11.5q-16 -49 -72 -47q-23 1 -41 10.5t-33 24.5q-10 9 -18.5 19t-17.5 19q-3 3 -6.5 5.5t-3.5 1.5q-7 -7 -19 -18.5t-26 -22.5q-17 -14 -40.5 -31.5t-30 21t25.5 69.5q23 20 48 25.5t53 2.5q26 -3 43 -24q6 -7 11 -15t11 -15q6 -6 13 -12
t10 -8z" />
    <glyph glyph-name="utilde" unicode="&#x169;" horiz-adv-x="533" 
d="M377 74q8 -2 16 7.5t13 14.5q20 23 37.5 45t36.5 46q11 14 19 29t17 30q3 -2 9 -4t7 -11t-7.5 -29t-34.5 -57q-16 -20 -29 -40.5t-29 -40.5q-11 -13 -26 -18t-32 -1q-41 11 -56 36.5t-5 62.5q2 4 2 8.5t2 10.5q-4 7 -10 4.5t-13 -9t-14 -15t-11 -14.5q-5 -7 -11.5 -16
t-11.5 -17q-13 -16 -35.5 -31t-49 -25.5t-54.5 -13t-51 6.5q-41 20 -50 68q-8 42 -3.5 82t18.5 79q15 42 32 83t33 83q3 6 10.5 15.5t17.5 17.5t19 12t15 1q14 -8 28.5 -13.5t28.5 -13.5q12 -5 17 -16q3 -9 5.5 -23.5t4.5 -29.5t3 -27t1 -15q-4 -32 -14 -63t-23 -61
q-11 -29 -23 -57t-29 -54q-5 -7 -7.5 -14.5t-7.5 -17.5q22 5 36.5 15.5t25.5 24.5q21 27 40 54.5t39 56.5q12 16 30 43t35 53t30 47t15 26q7 17 25 16q9 -1 18 -0.5t18 -1.5t12.5 -8.5t1.5 -13.5q-4 -14 -11 -40t-15.5 -55t-16 -55t-11.5 -38q-8 -25 -14.5 -50.5
t-13.5 -50.5q-2 -3 -2.5 -9t3.5 -9zM375 539q6 5 16.5 18l21 26t23 25t33.5 23q11 -4 15.5 -11t2.5 -19q-3 -11 -5 -21.5t-6 -21.5q-1 -6 -3.5 -12.5t-4.5 -11.5q-16 -49 -72 -47q-23 1 -41 10.5t-33 24.5q-10 9 -18.5 19t-17.5 19q-3 3 -6.5 5.5t-3.5 1.5q-7 -7 -19 -18.5
t-26 -22.5q-17 -14 -40.5 -31.5t-30 21t25.5 69.5q23 20 48 25.5t53 2.5q26 -3 43 -24q6 -7 11 -15t11 -15q6 -6 13 -12t10 -8z" />
    <glyph glyph-name="Ohorn" unicode="&#x1a0;" horiz-adv-x="622" 
d="M240 441q-17 -36 -33 -77t-26.5 -89t-13 -103.5t6.5 -119.5q1 -5 4 -11t8 -8q14 -8 29.5 -10.5t30.5 4.5q17 8 30.5 20.5t21.5 29.5q10 16 18.5 45.5t15.5 59t10.5 52.5t3.5 26q-1 5 -2 11t-5 10q-29 36 -52.5 75.5t-46.5 84.5zM351 328q2 0 4 0.5t4 0.5q0 9 -0.5 18
t-1.5 18q-1 16 -4 44.5t-7.5 57.5t-9.5 53t-11 30q-5 7 -13.5 13.5t-18.5 0.5q-8 -6 -12 -17t-2 -22q0 -3 1 -5.5t1 -5.5q4 -18 7.5 -35.5t4.5 -36.5q2 -35 18.5 -62.5t39.5 -51.5zM415 525q1 -2 2 -5q6 -18 11.5 -50t8.5 -81.5t0 -123.5q16 -7 31 -4.5t29 9.5
q23 11 44.5 21.5t43.5 24.5q26 17 34 4q5 -8 2.5 -17t-12.5 -14q-14 -8 -33.5 -17.5t-40 -17.5t-39.5 -14t-31 -7q-17 -2 -24.5 -8.5t-11.5 -21.5q-9 -39 -26 -74t-40 -67q-12 -17 -24 -33t-26 -31q-9 -10 -19.5 -14t-23.5 -6q-9 -1 -36 -3.5t-61.5 4t-71 27.5t-64.5 66
q-15 28 -21.5 58.5t-11.5 61.5q-8 52 0.5 101t24.5 97q17 51 36.5 99.5t49.5 93.5q11 17 24 32.5t26 31.5q9 11 20.5 16t24.5 10q27 10 54.5 13t56.5 3q4 0 8 -1.5t9 -3.5q7 -27 -2.5 -51t-19.5 -49h18q20 2 36 -5l6 2q21 7 34 22t18 27q3 7 4.5 21t0.5 30t47 14.5t47.5 -29
t-12.5 -55.5q-10 -22 -25.5 -40t-40.5 -29q-13 -6 -23 -11q-5 -3 -11 -6z" />
    <glyph glyph-name="ohorn" unicode="&#x1a1;" horiz-adv-x="470" 
d="M289 214q-22 23 -43.5 46t-43.5 46q-5 -12 -10 -24.5t-10 -25.5q-8 -21 -16.5 -42t-17.5 -42q-22 -52 5 -101q9 -17 20 -20.5t28 4.5q15 7 24 19t15 26q13 29 25 57t24 57zM228 434q-3 -17 -6 -32t-5 -31q-2 -14 -0.5 -29t10.5 -28q7 -9 12.5 -17.5t13.5 -16.5
q8 -10 17.5 -18.5t19.5 -16.5q3 7 6 17.5t3.5 28t-2 43.5t-10.5 64q-5 19 -20.5 28.5t-38.5 7.5zM342 338q5 -20 8 -44q3 -25 0 -49q-2 -8 -4 -15t-4 -16q10 0 18 -1t16 1q15 5 30.5 10t29.5 11q5 2 9.5 4t9.5 2q4 0 7.5 -3t7.5 -5q0 -3 -7 -9t-17 -12t-21 -11.5t-18 -6.5
q-15 -3 -31 -4t-35 -3q-1 -2 -7.5 -16t-15.5 -31.5t-18 -34t-13 -22.5q-50 -71 -135 -61q-27 3 -51.5 15.5t-43.5 31t-32.5 42.5t-18.5 50q-5 21 -6 42.5t3 42.5q9 54 22 105.5t40 99.5q13 22 31 43q13 14 21 15t25 -7q18 -10 34.5 -22t22.5 -34q11 2 20 3t18 3q30 4 50 -13
q20 -18 32 -38q4 1 7 2q21 7 34 22t18 27q3 7 4.5 21t0.5 30t47 14.5t47.5 -29t-12.5 -55.5q-10 -22 -25.5 -40t-40.5 -29q-13 -6 -23.5 -11.5t-24.5 -10.5q-5 -2 -9 -4z" />
    <glyph glyph-name="Uhorn" unicode="&#x1af;" horiz-adv-x="443" 
d="M410 529q1 -10 3 -27q3 -23 6.5 -46.5t6.5 -44t5 -28.5q2 -11 4.5 -43t4 -69t2.5 -71.5t0 -50.5q-1 -22 -7.5 -43.5t-14.5 -43.5q-3 -8 -13 -24.5t-28 -33t-43.5 -29t-57.5 -12.5q-57 2 -105 22.5t-81 67.5q-19 27 -31.5 58t-23.5 62q-10 30 -14 61.5t-11 62.5
q-6 32 -9 64.5t-1 64.5q0 6 -0.5 27t-0.5 44.5t-0.5 43.5t-0.5 25q1 32 3 64.5t10 64.5q28 4 52.5 -3t47.5 -20q12 -6 18.5 -17.5t8.5 -25.5q5 -11 13 -24t16 -25.5t13.5 -24t6.5 -20.5q1 -10 4 -38.5t6 -61.5t4.5 -63t0.5 -42q-1 -5 -1 -20t0.5 -34.5t1.5 -41t1.5 -41
t2 -33.5t2.5 -18t6 -17t13 -28t18 -27t22 -13q17 1 28 25.5t17.5 56t9 60.5t2.5 38q1 11 2 33.5t2.5 50t3 58t2.5 57t2 46.5t1 27q1 17 2.5 32.5t3.5 32.5q3 25 27 29q12 2 19 -1q4 -2 7 -7q18 7 30 21q13 15 18 27q3 7 4.5 21t0.5 30t47 14.5t47.5 -29t-12.5 -55.5
q-10 -22 -25.5 -40t-40.5 -29q-13 -6 -23.5 -11.5t-24.5 -10.5z" />
    <glyph glyph-name="uhorn" unicode="&#x1b0;" horiz-adv-x="533" 
d="M447 341q-7 -26 -15.5 -55t-16 -55t-11.5 -38q-8 -25 -14.5 -50.5t-13.5 -50.5q-2 -3 -2.5 -9t3.5 -9q8 -2 16 7.5t13 14.5q20 23 37.5 45t36.5 46q11 14 19 29t17 30q3 -2 9 -4t7 -11t-7.5 -29t-34.5 -57q-16 -20 -29 -40.5t-29 -40.5q-11 -13 -26 -18t-32 -1
q-41 11 -56 36.5t-5 62.5q2 4 2 8.5t2 10.5q-4 7 -10 4.5t-13 -9t-14 -15t-11 -14.5q-5 -7 -11.5 -16t-11.5 -17q-13 -16 -35.5 -31t-49 -25.5t-54.5 -13t-51 6.5q-41 20 -50 68q-8 42 -3.5 82t18.5 79q15 42 32 83t33 83q3 6 10.5 15.5t17.5 17.5t19 12t15 1
q14 -8 28.5 -13.5t28.5 -13.5q12 -5 17 -16q3 -9 5.5 -23.5t4.5 -29.5t3 -27t1 -15q-4 -32 -14 -63t-23 -61q-11 -29 -23 -57t-29 -54q-5 -7 -7.5 -14.5t-7.5 -17.5q22 5 36.5 15.5t25.5 24.5q21 27 40 54.5t39 56.5q12 16 30 43t35 53t30 47t15 26q7 17 25 16q9 -1 18 0h1
q18 7 30 20q13 15 18 27q3 7 4.5 21t0.5 30t47 14.5t47.5 -29t-12.5 -55.5q-10 -22 -25.5 -40t-40.5 -29q-13 -6 -23.5 -11.5t-24.5 -10.5z" />
    <glyph glyph-name="circumflex" unicode="&#x2c6;" 
d="M93 559q5 9 8 17.5t8 14.5l54 62t55 63q7 8 15 8t16 -6q23 -15 46 -31t40 -43q3 -3 7 -5t6 -6q4 -5 8.5 -10.5t8 -11.5t4.5 -14t-2 -18q-2 -6 -1 -11.5t2.5 -12t0.5 -13.5t-5 -13q-18 0 -36 4.5t-35 16.5q-22 16 -44 31.5t-44 31.5q-12 5 -21 -7q-7 -8 -15.5 -14.5
t-14.5 -15.5q-9 -12 -27 -15.5t-34 -1.5z" />
    <glyph glyph-name="breve" unicode="&#x2d8;" 
d="M264 730q2 -13 -1 -29q-3 -13 -16.5 -30.5t-31 -35t-37 -32.5t-35.5 -22q-5 -3 -23.5 -5.5t-43.5 2t-50.5 20t-45.5 47.5q-10 24 24 56t48 4.5t28.5 -42t28 -18.5t23.5 -4q16 -1 32.5 8.5t32.5 24t29 32t23 31.5q4 6 9 3.5t6 -10.5z" />
    <glyph glyph-name="tilde" unicode="&#x2dc;" horiz-adv-x="781" 
d="M434 627q6 5 16.5 18l21 26t23 25t33.5 23q11 -4 15.5 -11t2.5 -19q-3 -11 -5 -21.5t-6 -21.5q-1 -6 -3.5 -12.5t-4.5 -11.5q-16 -49 -72 -47q-23 1 -41 10.5t-33 24.5q-10 9 -18.5 19t-17.5 19q-3 3 -6.5 5.5t-3.5 1.5q-7 -7 -19 -18.5t-26 -22.5q-17 -14 -40.5 -31.5
t-30 21t25.5 69.5q23 20 48 25.5t53 2.5q26 -3 43 -24q6 -7 11 -15t11 -15q6 -6 13 -12t10 -8z" />
    <glyph glyph-name="gravecomb" unicode="&#x300;" 
d="M-184 578q-7 -1 -14 -3t-15 -1q-27 1 -51.5 11.5t-47.5 27.5q-17 14 -34.5 27.5t-34.5 27.5q37 49 88 28q8 -3 14.5 -10t12.5 -15q21 -20 41.5 -42t41.5 -44z" />
    <glyph glyph-name="acutecomb" unicode="&#x301;" 
d="M-322 577q-5 10 -3.5 18.5t7.5 16.5q14 15 27.5 32.5t29.5 30.5q18 14 36.5 25.5t37.5 23.5q6 -3 12 -5.5t14 -6.5v-19t-1 -18q-2 -9 -5.5 -16.5t-14.5 -10.5q-4 0 -7 -3t-6 -7q-6 -5 -11 -10.5t-12 -11.5q-42 -35 -104 -39z" />
    <glyph glyph-name="tildecomb" unicode="&#x303;" 
d="M-134 627q6 5 16.5 18l21 26t23 25t33.5 23q11 -4 15.5 -11t2.5 -19q-3 -11 -5 -21.5t-6 -21.5q-1 -6 -3.5 -12.5t-4.5 -11.5q-16 -49 -72 -47q-23 1 -41 10.5t-33 24.5q-10 9 -18.5 19t-17.5 19q-3 3 -6.5 5.5t-3.5 1.5q-7 -7 -19 -18.5t-26 -22.5q-17 -14 -40.5 -31.5
t-30 21t25.5 69.5q23 20 48 25.5t53 2.5q26 -3 43 -24q6 -7 11 -15t11 -15q6 -6 13 -12t10 -8z" />
    <glyph glyph-name="hookabovecomb" unicode="&#x309;" horiz-adv-x="764" 
d="M357 563q-6 1 -11 4.5t-8.5 8t-5 10.5t-0.5 12q2 11 7.5 15t14 10.5t16.5 13.5q13 11 19 26q1 5 2 9.5t0 7.5q-4 13 -19 19h-4.5t-3.5 -3q-4 -3 -5 -5t0 -5q7 -17 2 -29.5t-22 -20.5q-12 -5 -23.5 -1t-16.5 17q-2 3 -2.5 5l-0.5 2q-3 12 -3 22t7 19q3 12 9 20.5t14 14.5
t17 9.5t17 6.5q3 3 11 2q9 -4 19 -6.5t19 -8.5q10 -6 18 -14t15 -17q7 -10 10 -21.5t-2 -24.5q-5 -15 -12 -28t-17 -25q-6 -7 -13 -12t-16 -8l-6 -4l-3 -2q-9 -24 -23 -19z" />
    <glyph glyph-name="uni031B" unicode="&#x31b;" 
d="M546.5 679.5q-0.5 -27.5 -12.5 -55.5q-10 -22 -25.5 -40t-40.5 -29q-13 -6 -23.5 -11.5t-25 -11t-34.5 -10.5t-14.5 31t12.5 37.5t12 3.5q21 7 34 22t18 27q3 7 4.5 21t0.5 30t47 14.5t47.5 -29z" />
    <glyph glyph-name="dotbelowcomb" unicode="&#x323;" 
d="M-215 -171q1 0 -4.5 1t-14 7t-18.5 19.5t-17 39.5q-4 14 0.5 26t15.5 20q20 14 41 22t44 15q19 5 30.5 -5t13.5 -30q0 -13 -0.5 -25.5t-1.5 -26.5q-2 -22 -18 -37l-2 -2q-5 -12 -10.5 -17.5t-13.5 -8t-18.5 -1.5t-26.5 3z" />
    <glyph glyph-name="uni1EA0" unicode="&#x1ea0;" horiz-adv-x="667" 
d="M587 153q16 43 30.5 87t19.5 70q1 8 6 11.5t10.5 3t9.5 -5t3 -12.5v-1q-1 -9 -9 -37.5t-22 -64.5t-33 -74t-42 -66q-14 -23 -35 -25.5t-43.5 7t-43 27.5t-32.5 37q-25 38 -45.5 78.5t-35.5 84.5l-2 4t-3 5q-4 -2 -15 -6t-24.5 -8t-26.5 -7t-20 -3q-18 0 -27 -1t-13.5 -5
t-7 -13t-8.5 -25q-20 -45 -37 -76t-30.5 -51.5t-24 -32.5t-16.5 -20q-3 -4 -6.5 -7t-7.5 -6q-8 -7 -17 -4.5t-12 11.5q-3 8 -5.5 16.5t-4.5 16.5q-27 100 -9 201q14 76 28.5 151.5t30.5 150.5q8 36 18 71.5t20 70.5q1 4 5 12t9 15.5t9.5 13t7.5 5.5q7 1 14.5 0.5t14.5 -3.5
q35 -14 63 -35t43 -57q9 -20 16.5 -41.5t15.5 -42.5q11 -26 22 -52.5t22 -53.5q1 -2 7 -15.5t12.5 -28.5t12.5 -28t7 -14q4 -8 15 -32t26 -57t31.5 -68.5t31.5 -66.5t26.5 -51t17.5 -22q5 -2 13.5 8.5t17.5 24.5q11 16 22 36zM208 514q-2 -44 -3.5 -88t-3.5 -89
q0 -7 4.5 -12.5t12.5 -5.5q12 -2 24 -2.5t25 -2.5q11 -1 17 7.5t1 18.5q-11 22 -19 44.5l-16 45t-18 43.5t-24 41zM259 -171q1 0 -4.5 1t-14 7t-18.5 19.5t-17 39.5q-4 14 0.5 26t15.5 20q20 14 41 22t44 15q19 5 30.5 -5t13.5 -30q0 -13 -0.5 -25.5t-1.5 -26.5
q-2 -22 -18 -37l-2 -2q-5 -12 -10.5 -17.5t-13.5 -8t-18.5 -1.5t-26.5 3z" />
    <glyph glyph-name="uni1EA1" unicode="&#x1ea1;" horiz-adv-x="513" 
d="M343 467q-1 -8 -0.5 -13.5t-1.5 -10.5q-14 -46 -14 -92t-2 -93q0 -17 -1.5 -47t-0.5 -62t5 -61t13 -45q20 -25 44 -4q55 49 77 117q6 20 12.5 40.5t13.5 40.5q10 0 17 -3t7 -11q1 -8 -1.5 -18.5t-1.5 -19.5q-5 -13 -9 -27t-9 -28q-8 -19 -16 -36t-22 -37q-14 -16 -23 -25
t-25 -14q-32 -11 -57 -9.5t-54 20.5q-16 8 -35.5 33.5t-31.5 73.5q-8 -8 -22 -21t-30 -23q-22 -18 -48.5 -20.5t-50.5 7t-42.5 29.5t-25.5 48q-2 8 -5 27.5t-3 27.5q1 57 23.5 105t56.5 93q16 20 30.5 40t29.5 40q7 10 15.5 14.5t22.5 1.5q24 -5 48.5 -8.5t48.5 -8.5
q17 -4 33.5 -10t34.5 -11zM277 421q-37 -21 -61 -55q-4 -5 -14 -23.5t-23 -44t-27.5 -54.5t-26.5 -55t-20 -44.5t-9 -23.5t-0.5 -13.5t4.5 -13.5q2 -3 10.5 -3t13.5 3q12 8 24 18t20 22q28 42 50 85.5t32 94.5q5 26 12 52t15 55zM96 -122q1 0 -4.5 1t-14 7t-18.5 19.5
t-17 39.5q-4 14 0.5 26t15.5 20q20 14 41 22t44 15q19 5 30.5 -5t13.5 -30q0 -13 -0.5 -25.5t-1.5 -26.5q-2 -22 -18 -37l-2 -2q-5 -12 -10.5 -17.5t-13.5 -8t-18.5 -1.5t-26.5 3z" />
    <glyph glyph-name="uni1EA2" unicode="&#x1ea2;" horiz-adv-x="667" 
d="M587 153q16 43 30.5 87t19.5 70q1 8 6 11.5t10.5 3t9.5 -5t3 -12.5v-1q-1 -9 -9 -37.5t-22 -64.5t-33 -74t-42 -66q-14 -23 -35 -25.5t-43.5 7t-43 27.5t-32.5 37q-25 38 -45.5 78.5t-35.5 84.5l-2 4t-3 5q-4 -2 -15 -6t-24.5 -8t-26.5 -7t-20 -3q-18 0 -27 -1t-13.5 -5
t-7 -13t-8.5 -25q-20 -45 -37 -76t-30.5 -51.5t-24 -32.5t-16.5 -20q-3 -4 -6.5 -7t-7.5 -6q-8 -7 -17 -4.5t-12 11.5q-3 8 -5.5 16.5t-4.5 16.5q-27 100 -9 201q14 76 28.5 151.5t30.5 150.5q8 36 18 71.5t20 70.5q1 4 5 12t9 15.5t9.5 13t7.5 5.5q7 1 14.5 0.5t14.5 -3.5
q35 -14 63 -35t43 -57q9 -20 16.5 -41.5t15.5 -42.5q11 -26 22 -52.5t22 -53.5q1 -2 7 -15.5t12.5 -28.5t12.5 -28t7 -14q4 -8 15 -32t26 -57t31.5 -68.5t31.5 -66.5t26.5 -51t17.5 -22q5 -2 13.5 8.5t17.5 24.5q11 16 22 36zM208 514q-2 -44 -3.5 -88t-3.5 -89
q0 -7 4.5 -12.5t12.5 -5.5q12 -2 24 -2.5t25 -2.5q11 -1 17 7.5t1 18.5q-11 22 -19 44.5l-16 45t-18 43.5t-24 41zM150 778q-6 1 -11 4.5t-8.5 8t-5 10.5t-0.5 12q2 11 7.5 15t14 10.5t16.5 13.5q13 11 19 26q1 5 2 9.5t0 7.5q-4 13 -19 19h-4.5t-3.5 -3q-4 -3 -5 -5t0 -5
q7 -17 2 -29.5t-22 -20.5q-12 -5 -23.5 -1t-16.5 17q-2 3 -2.5 5l-0.5 2q-3 12 -3 22t7 19q3 12 9 20.5t14 14.5t17 9.5t17 6.5q3 3 11 2q9 -4 19 -6.5t19 -8.5q10 -6 18 -14t15 -17q7 -10 10 -21.5t-2 -24.5q-5 -15 -12 -28t-17 -25q-6 -7 -13 -12t-16 -8l-6 -4l-3 -2
q-9 -24 -23 -19z" />
    <glyph glyph-name="uni1EA3" unicode="&#x1ea3;" horiz-adv-x="513" 
d="M343 467q-1 -8 -0.5 -13.5t-1.5 -10.5q-14 -46 -14 -92t-2 -93q0 -17 -1.5 -47t-0.5 -62t5 -61t13 -45q20 -25 44 -4q55 49 77 117q6 20 12.5 40.5t13.5 40.5q10 0 17 -3t7 -11q1 -8 -1.5 -18.5t-1.5 -19.5q-5 -13 -9 -27t-9 -28q-8 -19 -16 -36t-22 -37q-14 -16 -23 -25
t-25 -14q-32 -11 -57 -9.5t-54 20.5q-16 8 -35.5 33.5t-31.5 73.5q-8 -8 -22 -21t-30 -23q-22 -18 -48.5 -20.5t-50.5 7t-42.5 29.5t-25.5 48q-2 8 -5 27.5t-3 27.5q1 57 23.5 105t56.5 93q16 20 30.5 40t29.5 40q7 10 15.5 14.5t22.5 1.5q24 -5 48.5 -8.5t48.5 -8.5
q17 -4 33.5 -10t34.5 -11zM277 421q-37 -21 -61 -55q-4 -5 -14 -23.5t-23 -44t-27.5 -54.5t-26.5 -55t-20 -44.5t-9 -23.5t-0.5 -13.5t4.5 -13.5q2 -3 10.5 -3t13.5 3q12 8 24 18t20 22q28 42 50 85.5t32 94.5q5 26 12 52t15 55zM238 537q-6 1 -11 4.5t-8.5 8t-5 10.5
t-0.5 12q2 11 7.5 15t14 10.5t16.5 13.5q13 11 19 26q1 5 2 9.5t0 7.5q-4 13 -19 19h-4.5t-3.5 -3q-4 -3 -5 -5t0 -5q7 -17 2 -29.5t-22 -20.5q-12 -5 -23.5 -1t-16.5 17q-2 3 -2.5 5l-0.5 2q-3 12 -3 22t7 19q3 12 9 20.5t14 14.5t17 9.5t17 6.5q3 3 11 2q9 -4 19 -6.5
t19 -8.5q10 -6 18 -14t15 -17q7 -10 10 -21.5t-2 -24.5q-5 -15 -12 -28t-17 -25q-6 -7 -13 -12t-16 -8l-6 -4l-3 -2q-9 -24 -23 -19z" />
    <glyph glyph-name="uni1EA4" unicode="&#x1ea4;" horiz-adv-x="667" 
d="M587 153q16 43 30.5 87t19.5 70q1 8 6 11.5t10.5 3t9.5 -5t3 -12.5v-1q-1 -9 -9 -37.5t-22 -64.5t-33 -74t-42 -66q-14 -23 -35 -25.5t-43.5 7t-43 27.5t-32.5 37q-25 38 -45.5 78.5t-35.5 84.5l-2 4t-3 5q-4 -2 -15 -6t-24.5 -8t-26.5 -7t-20 -3q-18 0 -27 -1t-13.5 -5
t-7 -13t-8.5 -25q-20 -45 -37 -76t-30.5 -51.5t-24 -32.5t-16.5 -20q-3 -4 -6.5 -7t-7.5 -6q-8 -7 -17 -4.5t-12 11.5q-3 8 -5.5 16.5t-4.5 16.5q-27 100 -9 201q14 76 28.5 151.5t30.5 150.5q8 36 18 71.5t20 70.5q1 4 5 12t9 15.5t9.5 13t7.5 5.5q7 1 14.5 0.5t14.5 -3.5
q35 -14 63 -35t43 -57q9 -20 16.5 -41.5t15.5 -42.5q11 -26 22 -52.5t22 -53.5q1 -2 7 -15.5t12.5 -28.5t12.5 -28t7 -14q4 -8 15 -32t26 -57t31.5 -68.5t31.5 -66.5t26.5 -51t17.5 -22q5 -2 13.5 8.5t17.5 24.5q11 16 22 36zM208 514q-2 -44 -3.5 -88t-3.5 -89
q0 -7 4.5 -12.5t12.5 -5.5q12 -2 24 -2.5t25 -2.5q11 -1 17 7.5t1 18.5q-11 22 -19 44.5l-16 45t-18 43.5t-24 41zM42 769q5 9 8 17.5t8 14.5l54 62t55 63q7 8 15 8t16 -6q23 -15 46 -31t40 -43q3 -3 7 -5t6 -6q4 -5 8.5 -10.5t8 -11.5t4.5 -14t-2 -18q-2 -6 -1 -11.5
t2.5 -12t0.5 -13.5t-5 -13q-18 0 -36 4.5t-35 16.5q-22 16 -44 31.5t-44 31.5q-12 5 -21 -7q-7 -8 -15.5 -14.5t-14.5 -15.5q-9 -12 -27 -15.5t-34 -1.5zM318 865q-5 10 -3.5 18.5t7.5 16.5q14 15 27.5 32.5t29.5 30.5q18 14 36.5 25.5t37.5 23.5q6 -3 12 -5.5t14 -6.5v-19
t-1 -18q-2 -9 -5.5 -16.5t-14.5 -10.5q-4 0 -7 -3t-6 -7q-6 -5 -11 -10.5t-12 -11.5q-42 -35 -104 -39z" />
    <glyph glyph-name="uni1EA5" unicode="&#x1ea5;" horiz-adv-x="513" 
d="M343 467q-1 -8 -0.5 -13.5t-1.5 -10.5q-14 -46 -14 -92t-2 -93q0 -17 -1.5 -47t-0.5 -62t5 -61t13 -45q20 -25 44 -4q55 49 77 117q6 20 12.5 40.5t13.5 40.5q10 0 17 -3t7 -11q1 -8 -1.5 -18.5t-1.5 -19.5q-5 -13 -9 -27t-9 -28q-8 -19 -16 -36t-22 -37q-14 -16 -23 -25
t-25 -14q-32 -11 -57 -9.5t-54 20.5q-16 8 -35.5 33.5t-31.5 73.5q-8 -8 -22 -21t-30 -23q-22 -18 -48.5 -20.5t-50.5 7t-42.5 29.5t-25.5 48q-2 8 -5 27.5t-3 27.5q1 57 23.5 105t56.5 93q16 20 30.5 40t29.5 40q7 10 15.5 14.5t22.5 1.5q24 -5 48.5 -8.5t48.5 -8.5
q17 -4 33.5 -10t34.5 -11zM277 421q-37 -21 -61 -55q-4 -5 -14 -23.5t-23 -44t-27.5 -54.5t-26.5 -55t-20 -44.5t-9 -23.5t-0.5 -13.5t4.5 -13.5q2 -3 10.5 -3t13.5 3q12 8 24 18t20 22q28 42 50 85.5t32 94.5q5 26 12 52t15 55zM111 538q5 9 8 17.5t8 14.5l54 62t55 63
q7 8 15 8t16 -6q23 -15 46 -31t40 -43q3 -3 7 -5t6 -6q4 -5 8.5 -10.5t8 -11.5t4.5 -14t-2 -18q-2 -6 -1 -11.5t2.5 -12t0.5 -13.5t-5 -13q-18 0 -36 4.5t-35 16.5q-22 16 -44 31.5t-44 31.5q-12 5 -21 -7q-7 -8 -15.5 -14.5t-14.5 -15.5q-9 -12 -27 -15.5t-34 -1.5z
M373 667q-5 10 -3.5 18.5t7.5 16.5q14 15 27.5 32.5t29.5 30.5q18 14 36.5 25.5t37.5 23.5q6 -3 12 -5.5t14 -6.5v-19t-1 -18q-2 -9 -5.5 -16.5t-14.5 -10.5q-4 0 -7 -3t-6 -7q-6 -5 -11 -10.5t-12 -11.5q-42 -35 -104 -39z" />
    <glyph glyph-name="uni1EA6" unicode="&#x1ea6;" horiz-adv-x="667" 
d="M587 153q16 43 30.5 87t19.5 70q1 8 6 11.5t10.5 3t9.5 -5t3 -12.5v-1q-1 -9 -9 -37.5t-22 -64.5t-33 -74t-42 -66q-14 -23 -35 -25.5t-43.5 7t-43 27.5t-32.5 37q-25 38 -45.5 78.5t-35.5 84.5l-2 4t-3 5q-4 -2 -15 -6t-24.5 -8t-26.5 -7t-20 -3q-18 0 -27 -1t-13.5 -5
t-7 -13t-8.5 -25q-20 -45 -37 -76t-30.5 -51.5t-24 -32.5t-16.5 -20q-3 -4 -6.5 -7t-7.5 -6q-8 -7 -17 -4.5t-12 11.5q-3 8 -5.5 16.5t-4.5 16.5q-27 100 -9 201q14 76 28.5 151.5t30.5 150.5q8 36 18 71.5t20 70.5q1 4 5 12t9 15.5t9.5 13t7.5 5.5q7 1 14.5 0.5t14.5 -3.5
q35 -14 63 -35t43 -57q9 -20 16.5 -41.5t15.5 -42.5q11 -26 22 -52.5t22 -53.5q1 -2 7 -15.5t12.5 -28.5t12.5 -28t7 -14q4 -8 15 -32t26 -57t31.5 -68.5t31.5 -66.5t26.5 -51t17.5 -22q5 -2 13.5 8.5t17.5 24.5q11 16 22 36zM208 514q-2 -44 -3.5 -88t-3.5 -89
q0 -7 4.5 -12.5t12.5 -5.5q12 -2 24 -2.5t25 -2.5q11 -1 17 7.5t1 18.5q-11 22 -19 44.5l-16 45t-18 43.5t-24 41zM43 770q5 9 8 17.5t8 14.5l54 62t55 63q7 8 15 8t16 -6q23 -15 46 -31t40 -43q3 -3 7 -5t6 -6q4 -5 8.5 -10.5t8 -11.5t4.5 -14t-2 -18q-2 -6 -1 -11.5
t2.5 -12t0.5 -13.5t-5 -13q-18 0 -36 4.5t-35 16.5q-22 16 -44 31.5t-44 31.5q-12 5 -21 -7q-7 -8 -15.5 -14.5t-14.5 -15.5q-9 -12 -27 -15.5t-34 -1.5zM86 867q-7 -1 -14 -3t-15 -1q-27 1 -51.5 11.5t-47.5 27.5q-17 14 -34.5 27.5t-34.5 27.5q37 49 88 28q8 -3 14.5 -10
t12.5 -15q21 -20 41.5 -42t41.5 -44z" />
    <glyph glyph-name="uni1EA7" unicode="&#x1ea7;" horiz-adv-x="513" 
d="M343 467q-1 -8 -0.5 -13.5t-1.5 -10.5q-14 -46 -14 -92t-2 -93q0 -17 -1.5 -47t-0.5 -62t5 -61t13 -45q20 -25 44 -4q55 49 77 117q6 20 12.5 40.5t13.5 40.5q10 0 17 -3t7 -11q1 -8 -1.5 -18.5t-1.5 -19.5q-5 -13 -9 -27t-9 -28q-8 -19 -16 -36t-22 -37q-14 -16 -23 -25
t-25 -14q-32 -11 -57 -9.5t-54 20.5q-16 8 -35.5 33.5t-31.5 73.5q-8 -8 -22 -21t-30 -23q-22 -18 -48.5 -20.5t-50.5 7t-42.5 29.5t-25.5 48q-2 8 -5 27.5t-3 27.5q1 57 23.5 105t56.5 93q16 20 30.5 40t29.5 40q7 10 15.5 14.5t22.5 1.5q24 -5 48.5 -8.5t48.5 -8.5
q17 -4 33.5 -10t34.5 -11zM277 421q-37 -21 -61 -55q-4 -5 -14 -23.5t-23 -44t-27.5 -54.5t-26.5 -55t-20 -44.5t-9 -23.5t-0.5 -13.5t4.5 -13.5q2 -3 10.5 -3t13.5 3q12 8 24 18t20 22q28 42 50 85.5t32 94.5q5 26 12 52t15 55zM112 540q5 9 8 17.5t8 14.5l54 62t55 63
q7 8 15 8t16 -6q23 -15 46 -31t40 -43q3 -3 7 -5t6 -6q4 -5 8.5 -10.5t8 -11.5t4.5 -14t-2 -18q-2 -6 -1 -11.5t2.5 -12t0.5 -13.5t-5 -13q-18 0 -36 4.5t-35 16.5q-22 16 -44 31.5t-44 31.5q-12 5 -21 -7q-7 -8 -15.5 -14.5t-14.5 -15.5q-9 -12 -27 -15.5t-34 -1.5z
M182 676q-7 -1 -14 -3t-15 -1q-27 1 -51.5 11.5t-47.5 27.5q-17 14 -34.5 27.5t-34.5 27.5q37 49 88 28q8 -3 14.5 -10t12.5 -15q21 -20 41.5 -42t41.5 -44z" />
    <glyph glyph-name="uni1EA8" unicode="&#x1ea8;" horiz-adv-x="667" 
d="M587 153q16 43 30.5 87t19.5 70q1 8 6 11.5t10.5 3t9.5 -5t3 -12.5v-1q-1 -9 -9 -37.5t-22 -64.5t-33 -74t-42 -66q-14 -23 -35 -25.5t-43.5 7t-43 27.5t-32.5 37q-25 38 -45.5 78.5t-35.5 84.5l-2 4t-3 5q-4 -2 -15 -6t-24.5 -8t-26.5 -7t-20 -3q-18 0 -27 -1t-13.5 -5
t-7 -13t-8.5 -25q-20 -45 -37 -76t-30.5 -51.5t-24 -32.5t-16.5 -20q-3 -4 -6.5 -7t-7.5 -6q-8 -7 -17 -4.5t-12 11.5q-3 8 -5.5 16.5t-4.5 16.5q-27 100 -9 201q14 76 28.5 151.5t30.5 150.5q8 36 18 71.5t20 70.5q1 4 5 12t9 15.5t9.5 13t7.5 5.5q7 1 14.5 0.5t14.5 -3.5
q35 -14 63 -35t43 -57q9 -20 16.5 -41.5t15.5 -42.5q11 -26 22 -52.5t22 -53.5q1 -2 7 -15.5t12.5 -28.5t12.5 -28t7 -14q4 -8 15 -32t26 -57t31.5 -68.5t31.5 -66.5t26.5 -51t17.5 -22q5 -2 13.5 8.5t17.5 24.5q11 16 22 36zM208 514q-2 -44 -3.5 -88t-3.5 -89
q0 -7 4.5 -12.5t12.5 -5.5q12 -2 24 -2.5t25 -2.5q11 -1 17 7.5t1 18.5q-11 22 -19 44.5l-16 45t-18 43.5t-24 41zM42 770q5 9 8 17.5t8 14.5l54 62t55 63q7 8 15 8t16 -6q23 -15 46 -31t40 -43q3 -3 7 -5t6 -6q4 -5 8.5 -10.5t8 -11.5t4.5 -14t-2 -18q-2 -6 -1 -11.5
t2.5 -12t0.5 -13.5t-5 -13q-18 0 -36 4.5t-35 16.5q-22 16 -44 31.5t-44 31.5q-12 5 -21 -7q-7 -8 -15.5 -14.5t-14.5 -15.5q-9 -12 -27 -15.5t-34 -1.5zM336 851q-6 1 -11 4.5t-8.5 8t-5 10.5t-0.5 12q2 11 7.5 15t14 10.5t16.5 13.5q13 11 19 26q1 5 2 9.5t0 7.5
q-4 13 -19 19h-4.5t-3.5 -3q-4 -3 -5 -5t0 -5q7 -17 2 -29.5t-22 -20.5q-12 -5 -23.5 -1t-16.5 17q-2 3 -2.5 5l-0.5 2q-3 12 -3 22t7 19q3 12 9 20.5t14 14.5t17 9.5t17 6.5q3 3 11 2q9 -4 19 -6.5t19 -8.5q10 -6 18 -14t15 -17q7 -10 10 -21.5t-2 -24.5q-5 -15 -12 -28
t-17 -25q-6 -7 -13 -12t-16 -8l-6 -4l-3 -2q-9 -24 -23 -19z" />
    <glyph glyph-name="uni1EA9" unicode="&#x1ea9;" horiz-adv-x="513" 
d="M343 467q-1 -8 -0.5 -13.5t-1.5 -10.5q-14 -46 -14 -92t-2 -93q0 -17 -1.5 -47t-0.5 -62t5 -61t13 -45q20 -25 44 -4q55 49 77 117q6 20 12.5 40.5t13.5 40.5q10 0 17 -3t7 -11q1 -8 -1.5 -18.5t-1.5 -19.5q-5 -13 -9 -27t-9 -28q-8 -19 -16 -36t-22 -37q-14 -16 -23 -25
t-25 -14q-32 -11 -57 -9.5t-54 20.5q-16 8 -35.5 33.5t-31.5 73.5q-8 -8 -22 -21t-30 -23q-22 -18 -48.5 -20.5t-50.5 7t-42.5 29.5t-25.5 48q-2 8 -5 27.5t-3 27.5q1 57 23.5 105t56.5 93q16 20 30.5 40t29.5 40q7 10 15.5 14.5t22.5 1.5q24 -5 48.5 -8.5t48.5 -8.5
q17 -4 33.5 -10t34.5 -11zM277 421q-37 -21 -61 -55q-4 -5 -14 -23.5t-23 -44t-27.5 -54.5t-26.5 -55t-20 -44.5t-9 -23.5t-0.5 -13.5t4.5 -13.5q2 -3 10.5 -3t13.5 3q12 8 24 18t20 22q28 42 50 85.5t32 94.5q5 26 12 52t15 55zM112 541q5 9 8 17.5t8 14.5l54 62t55 63
q7 8 15 8t16 -6q23 -15 46 -31t40 -43q3 -3 7 -5t6 -6q4 -5 8.5 -10.5t8 -11.5t4.5 -14t-2 -18q-2 -6 -1 -11.5t2.5 -12t0.5 -13.5t-5 -13q-18 0 -36 4.5t-35 16.5q-22 16 -44 31.5t-44 31.5q-12 5 -21 -7q-7 -8 -15.5 -14.5t-14.5 -15.5q-9 -12 -27 -15.5t-34 -1.5z
M409 648q-6 1 -11 4.5t-8.5 8t-5 10.5t-0.5 12q2 11 7.5 15t14 10.5t16.5 13.5q13 11 19 26q1 5 2 9.5t0 7.5q-4 13 -19 19h-4.5t-3.5 -3q-4 -3 -5 -5t0 -5q7 -17 2 -29.5t-22 -20.5q-12 -5 -23.5 -1t-16.5 17q-2 3 -2.5 5l-0.5 2q-3 12 -3 22t7 19q3 12 9 20.5t14 14.5
t17 9.5t17 6.5q3 3 11 2q9 -4 19 -6.5t19 -8.5q10 -6 18 -14t15 -17q7 -10 10 -21.5t-2 -24.5q-5 -15 -12 -28t-17 -25q-6 -7 -13 -12t-16 -8l-6 -4l-3 -2q-9 -24 -23 -19z" />
    <glyph glyph-name="uni1EAA" unicode="&#x1eaa;" horiz-adv-x="667" 
d="M587 153q16 43 30.5 87t19.5 70q1 8 6 11.5t10.5 3t9.5 -5t3 -12.5v-1q-1 -9 -9 -37.5t-22 -64.5t-33 -74t-42 -66q-14 -23 -35 -25.5t-43.5 7t-43 27.5t-32.5 37q-25 38 -45.5 78.5t-35.5 84.5l-2 4t-3 5q-4 -2 -15 -6t-24.5 -8t-26.5 -7t-20 -3q-18 0 -27 -1t-13.5 -5
t-7 -13t-8.5 -25q-20 -45 -37 -76t-30.5 -51.5t-24 -32.5t-16.5 -20q-3 -4 -6.5 -7t-7.5 -6q-8 -7 -17 -4.5t-12 11.5q-3 8 -5.5 16.5t-4.5 16.5q-27 100 -9 201q14 76 28.5 151.5t30.5 150.5q8 36 18 71.5t20 70.5q1 4 5 12t9 15.5t9.5 13t7.5 5.5q7 1 14.5 0.5t14.5 -3.5
q35 -14 63 -35t43 -57q9 -20 16.5 -41.5t15.5 -42.5q11 -26 22 -52.5t22 -53.5q1 -2 7 -15.5t12.5 -28.5t12.5 -28t7 -14q4 -8 15 -32t26 -57t31.5 -68.5t31.5 -66.5t26.5 -51t17.5 -22q5 -2 13.5 8.5t17.5 24.5q11 16 22 36zM208 514q-2 -44 -3.5 -88t-3.5 -89
q0 -7 4.5 -12.5t12.5 -5.5q12 -2 24 -2.5t25 -2.5q11 -1 17 7.5t1 18.5q-11 22 -19 44.5l-16 45t-18 43.5t-24 41zM42 770q5 9 8 17.5t8 14.5l54 62t55 63q7 8 15 8t16 -6q23 -15 46 -31t40 -43q3 -3 7 -5t6 -6q4 -5 8.5 -10.5t8 -11.5t4.5 -14t-2 -18q-2 -6 -1 -11.5
t2.5 -12t0.5 -13.5t-5 -13q-18 0 -36 4.5t-35 16.5q-22 16 -44 31.5t-44 31.5q-12 5 -21 -7q-7 -8 -15.5 -14.5t-14.5 -15.5q-9 -12 -27 -15.5t-34 -1.5zM312 982q6 5 16.5 18l21 26t23 25t33.5 23q11 -4 15.5 -11t2.5 -19q-3 -11 -5 -21.5t-6 -21.5q-1 -6 -3.5 -12.5
t-4.5 -11.5q-16 -49 -72 -47q-23 1 -41 10.5t-33 24.5q-10 9 -18.5 19t-17.5 19q-3 3 -6.5 5.5t-3.5 1.5q-7 -7 -19 -18.5t-26 -22.5q-17 -14 -40.5 -31.5t-30 21t25.5 69.5q23 20 48 25.5t53 2.5q26 -3 43 -24q6 -7 11 -15t11 -15q6 -6 13 -12t10 -8z" />
    <glyph glyph-name="uni1EAB" unicode="&#x1eab;" horiz-adv-x="513" 
d="M343 467q-1 -8 -0.5 -13.5t-1.5 -10.5q-14 -46 -14 -92t-2 -93q0 -17 -1.5 -47t-0.5 -62t5 -61t13 -45q20 -25 44 -4q55 49 77 117q6 20 12.5 40.5t13.5 40.5q10 0 17 -3t7 -11q1 -8 -1.5 -18.5t-1.5 -19.5q-5 -13 -9 -27t-9 -28q-8 -19 -16 -36t-22 -37q-14 -16 -23 -25
t-25 -14q-32 -11 -57 -9.5t-54 20.5q-16 8 -35.5 33.5t-31.5 73.5q-8 -8 -22 -21t-30 -23q-22 -18 -48.5 -20.5t-50.5 7t-42.5 29.5t-25.5 48q-2 8 -5 27.5t-3 27.5q1 57 23.5 105t56.5 93q16 20 30.5 40t29.5 40q7 10 15.5 14.5t22.5 1.5q24 -5 48.5 -8.5t48.5 -8.5
q17 -4 33.5 -10t34.5 -11zM277 421q-37 -21 -61 -55q-4 -5 -14 -23.5t-23 -44t-27.5 -54.5t-26.5 -55t-20 -44.5t-9 -23.5t-0.5 -13.5t4.5 -13.5q2 -3 10.5 -3t13.5 3q12 8 24 18t20 22q28 42 50 85.5t32 94.5q5 26 12 52t15 55zM112 540q5 9 8 17.5t8 14.5l54 62t55 63
q7 8 15 8t16 -6q23 -15 46 -31t40 -43q3 -3 7 -5t6 -6q4 -5 8.5 -10.5t8 -11.5t4.5 -14t-2 -18q-2 -6 -1 -11.5t2.5 -12t0.5 -13.5t-5 -13q-18 0 -36 4.5t-35 16.5q-22 16 -44 31.5t-44 31.5q-12 5 -21 -7q-7 -8 -15.5 -14.5t-14.5 -15.5q-9 -12 -27 -15.5t-34 -1.5z
M357 755q6 5 16.5 18l21 26t23 25t33.5 23q11 -4 15.5 -11t2.5 -19q-3 -11 -5 -21.5t-6 -21.5q-1 -6 -3.5 -12.5t-4.5 -11.5q-16 -49 -72 -47q-23 1 -41 10.5t-33 24.5q-10 9 -18.5 19t-17.5 19q-3 3 -6.5 5.5t-3.5 1.5q-7 -7 -19 -18.5t-26 -22.5q-17 -14 -40.5 -31.5
t-30 21t25.5 69.5q23 20 48 25.5t53 2.5q26 -3 43 -24q6 -7 11 -15t11 -15q6 -6 13 -12t10 -8z" />
    <glyph glyph-name="uni1EAC" unicode="&#x1eac;" horiz-adv-x="667" 
d="M587 153q16 43 30.5 87t19.5 70q1 8 6 11.5t10.5 3t9.5 -5t3 -12.5v-1q-1 -9 -9 -37.5t-22 -64.5t-33 -74t-42 -66q-14 -23 -35 -25.5t-43.5 7t-43 27.5t-32.5 37q-25 38 -45.5 78.5t-35.5 84.5l-2 4t-3 5q-4 -2 -15 -6t-24.5 -8t-26.5 -7t-20 -3q-18 0 -27 -1t-13.5 -5
t-7 -13t-8.5 -25q-20 -45 -37 -76t-30.5 -51.5t-24 -32.5t-16.5 -20q-3 -4 -6.5 -7t-7.5 -6q-8 -7 -17 -4.5t-12 11.5q-3 8 -5.5 16.5t-4.5 16.5q-27 100 -9 201q14 76 28.5 151.5t30.5 150.5q8 36 18 71.5t20 70.5q1 4 5 12t9 15.5t9.5 13t7.5 5.5q7 1 14.5 0.5t14.5 -3.5
q35 -14 63 -35t43 -57q9 -20 16.5 -41.5t15.5 -42.5q11 -26 22 -52.5t22 -53.5q1 -2 7 -15.5t12.5 -28.5t12.5 -28t7 -14q4 -8 15 -32t26 -57t31.5 -68.5t31.5 -66.5t26.5 -51t17.5 -22q5 -2 13.5 8.5t17.5 24.5q11 16 22 36zM208 514q-2 -44 -3.5 -88t-3.5 -89
q0 -7 4.5 -12.5t12.5 -5.5q12 -2 24 -2.5t25 -2.5q11 -1 17 7.5t1 18.5q-11 22 -19 44.5l-16 45t-18 43.5t-24 41zM42 768q5 9 8 17.5t8 14.5l54 62t55 63q7 8 15 8t16 -6q23 -15 46 -31t40 -43q3 -3 7 -5t6 -6q4 -5 8.5 -10.5t8 -11.5t4.5 -14t-2 -18q-2 -6 -1 -11.5
t2.5 -12t0.5 -13.5t-5 -13q-18 0 -36 4.5t-35 16.5q-22 16 -44 31.5t-44 31.5q-12 5 -21 -7q-7 -8 -15.5 -14.5t-14.5 -15.5q-9 -12 -27 -15.5t-34 -1.5zM235 -112q1 0 -4.5 1t-14 7t-18.5 19.5t-17 39.5q-4 14 0.5 26t15.5 20q20 14 41 22t44 15q19 5 30.5 -5t13.5 -30
q0 -13 -0.5 -25.5t-1.5 -26.5q-2 -22 -18 -37l-2 -2q-5 -12 -10.5 -17.5t-13.5 -8t-18.5 -1.5t-26.5 3z" />
    <glyph glyph-name="uni1EAD" unicode="&#x1ead;" horiz-adv-x="513" 
d="M343 467q-1 -8 -0.5 -13.5t-1.5 -10.5q-14 -46 -14 -92t-2 -93q0 -17 -1.5 -47t-0.5 -62t5 -61t13 -45q20 -25 44 -4q55 49 77 117q6 20 12.5 40.5t13.5 40.5q10 0 17 -3t7 -11q1 -8 -1.5 -18.5t-1.5 -19.5q-5 -13 -9 -27t-9 -28q-8 -19 -16 -36t-22 -37q-14 -16 -23 -25
t-25 -14q-32 -11 -57 -9.5t-54 20.5q-16 8 -35.5 33.5t-31.5 73.5q-8 -8 -22 -21t-30 -23q-22 -18 -48.5 -20.5t-50.5 7t-42.5 29.5t-25.5 48q-2 8 -5 27.5t-3 27.5q1 57 23.5 105t56.5 93q16 20 30.5 40t29.5 40q7 10 15.5 14.5t22.5 1.5q24 -5 48.5 -8.5t48.5 -8.5
q17 -4 33.5 -10t34.5 -11zM277 421q-37 -21 -61 -55q-4 -5 -14 -23.5t-23 -44t-27.5 -54.5t-26.5 -55t-20 -44.5t-9 -23.5t-0.5 -13.5t4.5 -13.5q2 -3 10.5 -3t13.5 3q12 8 24 18t20 22q28 42 50 85.5t32 94.5q5 26 12 52t15 55zM111 541q5 9 8 17.5t8 14.5l54 62t55 63
q7 8 15 8t16 -6q23 -15 46 -31t40 -43q3 -3 7 -5t6 -6q4 -5 8.5 -10.5t8 -11.5t4.5 -14t-2 -18q-2 -6 -1 -11.5t2.5 -12t0.5 -13.5t-5 -13q-18 0 -36 4.5t-35 16.5q-22 16 -44 31.5t-44 31.5q-12 5 -21 -7q-7 -8 -15.5 -14.5t-14.5 -15.5q-9 -12 -27 -15.5t-34 -1.5z
M135 -145q1 0 -4.5 1t-14 7t-18.5 19.5t-17 39.5q-4 14 0.5 26t15.5 20q20 14 41 22t44 15q19 5 30.5 -5t13.5 -30q0 -13 -0.5 -25.5t-1.5 -26.5q-2 -22 -18 -37l-2 -2q-5 -12 -10.5 -17.5t-13.5 -8t-18.5 -1.5t-26.5 3z" />
    <glyph glyph-name="uni1EAE" unicode="&#x1eae;" horiz-adv-x="667" 
d="M587 153q16 43 30.5 87t19.5 70q1 8 6 11.5t10.5 3t9.5 -5t3 -12.5v-1q-1 -9 -9 -37.5t-22 -64.5t-33 -74t-42 -66q-14 -23 -35 -25.5t-43.5 7t-43 27.5t-32.5 37q-25 38 -45.5 78.5t-35.5 84.5l-2 4t-3 5q-4 -2 -15 -6t-24.5 -8t-26.5 -7t-20 -3q-18 0 -27 -1t-13.5 -5
t-7 -13t-8.5 -25q-20 -45 -37 -76t-30.5 -51.5t-24 -32.5t-16.5 -20q-3 -4 -6.5 -7t-7.5 -6q-8 -7 -17 -4.5t-12 11.5q-3 8 -5.5 16.5t-4.5 16.5q-27 100 -9 201q14 76 28.5 151.5t30.5 150.5q8 36 18 71.5t20 70.5q1 4 5 12t9 15.5t9.5 13t7.5 5.5q7 1 14.5 0.5t14.5 -3.5
q35 -14 63 -35t43 -57q9 -20 16.5 -41.5t15.5 -42.5q11 -26 22 -52.5t22 -53.5q1 -2 7 -15.5t12.5 -28.5t12.5 -28t7 -14q4 -8 15 -32t26 -57t31.5 -68.5t31.5 -66.5t26.5 -51t17.5 -22q5 -2 13.5 8.5t17.5 24.5q11 16 22 36zM208 514q-2 -44 -3.5 -88t-3.5 -89
q0 -7 4.5 -12.5t12.5 -5.5q12 -2 24 -2.5t25 -2.5q11 -1 17 7.5t1 18.5q-11 22 -19 44.5l-16 45t-18 43.5t-24 41zM328 926q2 -13 -1 -29q-3 -13 -16.5 -30.5t-31 -35t-37 -32.5t-35.5 -22q-5 -3 -23.5 -5.5t-43.5 2t-50.5 20t-45.5 47.5q-10 24 24 56t48 4.5t28.5 -42
t28 -18.5t23.5 -4q16 -1 32.5 8.5t32.5 24t29 32t23 31.5q4 6 9 3.5t6 -10.5zM180 926q-5 10 -3.5 18.5t7.5 16.5q14 15 27.5 32.5t29.5 30.5q18 14 36.5 25.5t37.5 23.5q6 -3 12 -5.5t14 -6.5v-19t-1 -18q-2 -9 -5.5 -16.5t-14.5 -10.5q-4 0 -7 -3t-6 -7q-6 -5 -11 -10.5
t-12 -11.5q-42 -35 -104 -39z" />
    <glyph glyph-name="uni1EAF" unicode="&#x1eaf;" horiz-adv-x="513" 
d="M343 467q-1 -8 -0.5 -13.5t-1.5 -10.5q-14 -46 -14 -92t-2 -93q0 -17 -1.5 -47t-0.5 -62t5 -61t13 -45q20 -25 44 -4q55 49 77 117q6 20 12.5 40.5t13.5 40.5q10 0 17 -3t7 -11q1 -8 -1.5 -18.5t-1.5 -19.5q-5 -13 -9 -27t-9 -28q-8 -19 -16 -36t-22 -37q-14 -16 -23 -25
t-25 -14q-32 -11 -57 -9.5t-54 20.5q-16 8 -35.5 33.5t-31.5 73.5q-8 -8 -22 -21t-30 -23q-22 -18 -48.5 -20.5t-50.5 7t-42.5 29.5t-25.5 48q-2 8 -5 27.5t-3 27.5q1 57 23.5 105t56.5 93q16 20 30.5 40t29.5 40q7 10 15.5 14.5t22.5 1.5q24 -5 48.5 -8.5t48.5 -8.5
q17 -4 33.5 -10t34.5 -11zM277 421q-37 -21 -61 -55q-4 -5 -14 -23.5t-23 -44t-27.5 -54.5t-26.5 -55t-20 -44.5t-9 -23.5t-0.5 -13.5t4.5 -13.5q2 -3 10.5 -3t13.5 3q12 8 24 18t20 22q28 42 50 85.5t32 94.5q5 26 12 52t15 55zM399 686q2 -13 -1 -29q-3 -13 -16.5 -30.5
t-31 -35t-37 -32.5t-35.5 -22q-5 -3 -23.5 -5.5t-43.5 2t-50.5 20t-45.5 47.5q-10 24 24 56t48 4.5t28.5 -42t28 -18.5t23.5 -4q16 -1 32.5 8.5t32.5 24t29 32t23 31.5q4 6 9 3.5t6 -10.5zM233 691q-5 10 -3.5 18.5t7.5 16.5q14 15 27.5 32.5t29.5 30.5q18 14 36.5 25.5
t37.5 23.5q6 -3 12 -5.5t14 -6.5v-19t-1 -18q-2 -9 -5.5 -16.5t-14.5 -10.5q-4 0 -7 -3t-6 -7q-6 -5 -11 -10.5t-12 -11.5q-42 -35 -104 -39z" />
    <glyph glyph-name="uni1EB0" unicode="&#x1eb0;" horiz-adv-x="667" 
d="M587 153q16 43 30.5 87t19.5 70q1 8 6 11.5t10.5 3t9.5 -5t3 -12.5v-1q-1 -9 -9 -37.5t-22 -64.5t-33 -74t-42 -66q-14 -23 -35 -25.5t-43.5 7t-43 27.5t-32.5 37q-25 38 -45.5 78.5t-35.5 84.5l-2 4t-3 5q-4 -2 -15 -6t-24.5 -8t-26.5 -7t-20 -3q-18 0 -27 -1t-13.5 -5
t-7 -13t-8.5 -25q-20 -45 -37 -76t-30.5 -51.5t-24 -32.5t-16.5 -20q-3 -4 -6.5 -7t-7.5 -6q-8 -7 -17 -4.5t-12 11.5q-3 8 -5.5 16.5t-4.5 16.5q-27 100 -9 201q14 76 28.5 151.5t30.5 150.5q8 36 18 71.5t20 70.5q1 4 5 12t9 15.5t9.5 13t7.5 5.5q7 1 14.5 0.5t14.5 -3.5
q35 -14 63 -35t43 -57q9 -20 16.5 -41.5t15.5 -42.5q11 -26 22 -52.5t22 -53.5q1 -2 7 -15.5t12.5 -28.5t12.5 -28t7 -14q4 -8 15 -32t26 -57t31.5 -68.5t31.5 -66.5t26.5 -51t17.5 -22q5 -2 13.5 8.5t17.5 24.5q11 16 22 36zM208 514q-2 -44 -3.5 -88t-3.5 -89
q0 -7 4.5 -12.5t12.5 -5.5q12 -2 24 -2.5t25 -2.5q11 -1 17 7.5t1 18.5q-11 22 -19 44.5l-16 45t-18 43.5t-24 41zM328 928q2 -13 -1 -29q-3 -13 -16.5 -30.5t-31 -35t-37 -32.5t-35.5 -22q-5 -3 -23.5 -5.5t-43.5 2t-50.5 20t-45.5 47.5q-10 24 24 56t48 4.5t28.5 -42
t28 -18.5t23.5 -4q16 -1 32.5 8.5t32.5 24t29 32t23 31.5q4 6 9 3.5t6 -10.5zM243 935q-7 -1 -14 -3t-15 -1q-27 1 -51.5 11.5t-47.5 27.5q-17 14 -34.5 27.5t-34.5 27.5q37 49 88 28q8 -3 14.5 -10t12.5 -15q21 -20 41.5 -42t41.5 -44z" />
    <glyph glyph-name="uni1EB1" unicode="&#x1eb1;" horiz-adv-x="513" 
d="M343 467q-1 -8 -0.5 -13.5t-1.5 -10.5q-14 -46 -14 -92t-2 -93q0 -17 -1.5 -47t-0.5 -62t5 -61t13 -45q20 -25 44 -4q55 49 77 117q6 20 12.5 40.5t13.5 40.5q10 0 17 -3t7 -11q1 -8 -1.5 -18.5t-1.5 -19.5q-5 -13 -9 -27t-9 -28q-8 -19 -16 -36t-22 -37q-14 -16 -23 -25
t-25 -14q-32 -11 -57 -9.5t-54 20.5q-16 8 -35.5 33.5t-31.5 73.5q-8 -8 -22 -21t-30 -23q-22 -18 -48.5 -20.5t-50.5 7t-42.5 29.5t-25.5 48q-2 8 -5 27.5t-3 27.5q1 57 23.5 105t56.5 93q16 20 30.5 40t29.5 40q7 10 15.5 14.5t22.5 1.5q24 -5 48.5 -8.5t48.5 -8.5
q17 -4 33.5 -10t34.5 -11zM277 421q-37 -21 -61 -55q-4 -5 -14 -23.5t-23 -44t-27.5 -54.5t-26.5 -55t-20 -44.5t-9 -23.5t-0.5 -13.5t4.5 -13.5q2 -3 10.5 -3t13.5 3q12 8 24 18t20 22q28 42 50 85.5t32 94.5q5 26 12 52t15 55zM399 688q2 -13 -1 -29q-3 -13 -16.5 -30.5
t-31 -35t-37 -32.5t-35.5 -22q-5 -3 -23.5 -5.5t-43.5 2t-50.5 20t-45.5 47.5q-10 24 24 56t48 4.5t28.5 -42t28 -18.5t23.5 -4q16 -1 32.5 8.5t32.5 24t29 32t23 31.5q4 6 9 3.5t6 -10.5zM308 685q-7 -1 -14 -3t-15 -1q-27 1 -51.5 11.5t-47.5 27.5q-17 14 -34.5 27.5
t-34.5 27.5q37 49 88 28q8 -3 14.5 -10t12.5 -15q21 -20 41.5 -42t41.5 -44z" />
    <glyph glyph-name="uni1EB2" unicode="&#x1eb2;" horiz-adv-x="667" 
d="M587 153q16 43 30.5 87t19.5 70q1 8 6 11.5t10.5 3t9.5 -5t3 -12.5v-1q-1 -9 -9 -37.5t-22 -64.5t-33 -74t-42 -66q-14 -23 -35 -25.5t-43.5 7t-43 27.5t-32.5 37q-25 38 -45.5 78.5t-35.5 84.5l-2 4t-3 5q-4 -2 -15 -6t-24.5 -8t-26.5 -7t-20 -3q-18 0 -27 -1t-13.5 -5
t-7 -13t-8.5 -25q-20 -45 -37 -76t-30.5 -51.5t-24 -32.5t-16.5 -20q-3 -4 -6.5 -7t-7.5 -6q-8 -7 -17 -4.5t-12 11.5q-3 8 -5.5 16.5t-4.5 16.5q-27 100 -9 201q14 76 28.5 151.5t30.5 150.5q8 36 18 71.5t20 70.5q1 4 5 12t9 15.5t9.5 13t7.5 5.5q7 1 14.5 0.5t14.5 -3.5
q35 -14 63 -35t43 -57q9 -20 16.5 -41.5t15.5 -42.5q11 -26 22 -52.5t22 -53.5q1 -2 7 -15.5t12.5 -28.5t12.5 -28t7 -14q4 -8 15 -32t26 -57t31.5 -68.5t31.5 -66.5t26.5 -51t17.5 -22q5 -2 13.5 8.5t17.5 24.5q11 16 22 36zM208 514q-2 -44 -3.5 -88t-3.5 -89
q0 -7 4.5 -12.5t12.5 -5.5q12 -2 24 -2.5t25 -2.5q11 -1 17 7.5t1 18.5q-11 22 -19 44.5l-16 45t-18 43.5t-24 41zM328 928q2 -13 -1 -29q-3 -13 -16.5 -30.5t-31 -35t-37 -32.5t-35.5 -22q-5 -3 -23.5 -5.5t-43.5 2t-50.5 20t-45.5 47.5q-10 24 24 56t48 4.5t28.5 -42
t28 -18.5t23.5 -4q16 -1 32.5 8.5t32.5 24t29 32t23 31.5q4 6 9 3.5t6 -10.5zM204 891.25q-6 0.75 -11 3.375t-8.5 6t-5 7.875t-0.5 9q2 8.25 7.5 11.25t14 7.875t16.5 10.125q13 8.25 19 19.5q1 3.75 2 7.125t0 5.625q-4 9.75 -19 14.25h-4.5t-3.5 -2.25q-4 -2.25 -5 -3.75
t0 -3.75q7 -12.75 2 -22.125t-22 -15.375q-12 -3.75 -23.5 -0.75t-16.5 12.75q-2 2.25 -2.5 3.75l-0.5 1.5q-3 9 -3 16.5t7 14.25q3 9 9 15.375t14 10.875t17 7.125t17 4.875q3 2.25 11 1.5q9 -3 19 -4.875t19 -6.375q10 -4.5 18 -10.5t15 -12.75q7 -7.5 10 -16.125
t-2 -18.375q-5 -11.25 -12 -21t-17 -18.75q-6 -5.25 -13 -9t-16 -6l-6 -3l-3 -1.5q-9 -18 -23 -14.25z" />
    <glyph glyph-name="uni1EB3" unicode="&#x1eb3;" horiz-adv-x="513" 
d="M343 467q-1 -8 -0.5 -13.5t-1.5 -10.5q-14 -46 -14 -92t-2 -93q0 -17 -1.5 -47t-0.5 -62t5 -61t13 -45q20 -25 44 -4q55 49 77 117q6 20 12.5 40.5t13.5 40.5q10 0 17 -3t7 -11q1 -8 -1.5 -18.5t-1.5 -19.5q-5 -13 -9 -27t-9 -28q-8 -19 -16 -36t-22 -37q-14 -16 -23 -25
t-25 -14q-32 -11 -57 -9.5t-54 20.5q-16 8 -35.5 33.5t-31.5 73.5q-8 -8 -22 -21t-30 -23q-22 -18 -48.5 -20.5t-50.5 7t-42.5 29.5t-25.5 48q-2 8 -5 27.5t-3 27.5q1 57 23.5 105t56.5 93q16 20 30.5 40t29.5 40q7 10 15.5 14.5t22.5 1.5q24 -5 48.5 -8.5t48.5 -8.5
q17 -4 33.5 -10t34.5 -11zM277 421q-37 -21 -61 -55q-4 -5 -14 -23.5t-23 -44t-27.5 -54.5t-26.5 -55t-20 -44.5t-9 -23.5t-0.5 -13.5t4.5 -13.5q2 -3 10.5 -3t13.5 3q12 8 24 18t20 22q28 42 50 85.5t32 94.5q5 26 12 52t15 55zM398 688q2 -13 -1 -29q-3 -13 -16.5 -30.5
t-31 -35t-37 -32.5t-35.5 -22q-5 -3 -23.5 -5.5t-43.5 2t-50.5 20t-45.5 47.5q-10 24 24 56t48 4.5t28.5 -42t28 -18.5t23.5 -4q16 -1 32.5 8.5t32.5 24t29 32t23 31.5q4 6 9 3.5t6 -10.5zM254 674q-6 1 -11 4.5t-8.5 8t-5 10.5t-0.5 12q2 11 7.5 15t14 10.5t16.5 13.5
q13 11 19 26q1 5 2 9.5t0 7.5q-4 13 -19 19h-4.5t-3.5 -3q-4 -3 -5 -5t0 -5q7 -17 2 -29.5t-22 -20.5q-12 -5 -23.5 -1t-16.5 17q-2 3 -2.5 5l-0.5 2q-3 12 -3 22t7 19q3 12 9 20.5t14 14.5t17 9.5t17 6.5q3 3 11 2q9 -4 19 -6.5t19 -8.5q10 -6 18 -14t15 -17
q7 -10 10 -21.5t-2 -24.5q-5 -15 -12 -28t-17 -25q-6 -7 -13 -12t-16 -8l-6 -4l-3 -2q-9 -24 -23 -19z" />
    <glyph glyph-name="uni1EB4" unicode="&#x1eb4;" horiz-adv-x="667" 
d="M587 153q16 43 30.5 87t19.5 70q1 8 6 11.5t10.5 3t9.5 -5t3 -12.5v-1q-1 -9 -9 -37.5t-22 -64.5t-33 -74t-42 -66q-14 -23 -35 -25.5t-43.5 7t-43 27.5t-32.5 37q-25 38 -45.5 78.5t-35.5 84.5l-2 4t-3 5q-4 -2 -15 -6t-24.5 -8t-26.5 -7t-20 -3q-18 0 -27 -1t-13.5 -5
t-7 -13t-8.5 -25q-20 -45 -37 -76t-30.5 -51.5t-24 -32.5t-16.5 -20q-3 -4 -6.5 -7t-7.5 -6q-8 -7 -17 -4.5t-12 11.5q-3 8 -5.5 16.5t-4.5 16.5q-27 100 -9 201q14 76 28.5 151.5t30.5 150.5q8 36 18 71.5t20 70.5q1 4 5 12t9 15.5t9.5 13t7.5 5.5q7 1 14.5 0.5t14.5 -3.5
q35 -14 63 -35t43 -57q9 -20 16.5 -41.5t15.5 -42.5q11 -26 22 -52.5t22 -53.5q1 -2 7 -15.5t12.5 -28.5t12.5 -28t7 -14q4 -8 15 -32t26 -57t31.5 -68.5t31.5 -66.5t26.5 -51t17.5 -22q5 -2 13.5 8.5t17.5 24.5q11 16 22 36zM208 514q-2 -44 -3.5 -88t-3.5 -89
q0 -7 4.5 -12.5t12.5 -5.5q12 -2 24 -2.5t25 -2.5q11 -1 17 7.5t1 18.5q-11 22 -19 44.5l-16 45t-18 43.5t-24 41zM328 929q2 -13 -1 -29q-3 -13 -16.5 -30.5t-31 -35t-37 -32.5t-35.5 -22q-5 -3 -23.5 -5.5t-43.5 2t-50.5 20t-45.5 47.5q-10 24 24 56t48 4.5t28.5 -42
t28 -18.5t23.5 -4q16 -1 32.5 8.5t32.5 24t29 32t23 31.5q4 6 9 3.5t6 -10.5zM232 990q6 5 16.5 18l21 26t23 25t33.5 23q11 -4 15.5 -11t2.5 -19q-3 -11 -5 -21.5t-6 -21.5q-1 -6 -3.5 -12.5t-4.5 -11.5q-16 -49 -72 -47q-23 1 -41 10.5t-33 24.5q-10 9 -18.5 19t-17.5 19
q-3 3 -6.5 5.5t-3.5 1.5q-7 -7 -19 -18.5t-26 -22.5q-17 -14 -40.5 -31.5t-30 21t25.5 69.5q23 20 48 25.5t53 2.5q26 -3 43 -24q6 -7 11 -15t11 -15q6 -6 13 -12t10 -8z" />
    <glyph glyph-name="uni1EB5" unicode="&#x1eb5;" horiz-adv-x="513" 
d="M343 467q-1 -8 -0.5 -13.5t-1.5 -10.5q-14 -46 -14 -92t-2 -93q0 -17 -1.5 -47t-0.5 -62t5 -61t13 -45q20 -25 44 -4q55 49 77 117q6 20 12.5 40.5t13.5 40.5q10 0 17 -3t7 -11q1 -8 -1.5 -18.5t-1.5 -19.5q-5 -13 -9 -27t-9 -28q-8 -19 -16 -36t-22 -37q-14 -16 -23 -25
t-25 -14q-32 -11 -57 -9.5t-54 20.5q-16 8 -35.5 33.5t-31.5 73.5q-8 -8 -22 -21t-30 -23q-22 -18 -48.5 -20.5t-50.5 7t-42.5 29.5t-25.5 48q-2 8 -5 27.5t-3 27.5q1 57 23.5 105t56.5 93q16 20 30.5 40t29.5 40q7 10 15.5 14.5t22.5 1.5q24 -5 48.5 -8.5t48.5 -8.5
q17 -4 33.5 -10t34.5 -11zM277 421q-37 -21 -61 -55q-4 -5 -14 -23.5t-23 -44t-27.5 -54.5t-26.5 -55t-20 -44.5t-9 -23.5t-0.5 -13.5t4.5 -13.5q2 -3 10.5 -3t13.5 3q12 8 24 18t20 22q28 42 50 85.5t32 94.5q5 26 12 52t15 55zM398 688q2 -13 -1 -29q-3 -13 -16.5 -30.5
t-31 -35t-37 -32.5t-35.5 -22q-5 -3 -23.5 -5.5t-43.5 2t-50.5 20t-45.5 47.5q-10 24 24 56t48 4.5t28.5 -42t28 -18.5t23.5 -4q16 -1 32.5 8.5t32.5 24t29 32t23 31.5q4 6 9 3.5t6 -10.5zM305 745q6 5 16.5 18l21 26t23 25t33.5 23q11 -4 15.5 -11t2.5 -19q-3 -11 -5 -21.5
t-6 -21.5q-1 -6 -3.5 -12.5t-4.5 -11.5q-16 -49 -72 -47q-23 1 -41 10.5t-33 24.5q-10 9 -18.5 19t-17.5 19q-3 3 -6.5 5.5t-3.5 1.5q-7 -7 -19 -18.5t-26 -22.5q-17 -14 -40.5 -31.5t-30 21t25.5 69.5q23 20 48 25.5t53 2.5q26 -3 43 -24q6 -7 11 -15t11 -15q6 -6 13 -12
t10 -8z" />
    <glyph glyph-name="uni1EB6" unicode="&#x1eb6;" horiz-adv-x="667" 
d="M587 153q16 43 30.5 87t19.5 70q1 8 6 11.5t10.5 3t9.5 -5t3 -12.5v-1q-1 -9 -9 -37.5t-22 -64.5t-33 -74t-42 -66q-14 -23 -35 -25.5t-43.5 7t-43 27.5t-32.5 37q-25 38 -45.5 78.5t-35.5 84.5l-2 4t-3 5q-4 -2 -15 -6t-24.5 -8t-26.5 -7t-20 -3q-18 0 -27 -1t-13.5 -5
t-7 -13t-8.5 -25q-20 -45 -37 -76t-30.5 -51.5t-24 -32.5t-16.5 -20q-3 -4 -6.5 -7t-7.5 -6q-8 -7 -17 -4.5t-12 11.5q-3 8 -5.5 16.5t-4.5 16.5q-27 100 -9 201q14 76 28.5 151.5t30.5 150.5q8 36 18 71.5t20 70.5q1 4 5 12t9 15.5t9.5 13t7.5 5.5q7 1 14.5 0.5t14.5 -3.5
q35 -14 63 -35t43 -57q9 -20 16.5 -41.5t15.5 -42.5q11 -26 22 -52.5t22 -53.5q1 -2 7 -15.5t12.5 -28.5t12.5 -28t7 -14q4 -8 15 -32t26 -57t31.5 -68.5t31.5 -66.5t26.5 -51t17.5 -22q5 -2 13.5 8.5t17.5 24.5q11 16 22 36zM208 514q-2 -44 -3.5 -88t-3.5 -89
q0 -7 4.5 -12.5t12.5 -5.5q12 -2 24 -2.5t25 -2.5q11 -1 17 7.5t1 18.5q-11 22 -19 44.5l-16 45t-18 43.5t-24 41zM328 939q2 -13 -1 -29q-3 -13 -16.5 -30.5t-31 -35t-37 -32.5t-35.5 -22q-5 -3 -23.5 -5.5t-43.5 2t-50.5 20t-45.5 47.5q-10 24 24 56t48 4.5t28.5 -42
t28 -18.5t23.5 -4q16 -1 32.5 8.5t32.5 24t29 32t23 31.5q4 6 9 3.5t6 -10.5zM254 -123q1 0 -4.5 1t-14 7t-18.5 19.5t-17 39.5q-4 14 0.5 26t15.5 20q20 14 41 22t44 15q19 5 30.5 -5t13.5 -30q0 -13 -0.5 -25.5t-1.5 -26.5q-2 -22 -18 -37l-2 -2q-5 -12 -10.5 -17.5
t-13.5 -8t-18.5 -1.5t-26.5 3z" />
    <glyph glyph-name="uni1EB7" unicode="&#x1eb7;" horiz-adv-x="513" 
d="M343 467q-1 -8 -0.5 -13.5t-1.5 -10.5q-14 -46 -14 -92t-2 -93q0 -17 -1.5 -47t-0.5 -62t5 -61t13 -45q20 -25 44 -4q55 49 77 117q6 20 12.5 40.5t13.5 40.5q10 0 17 -3t7 -11q1 -8 -1.5 -18.5t-1.5 -19.5q-5 -13 -9 -27t-9 -28q-8 -19 -16 -36t-22 -37q-14 -16 -23 -25
t-25 -14q-32 -11 -57 -9.5t-54 20.5q-16 8 -35.5 33.5t-31.5 73.5q-8 -8 -22 -21t-30 -23q-22 -18 -48.5 -20.5t-50.5 7t-42.5 29.5t-25.5 48q-2 8 -5 27.5t-3 27.5q1 57 23.5 105t56.5 93q16 20 30.5 40t29.5 40q7 10 15.5 14.5t22.5 1.5q24 -5 48.5 -8.5t48.5 -8.5
q17 -4 33.5 -10t34.5 -11zM277 421q-37 -21 -61 -55q-4 -5 -14 -23.5t-23 -44t-27.5 -54.5t-26.5 -55t-20 -44.5t-9 -23.5t-0.5 -13.5t4.5 -13.5q2 -3 10.5 -3t13.5 3q12 8 24 18t20 22q28 42 50 85.5t32 94.5q5 26 12 52t15 55zM398 688q2 -13 -1 -29q-3 -13 -16.5 -30.5
t-31 -35t-37 -32.5t-35.5 -22q-5 -3 -23.5 -5.5t-43.5 2t-50.5 20t-45.5 47.5q-10 24 24 56t48 4.5t28.5 -42t28 -18.5t23.5 -4q16 -1 32.5 8.5t32.5 24t29 32t23 31.5q4 6 9 3.5t6 -10.5zM120 -118q1 0 -4.5 1t-14 7t-18.5 19.5t-17 39.5q-4 14 0.5 26t15.5 20q20 14 41 22
t44 15q19 5 30.5 -5t13.5 -30q0 -13 -0.5 -25.5t-1.5 -26.5q-2 -22 -18 -37l-2 -2q-5 -12 -10.5 -17.5t-13.5 -8t-18.5 -1.5t-26.5 3z" />
    <glyph glyph-name="uni1EB8" unicode="&#x1eb8;" horiz-adv-x="538" 
d="M512 329q13 -2 20 -12.5t5 -23.5q-6 -39 -22.5 -80.5t-35.5 -77.5t-37 -62.5t-27 -35.5q-13 -15 -23 -25t-19 -16.5t-18.5 -11t-20.5 -8.5q-38 -15 -69.5 -20.5t-72.5 -2.5q-73 4 -127 51q-18 16 -29 35.5t-19 41.5q-5 12 -9.5 30t-6.5 38.5t-0.5 43t7.5 43.5l10.5 28
t9 23.5t9 24t11.5 27.5q9 20 21.5 38t25.5 36q9 13 19.5 24.5t22.5 25.5q-3 6 -6.5 14t-7.5 16q-7 14 -11.5 29t-5.5 31q-1 15 3.5 33t13 35t21 31t27.5 21q27 15 52.5 21t47 6.5t37 -2.5t21.5 -6q20 -11 39.5 -23.5t29.5 -36.5q9 -22 3.5 -41t-25.5 -32q-15 -9 -23.5 -11
t-22.5 4q-9 4 -13 13t-1 19q1 1 1 2t1 2q1 21 -12.5 32.5t-31.5 14t-35.5 -5t-23.5 -24.5q0 -13 -0.5 -26t0.5 -26q1 -14 5.5 -31.5t13.5 -33t22.5 -28t32.5 -17.5q11 -2 21.5 -7t20.5 -10q13 -6 13 -14.5t-12 -15.5q-9 -5 -18.5 -8.5t-21.5 0.5q-10 2 -20 2t-20 2
q-20 2 -31 -4.5t-17 -26.5q-3 -12 -10 -33.5t-14 -43.5t-13 -40t-7 -23q-8 -30 -12 -60t-6 -61q-2 -22 5.5 -40.5t21.5 -33.5q2 -4 9.5 -6t13.5 -2q59 -1 113 25q56 26 97 68.5t64 94.5q12 29 23 60t19 62q0 1 4 1zM151 -260q1 0 -4.5 1t-14 7t-18.5 19.5t-17 39.5
q-4 14 0.5 26t15.5 20q20 14 41 22t44 15q19 5 30.5 -5t13.5 -30q0 -13 -0.5 -25.5t-1.5 -26.5q-2 -22 -18 -37l-2 -2q-5 -12 -10.5 -17.5t-13.5 -8t-18.5 -1.5t-26.5 3z" />
    <glyph glyph-name="uni1EB9" unicode="&#x1eb9;" horiz-adv-x="412" 
d="M408 247q6 -17 2.5 -29.5t-11.5 -23.5q-30 -46 -69 -83t-81 -71q-20 -16 -43.5 -21t-47.5 -6q-52 -1 -85 26.5t-52 72.5q-20 48 -20.5 95.5t22.5 95.5q17 37 36 73.5t39 71.5q10 17 24.5 32t40.5 26q29 7 54.5 7t35.5 -2q12 -3 20.5 -9.5t11.5 -19.5q2 -8 9 -13.5
t12 -13.5q12 -23 9.5 -44t-11.5 -41q-2 -6 -12.5 -26t-30 -43t-48 -43t-67.5 -26q-3 0 -9 -2q-14 -23 -22.5 -47.5t-13.5 -50.5q-6 -44 13.5 -65t62.5 -15q14 2 28.5 6.5t25.5 12.5q37 26 72 53t64 62q8 11 14.5 23t14.5 23zM136 255q26 6 43 16t33 21q43 31 55 70.5t2 89.5
q-4 19 -23 17q-23 -36 -37 -62t-23 -44t-14.5 -29.5t-9.5 -18.5q-8 -20 -14.5 -30.5t-11.5 -29.5zM99 -192q1 0 -4.5 1t-14 7t-18.5 19.5t-17 39.5q-4 14 0.5 26t15.5 20q20 14 41 22t44 15q19 5 30.5 -5t13.5 -30q0 -13 -0.5 -25.5t-1.5 -26.5q-2 -22 -18 -37l-2 -2
q-5 -12 -10.5 -17.5t-13.5 -8t-18.5 -1.5t-26.5 3z" />
    <glyph glyph-name="uni1EBA" unicode="&#x1eba;" horiz-adv-x="538" 
d="M512 329q13 -2 20 -12.5t5 -23.5q-6 -39 -22.5 -80.5t-35.5 -77.5t-37 -62.5t-27 -35.5q-13 -15 -23 -25t-19 -16.5t-18.5 -11t-20.5 -8.5q-38 -15 -69.5 -20.5t-72.5 -2.5q-73 4 -127 51q-18 16 -29 35.5t-19 41.5q-5 12 -9.5 30t-6.5 38.5t-0.5 43t7.5 43.5l10.5 28
t9 23.5t9 24t11.5 27.5q9 20 21.5 38t25.5 36q9 13 19.5 24.5t22.5 25.5q-3 6 -6.5 14t-7.5 16q-7 14 -11.5 29t-5.5 31q-1 15 3.5 33t13 35t21 31t27.5 21q27 15 52.5 21t47 6.5t37 -2.5t21.5 -6q20 -11 39.5 -23.5t29.5 -36.5q9 -22 3.5 -41t-25.5 -32q-15 -9 -23.5 -11
t-22.5 4q-9 4 -13 13t-1 19q1 1 1 2t1 2q1 21 -12.5 32.5t-31.5 14t-35.5 -5t-23.5 -24.5q0 -13 -0.5 -26t0.5 -26q1 -14 5.5 -31.5t13.5 -33t22.5 -28t32.5 -17.5q11 -2 21.5 -7t20.5 -10q13 -6 13 -14.5t-12 -15.5q-9 -5 -18.5 -8.5t-21.5 0.5q-10 2 -20 2t-20 2
q-20 2 -31 -4.5t-17 -26.5q-3 -12 -10 -33.5t-14 -43.5t-13 -40t-7 -23q-8 -30 -12 -60t-6 -61q-2 -22 5.5 -40.5t21.5 -33.5q2 -4 9.5 -6t13.5 -2q59 -1 113 25q56 26 97 68.5t64 94.5q12 29 23 60t19 62q0 1 4 1zM295 740q-6 1 -11 4.5t-8.5 8t-5 10.5t-0.5 12
q2 11 7.5 15t14 10.5t16.5 13.5q13 11 19 26q1 5 2 9.5t0 7.5q-4 13 -19 19h-4.5t-3.5 -3q-4 -3 -5 -5t0 -5q7 -17 2 -29.5t-22 -20.5q-12 -5 -23.5 -1t-16.5 17q-2 3 -2.5 5l-0.5 2q-3 12 -3 22t7 19q3 12 9 20.5t14 14.5t17 9.5t17 6.5q3 3 11 2q9 -4 19 -6.5t19 -8.5
q10 -6 18 -14t15 -17q7 -10 10 -21.5t-2 -24.5q-5 -15 -12 -28t-17 -25q-6 -7 -13 -12t-16 -8l-6 -4l-3 -2q-9 -24 -23 -19z" />
    <glyph glyph-name="uni1EBB" unicode="&#x1ebb;" horiz-adv-x="412" 
d="M408 247q6 -17 2.5 -29.5t-11.5 -23.5q-30 -46 -69 -83t-81 -71q-20 -16 -43.5 -21t-47.5 -6q-52 -1 -85 26.5t-52 72.5q-20 48 -20.5 95.5t22.5 95.5q17 37 36 73.5t39 71.5q10 17 24.5 32t40.5 26q29 7 54.5 7t35.5 -2q12 -3 20.5 -9.5t11.5 -19.5q2 -8 9 -13.5
t12 -13.5q12 -23 9.5 -44t-11.5 -41q-2 -6 -12.5 -26t-30 -43t-48 -43t-67.5 -26q-3 0 -9 -2q-14 -23 -22.5 -47.5t-13.5 -50.5q-6 -44 13.5 -65t62.5 -15q14 2 28.5 6.5t25.5 12.5q37 26 72 53t64 62q8 11 14.5 23t14.5 23zM136 255q26 6 43 16t33 21q43 31 55 70.5t2 89.5
q-4 19 -23 17q-23 -36 -37 -62t-23 -44t-14.5 -29.5t-9.5 -18.5q-8 -20 -14.5 -30.5t-11.5 -29.5zM237 549q-6 1 -11 4.5t-8.5 8t-5 10.5t-0.5 12q2 11 7.5 15t14 10.5t16.5 13.5q13 11 19 26q1 5 2 9.5t0 7.5q-4 13 -19 19h-4.5t-3.5 -3q-4 -3 -5 -5t0 -5q7 -17 2 -29.5
t-22 -20.5q-12 -5 -23.5 -1t-16.5 17q-2 3 -2.5 5l-0.5 2q-3 12 -3 22t7 19q3 12 9 20.5t14 14.5t17 9.5t17 6.5q3 3 11 2q9 -4 19 -6.5t19 -8.5q10 -6 18 -14t15 -17q7 -10 10 -21.5t-2 -24.5q-5 -15 -12 -28t-17 -25q-6 -7 -13 -12t-16 -8l-6 -4l-3 -2q-9 -24 -23 -19z
" />
    <glyph glyph-name="uni1EBC" unicode="&#x1ebc;" horiz-adv-x="538" 
d="M512 329q13 -2 20 -12.5t5 -23.5q-6 -39 -22.5 -80.5t-35.5 -77.5t-37 -62.5t-27 -35.5q-13 -15 -23 -25t-19 -16.5t-18.5 -11t-20.5 -8.5q-38 -15 -69.5 -20.5t-72.5 -2.5q-73 4 -127 51q-18 16 -29 35.5t-19 41.5q-5 12 -9.5 30t-6.5 38.5t-0.5 43t7.5 43.5l10.5 28
t9 23.5t9 24t11.5 27.5q9 20 21.5 38t25.5 36q9 13 19.5 24.5t22.5 25.5q-3 6 -6.5 14t-7.5 16q-7 14 -11.5 29t-5.5 31q-1 15 3.5 33t13 35t21 31t27.5 21q27 15 52.5 21t47 6.5t37 -2.5t21.5 -6q20 -11 39.5 -23.5t29.5 -36.5q9 -22 3.5 -41t-25.5 -32q-15 -9 -23.5 -11
t-22.5 4q-9 4 -13 13t-1 19q1 1 1 2t1 2q1 21 -12.5 32.5t-31.5 14t-35.5 -5t-23.5 -24.5q0 -13 -0.5 -26t0.5 -26q1 -14 5.5 -31.5t13.5 -33t22.5 -28t32.5 -17.5q11 -2 21.5 -7t20.5 -10q13 -6 13 -14.5t-12 -15.5q-9 -5 -18.5 -8.5t-21.5 0.5q-10 2 -20 2t-20 2
q-20 2 -31 -4.5t-17 -26.5q-3 -12 -10 -33.5t-14 -43.5t-13 -40t-7 -23q-8 -30 -12 -60t-6 -61q-2 -22 5.5 -40.5t21.5 -33.5q2 -4 9.5 -6t13.5 -2q59 -1 113 25q56 26 97 68.5t64 94.5q12 29 23 60t19 62q0 1 4 1zM327 791q6 5 16.5 18l21 26t23 25t33.5 23q11 -4 15.5 -11
t2.5 -19q-3 -11 -5 -21.5t-6 -21.5q-1 -6 -3.5 -12.5t-4.5 -11.5q-16 -49 -72 -47q-23 1 -41 10.5t-33 24.5q-10 9 -18.5 19t-17.5 19q-3 3 -6.5 5.5t-3.5 1.5q-7 -7 -19 -18.5t-26 -22.5q-17 -14 -40.5 -31.5t-30 21t25.5 69.5q23 20 48 25.5t53 2.5q26 -3 43 -24
q6 -7 11 -15t11 -15q6 -6 13 -12t10 -8z" />
    <glyph glyph-name="uni1EBD" unicode="&#x1ebd;" horiz-adv-x="412" 
d="M408 247q6 -17 2.5 -29.5t-11.5 -23.5q-30 -46 -69 -83t-81 -71q-20 -16 -43.5 -21t-47.5 -6q-52 -1 -85 26.5t-52 72.5q-20 48 -20.5 95.5t22.5 95.5q17 37 36 73.5t39 71.5q10 17 24.5 32t40.5 26q29 7 54.5 7t35.5 -2q12 -3 20.5 -9.5t11.5 -19.5q2 -8 9 -13.5
t12 -13.5q12 -23 9.5 -44t-11.5 -41q-2 -6 -12.5 -26t-30 -43t-48 -43t-67.5 -26q-3 0 -9 -2q-14 -23 -22.5 -47.5t-13.5 -50.5q-6 -44 13.5 -65t62.5 -15q14 2 28.5 6.5t25.5 12.5q37 26 72 53t64 62q8 11 14.5 23t14.5 23zM136 255q26 6 43 16t33 21q43 31 55 70.5t2 89.5
q-4 19 -23 17q-23 -36 -37 -62t-23 -44t-14.5 -29.5t-9.5 -18.5q-8 -20 -14.5 -30.5t-11.5 -29.5zM258 586q6 5 16.5 18l21 26t23 25t33.5 23q11 -4 15.5 -11t2.5 -19q-3 -11 -5 -21.5t-6 -21.5q-1 -6 -3.5 -12.5t-4.5 -11.5q-16 -49 -72 -47q-23 1 -41 10.5t-33 24.5
q-10 9 -18.5 19t-17.5 19q-3 3 -6.5 5.5t-3.5 1.5q-7 -7 -19 -18.5t-26 -22.5q-17 -14 -40.5 -31.5t-30 21t25.5 69.5q23 20 48 25.5t53 2.5q26 -3 43 -24q6 -7 11 -15t11 -15q6 -6 13 -12t10 -8z" />
    <glyph glyph-name="uni1EBE" unicode="&#x1ebe;" horiz-adv-x="538" 
d="M512 329q13 -2 20 -12.5t5 -23.5q-6 -39 -22.5 -80.5t-35.5 -77.5t-37 -62.5t-27 -35.5q-13 -15 -23 -25t-19 -16.5t-18.5 -11t-20.5 -8.5q-38 -15 -69.5 -20.5t-72.5 -2.5q-73 4 -127 51q-18 16 -29 35.5t-19 41.5q-5 12 -9.5 30t-6.5 38.5t-0.5 43t7.5 43.5l10.5 28
t9 23.5t9 24t11.5 27.5q9 20 21.5 38t25.5 36q9 13 19.5 24.5t22.5 25.5q-3 6 -6.5 14t-7.5 16q-7 14 -11.5 29t-5.5 31q-1 15 3.5 33t13 35t21 31t27.5 21q27 15 52.5 21t47 6.5t37 -2.5t21.5 -6q20 -11 39.5 -23.5t29.5 -36.5q9 -22 3.5 -41t-25.5 -32q-15 -9 -23.5 -11
t-22.5 4q-9 4 -13 13t-1 19q1 1 1 2t1 2q1 21 -12.5 32.5t-31.5 14t-35.5 -5t-23.5 -24.5q0 -13 -0.5 -26t0.5 -26q1 -14 5.5 -31.5t13.5 -33t22.5 -28t32.5 -17.5q11 -2 21.5 -7t20.5 -10q13 -6 13 -14.5t-12 -15.5q-9 -5 -18.5 -8.5t-21.5 0.5q-10 2 -20 2t-20 2
q-20 2 -31 -4.5t-17 -26.5q-3 -12 -10 -33.5t-14 -43.5t-13 -40t-7 -23q-8 -30 -12 -60t-6 -61q-2 -22 5.5 -40.5t21.5 -33.5q2 -4 9.5 -6t13.5 -2q59 -1 113 25q56 26 97 68.5t64 94.5q12 29 23 60t19 62q0 1 4 1zM136 732q5 9 8 17.5t8 14.5l54 62t55 63q7 8 15 8t16 -6
q23 -15 46 -31t40 -43q3 -3 7 -5t6 -6q4 -5 8.5 -10.5t8 -11.5t4.5 -14t-2 -18q-2 -6 -1 -11.5t2.5 -12t0.5 -13.5t-5 -13q-18 0 -36 4.5t-35 16.5q-22 16 -44 31.5t-44 31.5q-12 5 -21 -7q-7 -8 -15.5 -14.5t-14.5 -15.5q-9 -12 -27 -15.5t-34 -1.5zM412 828
q-5 10 -3.5 18.5t7.5 16.5q14 15 27.5 32.5t29.5 30.5q18 14 36.5 25.5t37.5 23.5q6 -3 12 -5.5t14 -6.5v-19t-1 -18q-2 -9 -5.5 -16.5t-14.5 -10.5q-4 0 -7 -3t-6 -7q-6 -5 -11 -10.5t-12 -11.5q-42 -35 -104 -39z" />
    <glyph glyph-name="uni1EBF" unicode="&#x1ebf;" horiz-adv-x="412" 
d="M408 247q6 -17 2.5 -29.5t-11.5 -23.5q-30 -46 -69 -83t-81 -71q-20 -16 -43.5 -21t-47.5 -6q-52 -1 -85 26.5t-52 72.5q-20 48 -20.5 95.5t22.5 95.5q17 37 36 73.5t39 71.5q10 17 24.5 32t40.5 26q29 7 54.5 7t35.5 -2q12 -3 20.5 -9.5t11.5 -19.5q2 -8 9 -13.5
t12 -13.5q12 -23 9.5 -44t-11.5 -41q-2 -6 -12.5 -26t-30 -43t-48 -43t-67.5 -26q-3 0 -9 -2q-14 -23 -22.5 -47.5t-13.5 -50.5q-6 -44 13.5 -65t62.5 -15q14 2 28.5 6.5t25.5 12.5q37 26 72 53t64 62q8 11 14.5 23t14.5 23zM136 255q26 6 43 16t33 21q43 31 55 70.5t2 89.5
q-4 19 -23 17q-23 -36 -37 -62t-23 -44t-14.5 -29.5t-9.5 -18.5q-8 -20 -14.5 -30.5t-11.5 -29.5zM75 538q5 9 8 17.5t8 14.5l54 62t55 63q7 8 15 8t16 -6q23 -15 46 -31t40 -43q3 -3 7 -5t6 -6q4 -5 8.5 -10.5t8 -11.5t4.5 -14t-2 -18q-2 -6 -1 -11.5t2.5 -12t0.5 -13.5
t-5 -13q-18 0 -36 4.5t-35 16.5q-22 16 -44 31.5t-44 31.5q-12 5 -21 -7q-7 -8 -15.5 -14.5t-14.5 -15.5q-9 -12 -27 -15.5t-34 -1.5zM335 668q-5 10 -3.5 18.5t7.5 16.5q14 15 27.5 32.5t29.5 30.5q18 14 36.5 25.5t37.5 23.5q6 -3 12 -5.5t14 -6.5v-19t-1 -18
q-2 -9 -5.5 -16.5t-14.5 -10.5q-4 0 -7 -3t-6 -7q-6 -5 -11 -10.5t-12 -11.5q-42 -35 -104 -39z" />
    <glyph glyph-name="uni1EC0" unicode="&#x1ec0;" horiz-adv-x="538" 
d="M512 329q13 -2 20 -12.5t5 -23.5q-6 -39 -22.5 -80.5t-35.5 -77.5t-37 -62.5t-27 -35.5q-13 -15 -23 -25t-19 -16.5t-18.5 -11t-20.5 -8.5q-38 -15 -69.5 -20.5t-72.5 -2.5q-73 4 -127 51q-18 16 -29 35.5t-19 41.5q-5 12 -9.5 30t-6.5 38.5t-0.5 43t7.5 43.5l10.5 28
t9 23.5t9 24t11.5 27.5q9 20 21.5 38t25.5 36q9 13 19.5 24.5t22.5 25.5q-3 6 -6.5 14t-7.5 16q-7 14 -11.5 29t-5.5 31q-1 15 3.5 33t13 35t21 31t27.5 21q27 15 52.5 21t47 6.5t37 -2.5t21.5 -6q20 -11 39.5 -23.5t29.5 -36.5q9 -22 3.5 -41t-25.5 -32q-15 -9 -23.5 -11
t-22.5 4q-9 4 -13 13t-1 19q1 1 1 2t1 2q1 21 -12.5 32.5t-31.5 14t-35.5 -5t-23.5 -24.5q0 -13 -0.5 -26t0.5 -26q1 -14 5.5 -31.5t13.5 -33t22.5 -28t32.5 -17.5q11 -2 21.5 -7t20.5 -10q13 -6 13 -14.5t-12 -15.5q-9 -5 -18.5 -8.5t-21.5 0.5q-10 2 -20 2t-20 2
q-20 2 -31 -4.5t-17 -26.5q-3 -12 -10 -33.5t-14 -43.5t-13 -40t-7 -23q-8 -30 -12 -60t-6 -61q-2 -22 5.5 -40.5t21.5 -33.5q2 -4 9.5 -6t13.5 -2q59 -1 113 25q56 26 97 68.5t64 94.5q12 29 23 60t19 62q0 1 4 1zM138 735q5 9 8 17.5t8 14.5l54 62t55 63q7 8 15 8t16 -6
q23 -15 46 -31t40 -43q3 -3 7 -5t6 -6q4 -5 8.5 -10.5t8 -11.5t4.5 -14t-2 -18q-2 -6 -1 -11.5t2.5 -12t0.5 -13.5t-5 -13q-18 0 -36 4.5t-35 16.5q-22 16 -44 31.5t-44 31.5q-12 5 -21 -7q-7 -8 -15.5 -14.5t-14.5 -15.5q-9 -12 -27 -15.5t-34 -1.5zM181 832q-7 -1 -14 -3
t-15 -1q-27 1 -51.5 11.5t-47.5 27.5q-17 14 -34.5 27.5t-34.5 27.5q37 49 88 28q8 -3 14.5 -10t12.5 -15q21 -20 41.5 -42t41.5 -44z" />
    <glyph glyph-name="uni1EC1" unicode="&#x1ec1;" horiz-adv-x="412" 
d="M408 247q6 -17 2.5 -29.5t-11.5 -23.5q-30 -46 -69 -83t-81 -71q-20 -16 -43.5 -21t-47.5 -6q-52 -1 -85 26.5t-52 72.5q-20 48 -20.5 95.5t22.5 95.5q17 37 36 73.5t39 71.5q10 17 24.5 32t40.5 26q29 7 54.5 7t35.5 -2q12 -3 20.5 -9.5t11.5 -19.5q2 -8 9 -13.5
t12 -13.5q12 -23 9.5 -44t-11.5 -41q-2 -6 -12.5 -26t-30 -43t-48 -43t-67.5 -26q-3 0 -9 -2q-14 -23 -22.5 -47.5t-13.5 -50.5q-6 -44 13.5 -65t62.5 -15q14 2 28.5 6.5t25.5 12.5q37 26 72 53t64 62q8 11 14.5 23t14.5 23zM136 255q26 6 43 16t33 21q43 31 55 70.5t2 89.5
q-4 19 -23 17q-23 -36 -37 -62t-23 -44t-14.5 -29.5t-9.5 -18.5q-8 -20 -14.5 -30.5t-11.5 -29.5zM76 539q5 9 8 17.5t8 14.5l54 62t55 63q7 8 15 8t16 -6q23 -15 46 -31t40 -43q3 -3 7 -5t6 -6q4 -5 8.5 -10.5t8 -11.5t4.5 -14t-2 -18q-2 -6 -1 -11.5t2.5 -12t0.5 -13.5
t-5 -13q-18 0 -36 4.5t-35 16.5q-22 16 -44 31.5t-44 31.5q-12 5 -21 -7q-7 -8 -15.5 -14.5t-14.5 -15.5q-9 -12 -27 -15.5t-34 -1.5zM138 672q-7 -1 -14 -3t-15 -1q-27 1 -51.5 11.5t-47.5 27.5q-17 14 -34.5 27.5t-34.5 27.5q37 49 88 28q8 -3 14.5 -10t12.5 -15
q21 -20 41.5 -42t41.5 -44z" />
    <glyph glyph-name="uni1EC2" unicode="&#x1ec2;" horiz-adv-x="538" 
d="M512 329q13 -2 20 -12.5t5 -23.5q-6 -39 -22.5 -80.5t-35.5 -77.5t-37 -62.5t-27 -35.5q-13 -15 -23 -25t-19 -16.5t-18.5 -11t-20.5 -8.5q-38 -15 -69.5 -20.5t-72.5 -2.5q-73 4 -127 51q-18 16 -29 35.5t-19 41.5q-5 12 -9.5 30t-6.5 38.5t-0.5 43t7.5 43.5l10.5 28
t9 23.5t9 24t11.5 27.5q9 20 21.5 38t25.5 36q9 13 19.5 24.5t22.5 25.5q-3 6 -6.5 14t-7.5 16q-7 14 -11.5 29t-5.5 31q-1 15 3.5 33t13 35t21 31t27.5 21q27 15 52.5 21t47 6.5t37 -2.5t21.5 -6q20 -11 39.5 -23.5t29.5 -36.5q9 -22 3.5 -41t-25.5 -32q-15 -9 -23.5 -11
t-22.5 4q-9 4 -13 13t-1 19q1 1 1 2t1 2q1 21 -12.5 32.5t-31.5 14t-35.5 -5t-23.5 -24.5q0 -13 -0.5 -26t0.5 -26q1 -14 5.5 -31.5t13.5 -33t22.5 -28t32.5 -17.5q11 -2 21.5 -7t20.5 -10q13 -6 13 -14.5t-12 -15.5q-9 -5 -18.5 -8.5t-21.5 0.5q-10 2 -20 2t-20 2
q-20 2 -31 -4.5t-17 -26.5q-3 -12 -10 -33.5t-14 -43.5t-13 -40t-7 -23q-8 -30 -12 -60t-6 -61q-2 -22 5.5 -40.5t21.5 -33.5q2 -4 9.5 -6t13.5 -2q59 -1 113 25q56 26 97 68.5t64 94.5q12 29 23 60t19 62q0 1 4 1zM136 735q5 9 8 17.5t8 14.5l54 62t55 63q7 8 15 8t16 -6
q23 -15 46 -31t40 -43q3 -3 7 -5t6 -6q4 -5 8.5 -10.5t8 -11.5t4.5 -14t-2 -18q-2 -6 -1 -11.5t2.5 -12t0.5 -13.5t-5 -13q-18 0 -36 4.5t-35 16.5q-22 16 -44 31.5t-44 31.5q-12 5 -21 -7q-7 -8 -15.5 -14.5t-14.5 -15.5q-9 -12 -27 -15.5t-34 -1.5zM430 816q-6 1 -11 4.5
t-8.5 8t-5 10.5t-0.5 12q2 11 7.5 15t14 10.5t16.5 13.5q13 11 19 26q1 5 2 9.5t0 7.5q-4 13 -19 19h-4.5t-3.5 -3q-4 -3 -5 -5t0 -5q7 -17 2 -29.5t-22 -20.5q-12 -5 -23.5 -1t-16.5 17q-2 3 -2.5 5l-0.5 2q-3 12 -3 22t7 19q3 12 9 20.5t14 14.5t17 9.5t17 6.5q3 3 11 2
q9 -4 19 -6.5t19 -8.5q10 -6 18 -14t15 -17q7 -10 10 -21.5t-2 -24.5q-5 -15 -12 -28t-17 -25q-6 -7 -13 -12t-16 -8l-6 -4l-3 -2q-9 -24 -23 -19z" />
    <glyph glyph-name="uni1EC3" unicode="&#x1ec3;" horiz-adv-x="412" 
d="M408 247q6 -17 2.5 -29.5t-11.5 -23.5q-30 -46 -69 -83t-81 -71q-20 -16 -43.5 -21t-47.5 -6q-52 -1 -85 26.5t-52 72.5q-20 48 -20.5 95.5t22.5 95.5q17 37 36 73.5t39 71.5q10 17 24.5 32t40.5 26q29 7 54.5 7t35.5 -2q12 -3 20.5 -9.5t11.5 -19.5q2 -8 9 -13.5
t12 -13.5q12 -23 9.5 -44t-11.5 -41q-2 -6 -12.5 -26t-30 -43t-48 -43t-67.5 -26q-3 0 -9 -2q-14 -23 -22.5 -47.5t-13.5 -50.5q-6 -44 13.5 -65t62.5 -15q14 2 28.5 6.5t25.5 12.5q37 26 72 53t64 62q8 11 14.5 23t14.5 23zM136 255q26 6 43 16t33 21q43 31 55 70.5t2 89.5
q-4 19 -23 17q-23 -36 -37 -62t-23 -44t-14.5 -29.5t-9.5 -18.5q-8 -20 -14.5 -30.5t-11.5 -29.5zM76 539q5 9 8 17.5t8 14.5l54 62t55 63q7 8 15 8t16 -6q23 -15 46 -31t40 -43q3 -3 7 -5t6 -6q4 -5 8.5 -10.5t8 -11.5t4.5 -14t-2 -18q-2 -6 -1 -11.5t2.5 -12t0.5 -13.5
t-5 -13q-18 0 -36 4.5t-35 16.5q-22 16 -44 31.5t-44 31.5q-12 5 -21 -7q-7 -8 -15.5 -14.5t-14.5 -15.5q-9 -12 -27 -15.5t-34 -1.5zM349 646q-6 1 -11 4.5t-8.5 8t-5 10.5t-0.5 12q2 11 7.5 15t14 10.5t16.5 13.5q13 11 19 26q1 5 2 9.5t0 7.5q-4 13 -19 19h-4.5t-3.5 -3
q-4 -3 -5 -5t0 -5q7 -17 2 -29.5t-22 -20.5q-12 -5 -23.5 -1t-16.5 17q-2 3 -2.5 5l-0.5 2q-3 12 -3 22t7 19q3 12 9 20.5t14 14.5t17 9.5t17 6.5q3 3 11 2q9 -4 19 -6.5t19 -8.5q10 -6 18 -14t15 -17q7 -10 10 -21.5t-2 -24.5q-5 -15 -12 -28t-17 -25q-6 -7 -13 -12t-16 -8
l-6 -4l-3 -2q-9 -24 -23 -19z" />
    <glyph glyph-name="uni1EC4" unicode="&#x1ec4;" horiz-adv-x="538" 
d="M512 329q13 -2 20 -12.5t5 -23.5q-6 -39 -22.5 -80.5t-35.5 -77.5t-37 -62.5t-27 -35.5q-13 -15 -23 -25t-19 -16.5t-18.5 -11t-20.5 -8.5q-38 -15 -69.5 -20.5t-72.5 -2.5q-73 4 -127 51q-18 16 -29 35.5t-19 41.5q-5 12 -9.5 30t-6.5 38.5t-0.5 43t7.5 43.5l10.5 28
t9 23.5t9 24t11.5 27.5q9 20 21.5 38t25.5 36q9 13 19.5 24.5t22.5 25.5q-3 6 -6.5 14t-7.5 16q-7 14 -11.5 29t-5.5 31q-1 15 3.5 33t13 35t21 31t27.5 21q27 15 52.5 21t47 6.5t37 -2.5t21.5 -6q20 -11 39.5 -23.5t29.5 -36.5q9 -22 3.5 -41t-25.5 -32q-15 -9 -23.5 -11
t-22.5 4q-9 4 -13 13t-1 19q1 1 1 2t1 2q1 21 -12.5 32.5t-31.5 14t-35.5 -5t-23.5 -24.5q0 -13 -0.5 -26t0.5 -26q1 -14 5.5 -31.5t13.5 -33t22.5 -28t32.5 -17.5q11 -2 21.5 -7t20.5 -10q13 -6 13 -14.5t-12 -15.5q-9 -5 -18.5 -8.5t-21.5 0.5q-10 2 -20 2t-20 2
q-20 2 -31 -4.5t-17 -26.5q-3 -12 -10 -33.5t-14 -43.5t-13 -40t-7 -23q-8 -30 -12 -60t-6 -61q-2 -22 5.5 -40.5t21.5 -33.5q2 -4 9.5 -6t13.5 -2q59 -1 113 25q56 26 97 68.5t64 94.5q12 29 23 60t19 62q0 1 4 1zM136 735q5 9 8 17.5t8 14.5l54 62t55 63q7 8 15 8t16 -6
q23 -15 46 -31t40 -43q3 -3 7 -5t6 -6q4 -5 8.5 -10.5t8 -11.5t4.5 -14t-2 -18q-2 -6 -1 -11.5t2.5 -12t0.5 -13.5t-5 -13q-18 0 -36 4.5t-35 16.5q-22 16 -44 31.5t-44 31.5q-12 5 -21 -7q-7 -8 -15.5 -14.5t-14.5 -15.5q-9 -12 -27 -15.5t-34 -1.5zM406 947q6 5 16.5 18
l21 26t23 25t33.5 23q11 -4 15.5 -11t2.5 -19q-3 -11 -5 -21.5t-6 -21.5q-1 -6 -3.5 -12.5t-4.5 -11.5q-16 -49 -72 -47q-23 1 -41 10.5t-33 24.5q-10 9 -18.5 19t-17.5 19q-3 3 -6.5 5.5t-3.5 1.5q-7 -7 -19 -18.5t-26 -22.5q-17 -14 -40.5 -31.5t-30 21t25.5 69.5
q23 20 48 25.5t53 2.5q26 -3 43 -24q6 -7 11 -15t11 -15q6 -6 13 -12t10 -8z" />
    <glyph glyph-name="uni1EC5" unicode="&#x1ec5;" horiz-adv-x="412" 
d="M408 247q6 -17 2.5 -29.5t-11.5 -23.5q-30 -46 -69 -83t-81 -71q-20 -16 -43.5 -21t-47.5 -6q-52 -1 -85 26.5t-52 72.5q-20 48 -20.5 95.5t22.5 95.5q17 37 36 73.5t39 71.5q10 17 24.5 32t40.5 26q29 7 54.5 7t35.5 -2q12 -3 20.5 -9.5t11.5 -19.5q2 -8 9 -13.5
t12 -13.5q12 -23 9.5 -44t-11.5 -41q-2 -6 -12.5 -26t-30 -43t-48 -43t-67.5 -26q-3 0 -9 -2q-14 -23 -22.5 -47.5t-13.5 -50.5q-6 -44 13.5 -65t62.5 -15q14 2 28.5 6.5t25.5 12.5q37 26 72 53t64 62q8 11 14.5 23t14.5 23zM136 255q26 6 43 16t33 21q43 31 55 70.5t2 89.5
q-4 19 -23 17q-23 -36 -37 -62t-23 -44t-14.5 -29.5t-9.5 -18.5q-8 -20 -14.5 -30.5t-11.5 -29.5zM76 538q5 9 8 17.5t8 14.5l54 62t55 63q7 8 15 8t16 -6q23 -15 46 -31t40 -43q3 -3 7 -5t6 -6q4 -5 8.5 -10.5t8 -11.5t4.5 -14t-2 -18q-2 -6 -1 -11.5t2.5 -12t0.5 -13.5
t-5 -13q-18 0 -36 4.5t-35 16.5q-22 16 -44 31.5t-44 31.5q-12 5 -21 -7q-7 -8 -15.5 -14.5t-14.5 -15.5q-9 -12 -27 -15.5t-34 -1.5zM325 742q6 5 16.5 18l21 26t23 25t33.5 23q11 -4 15.5 -11t2.5 -19q-3 -11 -5 -21.5t-6 -21.5q-1 -6 -3.5 -12.5t-4.5 -11.5
q-16 -49 -72 -47q-23 1 -41 10.5t-33 24.5q-10 9 -18.5 19t-17.5 19q-3 3 -6.5 5.5t-3.5 1.5q-7 -7 -19 -18.5t-26 -22.5q-17 -14 -40.5 -31.5t-30 21t25.5 69.5q23 20 48 25.5t53 2.5q26 -3 43 -24q6 -7 11 -15t11 -15q6 -6 13 -12t10 -8z" />
    <glyph glyph-name="uni1EC6" unicode="&#x1ec6;" horiz-adv-x="538" 
d="M512 329q13 -2 20 -12.5t5 -23.5q-6 -39 -22.5 -80.5t-35.5 -77.5t-37 -62.5t-27 -35.5q-13 -15 -23 -25t-19 -16.5t-18.5 -11t-20.5 -8.5q-38 -15 -69.5 -20.5t-72.5 -2.5q-73 4 -127 51q-18 16 -29 35.5t-19 41.5q-5 12 -9.5 30t-6.5 38.5t-0.5 43t7.5 43.5l10.5 28
t9 23.5t9 24t11.5 27.5q9 20 21.5 38t25.5 36q9 13 19.5 24.5t22.5 25.5q-3 6 -6.5 14t-7.5 16q-7 14 -11.5 29t-5.5 31q-1 15 3.5 33t13 35t21 31t27.5 21q27 15 52.5 21t47 6.5t37 -2.5t21.5 -6q20 -11 39.5 -23.5t29.5 -36.5q9 -22 3.5 -41t-25.5 -32q-15 -9 -23.5 -11
t-22.5 4q-9 4 -13 13t-1 19q1 1 1 2t1 2q1 21 -12.5 32.5t-31.5 14t-35.5 -5t-23.5 -24.5q0 -13 -0.5 -26t0.5 -26q1 -14 5.5 -31.5t13.5 -33t22.5 -28t32.5 -17.5q11 -2 21.5 -7t20.5 -10q13 -6 13 -14.5t-12 -15.5q-9 -5 -18.5 -8.5t-21.5 0.5q-10 2 -20 2t-20 2
q-20 2 -31 -4.5t-17 -26.5q-3 -12 -10 -33.5t-14 -43.5t-13 -40t-7 -23q-8 -30 -12 -60t-6 -61q-2 -22 5.5 -40.5t21.5 -33.5q2 -4 9.5 -6t13.5 -2q59 -1 113 25q56 26 97 68.5t64 94.5q12 29 23 60t19 62q0 1 4 1zM136 735q5 9 8 17.5t8 14.5l54 62t55 63q7 8 15 8t16 -6
q23 -15 46 -31t40 -43q3 -3 7 -5t6 -6q4 -5 8.5 -10.5t8 -11.5t4.5 -14t-2 -18q-2 -6 -1 -11.5t2.5 -12t0.5 -13.5t-5 -13q-18 0 -36 4.5t-35 16.5q-22 16 -44 31.5t-44 31.5q-12 5 -21 -7q-7 -8 -15.5 -14.5t-14.5 -15.5q-9 -12 -27 -15.5t-34 -1.5zM164 -258q1 0 -4.5 1
t-14 7t-18.5 19.5t-17 39.5q-4 14 0.5 26t15.5 20q20 14 41 22t44 15q19 5 30.5 -5t13.5 -30q0 -13 -0.5 -25.5t-1.5 -26.5q-2 -22 -18 -37l-2 -2q-5 -12 -10.5 -17.5t-13.5 -8t-18.5 -1.5t-26.5 3z" />
    <glyph glyph-name="uni1EC7" unicode="&#x1ec7;" horiz-adv-x="412" 
d="M408 247q6 -17 2.5 -29.5t-11.5 -23.5q-30 -46 -69 -83t-81 -71q-20 -16 -43.5 -21t-47.5 -6q-52 -1 -85 26.5t-52 72.5q-20 48 -20.5 95.5t22.5 95.5q17 37 36 73.5t39 71.5q10 17 24.5 32t40.5 26q29 7 54.5 7t35.5 -2q12 -3 20.5 -9.5t11.5 -19.5q2 -8 9 -13.5
t12 -13.5q12 -23 9.5 -44t-11.5 -41q-2 -6 -12.5 -26t-30 -43t-48 -43t-67.5 -26q-3 0 -9 -2q-14 -23 -22.5 -47.5t-13.5 -50.5q-6 -44 13.5 -65t62.5 -15q14 2 28.5 6.5t25.5 12.5q37 26 72 53t64 62q8 11 14.5 23t14.5 23zM136 255q26 6 43 16t33 21q43 31 55 70.5t2 89.5
q-4 19 -23 17q-23 -36 -37 -62t-23 -44t-14.5 -29.5t-9.5 -18.5q-8 -20 -14.5 -30.5t-11.5 -29.5zM76 538q5 9 8 17.5t8 14.5l54 62t55 63q7 8 15 8t16 -6q23 -15 46 -31t40 -43q3 -3 7 -5t6 -6q4 -5 8.5 -10.5t8 -11.5t4.5 -14t-2 -18q-2 -6 -1 -11.5t2.5 -12t0.5 -13.5
t-5 -13q-18 0 -36 4.5t-35 16.5q-22 16 -44 31.5t-44 31.5q-12 5 -21 -7q-7 -8 -15.5 -14.5t-14.5 -15.5q-9 -12 -27 -15.5t-34 -1.5zM98 -170q1 0 -4.5 1t-14 7t-18.5 19.5t-17 39.5q-4 14 0.5 26t15.5 20q20 14 41 22t44 15q19 5 30.5 -5t13.5 -30q0 -13 -0.5 -25.5
t-1.5 -26.5q-2 -22 -18 -37l-2 -2q-5 -12 -10.5 -17.5t-13.5 -8t-18.5 -1.5t-26.5 3z" />
    <glyph glyph-name="uni1EC8" unicode="&#x1ec8;" horiz-adv-x="285" 
d="M218 50q8 -7 17.5 -6.5t20.5 -1.5q20 -2 25.5 -11.5t-0.5 -32.5q-12 -1 -24 -2.5t-24 -1.5q-26 -1 -52.5 -0.5t-52.5 1.5q-6 0 -11.5 1.5t-10.5 3.5q-11 2 -22.5 3.5t-23.5 3.5q-14 2 -28.5 2.5t-31.5 1.5q0 13 6 19.5t15 9t19 3t18 1.5q-1 12 0.5 54t4 98.5t5.5 120
t6.5 119.5t7 97t6.5 53q2 5 2 9.5v6.5q-21 14 -41 26.5t-42 26.5q13 9 23.5 10t21.5 -2q38 -9 75 -18t75 -20q11 -3 20.5 -9.5t19.5 -12.5q3 -2 5.5 -7t0.5 -7q-4 -9 -13 -11q-10 -2 -19.5 -2h-19.5q1 -10 4 -45t5.5 -83.5t5.5 -103t5.5 -102.5t4.5 -83.5t2 -45.5
q0 -15 -1.5 -30t-3.5 -33zM140 679q-6 1 -11 4.5t-8.5 8t-5 10.5t-0.5 12q2 11 7.5 15t14 10.5t16.5 13.5q13 11 19 26q1 5 2 9.5t0 7.5q-4 13 -19 19h-4.5t-3.5 -3q-4 -3 -5 -5t0 -5q7 -17 2 -29.5t-22 -20.5q-12 -5 -23.5 -1t-16.5 17q-2 3 -2.5 5l-0.5 2q-3 12 -3 22
t7 19q3 12 9 20.5t14 14.5t17 9.5t17 6.5q3 3 11 2q9 -4 19 -6.5t19 -8.5q10 -6 18 -14t15 -17q7 -10 10 -21.5t-2 -24.5q-5 -15 -12 -28t-17 -25q-6 -7 -13 -12t-16 -8l-6 -4l-3 -2q-9 -24 -23 -19z" />
    <glyph glyph-name="uni1EC9" unicode="&#x1ec9;" horiz-adv-x="330" 
d="M123 472q14 2 23 2.5t15 -2.5t10.5 -9.5t10.5 -17.5q7 -14 11 -28t2 -31q-2 -21 -9 -55t-16 -72.5t-19 -78t-17.5 -72.5t-10.5 -56t2 -27q8 -5 11.5 -4.5t7.5 2.5q14 10 33.5 33.5t39.5 51.5t38 54.5t29 42.5q7 10 15.5 18.5t16.5 17.5q9 -2 12 -6t-2 -11
q-32 -42 -58 -88.5t-63 -84.5q-9 -9 -17.5 -18.5t-17.5 -18.5q-10 -10 -29.5 -14.5t-40.5 -3.5t-40.5 6t-29.5 15q-23 22 -27 57q-5 54 2 104t23 101q9 29 15 59t14 59q3 10 8 23t13 25t19 20t26 7zM140 509q-6 1 -11 4.5t-8.5 8t-5 10.5t-0.5 12q2 11 7.5 15t14 10.5
t16.5 13.5q13 11 19 26q1 5 2 9.5t0 7.5q-4 13 -19 19h-4.5t-3.5 -3q-4 -3 -5 -5t0 -5q7 -17 2 -29.5t-22 -20.5q-12 -5 -23.5 -1t-16.5 17q-2 3 -2.5 5l-0.5 2q-3 12 -3 22t7 19q3 12 9 20.5t14 14.5t17 9.5t17 6.5q3 3 11 2q9 -4 19 -6.5t19 -8.5q10 -6 18 -14t15 -17
q7 -10 10 -21.5t-2 -24.5q-5 -15 -12 -28t-17 -25q-6 -7 -13 -12t-16 -8l-6 -4l-3 -2q-9 -24 -23 -19z" />
    <glyph glyph-name="uni1ECA" unicode="&#x1eca;" horiz-adv-x="285" 
d="M218 50q8 -7 17.5 -6.5t20.5 -1.5q20 -2 25.5 -11.5t-0.5 -32.5q-12 -1 -24 -2.5t-24 -1.5q-26 -1 -52.5 -0.5t-52.5 1.5q-6 0 -11.5 1.5t-10.5 3.5q-11 2 -22.5 3.5t-23.5 3.5q-14 2 -28.5 2.5t-31.5 1.5q0 13 6 19.5t15 9t19 3t18 1.5q-1 12 0.5 54t4 98.5t5.5 120
t6.5 119.5t7 97t6.5 53q2 5 2 9.5v6.5q-21 14 -41 26.5t-42 26.5q13 9 23.5 10t21.5 -2q38 -9 75 -18t75 -20q11 -3 20.5 -9.5t19.5 -12.5q3 -2 5.5 -7t0.5 -7q-4 -9 -13 -11q-10 -2 -19.5 -2h-19.5q1 -10 4 -45t5.5 -83.5t5.5 -103t5.5 -102.5t4.5 -83.5t2 -45.5
q0 -15 -1.5 -30t-3.5 -33zM125 -171q1 0 -4.5 1t-14 7t-18.5 19.5t-17 39.5q-4 14 0.5 26t15.5 20q20 14 41 22t44 15q19 5 30.5 -5t13.5 -30q0 -13 -0.5 -25.5t-1.5 -26.5q-2 -22 -18 -37l-2 -2q-5 -12 -10.5 -17.5t-13.5 -8t-18.5 -1.5t-26.5 3z" />
    <glyph glyph-name="uni1ECB" unicode="&#x1ecb;" horiz-adv-x="330" 
d="M123 472q14 2 23 2.5t15 -2.5t10.5 -9.5t10.5 -17.5q7 -14 11 -28t2 -31q-2 -21 -9 -55t-16 -72.5t-19 -78t-17.5 -72.5t-10.5 -56t2 -27q8 -5 11.5 -4.5t7.5 2.5q14 10 33.5 33.5t39.5 51.5t38 54.5t29 42.5q7 10 15.5 18.5t16.5 17.5q9 -2 12 -6t-2 -11
q-32 -42 -58 -88.5t-63 -84.5q-9 -9 -17.5 -18.5t-17.5 -18.5q-10 -10 -29.5 -14.5t-40.5 -3.5t-40.5 6t-29.5 15q-23 22 -27 57q-5 54 2 104t23 101q9 29 15 59t14 59q3 10 8 23t13 25t19 20t26 7zM205 599q-2 -5 -2.5 -13t-5.5 -15q-14 -21 -37 -22.5t-40 16.5
q-20 20 -19 31.5t25 27.5q22 13 46 18q17 3 23.5 -4t7.5 -24q0 -2 0.5 -5.5t1.5 -9.5zM51 -210q1 0 -4.5 1t-14 7t-18.5 19.5t-17 39.5q-4 14 0.5 26t15.5 20q20 14 41 22t44 15q19 5 30.5 -5t13.5 -30q0 -13 -0.5 -25.5t-1.5 -26.5q-2 -22 -18 -37l-2 -2
q-5 -12 -10.5 -17.5t-13.5 -8t-18.5 -1.5t-26.5 3z" />
    <glyph glyph-name="uni1ECC" unicode="&#x1ecc;" horiz-adv-x="622" 
d="M338 684q7 -27 -2.5 -51t-19.5 -49h18q21 2 37.5 -6t30.5 -21q4 -5 6 -9q3 -11 9 -28.5t11.5 -49.5t8.5 -81.5t0 -123.5q16 -7 31 -4.5t29 9.5q23 11 44.5 21.5t43.5 24.5q26 17 34 4q5 -8 2.5 -17t-12.5 -14q-14 -8 -33.5 -17.5t-40 -17.5t-39.5 -14t-31 -7
q-17 -2 -24.5 -8.5t-11.5 -21.5q-9 -39 -26 -74t-40 -67q-12 -17 -24 -33t-26 -31q-9 -10 -19.5 -14t-23.5 -6q-9 -1 -36 -3.5t-61.5 4t-71 27.5t-64.5 66q-15 28 -21.5 58.5t-11.5 61.5q-8 52 0.5 101t24.5 97q17 51 36.5 99.5t49.5 93.5q11 17 24 32.5t26 31.5
q9 11 20.5 16t24.5 10q27 10 54.5 13t56.5 3q4 0 8 -1.5t9 -3.5zM240 441q-17 -36 -33 -77t-26.5 -89t-13 -103.5t6.5 -119.5q1 -5 4 -11t8 -8q14 -8 29.5 -10.5t30.5 4.5q17 8 30.5 20.5t21.5 29.5q10 16 18.5 45.5t15.5 59t10.5 52.5t3.5 26q-1 5 -2 11t-5 10
q-29 36 -52.5 75.5t-46.5 84.5zM351 328q2 0 4 0.5t4 0.5q0 9 -0.5 18t-1.5 18q-1 16 -4 44.5t-7.5 57.5t-9.5 53t-11 30q-5 7 -13.5 13.5t-18.5 0.5q-8 -6 -12 -17t-2 -22q0 -3 1 -5.5t1 -5.5q4 -18 7.5 -35.5t4.5 -36.5q2 -35 18.5 -62.5t39.5 -51.5zM132 -230q1 0 -4.5 1
t-14 7t-18.5 19.5t-17 39.5q-4 14 0.5 26t15.5 20q20 14 41 22t44 15q19 5 30.5 -5t13.5 -30q0 -13 -0.5 -25.5t-1.5 -26.5q-2 -22 -18 -37l-2 -2q-5 -12 -10.5 -17.5t-13.5 -8t-18.5 -1.5t-26.5 3z" />
    <glyph glyph-name="uni1ECD" unicode="&#x1ecd;" horiz-adv-x="470" 
d="M199 446q11 2 20 3t18 3q30 4 50 -13.5t32 -38.5q3 -6 9.5 -22t12.5 -37.5t9 -46.5t0 -49q-2 -8 -4 -15t-4 -16q10 0 18 -1t16 1q15 5 30.5 10t29.5 11q5 2 9.5 4t9.5 2q4 0 7.5 -3t7.5 -5q0 -3 -7 -9t-17 -12t-21 -11.5t-18 -6.5q-15 -3 -31 -4t-35 -3q-1 -2 -7.5 -16
t-15.5 -31.5t-18 -34t-13 -22.5q-50 -71 -135 -61q-27 3 -51.5 15.5t-43.5 31t-32.5 42.5t-18.5 50q-5 21 -6 42.5t3 42.5q9 54 22 105.5t40 99.5q13 22 31 43q13 14 21 15t25 -7q18 -10 34.5 -22t22.5 -34zM289 214q-22 23 -43.5 46t-43.5 46q-5 -12 -10 -24.5t-10 -25.5
q-8 -21 -16.5 -42t-17.5 -42q-22 -52 5 -101q9 -17 20 -20.5t28 4.5q15 7 24 19t15 26q13 29 25 57t24 57zM228 434q-3 -17 -6 -32t-5 -31q-2 -14 -0.5 -29t10.5 -28q7 -9 12.5 -17.5t13.5 -16.5q8 -10 17.5 -18.5t19.5 -16.5q3 7 6 17.5t3.5 28t-2 43.5t-10.5 64
q-5 19 -20.5 28.5t-38.5 7.5zM132 -167q1 0 -4.5 1t-14 7t-18.5 19.5t-17 39.5q-4 14 0.5 26t15.5 20q20 14 41 22t44 15q19 5 30.5 -5t13.5 -30q0 -13 -0.5 -25.5t-1.5 -26.5q-2 -22 -18 -37l-2 -2q-5 -12 -10.5 -17.5t-13.5 -8t-18.5 -1.5t-26.5 3z" />
    <glyph glyph-name="uni1ECE" unicode="&#x1ece;" horiz-adv-x="622" 
d="M338 684q7 -27 -2.5 -51t-19.5 -49h18q21 2 37.5 -6t30.5 -21q4 -5 6 -9q3 -11 9 -28.5t11.5 -49.5t8.5 -81.5t0 -123.5q16 -7 31 -4.5t29 9.5q23 11 44.5 21.5t43.5 24.5q26 17 34 4q5 -8 2.5 -17t-12.5 -14q-14 -8 -33.5 -17.5t-40 -17.5t-39.5 -14t-31 -7
q-17 -2 -24.5 -8.5t-11.5 -21.5q-9 -39 -26 -74t-40 -67q-12 -17 -24 -33t-26 -31q-9 -10 -19.5 -14t-23.5 -6q-9 -1 -36 -3.5t-61.5 4t-71 27.5t-64.5 66q-15 28 -21.5 58.5t-11.5 61.5q-8 52 0.5 101t24.5 97q17 51 36.5 99.5t49.5 93.5q11 17 24 32.5t26 31.5
q9 11 20.5 16t24.5 10q27 10 54.5 13t56.5 3q4 0 8 -1.5t9 -3.5zM240 441q-17 -36 -33 -77t-26.5 -89t-13 -103.5t6.5 -119.5q1 -5 4 -11t8 -8q14 -8 29.5 -10.5t30.5 4.5q17 8 30.5 20.5t21.5 29.5q10 16 18.5 45.5t15.5 59t10.5 52.5t3.5 26q-1 5 -2 11t-5 10
q-29 36 -52.5 75.5t-46.5 84.5zM351 328q2 0 4 0.5t4 0.5q0 9 -0.5 18t-1.5 18q-1 16 -4 44.5t-7.5 57.5t-9.5 53t-11 30q-5 7 -13.5 13.5t-18.5 0.5q-8 -6 -12 -17t-2 -22q0 -3 1 -5.5t1 -5.5q4 -18 7.5 -35.5t4.5 -36.5q2 -35 18.5 -62.5t39.5 -51.5zM307 722
q-6 1 -11 4.5t-8.5 8t-5 10.5t-0.5 12q2 11 7.5 15t14 10.5t16.5 13.5q13 11 19 26q1 5 2 9.5t0 7.5q-4 13 -19 19h-4.5t-3.5 -3q-4 -3 -5 -5t0 -5q7 -17 2 -29.5t-22 -20.5q-12 -5 -23.5 -1t-16.5 17q-2 3 -2.5 5l-0.5 2q-3 12 -3 22t7 19q3 12 9 20.5t14 14.5t17 9.5
t17 6.5q3 3 11 2q9 -4 19 -6.5t19 -8.5q10 -6 18 -14t15 -17q7 -10 10 -21.5t-2 -24.5q-5 -15 -12 -28t-17 -25q-6 -7 -13 -12t-16 -8l-6 -4l-3 -2q-9 -24 -23 -19z" />
    <glyph glyph-name="uni1ECF" unicode="&#x1ecf;" horiz-adv-x="470" 
d="M199 446q11 2 20 3t18 3q30 4 50 -13.5t32 -38.5q3 -6 9.5 -22t12.5 -37.5t9 -46.5t0 -49q-2 -8 -4 -15t-4 -16q10 0 18 -1t16 1q15 5 30.5 10t29.5 11q5 2 9.5 4t9.5 2q4 0 7.5 -3t7.5 -5q0 -3 -7 -9t-17 -12t-21 -11.5t-18 -6.5q-15 -3 -31 -4t-35 -3q-1 -2 -7.5 -16
t-15.5 -31.5t-18 -34t-13 -22.5q-50 -71 -135 -61q-27 3 -51.5 15.5t-43.5 31t-32.5 42.5t-18.5 50q-5 21 -6 42.5t3 42.5q9 54 22 105.5t40 99.5q13 22 31 43q13 14 21 15t25 -7q18 -10 34.5 -22t22.5 -34zM289 214q-22 23 -43.5 46t-43.5 46q-5 -12 -10 -24.5t-10 -25.5
q-8 -21 -16.5 -42t-17.5 -42q-22 -52 5 -101q9 -17 20 -20.5t28 4.5q15 7 24 19t15 26q13 29 25 57t24 57zM228 434q-3 -17 -6 -32t-5 -31q-2 -14 -0.5 -29t10.5 -28q7 -9 12.5 -17.5t13.5 -16.5q8 -10 17.5 -18.5t19.5 -16.5q3 7 6 17.5t3.5 28t-2 43.5t-10.5 64
q-5 19 -20.5 28.5t-38.5 7.5zM216 509q-6 1 -11 4.5t-8.5 8t-5 10.5t-0.5 12q2 11 7.5 15t14 10.5t16.5 13.5q13 11 19 26q1 5 2 9.5t0 7.5q-4 13 -19 19h-4.5t-3.5 -3q-4 -3 -5 -5t0 -5q7 -17 2 -29.5t-22 -20.5q-12 -5 -23.5 -1t-16.5 17q-2 3 -2.5 5l-0.5 2q-3 12 -3 22
t7 19q3 12 9 20.5t14 14.5t17 9.5t17 6.5q3 3 11 2q9 -4 19 -6.5t19 -8.5q10 -6 18 -14t15 -17q7 -10 10 -21.5t-2 -24.5q-5 -15 -12 -28t-17 -25q-6 -7 -13 -12t-16 -8l-6 -4l-3 -2q-9 -24 -23 -19z" />
    <glyph glyph-name="uni1ED0" unicode="&#x1ed0;" horiz-adv-x="622" 
d="M338 684q7 -27 -2.5 -51t-19.5 -49h18q21 2 37.5 -6t30.5 -21q4 -5 6 -9q3 -11 9 -28.5t11.5 -49.5t8.5 -81.5t0 -123.5q16 -7 31 -4.5t29 9.5q23 11 44.5 21.5t43.5 24.5q26 17 34 4q5 -8 2.5 -17t-12.5 -14q-14 -8 -33.5 -17.5t-40 -17.5t-39.5 -14t-31 -7
q-17 -2 -24.5 -8.5t-11.5 -21.5q-9 -39 -26 -74t-40 -67q-12 -17 -24 -33t-26 -31q-9 -10 -19.5 -14t-23.5 -6q-9 -1 -36 -3.5t-61.5 4t-71 27.5t-64.5 66q-15 28 -21.5 58.5t-11.5 61.5q-8 52 0.5 101t24.5 97q17 51 36.5 99.5t49.5 93.5q11 17 24 32.5t26 31.5
q9 11 20.5 16t24.5 10q27 10 54.5 13t56.5 3q4 0 8 -1.5t9 -3.5zM240 441q-17 -36 -33 -77t-26.5 -89t-13 -103.5t6.5 -119.5q1 -5 4 -11t8 -8q14 -8 29.5 -10.5t30.5 4.5q17 8 30.5 20.5t21.5 29.5q10 16 18.5 45.5t15.5 59t10.5 52.5t3.5 26q-1 5 -2 11t-5 10
q-29 36 -52.5 75.5t-46.5 84.5zM351 328q2 0 4 0.5t4 0.5q0 9 -0.5 18t-1.5 18q-1 16 -4 44.5t-7.5 57.5t-9.5 53t-11 30q-5 7 -13.5 13.5t-18.5 0.5q-8 -6 -12 -17t-2 -22q0 -3 1 -5.5t1 -5.5q4 -18 7.5 -35.5t4.5 -36.5q2 -35 18.5 -62.5t39.5 -51.5zM136 734q5 9 8 17.5
t8 14.5l54 62t55 63q7 8 15 8t16 -6q23 -15 46 -31t40 -43q3 -3 7 -5t6 -6q4 -5 8.5 -10.5t8 -11.5t4.5 -14t-2 -18q-2 -6 -1 -11.5t2.5 -12t0.5 -13.5t-5 -13q-18 0 -36 4.5t-35 16.5q-22 16 -44 31.5t-44 31.5q-12 5 -21 -7q-7 -8 -15.5 -14.5t-14.5 -15.5
q-9 -12 -27 -15.5t-34 -1.5zM412 830q-5 10 -3.5 18.5t7.5 16.5q14 15 27.5 32.5t29.5 30.5q18 14 36.5 25.5t37.5 23.5q6 -3 12 -5.5t14 -6.5v-19t-1 -18q-2 -9 -5.5 -16.5t-14.5 -10.5q-4 0 -7 -3t-6 -7q-6 -5 -11 -10.5t-12 -11.5q-42 -35 -104 -39z" />
    <glyph glyph-name="uni1ED1" unicode="&#x1ed1;" horiz-adv-x="470" 
d="M199 446q11 2 20 3t18 3q30 4 50 -13.5t32 -38.5q3 -6 9.5 -22t12.5 -37.5t9 -46.5t0 -49q-2 -8 -4 -15t-4 -16q10 0 18 -1t16 1q15 5 30.5 10t29.5 11q5 2 9.5 4t9.5 2q4 0 7.5 -3t7.5 -5q0 -3 -7 -9t-17 -12t-21 -11.5t-18 -6.5q-15 -3 -31 -4t-35 -3q-1 -2 -7.5 -16
t-15.5 -31.5t-18 -34t-13 -22.5q-50 -71 -135 -61q-27 3 -51.5 15.5t-43.5 31t-32.5 42.5t-18.5 50q-5 21 -6 42.5t3 42.5q9 54 22 105.5t40 99.5q13 22 31 43q13 14 21 15t25 -7q18 -10 34.5 -22t22.5 -34zM289 214q-22 23 -43.5 46t-43.5 46q-5 -12 -10 -24.5t-10 -25.5
q-8 -21 -16.5 -42t-17.5 -42q-22 -52 5 -101q9 -17 20 -20.5t28 4.5q15 7 24 19t15 26q13 29 25 57t24 57zM228 434q-3 -17 -6 -32t-5 -31q-2 -14 -0.5 -29t10.5 -28q7 -9 12.5 -17.5t13.5 -16.5q8 -10 17.5 -18.5t19.5 -16.5q3 7 6 17.5t3.5 28t-2 43.5t-10.5 64
q-5 19 -20.5 28.5t-38.5 7.5zM76 539q5 9 8 17.5t8 14.5l54 62t55 63q7 8 15 8t16 -6q23 -15 46 -31t40 -43q3 -3 7 -5t6 -6q4 -5 8.5 -10.5t8 -11.5t4.5 -14t-2 -18q-2 -6 -1 -11.5t2.5 -12t0.5 -13.5t-5 -13q-18 0 -36 4.5t-35 16.5q-22 16 -44 31.5t-44 31.5
q-12 5 -21 -7q-7 -8 -15.5 -14.5t-14.5 -15.5q-9 -12 -27 -15.5t-34 -1.5zM336 654q-5 10 -3.5 18.5t7.5 16.5q14 15 27.5 32.5t29.5 30.5q18 14 36.5 25.5t37.5 23.5q6 -3 12 -5.5t14 -6.5v-19t-1 -18q-2 -9 -5.5 -16.5t-14.5 -10.5q-4 0 -7 -3t-6 -7q-6 -5 -11 -10.5
t-12 -11.5q-42 -35 -104 -39z" />
    <glyph glyph-name="uni1ED2" unicode="&#x1ed2;" horiz-adv-x="622" 
d="M338 684q7 -27 -2.5 -51t-19.5 -49h18q21 2 37.5 -6t30.5 -21q4 -5 6 -9q3 -11 9 -28.5t11.5 -49.5t8.5 -81.5t0 -123.5q16 -7 31 -4.5t29 9.5q23 11 44.5 21.5t43.5 24.5q26 17 34 4q5 -8 2.5 -17t-12.5 -14q-14 -8 -33.5 -17.5t-40 -17.5t-39.5 -14t-31 -7
q-17 -2 -24.5 -8.5t-11.5 -21.5q-9 -39 -26 -74t-40 -67q-12 -17 -24 -33t-26 -31q-9 -10 -19.5 -14t-23.5 -6q-9 -1 -36 -3.5t-61.5 4t-71 27.5t-64.5 66q-15 28 -21.5 58.5t-11.5 61.5q-8 52 0.5 101t24.5 97q17 51 36.5 99.5t49.5 93.5q11 17 24 32.5t26 31.5
q9 11 20.5 16t24.5 10q27 10 54.5 13t56.5 3q4 0 8 -1.5t9 -3.5zM240 441q-17 -36 -33 -77t-26.5 -89t-13 -103.5t6.5 -119.5q1 -5 4 -11t8 -8q14 -8 29.5 -10.5t30.5 4.5q17 8 30.5 20.5t21.5 29.5q10 16 18.5 45.5t15.5 59t10.5 52.5t3.5 26q-1 5 -2 11t-5 10
q-29 36 -52.5 75.5t-46.5 84.5zM351 328q2 0 4 0.5t4 0.5q0 9 -0.5 18t-1.5 18q-1 16 -4 44.5t-7.5 57.5t-9.5 53t-11 30q-5 7 -13.5 13.5t-18.5 0.5q-8 -6 -12 -17t-2 -22q0 -3 1 -5.5t1 -5.5q4 -18 7.5 -35.5t4.5 -36.5q2 -35 18.5 -62.5t39.5 -51.5zM136 735q5 9 8 17.5
t8 14.5l54 62t55 63q7 8 15 8t16 -6q23 -15 46 -31t40 -43q3 -3 7 -5t6 -6q4 -5 8.5 -10.5t8 -11.5t4.5 -14t-2 -18q-2 -6 -1 -11.5t2.5 -12t0.5 -13.5t-5 -13q-18 0 -36 4.5t-35 16.5q-22 16 -44 31.5t-44 31.5q-12 5 -21 -7q-7 -8 -15.5 -14.5t-14.5 -15.5
q-9 -12 -27 -15.5t-34 -1.5zM179 832q-7 -1 -14 -3t-15 -1q-27 1 -51.5 11.5t-47.5 27.5q-17 14 -34.5 27.5t-34.5 27.5q37 49 88 28q8 -3 14.5 -10t12.5 -15q21 -20 41.5 -42t41.5 -44z" />
    <glyph glyph-name="uni1ED3" unicode="&#x1ed3;" horiz-adv-x="470" 
d="M199 446q11 2 20 3t18 3q30 4 50 -13.5t32 -38.5q3 -6 9.5 -22t12.5 -37.5t9 -46.5t0 -49q-2 -8 -4 -15t-4 -16q10 0 18 -1t16 1q15 5 30.5 10t29.5 11q5 2 9.5 4t9.5 2q4 0 7.5 -3t7.5 -5q0 -3 -7 -9t-17 -12t-21 -11.5t-18 -6.5q-15 -3 -31 -4t-35 -3q-1 -2 -7.5 -16
t-15.5 -31.5t-18 -34t-13 -22.5q-50 -71 -135 -61q-27 3 -51.5 15.5t-43.5 31t-32.5 42.5t-18.5 50q-5 21 -6 42.5t3 42.5q9 54 22 105.5t40 99.5q13 22 31 43q13 14 21 15t25 -7q18 -10 34.5 -22t22.5 -34zM289 214q-22 23 -43.5 46t-43.5 46q-5 -12 -10 -24.5t-10 -25.5
q-8 -21 -16.5 -42t-17.5 -42q-22 -52 5 -101q9 -17 20 -20.5t28 4.5q15 7 24 19t15 26q13 29 25 57t24 57zM228 434q-3 -17 -6 -32t-5 -31q-2 -14 -0.5 -29t10.5 -28q7 -9 12.5 -17.5t13.5 -16.5q8 -10 17.5 -18.5t19.5 -16.5q3 7 6 17.5t3.5 28t-2 43.5t-10.5 64
q-5 19 -20.5 28.5t-38.5 7.5zM76 539q5 9 8 17.5t8 14.5l54 62t55 63q7 8 15 8t16 -6q23 -15 46 -31t40 -43q3 -3 7 -5t6 -6q4 -5 8.5 -10.5t8 -11.5t4.5 -14t-2 -18q-2 -6 -1 -11.5t2.5 -12t0.5 -13.5t-5 -13q-18 0 -36 4.5t-35 16.5q-22 16 -44 31.5t-44 31.5
q-12 5 -21 -7q-7 -8 -15.5 -14.5t-14.5 -15.5q-9 -12 -27 -15.5t-34 -1.5zM140 676q-7 -1 -14 -3t-15 -1q-27 1 -51.5 11.5t-47.5 27.5q-17 14 -34.5 27.5t-34.5 27.5q37 49 88 28q8 -3 14.5 -10t12.5 -15q21 -20 41.5 -42t41.5 -44z" />
    <glyph glyph-name="uni1ED4" unicode="&#x1ed4;" horiz-adv-x="622" 
d="M338 684q7 -27 -2.5 -51t-19.5 -49h18q21 2 37.5 -6t30.5 -21q4 -5 6 -9q3 -11 9 -28.5t11.5 -49.5t8.5 -81.5t0 -123.5q16 -7 31 -4.5t29 9.5q23 11 44.5 21.5t43.5 24.5q26 17 34 4q5 -8 2.5 -17t-12.5 -14q-14 -8 -33.5 -17.5t-40 -17.5t-39.5 -14t-31 -7
q-17 -2 -24.5 -8.5t-11.5 -21.5q-9 -39 -26 -74t-40 -67q-12 -17 -24 -33t-26 -31q-9 -10 -19.5 -14t-23.5 -6q-9 -1 -36 -3.5t-61.5 4t-71 27.5t-64.5 66q-15 28 -21.5 58.5t-11.5 61.5q-8 52 0.5 101t24.5 97q17 51 36.5 99.5t49.5 93.5q11 17 24 32.5t26 31.5
q9 11 20.5 16t24.5 10q27 10 54.5 13t56.5 3q4 0 8 -1.5t9 -3.5zM240 441q-17 -36 -33 -77t-26.5 -89t-13 -103.5t6.5 -119.5q1 -5 4 -11t8 -8q14 -8 29.5 -10.5t30.5 4.5q17 8 30.5 20.5t21.5 29.5q10 16 18.5 45.5t15.5 59t10.5 52.5t3.5 26q-1 5 -2 11t-5 10
q-29 36 -52.5 75.5t-46.5 84.5zM351 328q2 0 4 0.5t4 0.5q0 9 -0.5 18t-1.5 18q-1 16 -4 44.5t-7.5 57.5t-9.5 53t-11 30q-5 7 -13.5 13.5t-18.5 0.5q-8 -6 -12 -17t-2 -22q0 -3 1 -5.5t1 -5.5q4 -18 7.5 -35.5t4.5 -36.5q2 -35 18.5 -62.5t39.5 -51.5zM136 735q5 9 8 17.5
t8 14.5l54 62t55 63q7 8 15 8t16 -6q23 -15 46 -31t40 -43q3 -3 7 -5t6 -6q4 -5 8.5 -10.5t8 -11.5t4.5 -14t-2 -18q-2 -6 -1 -11.5t2.5 -12t0.5 -13.5t-5 -13q-18 0 -36 4.5t-35 16.5q-22 16 -44 31.5t-44 31.5q-12 5 -21 -7q-7 -8 -15.5 -14.5t-14.5 -15.5
q-9 -12 -27 -15.5t-34 -1.5zM430 816q-6 1 -11 4.5t-8.5 8t-5 10.5t-0.5 12q2 11 7.5 15t14 10.5t16.5 13.5q13 11 19 26q1 5 2 9.5t0 7.5q-4 13 -19 19h-4.5t-3.5 -3q-4 -3 -5 -5t0 -5q7 -17 2 -29.5t-22 -20.5q-12 -5 -23.5 -1t-16.5 17q-2 3 -2.5 5l-0.5 2q-3 12 -3 22
t7 19q3 12 9 20.5t14 14.5t17 9.5t17 6.5q3 3 11 2q9 -4 19 -6.5t19 -8.5q10 -6 18 -14t15 -17q7 -10 10 -21.5t-2 -24.5q-5 -15 -12 -28t-17 -25q-6 -7 -13 -12t-16 -8l-6 -4l-3 -2q-9 -24 -23 -19z" />
    <glyph glyph-name="uni1ED5" unicode="&#x1ed5;" horiz-adv-x="470" 
d="M199 446q11 2 20 3t18 3q30 4 50 -13.5t32 -38.5q3 -6 9.5 -22t12.5 -37.5t9 -46.5t0 -49q-2 -8 -4 -15t-4 -16q10 0 18 -1t16 1q15 5 30.5 10t29.5 11q5 2 9.5 4t9.5 2q4 0 7.5 -3t7.5 -5q0 -3 -7 -9t-17 -12t-21 -11.5t-18 -6.5q-15 -3 -31 -4t-35 -3q-1 -2 -7.5 -16
t-15.5 -31.5t-18 -34t-13 -22.5q-50 -71 -135 -61q-27 3 -51.5 15.5t-43.5 31t-32.5 42.5t-18.5 50q-5 21 -6 42.5t3 42.5q9 54 22 105.5t40 99.5q13 22 31 43q13 14 21 15t25 -7q18 -10 34.5 -22t22.5 -34zM289 214q-22 23 -43.5 46t-43.5 46q-5 -12 -10 -24.5t-10 -25.5
q-8 -21 -16.5 -42t-17.5 -42q-22 -52 5 -101q9 -17 20 -20.5t28 4.5q15 7 24 19t15 26q13 29 25 57t24 57zM228 434q-3 -17 -6 -32t-5 -31q-2 -14 -0.5 -29t10.5 -28q7 -9 12.5 -17.5t13.5 -16.5q8 -10 17.5 -18.5t19.5 -16.5q3 7 6 17.5t3.5 28t-2 43.5t-10.5 64
q-5 19 -20.5 28.5t-38.5 7.5zM76 539q5 9 8 17.5t8 14.5l54 62t55 63q7 8 15 8t16 -6q23 -15 46 -31t40 -43q3 -3 7 -5t6 -6q4 -5 8.5 -10.5t8 -11.5t4.5 -14t-2 -18q-2 -6 -1 -11.5t2.5 -12t0.5 -13.5t-5 -13q-18 0 -36 4.5t-35 16.5q-22 16 -44 31.5t-44 31.5
q-12 5 -21 -7q-7 -8 -15.5 -14.5t-14.5 -15.5q-9 -12 -27 -15.5t-34 -1.5zM374 641q-6 1 -11 4.5t-8.5 8t-5 10.5t-0.5 12q2 11 7.5 15t14 10.5t16.5 13.5q13 11 19 26q1 5 2 9.5t0 7.5q-4 13 -19 19h-4.5t-3.5 -3q-4 -3 -5 -5t0 -5q7 -17 2 -29.5t-22 -20.5
q-12 -5 -23.5 -1t-16.5 17q-2 3 -2.5 5l-0.5 2q-3 12 -3 22t7 19q3 12 9 20.5t14 14.5t17 9.5t17 6.5q3 3 11 2q9 -4 19 -6.5t19 -8.5q10 -6 18 -14t15 -17q7 -10 10 -21.5t-2 -24.5q-5 -15 -12 -28t-17 -25q-6 -7 -13 -12t-16 -8l-6 -4l-3 -2q-9 -24 -23 -19z" />
    <glyph glyph-name="uni1ED6" unicode="&#x1ed6;" horiz-adv-x="622" 
d="M338 684q7 -27 -2.5 -51t-19.5 -49h18q21 2 37.5 -6t30.5 -21q4 -5 6 -9q3 -11 9 -28.5t11.5 -49.5t8.5 -81.5t0 -123.5q16 -7 31 -4.5t29 9.5q23 11 44.5 21.5t43.5 24.5q26 17 34 4q5 -8 2.5 -17t-12.5 -14q-14 -8 -33.5 -17.5t-40 -17.5t-39.5 -14t-31 -7
q-17 -2 -24.5 -8.5t-11.5 -21.5q-9 -39 -26 -74t-40 -67q-12 -17 -24 -33t-26 -31q-9 -10 -19.5 -14t-23.5 -6q-9 -1 -36 -3.5t-61.5 4t-71 27.5t-64.5 66q-15 28 -21.5 58.5t-11.5 61.5q-8 52 0.5 101t24.5 97q17 51 36.5 99.5t49.5 93.5q11 17 24 32.5t26 31.5
q9 11 20.5 16t24.5 10q27 10 54.5 13t56.5 3q4 0 8 -1.5t9 -3.5zM240 441q-17 -36 -33 -77t-26.5 -89t-13 -103.5t6.5 -119.5q1 -5 4 -11t8 -8q14 -8 29.5 -10.5t30.5 4.5q17 8 30.5 20.5t21.5 29.5q10 16 18.5 45.5t15.5 59t10.5 52.5t3.5 26q-1 5 -2 11t-5 10
q-29 36 -52.5 75.5t-46.5 84.5zM351 328q2 0 4 0.5t4 0.5q0 9 -0.5 18t-1.5 18q-1 16 -4 44.5t-7.5 57.5t-9.5 53t-11 30q-5 7 -13.5 13.5t-18.5 0.5q-8 -6 -12 -17t-2 -22q0 -3 1 -5.5t1 -5.5q4 -18 7.5 -35.5t4.5 -36.5q2 -35 18.5 -62.5t39.5 -51.5zM136 735q5 9 8 17.5
t8 14.5l54 62t55 63q7 8 15 8t16 -6q23 -15 46 -31t40 -43q3 -3 7 -5t6 -6q4 -5 8.5 -10.5t8 -11.5t4.5 -14t-2 -18q-2 -6 -1 -11.5t2.5 -12t0.5 -13.5t-5 -13q-18 0 -36 4.5t-35 16.5q-22 16 -44 31.5t-44 31.5q-12 5 -21 -7q-7 -8 -15.5 -14.5t-14.5 -15.5
q-9 -12 -27 -15.5t-34 -1.5zM406 947q6 5 16.5 18l21 26t23 25t33.5 23q11 -4 15.5 -11t2.5 -19q-3 -11 -5 -21.5t-6 -21.5q-1 -6 -3.5 -12.5t-4.5 -11.5q-16 -49 -72 -47q-23 1 -41 10.5t-33 24.5q-10 9 -18.5 19t-17.5 19q-3 3 -6.5 5.5t-3.5 1.5q-7 -7 -19 -18.5
t-26 -22.5q-17 -14 -40.5 -31.5t-30 21t25.5 69.5q23 20 48 25.5t53 2.5q26 -3 43 -24q6 -7 11 -15t11 -15q6 -6 13 -12t10 -8z" />
    <glyph glyph-name="uni1ED7" unicode="&#x1ed7;" horiz-adv-x="470" 
d="M199 446q11 2 20 3t18 3q30 4 50 -13.5t32 -38.5q3 -6 9.5 -22t12.5 -37.5t9 -46.5t0 -49q-2 -8 -4 -15t-4 -16q10 0 18 -1t16 1q15 5 30.5 10t29.5 11q5 2 9.5 4t9.5 2q4 0 7.5 -3t7.5 -5q0 -3 -7 -9t-17 -12t-21 -11.5t-18 -6.5q-15 -3 -31 -4t-35 -3q-1 -2 -7.5 -16
t-15.5 -31.5t-18 -34t-13 -22.5q-50 -71 -135 -61q-27 3 -51.5 15.5t-43.5 31t-32.5 42.5t-18.5 50q-5 21 -6 42.5t3 42.5q9 54 22 105.5t40 99.5q13 22 31 43q13 14 21 15t25 -7q18 -10 34.5 -22t22.5 -34zM289 214q-22 23 -43.5 46t-43.5 46q-5 -12 -10 -24.5t-10 -25.5
q-8 -21 -16.5 -42t-17.5 -42q-22 -52 5 -101q9 -17 20 -20.5t28 4.5q15 7 24 19t15 26q13 29 25 57t24 57zM228 434q-3 -17 -6 -32t-5 -31q-2 -14 -0.5 -29t10.5 -28q7 -9 12.5 -17.5t13.5 -16.5q8 -10 17.5 -18.5t19.5 -16.5q3 7 6 17.5t3.5 28t-2 43.5t-10.5 64
q-5 19 -20.5 28.5t-38.5 7.5zM76 538q5 9 8 17.5t8 14.5l54 62t55 63q7 8 15 8t16 -6q23 -15 46 -31t40 -43q3 -3 7 -5t6 -6q4 -5 8.5 -10.5t8 -11.5t4.5 -14t-2 -18q-2 -6 -1 -11.5t2.5 -12t0.5 -13.5t-5 -13q-18 0 -36 4.5t-35 16.5q-22 16 -44 31.5t-44 31.5
q-12 5 -21 -7q-7 -8 -15.5 -14.5t-14.5 -15.5q-9 -12 -27 -15.5t-34 -1.5zM329 755q6 5 16.5 18l21 26t23 25t33.5 23q11 -4 15.5 -11t2.5 -19q-3 -11 -5 -21.5t-6 -21.5q-1 -6 -3.5 -12.5t-4.5 -11.5q-16 -49 -72 -47q-23 1 -41 10.5t-33 24.5q-10 9 -18.5 19t-17.5 19
q-3 3 -6.5 5.5t-3.5 1.5q-7 -7 -19 -18.5t-26 -22.5q-17 -14 -40.5 -31.5t-30 21t25.5 69.5q23 20 48 25.5t53 2.5q26 -3 43 -24q6 -7 11 -15t11 -15q6 -6 13 -12t10 -8z" />
    <glyph glyph-name="uni1ED8" unicode="&#x1ed8;" horiz-adv-x="622" 
d="M338 684q7 -27 -2.5 -51t-19.5 -49h18q21 2 37.5 -6t30.5 -21q4 -5 6 -9q3 -11 9 -28.5t11.5 -49.5t8.5 -81.5t0 -123.5q16 -7 31 -4.5t29 9.5q23 11 44.5 21.5t43.5 24.5q26 17 34 4q5 -8 2.5 -17t-12.5 -14q-14 -8 -33.5 -17.5t-40 -17.5t-39.5 -14t-31 -7
q-17 -2 -24.5 -8.5t-11.5 -21.5q-9 -39 -26 -74t-40 -67q-12 -17 -24 -33t-26 -31q-9 -10 -19.5 -14t-23.5 -6q-9 -1 -36 -3.5t-61.5 4t-71 27.5t-64.5 66q-15 28 -21.5 58.5t-11.5 61.5q-8 52 0.5 101t24.5 97q17 51 36.5 99.5t49.5 93.5q11 17 24 32.5t26 31.5
q9 11 20.5 16t24.5 10q27 10 54.5 13t56.5 3q4 0 8 -1.5t9 -3.5zM240 441q-17 -36 -33 -77t-26.5 -89t-13 -103.5t6.5 -119.5q1 -5 4 -11t8 -8q14 -8 29.5 -10.5t30.5 4.5q17 8 30.5 20.5t21.5 29.5q10 16 18.5 45.5t15.5 59t10.5 52.5t3.5 26q-1 5 -2 11t-5 10
q-29 36 -52.5 75.5t-46.5 84.5zM351 328q2 0 4 0.5t4 0.5q0 9 -0.5 18t-1.5 18q-1 16 -4 44.5t-7.5 57.5t-9.5 53t-11 30q-5 7 -13.5 13.5t-18.5 0.5q-8 -6 -12 -17t-2 -22q0 -3 1 -5.5t1 -5.5q4 -18 7.5 -35.5t4.5 -36.5q2 -35 18.5 -62.5t39.5 -51.5zM165 722q5 9 8 17.5
t8 14.5l54 62t55 63q7 8 15 8t16 -6q23 -15 46 -31t40 -43q3 -3 7 -5t6 -6q4 -5 8.5 -10.5t8 -11.5t4.5 -14t-2 -18q-2 -6 -1 -11.5t2.5 -12t0.5 -13.5t-5 -13q-18 0 -36 4.5t-35 16.5q-22 16 -44 31.5t-44 31.5q-12 5 -21 -7q-7 -8 -15.5 -14.5t-14.5 -15.5
q-9 -12 -27 -15.5t-34 -1.5zM154 -228q1 0 -4.5 1t-14 7t-18.5 19.5t-17 39.5q-4 14 0.5 26t15.5 20q20 14 41 22t44 15q19 5 30.5 -5t13.5 -30q0 -13 -0.5 -25.5t-1.5 -26.5q-2 -22 -18 -37l-2 -2q-5 -12 -10.5 -17.5t-13.5 -8t-18.5 -1.5t-26.5 3z" />
    <glyph glyph-name="uni1ED9" unicode="&#x1ed9;" horiz-adv-x="470" 
d="M199 446q11 2 20 3t18 3q30 4 50 -13.5t32 -38.5q3 -6 9.5 -22t12.5 -37.5t9 -46.5t0 -49q-2 -8 -4 -15t-4 -16q10 0 18 -1t16 1q15 5 30.5 10t29.5 11q5 2 9.5 4t9.5 2q4 0 7.5 -3t7.5 -5q0 -3 -7 -9t-17 -12t-21 -11.5t-18 -6.5q-15 -3 -31 -4t-35 -3q-1 -2 -7.5 -16
t-15.5 -31.5t-18 -34t-13 -22.5q-50 -71 -135 -61q-27 3 -51.5 15.5t-43.5 31t-32.5 42.5t-18.5 50q-5 21 -6 42.5t3 42.5q9 54 22 105.5t40 99.5q13 22 31 43q13 14 21 15t25 -7q18 -10 34.5 -22t22.5 -34zM289 214q-22 23 -43.5 46t-43.5 46q-5 -12 -10 -24.5t-10 -25.5
q-8 -21 -16.5 -42t-17.5 -42q-22 -52 5 -101q9 -17 20 -20.5t28 4.5q15 7 24 19t15 26q13 29 25 57t24 57zM228 434q-3 -17 -6 -32t-5 -31q-2 -14 -0.5 -29t10.5 -28q7 -9 12.5 -17.5t13.5 -16.5q8 -10 17.5 -18.5t19.5 -16.5q3 7 6 17.5t3.5 28t-2 43.5t-10.5 64
q-5 19 -20.5 28.5t-38.5 7.5zM76 539q5 9 8 17.5t8 14.5l54 62t55 63q7 8 15 8t16 -6q23 -15 46 -31t40 -43q3 -3 7 -5t6 -6q4 -5 8.5 -10.5t8 -11.5t4.5 -14t-2 -18q-2 -6 -1 -11.5t2.5 -12t0.5 -13.5t-5 -13q-18 0 -36 4.5t-35 16.5q-22 16 -44 31.5t-44 31.5
q-12 5 -21 -7q-7 -8 -15.5 -14.5t-14.5 -15.5q-9 -12 -27 -15.5t-34 -1.5zM132 -177q1 0 -4.5 1t-14 7t-18.5 19.5t-17 39.5q-4 14 0.5 26t15.5 20q20 14 41 22t44 15q19 5 30.5 -5t13.5 -30q0 -13 -0.5 -25.5t-1.5 -26.5q-2 -22 -18 -37l-2 -2q-5 -12 -10.5 -17.5t-13.5 -8
t-18.5 -1.5t-26.5 3z" />
    </font>
</defs>
</svg>
