<?xml version="1.0" standalone="no"?>
<!DOCTYPE svg PUBLIC "-//W3C//DTD SVG 1.1//EN" "http://www.w3.org/Graphics/SVG/1.1/DTD/svg11.dtd" >
<svg xmlns="http://www.w3.org/2000/svg" xmlns:xlink="http://www.w3.org/1999/xlink" version="1.1">
<metadata>
Created by FontForge 20201107 at Wed May 29 08:27:32 2024
 By 
Copyright 2015 Adobe Systems Incorporated. All rights reserved.
</metadata>
<defs>
<font id="iCielHelena" horiz-adv-x="0" >
  <font-face 
    font-family="iCiel Helena"
    font-weight="400"
    font-stretch="normal"
    units-per-em="2048"
    panose-1="0 0 0 0 0 0 0 0 0 0"
    ascent="1536"
    descent="-512"
    x-height="964.5"
    cap-height="1358"
    bbox="-780 -952 2023 2216"
    underline-thickness="102"
    underline-position="-204"
    unicode-range="U+001D-E020"
  />
<missing-glyph horiz-adv-x="614" 
 />
    <glyph glyph-name=".notdef" horiz-adv-x="614" 
 />
    <glyph glyph-name=".null" 
 />
    <glyph glyph-name="nonmarkingreturn" horiz-adv-x="682" 
 />
    <glyph glyph-name="NULL" 
 />
    <glyph glyph-name="NULL" 
 />
    <glyph glyph-name="space" unicode=" " horiz-adv-x="614" 
 />
    <glyph glyph-name="exclam" unicode="!" horiz-adv-x="432" 
d="M137 1325l72 -6q67 -6 104.5 -53t32.5 -115q-1 -19 4 -133q5 -24 10 -29q9 -8 15 -16t10 -19.5t5.5 -17t3.5 -22t3 -19.5q3 -27 12 -67.5t15 -67t8.5 -67t-6.5 -68.5q-1 -3 -1 -10.5t-1 -10.5q-24 -51 -27 -151.5t-12 -135.5q-12 -59 -33 -122q-7 -20 -41 -35t-61 -10
q-49 13 -64 14q-55 6 -76 25.5t-28 72.5q-16 99 -27 268q-4 252 2 377q3 33 8 64.5t15.5 80.5t13.5 64q10 61 21 107q7 38 22 102zM0 -260q2 61 78 88q27 11 100 49q9 6 19.5 7.5t17.5 1.5t19.5 -4t17 -6t18.5 -10t17 -9q48 -25 37 -72q-1 -7 1 -22.5t1 -22.5
q-12 -67 -40 -89t-96 -18l-90 5q-15 1 -24 2.5t-19.5 7t-15.5 16t-6 27.5q0 6 -5.5 13t-14.5 17t-15 19z" />
    <glyph glyph-name="quotedbl" unicode="&#x22;" horiz-adv-x="317" 
d="M305 1100q-5 3 -12.5 4t-11.5 4q-3 -5 -9 -14.5t-9.5 -17.5t-4.5 -15q-4 -21 -15 -32.5t-34.5 -22.5t-32.5 -17q-2 121 43 334h29q36 -5 49.5 -16.5t17.5 -46.5q2 -18 2 -56q-3 -18 -6 -51.5t-6 -52.5zM23 1331q73 -10 73 -57q0 -156 -47 -252q-38 0 -41 35q-9 74 -6 151
q0 17 3 36.5t9.5 46.5t8.5 40z" />
    <glyph glyph-name="numbersign" unicode="#" horiz-adv-x="1540" 
d="M1483 610h-385h-50t-32 -5t-21 -9.5t-7.5 -21t-2.5 -31.5t4 -49l19 -123q33 -3 129 -9t143.5 -10.5t123 -16.5t136.5 -30q-29 -23 -93.5 -30.5t-74.5 -10.5q-74 -22 -170 -35q-35 -5 -102.5 -10t-81.5 -6q0 -103 -2 -158q-4 -102 -12 -159q0 -1 -2.5 -13.5t-3.5 -15.5
t-5.5 -12.5t-9 -12t-13.5 -5.5t-20 -3q-6 0 -14 -7t-10 -13q-3 -31 -17.5 -50.5t-48 -41.5t-43.5 -31q-88 252 -110 559l-148 -19q-6 -35 -6 -55q0 -11 1.5 -35.5t1 -43.5t-4.5 -36q-10 -43 -47 -92q-12 -14 -82 -84q-11 32 -52.5 150.5t-64.5 179.5q-78 -12 -122 3.5
t-156 94.5q36 10 243 56v254q-21 -3 -58.5 -5.5t-57.5 -5.5q-66 -7 -92.5 6.5t-61.5 73.5q49 25 145 27.5t134 13.5q10 28 13 59t2 75t-1 59q1 15 -1.5 58t1.5 58q7 47 37 175q55 -1 84.5 -25.5t40.5 -73.5q3 -6 5.5 -20.5t6.5 -22.5q29 -46 48 -108t24.5 -100.5
t15.5 -123.5q26 -3 141 -8l56 533q11 0 30 1t31 0.5t23 -3.5q90 -22 124 -65.5t7 -135.5q-3 -7 -3.5 -15t0.5 -19.5t1 -16.5v-297q79 -28 253.5 -50.5t264.5 -56.5zM694 395v226l-141 -19l-18 -207h159z" />
    <glyph glyph-name="dollar" unicode="$" horiz-adv-x="712" 
d="M94 242q4 -12 13.5 -42.5t15.5 -52.5t10 -43q7 -54 59.5 -83t102.5 -9l7 4h-1q41 6 68.5 23.5t39.5 45.5t15.5 57.5t1.5 66.5q-8 102 -31 229q-12 54 -49 94q-72 82 -172 179q-67 67 -72 146t54 147q13 16 26 24q24 7 41.5 25.5t23 32t16.5 45.5q2 5 3 8q31 82 41 116
l41 113q8 3 14 0.5t10 -2t6.5 -4.5t4 -6.5t2 -8t0.5 -9v-9v-8.5l-6 -197v-26q36 -13 102 -36t99 -36q3 -3 4 -9t2.5 -15.5t3.5 -16.5l-111 -20q-11 11 -36 31.5t-42 35.5q-1 -32 -11.5 -47t-27 -14.5t-36.5 2.5q-8 -10 -18 -25.5t-13 -19.5q-30 -36 -23.5 -80t45.5 -74
l125 -88q148 -97 236 -231q16 -24 27 -80q18 -145 -9 -242q-25 -117 -100 -221q-59 -82 -139 -90q-29 -4 -44 -18.5t-26 -45.5q-20 -68 -55 -139q-3 -6 -14.5 -15t-16.5 -14q-8 24 -30 96t-35 111q-2 8 -6 15.5t-7 12t-10 11.5l-9.5 9.5t-13 11t-12.5 10.5q-98 88 -158 168
q-52 68 19 158q8 10 26.5 24.5t28.5 24.5z" />
    <glyph glyph-name="percent" unicode="%" horiz-adv-x="1277" 
d="M29 -395q-18 55 4 100q7 14 48 95.5t66 123.5q25 41 77.5 113.5t74.5 107.5q10 15 18 30.5t19 41t14 31.5q26 62 257 410t245 382q49 121 129 226q30 33 51 69q33 46 72 37q58 -15 67 -82q6 -46 -18 -96q-13 -25 -29.5 -77.5t-29.5 -76.5q-63 -131 -294 -559t-286 -504
q-108 -150 -149 -231q-27 -50 -67 -80t-97 -53q-107 -50 -172 -8zM1145 270q35 -11 62.5 -41t41 -62t20.5 -55.5t7 -31.5q-5 -45 -33 -74.5t-72 -54.5q-143 -80 -282 0q-49 29 -65 81.5t7 106.5q28 62 65.5 102t94.5 56q27 5 82.5 -3t71.5 -24zM1120 100l-49 82
q-88 -21 -123 -116q-12 -37 4.5 -63.5t53.5 -31.5q37 -9 78 25t46 72q0 15 -10 32zM301 848q41 -71 45 -178q-7 -27 -26 -41.5t-64 -34.5l-100 -6q-76 -2 -140 78q-19 28 -15.5 64t24.5 73q3 5 24 26q15 18 66.5 36.5t108.5 17.5t77 -35zM121 694q15 -25 29 -32.5t45 0.5
q3 18 3.5 26.5t-1.5 22t-11 22.5t-26 15q-26 4 -35.5 -9.5t-3.5 -44.5z" />
    <glyph glyph-name="ampersand" unicode="&#x26;" horiz-adv-x="1560" 
d="M1253 494q48 -14 52 -15q43 -8 90.5 17.5t64.5 66.5q10 29 12 63.5t-12 69.5t-35.5 62t-59.5 41.5t-83 7.5q-56 -11 -82 -78t-26 -149q0 -127 -15 -195q-12 -48 -59 -160q-2 -5 -8 -13.5t-9 -14t0 -9.5q13 -28 12.5 -57.5t-7 -50.5t-23.5 -60q-27 -71 -82 -126
q-6 -6 -22.5 -27.5t-34 -36t-52.5 -36.5t-96.5 -43.5t-148.5 -43.5q-183 -47 -320 47q-177 118 -254 346q-38 105 -51 185q-8 48 4 143q25 160 133 303q27 37 90 100t88 91q0 14 -2 52.5t-2 61.5q0 68 26.5 123.5t80.5 83.5q21 11 79 28t93 13q51 -7 73 -11t57.5 -19.5
t61.5 -41.5q31 -31 40.5 -70t-7.5 -79l-6 -14q-9 -35 -49 -29q-2 2 -10 2q-31 6 -37 41q-5 48 -53.5 82t-94.5 14q-83 -43 -90 -155q0 -44 7 -77t16 -53t29 -38t33.5 -26.5t41.5 -23.5q1 -1 6.5 -4t7 -4l6 -4t5.5 -4.5t4 -5t3 -5.5t0.5 -5.5t-1 -7t-3.5 -8t-5 -9.5h-84
q-122 3 -172 -121q-48 -118 -70 -200q-22 -94 -17 -181t45.5 -165.5t112.5 -129.5q52 -27 80.5 -40t73.5 -23.5t90 -7.5q3 0 27 6q84 30 139.5 76t93.5 114q3 3 3.5 6t-0.5 9.5t-1 11.5q-7 -3 -19.5 -4t-17.5 -4q-114 -46 -284 37q-138 65 -164 204q4 35 8 56.5t17.5 50.5
t35.5 51q30 33 77.5 46t90 7.5t68.5 -22.5q29 -18 40 -50.5t-1 -56.5q-21 -47 -105 -26q38 18 45 37t-14 63q-37 23 -79 3t-60 -64q-43 -102 55 -166q65 -39 128 -40t117 38t81 108q42 102 61 297q5 49 28 93.5t46 70.5t65 66q47 43 113.5 35.5t125 -38t87.5 -65.5
q41 -44 57 -112.5t-3 -135.5t-74 -100q-60 -50 -112.5 -42.5t-109.5 73.5z" />
    <glyph glyph-name="quotesingle" unicode="'" horiz-adv-x="104" 
d="M68 1034l-48 168q-32 98 -10 215q49 12 74.5 -14t17.5 -74q-6 -36 -9 -103.5t-5 -88.5q0 -6 1.5 -17.5t1.5 -21t-3 -17.5q0 -3 -20 -47z" />
    <glyph glyph-name="parenleft" unicode="(" horiz-adv-x="460" 
d="M219 1305q65 -4 76 -7q30 -6 51.5 -33.5t11.5 -50.5q-17 -39 -32.5 -183t-29 -342.5t-17.5 -235.5q-3 -33 1.5 -94t4.5 -80q-3 -189 55 -330q16 -36 36 -76t46 -87.5t39 -72.5q-52 -52 -96.5 -57.5t-96.5 35.5q-53 42 -98 114q-14 21 -28 47t-23 43.5t-24.5 50.5
t-22.5 46q-45 100 -59.5 201t-8.5 237q20 222 46 348.5t118 415.5q6 17 14.5 35t19.5 40.5t17 35.5z" />
    <glyph glyph-name="parenright" unicode=")" horiz-adv-x="401" 
d="M4 1257q-11 20 3.5 38t37.5 12q89 -26 129 -107q13 -27 45.5 -69t44.5 -62q65 -124 82 -186q38 -128 47 -256q13 -152 4 -334q-1 -43 -4.5 -88t-9.5 -104.5t-8 -88.5q0 -8 -7.5 -38t-27 -79.5t-47 -97t-75.5 -91t-105 -62.5q-17 -4 -30 5.5t-15 26.5q0 13 2 17l51 327
q5 35 12 122.5t8 97.5l19 383q8 225 -99 503q-23 61 -57 131z" />
    <glyph glyph-name="asterisk" unicode="*" horiz-adv-x="499" 
d="M47 1006q50 28 127 69l-174 76q32 13 50.5 12t50.5 -5.5t53 -2.5q-27 31 -80 84q22 3 55 11t43 10l41 -60q10 38 12 43q82 10 101 -63q12 7 37.5 25.5t40 27t39.5 15.5t51 3l-91 -131l97 -47q0 -10 -2 -12l-101 -25q25 -57 31 -69l-115 73l-41 -94q-29 18 -59 31
q-6 -2 -23.5 -8t-23.5 -6.5t-19 0.5q-11 5 -33.5 7.5t-39.5 10t-27 25.5z" />
    <glyph glyph-name="plus" unicode="+" horiz-adv-x="831" 
d="M287 532q-3 38 -7.5 116t-7.5 118q-2 46 20 67.5t68 18.5q88 -3 170 -68l21 -237q1 -25 13.5 -35.5t37.5 -15.5l168 -43l29 -9q33 -9 30 -43q-1 -14 -9 -22t-15 -9.5t-23 -2.5q-12 0 -33 2t-32 2h-150q-12 -52 -6.5 -90t3.5 -87.5t-21 -87.5q-40 5 -49 5
q-75 6 -114.5 43.5t-49.5 115.5q-4 33 -33 146l-84 -21q-107 41 -135 56q-35 18 -78 61q55 19 140 18.5t147 1.5z" />
    <glyph glyph-name="comma" unicode="," horiz-adv-x="378" 
d="M0 -502q12 10 35.5 32t36.5 32q41 37 62 71.5t22 81.5q0 22 4 46t11.5 56.5t10.5 49.5q8 7 17 5.5t14 -5.5t13.5 -10.5t15.5 -8.5q13 -2 20 -1.5t23 3t24 3.5q43 -94 70 -160q-5 -38 -8 -45l-1 -8q-1 -9 -5 -13q-12 -10 -37 -32.5t-45 -38t-41 -25.5q-89 -47 -172 -39
q-8 1 -20.5 1t-24 1t-25.5 4z" />
    <glyph glyph-name="hyphen" unicode="-" horiz-adv-x="673" 
d="M674 487v-24q-15 -4 -48 -16t-59 -18t-51 -5q-52 3 -141.5 -14t-120.5 -19q-69 -11 -104 15q-14 10 -41 28t-48 33t-38 31q-6 5 -10 14t-5.5 15.5t-4 22t-3.5 21.5q44 -22 101 -28t102.5 -2t101.5 -2q50 -7 151.5 -16.5t151.5 -16.5q13 -1 36.5 -9t29.5 -10z" />
    <glyph glyph-name="period" unicode="." horiz-adv-x="180" 
d="M94 -209q38 -48 86 -102q-5 -18 -14.5 -50t-13.5 -45q-18 2 -46 -7.5t-45 -13.5t-47 11q-9 20 -12.5 37.5t0.5 34.5t8 29.5t16.5 29t19.5 25t24 26.5t24 25z" />
    <glyph glyph-name="slash" unicode="/" horiz-adv-x="468" 
d="M403 1311q82 -68 60 -166q0 -1 -4 -15.5t-4.5 -17.5t-3 -15t-2.5 -17.5v-15t1.5 -17.5t4.5 -17q2 -9 -2 -35q-35 -263 -43 -307q-13 -68 -40 -188.5t-36 -165.5q-7 -36 -29.5 -149.5t-36.5 -174.5q-31 -119 -75 -262q-5 -16 -29 -49q-3 -4 -8.5 -13t-8.5 -13.5
t-9.5 -11.5t-11.5 -8.5t-15 -3.5t-19 3q-47 13 -66.5 30.5t-23.5 57.5q-4 88 2 129q4 22 27 145.5t39 190.5q17 70 52.5 204t51.5 203q11 38 51 250v6q71 267 178 443z" />
    <glyph glyph-name="zero" unicode="0" horiz-adv-x="735" 
d="M455 1036q-3 -13 -10 -29.5t-9 -23.5l80 35q16 -18 49.5 -54.5t58.5 -66t44 -57.5q92 -137 55 -273q-3 -17 -2 -20q7 -18 10 -36t1.5 -42t-2.5 -34.5t-6.5 -42.5t-6.5 -36q-12 -74 -25 -127t-37 -114t-63 -111.5t-94 -89.5q-31 -23 -47.5 -34t-44.5 -20.5t-56 -6.5
q-132 13 -198 98q-59 71 -95 160q-106 283 -10 643q11 43 31 84.5t56.5 100.5t47.5 79q8 14 17.5 24t17 16.5t21 10.5t20.5 6t24 1.5t22.5 -1t25.5 -2.5t24 -2q15 -3 30 -8t37 -14t34 -13zM518 768q-7 -12 -27 -36.5t-24 -39.5q-24 -87 -47 -149t-60 -117q-23 -35 -116 -207
q-2 -5 -6.5 -12t-6.5 -13t-2 -12q-3 -147 84 -241q31 -35 59.5 -36.5t65.5 29.5q49 39 80 121q79 201 94 408q8 97 -11 170.5t-83 134.5zM426 975q-148 -213 -172 -436q10 15 30.5 55.5t37.5 58.5q13 15 24 31t21 37.5t15.5 32t14.5 39t11 34t12 40.5t10 36q6 15 -4 72z" />
    <glyph glyph-name="one" unicode="1" horiz-adv-x="454" 
d="M182 809q-40 -27 -59 -37.5t-40.5 -7t-35.5 16.5t-47 48q64 27 112 73.5t95 115.5q15 20 21.5 27.5t20 13t32.5 2.5q24 -3 71.5 -6t71.5 -6q3 -30 14.5 -112.5t14.5 -125.5q3 -72 -9 -143q-13 -65 -43 -190.5t-43 -190.5q-12 -48 -29 -145.5t-28 -145.5
q-3 -18 -13.5 -51.5t-13.5 -46.5q-11 3 -59 8q-67 7 -87 27.5t-32 89.5q-9 52 -11 104.5t4 112.5t11.5 98.5t16.5 107.5q9 73 63 320q2 14 2 43z" />
    <glyph glyph-name="two" unicode="2" horiz-adv-x="686" 
d="M487 1063q-19 -7 -58.5 -19.5t-68 -23.5t-53.5 -25q-17 -10 -30.5 -31t-18.5 -42q-10 -61 -51 -68q-17 -4 -44.5 28t-27.5 54q1 3 3 19t4 22t6 17t11 18t17 12q103 53 187.5 76.5t173.5 7.5q20 1 37 -5.5t30.5 -20.5t24 -29t18.5 -38t13.5 -39.5t10 -41.5t6.5 -36.5
t5 -31.5l2 -20q4 -51 -62 -182.5t-124 -224.5t-105 -163q-5 -7 -106 -155q-30 -47 -97 -158q15 -2 92 -12t119 -14q31 -4 91 -8.5t92 -8.5q35 -4 43 -24q10 -34 -37 -46q-26 -9 -49 -2q-123 27 -369 31q-82 2 -131 61t-39 144q11 61 27 96q125 248 170 322q66 111 235 348
q44 57 56 100.5t-3 112.5z" />
    <glyph glyph-name="three" unicode="3" horiz-adv-x="610" 
d="M152 217q-8 -8 -24.5 -21.5t-21.5 -17.5q-49 -41 -41.5 -107.5t64.5 -95.5q28 -14 63.5 -16.5t72.5 14t57 52.5q4 8 29.5 53t33.5 62t19.5 52t13.5 66q4 111 -2 150q-14 75 -61 117t-132 26q-16 -3 -48 -5t-48 -5q-11 37 -11 51.5t13 62.5q13 5 50 21.5t62 26.5t50 16
q99 30 112 141q2 38 2 53.5t-2.5 52.5t-3.5 54q-45 12 -67 -16q-24 -29 -113 -123l-59 -70h-43q-34 47 0 104q35 60 89 102.5t132 84.5q49 22 95 9.5t83 -52.5q77 -86 62 -195q-2 -15 -4.5 -60.5t-8.5 -68.5q-18 -76 -96 -147q21 -29 31 -35q76 -57 96 -133.5t6 -181.5
q0 -8 -19 -67t-54 -129t-66 -87q-38 -32 -149.5 -71t-166.5 -21q-56 19 -91 55t-46 76.5t-10 76.5t12 66q16 45 48 64t83 28q1 -3 4.5 -6t4.5 -6z" />
    <glyph glyph-name="four" unicode="4" horiz-adv-x="626" 
d="M313 385q-124 26 -202 37q-41 8 -68 49q-67 103 -25 203q13 33 43.5 117.5t49.5 128.5q8 17 19.5 34.5t19.5 28.5t24.5 32t22.5 29q13 17 37.5 48t35.5 45l115 -103q-4 -18 -9.5 -29.5t-17.5 -29.5t-22 -35q-127 -268 -158 -322q-16 -36 -20 -64.5t4 -46t20 -29
t32.5 -16.5t36.5 -7t36 -2q46 3 61 51q24 74 74.5 214.5t56.5 158.5q5 16 21 79q43 22 98 -10q11 -6 19.5 -17t7.5 -18q-2 -13 -20 -189t-25 -228q-1 -8 -5.5 -45.5t-6.5 -51.5t-7 -42.5t-10.5 -50.5t-13.5 -44q-18 -49 -84 -274q-5 -15 -11 -25q-45 -119 -55 -139h-31
q-23 5 -34 27.5t-11 80.5q0 50 1 226t1 229z" />
    <glyph glyph-name="five" unicode="5" horiz-adv-x="704" 
d="M225 575l-12 -16h-49q-22 -1 -31 8.5t-14 30.5q-46 211 69 424q56 95 160 72q77 -16 135 6q32 13 61 -5.5t50 -62.5q-120 -38 -154 -47q-40 -13 -57 -8q-60 14 -76 -47q-5 -14 -20 -94q1 -7 5.5 -10t12 -4t8.5 -1q91 -10 163.5 -57.5t141.5 -124.5q41 -49 70 -172
q38 -164 -14 -293q-55 -133 -156 -182q-11 -6 -37.5 -20.5t-38.5 -20.5t-39 -17.5t-52 -19t-65 -18t-89 -19.5q-30 2 -53.5 12t-44.5 32t-31 35.5t-31 45.5q-54 81 -29 197q3 18 10.5 37.5t19.5 44t17 36.5q57 -13 71.5 -31t8.5 -65q0 -3 -1.5 -14.5t-1.5 -17t0.5 -14
t2.5 -14t6 -9.5q18 -23 26.5 -32t27.5 -23t41 -21q12 -3 49.5 2t58.5 16q45 17 77 54t46 75q24 57 6 224.5t-49 179.5q-56 26 -111 11t-88 -63z" />
    <glyph glyph-name="six" unicode="6" horiz-adv-x="550" 
d="M211 350q17 12 67.5 29t75.5 10q5 -2 26 -9.5t27.5 -10t23.5 -9.5t25.5 -12.5t22 -13.5t23.5 -18t20 -21q21 -21 23 -35q15 -135 -25 -260q0 -4 -8 -12q-37 -43 -90 -71t-109.5 -34t-111.5 24.5t-90 98.5q-5 10 -21.5 38.5t-26.5 49t-18 41.5q-61 150 -39 334
q24 204 98 399q34 96 103 135t168 44q26 1 51 -13.5t40 -29.5t40 -46q-12 -8 -31 -22t-33.5 -23.5t-29.5 -15.5q-39 -15 -68.5 -41t-47.5 -60.5t-28.5 -66t-19.5 -72.5q-10 -40 -17 -86t-13 -100.5t-11 -85.5q0 -3 4 -35zM190 172q0 -22 2 -38.5t4 -24.5t7 -23t8 -25
q6 -30 24 -40.5t50 -8.5q63 4 105.5 47.5t53.5 112.5q12 96 -65 123q-55 4 -94 -7t-56.5 -29.5t-26 -38.5t-10.5 -34z" />
    <glyph glyph-name="seven" unicode="7" horiz-adv-x="612" 
d="M268 387q-24 -4 -53.5 -5t-32.5 -1q-50 -5 -69.5 17t-18.5 81q31 -3 91 -5t89 -5q21 61 75.5 191t72.5 171q14 25 37 89q-63 -4 -76 -7q-59 -11 -178 -3t-133 22q-14 13 -72 98l303 -18q88 -3 174 6q38 0 81 -37t52 -76q7 -55 -29 -193t-70 -234t-62 -167
q-9 -23 -33 -67.5t-33 -67.5q-4 -8 -35 -76t-56 -121t-36 -71q-3 -4 -8 -5t-19.5 -2t-19.5 -1q-22 7 -29.5 20t-4 62.5t25.5 142.5t67 262z" />
    <glyph glyph-name="eight" unicode="8" horiz-adv-x="534" 
d="M0 106q24 199 158 336l86 90q34 29 12 74q-18 29 -50 89.5t-50 90.5q-17 28 -27 50t-18 48.5t-7 54t11 56.5q18 46 76.5 79t101.5 16q5 -2 20 -8.5t20 -8.5t18 -8t18.5 -9l16.5 -9t18 -10.5t17 -11t18.5 -13.5t17.5 -15q19 -24 26 -72.5t4.5 -85t1.5 -59.5
q9 -79 -26 -153q-18 -40 4 -78q86 -133 61 -346q-18 -168 -143 -281q-76 -65 -131 -67q-29 -3 -64 6.5t-57.5 21t-58.5 31.5q-60 34 -74 192zM303 399q-3 -5 -87.5 -122t-98.5 -146q-33 -80 20 -176q19 3 45.5 5t44.5 5q74 8 90 88q8 38 10 84t1 76t-5.5 87t-5.5 79
q0 3 -2 5.5t-6 6.5t-6 8zM313 791q60 45 47 131q-8 39 -34.5 59t-67.5 10q-31 -37 -34 -59t20 -53q12 -14 69 -88z" />
    <glyph glyph-name="nine" unicode="9" horiz-adv-x="616" 
d="M406 926q78 -35 169 -74q37 -15 37 -55q4 -91 3.5 -264.5t-5.5 -198.5q-9 -86 -32 -224t-48 -190q-6 -12 -11 -25t-10.5 -29.5l-8.5 -25.5q-51 4 -75.5 31t-37.5 82q-12 46 -19 97.5t-10 90.5t-2 100t2 90.5t5.5 100t5.5 92.5q0 8 1 19t1 14q-21 0 -65.5 -1.5t-78 -1
t-65.5 4.5q-70 9 -111 86q-76 145 -37 266q43 131 174 168q99 29 140 -45q23 -38 78 -108zM342 913q-46 9 -76 9q-38 -4 -53 -13q-29 -16 -58.5 -83.5t-17.5 -102.5q18 -48 48 -60.5t67 17.5q16 14 29 29.5t33 42.5t24 32q50 59 4 129z" />
    <glyph glyph-name="colon" unicode=":" horiz-adv-x="352" 
d="M0 399q14 5 42.5 17.5t45 19t42 12.5t48.5 5q64 0 115.5 -51.5t56.5 -116.5q1 -15 -2 -28.5t-12 -29t-13 -21t-18 -24.5q-19 -26 -50 -42t-51.5 -21t-64.5 -11q-8 -1 -12 -2q-29 -5 -46 22t-7 62q11 54 -21 97q-11 11 -14 24q-8 16 -21.5 48t-17.5 40zM150 852
q11 -4 32.5 -12t32 -12t26 -11.5t27.5 -15.5q76 -50 76 -129q1 -28 -10 -41.5t-43 -24.5q-20 -8 -36.5 -10t-33 4t-26 11t-29.5 18q-27 17 -31 59q-10 46 -6 115q0 7 3 15t9 18t9 16z" />
    <glyph glyph-name="semicolon" unicode=";" horiz-adv-x="223" 
d="M10 197q36 19 49 43.5t7 70.5q-3 29 -3 40.5t3.5 38.5t19.5 45t43 30q46 -36 70 -62q43 -48 8 -104q-6 -10 -9.5 -23t-5.5 -32.5t-4 -28.5q-6 -77 -59 -86q-47 -6 -73.5 9.5t-45.5 58.5zM98 831q19 -1 35 -8.5t25.5 -16.5t19.5 -25t14 -26.5t12 -30.5t11 -28
q6 -24 5 -38.5t-12.5 -31t-23 -27t-27 -27t-24.5 -31.5q-3 2 -11 9.5t-11.5 10.5t-11 8t-12 5.5t-11 0.5t-13 -4.5t-12.5 -11.5q-33 26 -44 48t1 55q3 9 3.5 30.5t8 36.5t29.5 25q10 4 17.5 15.5t16.5 31.5t15 30z" />
    <glyph glyph-name="less" unicode="&#x3c;" horiz-adv-x="569" 
d="M545 991q3 -15 10 -42.5t10 -43.5q10 -34 0.5 -64t-47.5 -46q-14 -3 -22 -15q-34 -61 -84.5 -122t-116 -131t-102.5 -117l292 -295q-34 -18 -56.5 -18.5t-53.5 18.5q-197 131 -330 319q-27 37 -43 125q-11 52 43 103q147 126 291 258q57 53 98 64.5t111 6.5z" />
    <glyph glyph-name="equal" unicode="=" horiz-adv-x="708" 
d="M6 455q17 0 115.5 3.5t127.5 3.5t110 -2.5t125 -10t107.5 -22.5t117.5 -38v-14q-34 -15 -37 -15q-15 -2 -48.5 -6.5t-59 -9t-48.5 -10.5q-163 -45 -358 -35q-5 0 -14.5 2t-14.5 2q-87 0 -113.5 32.5t-9.5 119.5zM18 614l29 48q8 -2 21 -7t24 -8t21 -2q116 10 354 -18
q40 -4 116 -10.5t111 -10.5q-8 -11 -19 -18t-19 -9t-23.5 -5t-22.5 -5q-9 -3 -28.5 -4t-28.5 -4q-55 -19 -120 -27t-143 -11.5t-120 -8.5q-117 -14 -152 100z" />
    <glyph glyph-name="greater" unicode="&#x3e;" horiz-adv-x="546" 
d="M84 1016q13 -9 45 -24.5t45 -28.5q68 -71 192 -204.5t156 -168.5q44 -46 8 -107q-4 -8 -23.5 -44l-26 -48t-24 -42t-29 -45.5t-29 -39t-36 -41.5t-38.5 -35q-7 -5 -15.5 -21.5t-15.5 -21.5q-10 -7 -22 -18.5t-20.5 -20t-21 -17t-24 -12t-28.5 -3t-36 7.5
q-16 6 -43.5 -0.5t-47.5 -8.5t-50 19q0 136 59 240l177 303q22 34 21 66t-32 61q-14 15 -40 51t-44 53q-34 31 -47.5 64.5t-9.5 85.5z" />
    <glyph glyph-name="question" unicode="?" horiz-adv-x="624" 
d="M123 57q-3 14 -20 74.5t-23 93.5q-8 41 -27 217q-31 218 135 435q84 102 121 188q40 98 31 223q-32 -12 -61 -33t-45 -38.5t-41 -47.5q-48 -60 -86.5 -65.5t-106.5 41.5q50 82 97 133t118 80q115 51 256 -6q18 -7 31.5 -21.5t33.5 -47t23 -36.5q27 -33 39 -75t12 -80v-82
q0 -51 4 -66q8 -20 10 -39t-3 -42t-9 -34.5t-14 -37.5q-7 -17 -16 -35.5t-16.5 -31.5t-20.5 -33t-20 -29t-23 -31t-21 -29t-19 -24t-20.5 -25t-17.5 -23.5t-17.5 -26t-13 -25t-10.5 -27.5q-6 -20 -24.5 -64t-24.5 -70l-41 -141q-19 -63 -55.5 -89t-114.5 -30zM59 -133
q27 -28 55.5 -30.5t55.5 13.5q21 12 55 9q19 0 33 -17q9 -19 23.5 -55.5t17.5 -42.5q9 -21 2 -31q-7 -11 -26 -54.5t-39 -61.5q-33 -31 -70 -9q-18 12 -53.5 34.5t-53.5 35.5q-18 11 -14 39q1 13 7 40t7 40q1 12 1 26t-0.5 33t-0.5 31zM172 -190h35q0 3 -1 7t-1 7
q-28 -4 -35 -4q0 -4 1 -7z" />
    <glyph glyph-name="at" unicode="@" horiz-adv-x="1765" 
d="M1602 1100q-9 -54 -1.5 -70.5t50.5 -36.5q29 -16 42 -36t21 -52q7 -28 24.5 -90t26.5 -98q-3 -3 -9.5 -10t-12.5 -14.5t-10 -14.5q-19 -33 -11 -51q7 -17 9 -35.5t1.5 -31.5t-6 -32.5t-8.5 -28.5t-12 -30.5t-12 -28.5q-2 -3 -7.5 -9.5t-9 -11.5t-2.5 -9q7 -15 5.5 -33.5
t-4.5 -30.5t-12 -28t-16.5 -26.5t-18.5 -26t-17 -25.5q-4 -6 -10 -25q-41 -120 -177 -178q-10 -5 -28.5 -14.5t-33.5 -16t-30 -10.5q-157 -45 -278 96q-25 31 -47 67t-51 88.5t-42 74.5q-10 16 -28 61q-8 -5 -30 -15t-30 -18q-12 -14 -29 -23t-28.5 -12t-35.5 -7.5t-32 -6.5
q-35 -9 -67 16q-97 63 -135 199q-18 64 20 148q19 44 55.5 83.5t60 56.5t81.5 55q11 7 16 11q62 41 137 -6q30 -18 82 -18q71 3 129 -8q33 -6 44 -20.5t10 -49.5q-15 -260 -15 -311q0 -103 23 -234q8 -41 51 -70t91.5 -31t90.5 23q89 67 144.5 140t72.5 168q1 7 6 31.5
t6.5 33.5t5 31t4 34.5t2 31t0.5 34.5t-3 33q-13 93 -48 161t-104 115q-10 28 -30 48t-53 41t-46 32q-67 51 -104 60q-13 3 -31 14.5t-27 15.5q-6 3 -17.5 9t-18.5 9t-17 5.5t-20 2t-21 -4.5q-15 -5 -20 0q-51 19 -133 17.5t-133 0.5q-35 3 -56 -12q-14 -10 -67 -45t-84 -60
t-56 -53q-33 -38 -49 -59.5t-35 -61.5t-22 -79q-1 -8 -19 -39q-4 -8 -12 -23l-12 -22.5t-10 -22.5t-7.5 -23.5t-3.5 -24.5t2 -26q1 -10 -12 -41q-14 -29 -21.5 -48t-14 -44.5t-4 -49.5t13.5 -48q5 -7 0 -29q-12 -40 -15 -86.5t-1 -75.5t9 -87t9 -78q9 -95 100 -160
q90 -67 188 -125q101 -57 181 -25q17 3 20 2q29 -23 92 -28.5t90 -20.5q-7 -20 -10 -20q-19 -5 -51 -15.5t-51.5 -17t-53 -11t-55.5 2.5q-19 4 -66 0.5t-69 -0.5q-67 3 -129 18q-292 72 -410 340q-46 112 -69 199t-19 180q0 3 -6 57q-27 255 111 476q12 12 12 18
q-12 49 25 92q12 15 39 50.5t43 55t42 45t52 42.5q34 18 88 28q16 2 50.5 6t60.5 8.5t51 10.5q209 49 344 20q37 -8 80 -12t97 -6.5t83 -5.5q166 -16 270 -117q60 -60 148 -57zM918 764q-47 31 -82 -2q-4 -3 -39.5 -28.5t-51.5 -43.5l-20.5 -20.5t-21.5 -22t-18.5 -21
t-18.5 -23t-15.5 -23.5t-14 -27t-9 -27.5t-6.5 -31.5q-6 -48 32 -74q35 -29 78 14q53 49 72 82q17 28 34 60t36 71t30 60q4 7 6 15.5t4.5 21t4.5 20.5zM229 -117l-12 -12l43 -47q1 3 4 5t4 5q-7 8 -19.5 24.5t-19.5 24.5zM137 858l13 55q-42 -26 -13 -55zM72 487v-51
q2 -2 14 -2q0 9 -1 27t-1 26h-12z" />
    <glyph glyph-name="A" unicode="A" horiz-adv-x="1366" 
d="M1202 313q86 233 103 322q3 20 19 27t29.5 -3t10.5 -30v-2q-8 -62 -72 -229t-145 -267q-40 -60 -101 -53.5t-120.5 49.5t-94.5 98q-108 165 -165 334q-3 8 -11 19q-20 -10 -85 -30t-91 -20h-36.5t-24 -3t-16 -4.5t-10 -10.5t-8 -15t-8 -24.5t-11.5 -32.5
q-39 -86 -78.5 -157.5t-60 -101.5t-51.5 -69t-32 -40q-10 -13 -28 -27q-17 -13 -35.5 -9t-24.5 23q-9 26 -20 68q-56 208 -19 412q76 404 121 618q19 83 78 291q5 20 29.5 57t34.5 37q36 4 59 -6q80 -33 134 -76.5t83 -111.5q14 -31 36 -91.5t30 -80.5l90 -218
q2 -4 21 -47.5t37.5 -84.5t21.5 -44q1 -2 77.5 -170.5t142 -300t83.5 -137.5q9 -4 24.5 14t38.5 54q2 3 19.5 30t25.5 43zM426 1053q-3 -61 -7 -181.5t-7 -181.5q0 -15 9 -26t25 -11q17 -3 50.5 -5t50.5 -5q23 -2 35 15.5t2 37.5q-18 37 -66 165.5t-92 191.5z" />
    <glyph glyph-name="B" unicode="B" horiz-adv-x="1320" 
d="M0 1501q1 23 19.5 34t39.5 3q8 -2 91 -33q87 -36 108 -123l51 27q93 61 213 64q49 0 91.5 -29.5t66.5 -75.5q20 -42 27.5 -130.5t-5.5 -193.5t-47 -174q60 -1 95 -29t71 -83q15 -25 76 -101q191 29 307 45q82 12 117 -32q-15 -30 -41 -33l-307 -45q-32 -5 -41 -19t2 -49
q10 -36 -12 -157t-70 -217q-31 -67 -145.5 -107t-231.5 -12q-144 46 -92 182q8 28 25 51q42 61 65.5 93t66 77t87.5 76q56 38 62 57.5t-19 85.5l-41 95q-10 19 -48.5 19.5t-89.5 -20t-90 -57.5q-1 -4 -2 -9l-1.5 -7.5t-0.5 -3.5q-13 -87 -28 -258q-6 -37 -10.5 -147
t-4.5 -144q0 -16 -3.5 -42.5t-8.5 -27.5q-4 -1 -20.5 -3.5t-22.5 -3t-20.5 -1.5t-23 0t-21 3.5t-23.5 6.5q-56 30 -82 99q-18 45 -30.5 100t-17 91t-11.5 101q-2 18 -19 222q-3 30 -3 85t-1 68q-11 222 -22 355l-19 210q-6 58 -6 117zM375 782q7 7 17.5 14t13.5 11
q85 118 114 244q7 31 21 123q7 78 -17 178q-15 64 -71 34q-57 -35 -115 -86q-22 -22 -19 -65q3 -17 2.5 -52t2.5 -55q5 -36 13 -108.5t13 -108.5q3 -22 12 -65t13 -64zM705 459q-10 -8 -38.5 -25.5t-41.5 -30.5q-19 -17 -54 -50t-55 -50q-64 -61 -90 -131q-24 -70 49 -88
q46 -12 109 11.5t88 62.5q11 21 29 107.5t14 125.5q-3 38 -10 68z" />
    <glyph glyph-name="C" unicode="C" horiz-adv-x="763" 
d="M535 1270l20 -76q-29 -29 -38 -32t-42 5q-36 111 -39 119q-13 22 -24 19q-6 0 -15 -7t-10 -14q-4 -19 -26 -128.5t-31 -147.5q-68 -367 -51 -838q2 -29 9 -51t18.5 -34.5t20.5 -19.5t21 -12t14 -6q55 6 130 123q59 96 94 178q87 216 129 291q11 19 30 14.5t19 -24.5
q0 -25 -14 -45q-10 -15 -41.5 -91t-68.5 -169t-42 -105q-37 -86 -121 -170q-25 -25 -45.5 -38.5t-56.5 -26.5q-89 -33 -187 24q-68 36 -110 109q-34 63 -55 221.5t-21 224.5q0 13 -1.5 37.5t-1.5 44.5t3 37q11 154 27 246q17 102 61 278q19 78 45 115q5 9 11 16.5t16 16.5
t14.5 12t19.5 14t17 13q10 9 24 16t29 11t29 6.5t30 3t25.5 1t20.5 0t12 -0.5q65 -5 98 -46.5t54 -113.5z" />
    <glyph glyph-name="D" unicode="D" horiz-adv-x="1200" 
d="M895 678q75 19 191 7t112 -48q-1 -1 -13.5 -2t-26 -2t-15.5 -2q-49 -6 -146 -10q-59 -4 -80.5 -27.5t-29.5 -85.5q-12 -87 -37 -166t-51.5 -131t-57.5 -97t-50.5 -66t-35.5 -34q-54 -49 -135 -20q-64 21 -86 98q-27 103 29 193q1 3 48 56t91.5 117t44.5 101
q-3 73 -17 158.5t-27.5 140.5t-39.5 152l-28 120q-2 5 -6 21.5t-7.5 26.5t-9.5 22t-13 17t-16 2q-45 -30 -77.5 -99.5t-43 -124t-10.5 -84.5q0 -43 12.5 -388.5t12.5 -354.5l16 -156q3 -44 -41 -65q-84 -46 -155 -39q-85 9 -93 84q-10 73 -22 215q-11 100 -33 377
q-3 37 -5 110.5t-5 110.5q-7 148 -21 360l-18 277q7 0 43.5 0.5t40.5 -4.5q34 -12 137 -62q25 -12 37.5 -32t14 -37.5t6 -36t14.5 -27.5q4 3 13 6t13 6q138 90 306 41q8 -3 26 -5.5t27 -6.5q48 -16 87.5 -64t64 -109.5t42 -131t24 -131.5t6.5 -108t-7 -62zM651 356
q-77 -66 -129 -153q-20 -33 -30 -78q-2 -26 14 -72q11 -32 49 -16q43 20 73 63t34 101q0 6 2 34t2 40.5t-3.5 36t-11.5 44.5z" />
    <glyph glyph-name="E" unicode="E" horiz-adv-x="1101" 
d="M1049 674q26 -4 41 -26t10 -48q-22 -141 -110 -306.5t-140 -217.5q-52 -59 -84.5 -83t-81.5 -42q-80 -31 -144 -42t-147 -5q-148 9 -260 104q-55 49 -98 158q-16 37 -25.5 86t-9.5 112.5t16 118.5q11 29 25.5 70.5t27 72.5t29.5 68q20 45 97 152q11 16 24.5 31.5t32 36.5
t29.5 34l-29 62q-33 71 -35 123q-5 64 34.5 140.5t98.5 104.5q66 37 140.5 49t118 6.5t65.5 -16.5q29 -17 55 -31t50 -38t36 -54q19 -44 7.5 -83.5t-52.5 -65.5q-33 -20 -48 -23t-46 8q-19 7 -27 26.5t-2 39.5l4 8q3 53 -43 79.5t-99 13.5t-69 -58q0 -12 -0.5 -33.5
t-0.5 -39t1 -33.5q6 -72 44 -140t108 -86q30 -6 86 -35q26 -12 26.5 -30t-24.5 -31q-47 -27 -82 -16q-13 3 -41 4t-41 4q-42 5 -64 -9t-34 -55q-9 -37 -48.5 -156.5t-41.5 -129.5q-26 -92 -37 -248q-9 -85 55 -152q10 -16 47 -16q118 -3 232 51q113 53 197 139.5t132 194.5
q52 127 86 250q0 2 9 2z" />
    <glyph glyph-name="F" unicode="F" horiz-adv-x="1030" 
d="M20 1417q4 0 18 3t19 3t19 -2q9 -2 37 -7t42.5 -8t36.5 -9.5t39 -14.5q207 -80 369 -63q4 0 42 4t47.5 4.5t41 2t47.5 1t40.5 -3t45.5 -6.5q41 -7 133 -37q6 -3 33 -24q-11 -24 -31 -38.5t-34.5 -18t-44.5 -9.5q-9 -2 -64 -11.5t-84 -17.5q-42 -11 -92 -12t-84 3t-92 13
q-33 5 -144 29q-17 -20 -22.5 -88.5t-2.5 -133t9 -104.5q0 -1 12 -10q161 26 342 -10q-3 -45 -34 -64q-81 -49 -220 -59l-77 -4v-29q20 -70 20.5 -160.5t-8.5 -162.5q0 -29 -5 -87t-17.5 -144.5t-42.5 -148.5t-72 -65q-7 0 -20.5 -1t-20.5 -1q-153 15 -174 191
q-4 14 -8.5 107.5t-4.5 148.5l-12 289q0 562 12 737q0 3 6 18z" />
    <glyph glyph-name="G" unicode="G" horiz-adv-x="942" 
d="M881 1241l-2 -2q-17 -8 -34 -3.5t-25.5 11t-22 17.5t-23.5 16q-37 24 -55.5 25t-50.5 -23q-15 -14 -48.5 -41.5t-50.5 -44.5q-22 -22 -67 -94t-66 -144q-7 -29 -30 -79t-31 -76q-15 -48 -38.5 -137.5t-31.5 -118.5q-25 -103 7.5 -223t76.5 -168q27 -32 64 -37t73 8
q74 21 115 84q18 25 33.5 51.5t34.5 63t28 51.5q17 33 43 98q6 6 -2 6q-31 6 -97 19t-101 20q-76 15 -138 62q-19 12 -16 33t23 32l90 41q21 9 47 6q74 -13 139 -32q4 -1 176 -64l2 -2q33 -23 38.5 -57t-7.5 -80q-2 -8 -11 -48.5t-12 -53t-12 -46t-16 -52t-18 -45.5t-23 -50
q-16 -30 -39 -55t-39 -37t-53 -39q-21 -15 -45.5 -26t-54 -22.5t-46.5 -19.5q-32 -13 -64 -14.5t-63 7.5t-57 21.5t-57 32.5q-62 40 -109 76q-179 135 -209 311q-3 18 -4.5 54.5t-0.5 68.5l2 64t1 35q3 15 7 46.5t7 47.5q17 71 23 88q60 182 154 297q12 15 24 31t25.5 35
t21.5 30q79 112 238 170q47 18 82 26t79.5 6t86.5 -20q2 -1 20.5 -11t35 -21.5t35.5 -27.5t29.5 -36t8.5 -41z" />
    <glyph glyph-name="H" unicode="H" horiz-adv-x="1228" 
d="M377 547q16 9 54.5 25.5t57.5 29.5q44 28 107 84q11 9 16 41q7 42 17.5 126t17.5 126q3 24 12.5 68.5t12.5 58.5q20 125 28 158q5 25 17 28q37 10 81.5 8.5t78.5 -22.5q44 -28 59 -70q55 -145 55 -254q0 -41 -54 -268.5t-54 -236.5q29 22 97 76.5t119.5 89t106.5 59.5
q24 -36 21.5 -48t-35.5 -36q-12 -8 -43.5 -28t-47.5 -31t-41 -29t-44 -35q-27 -26 -71.5 -78t-63.5 -72q-7 -10 -25 -29.5t-25 -31.5q-11 -15 -20.5 -37.5t-15.5 -40.5t-15.5 -51t-15.5 -51q-9 0 -49 -3t-43 1q-57 17 -81 47.5t-28 93.5q0 41 2 64q2 18 13.5 97.5t15.5 127
t0 59.5q-33 -4 -63.5 -17.5t-68 -36.5t-56.5 -32q-8 -5 -24 -82t-37 -178t-34 -143q-30 -95 -102 -115q-18 -5 -47.5 -15.5t-38.5 -13.5q-38 -14 -66 21q-39 51 -49 135q-15 109 4 301q2 51 13 123q18 194 22 258q6 80 6 160q1 0 1 172l-1 172q0 13 1.5 32t5.5 42.5t12.5 39
t19.5 13.5q128 -20 217 -129q33 -37 53 -133q9 -50 12 -68.5t8 -59t4.5 -72t-5.5 -63.5q-13 -83 -16 -196q0 -21 12 -131z" />
    <glyph glyph-name="I" unicode="I" horiz-adv-x="583" 
d="M446 102q10 -8 22 -10.5t28.5 -3t27.5 -2.5q41 -5 52 -24t-1 -66q-11 -1 -45 -4.5t-53 -3.5q-71 -2 -215 2q-22 0 -45 10q-16 3 -47 7t-47 7q-34 5 -123 9q0 20 7.5 33.5t22.5 19.5t27.5 8.5t33.5 3.5t28 2q-6 80 19.5 562t41.5 548q4 9 4 33q-31 21 -87.5 56t-82.5 52
q42 30 92 17q239 -58 308 -78q14 -4 27 -10.5t30.5 -18.5t24.5 -16q7 -5 11.5 -15t0.5 -14q-10 -19 -27 -22q-18 -4 -80 -4q7 -65 31.5 -478t24.5 -471q0 -39 -11 -129z" />
    <glyph glyph-name="J" unicode="J" horiz-adv-x="933" 
d="M342 1233q-59 19 -154 8q-38 -4 -109.5 4.5t-74.5 16.5q-4 9 -4 38q3 11 16 80q28 4 45 4l193 -20q23 -3 73.5 -2.5t73.5 -3.5q19 -3 38 -9t48 -18.5t37 -15.5q7 -2 13 -25q3 -13 5.5 -43t6.5 -47q18 -63 49.5 -254.5t38.5 -283.5q19 0 127.5 8t169.5 2q-6 -26 -16 -36
t-33 -15l-178 -41q-44 -12 -53 -25t-9 -59q0 -61 -14 -124t-33.5 -109.5t-41.5 -86.5t-36 -60t-20 -26q-54 -73 -187 -119q-16 -6 -40.5 -7.5t-65 4t-86.5 39t-84 91.5q-31 52 -6 125l16 53q31 96 117 170q78 62 119 89q22 16 22 36q2 31 8 163t11 229.5t8 121.5t5 72.5
t5 75.5zM311 446q-41 -14 -112.5 -109.5t-87.5 -178.5q-11 -44 10 -78q28 -52 110 -66q53 -9 66 52q1 5 6 27t6 27l5.5 27.5t4.5 27.5t3 27t1 27t-1 27q-11 121 -11 190z" />
    <glyph glyph-name="K" unicode="K" horiz-adv-x="1476" 
d="M12 1198v182q0 -1 6 2q51 41 59 44q12 4 38 -10q24 -13 43 -21q15 -7 30 -16t27 -17t27.5 -21t24 -19.5t25.5 -23t22.5 -22l24.5 -24.5l23 -23q16 -16 27.5 -33t21 -44t13 -37t12.5 -48t10 -41q2 -5 3 -69.5t6 -128.5t18 -74q171 177 174 180q26 24 79.5 70t78.5 69
q3 2 45.5 38t84.5 65.5t66 33.5q30 7 39 -18q8 -20 3.5 -44.5t-21.5 -37.5q-20 -15 -133 -131t-133 -131q-22 -18 -128.5 -144.5t-131.5 -160.5q6 -10 25.5 -50.5t35.5 -58.5q99 -99 256 -153q101 -33 152 -33q82 3 141 47q66 50 175 161.5t116 147.5q3 7 5 17.5t5 17.5
q6 14 20 18t25 -6q42 -36 8 -96q-12 -21 -39.5 -57.5t-38.5 -53.5q-13 -16 -117.5 -121t-115.5 -112q-36 -24 -56.5 -36t-56.5 -22.5t-80 -11.5q-69 10 -116 27q-101 30 -377 203q0 -21 -52.5 -198.5t-64.5 -201.5q-10 -18 -22 -30t-31 -18t-30 -8t-36 -5q-15 1 -23 -1
t-21 2t-19.5 5.5t-18 8.5t-17 10.5t-16 12t-15.5 13t-15.5 13.5t-15.5 14q-58 54 -62 164q-12 232 14 438q4 34 4 72t-2 85t-2 72q0 23 -1 72t-1 72q-4 160 -4 235z" />
    <glyph glyph-name="L" unicode="L" horiz-adv-x="843" 
d="M823 692q28 -9 19 -37q-30 -84 -84.5 -222.5t-77.5 -178.5q-94 -192 -188 -272q-66 -58 -155.5 -73t-166.5 25q-101 54 -137 175q-39 117 -29 286q13 141 26 217t48 203q60 235 78 291q37 120 67 174q34 63 90 101.5t125 39.5q20 2 70 -16q27 -9 24 -41q0 -15 -1.5 -46.5
t-10.5 -102t-24.5 -134.5t-47 -131.5t-73.5 -105.5q-13 -13 -13 -53q-2 -44 -16 -136l-18 -116q-7 -70 -25 -282t-18 -237q5 -34 16 -45q68 2 139 66q48 43 96 113.5t78.5 126t34.5 59.5q35 52 75.5 151t61.5 181q5 12 15 18t22 2zM356 1038q-3 -11 -3 -24t1.5 -29t1.5 -24
l13 -5q3 6 9.5 17.5t11 21t5.5 17.5q30 136 60 309q1 8 -8 20.5t-11 16.5q-20 -30 -43.5 -134.5t-36.5 -185.5z" />
    <glyph glyph-name="M" unicode="M" horiz-adv-x="1751" 
d="M924 973q-13 -17 -59.5 -78.5t-71.5 -91.5q-42 -48 -99 -98q-24 -20 -43 -19.5t-49 21.5l-168 127q-3 -18 -7 -53t-7 -54t-76.5 -328.5t-73.5 -322.5q-14 -73 -53 -127q-29 -44 -84 -31q-66 20 -90.5 60t-36.5 143q-18 161 19 323q8 35 14.5 78.5t9.5 72.5t7.5 83t6.5 76
l41 364q13 89 60 244q7 29 30.5 45t53.5 14h12q20 0 29 -12q13 -23 43.5 -50t38.5 -36q46 -53 73 -94q37 -57 60 -117q34 -85 98 -264q5 3 15.5 7t15.5 7q94 68 160 187l88 157q8 17 20.5 50t18.5 47q11 32 22.5 41.5t44.5 9.5q46 -1 182 -23q10 -1 22.5 -11.5t18.5 -21.5
q63 -117 66 -223q0 -62 -3.5 -131t-10 -156t-9.5 -131q-8 -101 -34 -217q-4 -17 -17.5 -58t-17.5 -63q-33 -156 -31 -229q2 -39 18 -53t52 -4q86 20 147 94q-1 -2 9.5 10.5t28.5 37t41 56.5t50 71.5t52 79t49 82.5t40 79q8 19 19 38t29.5 46t23.5 35q21 5 31 -3t6 -30
q-11 -59 -119 -247t-157 -247q-13 -14 -34 -43.5t-34 -38.5q-54 -54 -98 -80q-37 -23 -67.5 -34.5t-69 -10.5t-76.5 21q-149 78 -187 272q-6 30 -9.5 60t-3.5 65.5t-0.5 57.5t3 64.5t4.5 57.5t6 65l6 60q2 17 6.5 60t6.5 66.5t4 60t0.5 69.5t-6.5 66z" />
    <glyph glyph-name="N" unicode="N" horiz-adv-x="1497" 
d="M1382 641q43 21 93 18q12 0 18 -11.5t0 -22.5q-31 -49 -150 -90q-51 -16 -80.5 -22.5t-72 -4.5t-80.5 20l-6 -147q0 -45 -28.5 -180t-55.5 -219q-11 -29 -36 -41t-54 -2q-13 5 -37.5 10.5t-43 12t-32.5 18.5t-39 58.5t-54.5 109.5t-45.5 90q-28 46 -176 276
q-35 47 -66 123l-45 98q-6 -14 -8.5 -28t-2.5 -22t0.5 -22.5t0.5 -19.5q0 -2 1 -50.5t1 -82.5v-113q0 -223 -33 -327q-22 -68 -72.5 -94t-115.5 -15q-26 7 -58 21q-87 34 -90 149q-14 254 -14 326q0 178 8 317l33 488l6 84q2 25 21.5 38.5t44.5 6.5q38 -9 98 -31
q20 -8 96.5 -120.5t152.5 -248.5t91 -198q5 -23 24.5 -62t22.5 -47q86 -193 123 -260q19 -32 39 -57q11 3 16 8q0 389 10 520q0 90 4 251.5t13 188.5q10 24 26 29q5 2 58 16q32 8 53 -26q26 -46 43 -104t23.5 -98t15.5 -114q2 -18 5.5 -61t6 -66.5t7.5 -59t13 -65.5t19 -59
q29 -81 57 -115q41 -50 113 -26q68 20 139 55z" />
    <glyph glyph-name="O" unicode="O" horiz-adv-x="1273" 
d="M692 1401q4 -18 4.5 -37t-2 -33.5t-8.5 -34.5t-11 -32.5t-14.5 -34.5t-13.5 -33h37q70 7 139 -55q10 -10 13 -19q2 -6 11 -35t14.5 -51t16 -73.5t13 -102t6.5 -137.5t-2 -180q53 -22 123 10q15 7 45 21.5t47.5 23t42 22t45.5 27.5q55 36 70 8q11 -17 5 -35t-26 -28
q-64 -36 -156 -73.5t-139 -41.5q-35 -4 -50 -17t-23 -44q-35 -148 -136 -289q-64 -91 -102 -131q-29 -31 -88 -41q-2 0 -8 -1q-322 -44 -469 193q-19 35 -33.5 83t-19.5 75t-15 88q-16 97 -1 195t52 211q44 129 83 220.5t94 174.5q20 30 102 131q7 9 15 16t19 12.5l17 8.5
t21 8.5t20 7.5q90 33 227 33q12 0 35 -10zM492 903q-26 -56 -45.5 -104t-41 -111t-34.5 -126.5t-21.5 -135.5t-7 -153.5t13.5 -166.5q4 -29 25 -38q65 -38 123 -13q73 36 106 103q35 56 67 200t32 174q-5 33 -15 43q-91 112 -202 328zM719 672q3 0 8 1t8 1q0 24 -4 74
q-7 97 -26 227.5t-39 150.5q-36 47 -66 29q-17 -12 -25 -34.5t-4 -45.5q0 -4 2 -11t2 -11q24 -116 25 -148q7 -116 119 -233z" />
    <glyph glyph-name="P" unicode="P" horiz-adv-x="1015" 
d="M2 1444q21 30 57 24q6 -1 54 -4.5t71 -11.5q32 -12 49 -32.5t21 -39.5t9.5 -56.5t12.5 -63.5q5 3 21.5 10.5t24.5 13.5q55 38 125.5 51.5t133.5 4t101 -19.5t61 -20q11 -5 75.5 -60t88.5 -85q27 -30 54 -97t44.5 -153.5t4 -186.5t-65.5 -177q-58 -82 -117.5 -141
t-83.5 -64q-19 -4 -55.5 -17.5t-56.5 -17.5q-61 -16 -168 -35q-41 -6 -47 -47q0 -5 -1 -16t-1 -19v-70.5t-4 -86.5q-9 -87 -86 -138l-4 -1q-3 -1 -12.5 -2.5t-28.5 1.5q-31 6 -91 33q-18 8 -34 33q-42 61 -48 133q-4 52 -16 152.5t-16 152.5q-5 54 -10 153.5t-7 123.5
q-4 91 -10 139q-3 26 -7 78t-7 78q0 4 -9.5 125t-17.5 236.5t-4 119.5zM420 367q21 -13 94 23.5t140 99t67 112.5q0 14 5 130t5 216.5t-10 136.5q-15 49 -68 134q-7 11 -39 19.5t-49 8.5q-34 2 -100 -10q-15 -4 -44.5 -210t-21.5 -251q8 -34 11 -72t3.5 -83.5t2.5 -71.5
q4 -42 4 -182z" />
    <glyph glyph-name="Q" unicode="Q" horiz-adv-x="1224" 
d="M1178 78q2 -2 5 -6q13 -15 20 -24.5t15 -30t6.5 -39t-14.5 -45t-39 -54.5q-74 -50 -192.5 -15.5t-230.5 140.5q-129 -54 -164 -65q-106 -39 -199 10q-246 137 -358 393q-31 59 -23.5 240t55.5 360q7 24 19 49.5t27.5 55t23.5 45.5q10 21 22 40t29 39t27.5 32t33 35.5
t29.5 31.5q12 14 27 25t36.5 24t31.5 20q65 37 182.5 53t218.5 6.5t127 -38.5q11 -11 31 -27q89 -77 129 -178q25 -54 48 -175.5t19 -141.5q-18 -124 -42.5 -230.5t-45.5 -172t-39.5 -112.5t-29.5 -70t-11 -26q-24 -76 -5 -135t50 -94t54 -37q28 -5 46.5 7.5t39.5 41.5
q4 6 18 29.5t23 38.5zM776 477q26 46 41.5 83t28 102.5t8.5 138.5t-26 185t-66 247q-4 12 -10 20q-29 35 -70 38t-76 -29q-90 -86 -123 -132q-161 -216 -176 -475q-3 -65 6 -127q26 -163 70 -258q38 -94 96 -166q13 -16 39 -16q21 0 57 12q41 17 59 55t5 81q-16 57 -41 108
q-26 67 -90 86q-30 6 -33 31q46 30 96.5 39.5t96.5 2.5t108 -26z" />
    <glyph glyph-name="R" unicode="R" horiz-adv-x="1308" 
d="M1219 498l-9 127q-1 23 15.5 35.5t40.5 7.5q2 -7 8 -17q1 -3 4.5 -8t3.5 -6q36 -101 22.5 -290.5t-55.5 -244.5q-105 -136 -268 -145q-167 -3 -293 117q-21 21 -40.5 43t-40.5 51.5t-32 45t-36 54.5t-31 49q-25 48 -55 78q-35 31 -65.5 20t-35.5 -55q-4 -22 -0.5 -80.5
t2.5 -80.5q-2 -72 -13.5 -131.5t-28 -96.5t-36.5 -63t-36.5 -37.5t-30.5 -13.5q-45 0 -79 23t-40 54q-43 249 -66 481.5t-24 391t2.5 246.5t9.5 133l19 133q3 25 30 178q65 22 107 -24q40 -43 61 -67t50 -65t45 -79q3 -8 6 -21.5t6 -21.5q3 3 13.5 10t15.5 12q74 59 200 86
q59 14 115 3t108 -52q13 -11 24.5 -26t18.5 -27.5t14.5 -33t10.5 -31.5t9.5 -34.5t8.5 -31.5q78 -307 -290 -564q-46 -34 -6 -69q12 -10 74.5 -90t134.5 -160.5t118 -104.5q245 -128 297 189q17 174 17 203zM580 1214h-7q-37 -10 -86.5 -45.5t-70.5 -56.5q-15 -15 -34.5 -63
t-19.5 -70q0 -11 -2 -183.5t-2 -205.5q49 22 96 79.5t80 131.5t53.5 152t19 148.5t-26.5 112.5z" />
    <glyph glyph-name="S" unicode="S" horiz-adv-x="737" 
d="M293 -158q-78 -34 -152 21q-131 90 -139 227q0 18 2.5 43t11 70t31.5 85.5t57 63.5q21 16 72 45q44 24 74 -6q27 -35 -6 -74q-77 -74 -93 -95q-44 -56 -32 -125q6 -37 26 -87q8 -20 50 -49t65 -29q28 0 47.5 14.5t29 38t13.5 45.5t4 44q0 17 -4 63l-12 105
q-15 102 -27 204q-4 36 -10 52q-13 69 -20 98q-19 55 -85 189.5t-98 191.5q-41 78 -59 205q-12 87 37.5 167t132.5 109q102 40 191.5 46t129.5 -19q132 -64 99 -185q-3 -14 -11 -52t-12 -56.5t-13.5 -47.5t-21.5 -52q-38 -71 -98 -37q-16 8 -21.5 16t-3 17.5t14.5 23.5
q3 4 14.5 18t14 18t10.5 16t10 20.5t6 22.5t5 30t1 37q8 41 -39 65q-33 19 -73 -2q-30 -19 -47 -31t-40.5 -37.5t-31.5 -49.5t-5.5 -61t23.5 -79q86 -139 158 -211q24 -26 62 -77.5t53 -69.5q57 -72 87.5 -157.5t55.5 -205.5q15 -76 4 -122q-4 -18 -7 -30t-16 -44t-30.5 -57
t-51.5 -62.5t-77 -69t-109.5 -67t-146.5 -64.5z" />
    <glyph glyph-name="T" unicode="T" horiz-adv-x="1017" 
d="M401 1190q-28 -3 -170 -8q-139 -3 -190 92q-26 48 -37 92q-7 23 9.5 41.5t41.5 13.5q27 -6 113 -10q34 -3 101.5 -7t101.5 -7q103 -3 182 -11q58 -3 172 -7t172 -7q25 -2 74 -2q23 0 36 -16.5t9 -37.5t-25 -32q-5 -3 -26 -10q-16 -7 -51.5 -16t-61 -15.5t-25.5 -9.5
q-14 -4 -23 -11t-14.5 -23t-6.5 -22t-5 -28q-4 -34 9.5 -529.5t9.5 -519.5q-5 -21 1.5 -27t26.5 1q110 41 136 135q15 27 25 34t16.5 -3.5t11.5 -40.5q4 -51 -18 -109t-38 -70q-52 -47 -116 -81q-43 -23 -96.5 -29.5t-116.5 13t-111 67.5q-9 9 -19.5 29t-28 77t-32.5 138.5
t-31.5 227t-27.5 329.5q0 65 2 98q6 92 22 276q0 2 -1 9.5t-1 15.5z" />
    <glyph glyph-name="U" unicode="U" horiz-adv-x="907" 
d="M883 784q8 -49 17 -233t5 -246q-2 -69 -45 -178q-6 -16 -19 -38t-39 -52t-58 -54.5t-78.5 -41.5t-96.5 -17q-259 10 -381 185q-8 11 -15 23t-13 22.5t-13 25t-11.5 23t-11.5 25.5t-10 24.5t-10 26t-9 24.5t-9.5 26.5t-9.5 24.5q-16 48 -31.5 142.5t-19.5 111.5
q-28 156 -21 264q0 18 -2 146t-2 141q4 176 27 264q97 13 204 -47q46 -22 56 -88q7 -15 51.5 -89t48.5 -103q38 -338 31 -420q-6 -29 1 -193.5t13 -191.5q7 -34 44 -102t77 -72q32 2 56.5 51.5t36.5 117t18 120t6 79.5q6 62 16 286t10 271q2 48 13 134q6 50 55 59
q26 5 39.5 -3t23.5 -36q13 -54 13 -100q0 -42 17 -158.5t26 -153.5z" />
    <glyph glyph-name="V" unicode="V" horiz-adv-x="913" 
d="M2 1309q-6 26 11 46t42 15q107 -15 154 -121l149 -344q64 -147 123 -297q10 -29 21.5 -85t15.5 -72l27 -103q10 0 16 -2q7 20 23.5 58t23.5 57q53 157 76 237q22 78 72 287q14 68 33.5 194.5t29.5 180.5q0 12 12 24q25 19 52.5 6t27.5 -44q0 -17 0.5 -85t0 -95
t-4.5 -76.5t-12 -90.5q-181 -633 -193 -700q-10 -49 -38 -147q-2 -6 -11.5 -50t-17.5 -67q-11 -46 -35 -92q-21 -40 -72 -37q-12 1 -36 -1.5t-43 -0.5t-37 12q-57 29 -87 72t-40 112q-9 80 -111.5 488.5t-107.5 429.5q-28 106 -60 264q0 7 -4 27z" />
    <glyph glyph-name="W" unicode="W" horiz-adv-x="1472" 
d="M0 1290l27 41q27 0 103.5 -14.5t109.5 -36.5q97 -68 131 -102q80 -80 106 -211q7 -35 21 -148q3 -51 58 -246.5t58 -226.5q2 -14 11 -41q6 6 15.5 14.5t12.5 12.5q22 25 66 83t51 72q25 42 77 66t97 12q5 -2 10 -5t10.5 -8.5l9 -9t9.5 -10.5t8 -10q7 -8 14 -17.5
t16.5 -23.5t18.5 -26l68 264q4 18 26.5 139t45.5 182q25 70 41 160q12 78 38.5 103.5t108.5 46.5q28 4 35 4q28 -1 39.5 -12.5t19.5 -41.5q11 -47 11 -401q0 -35 -19 -98q-1 -3 -15 -57.5t-35 -134t-47 -176.5t-53.5 -191t-53 -172.5t-47.5 -126t-34 -45.5q-8 4 -38 2.5
t-39 -0.5h-2q-5 -3 -18 -1t-29.5 3.5t-38 13.5t-42 28.5t-42 49.5t-37.5 76q-10 28 -18 59.5t-17 75.5t-14 63q-4 16 -15 45.5t-16 46.5q-18 -13 -71.5 -106t-61.5 -123q-1 -2 -13.5 -76t-34.5 -128.5t-57 -61.5q-70 -6 -123 14q-14 5 -38.5 10.5t-28.5 6.5q-19 6 -36 31
t-26 51t-18.5 57t-11.5 37q-15 37 -117.5 468.5t-108.5 489.5q-15 110 -20 129q-7 31 -37 131z" />
    <glyph glyph-name="X" unicode="X" horiz-adv-x="1671" 
d="M1669 307q6 -32 -6 -71q-20 -60 -159.5 -158.5t-252.5 -136.5q-19 -6 -60 -10.5t-107.5 -2t-133.5 17t-139 53.5t-123 99q-36 59 -73.5 62t-88.5 -47q-25 -25 -74.5 -72t-72.5 -70q-48 -48 -106 -60t-138 -7q-36 3 -76 43q-8 11 -8 59q0 68 137 281t207 276
q27 25 32.5 46t-9.5 55q-19 44 -21 51q-11 41 -126.5 215.5t-145.5 204.5q-41 32 -67.5 75t-53.5 107q-6 17 3.5 29t27.5 12q47 0 94 -6q33 -5 43 -9q209 -108 342 -268l143 -184q55 58 116 124.5t135 147t116 125.5q56 -29 76.5 -77.5t3.5 -108.5q-8 -29 -51.5 -115.5
t-89 -175.5t-82.5 -196.5t-37 -180.5q126 -346 368 -346q163 -7 406 236q12 13 29 7.5t22 -24.5z" />
    <glyph glyph-name="Y" unicode="Y" horiz-adv-x="892" 
d="M59 1446q14 32 45 29q37 -3 58 -11q57 -20 88 -73q8 -17 20 -39t15.5 -30.5t8.5 -25.5t9 -43q21 -216 33 -307q3 -42 12 -90q5 -20 23 -26t35 8q14 13 27 31t17 26.5t17 34.5q34 94 37 110q3 12 22.5 118.5t34.5 167.5t27 73q82 12 121 20q20 4 42 -8t33 -33l66 -147
q4 -10 7 -21.5t6 -25t5 -21.5l17 -76q1 -3 4.5 -14.5t3.5 -17.5q-1 -31 -2.5 -87t-2.5 -102t-1 -86q0 -46 1 -97t2.5 -113t2.5 -97q0 -70 -24.5 -234.5t-61.5 -293.5q-12 -43 -55 -58.5t-80 11.5q-112 83 -115 223q-1 53 -1 159.5t-1 159.5q-3 143 -12 281q0 7 -13 37
l-20 -17q-12 -23 -28.5 -38t-38.5 -23.5t-40 -12.5t-45 -8q-38 -6 -65 9q-118 46 -189 166q-110 190 -102 372q4 57 6.5 80t13.5 66t29 75q7 13 8 19z" />
    <glyph glyph-name="Z" unicode="Z" horiz-adv-x="1030" 
d="M954 432q10 14 26 14t26 -14q24 -36 23.5 -60.5t-28.5 -58.5q-3 -3 -25.5 -34t-51 -65.5t-67 -77t-87 -83.5t-96.5 -69q-20 -13 -37 -19q-88 -32 -109 -37q-139 -36 -260 -2q-113 32 -143 47q-75 32 -105 83.5t-12 148.5q8 40 24 84.5t29.5 73.5t39 79t36.5 74
q41 78 72 143q22 53 52.5 103.5t79.5 120t65 94.5q32 49 92 148.5t92 148.5q3 4 6.5 15.5t7.5 19.5q-29 3 -82 5.5t-93.5 6.5t-76.5 12q-88 18 -229 90q8 2 22.5 7t26.5 7.5t23 2.5q18 0 38 -1t44 -2.5t38 -2.5q237 -17 330 -25q35 -4 102.5 -17t75.5 -14q34 -7 55 -19.5
t31 -27t11.5 -36.5t-2 -41.5t-11.5 -47.5q-15 -51 -22 -69q-3 -7 -119 -227t-269 -508.5t-178 -335.5q-10 -23 0 -43t33 -25q137 -24 250 37q160 85 240 215q16 28 34 57.5t42 67t36 57.5z" />
    <glyph glyph-name="bracketleft" unicode="[" horiz-adv-x="473" 
d="M301 1247l-43 -63l-45 8q-43 6 -58.5 -8t-9.5 -58q8 -43 21 -92q4 -24 37 -286t67 -535.5t37 -298.5l6 -64q1 -66 33.5 -83.5t89.5 14.5l25 16q34 -76 -39 -98q-55 -18 -207 -18q-170 10 -197 208q-8 55 -12 179.5t-4.5 269.5t1 307.5t3.5 289.5t4 219t2 93q6 58 70 49
q125 0 219 -49z" />
    <glyph glyph-name="bracketright" unicode="]" horiz-adv-x="600" 
d="M207 -246q5 9 10.5 25t7.5 20l7 3.5t8 2.5q85 12 100 32t-2 102q-12 69 -19.5 149.5t-9 134.5t-3.5 153t-3 142q-4 359 -10 539v147q-54 4 -153 14.5t-140 14.5q48 48 109 45q51 -3 142.5 -13t117.5 -12q36 -4 52 -17.5t28 -49.5q17 -53 55.5 -235.5t38.5 -248.5
q0 -38 27.5 -473.5t27.5 -445.5q-11 -66 -57 -78q-63 -19 -116 -23t-110.5 13t-107.5 59z" />
    <glyph glyph-name="underscore" unicode="_" horiz-adv-x="757" 
d="M0 -178q21 0 63 1t69.5 0.5t53.5 -3.5q246 -10 420 -23q96 -10 152 -57q-1 -5 -3 -19.5t-4 -20.5t-10.5 -13t-23.5 -9q-8 -1 -20 -9.5t-17 -10.5q-10 -3 -29.5 -12t-36 -13.5t-34.5 -1.5q-31 3 -89.5 -7t-80.5 -11q-80 0 -244 12l-41 4q-3 0 -10 1l-10.5 1.5t-8 2
t-6.5 4.5q-25 32 -39 53.5t-29 57t-22 73.5z" />
    <glyph glyph-name="grave" unicode="`" 
d="M291 1198l-2 -14q-2 0 -24 -4.5t-36 -3.5q-100 3 -202 79q-24 19 -71 56.5t-71 56.5q76 101 181 57q26 -9 55 -51q25 -24 53.5 -53.5t63 -66t53.5 -56.5z" />
    <glyph glyph-name="a" unicode="a" horiz-adv-x="1050" 
d="M702 956q-1 -12 -0.5 -20t0 -15.5t-3.5 -13.5q-18 -56 -24 -114.5t-6.5 -147t-1.5 -117.5q0 -11 -2 -93t-1.5 -133t9 -117t26.5 -97q40 -52 90 -8q111 99 158 239q11 37 53 166q50 0 50 -28q1 -11 -3.5 -38t-3.5 -40q-8 -19 -19 -57.5t-17 -55.5q-48 -107 -78 -149
q-4 -4 -13.5 -15t-12.5 -14l-11 -11t-11.5 -11t-10.5 -8.5t-12 -8.5t-12.5 -6t-15.5 -6q-65 -24 -116.5 -19.5t-110.5 41.5q-38 21 -76 75.5t-61 144.5q-64 -64 -107 -91q-44 -36 -99 -42t-103.5 14t-87 62t-52.5 97q-16 61 -16 113q1 109 43.5 205.5t120.5 200.5
q32 41 123 163q29 43 78 33q33 -7 99 -17.5t99 -17.5q27 -6 74.5 -22t64.5 -21zM567 862q-77 -44 -125 -112q-23 -29 -131 -250t-114 -252q-5 -37 8 -55q5 -6 22 -6t27 6q65 45 90 81q66 100 107.5 186.5t60.5 182.5q17 86 55 219z" />
    <glyph glyph-name="b" unicode="b" horiz-adv-x="1316" 
d="M438 547q78 50 142 61t137 -22q31 -15 56.5 -35t49.5 -53.5t35 -51t37 -63.5q10 4 32.5 14.5t35.5 14.5q77 36 194 84q10 4 20.5 6.5t19 3.5t20.5 0t18.5 -2t20.5 -4.5t19 -5t21.5 -7t20.5 -6.5q-5 -6 -11.5 -15t-9 -12.5t-9.5 -9.5t-12 -6t-17 -3t-25 1
q-15 0 -32.5 -2.5t-32.5 -5.5t-34.5 -9.5l-33 -11t-35 -14t-32.5 -14.5t-33.5 -16t-29.5 -15t-29.5 -15.5t-25.5 -13.5q-2 -3 -4 9v2q9 -33 -2 -111t-26 -139.5t-19 -65.5q-3 -6 -17 -35.5t-19.5 -39t-18 -30.5t-25 -35t-28.5 -28q-4 -4 -11.5 -6.5t-17.5 -5t-16 -4.5
q-62 -4 -106 15t-56 46q-26 62 -4 115q16 37 37 64q20 25 65 82.5t70 87.5q29 39 14 92q-38 106 -58 137q-41 63 -106 63q-60 -11 -94.5 -70.5t-34.5 -123.5q0 -18 -20.5 -234.5t-20.5 -232.5q-2 -68 -43.5 -101t-107.5 -16q-7 2 -64 15q-13 41 -34 122t-31 115
q-29 113 -56 311q-18 124 -30 371q-27 398 -29 445q-4 1 -2 117.5t2 117.5l6 242q3 104 12 211q0 2 0.5 13.5t1.5 16t4 13t8.5 13t14.5 7.5q80 13 130 -18.5t69 -128.5q29 -105 90 -366.5t61 -334.5q3 -63 18 -174.5t19 -156.5q3 -21 3.5 -44t-0.5 -59t-1 -55zM758 203
q-7 -7 -20.5 -19.5t-19.5 -18.5t-15 -18.5t-17 -27.5q-7 -13 -16.5 -28.5t-13 -22t-8.5 -17t-8.5 -21.5t-8.5 -28q-8 -26 -10.5 -46t-0.5 -38t14.5 -28t35.5 -11q34 0 53 8t35 33q67 115 12 268q-2 5 -12 15z" />
    <glyph glyph-name="c" unicode="c" horiz-adv-x="1017" 
d="M602 750l10 59q-63 -40 -159 -172q-54 -65 -97 -149.5t-66 -162.5t-34.5 -148t-9.5 -115.5t16 -55.5q10 -10 30.5 -12.5t33.5 2.5q56 16 118 53q14 7 27.5 16.5t31.5 24t27 21.5q189 134 234 172q32 27 235 215l19 -11q-7 -36 -24 -63.5t-54.5 -66t-44.5 -46.5
q-16 -16 -161 -137t-193 -158q-62 -50 -176 -79q-80 -21 -158.5 4t-124.5 90q-73 103 -82 223q0 103 45 178q102 165 123 195q99 154 231 227q72 37 119 53q58 23 105 -18q12 -12 24 -21q35 -23 40 -34t-3 -52q-1 -7 -1 -24t-1 -25q-9 -53 -45 -47q-41 9 -35 64z" />
    <glyph glyph-name="d" unicode="d" horiz-adv-x="1406" 
d="M1356 510q8 -9 23.5 -19t27.5 -22q-15 -21 -52.5 -75t-65.5 -92.5t-56 -72.5q-169 -190 -244 -260q-61 -59 -115 -96t-120 -53q-120 -31 -244 61q-68 51 -96 133q-54 172 -35 299q12 48 12 49q-8 -1 -24 -7t-23 -7q-70 -10 -197 25q-134 39 -145 211q-3 85 29 151
q83 169 209 256q67 48 151 45q3 0 16 -0.5t17 -1t15.5 -1.5t17 -2.5t14.5 -4t16.5 -6t14.5 -8.5q18 -12 48 -11t40 19q25 46 51.5 103.5t40 91.5t44 111.5t38.5 98.5q25 64 63 136q6 14 31 28q31 22 43 29q83 -25 143 -37q38 -11 48 -21t10 -44q-4 -101 -21 -170
q-22 -86 -86 -283q-15 -55 -118.5 -332t-143.5 -358q-128 -271 -84 -436q21 -76 92 -46q83 40 127 78q95 77 183 168q17 18 35.5 40.5t39.5 50.5t33 42q14 19 43.5 58t52 67t45.5 54q8 10 25.5 27t30.5 34zM178 463q74 0 127 24t85 67.5t53 88t47.5 101t52.5 90.5
q-60 36 -117 31.5t-108 -31.5t-89 -75t-60 -99.5t-20.5 -105t29.5 -91.5z" />
    <glyph glyph-name="e" unicode="e" horiz-adv-x="843" 
d="M811 475l25 31q19 -57 -19 -109q-56 -86 -131 -160.5t-176 -154.5q-66 -51 -186 -55q-196 -3 -281 202q-86 205 4 392q74 157 154 297q46 81 133 118q55 12 112 14.5t72 -3.5q55 -13 66 -60q3 -13 20 -29.5t23 -25.5q40 -77 -4 -174q-4 -14 -17 -39.5t-41 -65
t-63.5 -74.5t-89.5 -65t-113 -39q-2 0 -18 -4q-51 -82 -74 -201q-12 -91 28 -133.5t127 -30.5q74 11 111 39q4 3 29.5 21t31 22.5t28 21t30.5 22.5t27.5 21.5t29 24t26 23.5t27.5 26t24.5 25.5t25.5 28.5q11 16 29.5 47.5t29.5 46.5zM279 522q34 7 64 21t46 24t45 31
q85 61 111.5 141t5.5 187q-8 38 -47 35q-55 -87 -92 -156t-55.5 -109.5t-24.5 -50.5q-9 -21 -20 -43t-19 -40t-14 -40z" />
    <glyph glyph-name="f" unicode="f" horiz-adv-x="980" 
d="M172 1339q80 -6 107 -88q12 -38 30 -65q9 -12 15 -25.5t9.5 -30.5t5.5 -27.5t4 -31t3 -27.5q8 -96 8 -210q1 -32 -3.5 -92.5t-4.5 -73.5q-3 -115 45 -207q80 -152 131 -215q51 -68 131.5 -77.5t145.5 46.5q115 95 127 242q5 25 16 38t37 23q0 -13 1 -33.5t1 -31.5
q-5 -86 -8 -103q-26 -141 -160 -200q-15 -4 -62.5 -18t-74.5 -17q-41 -5 -144 6q7 -18 27.5 -66.5t28.5 -74.5q4 -14 30 -158q20 -103 23 -123q7 -43 -14.5 -132t-85.5 -167q-89 -107 -236 -78q-117 22 -184 94t-98 193q-19 93 -19 184q-8 127 2 285q2 97 17 260
q29 268 45 387q14 109 61 354q3 13 3 40t3 40q7 29 18.5 89.5t18.5 90.5zM371 272q-6 -15 -15.5 -35t-15 -34.5t-8.5 -28.5q-15 -67 -27 -231.5t-12 -210.5q1 -12 3.5 -70t5.5 -92t14 -79.5t28 -70.5q19 -30 44.5 -34.5t49.5 20.5q46 61 56 102q29 111 18 293
q-4 67 -23.5 146t-35 121.5t-52.5 136.5q-10 28 -30 67z" />
    <glyph glyph-name="g" unicode="g" horiz-adv-x="1378" 
d="M698 989q47 35 97.5 41.5t87.5 -18.5q22 -17 24 -33q16 -97 19.5 -257t0 -267.5t-6.5 -137.5l59 31q76 37 209 109q12 6 36 17t36 18q39 22 54.5 21t53.5 -25q6 -5 10 -7q-8 -14 -21 -23.5t-24 -13.5t-28 -9t-25 -9q-151 -68 -266 -156q-7 -5 -34.5 -27t-45.5 -30
q-35 -21 -41 -57q-64 -238 -130 -429.5t-97.5 -262t-51.5 -103.5q-14 -24 -51.5 -39.5t-82.5 -17.5t-93.5 23t-79.5 75q-20 38 -4 115q50 199 184 354q12 11 30.5 35.5t29.5 36.5q12 11 17 24.5t7 33t4 28.5q23 90 19 270q-5 33 -8 43q-53 -53 -76 -80q-61 -78 -139 -95
t-162 28q-61 27 -86 49q-141 107 -119 301q17 152 70 250q67 120 164 237q74 90 245 74q18 -2 45.5 -7.5t46 -9t43 -2.5t46.5 9q3 1 12 -3.5t12 -5.5q-2 -8 -4 -31.5t-8 -33.5q-17 -26 -45 -35q-30 -13 -101 -33q-5 -18 -111.5 -243.5t-131.5 -309.5q-23 -74 -23 -133
q0 -30 27.5 -42.5t56.5 1.5q7 4 13.5 8t12.5 9.5t10.5 10t10.5 11.5t9 11t9 13t8.5 12t8.5 13t8 13q14 21 27.5 45.5t23.5 43t24.5 48t21.5 44t22 49t19.5 45t21.5 50.5t20 47q69 147 80 289zM561 -125q-35 -21 -41 -29q-83 -99 -123 -196q-30 -81 -24 -131
q5 -38 38.5 -77.5t73.5 -49.5q12 27 22.5 58t17 55.5t12 61t8.5 57.5t6 63.5t4 59t3 65.5t3 63z" />
    <glyph glyph-name="h" unicode="h" horiz-adv-x="1249" 
d="M907 -59q59 29 93 74t65 114q23 52 53.5 152t36.5 116l41 123q36 5 44.5 -0.5t8.5 -34.5q0 -56 -28 -148.5t-65 -186t-38 -97.5q-53 -119 -157 -162q-21 -9 -45.5 -15t-64 -11t-81.5 6.5t-76 40.5q-70 64 -61 162q4 33 45 243q5 23 17 75t17.5 81t12 73t6 84.5t-7.5 80.5
q-54 -27 -90.5 -53t-63.5 -64q-56 -80 -88 -145q-15 -29 -81 -142.5t-72 -128.5q-46 -116 -115 -180q-28 -28 -69 -31t-75 18t-44 58q-34 100 -23 246q17 292 29 413q3 38 11 134t12.5 146.5t12.5 127.5t17 141q34 211 37 303q0 39 3.5 82.5t10 100.5t8.5 86q13 2 37 6.5
t42.5 7t35.5 2.5q41 1 59 -15.5t29 -60.5q1 -5 5 -12t8.5 -19.5t10.5 -34t12 -62t12 -96.5t11.5 -145t9.5 -200.5t6.5 -270t2.5 -345.5l-21 -95q7 6 15 13t12.5 10.5t7.5 7.5q27 45 64.5 83t96.5 85.5t79 65.5q59 53 141 59q38 3 62 -2q77 -18 71 -98q-12 -196 -20 -289
q-1 -17 -8.5 -74.5t-14 -117t-12 -122t-3.5 -107.5t13 -56z" />
    <glyph glyph-name="i" unicode="i" horiz-adv-x="675" 
d="M252 967q59 9 77.5 0t43.5 -56q32 -70 26 -120q-6 -66 -51.5 -250.5t-77 -330.5t-14.5 -159q23 -14 39 -4q22 15 51 47.5t68 85.5t61 83.5t64 93t43 63.5q8 12 18 23.5t26 28.5t21 22q41 -10 21 -35q-31 -40 -111 -168t-137 -187l-72 -75q-40 -39 -143.5 -36.5
t-143.5 42.5q-46 46 -55 117q-19 194 51 419q13 43 31.5 124.5t28.5 117.5q8 27 17 48.5t25 49.5t40 43t53 13zM420 1227q-2 -3 -5.5 -25t-11.5 -33q-29 -42 -75.5 -45.5t-81.5 33.5q-42 41 -39.5 65t51.5 56q50 29 94 37q34 6 48 -8t16 -50q0 -3 0.5 -6.5l1.5 -10.5t2 -13z
" />
    <glyph glyph-name="j" unicode="j" horiz-adv-x="1300" 
d="M461 887q-4 35 23 59.5t63 18.5q114 -16 170 -109q24 -38 41 -141q13 -71 26 -226q2 -29 -2 -81q0 -5 2.5 -17.5t3.5 -19.5q165 71 185 78q55 23 229 73q53 15 98 -33q-67 -24 -98 -30q-145 -25 -231 -76q-14 -9 -59.5 -32.5t-67.5 -41.5q-77 -61 -80 -168
q-34 -189 -86.5 -349t-99 -255t-107 -178t-89.5 -112t-67 -63q-5 -5 -8 -7q-28 -24 -92 -51q-23 -9 -57 8q-147 69 -156 233q-7 100 49 234q64 148 101 213q9 16 60 74t95.5 118.5t48.5 97.5q7 42 28.5 158.5t31.5 175t22.5 151.5t18.5 171q2 16 2 47q4 53 2 80zM319 -162
l-16 6q-122 -183 -176.5 -333t-54.5 -216q3 -49 45 -49q33 0 65 25q4 3 7 9t5.5 15.5t4.5 14.5q6 24 35.5 134t44.5 171q9 42 22 120t18 103zM791 1210q-12 -10 -84 -71q-30 -24 -46.5 -25t-46.5 21q-37 28 -49 82t10 92q20 38 53.5 44.5t65.5 -20.5q-4 -19 2 -26t22 -7.5
t19 -1.5q38 -14 54 -88z" />
    <glyph glyph-name="k" unicode="k" horiz-adv-x="1243" 
d="M162 1378q13 -2 38.5 -4.5t43.5 -7t32 -14.5q85 -71 78 -152q-14 -196 -14 -254q0 -28 2.5 -57t9.5 -74t8 -57q0 -7 2.5 -18.5t2.5 -18.5q3 -24 5 -73t5 -79q127 120 233.5 201.5t225.5 136.5q0 -19 -4.5 -37.5t-10 -31.5t-19.5 -30.5t-21 -25.5t-25.5 -26.5l-24.5 -24.5
q-44 -42 -120 -123t-109 -114q-4 -4 -10.5 -22t-8.5 -51t5.5 -69t38 -81t81.5 -83q44 -41 105 -52t117 4.5t98 49.5q157 123 233 252q13 26 32 37.5t52 7.5q-12 -21 -28.5 -55.5t-24.5 -48.5q-43 -79 -133 -163.5t-156 -131.5q-77 -49 -178 -25q-100 24 -168 66
q-21 14 -41 32.5t-47 47.5t-37 39q-5 5 -22 33q-17 -123 -34 -220.5t-30.5 -160t-28.5 -107.5t-25.5 -67t-23.5 -34t-20 -14t-17 -2q-32 -6 -50.5 -4.5t-53.5 17.5q-94 43 -111 168q-12 95 -12 192q-1 85 14 248t17 203q7 94 25 270.5t49 384t55 223.5z" />
    <glyph glyph-name="l" unicode="l" horiz-adv-x="819" 
d="M815 526q9 -60 -14 -123q-100 -236 -363 -548q-62 -62 -149 -52q-59 3 -118.5 34.5t-105.5 90t-57 127.5q-18 101 10 232q33 164 52 272q42 260 137 447q1 1 25 43t61.5 102t82.5 125t99 123.5t100 85.5q37 33 111 14q30 -3 43 -67t2.5 -150t-39.5 -145
q-52 -109 -97.5 -190t-65.5 -111t-21 -35q-198 -653 -162 -910q25 -7 73 39t81 97q60 83 123 184l133 223q6 9 13.5 25t10.5 22l4 9l7.5 13.5t7 11.5t8.5 9.5t8 1.5zM434 795q78 97 107 141q66 112 116 324q3 16 5.5 47t5.5 47q3 14 -3 25.5t-12.5 16t-19.5 11.5
q-25 19 -51 -14l-19 -25q-62 -79 -90 -182q-98 -310 -39 -391z" />
    <glyph glyph-name="m" unicode="m" horiz-adv-x="1542" 
d="M801 582q46 53 55 69q90 121 121 166q23 33 65 33q77 4 115 2q63 0 78 -57q1 -8 5 -25t5 -25q3 -44 0 -123.5t0 -123.5q0 -17 -16.5 -193t-16.5 -250q7 -8 16 -7.5t11 2t12 9.5q49 32 83.5 77.5t72.5 113.5q9 16 16.5 31.5t15 36t12 31.5t12 37t9 33t10 39t9.5 36
q2 0 16 -0.5t19 -4.5q7 -5 12.5 -16t1.5 -16q-5 -23 -25 -84t-24 -78q0 -1 -8 -23t-15 -41t-19.5 -49.5t-24.5 -55.5t-28 -52t-32 -45q-29 -44 -91.5 -68t-115.5 -12q-164 44 -192 217q-11 64 -12.5 137.5t2 127.5t12.5 138q0 2 1 20.5t5 33.5q-5 -5 -12 -11t-9.5 -9
t-3.5 -7q-38 -49 -78.5 -139.5t-48.5 -122.5q-18 -40 -69 -172q-8 -22 -14.5 -63.5t-10.5 -55.5q-4 -27 -14 -45q-23 -44 -68 -56.5t-92 11.5q-107 51 -98 170q18 213 39 352q7 50 18 104.5t26 121t23 104.5q3 10 3.5 22t0 23.5t0.5 28.5q-12 -10 -32.5 -26t-30.5 -25
t-24 -27.5t-25 -42.5q0 -5 -30.5 -113t-71.5 -241.5t-90 -241.5t-79 -105q-101 13 -153 88q-5 9 -9 18t-7 22.5t-4 19.5t-4 25t-3 22q-5 35 8 197.5t25 222.5q6 26 15.5 78t16 83.5t20 75t30.5 78.5q114 17 172 -51q15 -18 23.5 -29.5t19 -30t14 -34t3 -36.5t-8.5 -42
q21 16 37.5 36t33.5 46.5t27 38.5q11 13 35.5 47t46.5 57q39 39 119 49q16 2 49 2q59 1 85.5 -20.5t37.5 -79.5q20 -125 -2 -256q-3 -16 -4 -49t-4 -53z" />
    <glyph glyph-name="n" unicode="n" horiz-adv-x="1013" 
d="M588 864q-92 -52 -139 -162q-23 -56 -52.5 -201t-29.5 -179q0 -23 -7.5 -112.5t-11.5 -105.5q-5 -26 -14 -34t-31 -4q-95 12 -143 26q-30 7 -39 33q-82 168 -94 362q-2 39 -14.5 144.5t-12.5 163.5q0 75 29 241q1 10 8.5 30.5t9.5 29.5q50 4 85 -18t71 -66
q18 -21 27.5 -46t17.5 -67t10 -51q13 -41 31.5 -119.5t27.5 -112.5q6 10 18 29.5t17 28.5q8 15 17.5 30.5t16.5 27t21 29t20 24.5t24 26.5t21.5 23.5t25 26.5t22.5 23.5q55 55 148 45q12 0 26.5 -10t20.5 -21q3 -6 13.5 -30.5t14.5 -35.5t9 -29.5t6 -33.5q7 -73 12 -297
q0 -10 -2 -62t-3.5 -109t-1.5 -116t3 -97t10 -38q24 -3 55 35t49.5 74.5t30.5 66.5q15 35 35 121q5 17 14.5 57t17.5 64.5t15 24.5q3 0 6.5 -1t6.5 -1q6 0 7 -24t-1 -67t-2 -55q-1 -16 -19 -67q-5 -24 -16.5 -57.5t-31 -79.5t-50 -84.5t-64.5 -53.5q-71 -40 -157 14
q-91 54 -109 160q-8 44 -12 133q0 191 29 412q4 28 8 141z" />
    <glyph glyph-name="o" unicode="o" horiz-adv-x="962" 
d="M408 913q13 3 38 6.5t39 6.5q99 12 168 -107q81 -177 64 -317l-17 -64q9 0 23.5 -1.5t25.5 -1.5t21 3q108 37 123 43q30 13 39 13q4 0 9.5 -2.5t12 -7.5t9.5 -7q0 -11 -50 -43.5t-79 -36.5q-23 -5 -71 -8.5t-65 -5.5q-5 -12 -50 -101t-60 -112q-103 -146 -277 -125
q-109 12 -193.5 94t-105.5 191q-21 87 -6 174q23 137 50 234t77 186q24 42 64 88q26 29 42.5 31.5t51.5 -15.5q33 -18 50.5 -29.5t38.5 -35t28 -50.5zM592 438l-178 189q-8 -19 -23 -58t-18 -45q-63 -155 -70 -172q-45 -105 10 -207q19 -35 41.5 -42t57.5 10q52 23 80 92
q68 156 100 233zM467 889q-3 -16 -11.5 -60t-11.5 -69q-11 -72 21 -117q4 -6 15 -22t19.5 -27t18.5 -21q19 -23 76 -71q39 96 -6 313q-11 39 -42.5 58.5t-78.5 15.5z" />
    <glyph glyph-name="p" unicode="p" horiz-adv-x="1101" 
d="M33 -438q-38 209 -29 444q9 188 0 377q-2 54 -2.5 109t2 124t4 104.5t6.5 124t6 109.5v125q53 21 76.5 14.5t65.5 -51.5q8 -10 24.5 -26.5l22.5 -22.5q23 -23 27 -32l55 -154q18 14 28 27q75 114 252 153q11 5 50 0q109 -8 182 -106q86 -108 61 -217q-8 -19 -5 -71.5
t1 -72.5q26 0 55 -0.5t54 -1.5t51.5 -7.5t48.5 -18.5q5 -3 16 -12t17 -13q-18 -21 -40 -22.5t-40 8.5q-59 26 -176 12q-5 -11 -16 -38t-15.5 -36t-13.5 -26t-19 -28.5t-24 -23.5q-17 -14 -53 -42t-66 -54q-36 -26 -80 -31.5t-70 0.5t-36 13q-32 25 -37 70t20 77
q70 84 137 111q56 18 56 71v285q0 18 -13 68q-11 29 -22.5 34.5t-42.5 -4.5q-64 -16 -121 -92q-45 -57 -65 -131q-7 -77 -5.5 -224t6.5 -380.5t5 -257.5q-1 -29 -1 -86.5t-1 -85.5q-4 -70 -17 -115q-12 -29 -79 -45t-141.5 0t-98.5 68zM625 434q-53 -23 -91.5 -54t-50.5 -61
q-21 -47 17 -61q23 -12 63.5 5t44.5 42q4 17 7 37t5.5 48.5t4.5 43.5z" />
    <glyph glyph-name="q" unicode="q" horiz-adv-x="1304" 
d="M403 309q-75 -23 -137 -24t-104.5 15t-74.5 47.5t-50 68.5t-29 82q-9 48 -4 84q19 81 46 142.5t76.5 117t119.5 90.5q12 4 20 12q14 11 28 18.5t30 9t27 1.5t28.5 -5t25.5 -7.5t28 -10.5t26 -10q7 -4 13.5 -13t14 -25t11.5 -23q23 112 44 163t46 56q14 3 28 4t32 1t28 1
q56 0 59 -62q1 -27 5 -81.5t5 -81.5q-8 -108 5 -199t38.5 -149.5t60 -101.5t66 -63.5t60.5 -25.5q65 -10 106 20q32 21 146 97q6 3 16 10t16 10.5t16 8t21 6.5q6 -6 7 -9.5t-5 -11.5q-3 -4 -18 -27.5t-28.5 -41t-37.5 -41.5t-58.5 -44.5t-76.5 -35.5q-90 -29 -198 -2l12 -52
q25 -94 25 -207q0 -46 -21 -149q-27 -137 -51 -209q-28 -88 -61 -149.5t-87 -104.5q-71 -58 -155 -70q-96 -12 -154 42.5t-63 142.5q-3 72 10.5 204.5t15.5 168.5q2 17 16.5 111.5t26 182.5t8.5 119zM686 309h-16q-2 -19 -23 -168l-33 -219q-6 -55 -22 -176
q-19 -168 -27 -211q-6 -37 -33 -117q96 0 138 86q87 166 121 349q41 223 -105 456zM463 791q-7 -5 -29.5 -21.5t-30.5 -22.5t-27.5 -21t-28.5 -23.5t-25 -23t-25.5 -25.5t-21.5 -26t-21 -30q-44 -72 -86 -158q-13 -29 -4.5 -49t33.5 -22q87 -11 127 39q62 89 82 149
q18 48 53 205q4 20 4 29z" />
    <glyph glyph-name="r" unicode="r" horiz-adv-x="866" 
d="M141 610q39 -12 55.5 -16t45 1.5t55.5 27.5q4 4 28 31.5t42 41.5q34 -13 100 -34t94 -31q0 -9 -10.5 -35t-28.5 -64t-34 -69.5t-36 -71.5t-26 -51l-82 -156q-2 -3 -27 -50t-53 -95.5t-43 -65.5q-18 -25 -11 -41t36 -16q54 3 94 27q269 174 461 471l18 39q13 30 27 30
q9 -10 13.5 -20.5t5.5 -18t-2.5 -18.5t-6 -15.5t-10 -16t-8.5 -13.5q-29 -50 -43.5 -73.5t-56.5 -81t-109.5 -129.5t-163.5 -165q-137 -104 -293 -79q-130 25 -152 135q-37 175 52 327l114 199q7 14 7 18q-114 66 -130 76q-6 4 -12 9.5t-10 10.5t-11 13t-10 12
q-35 47 -6 107q17 29 35 40.5t49 16.5q8 2 27 -2t29 -10q23 -20 43 -49q14 -27 -3.5 -73.5t-52.5 -72.5zM94 647q4 2 15 2q18 6 31 31.5t10 56t-29 45.5q-22 6 -42 -8.5t-20 -42.5q0 -19 5.5 -39t13.5 -33t16 -12z" />
    <glyph glyph-name="s" unicode="s" horiz-adv-x="1107" 
d="M461 397q-26 28 -74 84q-65 77 -147 111q-21 6 -43 16t-59.5 33.5t-71 65.5t-54.5 96q-51 164 101 319q73 73 219 144q17 8 52 18.5t50 15.5q74 -43 117 -151q5 -11 -24.5 -32.5t-76 -54.5t-93 -75t-80 -107t-33.5 -139q36 -32 49 -41q25 -18 92 -66t102 -75
q34 -25 80 -78q31 -41 92 -28q147 35 205 41q36 4 75.5 7t89.5 6t77 5q8 -51 -45 -55q-107 -12 -328 -72q-17 -5 -40 -19.5t-19 -27.5q0 -2 5.5 -19.5t12.5 -44.5t12.5 -59t5.5 -71.5t-8 -73.5q-4 -15 -13.5 -33.5t-34.5 -48.5t-58 -53t-90 -40.5t-125 -17.5q-30 2 -74 37
q-64 64 -84 98q-41 64 10 152q72 123 187 186q3 1 11 5.5t12 7t9.5 7.5t7.5 11.5t1 15.5zM481 236q-17 -7 -35.5 -16t-47.5 -30t-49.5 -44.5t-34.5 -59t-9 -74.5q8 -36 30 -59.5t54 -24.5q36 -2 61.5 17.5t32.5 54.5q29 95 -2 236z" />
    <glyph glyph-name="t" unicode="t" horiz-adv-x="1132" 
d="M350 879q-115 -11 -172 -13q-36 -5 -81 -0.5t-81 29.5q-9 35 -12 72q-3 16 -3.5 32.5t0.5 40.5t1 35q92 5 132 4t132.5 -8.5t136.5 -9.5q46 159 111 364q106 -36 113 -39q53 -20 81.5 -70.5t20.5 -107.5q-5 -29 -18 -149q198 -35 422 -78q-30 -38 -136 -92
q-34 -17 -72 -21t-86.5 -1t-74.5 1q-6 -1 -17 -1t-20.5 -1t-17.5 -4q-34 -6 -37 -43q-6 -31 -82 -292t-80 -306q-3 -18 -14.5 -60.5t-14.5 -66.5q-12 -79 2 -121q64 -12 107 25q22 18 59.5 54t52.5 50q113 107 177 232q30 55 129 207q5 -6 15 -17t13.5 -16t8 -14.5t3.5 -19
t-6 -21.5q-29 -78 -118 -209q-7 -5 -52 -61t-96.5 -116t-125 -116.5t-134.5 -67.5q-85 -8 -171 40t-109 136q-25 91 -15 203q12 113 53 285l70 301q4 8 5 19t1 12z" />
    <glyph glyph-name="u" unicode="u" horiz-adv-x="1091" 
d="M772 152q10 -3 20.5 4t24 23.5t14.5 17.5q72 82 152 186q14 17 26 37t26 45t22 39q2 -1 7 -3q67 -24 -60 -204q-21 -27 -59 -83t-60 -83q-48 -54 -119 -39q-167 46 -125 203q3 5 4 18t4 21q-13 23 -43 -4t-55 -66q-29 -37 -47 -67q-58 -71 -179 -117t-210 -12
q-85 42 -103 139q-32 159 31 330q22 63 68.5 177t64.5 163q16 32 59.5 68.5t67.5 25.5q19 -12 58 -28.5t59 -27.5q25 -10 35 -32q10 -30 19 -102.5t9 -92.5q-12 -107 -75 -254q-60 -155 -107 -227q-8 -10 -17 -33t-14 -33q76 18 127 82q49 63 162 228q48 62 132.5 193
t92.5 153q15 35 52 32q6 -1 32 -1t41 -3q18 -4 26 -17.5t3 -27.5q-76 -283 -111 -385q-10 -30 -57 -207q-5 -7 -5 -18.5t7 -17.5z" />
    <glyph glyph-name="v" unicode="v" horiz-adv-x="1128" 
d="M741 455l-30 37q-94 -195 -258 -359l-41 -43q-26 -22 -70.5 -27.5t-75.5 13.5q-10 6 -29.5 29.5t-49 74.5t-59 118t-61.5 169.5t-55 218.5q-1 5 -3.5 28.5t-3 30.5t-3 28t-2.5 30.5t-0.5 28.5t0 32t2 30.5t4 34.5t6.5 34q5 0 11.5 0.5t11 1t10 -0.5t10.5 -3
q39 -19 62.5 -31.5t54 -33.5t52 -47t36.5 -58q45 -92 87 -294.5t42 -242.5q110 87 158 213l127 360q27 76 137 41v-317q1 -87 55 -116t129 16q8 7 24.5 19t24.5 19q3 2 17 13.5t22 15.5q8 5 20 5.5t17 -3.5q12 -29 4 -43q-11 -22 -41 -37q-49 -27 -88 -43
q-60 -28 -132 -11.5t-122 69.5z" />
    <glyph glyph-name="w" unicode="w" horiz-adv-x="1755" 
d="M393 -145q62 38 88 118q30 108 99 416q0 141 94 158l12 2q46 -15 49 -78q4 -36 12 -79.5t15 -73t20 -80.5t19 -76q1 -5 7.5 -27t9.5 -30.5t10 -24.5t15.5 -27.5t20.5 -21.5q41 18 56 61q20 62 55.5 187t54.5 188q17 51 33 153.5t23.5 176.5t7.5 88q4 51 12 63
q28 36 65 51q24 10 40.5 -2t21.5 -34q6 -119 20.5 -221t34 -173t43.5 -128.5t47 -92t46 -58.5t40 -33.5t29 -10.5q63 -10 102 55q48 76 76 143q11 20 29.5 33.5t28.5 7.5q26 -18 26 -55t-31 -80q-12 -17 -32.5 -50t-30.5 -48q-94 -120 -250 -70q-37 13 -143 74q-8 3 -21 13
t-16 12q-2 -2 -80 -134.5t-107 -171.5q-59 -80 -170 -55q-52 13 -74 19.5t-59 24.5t-63 44q-5 -58 -33.5 -112.5t-75.5 -92.5q-17 -25 -85.5 -37t-180.5 7q-95 24 -164.5 87.5t-95.5 155.5q-43 158 -41 256q4 176 16 295q5 53 45 301l21 76q36 18 78 14t71.5 -15.5
t67.5 -33.5q20 -11 29 -39q17 -40 23.5 -154.5t4.5 -221.5t-6 -218l-4 -110q0 -95 10 -192t35 -119z" />
    <glyph glyph-name="x" unicode="x" horiz-adv-x="1490" 
d="M0 973q28 7 47 10q234 20 465 -84q30 -11 101 -65.5t83 -71.5q7 -8 13.5 -18.5t13.5 -26t12 -23.5q6 3 89 48t124 73q39 27 105.5 84.5t91.5 77.5q2 -6 7 -14.5t7.5 -14.5t1.5 -10q-4 -30 -7.5 -46.5t-14.5 -40t-29 -42.5q-38 -39 -119 -105t-117 -102q-11 -11 -24 -22
t-22.5 -17.5t-25 -17.5t-22.5 -17q-6 -60 7 -122t31.5 -102t40 -83t26.5 -59q7 -22 20.5 -40t25 -26.5t34.5 -23.5q15 -9 41 2q68 33 94 57q71 67 109 104.5t93 100t93 119.5q23 30 49 47q15 11 37 -2q4 -4 7 -14.5t1 -16.5q-15 -36 -49 -94q-63 -86 -120 -147.5
t-126 -108.5q-7 -7 -28.5 -22.5t-66.5 -39t-93.5 -38.5t-110.5 -13t-117 29q-163 91 -235 223l-47 72l-41 -27q-34 -23 -147 -89.5t-156 -90.5q-53 -28 -136 22q71 71 191.5 180t179.5 140q8 3 19 11t16 11q-5 15 -11 41.5t-13 47.5t-17 38q-18 33 -123 209q-54 87 -172 97
q-39 5 -49 12q-12 8 -37 41z" />
    <glyph glyph-name="y" unicode="y" horiz-adv-x="1404" 
d="M696 186q-16 -6 -51 -16t-53 -18q-22 -3 -35 -11q-58 -23 -125 -27.5t-133.5 11t-123.5 47.5t-99 87t-56 124q-40 185 7 369q14 55 33 113t45 130t38 109q6 16 16 26.5t26.5 22t23.5 18.5q44 38 90 23q9 -2 46 -7t56 -13q36 -13 47.5 -33.5t6.5 -59.5q-2 -13 -5.5 -44
t-7.5 -48q-12 -34 -48 -338t-36 -360q-3 -48 25 -76q18 1 37 9t29 15t32 23q44 29 80.5 61.5t59 59.5t41.5 58.5t27.5 51.5t19 45t14.5 33q74 152 108 215q12 20 58.5 34.5t71.5 6.5q16 -8 30 -32q9 -21 13 -62q20 -170 20 -186l-16 -225q21 15 70 44.5t73 47.5
q77 64 203 88q15 1 23 2t14 -5t7.5 -9.5t4.5 -12.5q0 -6 -25.5 -26.5t-34.5 -20.5q-27 -3 -115 -56t-120 -81q-43 -33 -119 -109q-5 -6 -10 -28l-66 -271q-3 -13 -10.5 -57t-15.5 -66q-7 -20 -11.5 -60t-11.5 -60q-11 -33 -21 -105t-24 -110q-9 -26 -28 -100.5t-37 -112.5
q-28 -57 -111 -152q-14 -14 -59 -14q-76 0 -111 10q-100 29 -164 63q-70 36 -91.5 79.5t-4.5 125.5q3 20 18.5 59t31 73t32 68t18.5 38q136 239 275 364q52 45 78 87t22 100q0 14 3.5 39t4.5 32zM668 -129q-108 -105 -185 -238q-6 -10 -28 -51t-51 -101.5t-39 -92.5
q-4 -11 -6.5 -23t-4 -26t-2 -23l-1.5 -27t-1 -24q-6 -47 31 -62q42 -19 72 19q4 5 14 16t15.5 20t9.5 19q84 217 129 358q11 34 19 73t15.5 87.5t12.5 75.5z" />
    <glyph glyph-name="z" unicode="z" horiz-adv-x="1159" 
d="M1159 477q-57 -24 -78 -26q-35 -1 -71 -13.5t-60 -26t-61 -38.5q-49 -35 -170 -125q24 -68 37 -117q1 -8 7.5 -31.5t7 -32t-0.5 -32.5q-9 -126 -29 -232q-33 -198 -184 -362q-60 -62 -133 -156q-59 -71 -152 -71q-74 0 -141 53q-22 20 -40 40t-43 59.5t-37 79t-8 94
t32 108.5q11 15 68 94.5t92 118.5q48 52 100 105t126 125.5t105 103.5q24 24 49 38q77 59 31 138q-9 16 -64.5 27.5t-96 14.5t-52.5 3q-32 6 -48 5t-48.5 -5.5t-48.5 -5.5q-30 -2 -84 10q-17 4 -27 30.5t-2 45.5q6 14 19 46t20.5 49t21 42t27.5 45q19 27 46.5 56t42 43
t55.5 50t47 41q5 4 32 35q-16 2 -102 8q-32 4 -50 8t-40.5 17.5t-38.5 36.5q-7 11 -15.5 21.5t-20 22t-19 18t-23.5 20.5t-22 20q38 31 88 8q33 -18 154 -20t212.5 3.5t124.5 -1.5q55 -29 148 -88q16 -10 16 -25q0 -9 1 -47t0 -54.5t-7.5 -44.5t-20.5 -50q-17 -33 -63 -99
q-3 -7 -77 -72t-111 -96q51 -47 71 -69q24 -26 64 -80q70 45 108 72q81 52 254 96q39 9 82 -31zM604 139q-4 1 -14 11l-94 -103q-225 -240 -269 -289q-27 -30 -49.5 -94.5t-33 -115.5t-7.5 -56q1 0 13 4q0 2 50 32.5t105.5 67.5t65.5 52l104 131q24 31 42 63.5t31.5 75
t20 66t19 80.5t16.5 75z" />
    <glyph glyph-name="braceleft" unicode="{" horiz-adv-x="589" 
d="M424 1272l-25 -45q-1 -3 -6.5 -7t-7.5 -6q-21 7 -23 9q-19 15 -39.5 16t-36 -5.5t-38.5 -21.5q-46 -34 -31 -96l51 -188q4 -13 13.5 -45.5t14 -48.5t11.5 -45.5t10 -49.5t6.5 -46t2.5 -50.5t-4 -48.5q0 -3 -2 -17l-2.5 -17.5t-2.5 -15t-4 -16t-5.5 -14t-7.5 -15t-10 -12
t-14 -12.5q42 -45 80 -92q7 -9 12.5 -18t9.5 -21t6 -19t3.5 -23t2 -20.5t1 -23t0.5 -20.5q3 -42 3 -126t3 -126q0 -85 8 -150q5 -37 37.5 -59.5t83.5 -22.5q20 0 29 -1t19.5 -9t17.5 -25q-15 -21 -55 -65q-190 13 -310 125q-51 44 -51 100l-4 320l-4 159q0 21 -11 31t-34 19
q-57 18 -84 38q-37 29 -34.5 68.5t44.5 52.5q64 23 81 65t5 109q-2 12 -8.5 48t-12 60.5t-12.5 47.5q-51 155 19 311q51 108 153 97q5 -1 36 -4t42 -5t33.5 -8t40.5 -16z" />
    <glyph glyph-name="braceright" unicode="}" horiz-adv-x="602" 
d="M602 512q-25 -48 -42 -62q-17 -13 -40 -18q-43 -10 -59.5 -43.5t-11.5 -95.5q12 -247 14 -354q3 -125 -45 -224q-17 -37 -57 -55.5t-76 -5.5q-27 12 -39 18.5t-31 20.5t-28 33t-11 45q116 30 113 170q-4 101 -10 159q-11 84 -14 140.5t7.5 129.5t40.5 134q-3 12 -6 16
q-38 28 -63 65t-37 70.5t-16 82t-3 80.5t5 85q14 170 -25 279q-21 65 -84 73q-1 0 -9.5 1.5t-10.5 2l-10 2.5t-10 3t-8.5 3.5t-9.5 5t-8 6.5t-7.5 8.5t-5.5 10.5t-5 13q31 -2 106 -5.5t115 -7.5q55 -6 90 -40t62 -91l26 -65q3 -10 11 -30t12 -35.5t4 -30.5q1 -32 0 -67.5
t-3 -78.5t-3 -67q-5 -113 0 -152q3 -69 90 -90q6 -1 19.5 -3t21 -3.5t18 -5t18.5 -10.5t15 -17z" />
    <glyph glyph-name="exclamdown" unicode="&#xa1;" horiz-adv-x="325" 
d="M41 551l16 352q10 -2 40 -5.5t46 -8.5q28 -8 44 -16t31 -26t22 -46q2 -11 9.5 -46t10.5 -51t7.5 -44t6 -52t0.5 -47q0 -14 2 -18q19 -56 27 -119.5t12 -141.5t9 -120q1 -12 -0.5 -24t-6 -31t-6.5 -27q-3 -21 -11.5 -110.5t-16.5 -137.5q-6 -42 -50 -108
q-11 -20 -44.5 -18.5t-59.5 18.5q-61 45 -72 112q-4 12 -8 58q-3 37 -11 108t-12.5 128t-5.5 108q-1 61 9.5 176t11.5 137zM0 1221q6 2 36 13t48 15q41 7 56.5 -1.5t35.5 -49.5q0 -1 1 -3t1 -3q23 -30 35 -57q4 -5 2.5 -12.5t-6.5 -12.5q-8 -10 -17.5 -20t-21.5 -20.5
t-18 -16.5q-80 12 -112.5 47.5t-39.5 120.5z" />
    <glyph glyph-name="cent" unicode="&#xa2;" horiz-adv-x="731" 
d="M731 8q-23 -40 -39 -63t-40 -48t-53 -37t-67 -14l50 -135l-52 -135q-52 16 -81.5 47.5t-51.5 79.5q-17 39 -42.5 57.5t-69.5 22.5q-147 15 -213 158q-7 16 -18.5 45.5t-18.5 44.5q-45 88 -33 181.5t56.5 171t103.5 120.5q15 13 49 27.5t49 23.5q-17 68 -61 221
q84 -21 134 -60.5t79 -111.5q7 -21 26 -40t49 -40.5t43 -34.5l111 -98q-11 -8 -24.5 -19.5t-22.5 -18.5t-19 -11q-124 -65 -190 -92q-38 -16 -73.5 -47t-53 -53.5t-51.5 -69.5q-16 -24 -9 -41t31 -25q61 -22 121 -22q49 1 268 16h113z" />
    <glyph glyph-name="degree" unicode="&#xb0;" horiz-adv-x="649" 
d="M311 1552l6 -24q5 -25 5 -27q104 -3 167 -84q14 -15 62 -49q43 -40 2 -84q-49 -49 -74 -88q-46 -70 -102.5 -85.5t-145.5 11.5q-60 18 -99.5 66t-51 105t6 117.5t65.5 102.5q34 30 71 37t88 2zM358 1374q-32 34 -90 107l-18 -6l-25 -164q50 -2 80 10t53 53zM649 920
q-36 -16 -135.5 -74.5t-163.5 -73.5q-181 -43 -311 80q-7 7 -12.5 18t-13 30.5t-13.5 33.5q93 -30 190 -4q86 24 212 24t216 -8q3 -1 31 -26z" />
    <glyph glyph-name="acute" unicode="&#xb4;" 
d="M225 1182q-18 34 8 71q10 11 51 60t66 69q22 18 46 34t58.5 37.5t47.5 29.5l53 -25q0 -51 -2 -76q-4 -17 -6.5 -24.5t-11.5 -17t-23 -13.5q-11 0 -27 -20l-47 -45q-86 -71 -213 -80z" />
    <glyph glyph-name="middot" unicode="&#xb7;" horiz-adv-x="301" 
d="M115 389q-24 0 -52 27q-40 36 -59 110q-15 59 33 95q60 42 174 75q38 10 61.5 -9.5t28.5 -61.5q0 -29 -4 -107q-3 -46 -37 -76l-4 -4q-19 -44 -49 -52t-92 3z" />
    <glyph glyph-name="ordmasculine" unicode="&#xba;" horiz-adv-x="649" 
d="M311 1552l6 -24q5 -25 5 -27q104 -3 167 -84q14 -15 62 -49q43 -40 2 -84q-49 -49 -74 -88q-46 -70 -102.5 -85.5t-145.5 11.5q-60 18 -99.5 66t-51 105t6 117.5t65.5 102.5q34 30 71 37t88 2zM358 1374q-32 34 -90 107l-18 -6l-25 -164q50 -2 80 10t53 53zM649 920
q-36 -16 -135.5 -74.5t-163.5 -73.5q-181 -43 -311 80q-7 7 -12.5 18t-13 30.5t-13.5 33.5q93 -30 190 -4q86 24 212 24t216 -8q3 -1 31 -26z" />
    <glyph glyph-name="questiondown" unicode="&#xbf;" horiz-adv-x="593" 
d="M266 1040q152 -53 176 -63q18 -10 21 -35q3 -11 14 -46.5t16.5 -60t8.5 -49.5q2 -23 14.5 -111.5t13.5 -139.5q3 -36 -0.5 -73.5t-11 -85t-10.5 -73.5q-1 -13 -12.5 -33t-14.5 -30q-18 -51 -53 -90.5t-88 -81.5q-76 -63 -84 -152q-3 -38 -18 -76q-28 -68 47 -143
q7 -7 10 -8q35 -21 54.5 -32.5t41 -16t29.5 -5.5t28.5 11.5t29 20.5t38.5 36q7 7 78 82q-3 -11 -5 -27t-5 -24q-10 -40 -35 -109q-8 -27 -52 -58t-71 -24q-98 22 -164.5 48t-120.5 77q-184 163 -125 400q44 170 152 270q24 24 33 53q34 139 41 201q11 87 24 328q1 16 1 34
t-0.5 43.5t-0.5 42.5zM461 1309q-17 -38 -27 -76q-15 -58 -74 -70q-62 -12 -92 41l-39 64q13 11 22 23.5t12.5 30.5t4.5 27.5t1.5 34.5t0.5 31q4 0 12 1t12.5 0.5t8.5 -3.5q105 -67 158 -104z" />
    <glyph glyph-name="Agrave" unicode="&#xc0;" horiz-adv-x="1366" 
d="M1202 313q86 233 103 322q3 20 19 27t29.5 -3t10.5 -30v-2q-8 -62 -72 -229t-145 -267q-40 -60 -101 -53.5t-120.5 49.5t-94.5 98q-108 165 -165 334q-3 8 -11 19q-20 -10 -85 -30t-91 -20h-36.5t-24 -3t-16 -4.5t-10 -10.5t-8 -15t-8 -24.5t-11.5 -32.5
q-39 -86 -78.5 -157.5t-60 -101.5t-51.5 -69t-32 -40q-10 -13 -28 -27q-17 -13 -35.5 -9t-24.5 23q-9 26 -20 68q-56 208 -19 412q76 404 121 618q19 83 78 291q5 20 29.5 57t34.5 37q36 4 59 -6q80 -33 134 -76.5t83 -111.5q14 -31 36 -91.5t30 -80.5l90 -218
q2 -4 21 -47.5t37.5 -84.5t21.5 -44q1 -2 77.5 -170.5t142 -300t83.5 -137.5q9 -4 24.5 14t38.5 54q2 3 19.5 30t25.5 43zM426 1053q-3 -61 -7 -181.5t-7 -181.5q0 -15 9 -26t25 -11q17 -3 50.5 -5t50.5 -5q23 -2 35 15.5t2 37.5q-18 37 -66 165.5t-92 191.5zM463 1626
l-2 -14q-2 0 -24 -4.5t-36 -3.5q-100 3 -202 79q-24 19 -71 56t-71 57q76 101 181 57q26 -9 55 -51q25 -24 53.5 -53.5t63 -66t53.5 -56.5z" />
    <glyph glyph-name="Aacute" unicode="&#xc1;" horiz-adv-x="1366" 
d="M1202 313q86 233 103 322q3 20 19 27t29.5 -3t10.5 -30v-2q-8 -62 -72 -229t-145 -267q-40 -60 -101 -53.5t-120.5 49.5t-94.5 98q-108 165 -165 334q-3 8 -11 19q-20 -10 -85 -30t-91 -20h-36.5t-24 -3t-16 -4.5t-10 -10.5t-8 -15t-8 -24.5t-11.5 -32.5
q-39 -86 -78.5 -157.5t-60 -101.5t-51.5 -69t-32 -40q-10 -13 -28 -27q-17 -13 -35.5 -9t-24.5 23q-9 26 -20 68q-56 208 -19 412q76 404 121 618q19 83 78 291q5 20 29.5 57t34.5 37q36 4 59 -6q80 -33 134 -76.5t83 -111.5q14 -31 36 -91.5t30 -80.5l90 -218
q2 -4 21 -47.5t37.5 -84.5t21.5 -44q1 -2 77.5 -170.5t142 -300t83.5 -137.5q9 -4 24.5 14t38.5 54q2 3 19.5 30t25.5 43zM426 1053q-3 -61 -7 -181.5t-7 -181.5q0 -15 9 -26t25 -11q17 -3 50.5 -5t50.5 -5q23 -2 35 15.5t2 37.5q-18 37 -66 165.5t-92 191.5zM264 1610
q-18 34 8 71q10 11 51 60t66 69q22 18 46 34t58.5 37.5t47.5 29.5l53 -25q0 -51 -2 -76q-4 -17 -6.5 -24.5t-11.5 -17t-23 -13.5q-11 0 -27 -20l-47 -45q-86 -71 -213 -80z" />
    <glyph glyph-name="Acircumflex" unicode="&#xc2;" horiz-adv-x="1366" 
d="M1202 313q86 233 103 322q3 20 19 27t29.5 -3t10.5 -30v-2q-8 -62 -72 -229t-145 -267q-40 -60 -101 -53.5t-120.5 49.5t-94.5 98q-108 165 -165 334q-3 8 -11 19q-20 -10 -85 -30t-91 -20h-36.5t-24 -3t-16 -4.5t-10 -10.5t-8 -15t-8 -24.5t-11.5 -32.5
q-39 -86 -78.5 -157.5t-60 -101.5t-51.5 -69t-32 -40q-10 -13 -28 -27q-17 -13 -35.5 -9t-24.5 23q-9 26 -20 68q-56 208 -19 412q76 404 121 618q19 83 78 291q5 20 29.5 57t34.5 37q36 4 59 -6q80 -33 134 -76.5t83 -111.5q14 -31 36 -91.5t30 -80.5l90 -218
q2 -4 21 -47.5t37.5 -84.5t21.5 -44q1 -2 77.5 -170.5t142 -300t83.5 -137.5q9 -4 24.5 14t38.5 54q2 3 19.5 30t25.5 43zM426 1053q-3 -61 -7 -181.5t-7 -181.5q0 -15 9 -26t25 -11q17 -3 50.5 -5t50.5 -5q23 -2 35 15.5t2 37.5q-18 37 -66 165.5t-92 191.5zM84 1573
q5 9 15 32.5t18 32.5l223 256q24 31 63 4q6 -4 30.5 -19.5t33.5 -22t29.5 -21.5t31.5 -26t26 -27.5t26 -34.5q2 -2 12.5 -9.5t13.5 -13.5q1 -1 10 -11t11 -13t8.5 -12.5t8 -16t4 -16t1.5 -20t-4 -21.5q-4 -11 2.5 -49t-8.5 -54q-84 0 -145 43l-181 129q-25 10 -43 -14
q-8 -10 -30 -29t-31 -32q-17 -23 -53 -31.5t-72 -3.5z" />
    <glyph glyph-name="Atilde" unicode="&#xc3;" horiz-adv-x="1366" 
d="M1202 313q86 233 103 322q3 20 19 27t29.5 -3t10.5 -30v-2q-8 -62 -72 -229t-145 -267q-40 -60 -101 -53.5t-120.5 49.5t-94.5 98q-108 165 -165 334q-3 8 -11 19q-20 -10 -85 -30t-91 -20h-36.5t-24 -3t-16 -4.5t-10 -10.5t-8 -15t-8 -24.5t-11.5 -32.5
q-39 -86 -78.5 -157.5t-60 -101.5t-51.5 -69t-32 -40q-10 -13 -28 -27q-17 -13 -35.5 -9t-24.5 23q-9 26 -20 68q-56 208 -19 412q76 404 121 618q19 83 78 291q5 20 29.5 57t34.5 37q36 4 59 -6q80 -33 134 -76.5t83 -111.5q14 -31 36 -91.5t30 -80.5l90 -218
q2 -4 21 -47.5t37.5 -84.5t21.5 -44q1 -2 77.5 -170.5t142 -300t83.5 -137.5q9 -4 24.5 14t38.5 54q2 3 19.5 30t25.5 43zM426 1053q-3 -61 -7 -181.5t-7 -181.5q0 -15 9 -26t25 -11q17 -3 50.5 -5t50.5 -5q23 -2 35 15.5t2 37.5q-18 37 -66 165.5t-92 191.5zM487 1712
q20 18 76 90q60 68 117 99q46 -15 37 -62q-22 -83 -23 -88q-2 -16 -16 -49q-33 -99 -148 -96q-83 3 -151 71q-15 14 -39.5 41t-34.5 37q-4 4 -8.5 7.5t-8 5.5t-3.5 1q-48 -48 -92 -83l-84 -66q-47 -35 -62 43q-12 78 53 143q82 71 207 58q54 -6 88 -49q8 -9 22.5 -31
t22.5 -31q23 -23 47 -41z" />
    <glyph glyph-name="Egrave" unicode="&#xc8;" horiz-adv-x="1101" 
d="M1049 674q26 -4 41 -26t10 -48q-22 -141 -110 -306.5t-140 -217.5q-52 -59 -84.5 -83t-81.5 -42q-80 -31 -144 -42t-147 -5q-148 9 -260 104q-55 49 -98 158q-16 37 -25.5 86t-9.5 112.5t16 118.5q11 29 25.5 70.5t27 72.5t29.5 68q20 45 97 152q11 16 24.5 31.5t32 36.5
t29.5 34l-29 62q-33 71 -35 123q-5 64 34.5 140.5t98.5 104.5q66 37 140.5 49t118 6.5t65.5 -16.5q29 -17 55 -31t50 -38t36 -54q19 -44 7.5 -83.5t-52.5 -65.5q-33 -20 -48 -23t-46 8q-19 7 -27 26.5t-2 39.5l4 8q3 53 -43 79.5t-99 13.5t-69 -58q0 -12 -0.5 -33.5
t-0.5 -39t1 -33.5q6 -72 44 -140t108 -86q30 -6 86 -35q26 -12 26.5 -30t-24.5 -31q-47 -27 -82 -16q-13 3 -41 4t-41 4q-42 5 -64 -9t-34 -55q-9 -37 -48.5 -156.5t-41.5 -129.5q-26 -92 -37 -248q-9 -85 55 -152q10 -16 47 -16q118 -3 232 51q113 53 197 139.5t132 194.5
q52 127 86 250q0 2 9 2zM659 1626l-2 -14q-2 0 -23.5 -4.5t-35.5 -3.5q-101 3 -203 79q-24 20 -71 56.5t-70 56.5q75 100 180 57q26 -9 55 -51q25 -24 53.5 -53.5t63 -66t53.5 -56.5z" />
    <glyph glyph-name="Eacute" unicode="&#xc9;" horiz-adv-x="1101" 
d="M1049 674q26 -4 41 -26t10 -48q-22 -141 -110 -306.5t-140 -217.5q-52 -59 -84.5 -83t-81.5 -42q-80 -31 -144 -42t-147 -5q-148 9 -260 104q-55 49 -98 158q-16 37 -25.5 86t-9.5 112.5t16 118.5q11 29 25.5 70.5t27 72.5t29.5 68q20 45 97 152q11 16 24.5 31.5t32 36.5
t29.5 34l-29 62q-33 71 -35 123q-5 64 34.5 140.5t98.5 104.5q66 37 140.5 49t118 6.5t65.5 -16.5q29 -17 55 -31t50 -38t36 -54q19 -44 7.5 -83.5t-52.5 -65.5q-33 -20 -48 -23t-46 8q-19 7 -27 26.5t-2 39.5l4 8q3 53 -43 79.5t-99 13.5t-69 -58q0 -12 -0.5 -33.5
t-0.5 -39t1 -33.5q6 -72 44 -140t108 -86q30 -6 86 -35q26 -12 26.5 -30t-24.5 -31q-47 -27 -82 -16q-13 3 -41 4t-41 4q-42 5 -64 -9t-34 -55q-9 -37 -48.5 -156.5t-41.5 -129.5q-26 -92 -37 -248q-9 -85 55 -152q10 -16 47 -16q118 -3 232 51q113 53 197 139.5t132 194.5
q52 127 86 250q0 2 9 2zM463 1610q-18 34 8 71q10 11 51 60t66 69q22 18 151 101l54 -25q0 -51 -2 -76q-4 -17 -6.5 -24.5t-11.5 -17t-23 -13.5q-11 0 -27 -20l-47 -45q-86 -71 -213 -80z" />
    <glyph glyph-name="Ecircumflex" unicode="&#xca;" horiz-adv-x="1101" 
d="M1049 674q26 -4 41 -26t10 -48q-22 -141 -110 -306.5t-140 -217.5q-52 -59 -84.5 -83t-81.5 -42q-80 -31 -144 -42t-147 -5q-148 9 -260 104q-55 49 -98 158q-16 37 -25.5 86t-9.5 112.5t16 118.5q11 29 25.5 70.5t27 72.5t29.5 68q20 45 97 152q11 16 24.5 31.5t32 36.5
t29.5 34l-29 62q-33 71 -35 123q-5 64 34.5 140.5t98.5 104.5q66 37 140.5 49t118 6.5t65.5 -16.5q29 -17 55 -31t50 -38t36 -54q19 -44 7.5 -83.5t-52.5 -65.5q-33 -20 -48 -23t-46 8q-19 7 -27 26.5t-2 39.5l4 8q3 53 -43 79.5t-99 13.5t-69 -58q0 -12 -0.5 -33.5
t-0.5 -39t1 -33.5q6 -72 44 -140t108 -86q30 -6 86 -35q26 -12 26.5 -30t-24.5 -31q-47 -27 -82 -16q-13 3 -41 4t-41 4q-42 5 -64 -9t-34 -55q-9 -37 -48.5 -156.5t-41.5 -129.5q-26 -92 -37 -248q-9 -85 55 -152q10 -16 47 -16q118 -3 232 51q113 53 197 139.5t132 194.5
q52 127 86 250q0 2 9 2zM266 1573q5 9 15 32.5t18 32.5l223 256q25 31 64 4q4 -3 30.5 -19.5t34 -22t28.5 -21t31.5 -26t25.5 -27.5t26 -35q2 -2 12.5 -9.5t13.5 -13.5q1 -1 10 -11t11 -13t8.5 -12.5t8 -16t4 -16t1.5 -20t-4 -21.5q-4 -11 2.5 -49t-8.5 -54q-84 0 -145 43
l-180 129q-25 10 -43 -14q-8 -10 -30.5 -29t-31.5 -32q-17 -23 -53 -31.5t-72 -3.5z" />
    <glyph glyph-name="Igrave" unicode="&#xcc;" horiz-adv-x="583" 
d="M446 102q10 -8 22 -10.5t28.5 -3t27.5 -2.5q41 -5 52 -24t-1 -66q-11 -1 -45 -4.5t-53 -3.5q-71 -2 -215 2q-22 0 -45 10q-16 3 -47 7t-47 7q-34 5 -123 9q0 20 7.5 33.5t22.5 19.5t27.5 8.5t33.5 3.5t28 2q-6 80 19.5 562t41.5 548q4 9 4 33q-31 21 -87.5 56t-82.5 52
q42 30 92 17q239 -58 308 -78q14 -4 27 -10.5t30.5 -18.5t24.5 -16q7 -5 11.5 -15t0.5 -14q-10 -19 -27 -22q-18 -4 -80 -4q7 -65 31.5 -478t24.5 -471q0 -39 -11 -129zM426 1499l-2 -14q-2 0 -23.5 -4.5t-35.5 -3.5q-101 3 -203 79q-24 19 -71 56t-71 57q76 101 181 57
q26 -9 55 -51q25 -24 53.5 -53.5t63 -66t53.5 -56.5z" />
    <glyph glyph-name="Iacute" unicode="&#xcd;" horiz-adv-x="583" 
d="M446 102q10 -8 22 -10.5t28.5 -3t27.5 -2.5q41 -5 52 -24t-1 -66q-11 -1 -45 -4.5t-53 -3.5q-71 -2 -215 2q-22 0 -45 10q-16 3 -47 7t-47 7q-34 5 -123 9q0 20 7.5 33.5t22.5 19.5t27.5 8.5t33.5 3.5t28 2q-6 80 19.5 562t41.5 548q4 9 4 33q-31 21 -87.5 56t-82.5 52
q42 30 92 17q239 -58 308 -78q14 -4 27 -10.5t30.5 -18.5t24.5 -16q7 -5 11.5 -15t0.5 -14q-10 -19 -27 -22q-18 -4 -80 -4q7 -65 31.5 -478t24.5 -471q0 -39 -11 -129zM205 1610q-18 34 8 71q10 11 51 60t66 69q22 18 151 101l54 -25q0 -38 -3 -76l-2 -7q-1 -7 -1.5 -7.5
t-2 -6.5t-2.5 -7t-3 -5.5t-3.5 -6l-4.5 -4.5t-6 -4.5t-6.5 -3.5t-8.5 -3q-11 0 -27 -20l-47 -45q-86 -71 -213 -80z" />
    <glyph glyph-name="Ograve" unicode="&#xd2;" horiz-adv-x="1273" 
d="M692 1401q4 -18 4.5 -37t-2 -33.5t-8.5 -34.5t-11 -32.5t-14.5 -34.5t-13.5 -33h37q70 7 139 -55q10 -10 13 -19q2 -6 11 -35t14.5 -51t16 -73.5t13 -102t6.5 -137.5t-2 -180q53 -22 123 10q15 7 45 21.5t47.5 23t42 22t45.5 27.5q55 36 70 8q11 -17 5 -35t-26 -28
q-64 -36 -156 -73.5t-139 -41.5q-35 -4 -50 -17t-23 -44q-35 -148 -136 -289q-64 -91 -102 -131q-29 -31 -88 -41q-2 0 -8 -1q-322 -44 -469 193q-19 35 -33.5 83t-19.5 75t-15 88q-16 97 -1 195t52 211q44 129 83 220.5t94 174.5q20 30 102 131q7 9 15 16t19 12.5l17 8.5
t21 8.5t20 7.5q90 33 227 33q12 0 35 -10zM492 903q-26 -56 -45.5 -104t-41 -111t-34.5 -126.5t-21.5 -135.5t-7 -153.5t13.5 -166.5q4 -29 25 -38q65 -38 123 -13q73 36 106 103q35 56 67 200t32 174q-5 33 -15 43q-91 112 -202 328zM719 672q3 0 8 1t8 1q0 24 -4 74
q-7 97 -26 227.5t-39 150.5q-36 47 -66 29q-17 -12 -25 -34.5t-4 -45.5q0 -4 2 -11t2 -11q24 -116 25 -148q7 -116 119 -233zM745 1626l-2 -14q-2 0 -23.5 -4.5t-35.5 -3.5q-101 3 -203 79q-24 20 -71 56.5t-70 56.5q75 100 180 57q26 -9 55 -51q25 -24 53.5 -53.5t63 -66
t53.5 -56.5z" />
    <glyph glyph-name="Oacute" unicode="&#xd3;" horiz-adv-x="1273" 
d="M692 1401q4 -18 4.5 -37t-2 -33.5t-8.5 -34.5t-11 -32.5t-14.5 -34.5t-13.5 -33h37q70 7 139 -55q10 -10 13 -19q2 -6 11 -35t14.5 -51t16 -73.5t13 -102t6.5 -137.5t-2 -180q53 -22 123 10q15 7 45 21.5t47.5 23t42 22t45.5 27.5q55 36 70 8q11 -17 5 -35t-26 -28
q-64 -36 -156 -73.5t-139 -41.5q-35 -4 -50 -17t-23 -44q-35 -148 -136 -289q-64 -91 -102 -131q-29 -31 -88 -41q-2 0 -8 -1q-322 -44 -469 193q-19 35 -33.5 83t-19.5 75t-15 88q-16 97 -1 195t52 211q44 129 83 220.5t94 174.5q20 30 102 131q7 9 15 16t19 12.5l17 8.5
t21 8.5t20 7.5q90 33 227 33q12 0 35 -10zM492 903q-26 -56 -45.5 -104t-41 -111t-34.5 -126.5t-21.5 -135.5t-7 -153.5t13.5 -166.5q4 -29 25 -38q65 -38 123 -13q73 36 106 103q35 56 67 200t32 174q-5 33 -15 43q-91 112 -202 328zM719 672q3 0 8 1t8 1q0 24 -4 74
q-7 97 -26 227.5t-39 150.5q-36 47 -66 29q-17 -12 -25 -34.5t-4 -45.5q0 -4 2 -11t2 -11q24 -116 25 -148q7 -116 119 -233zM551 1610q-18 34 8 71q10 11 51 60t66 69q22 18 151 101l54 -25q0 -51 -2 -76q-4 -17 -6.5 -24.5t-11.5 -17t-23 -13.5q-11 0 -27 -20l-47 -45
q-86 -71 -213 -80z" />
    <glyph glyph-name="Ocircumflex" unicode="&#xd4;" horiz-adv-x="1273" 
d="M692 1401q4 -18 4.5 -37t-2 -33.5t-8.5 -34.5t-11 -32.5t-14.5 -34.5t-13.5 -33h37q70 7 139 -55q10 -10 13 -19q2 -6 11 -35t14.5 -51t16 -73.5t13 -102t6.5 -137.5t-2 -180q53 -22 123 10q15 7 45 21.5t47.5 23t42 22t45.5 27.5q55 36 70 8q11 -17 5 -35t-26 -28
q-64 -36 -156 -73.5t-139 -41.5q-35 -4 -50 -17t-23 -44q-35 -148 -136 -289q-64 -91 -102 -131q-29 -31 -88 -41q-2 0 -8 -1q-322 -44 -469 193q-19 35 -33.5 83t-19.5 75t-15 88q-16 97 -1 195t52 211q44 129 83 220.5t94 174.5q20 30 102 131q7 9 15 16t19 12.5l17 8.5
t21 8.5t20 7.5q90 33 227 33q12 0 35 -10zM492 903q-26 -56 -45.5 -104t-41 -111t-34.5 -126.5t-21.5 -135.5t-7 -153.5t13.5 -166.5q4 -29 25 -38q65 -38 123 -13q73 36 106 103q35 56 67 200t32 174q-5 33 -15 43q-91 112 -202 328zM719 672q3 0 8 1t8 1q0 24 -4 74
q-7 97 -26 227.5t-39 150.5q-36 47 -66 29q-17 -12 -25 -34.5t-4 -45.5q0 -4 2 -11t2 -11q24 -116 25 -148q7 -116 119 -233zM342 1495q5 9 15 33t18 33l223 256q25 31 64 4q5 -3 26.5 -17t28.5 -18.5t25 -17.5t27.5 -21.5t23.5 -21.5t24.5 -27t20.5 -29q3 -3 13 -9.5
t13 -12.5q1 -2 8.5 -10t9.5 -11t8 -11.5t8 -13t5.5 -13t3.5 -16t-0.5 -17t-3.5 -19.5q-4 -11 2.5 -48.5t-8.5 -53.5q-84 0 -145 43l-181 129q-25 9 -43 -15q-8 -10 -30 -29t-31 -32q-17 -23 -53 -31.5t-72 -3.5z" />
    <glyph glyph-name="Otilde" unicode="&#xd5;" horiz-adv-x="1273" 
d="M692 1401q4 -18 4.5 -37t-2 -33.5t-8.5 -34.5t-11 -32.5t-14.5 -34.5t-13.5 -33h37q70 7 139 -55q10 -10 13 -19q2 -6 11 -35t14.5 -51t16 -73.5t13 -102t6.5 -137.5t-2 -180q53 -22 123 10q15 7 45 21.5t47.5 23t42 22t45.5 27.5q55 36 70 8q11 -17 5 -35t-26 -28
q-64 -36 -156 -73.5t-139 -41.5q-35 -4 -50 -17t-23 -44q-35 -148 -136 -289q-64 -91 -102 -131q-29 -31 -88 -41q-2 0 -8 -1q-322 -44 -469 193q-19 35 -33.5 83t-19.5 75t-15 88q-16 97 -1 195t52 211q44 129 83 220.5t94 174.5q20 30 102 131q7 9 15 16t19 12.5l17 8.5
t21 8.5t20 7.5q90 33 227 33q12 0 35 -10zM492 903q-26 -56 -45.5 -104t-41 -111t-34.5 -126.5t-21.5 -135.5t-7 -153.5t13.5 -166.5q4 -29 25 -38q65 -38 123 -13q73 36 106 103q35 56 67 200t32 174q-5 33 -15 43q-91 112 -202 328zM719 672q3 0 8 1t8 1q0 24 -4 74
q-7 97 -26 227.5t-39 150.5q-36 47 -66 29q-17 -12 -25 -34.5t-4 -45.5q0 -4 2 -11t2 -11q24 -116 25 -148q7 -116 119 -233zM750 1591q17 15 75 90q60 68 117 99q46 -15 37 -62q-22 -83 -23 -88q-2 -16 -16 -49q-33 -99 -147 -96q-84 3 -152 71q-15 14 -39.5 41t-34.5 37
q-17 17 -20 15q-53 -53 -92 -84l-84 -66q-47 -35 -62 43q-12 79 53 144q81 70 207 57q54 -6 88 -49q8 -9 22.5 -31t22.5 -31q20 -20 48 -41z" />
    <glyph glyph-name="Ugrave" unicode="&#xd9;" horiz-adv-x="907" 
d="M883 784q8 -49 17 -233t5 -246q-2 -69 -45 -178q-6 -16 -19 -38t-39 -52t-58 -54.5t-78.5 -41.5t-96.5 -17q-259 10 -381 185q-8 11 -15 23t-13 22.5t-13 25t-11.5 23t-11.5 25.5t-10 24.5t-10 26t-9 24.5t-9.5 26.5t-9.5 24.5q-16 48 -31.5 142.5t-19.5 111.5
q-28 156 -21 264q0 18 -2 146t-2 141q4 176 27 264q97 13 204 -47q46 -22 56 -88q7 -15 51.5 -89t48.5 -103q38 -338 31 -420q-6 -29 1 -193.5t13 -191.5q7 -34 44 -102t77 -72q32 2 56.5 51.5t36.5 117t18 120t6 79.5q6 62 16 286t10 271q2 48 13 134q6 50 55 59
q26 5 39.5 -3t23.5 -36q13 -54 13 -100q0 -42 17 -158.5t26 -153.5zM659 1413l-2 -14q-2 0 -23.5 -4.5t-35.5 -3.5q-101 3 -203 79q-24 20 -71 56.5t-70 56.5q75 100 180 57q26 -9 55 -51q25 -24 53.5 -53.5t63 -66t53.5 -56.5z" />
    <glyph glyph-name="Uacute" unicode="&#xda;" horiz-adv-x="907" 
d="M883 784q8 -49 17 -233t5 -246q-2 -69 -45 -178q-6 -16 -19 -38t-39 -52t-58 -54.5t-78.5 -41.5t-96.5 -17q-259 10 -381 185q-8 11 -15 23t-13 22.5t-13 25t-11.5 23t-11.5 25.5t-10 24.5t-10 26t-9 24.5t-9.5 26.5t-9.5 24.5q-16 48 -31.5 142.5t-19.5 111.5
q-28 156 -21 264q0 18 -2 146t-2 141q4 176 27 264q97 13 204 -47q46 -22 56 -88q7 -15 51.5 -89t48.5 -103q38 -338 31 -420q-6 -29 1 -193.5t13 -191.5q7 -34 44 -102t77 -72q32 2 56.5 51.5t36.5 117t18 120t6 79.5q6 62 16 286t10 271q2 48 13 134q6 50 55 59
q26 5 39.5 -3t23.5 -36q13 -54 13 -100q0 -42 17 -158.5t26 -153.5zM449 1395q-18 34 8 71q11 12 51 60.5t65 68.5q22 18 46 34t58.5 37.5t47.5 29.5l53 -25q0 -51 -2 -76q-4 -17 -6.5 -24.5t-11.5 -17t-23 -13.5q-10 0 -26 -20l-47 -45q-86 -71 -213 -80z" />
    <glyph glyph-name="Yacute" unicode="&#xdd;" horiz-adv-x="892" 
d="M59 1446q14 32 45 29q37 -3 58 -11q57 -20 88 -73q8 -17 20 -39t15.5 -30.5t8.5 -25.5t9 -43q21 -216 33 -307q3 -42 12 -90q5 -20 23 -26t35 8q14 13 27 31t17 26.5t17 34.5q34 94 37 110q3 12 22.5 118.5t34.5 167.5t27 73q82 12 121 20q20 4 42 -8t33 -33l66 -147
q4 -10 7 -21.5t6 -25t5 -21.5l17 -76q1 -3 4.5 -14.5t3.5 -17.5q-1 -31 -2.5 -87t-2.5 -102t-1 -86q0 -46 1 -97t2.5 -113t2.5 -97q0 -70 -24.5 -234.5t-61.5 -293.5q-12 -43 -55 -58.5t-80 11.5q-112 83 -115 223q-1 53 -1 159.5t-1 159.5q-3 143 -12 281q0 7 -13 37
l-20 -17q-12 -23 -28.5 -38t-38.5 -23.5t-40 -12.5t-45 -8q-38 -6 -65 9q-118 46 -189 166q-110 190 -102 372q4 57 6.5 80t13.5 66t29 75q7 13 8 19zM348 1511q-18 35 8 72q10 11 51 60t66 69q22 17 46.5 33.5t57.5 36.5t48 30l53 -24q0 -51 -2 -76q-4 -17 -6.5 -24.5
t-11.5 -17t-23 -13.5q-10 0 -27 -21l-47 -45q-86 -71 -213 -80z" />
    <glyph glyph-name="agrave" unicode="&#xe0;" horiz-adv-x="1050" 
d="M702 956q-1 -12 -0.5 -20t0 -15.5t-3.5 -13.5q-18 -56 -24 -114.5t-6.5 -147t-1.5 -117.5q0 -11 -2 -93t-1.5 -133t9 -117t26.5 -97q40 -52 90 -8q111 99 158 239q11 37 53 166q50 0 50 -28q1 -11 -3.5 -38t-3.5 -40q-8 -19 -19 -57.5t-17 -55.5q-48 -107 -78 -149
q-4 -4 -13.5 -15t-12.5 -14l-11 -11t-11.5 -11t-10.5 -8.5t-12 -8.5t-12.5 -6t-15.5 -6q-65 -24 -116.5 -19.5t-110.5 41.5q-38 21 -76 75.5t-61 144.5q-64 -64 -107 -91q-44 -36 -99 -42t-103.5 14t-87 62t-52.5 97q-16 61 -16 113q1 109 43.5 205.5t120.5 200.5
q32 41 123 163q29 43 78 33q33 -7 99 -17.5t99 -17.5q27 -6 74.5 -22t64.5 -21zM567 862q-77 -44 -125 -112q-23 -29 -131 -250t-114 -252q-5 -37 8 -55q5 -6 22 -6t27 6q65 45 90 81q66 100 107.5 186.5t60.5 182.5q17 86 55 219zM725 1063l-2 -14q-4 0 -24.5 -5t-34.5 -4
q-99 3 -203 80q-24 20 -71.5 57t-70.5 56q76 101 181 57q26 -9 55 -51q25 -24 53.5 -53.5t63 -66t53.5 -56.5z" />
    <glyph glyph-name="aacute" unicode="&#xe1;" horiz-adv-x="1050" 
d="M702 956q-1 -12 -0.5 -20t0 -15.5t-3.5 -13.5q-18 -56 -24 -114.5t-6.5 -147t-1.5 -117.5q0 -11 -2 -93t-1.5 -133t9 -117t26.5 -97q40 -52 90 -8q111 99 158 239q11 37 53 166q50 0 50 -28q1 -11 -3.5 -38t-3.5 -40q-8 -19 -19 -57.5t-17 -55.5q-48 -107 -78 -149
q-4 -4 -13.5 -15t-12.5 -14l-11 -11t-11.5 -11t-10.5 -8.5t-12 -8.5t-12.5 -6t-15.5 -6q-65 -24 -116.5 -19.5t-110.5 41.5q-38 21 -76 75.5t-61 144.5q-64 -64 -107 -91q-44 -36 -99 -42t-103.5 14t-87 62t-52.5 97q-16 61 -16 113q1 109 43.5 205.5t120.5 200.5
q32 41 123 163q29 43 78 33q33 -7 99 -17.5t99 -17.5q27 -6 74.5 -22t64.5 -21zM567 862q-77 -44 -125 -112q-23 -29 -131 -250t-114 -252q-5 -37 8 -55q5 -6 22 -6t27 6q65 45 90 81q66 100 107.5 186.5t60.5 182.5q17 86 55 219zM438 1085q-18 35 8 72q10 11 51 60t66 69
q22 17 46.5 33.5t57.5 36.5t48 30l53 -24q0 -51 -2 -76q-4 -17 -6.5 -24.5t-11.5 -17t-23 -13.5q-10 0 -27 -21l-47 -45q-86 -71 -213 -80z" />
    <glyph glyph-name="acircumflex" unicode="&#xe2;" horiz-adv-x="1050" 
d="M702 956q-1 -12 -0.5 -20t0 -15.5t-3.5 -13.5q-18 -56 -24 -114.5t-6.5 -147t-1.5 -117.5q0 -11 -2 -93t-1.5 -133t9 -117t26.5 -97q40 -52 90 -8q111 99 158 239q11 37 53 166q50 0 50 -28q1 -11 -3.5 -38t-3.5 -40q-8 -19 -19 -57.5t-17 -55.5q-48 -107 -78 -149
q-4 -4 -13.5 -15t-12.5 -14l-11 -11t-11.5 -11t-10.5 -8.5t-12 -8.5t-12.5 -6t-15.5 -6q-65 -24 -116.5 -19.5t-110.5 41.5q-38 21 -76 75.5t-61 144.5q-64 -64 -107 -91q-44 -36 -99 -42t-103.5 14t-87 62t-52.5 97q-16 61 -16 113q1 109 43.5 205.5t120.5 200.5
q32 41 123 163q29 43 78 33q33 -7 99 -17.5t99 -17.5q27 -6 74.5 -22t64.5 -21zM567 862q-77 -44 -125 -112q-23 -29 -131 -250t-114 -252q-5 -37 8 -55q5 -6 22 -6t27 6q65 45 90 81q66 100 107.5 186.5t60.5 182.5q17 86 55 219zM242 1102q5 10 14.5 33t17.5 32l224 256
q24 31 63 4q4 -3 30.5 -19.5t34 -22t28.5 -21t31.5 -26t25.5 -27.5t26 -35q3 -3 13.5 -10t13.5 -13q1 -1 10 -11t11 -13t8.5 -12.5t8 -16t4 -16t1.5 -20t-4 -21.5q-4 -11 2.5 -49t-8.5 -54q-85 0 -146 43l-180 129q-25 10 -43 -14q-8 -10 -30 -29t-31 -32q-17 -23 -53 -31.5
t-72 -3.5z" />
    <glyph glyph-name="atilde" unicode="&#xe3;" horiz-adv-x="1050" 
d="M702 956q-1 -12 -0.5 -20t0 -15.5t-3.5 -13.5q-18 -56 -24 -114.5t-6.5 -147t-1.5 -117.5q0 -11 -2 -93t-1.5 -133t9 -117t26.5 -97q40 -52 90 -8q111 99 158 239q11 37 53 166q50 0 50 -28q1 -11 -3.5 -38t-3.5 -40q-8 -19 -19 -57.5t-17 -55.5q-48 -107 -78 -149
q-4 -4 -13.5 -15t-12.5 -14l-11 -11t-11.5 -11t-10.5 -8.5t-12 -8.5t-12.5 -6t-15.5 -6q-65 -24 -116.5 -19.5t-110.5 41.5q-38 21 -76 75.5t-61 144.5q-64 -64 -107 -91q-44 -36 -99 -42t-103.5 14t-87 62t-52.5 97q-16 61 -16 113q1 109 43.5 205.5t120.5 200.5
q32 41 123 163q29 43 78 33q33 -7 99 -17.5t99 -17.5q27 -6 74.5 -22t64.5 -21zM567 862q-77 -44 -125 -112q-23 -29 -131 -250t-114 -252q-5 -37 8 -55q5 -6 22 -6t27 6q65 45 90 81q66 100 107.5 186.5t60.5 182.5q17 86 55 219zM670 1147q17 15 75 90q20 22 32.5 35
t35 30.5t49.5 32.5q45 -15 37 -61q-2 -7 -9 -38.5t-13 -49.5q-2 -13 -17 -49q-34 -100 -147 -97q-83 3 -152 72q-15 14 -39.5 41t-34.5 37q-4 4 -8.5 7.5t-8 5.5t-3.5 1q-53 -53 -92 -84l-84 -65q-47 -35 -62 43q-12 77 54 143q80 70 206 57q55 -6 89 -49q8 -9 22.5 -30.5
t22.5 -30.5q23 -23 47 -41z" />
    <glyph glyph-name="egrave" unicode="&#xe8;" horiz-adv-x="843" 
d="M811 475l25 31q19 -57 -19 -109q-56 -86 -131 -160.5t-176 -154.5q-66 -51 -186 -55q-196 -3 -281 202q-86 205 4 392q74 157 154 297q46 81 133 118q55 12 112 14.5t72 -3.5q55 -13 66 -60q3 -13 20 -29.5t23 -25.5q40 -77 -4 -174q-4 -14 -17 -39.5t-41 -65
t-63.5 -74.5t-89.5 -65t-113 -39q-2 0 -18 -4q-51 -82 -74 -201q-12 -91 28 -133.5t127 -30.5q74 11 111 39q4 3 29.5 21t31 22.5t28 21t30.5 22.5t27.5 21.5t29 24t26 23.5t27.5 26t24.5 25.5t25.5 28.5q11 16 29.5 47.5t29.5 46.5zM279 522q34 7 64 21t46 24t45 31
q85 61 111.5 141t5.5 187q-8 38 -47 35q-55 -87 -92 -156t-55.5 -109.5t-24.5 -50.5q-9 -21 -20 -43t-19 -40t-14 -40zM649 1139l-2 -15q-2 0 -23.5 -4.5t-35.5 -3.5q-99 3 -203 80q-24 19 -71 56.5t-70 56.5q75 100 180 57q26 -9 55 -51q25 -24 53.5 -53.5t63 -66
t53.5 -56.5z" />
    <glyph glyph-name="eacute" unicode="&#xe9;" horiz-adv-x="843" 
d="M811 475l25 31q19 -57 -19 -109q-56 -86 -131 -160.5t-176 -154.5q-66 -51 -186 -55q-196 -3 -281 202q-86 205 4 392q74 157 154 297q46 81 133 118q55 12 112 14.5t72 -3.5q55 -13 66 -60q3 -13 20 -29.5t23 -25.5q40 -77 -4 -174q-4 -14 -17 -39.5t-41 -65
t-63.5 -74.5t-89.5 -65t-113 -39q-2 0 -18 -4q-51 -82 -74 -201q-12 -91 28 -133.5t127 -30.5q74 11 111 39q4 3 29.5 21t31 22.5t28 21t30.5 22.5t27.5 21.5t29 24t26 23.5t27.5 26t24.5 25.5t25.5 28.5q11 16 29.5 47.5t29.5 46.5zM279 522q34 7 64 21t46 24t45 31
q85 61 111.5 141t5.5 187q-8 38 -47 35q-55 -87 -92 -156t-55.5 -109.5t-24.5 -50.5q-9 -21 -20 -43t-19 -40t-14 -40zM344 1100q-18 34 8 71q10 11 51 60t66 69q22 18 46 34t58.5 37.5t47.5 29.5l53 -25q0 -51 -2 -76q-4 -17 -6.5 -24.5t-11.5 -17t-23 -13.5q-11 0 -27 -20
l-47 -45q-86 -71 -213 -80z" />
    <glyph glyph-name="ecircumflex" unicode="&#xea;" horiz-adv-x="843" 
d="M811 475l25 31q19 -57 -19 -109q-56 -86 -131 -160.5t-176 -154.5q-66 -51 -186 -55q-196 -3 -281 202q-86 205 4 392q74 157 154 297q46 81 133 118q55 12 112 14.5t72 -3.5q55 -13 66 -60q3 -13 20 -29.5t23 -25.5q40 -77 -4 -174q-4 -14 -17 -39.5t-41 -65
t-63.5 -74.5t-89.5 -65t-113 -39q-2 0 -18 -4q-51 -82 -74 -201q-12 -91 28 -133.5t127 -30.5q74 11 111 39q4 3 29.5 21t31 22.5t28 21t30.5 22.5t27.5 21.5t29 24t26 23.5t27.5 26t24.5 25.5t25.5 28.5q11 16 29.5 47.5t29.5 46.5zM279 522q34 7 64 21t46 24t45 31
q85 61 111.5 141t5.5 187q-8 38 -47 35q-55 -87 -92 -156t-55.5 -109.5t-24.5 -50.5q-9 -21 -20 -43t-19 -40t-14 -40zM139 1145q5 9 15 32.5t18 32.5l223 256q25 31 64 4q4 -3 30.5 -19.5t34 -22t28.5 -21t31.5 -26t25.5 -27.5t26 -35q3 -3 13.5 -10t13.5 -13q2 -2 7 -8
t7.5 -8.5t7 -8.5t6.5 -9.5t5.5 -9.5t5 -11t3 -12t1 -13t-1.5 -14t-3 -16q-4 -11 2.5 -49t-8.5 -54q-84 0 -145 43l-180 129q-25 10 -43 -14q-8 -10 -30.5 -29t-31.5 -32q-17 -23 -53 -31.5t-72 -3.5z" />
    <glyph glyph-name="igrave" unicode="&#xec;" horiz-adv-x="675" 
d="M252 967q59 9 77.5 0t43.5 -56q32 -70 26 -120q-6 -66 -51.5 -250.5t-77 -330.5t-14.5 -159q23 -14 39 -4q22 15 51 47.5t68 85.5t61 83.5t64 93t43 63.5q8 12 18 23.5t26 28.5t21 22q41 -10 21 -35q-31 -40 -111 -168t-137 -187l-72 -75q-40 -39 -143.5 -36.5
t-143.5 42.5q-46 46 -55 117q-19 194 51 419q13 43 31.5 124.5t28.5 117.5q8 27 17 48.5t25 49.5t40 43t53 13zM449 1063l-3 -14q-4 0 -24.5 -5t-34.5 -4q-99 3 -203 80q-24 20 -71 57t-70 56q75 100 180 57q27 -9 56 -51q25 -24 53.5 -53.5t63 -66t53.5 -56.5z" />
    <glyph glyph-name="iacute" unicode="&#xed;" horiz-adv-x="675" 
d="M252 967q59 9 77.5 0t43.5 -56q32 -70 26 -120q-6 -66 -51.5 -250.5t-77 -330.5t-14.5 -159q23 -14 39 -4q22 15 51 47.5t68 85.5t61 83.5t64 93t43 63.5q8 12 18 23.5t26 28.5t21 22q41 -10 21 -35q-31 -40 -111 -168t-137 -187l-72 -75q-40 -39 -143.5 -36.5
t-143.5 42.5q-46 46 -55 117q-19 194 51 419q13 43 31.5 124.5t28.5 117.5q8 27 17 48.5t25 49.5t40 43t53 13zM164 1040q-18 35 8 72q10 11 51 60t66 69q22 18 46 34t57.5 36.5t47.5 29.5l54 -24q0 -51 -2 -76q-4 -17 -6.5 -24.5t-11.5 -17t-23 -13.5q-10 0 -27 -21
l-47 -45q-86 -71 -213 -80z" />
    <glyph glyph-name="ograve" unicode="&#xf2;" horiz-adv-x="962" 
d="M408 913q13 3 38 6.5t39 6.5q99 12 168 -107q81 -177 64 -317l-17 -64q9 0 23.5 -1.5t25.5 -1.5t21 3q108 37 123 43q30 13 39 13q4 0 9.5 -2.5t12 -7.5t9.5 -7q0 -11 -50 -43.5t-79 -36.5q-23 -5 -71 -8.5t-65 -5.5q-5 -12 -50 -101t-60 -112q-103 -146 -277 -125
q-109 12 -193.5 94t-105.5 191q-21 87 -6 174q23 137 50 234t77 186q24 42 64 88q26 29 42.5 31.5t51.5 -15.5q33 -18 50.5 -29.5t38.5 -35t28 -50.5zM592 438l-178 189q-8 -19 -23 -58t-18 -45q-63 -155 -70 -172q-45 -105 10 -207q19 -35 41.5 -42t57.5 10q52 23 80 92
q68 156 100 233zM467 889q-3 -16 -11.5 -60t-11.5 -69q-11 -72 21 -117q4 -6 15 -22t19.5 -27t18.5 -21q19 -23 76 -71q39 96 -6 313q-11 39 -42.5 58.5t-78.5 15.5zM561 1120l-2 -14q-2 0 -23.5 -4.5t-35.5 -3.5q-99 3 -203 80q-24 19 -71 55.5t-70 56.5q76 101 180 58
q25 -9 55 -52q25 -24 53.5 -53.5t63 -66t53.5 -56.5z" />
    <glyph glyph-name="oacute" unicode="&#xf3;" horiz-adv-x="962" 
d="M408 913q13 3 38 6.5t39 6.5q99 12 168 -107q81 -177 64 -317l-17 -64q9 0 23.5 -1.5t25.5 -1.5t21 3q108 37 123 43q30 13 39 13q4 0 9.5 -2.5t12 -7.5t9.5 -7q0 -11 -50 -43.5t-79 -36.5q-23 -5 -71 -8.5t-65 -5.5q-5 -12 -50 -101t-60 -112q-103 -146 -277 -125
q-109 12 -193.5 94t-105.5 191q-21 87 -6 174q23 137 50 234t77 186q24 42 64 88q26 29 42.5 31.5t51.5 -15.5q33 -18 50.5 -29.5t38.5 -35t28 -50.5zM592 438l-178 189q-8 -19 -23 -58t-18 -45q-63 -155 -70 -172q-45 -105 10 -207q19 -35 41.5 -42t57.5 10q52 23 80 92
q68 156 100 233zM467 889q-3 -16 -11.5 -60t-11.5 -69q-11 -72 21 -117q4 -6 15 -22t19.5 -27t18.5 -21q19 -23 76 -71q39 96 -6 313q-11 39 -42.5 58.5t-78.5 15.5zM256 1116q-18 35 8 72q10 11 51 60t66 69q22 18 46 34t57.5 36.5t47.5 29.5l54 -24q0 -51 -2 -76
q-4 -17 -6.5 -24.5t-11.5 -17t-23 -13.5q-10 0 -27 -21l-47 -45q-86 -71 -213 -80z" />
    <glyph glyph-name="ocircumflex" unicode="&#xf4;" horiz-adv-x="962" 
d="M408 913q13 3 38 6.5t39 6.5q99 12 168 -107q81 -177 64 -317l-17 -64q9 0 23.5 -1.5t25.5 -1.5t21 3q108 37 123 43q30 13 39 13q4 0 9.5 -2.5t12 -7.5t9.5 -7q0 -11 -50 -43.5t-79 -36.5q-23 -5 -71 -8.5t-65 -5.5q-5 -12 -50 -101t-60 -112q-103 -146 -277 -125
q-109 12 -193.5 94t-105.5 191q-21 87 -6 174q23 137 50 234t77 186q24 42 64 88q26 29 42.5 31.5t51.5 -15.5q33 -18 50.5 -29.5t38.5 -35t28 -50.5zM592 438l-178 189q-8 -19 -23 -58t-18 -45q-63 -155 -70 -172q-45 -105 10 -207q19 -35 41.5 -42t57.5 10q52 23 80 92
q68 156 100 233zM467 889q-3 -16 -11.5 -60t-11.5 -69q-11 -72 21 -117q4 -6 15 -22t19.5 -27t18.5 -21q19 -23 76 -71q39 96 -6 313q-11 39 -42.5 58.5t-78.5 15.5zM154 1102q5 10 14.5 33t17.5 32l224 256q24 31 63 4q4 -3 30.5 -19.5t34 -22t28.5 -21t31.5 -26
t25.5 -27.5t26 -35q3 -3 13.5 -10t13.5 -13q1 -1 10 -11t11 -13t8.5 -12.5t8 -16t4 -16t1.5 -20t-4 -21.5q-4 -11 2.5 -49t-8.5 -54q-85 0 -146 43l-180 129q-25 10 -43 -14q-8 -10 -30 -29t-31 -32q-17 -23 -53 -31.5t-72 -3.5z" />
    <glyph glyph-name="otilde" unicode="&#xf5;" horiz-adv-x="962" 
d="M408 913q13 3 38 6.5t39 6.5q99 12 168 -107q81 -177 64 -317l-17 -64q9 0 23.5 -1.5t25.5 -1.5t21 3q108 37 123 43q30 13 39 13q4 0 9.5 -2.5t12 -7.5t9.5 -7q0 -11 -50 -43.5t-79 -36.5q-23 -5 -71 -8.5t-65 -5.5q-5 -12 -50 -101t-60 -112q-103 -146 -277 -125
q-109 12 -193.5 94t-105.5 191q-21 87 -6 174q23 137 50 234t77 186q24 42 64 88q26 29 42.5 31.5t51.5 -15.5q33 -18 50.5 -29.5t38.5 -35t28 -50.5zM592 438l-178 189q-8 -19 -23 -58t-18 -45q-63 -155 -70 -172q-45 -105 10 -207q19 -35 41.5 -42t57.5 10q52 23 80 92
q68 156 100 233zM467 889q-3 -16 -11.5 -60t-11.5 -69q-11 -72 21 -117q4 -6 15 -22t19.5 -27t18.5 -21q19 -23 76 -71q39 96 -6 313q-11 39 -42.5 58.5t-78.5 15.5zM526 1196q20 18 76 90q20 22 32.5 35t35 30.5t49.5 32.5q45 -15 37 -61q-22 -84 -23 -88q-2 -16 -16 -49
q-33 -99 -148 -96q-83 3 -151 71q-15 14 -39.5 41t-34.5 37q-4 4 -8.5 7.5t-8 5.5t-3.5 1q-49 -49 -93 -84l-84 -65q-46 -34 -61 43q-12 78 53 143q82 71 207 58q53 -6 88 -50q8 -9 22.5 -30.5t22.5 -30.5q23 -23 47 -41z" />
    <glyph glyph-name="ugrave" unicode="&#xf9;" horiz-adv-x="1091" 
d="M772 152q10 -3 20.5 4t24 23.5t14.5 17.5q72 82 152 186q14 17 26 37t26 45t22 39q2 -1 7 -3q67 -24 -60 -204q-21 -27 -59 -83t-60 -83q-48 -54 -119 -39q-167 46 -125 203q3 5 4 18t4 21q-13 23 -43 -4t-55 -66q-29 -37 -47 -67q-58 -71 -179 -117t-210 -12
q-85 42 -103 139q-32 159 31 330q22 63 68.5 177t64.5 163q16 32 59.5 68.5t67.5 25.5q19 -12 58 -28.5t59 -27.5q25 -10 35 -32q10 -30 19 -102.5t9 -92.5q-12 -107 -75 -254q-60 -155 -107 -227q-8 -10 -17 -33t-14 -33q76 18 127 82q49 63 162 228q48 62 132.5 193
t92.5 153q15 35 52 32q6 -1 32 -1t41 -3q18 -4 26 -17.5t3 -27.5q-76 -283 -111 -385q-10 -30 -57 -207q-5 -7 -5 -18.5t7 -17.5zM766 991l-2 -14q-2 0 -23.5 -4.5t-35.5 -3.5q-99 3 -203 80q-23 19 -71 55.5t-71 56.5q76 101 181 58q25 -9 55 -52q25 -24 53.5 -53.5t63 -66
t53.5 -56.5z" />
    <glyph glyph-name="uacute" unicode="&#xfa;" horiz-adv-x="1091" 
d="M772 152q10 -3 20.5 4t24 23.5t14.5 17.5q72 82 152 186q14 17 26 37t26 45t22 39q2 -1 7 -3q67 -24 -60 -204q-21 -27 -59 -83t-60 -83q-48 -54 -119 -39q-167 46 -125 203q3 5 4 18t4 21q-13 23 -43 -4t-55 -66q-29 -37 -47 -67q-58 -71 -179 -117t-210 -12
q-85 42 -103 139q-32 159 31 330q22 63 68.5 177t64.5 163q16 32 59.5 68.5t67.5 25.5q19 -12 58 -28.5t59 -27.5q25 -10 35 -32q10 -30 19 -102.5t9 -92.5q-12 -107 -75 -254q-60 -155 -107 -227q-8 -10 -17 -33t-14 -33q76 18 127 82q49 63 162 228q48 62 132.5 193
t92.5 153q15 35 52 32q6 -1 32 -1t41 -3q18 -4 26 -17.5t3 -27.5q-76 -283 -111 -385q-10 -30 -57 -207q-5 -7 -5 -18.5t7 -17.5zM563 952q-18 35 8 72q10 11 51 60t66 69q22 17 46.5 33.5t57.5 36.5t48 30l53 -24q0 -51 -2 -76q-4 -17 -6.5 -24.5t-11.5 -17t-23 -13.5
q-10 0 -27 -21l-47 -45q-86 -71 -213 -80z" />
    <glyph glyph-name="yacute" unicode="&#xfd;" horiz-adv-x="1404" 
d="M696 186q-16 -6 -51 -16t-53 -18q-22 -3 -35 -11q-58 -23 -125 -27.5t-133.5 11t-123.5 47.5t-99 87t-56 124q-40 185 7 369q14 55 33 113t45 130t38 109q6 16 16 26.5t26.5 22t23.5 18.5q44 38 90 23q9 -2 46 -7t56 -13q36 -13 47.5 -33.5t6.5 -59.5q-2 -13 -5.5 -44
t-7.5 -48q-12 -34 -48 -338t-36 -360q-3 -48 25 -76q18 1 37 9t29 15t32 23q44 29 80.5 61.5t59 59.5t41.5 58.5t27.5 51.5t19 45t14.5 33q74 152 108 215q12 20 58.5 34.5t71.5 6.5q16 -8 30 -32q9 -21 13 -62q20 -170 20 -186l-16 -225q21 15 70 44.5t73 47.5
q77 64 203 88q15 1 23 2t14 -5t7.5 -9.5t4.5 -12.5q0 -6 -25.5 -26.5t-34.5 -20.5q-27 -3 -115 -56t-120 -81q-43 -33 -119 -109q-5 -6 -10 -28l-66 -271q-3 -13 -10.5 -57t-15.5 -66q-7 -20 -11.5 -60t-11.5 -60q-11 -33 -21 -105t-24 -110q-9 -26 -28 -100.5t-37 -112.5
q-28 -57 -111 -152q-14 -14 -59 -14q-76 0 -111 10q-100 29 -164 63q-70 36 -91.5 79.5t-4.5 125.5q3 20 18.5 59t31 73t32 68t18.5 38q136 239 275 364q52 45 78 87t22 100q0 14 3.5 39t4.5 32zM668 -129q-108 -105 -185 -238q-6 -10 -28 -51t-51 -101.5t-39 -92.5
q-4 -11 -6.5 -23t-4 -26t-2 -23l-1.5 -27t-1 -24q-6 -47 31 -62q42 -19 72 19q4 5 14 16t15.5 20t9.5 19q84 217 129 358q11 34 19 73t15.5 87.5t12.5 75.5zM614 1182q-17 33 9 71q11 12 51 60.5t65 68.5q22 18 46 34t58.5 37.5t47.5 29.5l53 -25q0 -51 -2 -76
q-4 -17 -6.5 -24.5t-11.5 -17t-23 -13.5q-11 0 -27 -20l-47 -45q-86 -71 -213 -80z" />
    <glyph glyph-name="Abreve" unicode="&#x102;" horiz-adv-x="1366" 
d="M1202 313q86 233 103 322q3 20 19 27t29.5 -3t10.5 -30v-2q-8 -62 -72 -229t-145 -267q-40 -60 -101 -53.5t-120.5 49.5t-94.5 98q-108 165 -165 334q-3 8 -11 19q-20 -10 -85 -30t-91 -20h-36.5t-24 -3t-16 -4.5t-10 -10.5t-8 -15t-8 -24.5t-11.5 -32.5
q-39 -86 -78.5 -157.5t-60 -101.5t-51.5 -69t-32 -40q-10 -13 -28 -27q-17 -13 -35.5 -9t-24.5 23q-9 26 -20 68q-56 208 -19 412q76 404 121 618q19 83 78 291q5 20 29.5 57t34.5 37q36 4 59 -6q80 -33 134 -76.5t83 -111.5q14 -31 36 -91.5t30 -80.5l90 -218
q2 -4 21 -47.5t37.5 -84.5t21.5 -44q1 -2 77.5 -170.5t142 -300t83.5 -137.5q9 -4 24.5 14t38.5 54q2 3 19.5 30t25.5 43zM426 1053q-3 -61 -7 -181.5t-7 -181.5q0 -15 9 -26t25 -11q17 -3 50.5 -5t50.5 -5q23 -2 35 15.5t2 37.5q-18 37 -66 165.5t-92 191.5zM631 1923
q3 -29 -2 -59q-12 -51 -96 -134.5t-150 -111.5q-14 -8 -50 -11t-86 3.5t-105 42t-93 96.5q-21 51 49 115q72 66 99 8q67 -131 163 -131q97 -6 240 196q7 12 18.5 7.5t12.5 -21.5z" />
    <glyph glyph-name="abreve" unicode="&#x103;" horiz-adv-x="1050" 
d="M702 956q-1 -12 -0.5 -20t0 -15.5t-3.5 -13.5q-18 -56 -24 -114.5t-6.5 -147t-1.5 -117.5q0 -11 -2 -93t-1.5 -133t9 -117t26.5 -97q40 -52 90 -8q111 99 158 239q11 37 53 166q50 0 50 -28q1 -11 -3.5 -38t-3.5 -40q-8 -19 -19 -57.5t-17 -55.5q-48 -107 -78 -149
q-4 -4 -13.5 -15t-12.5 -14l-11 -11t-11.5 -11t-10.5 -8.5t-12 -8.5t-12.5 -6t-15.5 -6q-65 -24 -116.5 -19.5t-110.5 41.5q-38 21 -76 75.5t-61 144.5q-64 -64 -107 -91q-44 -36 -99 -42t-103.5 14t-87 62t-52.5 97q-16 61 -16 113q1 109 43.5 205.5t120.5 200.5
q32 41 123 163q29 43 78 33q33 -7 99 -17.5t99 -17.5q27 -6 74.5 -22t64.5 -21zM567 862q-77 -44 -125 -112q-23 -29 -131 -250t-114 -252q-5 -37 8 -55q5 -6 22 -6t27 6q65 45 90 81q66 100 107.5 186.5t60.5 182.5q17 86 55 219zM768 1495q3 -29 -2 -59
q-12 -51 -96 -134.5t-150 -111.5q-14 -8 -50 -11t-86 3.5t-105 42t-93 96.5q-21 50 50 115q72 65 98 8q67 -131 164 -131q32 -2 66.5 16t67.5 52t56 62.5t49 65.5q7 12 18.5 7.5t12.5 -21.5z" />
    <glyph glyph-name="Dcroat" unicode="&#x110;" horiz-adv-x="1200" 
d="M651 356q-77 -66 -129 -153q-20 -33 -30 -78q-2 -26 14 -72q11 -32 49 -16q43 20 73 63t34 101q0 6 2 34t2 40.5t-3.5 36t-11.5 44.5zM-94 725l137 4l-4 76q-7 148 -21 360l-18 277q7 0 43.5 0.5t40.5 -4.5q34 -12 137 -62q25 -12 37.5 -32t14 -37.5t6 -36t14.5 -27.5
q4 3 13 6t13 6q138 90 306 41q8 -3 26 -5.5t27 -6.5q48 -16 87.5 -64t64 -109.5t42 -131t24 -131.5t6.5 -108t-7 -62q75 19 191 7t112 -48q-1 -1 -13.5 -2t-26 -2t-15.5 -2q-49 -6 -146 -10q-59 -4 -80.5 -27.5t-29.5 -85.5q-12 -87 -37 -166t-51.5 -131t-57.5 -97
t-50.5 -66t-35.5 -34q-54 -49 -135 -20q-64 21 -86 98q-27 103 29 193q1 3 48 56t91.5 117t44.5 101q-3 73 -17 158.5t-27.5 140.5t-39.5 152l-28 120q-2 5 -6 21.5t-7.5 26.5t-9.5 22t-13 17t-16 2q-45 -30 -77.5 -99.5t-43 -124t-10.5 -84.5q0 -38 2 -77l4 -113
q25 -2 80 -10q79 -14 170 -52v-14q-30 -13 -37 -14q-132 -21 -155 -27q-27 -9 -54 -12q3 -34 3 -68q2 -76 5 -162.5t5 -138.5t2 -55l16 -156q3 -44 -41 -65q-84 -46 -155 -39q-85 9 -93 84q-10 73 -22 215q-12 124 -16 190q-9 83 -15 172q-6 0 -8 2q-4 2 -14 2
q-87 0 -113.5 32.5t-9.5 119.5z" />
    <glyph glyph-name="dslash" unicode="&#x111;" horiz-adv-x="1406" 
d="M178 463q74 0 127 24t85 67.5t53 88t47.5 101t52.5 90.5q-60 36 -117 31.5t-108 -31.5t-89 -75t-60 -99.5t-20.5 -105t29.5 -91.5zM1047 1221l-7 -17l-45 -141q-15 -55 -118.5 -332t-143.5 -358q-128 -271 -84 -436q21 -76 92 -46q83 40 127 78q95 77 183 168
q17 18 35.5 40.5t39.5 50.5t33 42q14 19 43.5 58t52 67t45.5 54q8 10 25.5 27t30.5 34q8 -9 23.5 -19t27.5 -22q-15 -21 -52.5 -75t-65.5 -92.5t-56 -72.5q-169 -190 -244 -260q-61 -59 -115 -96t-120 -53q-120 -31 -244 61q-68 51 -96 133q-54 172 -35 299q12 48 12 49
q-8 -1 -24 -7t-23 -7q-70 -10 -197 25q-134 39 -145 211q-3 85 29 151q83 169 209 256q67 48 151 45q3 0 16 -0.5t17 -1t15.5 -1.5t17 -2.5t14.5 -4t16.5 -6t14.5 -8.5q18 -12 48 -11t40 19q38 67 80 168q-2 2 -11 2q-87 0 -113 32t-9 119l180 7h16l31 77q25 64 63 136
q6 14 31 28q31 22 43 29q83 -25 143 -37q38 -11 48 -21t10 -44q-4 -101 -21 -170l-6 -21q88 -16 164 -49v-14q-34 -15 -37 -15q-14 -2 -48 -6.5t-59 -9t-48 -10.5z" />
    <glyph glyph-name="Itilde" unicode="&#x128;" horiz-adv-x="583" 
d="M446 102q10 -8 22 -10.5t28.5 -3t27.5 -2.5q41 -5 52 -24t-1 -66q-11 -1 -45 -4.5t-53 -3.5q-71 -2 -215 2q-22 0 -45 10q-16 3 -47 7t-47 7q-34 5 -123 9q0 20 7.5 33.5t22.5 19.5t27.5 8.5t33.5 3.5t28 2q-6 80 19.5 562t41.5 548q4 9 4 33q-31 21 -87.5 56t-82.5 52
q42 30 92 17q239 -58 308 -78q14 -4 27 -10.5t30.5 -18.5t24.5 -16q7 -5 11.5 -15t0.5 -14q-10 -19 -27 -22q-18 -4 -80 -4q7 -65 31.5 -478t24.5 -471q0 -39 -11 -129zM422 1516q20 18 76 90q21 23 32.5 35t34 30t49.5 33q46 -15 37 -62q-2 -7 -9 -38.5t-13 -49.5
q-2 -13 -17 -49q-33 -99 -147 -96q-83 3 -152 72q-15 14 -39 41t-34 37q-4 4 -9 7.5t-8.5 5.5t-3.5 1q-53 -53 -92 -84l-84 -66q-47 -35 -59 43q-15 78 51 144q81 70 207 57q54 -6 88 -49q8 -9 22.5 -31t22.5 -31q19 -19 47 -40z" />
    <glyph glyph-name="itilde" unicode="&#x129;" horiz-adv-x="675" 
d="M252 967q59 9 77.5 0t43.5 -56q32 -70 26 -120q-6 -66 -51.5 -250.5t-77 -330.5t-14.5 -159q23 -14 39 -4q22 15 51 47.5t68 85.5t61 83.5t64 93t43 63.5q8 12 18 23.5t26 28.5t21 22q41 -10 21 -35q-31 -40 -111 -168t-137 -187l-72 -75q-40 -39 -143.5 -36.5
t-143.5 42.5q-46 46 -55 117q-19 194 51 419q13 43 31.5 124.5t28.5 117.5q8 27 17 48.5t25 49.5t40 43t53 13zM459 1147q20 18 76 90q21 23 32.5 35t34 30t49.5 33q45 -15 37 -61q-2 -7 -9 -38.5t-13 -49.5q-2 -13 -17 -49q-34 -100 -147 -97q-83 3 -152 72
q-15 14 -39.5 41t-34.5 37q-4 4 -8.5 7.5t-8 5.5t-3.5 1q-53 -53 -92 -84l-84 -65q-47 -35 -62 43q-12 77 54 143q81 70 207 57q54 -6 88 -49q8 -9 22.5 -30.5t22.5 -30.5q23 -23 47 -41z" />
    <glyph glyph-name="Utilde" unicode="&#x168;" horiz-adv-x="907" 
d="M883 784q8 -49 17 -233t5 -246q-2 -69 -45 -178q-6 -16 -19 -38t-39 -52t-58 -54.5t-78.5 -41.5t-96.5 -17q-259 10 -381 185q-8 11 -15 23t-13 22.5t-13 25t-11.5 23t-11.5 25.5t-10 24.5t-10 26t-9 24.5t-9.5 26.5t-9.5 24.5q-16 48 -31.5 142.5t-19.5 111.5
q-28 156 -21 264q0 18 -2 146t-2 141q4 176 27 264q97 13 204 -47q46 -22 56 -88q7 -15 51.5 -89t48.5 -103q38 -338 31 -420q-6 -29 1 -193.5t13 -191.5q7 -34 44 -102t77 -72q32 2 56.5 51.5t36.5 117t18 120t6 79.5q6 62 16 286t10 271q2 48 13 134q6 50 55 59
q26 5 39.5 -3t23.5 -36q13 -54 13 -100q0 -42 17 -158.5t26 -153.5zM616 1573q20 18 76 90q20 22 32.5 35t35 30.5t49.5 32.5q45 -15 37 -61q-22 -83 -23 -88q-2 -16 -16 -49q-34 -100 -148 -97q-82 3 -151 72q-15 14 -39.5 41t-34.5 37q-4 4 -8.5 7.5t-8 5.5t-3.5 1
q-53 -53 -92 -84l-84 -65q-47 -35 -62 43q-12 78 53 143q81 70 207 57q54 -6 88 -49q8 -9 22.5 -30.5t22.5 -30.5q23 -23 47 -41z" />
    <glyph glyph-name="utilde" unicode="&#x169;" horiz-adv-x="1091" 
d="M772 152q10 -3 20.5 4t24 23.5t14.5 17.5q72 82 152 186q14 17 26 37t26 45t22 39q2 -1 7 -3q67 -24 -60 -204q-21 -27 -59 -83t-60 -83q-48 -54 -119 -39q-167 46 -125 203q3 5 4 18t4 21q-13 23 -43 -4t-55 -66q-29 -37 -47 -67q-58 -71 -179 -117t-210 -12
q-85 42 -103 139q-32 159 31 330q22 63 68.5 177t64.5 163q16 32 59.5 68.5t67.5 25.5q19 -12 58 -28.5t59 -27.5q25 -10 35 -32q10 -30 19 -102.5t9 -92.5q-12 -107 -75 -254q-60 -155 -107 -227q-8 -10 -17 -33t-14 -33q76 18 127 82q49 63 162 228q48 62 132.5 193
t92.5 153q15 35 52 32q6 -1 32 -1t41 -3q18 -4 26 -17.5t3 -27.5q-76 -283 -111 -385q-10 -30 -57 -207q-5 -7 -5 -18.5t7 -17.5zM768 1104q20 18 76 90q20 22 32.5 35t35 30.5t49.5 32.5q44 -14 36 -61q-2 -7 -9 -38.5t-13 -49.5q-2 -13 -17 -49q-34 -100 -147 -97
q-83 3 -152 72q-15 14 -39 41t-34 37q-4 4 -9 7.5t-8.5 5.5t-3.5 1q-53 -53 -92 -84l-84 -65q-46 -34 -61 43q-12 78 53 143q81 70 207 57q54 -6 88 -49q8 -9 22.5 -30.5t22.5 -30.5q23 -23 47 -41z" />
    <glyph glyph-name="Ohorn" unicode="&#x1a0;" horiz-adv-x="1273" 
d="M492 903q-26 -56 -45.5 -104t-41 -111t-34.5 -126.5t-21.5 -135.5t-7 -153.5t13.5 -166.5q4 -29 25 -38q65 -38 123 -13q73 36 106 103q35 56 67 200t32 174q-5 33 -15 43q-91 112 -202 328zM719 672q3 0 8 1t8 1q0 24 -4 74q-7 97 -26 227.5t-39 150.5q-36 47 -66 29
q-17 -12 -25 -34.5t-4 -45.5q0 -4 2 -11t2 -11q24 -116 25 -148q7 -116 119 -233zM872 1087l-22 -12q1 -1 2 -4.5t2 -5.5q55 -168 41 -522q53 -22 123 10q15 7 45 21.5t47.5 23t42 22t45.5 27.5q55 36 70 8q11 -17 5 -35t-26 -28q-64 -36 -156 -73.5t-139 -41.5
q-35 -4 -50 -17t-23 -44q-35 -148 -136 -289q-64 -91 -102 -131q-29 -31 -88 -41q-2 0 -8 -1q-322 -44 -469 193q-19 35 -33.5 83t-19.5 75t-15 88q-16 97 -1 195t52 211q44 129 83 220.5t94 174.5q20 30 102 131q7 9 15 16t19 12.5l17 8.5t21 8.5t20 7.5q90 33 227 33
q12 0 35 -10q4 -18 4.5 -37t-2 -33.5t-8.5 -34.5t-11 -32.5t-14.5 -34.5t-13.5 -33h37q44 3 74 -10l12 4q39 12 66.5 41t40.5 59t10 105q-3 31 96 28t96 -59q0 -54 -24 -113q-46 -100 -135 -141z" />
    <glyph glyph-name="ohorn" unicode="&#x1a1;" horiz-adv-x="962" 
d="M592 438l-178 189q-8 -19 -23 -58t-18 -45q-63 -155 -70 -172q-45 -105 10 -207q19 -35 41.5 -42t57.5 10q52 23 80 92q68 156 100 233zM467 889q-3 -16 -11.5 -60t-11.5 -69q-11 -72 21 -117q4 -6 15 -22t19.5 -27t18.5 -21q19 -23 76 -71q39 96 -6 313
q-11 39 -42.5 58.5t-78.5 15.5zM719 700l-19 -8q13 -60 17 -90q6 -51 0 -100l-17 -64q9 0 23.5 -1.5t25.5 -1.5t21 3q108 37 123 43q30 13 39 13q4 0 9.5 -2.5t12 -7.5t9.5 -7q0 -11 -50 -43.5t-79 -36.5q-23 -5 -71 -8.5t-65 -5.5q-5 -12 -50 -101t-60 -112
q-103 -146 -277 -125q-109 12 -193.5 94t-105.5 191q-21 87 -6 174q23 137 50 234t77 186q24 42 64 88q26 29 42.5 31.5t51.5 -15.5q33 -18 50.5 -29.5t38.5 -35t28 -50.5q13 3 38 6.5t39 6.5q61 9 103 -27q42 -39 65 -78l15 4q39 12 66 41.5t40 59.5t10 104q-3 32 97 29
q99 -3 96 -60q0 -51 -25 -112q-47 -102 -135 -142q-12 -6 -30.5 -15t-34.5 -16.5t-33 -13.5z" />
    <glyph glyph-name="Uhorn" unicode="&#x1af;" horiz-adv-x="907" 
d="M860 1092l-20 -9l6 -55q28 -209 37 -244q8 -49 17 -233t5 -246q-2 -69 -45 -178q-6 -16 -19 -38t-39 -52t-58 -54.5t-78.5 -41.5t-96.5 -17q-259 10 -381 185q-8 11 -15 23t-13 22.5t-13 25t-11.5 23t-11.5 25.5t-10 24.5t-10 26t-9 24.5t-9.5 26.5t-9.5 24.5
q-16 48 -31.5 142.5t-19.5 111.5q-28 156 -21 264q0 18 -2 146t-2 141q4 176 27 264q97 13 204 -47q46 -22 56 -88q7 -15 51.5 -89t48.5 -103q38 -338 31 -420q-6 -29 1 -193.5t13 -191.5q7 -34 44 -102t77 -72q32 2 56.5 51.5t36.5 117t18 120t6 79.5q6 62 16 286t10 271
q2 48 13 134q6 50 55 59q26 3 39 -2q6 -2 14 -14q37 15 62 43q26 29 36 55q14 32 11 104q-3 32 96 29t96 -59q0 -55 -24 -113q-46 -100 -136 -141q-12 -6 -30.5 -15t-34.5 -16.5t-33 -13.5z" />
    <glyph glyph-name="uhorn" unicode="&#x1b0;" horiz-adv-x="1091" 
d="M915 698q-52 -194 -88 -303q-10 -30 -57 -207q-5 -7 -5 -18.5t7 -17.5q10 -3 20.5 4t24 23.5t14.5 17.5q72 82 152 186q14 17 26 37t26 45t22 39q2 -1 7 -3q67 -24 -60 -204q-21 -27 -59 -83t-60 -83q-48 -54 -119 -39q-167 46 -125 203q3 5 4 18t4 21q-13 23 -43 -4
t-55 -66q-29 -37 -47 -67q-58 -71 -179 -117t-210 -12q-85 42 -103 139q-32 159 31 330q22 63 68.5 177t64.5 163q16 32 59.5 68.5t67.5 25.5q19 -12 58 -28.5t59 -27.5q25 -10 35 -32q10 -30 19 -102.5t9 -92.5q-12 -107 -75 -254q-60 -155 -107 -227q-8 -10 -17 -33
t-14 -33q76 18 127 82q49 63 162 228q48 62 132.5 193t92.5 153q15 35 52 32q18 -3 36 0h2q40 16 62 41q27 30 37 56q13 30 10 104q-3 32 96 29q100 -3 97 -60q0 -51 -25 -112q-47 -102 -135 -142q-12 -6 -30.5 -15t-34.5 -16.5t-33 -13.5z" />
    <glyph glyph-name="circumflex" unicode="&#x2c6;" 
d="M190 1145q5 9 15 32.5t18 32.5l223 256q25 31 64 4q4 -3 30.5 -19.5t34 -22t28.5 -21t31.5 -26t25.5 -27.5t26 -35q3 -3 13.5 -10t13.5 -13q1 -1 10 -11t11 -13t8.5 -12.5t8 -16t4 -16t1.5 -20t-4 -21.5q-4 -11 2 -49t-9 -54q-84 0 -145 43l-180 129q-25 10 -43 -14
q-8 -10 -30.5 -29t-31.5 -32q-17 -23 -53 -31.5t-72 -3.5z" />
    <glyph glyph-name="breve" unicode="&#x2d8;" 
d="M541 1495q3 -29 -2 -59q-12 -51 -96 -134.5t-150 -111.5q-14 -8 -50 -11t-86 3.5t-105 42t-93 96.5q-21 51 49 115q72 65 98 8q67 -131 164 -131q97 -6 240 196q7 12 18.5 7.5t12.5 -21.5z" />
    <glyph glyph-name="tilde" unicode="&#x2dc;" horiz-adv-x="1599" 
d="M889 1284q20 18 76 90q22 25 32.5 36t33.5 30t50 33q46 -15 37 -62q-2 -7 -9 -38.5t-13 -49.5q-2 -13 -17 -49q-33 -99 -147 -96q-84 3 -152 71q-15 14 -39 41t-34 37q-4 4 -9 7.5t-8.5 5.5t-3.5 1q-53 -53 -92 -84l-84 -65q-46 -34 -61 43q-12 78 53 143q82 71 207 58
q53 -6 88 -50q8 -9 22.5 -30.5t22.5 -30.5q23 -23 47 -41z" />
    <glyph glyph-name="gravecomb" unicode="&#x300;" 
d="M-375 1198l-2 -14q-2 0 -23.5 -4.5t-35.5 -3.5q-101 3 -203 79q-24 19 -71 56.5t-70 56.5q75 100 180 57q26 -9 55 -51q25 -24 53.5 -53.5t63 -66t53.5 -56.5z" />
    <glyph glyph-name="acutecomb" unicode="&#x301;" 
d="M-659 1182q-18 34 8 71q11 12 51 60.5t65 68.5q22 18 46 34t58.5 37.5t47.5 29.5l53 -25q0 -51 -2 -76q-4 -17 -6.5 -24.5t-11.5 -17t-23 -13.5q-10 0 -26 -20l-47 -45q-86 -71 -213 -80z" />
    <glyph glyph-name="tildecomb" unicode="&#x303;" 
d="M-274 1284q7 6 19 20.5t29 35t29 34.5q48 63 115 99q46 -15 37 -62q-22 -84 -23 -88q-2 -16 -16 -49q-33 -99 -147 -96q-84 3 -152 71q-15 14 -39.5 41t-34.5 37q-4 4 -8.5 7.5t-8 5.5t-3.5 1q-53 -53 -92 -84l-82 -65q-50 -35 -62 43q-15 77 51 143q82 71 207 58
q53 -6 88 -50q8 -9 22.5 -30.5t22.5 -30.5q20 -20 48 -41z" />
    <glyph glyph-name="hookabovecomb" unicode="&#x309;" horiz-adv-x="1564" 
d="M731 1153q-25 5 -40 26t-11 46q3 17 13 28.5t32.5 27t32.5 24.5q26 20 39 53q5 32 4 35q-9 27 -39 39q-12 0 -17 -7q-13 -10 -10 -20q26 -69 -41 -102q-25 -11 -48.5 -2.5t-33.5 34.5l-6 15q-13 55 8 84q6 24 18 42t31 30t32 18t36 14q7 7 23 4q8 -3 24 -8t29 -10.5
t24 -12.5q39 -23 68 -63q33 -50 16 -94q-22 -63 -59 -109q-27 -31 -59 -41l-19 -12q-18 -49 -47 -39z" />
    <glyph glyph-name="uni031B" unicode="&#x31b;" 
d="M1094 1278q-46 -100 -136 -141l-36 -18t-37.5 -18.5t-40 -15.5t-56.5 -16q-20 -4 -27.5 11.5t-2.5 52.5q12 72 26 75q6 1 16 5l9 4q39 12 66 41t40 59q14 32 11 104q-3 32 96 29t96 -59q0 -55 -24 -113z" />
    <glyph glyph-name="dotbelowcomb" unicode="&#x323;" 
d="M-440 -350q-24 0 -52 27q-40 36 -59 110q-15 58 33 94q62 44 174 76q37 10 61 -10t29 -62q0 -28 -4 -106q-3 -46 -37 -76l-4 -4q-19 -44 -49 -52t-92 3z" />
    <glyph glyph-name="uni1EA0" unicode="&#x1ea0;" horiz-adv-x="1366" 
d="M1202 313q86 233 103 322q3 20 19 27t29.5 -3t10.5 -30v-2q-8 -62 -72 -229t-145 -267q-40 -60 -101 -53.5t-120.5 49.5t-94.5 98q-108 165 -165 334q-3 8 -11 19q-20 -10 -85 -30t-91 -20h-36.5t-24 -3t-16 -4.5t-10 -10.5t-8 -15t-8 -24.5t-11.5 -32.5
q-39 -86 -78.5 -157.5t-60 -101.5t-51.5 -69t-32 -40q-10 -13 -28 -27q-17 -13 -35.5 -9t-24.5 23q-9 26 -20 68q-56 208 -19 412q76 404 121 618q19 83 78 291q5 20 29.5 57t34.5 37q36 4 59 -6q80 -33 134 -76.5t83 -111.5q14 -31 36 -91.5t30 -80.5l90 -218
q2 -4 21 -47.5t37.5 -84.5t21.5 -44q1 -2 77.5 -170.5t142 -300t83.5 -137.5q9 -4 24.5 14t38.5 54q2 3 19.5 30t25.5 43zM426 1053q-3 -61 -7 -181.5t-7 -181.5q0 -15 9 -26t25 -11q17 -3 50.5 -5t50.5 -5q23 -2 35 15.5t2 37.5q-18 37 -66 165.5t-92 191.5zM530 -350
q-23 0 -52 27q-39 36 -58 110q-15 58 33 94q62 44 174 76q37 10 61 -10t29 -62q0 -28 -4 -106q-3 -46 -37 -76l-4 -4q-19 -44 -49.5 -52t-92.5 3z" />
    <glyph glyph-name="uni1EA1" unicode="&#x1ea1;" horiz-adv-x="1050" 
d="M702 956q-1 -12 -0.5 -20t0 -15.5t-3.5 -13.5q-18 -56 -24 -114.5t-6.5 -147t-1.5 -117.5q0 -11 -2 -93t-1.5 -133t9 -117t26.5 -97q40 -52 90 -8q111 99 158 239q11 37 53 166q50 0 50 -28q1 -11 -3.5 -38t-3.5 -40q-8 -19 -19 -57.5t-17 -55.5q-48 -107 -78 -149
q-4 -4 -13.5 -15t-12.5 -14l-11 -11t-11.5 -11t-10.5 -8.5t-12 -8.5t-12.5 -6t-15.5 -6q-65 -24 -116.5 -19.5t-110.5 41.5q-38 21 -76 75.5t-61 144.5q-64 -64 -107 -91q-44 -36 -99 -42t-103.5 14t-87 62t-52.5 97q-16 61 -16 113q1 109 43.5 205.5t120.5 200.5
q32 41 123 163q29 43 78 33q33 -7 99 -17.5t99 -17.5q27 -6 74.5 -22t64.5 -21zM567 862q-77 -44 -125 -112q-23 -29 -131 -250t-114 -252q-5 -37 8 -55q5 -6 22 -6t27 6q65 45 90 81q66 100 107.5 186.5t60.5 182.5q17 86 55 219zM197 -250q-24 0 -52 27q-40 36 -59 110
q-15 59 33 95q60 42 174 75q38 10 61.5 -9.5t28.5 -61.5q0 -29 -4 -107q-3 -46 -37 -76l-4 -4q-19 -44 -49 -52t-92 3z" />
    <glyph glyph-name="uni1EA2" unicode="&#x1ea2;" horiz-adv-x="1366" 
d="M1202 313q86 233 103 322q3 20 19 27t29.5 -3t10.5 -30v-2q-8 -62 -72 -229t-145 -267q-40 -60 -101 -53.5t-120.5 49.5t-94.5 98q-108 165 -165 334q-3 8 -11 19q-20 -10 -85 -30t-91 -20h-36.5t-24 -3t-16 -4.5t-10 -10.5t-8 -15t-8 -24.5t-11.5 -32.5
q-39 -86 -78.5 -157.5t-60 -101.5t-51.5 -69t-32 -40q-10 -13 -28 -27q-17 -13 -35.5 -9t-24.5 23q-9 26 -20 68q-56 208 -19 412q76 404 121 618q19 83 78 291q5 20 29.5 57t34.5 37q36 4 59 -6q80 -33 134 -76.5t83 -111.5q14 -31 36 -91.5t30 -80.5l90 -218
q2 -4 21 -47.5t37.5 -84.5t21.5 -44q1 -2 77.5 -170.5t142 -300t83.5 -137.5q9 -4 24.5 14t38.5 54q2 3 19.5 30t25.5 43zM426 1053q-3 -61 -7 -181.5t-7 -181.5q0 -15 9 -26t25 -11q17 -3 50.5 -5t50.5 -5q23 -2 35 15.5t2 37.5q-18 37 -66 165.5t-92 191.5zM307 1593
q-25 5 -40 26t-11 46q3 17 13 28.5t32.5 27t32.5 24.5q26 20 39 53q5 32 4 35q-9 27 -39 39q-12 0 -16 -6q-14 -11 -11 -21q26 -69 -41 -102q-25 -11 -48.5 -2t-33.5 35l-6 14q-13 55 8 84q6 24 18 42t31 30t32 18t36 14q7 7 23 4q3 -1 33 -10.5t45 -19.5q36 -22 67 -64
q34 -51 17 -94q-20 -59 -60 -108q-27 -31 -59 -41l-19 -13q-18 -49 -47 -39z" />
    <glyph glyph-name="uni1EA3" unicode="&#x1ea3;" horiz-adv-x="1050" 
d="M702 956q-1 -12 -0.5 -20t0 -15.5t-3.5 -13.5q-18 -56 -24 -114.5t-6.5 -147t-1.5 -117.5q0 -11 -2 -93t-1.5 -133t9 -117t26.5 -97q40 -52 90 -8q111 99 158 239q11 37 53 166q50 0 50 -28q1 -11 -3.5 -38t-3.5 -40q-8 -19 -19 -57.5t-17 -55.5q-48 -107 -78 -149
q-4 -4 -13.5 -15t-12.5 -14l-11 -11t-11.5 -11t-10.5 -8.5t-12 -8.5t-12.5 -6t-15.5 -6q-65 -24 -116.5 -19.5t-110.5 41.5q-38 21 -76 75.5t-61 144.5q-64 -64 -107 -91q-44 -36 -99 -42t-103.5 14t-87 62t-52.5 97q-16 61 -16 113q1 109 43.5 205.5t120.5 200.5
q32 41 123 163q29 43 78 33q33 -7 99 -17.5t99 -17.5q27 -6 74.5 -22t64.5 -21zM567 862q-77 -44 -125 -112q-23 -29 -131 -250t-114 -252q-5 -37 8 -55q5 -6 22 -6t27 6q65 45 90 81q66 100 107.5 186.5t60.5 182.5q17 86 55 219zM487 1100q-25 5 -40 25.5t-11 45.5
q3 17 13 28.5t32.5 27t32.5 24.5q25 20 39 54q5 32 4 34q-9 27 -39 39q-12 0 -16 -6q-12 -10 -10 -20q27 -70 -41 -103q-25 -11 -48.5 -2t-33.5 35l-7 14q-13 53 9 84q7 32 28.5 54.5t39.5 31t48 19.5q7 7 23 4l32 -11q31 -10 46 -20q38 -22 67 -63q34 -52 17 -95
q-20 -59 -60 -108q-27 -31 -59 -41l-18 -12q-18 -49 -48 -39z" />
    <glyph glyph-name="uni1EA4" unicode="&#x1ea4;" horiz-adv-x="1366" 
d="M1202 313q86 233 103 322q3 20 19 27t29.5 -3t10.5 -30v-2q-8 -62 -72 -229t-145 -267q-40 -60 -101 -53.5t-120.5 49.5t-94.5 98q-108 165 -165 334q-3 8 -11 19q-20 -10 -85 -30t-91 -20h-36.5t-24 -3t-16 -4.5t-10 -10.5t-8 -15t-8 -24.5t-11.5 -32.5
q-39 -86 -78.5 -157.5t-60 -101.5t-51.5 -69t-32 -40q-10 -13 -28 -27q-17 -13 -35.5 -9t-24.5 23q-9 26 -20 68q-56 208 -19 412q76 404 121 618q19 83 78 291q5 20 29.5 57t34.5 37q36 4 59 -6q80 -33 134 -76.5t83 -111.5q14 -31 36 -91.5t30 -80.5l90 -218
q2 -4 21 -47.5t37.5 -84.5t21.5 -44q1 -2 77.5 -170.5t142 -300t83.5 -137.5q9 -4 24.5 14t38.5 54q2 3 19.5 30t25.5 43zM426 1053q-3 -61 -7 -181.5t-7 -181.5q0 -15 9 -26t25 -11q17 -3 50.5 -5t50.5 -5q23 -2 35 15.5t2 37.5q-18 37 -66 165.5t-92 191.5zM86 1575
q5 9 15 32.5t18 32.5l223 256q25 32 64 5q5 -3 26.5 -17t28.5 -18.5t25 -17.5t27.5 -21.5t23.5 -21.5t24.5 -27t20.5 -29q2 -2 12.5 -9.5t13.5 -13.5q1 -1 10 -11t11 -13t8.5 -12.5t8 -16t4 -16t1.5 -20t-4 -21.5q-4 -11 2.5 -49t-8.5 -54q-84 0 -145 43l-181 130
q-25 9 -43 -15q-8 -10 -30 -29t-31 -32q-17 -23 -53 -31.5t-72 -3.5zM651 1772q-18 34 8 71q10 11 51 60t66 69q22 18 46 34t58.5 37.5t47.5 29.5l53 -25q0 -51 -2 -76q-4 -17 -6.5 -24.5t-11.5 -17t-23 -13.5q-10 0 -27 -21l-47 -45q-85 -70 -213 -79z" />
    <glyph glyph-name="uni1EA5" unicode="&#x1ea5;" horiz-adv-x="1050" 
d="M702 956q-1 -12 -0.5 -20t0 -15.5t-3.5 -13.5q-18 -56 -24 -114.5t-6.5 -147t-1.5 -117.5q0 -11 -2 -93t-1.5 -133t9 -117t26.5 -97q40 -52 90 -8q111 99 158 239q11 37 53 166q50 0 50 -28q1 -11 -3.5 -38t-3.5 -40q-8 -19 -19 -57.5t-17 -55.5q-48 -107 -78 -149
q-4 -4 -13.5 -15t-12.5 -14l-11 -11t-11.5 -11t-10.5 -8.5t-12 -8.5t-12.5 -6t-15.5 -6q-65 -24 -116.5 -19.5t-110.5 41.5q-38 21 -76 75.5t-61 144.5q-64 -64 -107 -91q-44 -36 -99 -42t-103.5 14t-87 62t-52.5 97q-16 61 -16 113q1 109 43.5 205.5t120.5 200.5
q32 41 123 163q29 43 78 33q33 -7 99 -17.5t99 -17.5q27 -6 74.5 -22t64.5 -21zM567 862q-77 -44 -125 -112q-23 -29 -131 -250t-114 -252q-5 -37 8 -55q5 -6 22 -6t27 6q65 45 90 81q66 100 107.5 186.5t60.5 182.5q17 86 55 219zM227 1102q5 9 15 32.5t18 32.5l223 256
q25 31 64 4q4 -3 30.5 -19.5t34 -22t28.5 -21t31.5 -26t25.5 -27.5t26 -35q3 -3 13.5 -10t13.5 -13q2 -2 7 -8t7.5 -8.5t7 -8.5t6.5 -9.5t5.5 -9.5t5 -11t3 -12t1 -13t-1.5 -14t-3 -16q-4 -11 2.5 -49t-8.5 -54q-84 0 -145 43l-180 129q-25 10 -43 -14q-8 -10 -30.5 -29
t-31.5 -32q-17 -23 -53 -31.5t-72 -3.5zM764 1366q-18 35 8 72q10 11 51 60t66 69q22 18 46 34t57.5 36.5t47.5 29.5l54 -25q0 -50 -2 -75q-3 -14 -4.5 -19t-6 -14.5t-12 -14.5t-18.5 -8q-11 0 -27 -20l-47 -45q-86 -71 -213 -80z" />
    <glyph glyph-name="uni1EA6" unicode="&#x1ea6;" horiz-adv-x="1366" 
d="M1202 313q86 233 103 322q3 20 19 27t29.5 -3t10.5 -30v-2q-8 -62 -72 -229t-145 -267q-40 -60 -101 -53.5t-120.5 49.5t-94.5 98q-108 165 -165 334q-3 8 -11 19q-20 -10 -85 -30t-91 -20h-36.5t-24 -3t-16 -4.5t-10 -10.5t-8 -15t-8 -24.5t-11.5 -32.5
q-39 -86 -78.5 -157.5t-60 -101.5t-51.5 -69t-32 -40q-10 -13 -28 -27q-17 -13 -35.5 -9t-24.5 23q-9 26 -20 68q-56 208 -19 412q76 404 121 618q19 83 78 291q5 20 29.5 57t34.5 37q36 4 59 -6q80 -33 134 -76.5t83 -111.5q14 -31 36 -91.5t30 -80.5l90 -218
q2 -4 21 -47.5t37.5 -84.5t21.5 -44q1 -2 77.5 -170.5t142 -300t83.5 -137.5q9 -4 24.5 14t38.5 54q2 3 19.5 30t25.5 43zM426 1053q-3 -61 -7 -181.5t-7 -181.5q0 -15 9 -26t25 -11q17 -3 50.5 -5t50.5 -5q23 -2 35 15.5t2 37.5q-18 37 -66 165.5t-92 191.5zM88 1577
q5 9 15 32.5t18 32.5l223 256q25 32 64 5q5 -3 26.5 -17t28.5 -18.5t25 -17.5t27.5 -21.5t23.5 -21.5t24.5 -27t20.5 -29q3 -3 13 -9.5t13 -12.5q1 -2 8.5 -10t9.5 -11t8 -11.5t8 -13t5.5 -13t3.5 -16t-0.5 -17t-3.5 -19.5q-4 -11 2.5 -48.5t-8.5 -53.5q-84 0 -145 43
l-181 129q-25 9 -43 -15q-8 -10 -30 -29t-31 -32q-17 -23 -53 -31.5t-72 -3.5zM178 1790l-2 -14q-4 0 -24.5 -5t-34.5 -4q-99 3 -203 80q-23 19 -70 56.5t-71 56.5q75 100 180 57q26 -9 55 -51q25 -24 53.5 -53.5t63 -66t53.5 -56.5z" />
    <glyph glyph-name="uni1EA7" unicode="&#x1ea7;" horiz-adv-x="1050" 
d="M702 956q-1 -12 -0.5 -20t0 -15.5t-3.5 -13.5q-18 -56 -24 -114.5t-6.5 -147t-1.5 -117.5q0 -11 -2 -93t-1.5 -133t9 -117t26.5 -97q40 -52 90 -8q111 99 158 239q11 37 53 166q50 0 50 -28q1 -11 -3.5 -38t-3.5 -40q-8 -19 -19 -57.5t-17 -55.5q-48 -107 -78 -149
q-4 -4 -13.5 -15t-12.5 -14l-11 -11t-11.5 -11t-10.5 -8.5t-12 -8.5t-12.5 -6t-15.5 -6q-65 -24 -116.5 -19.5t-110.5 41.5q-38 21 -76 75.5t-61 144.5q-64 -64 -107 -91q-44 -36 -99 -42t-103.5 14t-87 62t-52.5 97q-16 61 -16 113q1 109 43.5 205.5t120.5 200.5
q32 41 123 163q29 43 78 33q33 -7 99 -17.5t99 -17.5q27 -6 74.5 -22t64.5 -21zM567 862q-77 -44 -125 -112q-23 -29 -131 -250t-114 -252q-5 -37 8 -55q5 -6 22 -6t27 6q65 45 90 81q66 100 107.5 186.5t60.5 182.5q17 86 55 219zM229 1106q5 9 15 32.5t18 32.5l223 256
q25 32 64 5q5 -3 26.5 -17t28.5 -18.5t25 -17.5t27.5 -21.5t23.5 -21.5t24.5 -27t20.5 -29q3 -3 13.5 -10t13.5 -13q1 -1 10 -11t11 -13t8.5 -12.5t8 -16t4 -16t1.5 -20t-4 -21.5q-4 -11 2 -49t-9 -54q-84 0 -145 43l-180 130q-25 9 -43 -15q-8 -10 -30.5 -29t-31.5 -32
q-17 -23 -53 -31.5t-72 -3.5zM375 1399l-2 -15q-2 0 -24 -4.5t-36 -3.5q-98 3 -202 80q-24 20 -71 56.5t-71 56.5q76 101 181 57q26 -9 55 -51q25 -24 53.5 -53.5t63 -66t53.5 -56.5z" />
    <glyph glyph-name="uni1EA8" unicode="&#x1ea8;" horiz-adv-x="1366" 
d="M1202 313q86 233 103 322q3 20 19 27t29.5 -3t10.5 -30v-2q-8 -62 -72 -229t-145 -267q-40 -60 -101 -53.5t-120.5 49.5t-94.5 98q-108 165 -165 334q-3 8 -11 19q-20 -10 -85 -30t-91 -20h-36.5t-24 -3t-16 -4.5t-10 -10.5t-8 -15t-8 -24.5t-11.5 -32.5
q-39 -86 -78.5 -157.5t-60 -101.5t-51.5 -69t-32 -40q-10 -13 -28 -27q-17 -13 -35.5 -9t-24.5 23q-9 26 -20 68q-56 208 -19 412q76 404 121 618q19 83 78 291q5 20 29.5 57t34.5 37q36 4 59 -6q80 -33 134 -76.5t83 -111.5q14 -31 36 -91.5t30 -80.5l90 -218
q2 -4 21 -47.5t37.5 -84.5t21.5 -44q1 -2 77.5 -170.5t142 -300t83.5 -137.5q9 -4 24.5 14t38.5 54q2 3 19.5 30t25.5 43zM426 1053q-3 -61 -7 -181.5t-7 -181.5q0 -15 9 -26t25 -11q17 -3 50.5 -5t50.5 -5q23 -2 35 15.5t2 37.5q-18 37 -66 165.5t-92 191.5zM86 1577
q5 9 15 32.5t18 32.5l223 256q25 32 64 5q5 -3 26.5 -17t28.5 -18.5t25 -17.5t27.5 -21.5t23.5 -21.5t24.5 -27t20.5 -29q3 -3 13 -9.5t13 -12.5q1 -2 8.5 -10t9.5 -11t8 -11.5t8 -13t5.5 -13t3.5 -16t-0.5 -17t-3.5 -19.5q-4 -11 2.5 -48.5t-8.5 -53.5q-84 0 -145 43
l-181 129q-25 9 -43 -15q-8 -10 -30 -29t-31 -32q-17 -23 -53 -31.5t-72 -3.5zM688 1743q-25 5 -40 26t-11 46q3 17 13.5 28.5t32 26.5t32.5 24q25 20 39 54q5 32 4 34q-9 27 -39 39q-13 0 -17 -6q-12 -10 -10 -20q27 -70 -41 -103q-25 -11 -48.5 -2t-33.5 35l-6 14
q-13 55 8 84q7 32 29 54.5t40 31t48 19.5q7 7 23 4q8 -3 24 -8t29 -10.5t24 -12.5q39 -23 68 -63q34 -50 16 -94q-22 -63 -59 -109q-27 -31 -59 -41l-19 -12q-18 -49 -47 -39z" />
    <glyph glyph-name="uni1EA9" unicode="&#x1ea9;" horiz-adv-x="1050" 
d="M702 956q-1 -12 -0.5 -20t0 -15.5t-3.5 -13.5q-18 -56 -24 -114.5t-6.5 -147t-1.5 -117.5q0 -11 -2 -93t-1.5 -133t9 -117t26.5 -97q40 -52 90 -8q111 99 158 239q11 37 53 166q50 0 50 -28q1 -11 -3.5 -38t-3.5 -40q-8 -19 -19 -57.5t-17 -55.5q-48 -107 -78 -149
q-4 -4 -13.5 -15t-12.5 -14l-11 -11t-11.5 -11t-10.5 -8.5t-12 -8.5t-12.5 -6t-15.5 -6q-65 -24 -116.5 -19.5t-110.5 41.5q-38 21 -76 75.5t-61 144.5q-64 -64 -107 -91q-44 -36 -99 -42t-103.5 14t-87 62t-52.5 97q-16 61 -16 113q1 109 43.5 205.5t120.5 200.5
q32 41 123 163q29 43 78 33q33 -7 99 -17.5t99 -17.5q27 -6 74.5 -22t64.5 -21zM567 862q-77 -44 -125 -112q-23 -29 -131 -250t-114 -252q-5 -37 8 -55q5 -6 22 -6t27 6q65 45 90 81q66 100 107.5 186.5t60.5 182.5q17 86 55 219zM229 1108q5 9 15 33t18 33l223 256
q25 31 64 4q5 -3 26.5 -17t28.5 -18.5t25 -17.5t27.5 -21.5t23.5 -21.5t24.5 -27t20.5 -29q3 -3 13.5 -9.5t13.5 -12.5q1 -2 8.5 -10t9.5 -11t8 -11.5t8 -13t5.5 -13t3.5 -16t-0.5 -17t-3.5 -19.5q-4 -11 2 -48.5t-9 -53.5q-84 0 -145 43l-180 129q-25 9 -43 -15
q-8 -10 -30.5 -29t-31.5 -32q-17 -23 -53 -31.5t-72 -3.5zM838 1327q-25 5 -40.5 26t-11.5 46q3 17 13 28.5t32.5 27t32.5 24.5q26 20 39 53q5 32 4 35q-9 27 -39 39q-11 0 -16 -7q-12 -10 -10 -20q26 -69 -41 -102q-25 -11 -48.5 -2.5t-33.5 34.5l-6 15q-13 55 8 84
q6 24 18 42t31 30t32 18t36 14q7 7 22 4q3 -1 33 -10.5t45 -19.5q38 -23 68 -64q34 -50 16 -94q-22 -63 -59 -109q-27 -30 -60 -41l-18 -12q-18 -49 -47 -39z" />
    <glyph glyph-name="uni1EAA" unicode="&#x1eaa;" horiz-adv-x="1366" 
d="M1202 313q86 233 103 322q3 20 19 27t29.5 -3t10.5 -30v-2q-8 -62 -72 -229t-145 -267q-40 -60 -101 -53.5t-120.5 49.5t-94.5 98q-108 165 -165 334q-3 8 -11 19q-20 -10 -85 -30t-91 -20h-36.5t-24 -3t-16 -4.5t-10 -10.5t-8 -15t-8 -24.5t-11.5 -32.5
q-39 -86 -78.5 -157.5t-60 -101.5t-51.5 -69t-32 -40q-10 -13 -28 -27q-17 -13 -35.5 -9t-24.5 23q-9 26 -20 68q-56 208 -19 412q76 404 121 618q19 83 78 291q5 20 29.5 57t34.5 37q36 4 59 -6q80 -33 134 -76.5t83 -111.5q14 -31 36 -91.5t30 -80.5l90 -218
q2 -4 21 -47.5t37.5 -84.5t21.5 -44q1 -2 77.5 -170.5t142 -300t83.5 -137.5q9 -4 24.5 14t38.5 54q2 3 19.5 30t25.5 43zM426 1053q-3 -61 -7 -181.5t-7 -181.5q0 -15 9 -26t25 -11q17 -3 50.5 -5t50.5 -5q23 -2 35 15.5t2 37.5q-18 37 -66 165.5t-92 191.5zM86 1577
q5 9 15 32.5t18 32.5l223 256q25 32 64 5q5 -3 26.5 -17t28.5 -18.5t25 -17.5t27.5 -21.5t23.5 -21.5t24.5 -27t20.5 -29q3 -3 13 -9.5t13 -12.5q1 -2 8.5 -10t9.5 -11t8 -11.5t8 -13t5.5 -13t3.5 -16t-0.5 -17t-3.5 -19.5q-4 -11 2.5 -48.5t-8.5 -53.5q-84 0 -145 43
l-181 129q-25 9 -43 -15q-8 -10 -30 -29t-31 -32q-17 -23 -53 -31.5t-72 -3.5zM639 2011q20 18 76 90q22 25 32.5 36t33.5 30t50 33q46 -15 37 -62q-2 -7 -9 -38.5t-13 -49.5q-2 -13 -17 -49q-33 -99 -147 -96q-84 3 -152 71q-15 14 -39 41t-34 37q-4 4 -9 7.5t-8.5 5.5
t-3.5 1q-48 -48 -92 -83l-84 -66q-46 -34 -61 43q-12 78 53 143q82 71 207 58q54 -6 88 -49q8 -9 22.5 -31t22.5 -31q23 -23 47 -41z" />
    <glyph glyph-name="uni1EAB" unicode="&#x1eab;" horiz-adv-x="1050" 
d="M702 956q-1 -12 -0.5 -20t0 -15.5t-3.5 -13.5q-18 -56 -24 -114.5t-6.5 -147t-1.5 -117.5q0 -11 -2 -93t-1.5 -133t9 -117t26.5 -97q40 -52 90 -8q111 99 158 239q11 37 53 166q50 0 50 -28q1 -11 -3.5 -38t-3.5 -40q-8 -19 -19 -57.5t-17 -55.5q-48 -107 -78 -149
q-4 -4 -13.5 -15t-12.5 -14l-11 -11t-11.5 -11t-10.5 -8.5t-12 -8.5t-12.5 -6t-15.5 -6q-65 -24 -116.5 -19.5t-110.5 41.5q-38 21 -76 75.5t-61 144.5q-64 -64 -107 -91q-44 -36 -99 -42t-103.5 14t-87 62t-52.5 97q-16 61 -16 113q1 109 43.5 205.5t120.5 200.5
q32 41 123 163q29 43 78 33q33 -7 99 -17.5t99 -17.5q27 -6 74.5 -22t64.5 -21zM567 862q-77 -44 -125 -112q-23 -29 -131 -250t-114 -252q-5 -37 8 -55q5 -6 22 -6t27 6q65 45 90 81q66 100 107.5 186.5t60.5 182.5q17 86 55 219zM229 1106q5 9 15 32.5t18 32.5l223 256
q25 32 64 5q5 -3 26.5 -17t28.5 -18.5t25 -17.5t27.5 -21.5t23.5 -21.5t24.5 -27t20.5 -29q3 -3 13.5 -10t13.5 -13q1 -1 10 -11t11 -13t8.5 -12.5t8 -16t4 -16t1.5 -20t-4 -21.5q-4 -11 2 -49t-9 -54q-84 0 -145 43l-180 130q-25 9 -43 -15q-8 -10 -30.5 -29t-31.5 -32
q-17 -23 -53 -31.5t-72 -3.5zM731 1546q20 18 76 90q60 68 117 99q46 -15 37 -62q-22 -84 -23 -88q-2 -16 -16 -49q-33 -99 -148 -96q-83 3 -151 71q-15 14 -39.5 41t-34.5 37q-4 4 -9 8t-8.5 6t-3.5 1q-53 -53 -92 -84l-84 -66q-46 -34 -61 43q-12 78 53 143q82 71 207 58
q54 -6 88 -49q8 -9 22.5 -31t22.5 -31q23 -23 47 -41z" />
    <glyph glyph-name="uni1EAC" unicode="&#x1eac;" horiz-adv-x="1366" 
d="M1202 313q86 233 103 322q3 20 19 27t29.5 -3t10.5 -30v-2q-8 -62 -72 -229t-145 -267q-40 -60 -101 -53.5t-120.5 49.5t-94.5 98q-108 165 -165 334q-3 8 -11 19q-20 -10 -85 -30t-91 -20h-36.5t-24 -3t-16 -4.5t-10 -10.5t-8 -15t-8 -24.5t-11.5 -32.5
q-39 -86 -78.5 -157.5t-60 -101.5t-51.5 -69t-32 -40q-10 -13 -28 -27q-17 -13 -35.5 -9t-24.5 23q-9 26 -20 68q-56 208 -19 412q76 404 121 618q19 83 78 291q5 20 29.5 57t34.5 37q36 4 59 -6q80 -33 134 -76.5t83 -111.5q14 -31 36 -91.5t30 -80.5l90 -218
q2 -4 21 -47.5t37.5 -84.5t21.5 -44q1 -2 77.5 -170.5t142 -300t83.5 -137.5q9 -4 24.5 14t38.5 54q2 3 19.5 30t25.5 43zM426 1053q-3 -61 -7 -181.5t-7 -181.5q0 -15 9 -26t25 -11q17 -3 50.5 -5t50.5 -5q23 -2 35 15.5t2 37.5q-18 37 -66 165.5t-92 191.5zM86 1573
q5 9 15 32.5t18 32.5l223 256q25 31 64 4q4 -3 30.5 -19.5t34 -22t28.5 -21t31.5 -26t25.5 -27.5t26 -35q2 -2 12.5 -9.5t13.5 -13.5q1 -1 10 -11t11 -13t8.5 -12.5t8 -16t4 -16t1.5 -20t-4 -21.5q-4 -11 2.5 -49t-8.5 -54q-84 0 -145 43l-181 129q-25 10 -43 -14
q-8 -10 -30 -29t-31 -32q-17 -23 -53 -31.5t-72 -3.5zM481 -229q-23 0 -52 27q-39 36 -58 110q-15 59 32 94q61 44 175 76q37 10 61 -10t29 -62q0 -28 -4 -106q-3 -46 -37 -76l-4 -4q-19 -44 -49.5 -52t-92.5 3z" />
    <glyph glyph-name="uni1EAD" unicode="&#x1ead;" horiz-adv-x="1050" 
d="M702 956q-1 -12 -0.5 -20t0 -15.5t-3.5 -13.5q-18 -56 -24 -114.5t-6.5 -147t-1.5 -117.5q0 -11 -2 -93t-1.5 -133t9 -117t26.5 -97q40 -52 90 -8q111 99 158 239q11 37 53 166q50 0 50 -28q1 -11 -3.5 -38t-3.5 -40q-8 -19 -19 -57.5t-17 -55.5q-48 -107 -78 -149
q-4 -4 -13.5 -15t-12.5 -14l-11 -11t-11.5 -11t-10.5 -8.5t-12 -8.5t-12.5 -6t-15.5 -6q-65 -24 -116.5 -19.5t-110.5 41.5q-38 21 -76 75.5t-61 144.5q-64 -64 -107 -91q-44 -36 -99 -42t-103.5 14t-87 62t-52.5 97q-16 61 -16 113q1 109 43.5 205.5t120.5 200.5
q32 41 123 163q29 43 78 33q33 -7 99 -17.5t99 -17.5q27 -6 74.5 -22t64.5 -21zM567 862q-77 -44 -125 -112q-23 -29 -131 -250t-114 -252q-5 -37 8 -55q5 -6 22 -6t27 6q65 45 90 81q66 100 107.5 186.5t60.5 182.5q17 86 55 219zM227 1108q5 9 15 33t18 33l223 256
q25 31 64 4q5 -3 26.5 -17t28.5 -18.5t25 -17.5t27.5 -21.5t23.5 -21.5t24.5 -27t20.5 -29q3 -3 13.5 -9.5t13.5 -12.5q1 -1 7.5 -8.5t8.5 -10t7.5 -10t7 -11t5.5 -11t4.5 -13.5t1.5 -14t0 -16t-4 -17q-4 -11 2.5 -48.5t-8.5 -53.5q-84 0 -145 43l-180 129q-25 9 -43 -15
q-8 -10 -30.5 -29t-31.5 -32q-17 -23 -53 -31.5t-72 -3.5zM276 -297q-23 0 -52 27q-39 36 -58 110q-15 58 33 94q62 44 174 76q38 10 61.5 -9.5t28.5 -61.5q0 -29 -4 -107q-3 -46 -37 -76l-4 -4q-19 -44 -49.5 -52t-92.5 3z" />
    <glyph glyph-name="uni1EAE" unicode="&#x1eae;" horiz-adv-x="1366" 
d="M1202 313q86 233 103 322q3 20 19 27t29.5 -3t10.5 -30v-2q-8 -62 -72 -229t-145 -267q-40 -60 -101 -53.5t-120.5 49.5t-94.5 98q-108 165 -165 334q-3 8 -11 19q-20 -10 -85 -30t-91 -20h-36.5t-24 -3t-16 -4.5t-10 -10.5t-8 -15t-8 -24.5t-11.5 -32.5
q-39 -86 -78.5 -157.5t-60 -101.5t-51.5 -69t-32 -40q-10 -13 -28 -27q-17 -13 -35.5 -9t-24.5 23q-9 26 -20 68q-56 208 -19 412q76 404 121 618q19 83 78 291q5 20 29.5 57t34.5 37q36 4 59 -6q80 -33 134 -76.5t83 -111.5q14 -31 36 -91.5t30 -80.5l90 -218
q2 -4 21 -47.5t37.5 -84.5t21.5 -44q1 -2 77.5 -170.5t142 -300t83.5 -137.5q9 -4 24.5 14t38.5 54q2 3 19.5 30t25.5 43zM426 1053q-3 -61 -7 -181.5t-7 -181.5q0 -15 9 -26t25 -11q17 -3 50.5 -5t50.5 -5q23 -2 35 15.5t2 37.5q-18 37 -66 165.5t-92 191.5zM672 1896
q3 -29 -2 -59q-12 -51 -96 -134.5t-150 -111.5q-14 -8 -50 -11t-86 3.5t-105 42t-93 96.5q-21 51 49 115q72 66 99 8q67 -131 163 -131q97 -6 240 197q7 12 18.5 7t12.5 -22zM369 1896q-18 35 8 72q10 11 51 60t66 69q22 18 151 101l53 -25q0 -51 -2 -76q-4 -17 -6.5 -24.5
t-11.5 -17t-23 -13.5q-9 0 -26 -21l-47 -45q-86 -71 -213 -80z" />
    <glyph glyph-name="uni1EAF" unicode="&#x1eaf;" horiz-adv-x="1050" 
d="M702 956q-1 -12 -0.5 -20t0 -15.5t-3.5 -13.5q-18 -56 -24 -114.5t-6.5 -147t-1.5 -117.5q0 -11 -2 -93t-1.5 -133t9 -117t26.5 -97q40 -52 90 -8q111 99 158 239q11 37 53 166q50 0 50 -28q1 -11 -3.5 -38t-3.5 -40q-8 -19 -19 -57.5t-17 -55.5q-48 -107 -78 -149
q-4 -4 -13.5 -15t-12.5 -14l-11 -11t-11.5 -11t-10.5 -8.5t-12 -8.5t-12.5 -6t-15.5 -6q-65 -24 -116.5 -19.5t-110.5 41.5q-38 21 -76 75.5t-61 144.5q-64 -64 -107 -91q-44 -36 -99 -42t-103.5 14t-87 62t-52.5 97q-16 61 -16 113q1 109 43.5 205.5t120.5 200.5
q32 41 123 163q29 43 78 33q33 -7 99 -17.5t99 -17.5q27 -6 74.5 -22t64.5 -21zM567 862q-77 -44 -125 -112q-23 -29 -131 -250t-114 -252q-5 -37 8 -55q5 -6 22 -6t27 6q65 45 90 81q66 100 107.5 186.5t60.5 182.5q17 86 55 219zM817 1405q3 -29 -2 -59
q-12 -51 -96 -134.5t-150 -111.5q-14 -8 -50 -11t-85.5 3.5t-104.5 42t-93 96.5q-21 51 49 115q72 65 98 8q67 -131 164 -131q32 -2 66.5 16t67.5 52t56 62.5t49 65.5q7 12 18.5 7.5t12.5 -21.5zM477 1415q-18 35 8 72q10 11 51 60t66 69q22 17 46.5 33.5t57.5 36.5t48 30
l53 -24q0 -51 -2 -76q-4 -17 -6.5 -24.5t-11.5 -17t-23 -13.5q-10 0 -27 -21l-47 -45q-86 -71 -213 -80z" />
    <glyph glyph-name="uni1EB0" unicode="&#x1eb0;" horiz-adv-x="1366" 
d="M1202 313q86 233 103 322q3 20 19 27t29.5 -3t10.5 -30v-2q-8 -62 -72 -229t-145 -267q-40 -60 -101 -53.5t-120.5 49.5t-94.5 98q-108 165 -165 334q-3 8 -11 19q-20 -10 -85 -30t-91 -20h-36.5t-24 -3t-16 -4.5t-10 -10.5t-8 -15t-8 -24.5t-11.5 -32.5
q-39 -86 -78.5 -157.5t-60 -101.5t-51.5 -69t-32 -40q-10 -13 -28 -27q-17 -13 -35.5 -9t-24.5 23q-9 26 -20 68q-56 208 -19 412q76 404 121 618q19 83 78 291q5 20 29.5 57t34.5 37q36 4 59 -6q80 -33 134 -76.5t83 -111.5q14 -31 36 -91.5t30 -80.5l90 -218
q2 -4 21 -47.5t37.5 -84.5t21.5 -44q1 -2 77.5 -170.5t142 -300t83.5 -137.5q9 -4 24.5 14t38.5 54q2 3 19.5 30t25.5 43zM426 1053q-3 -61 -7 -181.5t-7 -181.5q0 -15 9 -26t25 -11q17 -3 50.5 -5t50.5 -5q23 -2 35 15.5t2 37.5q-18 37 -66 165.5t-92 191.5zM672 1901
q3 -30 -2 -60q-12 -51 -96 -134.5t-150 -111.5q-14 -8 -50 -11t-86 3.5t-105 42t-93 96.5q-21 51 49 115q72 66 99 8q67 -131 163 -131q97 -6 240 197q7 12 18.5 7.5t12.5 -21.5zM500 1929l-2 -14q-2 0 -24 -4.5t-36 -3.5q-98 3 -202 80q-23 19 -70.5 56t-71.5 56
q76 101 180 58q26 -9 56 -52q25 -24 53.5 -53.5t63 -66t53.5 -56.5z" />
    <glyph glyph-name="uni1EB1" unicode="&#x1eb1;" horiz-adv-x="1050" 
d="M702 956q-1 -12 -0.5 -20t0 -15.5t-3.5 -13.5q-18 -56 -24 -114.5t-6.5 -147t-1.5 -117.5q0 -11 -2 -93t-1.5 -133t9 -117t26.5 -97q40 -52 90 -8q111 99 158 239q11 37 53 166q50 0 50 -28q1 -11 -3.5 -38t-3.5 -40q-8 -19 -19 -57.5t-17 -55.5q-48 -107 -78 -149
q-4 -4 -13.5 -15t-12.5 -14l-11 -11t-11.5 -11t-10.5 -8.5t-12 -8.5t-12.5 -6t-15.5 -6q-65 -24 -116.5 -19.5t-110.5 41.5q-38 21 -76 75.5t-61 144.5q-64 -64 -107 -91q-44 -36 -99 -42t-103.5 14t-87 62t-52.5 97q-16 61 -16 113q1 109 43.5 205.5t120.5 200.5
q32 41 123 163q29 43 78 33q33 -7 99 -17.5t99 -17.5q27 -6 74.5 -22t64.5 -21zM567 862q-77 -44 -125 -112q-23 -29 -131 -250t-114 -252q-5 -37 8 -55q5 -6 22 -6t27 6q65 45 90 81q66 100 107.5 186.5t60.5 182.5q17 86 55 219zM817 1409q3 -29 -2 -59
q-12 -51 -96 -134.5t-150 -111.5q-14 -8 -50 -11t-85.5 3.5t-104.5 42t-93 96.5q-21 51 49 115q72 65 98 8q67 -131 164 -131q32 -2 66.5 16t67.5 52t56 62.5t49 65.5q7 12 18.5 7.5t12.5 -21.5zM633 1417l-2 -14q-2 0 -24 -4.5t-36 -3.5q-98 3 -202 80q-23 19 -71 56
t-71 56q76 101 181 58q25 -9 55 -52q25 -24 53.5 -53.5t63 -66t53.5 -56.5z" />
    <glyph glyph-name="uni1EB2" unicode="&#x1eb2;" horiz-adv-x="1366" 
d="M1202 313q86 233 103 322q3 20 19 27t29.5 -3t10.5 -30v-2q-8 -62 -72 -229t-145 -267q-40 -60 -101 -53.5t-120.5 49.5t-94.5 98q-108 165 -165 334q-3 8 -11 19q-20 -10 -85 -30t-91 -20h-36.5t-24 -3t-16 -4.5t-10 -10.5t-8 -15t-8 -24.5t-11.5 -32.5
q-39 -86 -78.5 -157.5t-60 -101.5t-51.5 -69t-32 -40q-10 -13 -28 -27q-17 -13 -35.5 -9t-24.5 23q-9 26 -20 68q-56 208 -19 412q76 404 121 618q19 83 78 291q5 20 29.5 57t34.5 37q36 4 59 -6q80 -33 134 -76.5t83 -111.5q14 -31 36 -91.5t30 -80.5l90 -218
q2 -4 21 -47.5t37.5 -84.5t21.5 -44q1 -2 77.5 -170.5t142 -300t83.5 -137.5q9 -4 24.5 14t38.5 54q2 3 19.5 30t25.5 43zM426 1053q-3 -61 -7 -181.5t-7 -181.5q0 -15 9 -26t25 -11q17 -3 50.5 -5t50.5 -5q23 -2 35 15.5t2 37.5q-18 37 -66 165.5t-92 191.5zM672 1901
q3 -30 -2 -60q-12 -51 -96 -134.5t-150 -111.5q-14 -8 -50 -11t-86 3.5t-105 42t-93 96.5q-21 51 49 115q72 66 99 8q67 -131 163 -131q97 -6 240 197q7 12 18.5 7.5t12.5 -21.5zM418 1825q-25 5 -40 20t-11 33q3 15 13.5 23.5t31 18t32.5 19.5q24 14 39 39q5 24 4 27
q-9 20 -38 29q-13 0 -17 -4q-12 -7 -10 -17q29 -52 -41 -76q-24 -8 -48 -1.5t-34 26.5l-6 10q-14 42 8 64q7 24 29 40.5t39.5 23t48.5 14.5q8 4 22 4q8 -3 24 -6.5t29.5 -8t24.5 -10.5q33 -12 68 -47t16 -70q-19 -45 -59 -82q-25 -21 -60 -30l-18 -11q-18 -38 -47 -28z" />
    <glyph glyph-name="uni1EB3" unicode="&#x1eb3;" horiz-adv-x="1050" 
d="M702 956q-1 -12 -0.5 -20t0 -15.5t-3.5 -13.5q-18 -56 -24 -114.5t-6.5 -147t-1.5 -117.5q0 -11 -2 -93t-1.5 -133t9 -117t26.5 -97q40 -52 90 -8q111 99 158 239q11 37 53 166q50 0 50 -28q1 -11 -3.5 -38t-3.5 -40q-8 -19 -19 -57.5t-17 -55.5q-48 -107 -78 -149
q-4 -4 -13.5 -15t-12.5 -14l-11 -11t-11.5 -11t-10.5 -8.5t-12 -8.5t-12.5 -6t-15.5 -6q-65 -24 -116.5 -19.5t-110.5 41.5q-38 21 -76 75.5t-61 144.5q-64 -64 -107 -91q-44 -36 -99 -42t-103.5 14t-87 62t-52.5 97q-16 61 -16 113q1 109 43.5 205.5t120.5 200.5
q32 41 123 163q29 43 78 33q33 -7 99 -17.5t99 -17.5q27 -6 74.5 -22t64.5 -21zM567 862q-77 -44 -125 -112q-23 -29 -131 -250t-114 -252q-5 -37 8 -55q5 -6 22 -6t27 6q65 45 90 81q66 100 107.5 186.5t60.5 182.5q17 86 55 219zM815 1409q3 -29 -2 -59
q-12 -51 -96 -134.5t-150 -111.5q-14 -8 -50 -11t-86 3.5t-105 42t-93 96.5q-21 50 50 115q72 65 98 8q67 -131 164 -131q32 -2 66.5 16t67.5 52t56 62.5t49 65.5q7 12 18.5 7.5t12.5 -21.5zM520 1380q-25 5 -40 26t-11 46q3 17 13 28.5t32.5 27t32.5 24.5q26 20 39 53
q5 32 4 35q-9 27 -39 39q-11 0 -16 -6q-14 -11 -11 -21q26 -69 -41 -102q-25 -11 -48.5 -2t-33.5 35l-6 14q-13 55 8 84q6 24 18 42t31 30t32 18t36 14q7 7 23 4q3 -1 33 -10.5t45 -19.5q36 -22 67 -64q34 -51 17 -94q-20 -59 -60 -108q-27 -31 -59 -41l-19 -13
q-18 -49 -47 -39z" />
    <glyph glyph-name="uni1EB4" unicode="&#x1eb4;" horiz-adv-x="1366" 
d="M1202 313q86 233 103 322q3 20 19 27t29.5 -3t10.5 -30v-2q-8 -62 -72 -229t-145 -267q-40 -60 -101 -53.5t-120.5 49.5t-94.5 98q-108 165 -165 334q-3 8 -11 19q-20 -10 -85 -30t-91 -20h-36.5t-24 -3t-16 -4.5t-10 -10.5t-8 -15t-8 -24.5t-11.5 -32.5
q-39 -86 -78.5 -157.5t-60 -101.5t-51.5 -69t-32 -40q-10 -13 -28 -27q-17 -13 -35.5 -9t-24.5 23q-9 26 -20 68q-56 208 -19 412q76 404 121 618q19 83 78 291q5 20 29.5 57t34.5 37q36 4 59 -6q80 -33 134 -76.5t83 -111.5q14 -31 36 -91.5t30 -80.5l90 -218
q2 -4 21 -47.5t37.5 -84.5t21.5 -44q1 -2 77.5 -170.5t142 -300t83.5 -137.5q9 -4 24.5 14t38.5 54q2 3 19.5 30t25.5 43zM426 1053q-3 -61 -7 -181.5t-7 -181.5q0 -15 9 -26t25 -11q17 -3 50.5 -5t50.5 -5q23 -2 35 15.5t2 37.5q-18 37 -66 165.5t-92 191.5zM672 1903
q3 -30 -2 -60q-12 -51 -96 -134.5t-150 -111.5q-10 -6 -35 -10.5t-63.5 -1.5t-79 15.5t-83 45.5t-73.5 83q-21 50 49 114q72 66 99 8q67 -131 163 -131q97 -6 240 197q7 12 18.5 7.5t12.5 -21.5zM475 2028q20 18 76 90q20 22 32.5 35t35 30.5t49.5 32.5q46 -15 37 -62
q-22 -84 -23 -88q-2 -16 -16 -49q-33 -99 -148 -96q-82 3 -151 72q-15 14 -39.5 41t-34.5 37q-4 4 -9 7.5t-8.5 5.5t-3.5 1q-53 -53 -92 -84l-84 -66q-46 -34 -61 43q-12 79 53 144q81 70 207 57q54 -6 88 -49q8 -9 22.5 -31t22.5 -31q19 -19 47 -40z" />
    <glyph glyph-name="uni1EB5" unicode="&#x1eb5;" horiz-adv-x="1050" 
d="M702 956q-1 -12 -0.5 -20t0 -15.5t-3.5 -13.5q-18 -56 -24 -114.5t-6.5 -147t-1.5 -117.5q0 -11 -2 -93t-1.5 -133t9 -117t26.5 -97q40 -52 90 -8q111 99 158 239q11 37 53 166q50 0 50 -28q1 -11 -3.5 -38t-3.5 -40q-8 -19 -19 -57.5t-17 -55.5q-48 -107 -78 -149
q-4 -4 -13.5 -15t-12.5 -14l-11 -11t-11.5 -11t-10.5 -8.5t-12 -8.5t-12.5 -6t-15.5 -6q-65 -24 -116.5 -19.5t-110.5 41.5q-38 21 -76 75.5t-61 144.5q-64 -64 -107 -91q-44 -36 -99 -42t-103.5 14t-87 62t-52.5 97q-16 61 -16 113q1 109 43.5 205.5t120.5 200.5
q32 41 123 163q29 43 78 33q33 -7 99 -17.5t99 -17.5q27 -6 74.5 -22t64.5 -21zM567 862q-77 -44 -125 -112q-23 -29 -131 -250t-114 -252q-5 -37 8 -55q5 -6 22 -6t27 6q65 45 90 81q66 100 107.5 186.5t60.5 182.5q17 86 55 219zM815 1409q3 -29 -2 -59
q-12 -51 -96 -134.5t-150 -111.5q-14 -8 -50 -11t-86 3.5t-105 42t-93 96.5q-21 50 50 115q72 65 98 8q67 -131 164 -131q32 -2 66.5 16t67.5 52t56 62.5t49 65.5q7 12 18.5 7.5t12.5 -21.5zM625 1526q17 15 75 90q20 22 32.5 35t35 30.5t49.5 32.5q45 -15 37 -61
q-22 -83 -23 -88q-2 -16 -16 -49q-34 -100 -147 -97q-83 3 -152 72q-15 14 -39.5 41t-34.5 37q-4 4 -8.5 7.5t-8 5.5t-3.5 1q-53 -53 -92 -84l-84 -65q-47 -35 -62 43q-12 77 54 143q80 70 206 57q54 -6 88 -49q8 -9 23 -30.5t23 -30.5q23 -23 47 -41z" />
    <glyph glyph-name="uni1EB6" unicode="&#x1eb6;" horiz-adv-x="1366" 
d="M1202 313q86 233 103 322q3 20 19 27t29.5 -3t10.5 -30v-2q-8 -62 -72 -229t-145 -267q-40 -60 -101 -53.5t-120.5 49.5t-94.5 98q-108 165 -165 334q-3 8 -11 19q-20 -10 -85 -30t-91 -20h-36.5t-24 -3t-16 -4.5t-10 -10.5t-8 -15t-8 -24.5t-11.5 -32.5
q-39 -86 -78.5 -157.5t-60 -101.5t-51.5 -69t-32 -40q-10 -13 -28 -27q-17 -13 -35.5 -9t-24.5 23q-9 26 -20 68q-56 208 -19 412q76 404 121 618q19 83 78 291q5 20 29.5 57t34.5 37q36 4 59 -6q80 -33 134 -76.5t83 -111.5q14 -31 36 -91.5t30 -80.5l90 -218
q2 -4 21 -47.5t37.5 -84.5t21.5 -44q1 -2 77.5 -170.5t142 -300t83.5 -137.5q9 -4 24.5 14t38.5 54q2 3 19.5 30t25.5 43zM426 1053q-3 -61 -7 -181.5t-7 -181.5q0 -15 9 -26t25 -11q17 -3 50.5 -5t50.5 -5q23 -2 35 15.5t2 37.5q-18 37 -66 165.5t-92 191.5zM672 1923
q3 -29 -2 -59q-12 -51 -96 -134.5t-150 -111.5q-14 -8 -50 -11t-86 3.5t-105 42t-93 96.5q-21 51 49 115q72 66 99 8q67 -131 163 -131q97 -6 240 196q7 12 18.5 7.5t12.5 -21.5zM520 -252q-23 0 -52 27q-39 36 -58 110q-15 60 32 95q60 42 174 75q38 10 62 -9.5t29 -61.5
q0 -9 -5 -107q-3 -47 -36 -76l-4 -4q-19 -44 -49.5 -52t-92.5 3z" />
    <glyph glyph-name="uni1EB7" unicode="&#x1eb7;" horiz-adv-x="1050" 
d="M702 956q-1 -12 -0.5 -20t0 -15.5t-3.5 -13.5q-18 -56 -24 -114.5t-6.5 -147t-1.5 -117.5q0 -11 -2 -93t-1.5 -133t9 -117t26.5 -97q40 -52 90 -8q111 99 158 239q11 37 53 166q50 0 50 -28q1 -11 -3.5 -38t-3.5 -40q-8 -19 -19 -57.5t-17 -55.5q-48 -107 -78 -149
q-4 -4 -13.5 -15t-12.5 -14l-11 -11t-11.5 -11t-10.5 -8.5t-12 -8.5t-12.5 -6t-15.5 -6q-65 -24 -116.5 -19.5t-110.5 41.5q-38 21 -76 75.5t-61 144.5q-64 -64 -107 -91q-44 -36 -99 -42t-103.5 14t-87 62t-52.5 97q-16 61 -16 113q1 109 43.5 205.5t120.5 200.5
q32 41 123 163q29 43 78 33q33 -7 99 -17.5t99 -17.5q27 -6 74.5 -22t64.5 -21zM567 862q-77 -44 -125 -112q-23 -29 -131 -250t-114 -252q-5 -37 8 -55q5 -6 22 -6t27 6q65 45 90 81q66 100 107.5 186.5t60.5 182.5q17 86 55 219zM815 1409q3 -29 -2 -59
q-12 -51 -96 -134.5t-150 -111.5q-14 -8 -50 -11t-86 3.5t-105 42t-93 96.5q-21 50 50 115q72 65 98 8q67 -131 164 -131q32 -2 66.5 16t67.5 52t56 62.5t49 65.5q7 12 18.5 7.5t12.5 -21.5zM246 -242q-1 0 -6.5 1t-11 3t-13.5 7t-16 11.5t-17 17t-17 24t-16 32.5t-14 42
q-15 58 33 94q62 44 174 76q37 10 61 -10t29 -62q0 -29 -4 -107q-3 -45 -37 -75q-2 -3 -4 -5q-19 -44 -49 -52t-92 3z" />
    <glyph glyph-name="uni1EB8" unicode="&#x1eb8;" horiz-adv-x="1101" 
d="M1049 674q26 -4 41 -26t10 -48q-22 -141 -110 -306.5t-140 -217.5q-52 -59 -84.5 -83t-81.5 -42q-80 -31 -144 -42t-147 -5q-148 9 -260 104q-55 49 -98 158q-16 37 -25.5 86t-9.5 112.5t16 118.5q11 29 25.5 70.5t27 72.5t29.5 68q20 45 97 152q11 16 24.5 31.5t32 36.5
t29.5 34l-29 62q-33 71 -35 123q-5 64 34.5 140.5t98.5 104.5q66 37 140.5 49t118 6.5t65.5 -16.5q29 -17 55 -31t50 -38t36 -54q19 -44 7.5 -83.5t-52.5 -65.5q-33 -20 -48 -23t-46 8q-19 7 -27 26.5t-2 39.5l4 8q3 53 -43 79.5t-99 13.5t-69 -58q0 -12 -0.5 -33.5
t-0.5 -39t1 -33.5q6 -72 44 -140t108 -86q30 -6 86 -35q26 -12 26.5 -30t-24.5 -31q-47 -27 -82 -16q-13 3 -41 4t-41 4q-42 5 -64 -9t-34 -55q-9 -37 -48.5 -156.5t-41.5 -129.5q-26 -92 -37 -248q-9 -85 55 -152q10 -16 47 -16q118 -3 232 51q113 53 197 139.5t132 194.5
q52 127 86 250q0 2 9 2zM309 -532q-23 0 -52 27q-39 36 -58 110q-15 59 32 94q61 44 175 76q37 10 61 -10t29 -62q0 -28 -4 -106q-3 -46 -37 -76l-4 -4q-19 -44 -49.5 -52t-92.5 3z" />
    <glyph glyph-name="uni1EB9" unicode="&#x1eb9;" horiz-adv-x="843" 
d="M811 475l25 31q19 -57 -19 -109q-56 -86 -131 -160.5t-176 -154.5q-66 -51 -186 -55q-196 -3 -281 202q-86 205 4 392q74 157 154 297q46 81 133 118q55 12 112 14.5t72 -3.5q55 -13 66 -60q3 -13 20 -29.5t23 -25.5q40 -77 -4 -174q-4 -14 -17 -39.5t-41 -65
t-63.5 -74.5t-89.5 -65t-113 -39q-2 0 -18 -4q-51 -82 -74 -201q-12 -91 28 -133.5t127 -30.5q74 11 111 39q4 3 29.5 21t31 22.5t28 21t30.5 22.5t27.5 21.5t29 24t26 23.5t27.5 26t24.5 25.5t25.5 28.5q11 16 29.5 47.5t29.5 46.5zM279 522q34 7 64 21t46 24t45 31
q85 61 111.5 141t5.5 187q-8 38 -47 35q-55 -87 -92 -156t-55.5 -109.5t-24.5 -50.5q-9 -21 -20 -43t-19 -40t-14 -40zM203 -393q-24 0 -52 27q-40 36 -59 110q-15 58 33 94q62 44 174 76q37 10 61 -10t29 -62q0 -28 -4 -106q-3 -46 -37 -76l-4 -4q-19 -44 -49 -52t-92 3z
" />
    <glyph glyph-name="uni1EBA" unicode="&#x1eba;" horiz-adv-x="1101" 
d="M1049 674q26 -4 41 -26t10 -48q-22 -141 -110 -306.5t-140 -217.5q-52 -59 -84.5 -83t-81.5 -42q-80 -31 -144 -42t-147 -5q-148 9 -260 104q-55 49 -98 158q-16 37 -25.5 86t-9.5 112.5t16 118.5q11 29 25.5 70.5t27 72.5t29.5 68q20 45 97 152q11 16 24.5 31.5t32 36.5
t29.5 34l-29 62q-33 71 -35 123q-5 64 34.5 140.5t98.5 104.5q66 37 140.5 49t118 6.5t65.5 -16.5q29 -17 55 -31t50 -38t36 -54q19 -44 7.5 -83.5t-52.5 -65.5q-33 -20 -48 -23t-46 8q-19 7 -27 26.5t-2 39.5l4 8q3 53 -43 79.5t-99 13.5t-69 -58q0 -12 -0.5 -33.5
t-0.5 -39t1 -33.5q6 -72 44 -140t108 -86q30 -6 86 -35q26 -12 26.5 -30t-24.5 -31q-47 -27 -82 -16q-13 3 -41 4t-41 4q-42 5 -64 -9t-34 -55q-9 -37 -48.5 -156.5t-41.5 -129.5q-26 -92 -37 -248q-9 -85 55 -152q10 -16 47 -16q118 -3 232 51q113 53 197 139.5t132 194.5
q52 127 86 250q0 2 9 2zM604 1516q-25 5 -40 25.5t-11 45.5q3 17 13 28.5t32.5 27t32.5 24.5q26 20 39 53q5 32 4 35q-9 27 -39 39q-13 0 -17 -6q-13 -10 -10 -21q26 -69 -41 -102q-25 -11 -48.5 -2t-33.5 35l-6 14q-13 55 8 84q7 32 29 54.5t40 31t48 19.5q7 7 23 4l31 -11
q32 -10 47 -20q36 -22 67 -64q34 -50 16 -94q-21 -62 -59 -108q-27 -31 -59 -41l-19 -13q-17 -48 -47 -38z" />
    <glyph glyph-name="uni1EBB" unicode="&#x1ebb;" horiz-adv-x="843" 
d="M811 475l25 31q19 -57 -19 -109q-56 -86 -131 -160.5t-176 -154.5q-66 -51 -186 -55q-196 -3 -281 202q-86 205 4 392q74 157 154 297q46 81 133 118q55 12 112 14.5t72 -3.5q55 -13 66 -60q3 -13 20 -29.5t23 -25.5q40 -77 -4 -174q-4 -14 -17 -39.5t-41 -65
t-63.5 -74.5t-89.5 -65t-113 -39q-2 0 -18 -4q-51 -82 -74 -201q-12 -91 28 -133.5t127 -30.5q74 11 111 39q4 3 29.5 21t31 22.5t28 21t30.5 22.5t27.5 21.5t29 24t26 23.5t27.5 26t24.5 25.5t25.5 28.5q11 16 29.5 47.5t29.5 46.5zM279 522q34 7 64 21t46 24t45 31
q85 61 111.5 141t5.5 187q-8 38 -47 35q-55 -87 -92 -156t-55.5 -109.5t-24.5 -50.5q-9 -21 -20 -43t-19 -40t-14 -40zM485 1124q-25 5 -40 26t-11 46q3 17 13 28.5t32.5 27t32.5 24.5q26 20 39 53q5 32 4 35q-9 27 -39 39q-12 0 -16 -6q-14 -11 -11 -21q27 -69 -40 -102
q-25 -11 -48.5 -2t-33.5 35l-7 14q-13 53 9 84q7 32 28.5 54t39 30.5t48.5 19.5q7 7 23 4q3 -1 33 -10.5t45 -19.5q36 -22 67 -64q34 -51 17 -94q-20 -59 -60 -108q-27 -31 -59 -41l-19 -13q-18 -49 -47 -39z" />
    <glyph glyph-name="uni1EBC" unicode="&#x1ebc;" horiz-adv-x="1101" 
d="M1049 674q26 -4 41 -26t10 -48q-22 -141 -110 -306.5t-140 -217.5q-52 -59 -84.5 -83t-81.5 -42q-80 -31 -144 -42t-147 -5q-148 9 -260 104q-55 49 -98 158q-16 37 -25.5 86t-9.5 112.5t16 118.5q11 29 25.5 70.5t27 72.5t29.5 68q20 45 97 152q11 16 24.5 31.5t32 36.5
t29.5 34l-29 62q-33 71 -35 123q-5 64 34.5 140.5t98.5 104.5q66 37 140.5 49t118 6.5t65.5 -16.5q29 -17 55 -31t50 -38t36 -54q19 -44 7.5 -83.5t-52.5 -65.5q-33 -20 -48 -23t-46 8q-19 7 -27 26.5t-2 39.5l4 8q3 53 -43 79.5t-99 13.5t-69 -58q0 -12 -0.5 -33.5
t-0.5 -39t1 -33.5q6 -72 44 -140t108 -86q30 -6 86 -35q26 -12 26.5 -30t-24.5 -31q-47 -27 -82 -16q-13 3 -41 4t-41 4q-42 5 -64 -9t-34 -55q-9 -37 -48.5 -156.5t-41.5 -129.5q-26 -92 -37 -248q-9 -85 55 -152q10 -16 47 -16q118 -3 232 51q113 53 197 139.5t132 194.5
q52 127 86 250q0 2 9 2zM670 1620q17 15 75 90q20 22 32.5 35t35 30.5t49.5 32.5q45 -15 37 -61q-2 -7 -9 -38.5t-13 -49.5q-2 -13 -17 -49q-34 -100 -147 -97q-83 3 -152 72q-15 14 -39.5 41t-34.5 37q-4 4 -8.5 7.5t-8 5.5t-3.5 1q-53 -53 -92 -84l-84 -65q-47 -35 -62 43
q-12 77 54 143q81 71 206 58q54 -6 89 -50q8 -9 22.5 -30.5t22.5 -30.5q23 -23 47 -41z" />
    <glyph glyph-name="uni1EBD" unicode="&#x1ebd;" horiz-adv-x="843" 
d="M811 475l25 31q19 -57 -19 -109q-56 -86 -131 -160.5t-176 -154.5q-66 -51 -186 -55q-196 -3 -281 202q-86 205 4 392q74 157 154 297q46 81 133 118q55 12 112 14.5t72 -3.5q55 -13 66 -60q3 -13 20 -29.5t23 -25.5q40 -77 -4 -174q-4 -14 -17 -39.5t-41 -65
t-63.5 -74.5t-89.5 -65t-113 -39q-2 0 -18 -4q-51 -82 -74 -201q-12 -91 28 -133.5t127 -30.5q74 11 111 39q4 3 29.5 21t31 22.5t28 21t30.5 22.5t27.5 21.5t29 24t26 23.5t27.5 26t24.5 25.5t25.5 28.5q11 16 29.5 47.5t29.5 46.5zM279 522q34 7 64 21t46 24t45 31
q85 61 111.5 141t5.5 187q-8 38 -47 35q-55 -87 -92 -156t-55.5 -109.5t-24.5 -50.5q-9 -21 -20 -43t-19 -40t-14 -40zM528 1200q20 18 76 90q60 68 117 99q46 -15 37 -62q-22 -83 -23 -88q-2 -16 -16 -49q-33 -99 -148 -96q-83 3 -151 71q-15 14 -39.5 41t-34.5 37
q-4 4 -8.5 7.5t-8 5.5t-3.5 1q-44 -44 -93 -83l-83 -66q-47 -35 -62 43q-12 78 53 143q82 71 207 58q54 -6 88 -49q8 -9 22.5 -31t22.5 -31q23 -23 47 -41z" />
    <glyph glyph-name="uni1EBE" unicode="&#x1ebe;" horiz-adv-x="1101" 
d="M1049 674q26 -4 41 -26t10 -48q-22 -141 -110 -306.5t-140 -217.5q-52 -59 -84.5 -83t-81.5 -42q-80 -31 -144 -42t-147 -5q-148 9 -260 104q-55 49 -98 158q-16 37 -25.5 86t-9.5 112.5t16 118.5q11 29 25.5 70.5t27 72.5t29.5 68q20 45 97 152q11 16 24.5 31.5t32 36.5
t29.5 34l-29 62q-33 71 -35 123q-5 64 34.5 140.5t98.5 104.5q66 37 140.5 49t118 6.5t65.5 -16.5q29 -17 55 -31t50 -38t36 -54q19 -44 7.5 -83.5t-52.5 -65.5q-33 -20 -48 -23t-46 8q-19 7 -27 26.5t-2 39.5l4 8q3 53 -43 79.5t-99 13.5t-69 -58q0 -12 -0.5 -33.5
t-0.5 -39t1 -33.5q6 -72 44 -140t108 -86q30 -6 86 -35q26 -12 26.5 -30t-24.5 -31q-47 -27 -82 -16q-13 3 -41 4t-41 4q-42 5 -64 -9t-34 -55q-9 -37 -48.5 -156.5t-41.5 -129.5q-26 -92 -37 -248q-9 -85 55 -152q10 -16 47 -16q118 -3 232 51q113 53 197 139.5t132 194.5
q52 127 86 250q0 2 9 2zM279 1499q5 10 14.5 33.5t17.5 32.5l224 256q24 31 63 4q5 -3 26.5 -17t28.5 -18.5t25 -17.5t27.5 -21.5t23.5 -21.5t24.5 -27t20.5 -29q3 -3 13.5 -9.5t13.5 -12.5q1 -2 8.5 -10t9.5 -11t8 -11.5t8 -13t5.5 -13t3.5 -16t-0.5 -17t-3.5 -19.5
q-4 -11 2.5 -48.5t-8.5 -53.5q-85 0 -146 43l-180 129q-25 9 -43 -15q-8 -10 -30.5 -29t-31.5 -32q-18 -23 -53 -31.5t-71 -3.5zM844 1696q-18 34 8 71q10 11 51 60t66 69q22 18 151 101l54 -25q0 -38 -3 -76q-4 -17 -6.5 -24.5t-11.5 -17t-23 -13.5q-10 0 -26 -20l-47 -45
q-86 -71 -213 -80z" />
    <glyph glyph-name="uni1EBF" unicode="&#x1ebf;" horiz-adv-x="843" 
d="M811 475l25 31q19 -57 -19 -109q-56 -86 -131 -160.5t-176 -154.5q-66 -51 -186 -55q-196 -3 -281 202q-86 205 4 392q74 157 154 297q46 81 133 118q55 12 112 14.5t72 -3.5q55 -13 66 -60q3 -13 20 -29.5t23 -25.5q40 -77 -4 -174q-4 -14 -17 -39.5t-41 -65
t-63.5 -74.5t-89.5 -65t-113 -39q-2 0 -18 -4q-51 -82 -74 -201q-12 -91 28 -133.5t127 -30.5q74 11 111 39q4 3 29.5 21t31 22.5t28 21t30.5 22.5t27.5 21.5t29 24t26 23.5t27.5 26t24.5 25.5t25.5 28.5q11 16 29.5 47.5t29.5 46.5zM279 522q34 7 64 21t46 24t45 31
q85 61 111.5 141t5.5 187q-8 38 -47 35q-55 -87 -92 -156t-55.5 -109.5t-24.5 -50.5q-9 -21 -20 -43t-19 -40t-14 -40zM154 1102q5 10 14.5 33t17.5 32l224 256q24 31 63 4q4 -3 30.5 -19.5t34 -22t28.5 -21t31.5 -26t25.5 -27.5t26 -35q3 -3 13.5 -10t13.5 -13q1 -1 10 -11
t11 -13t8.5 -12.5t8 -16t4 -16t1.5 -20t-4 -21.5q-4 -11 2.5 -49t-8.5 -54q-85 0 -146 43l-180 129q-25 10 -43 -14q-8 -10 -30 -29t-31 -32q-17 -23 -53 -31.5t-72 -3.5zM686 1368q-18 35 8 72q10 11 51 60t66 69q22 17 46.5 33.5t57.5 36.5t48 30l53 -24q0 -51 -2 -76
q-3 -14 -4.5 -19t-6 -14.5t-12 -14.5t-18.5 -8q-11 0 -27 -20l-47 -45q-86 -71 -213 -80z" />
    <glyph glyph-name="uni1EC0" unicode="&#x1ec0;" horiz-adv-x="1101" 
d="M1049 674q26 -4 41 -26t10 -48q-22 -141 -110 -306.5t-140 -217.5q-52 -59 -84.5 -83t-81.5 -42q-80 -31 -144 -42t-147 -5q-148 9 -260 104q-55 49 -98 158q-16 37 -25.5 86t-9.5 112.5t16 118.5q11 29 25.5 70.5t27 72.5t29.5 68q20 45 97 152q11 16 24.5 31.5t32 36.5
t29.5 34l-29 62q-33 71 -35 123q-5 64 34.5 140.5t98.5 104.5q66 37 140.5 49t118 6.5t65.5 -16.5q29 -17 55 -31t50 -38t36 -54q19 -44 7.5 -83.5t-52.5 -65.5q-33 -20 -48 -23t-46 8q-19 7 -27 26.5t-2 39.5l4 8q3 53 -43 79.5t-99 13.5t-69 -58q0 -12 -0.5 -33.5
t-0.5 -39t1 -33.5q6 -72 44 -140t108 -86q30 -6 86 -35q26 -12 26.5 -30t-24.5 -31q-47 -27 -82 -16q-13 3 -41 4t-41 4q-42 5 -64 -9t-34 -55q-9 -37 -48.5 -156.5t-41.5 -129.5q-26 -92 -37 -248q-9 -85 55 -152q10 -16 47 -16q118 -3 232 51q113 53 197 139.5t132 194.5
q52 127 86 250q0 2 9 2zM283 1505q5 10 14.5 33.5t17.5 32.5l224 256q24 31 63 4q5 -3 26.5 -17t28.5 -18.5t25 -17.5t27.5 -21.5t23.5 -21.5t24.5 -27t20.5 -29q3 -3 13.5 -9.5t13.5 -12.5q1 -2 8.5 -10t9.5 -11t8 -11.5t8 -13t5.5 -13t3.5 -16t-0.5 -17t-3.5 -19.5
q-4 -11 2.5 -48.5t-8.5 -53.5q-85 0 -146 43l-180 129q-25 10 -43 -14q-8 -10 -30 -29t-31 -33q-17 -23 -53 -31.5t-72 -3.5zM373 1718l-2 -14q-2 0 -24 -4.5t-36 -3.5q-98 3 -202 80q-24 19 -71 55.5t-71 56.5q76 101 180 58q26 -9 56 -52q25 -24 53.5 -53.5t63 -66
t53.5 -56.5z" />
    <glyph glyph-name="uni1EC1" unicode="&#x1ec1;" horiz-adv-x="843" 
d="M811 475l25 31q19 -57 -19 -109q-56 -86 -131 -160.5t-176 -154.5q-66 -51 -186 -55q-196 -3 -281 202q-86 205 4 392q74 157 154 297q46 81 133 118q55 12 112 14.5t72 -3.5q55 -13 66 -60q3 -13 20 -29.5t23 -25.5q40 -77 -4 -174q-4 -14 -17 -39.5t-41 -65
t-63.5 -74.5t-89.5 -65t-113 -39q-2 0 -18 -4q-51 -82 -74 -201q-12 -91 28 -133.5t127 -30.5q74 11 111 39q4 3 29.5 21t31 22.5t28 21t30.5 22.5t27.5 21.5t29 24t26 23.5t27.5 26t24.5 25.5t25.5 28.5q11 16 29.5 47.5t29.5 46.5zM279 522q34 7 64 21t46 24t45 31
q85 61 111.5 141t5.5 187q-8 38 -47 35q-55 -87 -92 -156t-55.5 -109.5t-24.5 -50.5q-9 -21 -20 -43t-19 -40t-14 -40zM156 1104q5 10 14.5 33t17.5 32l224 256q25 32 63 5q5 -3 26.5 -17t28.5 -18.5t25 -17.5t27.5 -21.5t23.5 -21.5t24.5 -27t20.5 -29q3 -3 13.5 -10
t13.5 -13q1 -1 10 -11t11 -13t8.5 -12.5t8 -16t4 -16t1.5 -20t-4 -21.5q-4 -11 2.5 -49t-8.5 -54q-85 0 -146 43l-180 129q-25 10 -43 -14q-8 -10 -30 -29t-31 -32q-17 -23 -53 -31.5t-72 -3.5zM285 1391l-2 -15q-2 0 -24 -4.5t-36 -3.5q-99 3 -203 80q-23 20 -70 56.5
t-71 56.5q75 100 180 57q27 -9 56 -51q25 -24 53.5 -53.5t63 -66t53.5 -56.5z" />
    <glyph glyph-name="uni1EC2" unicode="&#x1ec2;" horiz-adv-x="1101" 
d="M1049 674q26 -4 41 -26t10 -48q-22 -141 -110 -306.5t-140 -217.5q-52 -59 -84.5 -83t-81.5 -42q-80 -31 -144 -42t-147 -5q-148 9 -260 104q-55 49 -98 158q-16 37 -25.5 86t-9.5 112.5t16 118.5q11 29 25.5 70.5t27 72.5t29.5 68q20 45 97 152q11 16 24.5 31.5t32 36.5
t29.5 34l-29 62q-33 71 -35 123q-5 64 34.5 140.5t98.5 104.5q66 37 140.5 49t118 6.5t65.5 -16.5q29 -17 55 -31t50 -38t36 -54q19 -44 7.5 -83.5t-52.5 -65.5q-33 -20 -48 -23t-46 8q-19 7 -27 26.5t-2 39.5l4 8q3 53 -43 79.5t-99 13.5t-69 -58q0 -12 -0.5 -33.5
t-0.5 -39t1 -33.5q6 -72 44 -140t108 -86q30 -6 86 -35q26 -12 26.5 -30t-24.5 -31q-47 -27 -82 -16q-13 3 -41 4t-41 4q-42 5 -64 -9t-34 -55q-9 -37 -48.5 -156.5t-41.5 -129.5q-26 -92 -37 -248q-9 -85 55 -152q10 -16 47 -16q118 -3 232 51q113 53 197 139.5t132 194.5
q52 127 86 250q0 2 9 2zM279 1505q5 10 14.5 33.5t17.5 32.5l224 256q24 31 63 4q5 -3 26.5 -17t28.5 -18.5t25 -17.5t27.5 -21.5t23.5 -21.5t24.5 -27t20.5 -29q3 -3 13.5 -9.5t13.5 -12.5q1 -2 8.5 -10t9.5 -11t8 -11.5t8 -13t5.5 -13t3.5 -16t-0.5 -17t-3.5 -19.5
q-4 -11 2.5 -48.5t-8.5 -53.5q-85 0 -146 43l-180 129q-25 10 -43 -14q-8 -10 -30.5 -29t-31.5 -33q-18 -23 -53 -31.5t-71 -3.5zM881 1671q-25 5 -40.5 26t-11.5 46q3 17 13 28.5t32.5 27t32.5 24.5q26 20 39 53q5 32 4 35q-9 27 -39 39q-11 0 -16 -6q-13 -10 -10 -21
q26 -69 -41 -102q-25 -11 -48.5 -2.5t-33.5 34.5l-6 15q-13 55 8 84q6 24 18 42t31 30t32 18t36 14q7 7 22 4q3 -1 33 -10.5t45 -19.5q38 -23 68 -64q33 -50 16 -94q-22 -63 -59 -109q-27 -30 -60 -41l-18 -12q-18 -49 -47 -39z" />
    <glyph glyph-name="uni1EC3" unicode="&#x1ec3;" horiz-adv-x="843" 
d="M811 475l25 31q19 -57 -19 -109q-56 -86 -131 -160.5t-176 -154.5q-66 -51 -186 -55q-196 -3 -281 202q-86 205 4 392q74 157 154 297q46 81 133 118q55 12 112 14.5t72 -3.5q55 -13 66 -60q3 -13 20 -29.5t23 -25.5q40 -77 -4 -174q-4 -14 -17 -39.5t-41 -65
t-63.5 -74.5t-89.5 -65t-113 -39q-2 0 -18 -4q-51 -82 -74 -201q-12 -91 28 -133.5t127 -30.5q74 11 111 39q4 3 29.5 21t31 22.5t28 21t30.5 22.5t27.5 21.5t29 24t26 23.5t27.5 26t24.5 25.5t25.5 28.5q11 16 29.5 47.5t29.5 46.5zM279 522q34 7 64 21t46 24t45 31
q85 61 111.5 141t5.5 187q-8 38 -47 35q-55 -87 -92 -156t-55.5 -109.5t-24.5 -50.5q-9 -21 -20 -43t-19 -40t-14 -40zM156 1104q5 10 14.5 33t17.5 32l224 256q25 32 63 5q5 -3 26.5 -17t28.5 -18.5t25 -17.5t27.5 -21.5t23.5 -21.5t24.5 -27t20.5 -29q3 -3 13.5 -10
t13.5 -13q1 -1 10 -11t11 -13t8.5 -12.5t8 -16t4 -16t1.5 -20t-4 -21.5q-4 -11 2.5 -49t-8.5 -54q-85 0 -146 43l-180 129q-25 10 -43 -14q-8 -10 -30 -29t-31 -32q-17 -23 -53 -31.5t-72 -3.5zM715 1323q-25 5 -40 26t-11 46q3 17 13 28.5t32 27t32 24.5q26 20 39 53
q5 32 4 35q-9 27 -39 39q-11 0 -16 -7q-13 -10 -10 -20q26 -69 -41 -102q-25 -11 -48.5 -2.5t-33.5 34.5l-6 15q-13 55 8 84q6 24 18 42t31 30t32 18t36 14q7 7 22 4l31 -10q32 -11 47 -21q39 -23 68 -63q33 -50 16 -94q-22 -63 -59 -109q-27 -30 -60 -41l-18 -12
q-18 -49 -47 -39z" />
    <glyph glyph-name="uni1EC4" unicode="&#x1ec4;" horiz-adv-x="1101" 
d="M1049 674q26 -4 41 -26t10 -48q-22 -141 -110 -306.5t-140 -217.5q-52 -59 -84.5 -83t-81.5 -42q-80 -31 -144 -42t-147 -5q-148 9 -260 104q-55 49 -98 158q-16 37 -25.5 86t-9.5 112.5t16 118.5q11 29 25.5 70.5t27 72.5t29.5 68q20 45 97 152q11 16 24.5 31.5t32 36.5
t29.5 34l-29 62q-33 71 -35 123q-5 64 34.5 140.5t98.5 104.5q66 37 140.5 49t118 6.5t65.5 -16.5q29 -17 55 -31t50 -38t36 -54q19 -44 7.5 -83.5t-52.5 -65.5q-33 -20 -48 -23t-46 8q-19 7 -27 26.5t-2 39.5l4 8q3 53 -43 79.5t-99 13.5t-69 -58q0 -12 -0.5 -33.5
t-0.5 -39t1 -33.5q6 -72 44 -140t108 -86q30 -6 86 -35q26 -12 26.5 -30t-24.5 -31q-47 -27 -82 -16q-13 3 -41 4t-41 4q-42 5 -64 -9t-34 -55q-9 -37 -48.5 -156.5t-41.5 -129.5q-26 -92 -37 -248q-9 -85 55 -152q10 -16 47 -16q118 -3 232 51q113 53 197 139.5t132 194.5
q52 127 86 250q0 2 9 2zM279 1505q5 10 14.5 33.5t17.5 32.5l224 256q24 31 63 4q5 -3 26.5 -17t28.5 -18.5t25 -17.5t27.5 -21.5t23.5 -21.5t24.5 -27t20.5 -29q3 -3 13.5 -9.5t13.5 -12.5q1 -2 8.5 -10t9.5 -11t8 -11.5t8 -13t5.5 -13t3.5 -16t-0.5 -17t-3.5 -19.5
q-4 -11 2.5 -48.5t-8.5 -53.5q-85 0 -146 43l-180 129q-25 10 -43 -14q-8 -10 -30.5 -29t-31.5 -33q-18 -23 -53 -31.5t-71 -3.5zM831 1939q18 16 76 91q20 22 32.5 35t35 30.5t49.5 32.5q46 -15 37 -62q-22 -84 -23 -88q-2 -16 -16 -49q-33 -99 -148 -96q-82 3 -151 72
q-15 14 -40 41t-34 36q-17 17 -20 15q-53 -53 -92 -84l-84 -66q-47 -35 -62 43q-12 79 53 144q81 70 207 57q54 -6 88 -49q8 -9 22.5 -31t22.5 -31q23 -23 47 -41z" />
    <glyph glyph-name="uni1EC5" unicode="&#x1ec5;" horiz-adv-x="843" 
d="M811 475l25 31q19 -57 -19 -109q-56 -86 -131 -160.5t-176 -154.5q-66 -51 -186 -55q-196 -3 -281 202q-86 205 4 392q74 157 154 297q46 81 133 118q55 12 112 14.5t72 -3.5q55 -13 66 -60q3 -13 20 -29.5t23 -25.5q40 -77 -4 -174q-4 -14 -17 -39.5t-41 -65
t-63.5 -74.5t-89.5 -65t-113 -39q-2 0 -18 -4q-51 -82 -74 -201q-12 -91 28 -133.5t127 -30.5q74 11 111 39q4 3 29.5 21t31 22.5t28 21t30.5 22.5t27.5 21.5t29 24t26 23.5t27.5 26t24.5 25.5t25.5 28.5q11 16 29.5 47.5t29.5 46.5zM279 522q34 7 64 21t46 24t45 31
q85 61 111.5 141t5.5 187q-8 38 -47 35q-55 -87 -92 -156t-55.5 -109.5t-24.5 -50.5q-9 -21 -20 -43t-19 -40t-14 -40zM156 1102q5 10 14.5 33t17.5 32l224 256q24 31 63 4q4 -3 30.5 -19.5t34 -22t28.5 -21t31.5 -26t25.5 -27.5t26 -35q3 -3 13.5 -10t13.5 -13q1 -1 10 -11
t11 -13t8.5 -12.5t8 -16t4 -16t1.5 -20t-4 -21.5q-4 -11 2.5 -49t-8.5 -54q-85 0 -146 43l-180 129q-25 10 -43 -14q-8 -10 -30 -29t-31 -32q-17 -23 -53 -31.5t-72 -3.5zM666 1520q17 15 75 90q20 22 32.5 35t35 30.5t49.5 32.5q45 -15 37 -61q-22 -83 -23 -88
q-2 -18 -16 -50q-33 -99 -147 -96q-83 3 -152 72q-15 14 -39.5 41t-34.5 37q-4 4 -8.5 7.5t-8 5.5t-3.5 1q-53 -53 -92 -84l-84 -66q-47 -35 -62 43q-12 78 54 144q80 70 206 57q54 -6 88 -49q8 -9 22.5 -30.5t22.5 -30.5q20 -20 48 -41z" />
    <glyph glyph-name="uni1EC6" unicode="&#x1ec6;" horiz-adv-x="1101" 
d="M1049 674q26 -4 41 -26t10 -48q-22 -141 -110 -306.5t-140 -217.5q-52 -59 -84.5 -83t-81.5 -42q-80 -31 -144 -42t-147 -5q-148 9 -260 104q-55 49 -98 158q-16 37 -25.5 86t-9.5 112.5t16 118.5q11 29 25.5 70.5t27 72.5t29.5 68q20 45 97 152q11 16 24.5 31.5t32 36.5
t29.5 34l-29 62q-33 71 -35 123q-5 64 34.5 140.5t98.5 104.5q66 37 140.5 49t118 6.5t65.5 -16.5q29 -17 55 -31t50 -38t36 -54q19 -44 7.5 -83.5t-52.5 -65.5q-33 -20 -48 -23t-46 8q-19 7 -27 26.5t-2 39.5l4 8q3 53 -43 79.5t-99 13.5t-69 -58q0 -12 -0.5 -33.5
t-0.5 -39t1 -33.5q6 -72 44 -140t108 -86q30 -6 86 -35q26 -12 26.5 -30t-24.5 -31q-47 -27 -82 -16q-13 3 -41 4t-41 4q-42 5 -64 -9t-34 -55q-9 -37 -48.5 -156.5t-41.5 -129.5q-26 -92 -37 -248q-9 -85 55 -152q10 -16 47 -16q118 -3 232 51q113 53 197 139.5t132 194.5
q52 127 86 250q0 2 9 2zM279 1505q5 10 14.5 33.5t17.5 32.5l224 256q24 31 63 4q5 -3 26.5 -17t28.5 -18.5t25 -17.5t27.5 -21.5t23.5 -21.5t24.5 -27t20.5 -29q3 -3 13.5 -9.5t13.5 -12.5q1 -2 8.5 -10t9.5 -11t8 -11.5t8 -13t5.5 -13t3.5 -16t-0.5 -17t-3.5 -19.5
q-4 -11 2.5 -48.5t-8.5 -53.5q-85 0 -146 43l-180 129q-25 10 -43 -14q-8 -10 -30.5 -29t-31.5 -33q-18 -23 -53 -31.5t-71 -3.5zM336 -528q-24 0 -52 27q-40 36 -59 110q-15 58 33 94q62 44 174 76q37 10 61 -10t29 -62q0 -28 -4 -106q-3 -46 -37 -76l-4 -4
q-19 -44 -49 -52t-92 3z" />
    <glyph glyph-name="uni1EC7" unicode="&#x1ec7;" horiz-adv-x="843" 
d="M811 475l25 31q19 -57 -19 -109q-56 -86 -131 -160.5t-176 -154.5q-66 -51 -186 -55q-196 -3 -281 202q-86 205 4 392q74 157 154 297q46 81 133 118q55 12 112 14.5t72 -3.5q55 -13 66 -60q3 -13 20 -29.5t23 -25.5q40 -77 -4 -174q-4 -14 -17 -39.5t-41 -65
t-63.5 -74.5t-89.5 -65t-113 -39q-2 0 -18 -4q-51 -82 -74 -201q-12 -91 28 -133.5t127 -30.5q74 11 111 39q4 3 29.5 21t31 22.5t28 21t30.5 22.5t27.5 21.5t29 24t26 23.5t27.5 26t24.5 25.5t25.5 28.5q11 16 29.5 47.5t29.5 46.5zM279 522q34 7 64 21t46 24t45 31
q85 61 111.5 141t5.5 187q-8 38 -47 35q-55 -87 -92 -156t-55.5 -109.5t-24.5 -50.5q-9 -21 -20 -43t-19 -40t-14 -40zM156 1102q5 10 14.5 33t17.5 32l224 256q24 31 63 4q4 -3 30.5 -19.5t34 -22t28.5 -21t31.5 -26t25.5 -27.5t26 -35q3 -3 13.5 -10t13.5 -13q1 -1 10 -11
t11 -13t8.5 -12.5t8 -16t4 -16t1.5 -20t-4 -21.5q-4 -11 2.5 -49t-8.5 -54q-85 0 -146 43l-180 129q-25 10 -43 -14q-8 -10 -30 -29t-31 -32q-17 -23 -53 -31.5t-72 -3.5zM201 -348q-24 0 -52 27q-40 36 -59 110q-15 58 33 94q62 44 174 76q37 10 61 -10t29 -62
q0 -28 -4 -106q-3 -46 -37 -76l-4 -4q-19 -44 -49 -52t-92 3z" />
    <glyph glyph-name="uni1EC8" unicode="&#x1ec8;" horiz-adv-x="583" 
d="M446 102q10 -8 22 -10.5t28.5 -3t27.5 -2.5q41 -5 52 -24t-1 -66q-11 -1 -45 -4.5t-53 -3.5q-71 -2 -215 2q-22 0 -45 10q-16 3 -47 7t-47 7q-34 5 -123 9q0 20 7.5 33.5t22.5 19.5t27.5 8.5t33.5 3.5t28 2q-6 80 19.5 562t41.5 548q4 9 4 33q-31 21 -87.5 56t-82.5 52
q42 30 92 17q239 -58 308 -78q14 -4 27 -10.5t30.5 -18.5t24.5 -16q7 -5 11.5 -15t0.5 -14q-10 -19 -27 -22q-18 -4 -80 -4q7 -65 31.5 -478t24.5 -471q0 -39 -11 -129zM287 1391q-25 5 -40 25.5t-11 45.5q3 17 13 28.5t32 27t32 24.5q26 20 39 53q5 32 4 35q-9 27 -39 39
q-11 0 -16 -6q-13 -10 -10 -21q26 -69 -41 -102q-25 -11 -48.5 -2t-33.5 35l-6 14q-13 55 8 84q7 32 29 54.5t40 31t48 19.5q7 7 22 4l31 -10q32 -11 47 -21q39 -23 68 -63q34 -51 16 -95q-21 -62 -59 -108q-27 -30 -60 -41l-18 -12q-18 -49 -47 -39z" />
    <glyph glyph-name="uni1EC9" unicode="&#x1ec9;" horiz-adv-x="675" 
d="M252 967q59 9 77.5 0t43.5 -56q32 -70 26 -120q-6 -66 -51.5 -250.5t-77 -330.5t-14.5 -159q23 -14 39 -4q22 15 51 47.5t68 85.5t61 83.5t64 93t43 63.5q8 12 18 23.5t26 28.5t21 22q41 -10 21 -35q-31 -40 -111 -168t-137 -187l-72 -75q-40 -39 -143.5 -36.5
t-143.5 42.5q-46 46 -55 117q-19 194 51 419q13 43 31.5 124.5t28.5 117.5q8 27 17 48.5t25 49.5t40 43t53 13zM287 1042q-25 5 -40 26t-11 46q3 17 13 28.5t32 27t32 24.5q26 20 39 53q5 32 4 35q-9 27 -39 39q-11 0 -16 -6q-13 -10 -10 -21q26 -69 -41 -102
q-25 -11 -48.5 -2t-33.5 35l-6 14q-13 55 8 84q6 24 18 42t31 30t32 18t36 14q8 8 22 5l31 -10q32 -11 47 -21q38 -23 68 -64q33 -50 16 -94q-21 -62 -59 -108q-27 -30 -60 -41l-18 -13q-18 -49 -47 -39z" />
    <glyph glyph-name="uni1ECA" unicode="&#x1eca;" horiz-adv-x="583" 
d="M446 102q10 -8 22 -10.5t28.5 -3t27.5 -2.5q41 -5 52 -24t-1 -66q-11 -1 -45 -4.5t-53 -3.5q-71 -2 -215 2q-22 0 -45 10q-16 3 -47 7t-47 7q-34 5 -123 9q0 20 7.5 33.5t22.5 19.5t27.5 8.5t33.5 3.5t28 2q-6 80 19.5 562t41.5 548q4 9 4 33q-31 21 -87.5 56t-82.5 52
q42 30 92 17q239 -58 308 -78q14 -4 27 -10.5t30.5 -18.5t24.5 -16q7 -5 11.5 -15t0.5 -14q-10 -19 -27 -22q-18 -4 -80 -4q7 -65 31.5 -478t24.5 -471q0 -39 -11 -129zM256 -350q-24 0 -52 27q-40 36 -59 110q-15 58 33 94q62 44 174 76q37 10 61 -10t29 -62q0 -28 -4 -106
q-3 -46 -37 -76l-4 -4q-19 -44 -49 -52t-92 3z" />
    <glyph glyph-name="uni1ECB" unicode="&#x1ecb;" horiz-adv-x="675" 
d="M252 967q59 9 77.5 0t43.5 -56q32 -70 26 -120q-6 -66 -51.5 -250.5t-77 -330.5t-14.5 -159q23 -14 39 -4q22 15 51 47.5t68 85.5t61 83.5t64 93t43 63.5q8 12 18 23.5t26 28.5t21 22q41 -10 21 -35q-31 -40 -111 -168t-137 -187l-72 -75q-40 -39 -143.5 -36.5
t-143.5 42.5q-46 46 -55 117q-19 194 51 419q13 43 31.5 124.5t28.5 117.5q8 27 17 48.5t25 49.5t40 43t53 13zM420 1227q-2 -3 -5.5 -25t-11.5 -33q-29 -42 -75.5 -45.5t-81.5 33.5q-42 41 -39.5 65t51.5 56q50 29 94 37q34 6 48 -8t16 -50q0 -3 0.5 -6.5l1.5 -10.5t2 -13z
M104 -430q-23 0 -52 27q-39 36 -58 110q-15 58 33 94q62 44 174 76q37 10 61 -10t29 -62q0 -28 -4 -106q-3 -46 -37 -76l-4 -4q-19 -44 -49.5 -52t-92.5 3z" />
    <glyph glyph-name="uni1ECC" unicode="&#x1ecc;" horiz-adv-x="1273" 
d="M692 1401q4 -18 4.5 -37t-2 -33.5t-8.5 -34.5t-11 -32.5t-14.5 -34.5t-13.5 -33h37q70 7 139 -55q10 -10 13 -19q2 -6 11 -35t14.5 -51t16 -73.5t13 -102t6.5 -137.5t-2 -180q53 -22 123 10q15 7 45 21.5t47.5 23t42 22t45.5 27.5q55 36 70 8q11 -17 5 -35t-26 -28
q-64 -36 -156 -73.5t-139 -41.5q-35 -4 -50 -17t-23 -44q-35 -148 -136 -289q-64 -91 -102 -131q-29 -31 -88 -41q-2 0 -8 -1q-322 -44 -469 193q-19 35 -33.5 83t-19.5 75t-15 88q-16 97 -1 195t52 211q44 129 83 220.5t94 174.5q20 30 102 131q7 9 15 16t19 12.5l17 8.5
t21 8.5t20 7.5q90 33 227 33q12 0 35 -10zM492 903q-26 -56 -45.5 -104t-41 -111t-34.5 -126.5t-21.5 -135.5t-7 -153.5t13.5 -166.5q4 -29 25 -38q65 -38 123 -13q73 36 106 103q35 56 67 200t32 174q-5 33 -15 43q-91 112 -202 328zM719 672q3 0 8 1t8 1q0 24 -4 74
q-7 97 -26 227.5t-39 150.5q-36 47 -66 29q-17 -12 -25 -34.5t-4 -45.5q0 -4 2 -11t2 -11q24 -116 25 -148q7 -116 119 -233zM270 -471q-23 0 -52 27q-39 36 -58 110q-15 58 33 94q62 44 174 76q37 10 61 -10t29 -62q0 -28 -4 -106q-3 -46 -37 -76l-4 -4q-19 -44 -49.5 -52
t-92.5 3z" />
    <glyph glyph-name="uni1ECD" unicode="&#x1ecd;" horiz-adv-x="962" 
d="M408 913q13 3 38 6.5t39 6.5q99 12 168 -107q81 -177 64 -317l-17 -64q9 0 23.5 -1.5t25.5 -1.5t21 3q108 37 123 43q30 13 39 13q4 0 9.5 -2.5t12 -7.5t9.5 -7q0 -11 -50 -43.5t-79 -36.5q-23 -5 -71 -8.5t-65 -5.5q-5 -12 -50 -101t-60 -112q-103 -146 -277 -125
q-109 12 -193.5 94t-105.5 191q-21 87 -6 174q23 137 50 234t77 186q24 42 64 88q26 29 42.5 31.5t51.5 -15.5q33 -18 50.5 -29.5t38.5 -35t28 -50.5zM592 438l-178 189q-8 -19 -23 -58t-18 -45q-63 -155 -70 -172q-45 -105 10 -207q19 -35 41.5 -42t57.5 10q52 23 80 92
q68 156 100 233zM467 889q-3 -16 -11.5 -60t-11.5 -69q-11 -72 21 -117q4 -6 15 -22t19.5 -27t18.5 -21q19 -23 76 -71q39 96 -6 313q-11 39 -42.5 58.5t-78.5 15.5zM270 -342q-23 0 -52 27q-39 36 -58 110q-15 58 33 94q62 44 174 76q38 10 61.5 -9.5t28.5 -61.5
q0 -29 -4 -107q-3 -46 -37 -76l-4 -4q-19 -44 -49.5 -52t-92.5 3z" />
    <glyph glyph-name="uni1ECE" unicode="&#x1ece;" horiz-adv-x="1273" 
d="M692 1401q4 -18 4.5 -37t-2 -33.5t-8.5 -34.5t-11 -32.5t-14.5 -34.5t-13.5 -33h37q70 7 139 -55q10 -10 13 -19q2 -6 11 -35t14.5 -51t16 -73.5t13 -102t6.5 -137.5t-2 -180q53 -22 123 10q15 7 45 21.5t47.5 23t42 22t45.5 27.5q55 36 70 8q11 -17 5 -35t-26 -28
q-64 -36 -156 -73.5t-139 -41.5q-35 -4 -50 -17t-23 -44q-35 -148 -136 -289q-64 -91 -102 -131q-29 -31 -88 -41q-2 0 -8 -1q-322 -44 -469 193q-19 35 -33.5 83t-19.5 75t-15 88q-16 97 -1 195t52 211q44 129 83 220.5t94 174.5q20 30 102 131q7 9 15 16t19 12.5l17 8.5
t21 8.5t20 7.5q90 33 227 33q12 0 35 -10zM492 903q-26 -56 -45.5 -104t-41 -111t-34.5 -126.5t-21.5 -135.5t-7 -153.5t13.5 -166.5q4 -29 25 -38q65 -38 123 -13q73 36 106 103q35 56 67 200t32 174q-5 33 -15 43q-91 112 -202 328zM719 672q3 0 8 1t8 1q0 24 -4 74
q-7 97 -26 227.5t-39 150.5q-36 47 -66 29q-17 -12 -25 -34.5t-4 -45.5q0 -4 2 -11t2 -11q24 -116 25 -148q7 -116 119 -233zM629 1479q-25 5 -40 25.5t-11 45.5q3 17 13 28.5t32 27t32 24.5q26 20 39 53q5 32 4 35q-9 27 -39 39q-11 0 -16 -6q-13 -10 -10 -20
q27 -70 -41 -103q-25 -11 -48.5 -2t-33.5 35l-6 14q-13 55 8 84q7 32 29 54.5t40 31t48 19.5q7 7 22 4l31 -10q32 -11 47 -21q39 -23 68 -63q34 -51 16 -95q-21 -62 -59 -108q-27 -30 -60 -41l-18 -12q-18 -49 -47 -39z" />
    <glyph glyph-name="uni1ECF" unicode="&#x1ecf;" horiz-adv-x="962" 
d="M408 913q13 3 38 6.5t39 6.5q99 12 168 -107q81 -177 64 -317l-17 -64q9 0 23.5 -1.5t25.5 -1.5t21 3q108 37 123 43q30 13 39 13q4 0 9.5 -2.5t12 -7.5t9.5 -7q0 -11 -50 -43.5t-79 -36.5q-23 -5 -71 -8.5t-65 -5.5q-5 -12 -50 -101t-60 -112q-103 -146 -277 -125
q-109 12 -193.5 94t-105.5 191q-21 87 -6 174q23 137 50 234t77 186q24 42 64 88q26 29 42.5 31.5t51.5 -15.5q33 -18 50.5 -29.5t38.5 -35t28 -50.5zM592 438l-178 189q-8 -19 -23 -58t-18 -45q-63 -155 -70 -172q-45 -105 10 -207q19 -35 41.5 -42t57.5 10q52 23 80 92
q68 156 100 233zM467 889q-3 -16 -11.5 -60t-11.5 -69q-11 -72 21 -117q4 -6 15 -22t19.5 -27t18.5 -21q19 -23 76 -71q39 96 -6 313q-11 39 -42.5 58.5t-78.5 15.5zM442 1042q-25 5 -40 26t-11 46q3 17 13 28.5t32.5 27t32.5 24.5q26 20 39 53q5 32 4 35q-9 27 -39 39
q-12 0 -16 -6q-14 -11 -11 -21q27 -69 -40 -102q-25 -11 -48.5 -2t-33.5 35l-7 14q-13 53 9 84q7 32 28.5 54t39 30.5t48.5 19.5q8 8 23 5l31 -10q32 -11 47 -21q36 -22 67 -64q34 -51 17 -94q-20 -59 -60 -108q-27 -31 -59 -41l-19 -13q-18 -49 -47 -39z" />
    <glyph glyph-name="uni1ED0" unicode="&#x1ed0;" horiz-adv-x="1273" 
d="M692 1401q4 -18 4.5 -37t-2 -33.5t-8.5 -34.5t-11 -32.5t-14.5 -34.5t-13.5 -33h37q70 7 139 -55q10 -10 13 -19q2 -6 11 -35t14.5 -51t16 -73.5t13 -102t6.5 -137.5t-2 -180q53 -22 123 10q15 7 45 21.5t47.5 23t42 22t45.5 27.5q55 36 70 8q11 -17 5 -35t-26 -28
q-64 -36 -156 -73.5t-139 -41.5q-35 -4 -50 -17t-23 -44q-35 -148 -136 -289q-64 -91 -102 -131q-29 -31 -88 -41q-2 0 -8 -1q-322 -44 -469 193q-19 35 -33.5 83t-19.5 75t-15 88q-16 97 -1 195t52 211q44 129 83 220.5t94 174.5q20 30 102 131q7 9 15 16t19 12.5l17 8.5
t21 8.5t20 7.5q90 33 227 33q12 0 35 -10zM492 903q-26 -56 -45.5 -104t-41 -111t-34.5 -126.5t-21.5 -135.5t-7 -153.5t13.5 -166.5q4 -29 25 -38q65 -38 123 -13q73 36 106 103q35 56 67 200t32 174q-5 33 -15 43q-91 112 -202 328zM719 672q3 0 8 1t8 1q0 24 -4 74
q-7 97 -26 227.5t-39 150.5q-36 47 -66 29q-17 -12 -25 -34.5t-4 -45.5q0 -4 2 -11t2 -11q24 -116 25 -148q7 -116 119 -233zM279 1503q5 10 14.5 33.5t17.5 32.5l224 256q24 31 63 4q5 -3 26.5 -17t28.5 -18.5t25 -17.5t27.5 -21.5t23.5 -21.5t24.5 -27t20.5 -29
q3 -3 13.5 -9.5t13.5 -12.5q1 -2 8.5 -10t9.5 -11t8 -11.5t8 -13t5.5 -13t3.5 -16t-0.5 -17t-3.5 -19.5q-4 -11 2.5 -48.5t-8.5 -53.5q-85 0 -146 43l-180 129q-25 9 -43 -15q-8 -10 -30.5 -29t-31.5 -32q-18 -23 -53 -31.5t-71 -3.5zM844 1700q-18 35 8 72q10 11 51 60
t66 69q22 18 46 34t57.5 36.5t47.5 29.5l54 -25q0 -37 -3 -75q-3 -14 -4.5 -19t-6 -14.5t-12 -14.5t-18.5 -8q-10 0 -26 -20l-47 -45q-86 -71 -213 -80z" />
    <glyph glyph-name="uni1ED1" unicode="&#x1ed1;" horiz-adv-x="962" 
d="M408 913q13 3 38 6.5t39 6.5q99 12 168 -107q81 -177 64 -317l-17 -64q9 0 23.5 -1.5t25.5 -1.5t21 3q108 37 123 43q30 13 39 13q4 0 9.5 -2.5t12 -7.5t9.5 -7q0 -11 -50 -43.5t-79 -36.5q-23 -5 -71 -8.5t-65 -5.5q-5 -12 -50 -101t-60 -112q-103 -146 -277 -125
q-109 12 -193.5 94t-105.5 191q-21 87 -6 174q23 137 50 234t77 186q24 42 64 88q26 29 42.5 31.5t51.5 -15.5q33 -18 50.5 -29.5t38.5 -35t28 -50.5zM592 438l-178 189q-8 -19 -23 -58t-18 -45q-63 -155 -70 -172q-45 -105 10 -207q19 -35 41.5 -42t57.5 10q52 23 80 92
q68 156 100 233zM467 889q-3 -16 -11.5 -60t-11.5 -69q-11 -72 21 -117q4 -6 15 -22t19.5 -27t18.5 -21q19 -23 76 -71q39 96 -6 313q-11 39 -42.5 58.5t-78.5 15.5zM156 1104q5 10 14.5 33t17.5 32l224 256q25 32 63 5q5 -3 26.5 -17t28.5 -18.5t25 -17.5t27.5 -21.5
t23.5 -21.5t24.5 -27t20.5 -29q3 -3 13.5 -10t13.5 -13q1 -1 10 -11t11 -13t8.5 -12.5t8 -16t4 -16t1.5 -20t-4 -21.5q-4 -11 2.5 -49t-8.5 -54q-85 0 -146 43l-180 129q-25 10 -43 -14q-8 -10 -30 -29t-31 -32q-17 -23 -53 -31.5t-72 -3.5zM688 1339q-18 35 8 72
q10 11 51 60t66 69q22 17 46.5 33.5t57.5 36.5t48 30l53 -24q0 -51 -2 -76q-4 -17 -6.5 -24.5t-11.5 -17t-23 -13.5q-10 0 -27 -21l-47 -45q-86 -71 -213 -80z" />
    <glyph glyph-name="uni1ED2" unicode="&#x1ed2;" horiz-adv-x="1273" 
d="M692 1401q4 -18 4.5 -37t-2 -33.5t-8.5 -34.5t-11 -32.5t-14.5 -34.5t-13.5 -33h37q70 7 139 -55q10 -10 13 -19q2 -6 11 -35t14.5 -51t16 -73.5t13 -102t6.5 -137.5t-2 -180q53 -22 123 10q15 7 45 21.5t47.5 23t42 22t45.5 27.5q55 36 70 8q11 -17 5 -35t-26 -28
q-64 -36 -156 -73.5t-139 -41.5q-35 -4 -50 -17t-23 -44q-35 -148 -136 -289q-64 -91 -102 -131q-29 -31 -88 -41q-2 0 -8 -1q-322 -44 -469 193q-19 35 -33.5 83t-19.5 75t-15 88q-16 97 -1 195t52 211q44 129 83 220.5t94 174.5q20 30 102 131q7 9 15 16t19 12.5l17 8.5
t21 8.5t20 7.5q90 33 227 33q12 0 35 -10zM492 903q-26 -56 -45.5 -104t-41 -111t-34.5 -126.5t-21.5 -135.5t-7 -153.5t13.5 -166.5q4 -29 25 -38q65 -38 123 -13q73 36 106 103q35 56 67 200t32 174q-5 33 -15 43q-91 112 -202 328zM719 672q3 0 8 1t8 1q0 24 -4 74
q-7 97 -26 227.5t-39 150.5q-36 47 -66 29q-17 -12 -25 -34.5t-4 -45.5q0 -4 2 -11t2 -11q24 -116 25 -148q7 -116 119 -233zM279 1505q5 10 14.5 33.5t17.5 32.5l224 256q24 31 63 4q5 -3 26.5 -17t28.5 -18.5t25 -17.5t27.5 -21.5t23.5 -21.5t24.5 -27t20.5 -29
q3 -3 13.5 -9.5t13.5 -12.5q1 -2 8.5 -10t9.5 -11t8 -11.5t8 -13t5.5 -13t3.5 -16t-0.5 -17t-3.5 -19.5q-4 -11 2.5 -48.5t-8.5 -53.5q-85 0 -146 43l-180 129q-25 10 -43 -14q-8 -10 -30.5 -29t-31.5 -33q-18 -23 -53 -31.5t-71 -3.5zM369 1718l-2 -14q-2 0 -24 -4.5
t-36 -3.5q-99 3 -203 80q-23 20 -70 56.5t-71 55.5q76 101 180 58q26 -9 56 -52q25 -24 53.5 -53.5t63 -66t53.5 -56.5z" />
    <glyph glyph-name="uni1ED3" unicode="&#x1ed3;" horiz-adv-x="962" 
d="M408 913q13 3 38 6.5t39 6.5q99 12 168 -107q81 -177 64 -317l-17 -64q9 0 23.5 -1.5t25.5 -1.5t21 3q108 37 123 43q30 13 39 13q4 0 9.5 -2.5t12 -7.5t9.5 -7q0 -11 -50 -43.5t-79 -36.5q-23 -5 -71 -8.5t-65 -5.5q-5 -12 -50 -101t-60 -112q-103 -146 -277 -125
q-109 12 -193.5 94t-105.5 191q-21 87 -6 174q23 137 50 234t77 186q24 42 64 88q26 29 42.5 31.5t51.5 -15.5q33 -18 50.5 -29.5t38.5 -35t28 -50.5zM592 438l-178 189q-8 -19 -23 -58t-18 -45q-63 -155 -70 -172q-45 -105 10 -207q19 -35 41.5 -42t57.5 10q52 23 80 92
q68 156 100 233zM467 889q-3 -16 -11.5 -60t-11.5 -69q-11 -72 21 -117q4 -6 15 -22t19.5 -27t18.5 -21q19 -23 76 -71q39 96 -6 313q-11 39 -42.5 58.5t-78.5 15.5zM156 1104q5 10 14.5 33t17.5 32l224 256q25 32 63 5q5 -3 26.5 -17t28.5 -18.5t25 -17.5t27.5 -21.5
t23.5 -21.5t24.5 -27t20.5 -29q3 -3 13.5 -10t13.5 -13q1 -1 10 -11t11 -13t8.5 -12.5t8 -16t4 -16t1.5 -20t-4 -21.5q-4 -11 2.5 -49t-8.5 -54q-85 0 -146 43l-180 129q-25 10 -43 -14q-8 -10 -30 -29t-31 -32q-17 -23 -53 -31.5t-72 -3.5zM289 1399l-2 -15q-2 0 -24 -4.5
t-36 -3.5q-98 3 -202 80q-24 20 -71 56.5t-71 56.5q75 100 180 57q27 -9 56 -51q25 -24 53.5 -53.5t63 -66t53.5 -56.5z" />
    <glyph glyph-name="uni1ED4" unicode="&#x1ed4;" horiz-adv-x="1273" 
d="M692 1401q4 -18 4.5 -37t-2 -33.5t-8.5 -34.5t-11 -32.5t-14.5 -34.5t-13.5 -33h37q70 7 139 -55q10 -10 13 -19q2 -6 11 -35t14.5 -51t16 -73.5t13 -102t6.5 -137.5t-2 -180q53 -22 123 10q15 7 45 21.5t47.5 23t42 22t45.5 27.5q55 36 70 8q11 -17 5 -35t-26 -28
q-64 -36 -156 -73.5t-139 -41.5q-35 -4 -50 -17t-23 -44q-35 -148 -136 -289q-64 -91 -102 -131q-29 -31 -88 -41q-2 0 -8 -1q-322 -44 -469 193q-19 35 -33.5 83t-19.5 75t-15 88q-16 97 -1 195t52 211q44 129 83 220.5t94 174.5q20 30 102 131q7 9 15 16t19 12.5l17 8.5
t21 8.5t20 7.5q90 33 227 33q12 0 35 -10zM492 903q-26 -56 -45.5 -104t-41 -111t-34.5 -126.5t-21.5 -135.5t-7 -153.5t13.5 -166.5q4 -29 25 -38q65 -38 123 -13q73 36 106 103q35 56 67 200t32 174q-5 33 -15 43q-91 112 -202 328zM719 672q3 0 8 1t8 1q0 24 -4 74
q-7 97 -26 227.5t-39 150.5q-36 47 -66 29q-17 -12 -25 -34.5t-4 -45.5q0 -4 2 -11t2 -11q24 -116 25 -148q7 -116 119 -233zM279 1505q5 10 14.5 33.5t17.5 32.5l224 256q24 31 63 4q5 -3 26.5 -17t28.5 -18.5t25 -17.5t27.5 -21.5t23.5 -21.5t24.5 -27t20.5 -29
q3 -3 13.5 -9.5t13.5 -12.5q1 -2 8.5 -10t9.5 -11t8 -11.5t8 -13t5.5 -13t3.5 -16t-0.5 -17t-3.5 -19.5q-4 -11 2.5 -48.5t-8.5 -53.5q-85 0 -146 43l-180 129q-25 10 -43 -14q-8 -10 -30.5 -29t-31.5 -33q-18 -23 -53 -31.5t-71 -3.5zM881 1671q-25 5 -40.5 26t-11.5 46
q3 17 13 28.5t32.5 27t32.5 24.5q26 20 39 53q5 32 4 35q-9 27 -39 39q-11 0 -16 -6q-13 -10 -10 -21q26 -69 -41 -102q-25 -11 -48.5 -2.5t-33.5 34.5l-6 15q-13 55 8 84q6 24 18 42t31 30t32 18t36 14q7 7 22 4q3 -1 33 -10.5t45 -19.5q38 -23 68 -64q33 -50 16 -94
q-22 -63 -59 -109q-27 -30 -60 -41l-18 -12q-18 -49 -47 -39z" />
    <glyph glyph-name="uni1ED5" unicode="&#x1ed5;" horiz-adv-x="962" 
d="M408 913q13 3 38 6.5t39 6.5q99 12 168 -107q81 -177 64 -317l-17 -64q9 0 23.5 -1.5t25.5 -1.5t21 3q108 37 123 43q30 13 39 13q4 0 9.5 -2.5t12 -7.5t9.5 -7q0 -11 -50 -43.5t-79 -36.5q-23 -5 -71 -8.5t-65 -5.5q-5 -12 -50 -101t-60 -112q-103 -146 -277 -125
q-109 12 -193.5 94t-105.5 191q-21 87 -6 174q23 137 50 234t77 186q24 42 64 88q26 29 42.5 31.5t51.5 -15.5q33 -18 50.5 -29.5t38.5 -35t28 -50.5zM592 438l-178 189q-8 -19 -23 -58t-18 -45q-63 -155 -70 -172q-45 -105 10 -207q19 -35 41.5 -42t57.5 10q52 23 80 92
q68 156 100 233zM467 889q-3 -16 -11.5 -60t-11.5 -69q-11 -72 21 -117q4 -6 15 -22t19.5 -27t18.5 -21q19 -23 76 -71q39 96 -6 313q-11 39 -42.5 58.5t-78.5 15.5zM156 1104q5 10 14.5 33t17.5 32l224 256q25 32 63 5q5 -3 26.5 -17t28.5 -18.5t25 -17.5t27.5 -21.5
t23.5 -21.5t24.5 -27t20.5 -29q3 -3 13.5 -10t13.5 -13q1 -1 10 -11t11 -13t8.5 -12.5t8 -16t4 -16t1.5 -20t-4 -21.5q-4 -11 2.5 -49t-8.5 -54q-85 0 -146 43l-180 129q-25 10 -43 -14q-8 -10 -30 -29t-31 -32q-17 -23 -53 -31.5t-72 -3.5zM766 1313q-25 5 -40 25.5
t-11 45.5q3 17 13 28.5t32.5 27t32.5 24.5q24 19 38 54q1 5 3 13t2.5 11.5t-0.5 9.5q-9 27 -39 39q-13 0 -17 -6q-12 -10 -10 -20q27 -70 -41 -103q-25 -11 -48.5 -2t-33.5 35l-6 14q-13 55 8 84q7 32 29 54.5t40 31t48 19.5q7 7 22 4l32 -10q31 -11 46 -21q39 -23 68 -63
q34 -51 16 -95q-21 -62 -59 -108q-27 -30 -60 -41l-18 -12q-18 -49 -47 -39z" />
    <glyph glyph-name="uni1ED6" unicode="&#x1ed6;" horiz-adv-x="1273" 
d="M692 1401q4 -18 4.5 -37t-2 -33.5t-8.5 -34.5t-11 -32.5t-14.5 -34.5t-13.5 -33h37q70 7 139 -55q10 -10 13 -19q2 -6 11 -35t14.5 -51t16 -73.5t13 -102t6.5 -137.5t-2 -180q53 -22 123 10q15 7 45 21.5t47.5 23t42 22t45.5 27.5q55 36 70 8q11 -17 5 -35t-26 -28
q-64 -36 -156 -73.5t-139 -41.5q-35 -4 -50 -17t-23 -44q-35 -148 -136 -289q-64 -91 -102 -131q-29 -31 -88 -41q-2 0 -8 -1q-322 -44 -469 193q-19 35 -33.5 83t-19.5 75t-15 88q-16 97 -1 195t52 211q44 129 83 220.5t94 174.5q20 30 102 131q7 9 15 16t19 12.5l17 8.5
t21 8.5t20 7.5q90 33 227 33q12 0 35 -10zM492 903q-26 -56 -45.5 -104t-41 -111t-34.5 -126.5t-21.5 -135.5t-7 -153.5t13.5 -166.5q4 -29 25 -38q65 -38 123 -13q73 36 106 103q35 56 67 200t32 174q-5 33 -15 43q-91 112 -202 328zM719 672q3 0 8 1t8 1q0 24 -4 74
q-7 97 -26 227.5t-39 150.5q-36 47 -66 29q-17 -12 -25 -34.5t-4 -45.5q0 -4 2 -11t2 -11q24 -116 25 -148q7 -116 119 -233zM279 1505q5 10 14.5 33.5t17.5 32.5l224 256q24 31 63 4q5 -3 26.5 -17t28.5 -18.5t25 -17.5t27.5 -21.5t23.5 -21.5t24.5 -27t20.5 -29
q3 -3 13.5 -9.5t13.5 -12.5q1 -2 8.5 -10t9.5 -11t8 -11.5t8 -13t5.5 -13t3.5 -16t-0.5 -17t-3.5 -19.5q-4 -11 2.5 -48.5t-8.5 -53.5q-85 0 -146 43l-180 129q-25 10 -43 -14q-8 -10 -30.5 -29t-31.5 -33q-18 -23 -53 -31.5t-71 -3.5zM831 1939q18 16 76 91q20 22 32.5 35
t35 30.5t49.5 32.5q46 -15 37 -62q-22 -84 -23 -88q-2 -16 -16 -49q-33 -99 -148 -96q-82 3 -151 72q-15 14 -40 41t-34 36q-17 17 -20 15q-53 -53 -92 -84l-84 -66q-47 -35 -62 43q-12 79 53 144q81 70 207 57q54 -6 88 -49q8 -9 22.5 -31t22.5 -31q23 -23 47 -41z" />
    <glyph glyph-name="uni1ED7" unicode="&#x1ed7;" horiz-adv-x="962" 
d="M408 913q13 3 38 6.5t39 6.5q99 12 168 -107q81 -177 64 -317l-17 -64q9 0 23.5 -1.5t25.5 -1.5t21 3q108 37 123 43q30 13 39 13q4 0 9.5 -2.5t12 -7.5t9.5 -7q0 -11 -50 -43.5t-79 -36.5q-23 -5 -71 -8.5t-65 -5.5q-5 -12 -50 -101t-60 -112q-103 -146 -277 -125
q-109 12 -193.5 94t-105.5 191q-21 87 -6 174q23 137 50 234t77 186q24 42 64 88q26 29 42.5 31.5t51.5 -15.5q33 -18 50.5 -29.5t38.5 -35t28 -50.5zM592 438l-178 189q-8 -19 -23 -58t-18 -45q-63 -155 -70 -172q-45 -105 10 -207q19 -35 41.5 -42t57.5 10q52 23 80 92
q68 156 100 233zM467 889q-3 -16 -11.5 -60t-11.5 -69q-11 -72 21 -117q4 -6 15 -22t19.5 -27t18.5 -21q19 -23 76 -71q39 96 -6 313q-11 39 -42.5 58.5t-78.5 15.5zM156 1102q5 10 14.5 33t17.5 32l224 256q24 31 63 4q4 -3 30.5 -19.5t34 -22t28.5 -21t31.5 -26
t25.5 -27.5t26 -35q3 -3 13.5 -10t13.5 -13q1 -1 10 -11t11 -13t8.5 -12.5t8 -16t4 -16t1.5 -20t-4 -21.5q-4 -11 2.5 -49t-8.5 -54q-85 0 -146 43l-180 129q-25 10 -43 -14q-8 -10 -30 -29t-31 -32q-17 -23 -53 -31.5t-72 -3.5zM674 1546q20 18 76 90q22 25 32.5 36
t33.5 30t50 33q46 -15 37 -62q-2 -7 -9 -38.5t-13 -49.5q-2 -13 -17 -49q-33 -99 -147 -96q-84 3 -152 71q-15 14 -39 41t-34 37q-4 4 -9 8t-8.5 6t-3.5 1q-53 -53 -92 -84l-84 -66q-47 -35 -62 43q-12 77 54 143q82 71 207 58q54 -6 88 -49q8 -9 22.5 -31t22.5 -31
q23 -23 47 -41z" />
    <glyph glyph-name="uni1ED8" unicode="&#x1ed8;" horiz-adv-x="1273" 
d="M692 1401q4 -18 4.5 -37t-2 -33.5t-8.5 -34.5t-11 -32.5t-14.5 -34.5t-13.5 -33h37q70 7 139 -55q10 -10 13 -19q2 -6 11 -35t14.5 -51t16 -73.5t13 -102t6.5 -137.5t-2 -180q53 -22 123 10q15 7 45 21.5t47.5 23t42 22t45.5 27.5q55 36 70 8q11 -17 5 -35t-26 -28
q-64 -36 -156 -73.5t-139 -41.5q-35 -4 -50 -17t-23 -44q-35 -148 -136 -289q-64 -91 -102 -131q-29 -31 -88 -41q-2 0 -8 -1q-322 -44 -469 193q-19 35 -33.5 83t-19.5 75t-15 88q-16 97 -1 195t52 211q44 129 83 220.5t94 174.5q20 30 102 131q7 9 15 16t19 12.5l17 8.5
t21 8.5t20 7.5q90 33 227 33q12 0 35 -10zM492 903q-26 -56 -45.5 -104t-41 -111t-34.5 -126.5t-21.5 -135.5t-7 -153.5t13.5 -166.5q4 -29 25 -38q65 -38 123 -13q73 36 106 103q35 56 67 200t32 174q-5 33 -15 43q-91 112 -202 328zM719 672q3 0 8 1t8 1q0 24 -4 74
q-7 97 -26 227.5t-39 150.5q-36 47 -66 29q-17 -12 -25 -34.5t-4 -45.5q0 -4 2 -11t2 -11q24 -116 25 -148q7 -116 119 -233zM338 1479q5 9 15 32.5t18 32.5l223 256q24 31 63 4q6 -4 30.5 -19.5t33.5 -22t29.5 -21.5t31.5 -26t26 -27.5t26 -34.5q2 -2 12.5 -9.5t13.5 -13.5
q1 -1 10 -11t11 -13t8.5 -12.5t8 -16t4 -16t1.5 -20t-4 -21.5q-4 -11 2.5 -49t-8.5 -54q-84 0 -145 43l-181 129q-25 10 -43 -14q-8 -10 -30 -29t-31 -33q-17 -23 -53 -31t-72 -3zM315 -467q-23 0 -52 27q-39 36 -58 110q-15 58 33 94q62 44 174 76q38 10 61.5 -9.5
t28.5 -61.5q0 -29 -4 -107q-3 -46 -37 -76l-4 -4q-19 -44 -49.5 -52t-92.5 3z" />
    <glyph glyph-name="uni1ED9" unicode="&#x1ed9;" horiz-adv-x="962" 
d="M408 913q13 3 38 6.5t39 6.5q99 12 168 -107q81 -177 64 -317l-17 -64q9 0 23.5 -1.5t25.5 -1.5t21 3q108 37 123 43q30 13 39 13q4 0 9.5 -2.5t12 -7.5t9.5 -7q0 -11 -50 -43.5t-79 -36.5q-23 -5 -71 -8.5t-65 -5.5q-5 -12 -50 -101t-60 -112q-103 -146 -277 -125
q-109 12 -193.5 94t-105.5 191q-21 87 -6 174q23 137 50 234t77 186q24 42 64 88q26 29 42.5 31.5t51.5 -15.5q33 -18 50.5 -29.5t38.5 -35t28 -50.5zM592 438l-178 189q-8 -19 -23 -58t-18 -45q-63 -155 -70 -172q-45 -105 10 -207q19 -35 41.5 -42t57.5 10q52 23 80 92
q68 156 100 233zM467 889q-3 -16 -11.5 -60t-11.5 -69q-11 -72 21 -117q4 -6 15 -22t19.5 -27t18.5 -21q19 -23 76 -71q39 96 -6 313q-11 39 -42.5 58.5t-78.5 15.5zM156 1104q5 10 14.5 33t17.5 32l224 256q25 32 63 5q5 -3 26.5 -17t28.5 -18.5t25 -17.5t27.5 -21.5
t23.5 -21.5t24.5 -27t20.5 -29q3 -3 13.5 -10t13.5 -13q1 -1 10 -11t11 -13t8.5 -12.5t8 -16t4 -16t1.5 -20t-4 -21.5q-4 -11 2.5 -49t-8.5 -54q-85 0 -146 43l-180 129q-25 10 -43 -14q-8 -10 -30 -29t-31 -32q-17 -23 -53 -31.5t-72 -3.5zM270 -362q-23 0 -52 27
q-39 36 -58 110q-15 58 33 94q62 44 174 76q37 10 61 -10t29 -62q0 -28 -4 -106q-3 -46 -37 -76l-4 -4q-19 -44 -49.5 -52t-92.5 3z" />
    <glyph glyph-name="uni1EDA" unicode="&#x1eda;" horiz-adv-x="1273" 
d="M492 903q-26 -56 -45.5 -104t-41 -111t-34.5 -126.5t-21.5 -135.5t-7 -153.5t13.5 -166.5q4 -29 25 -38q65 -38 123 -13q73 36 106 103q35 56 67 200t32 174q-5 33 -15 43q-91 112 -202 328zM719 672q3 0 8 1t8 1q0 24 -4 74q-7 97 -26 227.5t-39 150.5q-36 47 -66 29
q-17 -12 -25 -34.5t-4 -45.5q0 -4 2 -11t2 -11q24 -116 25 -148q7 -116 119 -233zM872 1087l-22 -12q1 -1 2 -4.5t2 -5.5q55 -168 41 -522q53 -22 123 10q15 7 45 21.5t47.5 23t42 22t45.5 27.5q55 36 70 8q11 -17 5 -35t-26 -28q-64 -36 -156 -73.5t-139 -41.5
q-35 -4 -50 -17t-23 -44q-35 -148 -136 -289q-64 -91 -102 -131q-29 -31 -88 -41q-2 0 -8 -1q-322 -44 -469 193q-19 35 -33.5 83t-19.5 75t-15 88q-16 97 -1 195t52 211q44 129 83 220.5t94 174.5q20 30 102 131q7 9 15 16t19 12.5l17 8.5t21 8.5t20 7.5q90 33 227 33
q12 0 35 -10q4 -18 4.5 -37t-2 -33.5t-8.5 -34.5t-11 -32.5t-14.5 -34.5t-13.5 -33h37q44 3 74 -10l12 4q39 12 66.5 41t40.5 59t10 105q-3 31 96 28t96 -59q0 -54 -24 -113q-46 -100 -135 -141zM571 1511q-18 34 9 72q11 12 51 60.5t65 68.5q22 17 46.5 33.5t57.5 36.5
t48 30l53 -24q0 -51 -2 -76q-4 -17 -6.5 -24.5t-11.5 -17t-23 -13.5q-10 0 -27 -21l-47 -45q-86 -71 -213 -80z" />
    <glyph glyph-name="uni1EDB" unicode="&#x1edb;" horiz-adv-x="962" 
d="M592 438l-178 189q-8 -19 -23 -58t-18 -45q-63 -155 -70 -172q-45 -105 10 -207q19 -35 41.5 -42t57.5 10q52 23 80 92q68 156 100 233zM467 889q-3 -16 -11.5 -60t-11.5 -69q-11 -72 21 -117q4 -6 15 -22t19.5 -27t18.5 -21q19 -23 76 -71q39 96 -6 313
q-11 39 -42.5 58.5t-78.5 15.5zM719 700l-19 -8q13 -60 17 -90q6 -51 0 -100l-17 -64q9 0 23.5 -1.5t25.5 -1.5t21 3q108 37 123 43q30 13 39 13q4 0 9.5 -2.5t12 -7.5t9.5 -7q0 -11 -50 -43.5t-79 -36.5q-23 -5 -71 -8.5t-65 -5.5q-5 -12 -50 -101t-60 -112
q-103 -146 -277 -125q-109 12 -193.5 94t-105.5 191q-21 87 -6 174q23 137 50 234t77 186q24 42 64 88q26 29 42.5 31.5t51.5 -15.5q33 -18 50.5 -29.5t38.5 -35t28 -50.5q13 3 38 6.5t39 6.5q61 9 103 -27q42 -39 65 -78l15 4q39 12 66 41.5t40 59.5t10 104q-3 32 97 29
q99 -3 96 -60q0 -51 -25 -112q-47 -102 -135 -142q-12 -6 -30.5 -15t-34.5 -16.5t-33 -13.5zM416 1040q-18 35 8 72q10 11 51 60t66 69q22 18 46 34t57.5 36.5t47.5 29.5l53 -24q0 -51 -2 -76q-4 -17 -6.5 -24.5t-11.5 -17t-23 -13.5q-9 0 -26 -21l-47 -45q-86 -71 -213 -80
z" />
    <glyph glyph-name="uni1EDC" unicode="&#x1edc;" horiz-adv-x="1273" 
d="M492 903q-26 -56 -45.5 -104t-41 -111t-34.5 -126.5t-21.5 -135.5t-7 -153.5t13.5 -166.5q4 -29 25 -38q65 -38 123 -13q73 36 106 103q35 56 67 200t32 174q-5 33 -15 43q-91 112 -202 328zM719 672q3 0 8 1t8 1q0 24 -4 74q-7 97 -26 227.5t-39 150.5q-36 47 -66 29
q-17 -12 -25 -34.5t-4 -45.5q0 -4 2 -11t2 -11q24 -116 25 -148q7 -116 119 -233zM872 1087l-22 -12q1 -1 2 -4.5t2 -5.5q55 -168 41 -522q53 -22 123 10q15 7 45 21.5t47.5 23t42 22t45.5 27.5q55 36 70 8q11 -17 5 -35t-26 -28q-64 -36 -156 -73.5t-139 -41.5
q-35 -4 -50 -17t-23 -44q-35 -148 -136 -289q-64 -91 -102 -131q-29 -31 -88 -41q-2 0 -8 -1q-322 -44 -469 193q-19 35 -33.5 83t-19.5 75t-15 88q-16 97 -1 195t52 211q44 129 83 220.5t94 174.5q20 30 102 131q7 9 15 16t19 12.5l17 8.5t21 8.5t20 7.5q90 33 227 33
q12 0 35 -10q4 -18 4.5 -37t-2 -33.5t-8.5 -34.5t-11 -32.5t-14.5 -34.5t-13.5 -33h37q44 3 74 -10l12 4q39 12 66.5 41t40.5 59t10 105q-3 31 96 28t96 -59q0 -54 -24 -113q-46 -100 -135 -141zM801 1503l-2 -14q-2 0 -24 -4.5t-36 -3.5q-98 3 -202 80q-23 19 -71 55.5
t-71 56.5q76 101 180 58q26 -9 56 -52q25 -24 53.5 -53.5t63 -66t53.5 -56.5z" />
    <glyph glyph-name="uni1EDD" unicode="&#x1edd;" horiz-adv-x="962" 
d="M592 438l-178 189q-8 -19 -23 -58t-18 -45q-63 -155 -70 -172q-45 -105 10 -207q19 -35 41.5 -42t57.5 10q52 23 80 92q68 156 100 233zM467 889q-3 -16 -11.5 -60t-11.5 -69q-11 -72 21 -117q4 -6 15 -22t19.5 -27t18.5 -21q19 -23 76 -71q39 96 -6 313
q-11 39 -42.5 58.5t-78.5 15.5zM719 700l-19 -8q13 -60 17 -90q6 -51 0 -100l-17 -64q9 0 23.5 -1.5t25.5 -1.5t21 3q108 37 123 43q30 13 39 13q4 0 9.5 -2.5t12 -7.5t9.5 -7q0 -11 -50 -43.5t-79 -36.5q-23 -5 -71 -8.5t-65 -5.5q-5 -12 -50 -101t-60 -112
q-103 -146 -277 -125q-109 12 -193.5 94t-105.5 191q-21 87 -6 174q23 137 50 234t77 186q24 42 64 88q26 29 42.5 31.5t51.5 -15.5q33 -18 50.5 -29.5t38.5 -35t28 -50.5q13 3 38 6.5t39 6.5q61 9 103 -27q42 -39 65 -78l15 4q39 12 66 41.5t40 59.5t10 104q-3 32 97 29
q99 -3 96 -60q0 -51 -25 -112q-47 -102 -135 -142q-12 -6 -30.5 -15t-34.5 -16.5t-33 -13.5zM641 1063l-2 -14q-4 0 -24.5 -5t-34.5 -4q-99 3 -203 80q-23 20 -70 57t-71 56q75 100 180 57q26 -9 55 -51q25 -24 53.5 -53.5t63 -66t53.5 -56.5z" />
    <glyph glyph-name="uni1EDE" unicode="&#x1ede;" horiz-adv-x="1273" 
d="M492 903q-26 -56 -45.5 -104t-41 -111t-34.5 -126.5t-21.5 -135.5t-7 -153.5t13.5 -166.5q4 -29 25 -38q65 -38 123 -13q73 36 106 103q35 56 67 200t32 174q-5 33 -15 43q-91 112 -202 328zM719 672q3 0 8 1t8 1q0 24 -4 74q-7 97 -26 227.5t-39 150.5q-36 47 -66 29
q-17 -12 -25 -34.5t-4 -45.5q0 -4 2 -11t2 -11q24 -116 25 -148q7 -116 119 -233zM872 1087l-22 -12q1 -1 2 -4.5t2 -5.5q55 -168 41 -522q53 -22 123 10q15 7 45 21.5t47.5 23t42 22t45.5 27.5q55 36 70 8q11 -17 5 -35t-26 -28q-64 -36 -156 -73.5t-139 -41.5
q-35 -4 -50 -17t-23 -44q-35 -148 -136 -289q-64 -91 -102 -131q-29 -31 -88 -41q-2 0 -8 -1q-322 -44 -469 193q-19 35 -33.5 83t-19.5 75t-15 88q-16 97 -1 195t52 211q44 129 83 220.5t94 174.5q20 30 102 131q7 9 15 16t19 12.5l17 8.5t21 8.5t20 7.5q90 33 227 33
q12 0 35 -10q4 -18 4.5 -37t-2 -33.5t-8.5 -34.5t-11 -32.5t-14.5 -34.5t-13.5 -33h37q44 3 74 -10l12 4q39 12 66.5 41t40.5 59t10 105q-3 31 96 28t96 -59q0 -54 -24 -113q-46 -100 -135 -141zM713 1446q-25 5 -40 26t-11 46q3 17 13 28.5t32 26.5t32 24q25 20 39 54
q5 32 4 35q-9 26 -39 38q-11 0 -16 -6q-13 -10 -10 -20q27 -70 -41 -103q-25 -11 -48.5 -2t-33.5 35l-6 14q-13 55 8 84q7 32 29 54.5t40 31t48 19.5q7 7 22 4l31 -11q32 -10 47 -20q39 -23 68 -63q33 -50 16 -94q-22 -63 -59 -109q-27 -30 -60 -41l-18 -12q-18 -49 -47 -39
z" />
    <glyph glyph-name="uni1EDF" unicode="&#x1edf;" horiz-adv-x="962" 
d="M592 438l-178 189q-8 -19 -23 -58t-18 -45q-63 -155 -70 -172q-45 -105 10 -207q19 -35 41.5 -42t57.5 10q52 23 80 92q68 156 100 233zM467 889q-3 -16 -11.5 -60t-11.5 -69q-11 -72 21 -117q4 -6 15 -22t19.5 -27t18.5 -21q19 -23 76 -71q39 96 -6 313
q-11 39 -42.5 58.5t-78.5 15.5zM719 700l-19 -8q13 -60 17 -90q6 -51 0 -100l-17 -64q9 0 23.5 -1.5t25.5 -1.5t21 3q108 37 123 43q30 13 39 13q4 0 9.5 -2.5t12 -7.5t9.5 -7q0 -11 -50 -43.5t-79 -36.5q-23 -5 -71 -8.5t-65 -5.5q-5 -12 -50 -101t-60 -112
q-103 -146 -277 -125q-109 12 -193.5 94t-105.5 191q-21 87 -6 174q23 137 50 234t77 186q24 42 64 88q26 29 42.5 31.5t51.5 -15.5q33 -18 50.5 -29.5t38.5 -35t28 -50.5q13 3 38 6.5t39 6.5q61 9 103 -27q42 -39 65 -78l15 4q39 12 66 41.5t40 59.5t10 104q-3 32 97 29
q99 -3 96 -60q0 -51 -25 -112q-47 -102 -135 -142q-12 -6 -30.5 -15t-34.5 -16.5t-33 -13.5zM504 1042q-25 5 -40 26t-11 46q3 17 13 28.5t32 27t32 24.5q26 20 39 53q5 32 4 35q-9 27 -38 39q-13 0 -17 -6q-13 -10 -10 -21q26 -69 -41 -102q-25 -11 -48.5 -2t-33.5 35
l-6 14q-13 55 8 84q6 24 18 42t31 30t32 18t36 14q8 8 22 5l32 -10q31 -11 46 -21q38 -23 68 -64q34 -50 16 -94q-21 -62 -59 -108q-27 -30 -60 -41l-18 -13q-18 -49 -47 -39z" />
    <glyph glyph-name="uni1EE0" unicode="&#x1ee0;" horiz-adv-x="1273" 
d="M492 903q-26 -56 -45.5 -104t-41 -111t-34.5 -126.5t-21.5 -135.5t-7 -153.5t13.5 -166.5q4 -29 25 -38q65 -38 123 -13q73 36 106 103q35 56 67 200t32 174q-5 33 -15 43q-91 112 -202 328zM719 672q3 0 8 1t8 1q0 24 -4 74q-7 97 -26 227.5t-39 150.5q-36 47 -66 29
q-17 -12 -25 -34.5t-4 -45.5q0 -4 2 -11t2 -11q24 -116 25 -148q7 -116 119 -233zM872 1087l-22 -12q1 -1 2 -4.5t2 -5.5q55 -168 41 -522q53 -22 123 10q15 7 45 21.5t47.5 23t42 22t45.5 27.5q55 36 70 8q11 -17 5 -35t-26 -28q-64 -36 -156 -73.5t-139 -41.5
q-35 -4 -50 -17t-23 -44q-35 -148 -136 -289q-64 -91 -102 -131q-29 -31 -88 -41q-2 0 -8 -1q-322 -44 -469 193q-19 35 -33.5 83t-19.5 75t-15 88q-16 97 -1 195t52 211q44 129 83 220.5t94 174.5q20 30 102 131q7 9 15 16t19 12.5l17 8.5t21 8.5t20 7.5q90 33 227 33
q12 0 35 -10q4 -18 4.5 -37t-2 -33.5t-8.5 -34.5t-11 -32.5t-14.5 -34.5t-13.5 -33h37q44 3 74 -10l12 4q39 12 66.5 41t40.5 59t10 105q-3 31 96 28t96 -59q0 -54 -24 -113q-46 -100 -135 -141zM745 1585q20 18 76 90q60 68 117 99q46 -15 37 -62q-22 -83 -23 -88
q-2 -16 -16 -49q-33 -99 -148 -96q-83 3 -151 71q-15 14 -39.5 41t-34.5 37q-4 4 -8.5 7.5t-8 5.5t-3.5 1q-48 -48 -92 -83l-84 -66q-47 -35 -62 43q-12 78 53 143q82 71 207 58q54 -6 88 -49q8 -9 22.5 -31t22.5 -31q23 -23 47 -41z" />
    <glyph glyph-name="uni1EE1" unicode="&#x1ee1;" horiz-adv-x="962" 
d="M592 438l-178 189q-8 -19 -23 -58t-18 -45q-63 -155 -70 -172q-45 -105 10 -207q19 -35 41.5 -42t57.5 10q52 23 80 92q68 156 100 233zM467 889q-3 -16 -11.5 -60t-11.5 -69q-11 -72 21 -117q4 -6 15 -22t19.5 -27t18.5 -21q19 -23 76 -71q39 96 -6 313
q-11 39 -42.5 58.5t-78.5 15.5zM719 700l-19 -8q13 -60 17 -90q6 -51 0 -100l-17 -64q9 0 23.5 -1.5t25.5 -1.5t21 3q108 37 123 43q30 13 39 13q4 0 9.5 -2.5t12 -7.5t9.5 -7q0 -11 -50 -43.5t-79 -36.5q-23 -5 -71 -8.5t-65 -5.5q-5 -12 -50 -101t-60 -112
q-103 -146 -277 -125q-109 12 -193.5 94t-105.5 191q-21 87 -6 174q23 137 50 234t77 186q24 42 64 88q26 29 42.5 31.5t51.5 -15.5q33 -18 50.5 -29.5t38.5 -35t28 -50.5q13 3 38 6.5t39 6.5q61 9 103 -27q42 -39 65 -78l15 4q39 12 66 41.5t40 59.5t10 104q-3 32 97 29
q99 -3 96 -60q0 -51 -25 -112q-47 -102 -135 -142q-12 -6 -30.5 -15t-34.5 -16.5t-33 -13.5zM596 1198q20 18 76 90q21 23 32.5 35t34 30t49.5 33q45 -15 37 -61q-2 -7 -9 -38.5t-13 -49.5q-2 -13 -17 -49q-33 -99 -147 -96q-84 3 -152 71q-15 14 -39 41t-34 37q-4 4 -9 7.5
t-8.5 5.5t-3.5 1q-53 -53 -92 -84l-84 -65q-46 -34 -61 43q-12 78 53 143q82 71 207 58q53 -6 88 -50q8 -9 22.5 -30.5t22.5 -30.5q23 -23 47 -41z" />
    <glyph glyph-name="uni1EE2" unicode="&#x1ee2;" horiz-adv-x="1273" 
d="M492 903q-26 -56 -45.5 -104t-41 -111t-34.5 -126.5t-21.5 -135.5t-7 -153.5t13.5 -166.5q4 -29 25 -38q65 -38 123 -13q73 36 106 103q35 56 67 200t32 174q-5 33 -15 43q-91 112 -202 328zM719 672q3 0 8 1t8 1q0 24 -4 74q-7 97 -26 227.5t-39 150.5q-36 47 -66 29
q-17 -12 -25 -34.5t-4 -45.5q0 -4 2 -11t2 -11q24 -116 25 -148q7 -116 119 -233zM872 1087l-22 -12q1 -1 2 -4.5t2 -5.5q55 -168 41 -522q53 -22 123 10q15 7 45 21.5t47.5 23t42 22t45.5 27.5q55 36 70 8q11 -17 5 -35t-26 -28q-64 -36 -156 -73.5t-139 -41.5
q-35 -4 -50 -17t-23 -44q-35 -148 -136 -289q-64 -91 -102 -131q-29 -31 -88 -41q-2 0 -8 -1q-322 -44 -469 193q-19 35 -33.5 83t-19.5 75t-15 88q-16 97 -1 195t52 211q44 129 83 220.5t94 174.5q20 30 102 131q7 9 15 16t19 12.5l17 8.5t21 8.5t20 7.5q90 33 227 33
q12 0 35 -10q4 -18 4.5 -37t-2 -33.5t-8.5 -34.5t-11 -32.5t-14.5 -34.5t-13.5 -33h37q44 3 74 -10l12 4q39 12 66.5 41t40.5 59t10 105q-3 31 96 28t96 -59q0 -54 -24 -113q-46 -100 -135 -141zM270 -424q-23 0 -52 27q-39 36 -58 110q-15 58 33 94q62 44 174 76
q38 10 61.5 -9.5t28.5 -61.5q0 -29 -4 -107q-3 -46 -37 -76l-4 -4q-19 -44 -49.5 -52t-92.5 3z" />
    <glyph glyph-name="uni1EE3" unicode="&#x1ee3;" horiz-adv-x="962" 
d="M592 438l-178 189q-8 -19 -23 -58t-18 -45q-63 -155 -70 -172q-45 -105 10 -207q19 -35 41.5 -42t57.5 10q52 23 80 92q68 156 100 233zM467 889q-3 -16 -11.5 -60t-11.5 -69q-11 -72 21 -117q4 -6 15 -22t19.5 -27t18.5 -21q19 -23 76 -71q39 96 -6 313
q-11 39 -42.5 58.5t-78.5 15.5zM719 700l-19 -8q13 -60 17 -90q6 -51 0 -100l-17 -64q9 0 23.5 -1.5t25.5 -1.5t21 3q108 37 123 43q30 13 39 13q4 0 9.5 -2.5t12 -7.5t9.5 -7q0 -11 -50 -43.5t-79 -36.5q-23 -5 -71 -8.5t-65 -5.5q-5 -12 -50 -101t-60 -112
q-103 -146 -277 -125q-109 12 -193.5 94t-105.5 191q-21 87 -6 174q23 137 50 234t77 186q24 42 64 88q26 29 42.5 31.5t51.5 -15.5q33 -18 50.5 -29.5t38.5 -35t28 -50.5q13 3 38 6.5t39 6.5q61 9 103 -27q42 -39 65 -78l15 4q39 12 66 41.5t40 59.5t10 104q-3 32 97 29
q99 -3 96 -60q0 -51 -25 -112q-47 -102 -135 -142q-12 -6 -30.5 -15t-34.5 -16.5t-33 -13.5zM160 -342q-24 0 -52 27q-40 36 -59 110q-15 58 33 94q62 44 174 76q38 10 61.5 -9.5t28.5 -61.5q0 -29 -4 -107q-3 -46 -37 -76l-4 -4q-19 -44 -49 -52t-92 3z" />
    <glyph glyph-name="uni1EE4" unicode="&#x1ee4;" horiz-adv-x="907" 
d="M883 784q8 -49 17 -233t5 -246q-2 -69 -45 -178q-6 -16 -19 -38t-39 -52t-58 -54.5t-78.5 -41.5t-96.5 -17q-259 10 -381 185q-8 11 -15 23t-13 22.5t-13 25t-11.5 23t-11.5 25.5t-10 24.5t-10 26t-9 24.5t-9.5 26.5t-9.5 24.5q-16 48 -31.5 142.5t-19.5 111.5
q-28 156 -21 264q0 18 -2 146t-2 141q4 176 27 264q97 13 204 -47q46 -22 56 -88q7 -15 51.5 -89t48.5 -103q38 -338 31 -420q-6 -29 1 -193.5t13 -191.5q7 -34 44 -102t77 -72q32 2 56.5 51.5t36.5 117t18 120t6 79.5q6 62 16 286t10 271q2 48 13 134q6 50 55 59
q26 5 39.5 -3t23.5 -36q13 -54 13 -100q0 -42 17 -158.5t26 -153.5zM465 -489q-24 0 -52 27q-40 36 -59 110q-15 58 33 94q62 44 174 76q37 10 61 -10t29 -62q0 -28 -4 -106q-3 -46 -37 -76l-4 -4q-19 -44 -49 -52t-92 3z" />
    <glyph glyph-name="uni1EE5" unicode="&#x1ee5;" horiz-adv-x="1091" 
d="M772 152q10 -3 20.5 4t24 23.5t14.5 17.5q72 82 152 186q14 17 26 37t26 45t22 39q2 -1 7 -3q67 -24 -60 -204q-21 -27 -59 -83t-60 -83q-48 -54 -119 -39q-167 46 -125 203q3 5 4 18t4 21q-13 23 -43 -4t-55 -66q-29 -37 -47 -67q-58 -71 -179 -117t-210 -12
q-85 42 -103 139q-32 159 31 330q22 63 68.5 177t64.5 163q16 32 59.5 68.5t67.5 25.5q19 -12 58 -28.5t59 -27.5q25 -10 35 -32q10 -30 19 -102.5t9 -92.5q-12 -107 -75 -254q-60 -155 -107 -227q-8 -10 -17 -33t-14 -33q76 18 127 82q49 63 162 228q48 62 132.5 193
t92.5 153q15 35 52 32q6 -1 32 -1t41 -3q18 -4 26 -17.5t3 -27.5q-76 -283 -111 -385q-10 -30 -57 -207q-5 -7 -5 -18.5t7 -17.5zM272 -311q-23 0 -52 27q-39 36 -58 110q-15 58 33 94q62 44 174 76q37 10 61 -10t29 -62q0 -28 -4 -106q-3 -46 -37 -76l-4 -4
q-19 -44 -49.5 -52t-92.5 3z" />
    <glyph glyph-name="uni1EE6" unicode="&#x1ee6;" horiz-adv-x="907" 
d="M883 784q8 -49 17 -233t5 -246q-2 -69 -45 -178q-6 -16 -19 -38t-39 -52t-58 -54.5t-78.5 -41.5t-96.5 -17q-259 10 -381 185q-8 11 -15 23t-13 22.5t-13 25t-11.5 23t-11.5 25.5t-10 24.5t-10 26t-9 24.5t-9.5 26.5t-9.5 24.5q-16 48 -31.5 142.5t-19.5 111.5
q-28 156 -21 264q0 18 -2 146t-2 141q4 176 27 264q97 13 204 -47q46 -22 56 -88q7 -15 51.5 -89t48.5 -103q38 -338 31 -420q-6 -29 1 -193.5t13 -191.5q7 -34 44 -102t77 -72q32 2 56.5 51.5t36.5 117t18 120t6 79.5q6 62 16 286t10 271q2 48 13 134q6 50 55 59
q26 5 39.5 -3t23.5 -36q13 -54 13 -100q0 -42 17 -158.5t26 -153.5zM520 1378q-25 5 -40 26t-11 46q3 17 13 28.5t32.5 27t32.5 24.5q26 20 39 53q5 32 4 35q-9 27 -39 39q-11 0 -16 -6q-14 -11 -11 -21q26 -69 -41 -102q-25 -11 -48.5 -2t-33.5 35l-6 14q-13 55 8 84
q6 24 18 42t31 30t32 18t36 14q7 7 23 4q3 -1 33 -10.5t45 -19.5q36 -22 67 -64q34 -51 17 -94q-21 -61 -60 -109q-26 -30 -59 -40l-19 -13q-18 -49 -47 -39z" />
    <glyph glyph-name="uni1EE7" unicode="&#x1ee7;" horiz-adv-x="1091" 
d="M772 152q10 -3 20.5 4t24 23.5t14.5 17.5q72 82 152 186q14 17 26 37t26 45t22 39q2 -1 7 -3q67 -24 -60 -204q-21 -27 -59 -83t-60 -83q-48 -54 -119 -39q-167 46 -125 203q3 5 4 18t4 21q-13 23 -43 -4t-55 -66q-29 -37 -47 -67q-58 -71 -179 -117t-210 -12
q-85 42 -103 139q-32 159 31 330q22 63 68.5 177t64.5 163q16 32 59.5 68.5t67.5 25.5q19 -12 58 -28.5t59 -27.5q25 -10 35 -32q10 -30 19 -102.5t9 -92.5q-12 -107 -75 -254q-60 -155 -107 -227q-8 -10 -17 -33t-14 -33q76 18 127 82q49 63 162 228q48 62 132.5 193
t92.5 153q15 35 52 32q6 -1 32 -1t41 -3q18 -4 26 -17.5t3 -27.5q-76 -283 -111 -385q-10 -30 -57 -207q-5 -7 -5 -18.5t7 -17.5zM631 938q-25 5 -40 26t-11 46q3 17 13 28.5t32 27t32 24.5q26 20 39 53q5 32 4 35q-9 27 -38 39q-12 0 -17 -7q-13 -10 -10 -20
q27 -70 -41 -103q-25 -11 -48.5 -2t-33.5 35l-6 15q-13 55 8 84q6 24 18 42t31 30t32 18t36 14q7 7 22 4l31 -11q32 -10 47 -20q39 -23 68 -63q33 -50 16 -94q-22 -63 -59 -109q-27 -30 -60 -41l-18 -12q-18 -49 -47 -39z" />
    <glyph glyph-name="uni1EE8" unicode="&#x1ee8;" horiz-adv-x="907" 
d="M860 1092l-20 -9l6 -55q28 -209 37 -244q8 -49 17 -233t5 -246q-2 -69 -45 -178q-6 -16 -19 -38t-39 -52t-58 -54.5t-78.5 -41.5t-96.5 -17q-259 10 -381 185q-8 11 -15 23t-13 22.5t-13 25t-11.5 23t-11.5 25.5t-10 24.5t-10 26t-9 24.5t-9.5 26.5t-9.5 24.5
q-16 48 -31.5 142.5t-19.5 111.5q-28 156 -21 264q0 18 -2 146t-2 141q4 176 27 264q97 13 204 -47q46 -22 56 -88q7 -15 51.5 -89t48.5 -103q38 -338 31 -420q-6 -29 1 -193.5t13 -191.5q7 -34 44 -102t77 -72q32 2 56.5 51.5t36.5 117t18 120t6 79.5q6 62 16 286t10 271
q2 48 13 134q6 50 55 59q26 3 39 -2q6 -2 14 -14q37 15 62 43q26 29 36 55q14 32 11 104q-3 32 96 29t96 -59q0 -55 -24 -113q-46 -100 -136 -141q-12 -6 -30.5 -15t-34.5 -16.5t-33 -13.5zM442 1407q-18 34 9 72q11 12 51 60.5t65 68.5q22 17 46.5 33.5t57.5 36.5t48 30
l53 -25q0 -50 -2 -75q-3 -14 -4.5 -19t-6 -14.5t-12 -14.5t-18.5 -8q-11 0 -27 -20l-47 -45q-86 -71 -213 -80z" />
    </font>
</defs>
</svg>
